<svg width="3319" height="683" viewBox="0 0 3319 683" fill="none" xmlns="http://www.w3.org/2000/svg">
<g clip-path="url(#clip0_115_13)">
<path d="M299.008 333.879L29.801 125.339C-22.9444 84.4795 5.94904 0 72.6688 0H612.487C679.296 0 708.134 84.666 655.215 125.446L384.604 333.987C359.372 353.432 324.192 353.387 299.008 333.879Z" fill="#348A95"/>
<path d="M0 613V70.148C0 7.76305 75.4446 -23.4588 119.529 20.6822L661.687 563.534C705.741 607.645 674.5 683 612.158 683H70C31.3401 683 0 651.66 0 613Z" fill="#345995"/>
</g>
<path d="M967.871 203C977.229 203.347 985.2 206.812 991.785 213.397C998.37 219.636 1001.84 227.434 1002.18 236.792V491.529C1000.1 512.324 988.666 523.588 967.871 525.321C958.167 525.321 949.676 522.202 942.397 515.963C935.466 509.378 932 501.234 932 491.529V236.792C932.347 227.087 935.986 219.116 942.917 212.878C949.849 206.293 958.167 203 967.871 203ZM1056.77 294.498C1079.99 278.901 1111.36 263.132 1150.87 247.189L1236.13 210.798C1239.94 209.065 1244.1 208.025 1248.6 207.679C1258.31 206.986 1266.62 209.932 1273.56 216.517C1280.49 222.755 1283.95 230.9 1283.95 240.951C1283.95 252.388 1281.53 260.879 1276.68 266.424C1272.17 271.623 1266.28 275.955 1259 279.421L1186.22 306.975C1172.01 312.52 1158.49 318.065 1145.67 323.61C1133.19 328.809 1121.75 334.874 1111.36 341.806C1100.96 348.045 1095.41 355.149 1094.72 363.121C1095.41 370.746 1100.96 377.851 1111.36 384.436C1121.75 391.367 1133.19 397.606 1145.67 403.151C1158.49 408.35 1172.01 413.722 1186.22 419.267L1267.32 448.9C1274.6 452.366 1280.49 456.871 1284.99 462.417C1289.85 467.615 1292.27 475.933 1292.27 487.37C1292.27 497.421 1288.81 505.739 1281.87 512.324C1274.94 518.563 1266.62 521.335 1256.92 520.642C1252.41 520.296 1248.26 519.256 1244.44 517.523L1150.87 479.052C1111.36 463.11 1079.82 447.34 1056.25 431.744C1033.03 415.801 1021.24 392.927 1020.9 363.121C1021.24 333.315 1033.2 310.44 1056.77 294.498Z" fill="#345995"/>
<path d="M1510.62 530C1492.6 530 1474.75 527.921 1457.07 523.762C1439.74 519.603 1423.11 513.537 1407.16 505.566C1391.22 497.248 1377.18 486.331 1365.05 472.814C1352.92 459.297 1346.34 443.181 1345.3 424.466V236.792C1345.3 227.087 1348.76 219.116 1355.7 212.878C1362.97 206.293 1371.47 203 1381.17 203C1401.97 204.733 1413.23 215.997 1414.96 236.792V408.35C1415.66 419.094 1419.64 428.105 1426.92 435.383C1434.54 442.315 1442.86 447.86 1451.87 452.019C1461.23 456.178 1470.76 459.297 1480.47 461.377C1490.52 463.456 1500.57 464.496 1510.62 464.496C1520.67 464.496 1530.55 463.456 1540.25 461.377C1550.3 459.297 1559.83 456.178 1568.84 452.019C1578.2 447.86 1586.52 442.315 1593.8 435.383C1601.42 428.105 1605.58 419.094 1606.28 408.35V236.792C1606.28 227.087 1609.74 219.116 1616.67 212.878C1623.95 206.293 1632.44 203 1642.15 203C1662.94 204.733 1674.38 215.997 1676.46 236.792V424.466C1675.42 443.181 1668.66 459.297 1656.18 472.814C1644.05 486.331 1630.02 497.248 1614.07 505.566C1598.13 513.537 1581.32 519.603 1563.65 523.762C1546.32 527.921 1528.64 530 1510.62 530Z" fill="#345995"/>
<path d="M1971.23 211.318C1995.49 212.704 2015.41 222.062 2031.01 239.391C2046.61 256.374 2057.87 275.782 2064.8 297.617C2071.73 319.452 2075.2 341.806 2075.2 364.68C2075.2 387.555 2071.73 409.909 2064.8 431.744C2058.22 453.579 2046.95 473.161 2031.01 490.49C2015.41 507.472 1995.49 516.657 1971.23 518.043H1779.91C1770.55 517.696 1762.58 514.404 1756 508.165C1749.76 501.58 1746.47 493.609 1746.12 484.251V355.323C1746.47 345.618 1750.11 337.647 1757.04 331.409C1763.97 324.824 1772.29 321.531 1781.99 321.531C1791.35 321.878 1799.32 325.343 1805.91 331.928C1812.49 338.167 1815.96 345.965 1816.3 355.323V434.343C1816.3 443.701 1821.16 448.38 1830.86 448.38H1953.55C1966.72 447.687 1977.64 442.661 1986.3 433.304C1994.97 423.946 2001.21 413.375 2005.02 401.591C2009.18 389.461 2011.26 377.157 2011.26 364.68C2011.26 352.204 2009.18 340.073 2005.02 328.289C2001.21 316.159 1994.97 305.415 1986.3 296.057C1977.64 286.7 1966.72 281.674 1953.55 280.981H1779.91C1759.12 279.248 1747.85 267.984 1746.12 247.189C1746.12 237.485 1749.24 229.167 1755.48 222.235C1762.06 215.304 1770.21 211.665 1779.91 211.318H1971.23Z" fill="#345995"/>
<path d="M2411.04 211.318C2428.71 211.665 2444.48 217.21 2458.35 227.954C2472.21 238.698 2483.3 251.521 2491.62 266.424C2500.28 281.328 2506.69 297.097 2510.85 313.733C2515.01 330.369 2517.09 347.351 2517.09 364.68C2517.09 387.555 2513.45 410.083 2506.17 432.264C2499.24 454.099 2487.63 473.507 2471.34 490.49C2455.4 507.472 2435.3 516.657 2411.04 518.043H2229.6C2205.34 517.003 2185.07 507.992 2168.78 491.01C2152.49 474.027 2140.88 454.445 2133.95 432.264C2127.36 410.083 2124.07 387.555 2124.07 364.68C2124.07 341.806 2127.53 319.452 2134.47 297.617C2141.4 275.436 2152.83 255.854 2168.78 238.871C2185.07 221.542 2205.34 212.358 2229.6 211.318H2411.04ZM2393.36 448.38C2406.53 447.687 2417.45 442.835 2426.11 433.824C2435.13 424.466 2441.54 413.722 2445.35 401.591C2449.16 389.461 2451.07 377.157 2451.07 364.68C2451.07 352.204 2448.99 340.073 2444.83 328.289C2441.02 316.159 2434.78 305.415 2426.11 296.057C2417.45 286.7 2406.53 281.674 2393.36 280.981H2245.72C2232.55 281.674 2221.63 286.7 2212.97 296.057C2204.3 305.415 2197.89 316.159 2193.73 328.289C2189.92 340.073 2188.01 352.204 2188.01 364.68C2188.01 377.157 2189.92 389.461 2193.73 401.591C2197.54 413.722 2203.78 424.466 2212.45 433.824C2221.46 442.835 2232.55 447.687 2245.72 448.38H2393.36Z" fill="#345995"/>
<path d="M2609.63 203C2618.99 203.347 2626.96 206.812 2633.54 213.397C2640.13 219.636 2643.59 227.434 2643.94 236.792V491.529C2641.86 512.324 2630.42 523.588 2609.63 525.321C2599.93 525.321 2591.43 522.202 2584.16 515.963C2577.22 509.378 2573.76 501.234 2573.76 491.529V236.792C2574.1 227.087 2577.74 219.116 2584.68 212.878C2591.61 206.293 2599.93 203 2609.63 203ZM2698.53 294.498C2721.75 278.901 2753.11 263.132 2792.62 247.189L2877.88 210.798C2881.7 209.065 2885.86 208.025 2890.36 207.679C2900.07 206.986 2908.38 209.932 2915.31 216.517C2922.25 222.755 2925.71 230.9 2925.71 240.951C2925.71 252.388 2923.29 260.879 2918.43 266.424C2913.93 271.623 2908.04 275.955 2900.76 279.421L2827.98 306.975C2813.77 312.52 2800.25 318.065 2787.43 323.61C2774.95 328.809 2763.51 334.874 2753.11 341.806C2742.72 348.045 2737.17 355.149 2736.48 363.121C2737.17 370.746 2742.72 377.851 2753.11 384.436C2763.51 391.367 2774.95 397.606 2787.43 403.151C2800.25 408.35 2813.77 413.722 2827.98 419.267L2909.08 448.9C2916.35 452.366 2922.25 456.871 2926.75 462.417C2931.6 467.615 2934.03 475.933 2934.03 487.37C2934.03 497.421 2930.56 505.739 2923.63 512.324C2916.7 518.563 2908.38 521.335 2898.68 520.642C2894.17 520.296 2890.01 519.256 2886.2 517.523L2792.62 479.052C2753.11 463.11 2721.58 447.34 2698.01 431.744C2674.79 415.801 2663 392.927 2662.66 363.121C2663 333.315 2674.96 310.44 2698.53 294.498Z" fill="#345995"/>
<path d="M3152.38 530C3134.35 530 3116.51 527.921 3098.83 523.762C3081.5 519.603 3064.86 513.537 3048.92 505.566C3032.98 497.248 3018.94 486.331 3006.81 472.814C2994.68 459.297 2988.1 443.181 2987.06 424.466V236.792C2987.06 227.087 2990.52 219.116 2997.45 212.878C3004.73 206.293 3013.22 203 3022.93 203C3043.72 204.733 3054.99 215.997 3056.72 236.792V408.35C3057.41 419.094 3061.4 428.105 3068.68 435.383C3076.3 442.315 3084.62 447.86 3093.63 452.019C3102.99 456.178 3112.52 459.297 3122.22 461.377C3132.28 463.456 3142.33 464.496 3152.38 464.496C3162.43 464.496 3172.31 463.456 3182.01 461.377C3192.06 459.297 3201.59 456.178 3210.6 452.019C3219.96 447.86 3228.28 442.315 3235.56 435.383C3243.18 428.105 3247.34 419.094 3248.03 408.35V236.792C3248.03 227.087 3251.5 219.116 3258.43 212.878C3265.71 206.293 3274.2 203 3283.9 203C3304.7 204.733 3316.14 215.997 3318.22 236.792V424.466C3317.18 443.181 3310.42 459.297 3297.94 472.814C3285.81 486.331 3271.77 497.248 3255.83 505.566C3239.89 513.537 3223.08 519.603 3205.4 523.762C3188.07 527.921 3170.4 530 3152.38 530Z" fill="#345995"/>
<path d="M967.871 203C977.229 203.347 985.2 206.812 991.785 213.397C998.37 219.636 1001.84 227.434 1002.18 236.792V491.529C1000.1 512.324 988.666 523.588 967.871 525.321C958.167 525.321 949.676 522.202 942.397 515.963C935.466 509.378 932 501.234 932 491.529V236.792C932.347 227.087 935.986 219.116 942.917 212.878C949.849 206.293 958.167 203 967.871 203ZM1056.77 294.498C1079.99 278.901 1111.36 263.132 1150.87 247.189L1236.13 210.798C1239.94 209.065 1244.1 208.025 1248.6 207.679C1258.31 206.986 1266.62 209.932 1273.56 216.517C1280.49 222.755 1283.95 230.9 1283.95 240.951C1283.95 252.388 1281.53 260.879 1276.68 266.424C1272.17 271.623 1266.28 275.955 1259 279.421L1186.22 306.975C1172.01 312.52 1158.49 318.065 1145.67 323.61C1133.19 328.809 1121.75 334.874 1111.36 341.806C1100.96 348.045 1095.41 355.149 1094.72 363.121C1095.41 370.746 1100.96 377.851 1111.36 384.436C1121.75 391.367 1133.19 397.606 1145.67 403.151C1158.49 408.35 1172.01 413.722 1186.22 419.267L1267.32 448.9C1274.6 452.366 1280.49 456.871 1284.99 462.417C1289.85 467.615 1292.27 475.933 1292.27 487.37C1292.27 497.421 1288.81 505.739 1281.87 512.324C1274.94 518.563 1266.62 521.335 1256.92 520.642C1252.41 520.296 1248.26 519.256 1244.44 517.523L1150.87 479.052C1111.36 463.11 1079.82 447.34 1056.25 431.744C1033.03 415.801 1021.24 392.927 1020.9 363.121C1021.24 333.315 1033.2 310.44 1056.77 294.498Z" fill="#345995"/>
<path d="M1971.23 211.318C1995.49 212.704 2015.42 222.062 2031.01 239.391C2046.61 256.374 2057.87 275.782 2064.8 297.617C2071.73 319.452 2075.2 341.806 2075.2 364.68C2075.2 387.555 2071.73 409.909 2064.8 431.744C2058.22 453.579 2046.95 473.161 2031.01 490.49C2015.42 507.472 1995.49 516.657 1971.23 518.043H1779.91C1770.56 517.696 1762.58 514.404 1756 508.165C1749.76 501.58 1746.47 493.609 1746.12 484.251V355.323C1746.47 345.618 1750.11 337.647 1757.04 331.409C1763.97 324.824 1772.29 321.531 1781.99 321.531C1791.35 321.878 1799.32 325.343 1805.91 331.928C1812.49 338.167 1815.96 345.965 1816.3 355.323V434.343C1816.3 443.701 1821.16 448.38 1830.86 448.38H1953.55C1966.72 447.687 1977.64 442.661 1986.3 433.304C1994.97 423.946 2001.21 413.375 2005.02 401.591C2009.18 389.461 2011.26 377.157 2011.26 364.68C2011.26 352.204 2009.18 340.073 2005.02 328.289C2001.21 316.159 1994.97 305.415 1986.3 296.057C1977.64 286.7 1966.72 281.674 1953.55 280.981H1779.91C1759.12 279.248 1747.85 267.984 1746.12 247.189C1746.12 237.485 1749.24 229.167 1755.48 222.235C1762.06 215.304 1770.21 211.665 1779.91 211.318H1971.23Z" fill="#348A95"/>
<path d="M2411.04 211.318C2428.71 211.665 2444.48 217.21 2458.35 227.954C2472.21 238.698 2483.3 251.521 2491.62 266.425C2500.28 281.328 2506.69 297.097 2510.85 313.733C2515.01 330.369 2517.09 347.351 2517.09 364.68C2517.09 387.555 2513.45 410.083 2506.18 432.264C2499.24 454.099 2487.63 473.507 2471.34 490.49C2455.4 507.472 2435.3 516.657 2411.04 518.043H2229.6C2205.34 517.003 2185.07 507.992 2168.78 491.01C2152.49 474.027 2140.88 454.445 2133.95 432.264C2127.36 410.083 2124.07 387.555 2124.07 364.68C2124.07 341.806 2127.53 319.452 2134.47 297.617C2141.4 275.436 2152.83 255.854 2168.78 238.871C2185.07 221.542 2205.34 212.358 2229.6 211.318H2411.04ZM2393.36 448.38C2406.53 447.687 2417.45 442.835 2426.11 433.824C2435.13 424.466 2441.54 413.722 2445.35 401.591C2449.16 389.461 2451.07 377.157 2451.07 364.68C2451.07 352.204 2448.99 340.073 2444.83 328.289C2441.02 316.159 2434.78 305.415 2426.11 296.057C2417.45 286.7 2406.53 281.674 2393.36 280.981H2245.72C2232.55 281.674 2221.63 286.7 2212.97 296.057C2204.3 305.415 2197.89 316.159 2193.73 328.289C2189.92 340.073 2188.01 352.204 2188.01 364.68C2188.01 377.157 2189.92 389.461 2193.73 401.591C2197.54 413.722 2203.78 424.466 2212.45 433.824C2221.46 442.835 2232.55 447.687 2245.72 448.38H2393.36Z" fill="#348A95"/>
<defs>
<clipPath id="clip0_115_13">
<rect width="683" height="683" fill="white"/>
</clipPath>
</defs>
</svg>
