<svg width="910" height="193" viewBox="0 0 910 193" fill="none" xmlns="http://www.w3.org/2000/svg">
<path d="M9.49994 3.28687L10.5235 2.72697C11.506 2.18953 12.5322 1.73603 13.591 1.3713C15.6754 0.653339 17.8645 0.286865 20.069 0.286865H171.356C172.91 0.286865 174.461 0.397939 175.999 0.619239L178.519 1.35501C179.504 1.64233 180.46 2.01754 181.377 2.47609L181.533 2.55388C182.507 3.04117 183.428 3.63006 184.279 4.31074C185.09 4.95984 185.834 5.68903 186.499 6.48726L187.999 8.28687L189.664 10.9511C190.218 11.8385 190.666 12.7885 190.997 13.7813C191.33 14.7814 191.543 15.8178 191.63 16.8684L191.716 17.8919C191.903 20.1416 191.74 22.4067 191.233 24.6063L190.973 25.73C190.659 27.0939 190.146 28.4044 189.451 29.6197C188.819 30.7262 188.042 31.7435 187.141 32.6446L185.499 34.2869L110.499 92.2869L108.777 93.5785C107.264 94.713 105.616 95.6547 103.871 96.382L103.277 96.6293C101.437 97.3961 99.4684 97.8662 97.4807 98.0191C95.1934 98.195 92.8727 97.947 90.6764 97.2845C88.9018 96.7491 87.2173 95.951 85.6791 94.9165L83.9994 93.7869L7.99995 35.2869L6.0386 33.3255C5.34705 32.634 4.70545 31.8942 4.11865 31.1118L3.63919 30.4725C2.55425 29.0259 1.72252 27.4058 1.17939 25.681C0.887319 24.7535 0.680456 23.8013 0.561371 22.8362L0.366192 21.2545C0.123851 19.2906 0.219383 17.2996 0.648649 15.3679C0.88237 14.3162 1.21358 13.2885 1.63799 12.2982L2.49998 10.2869L2.99185 9.46708C3.66141 8.35115 4.46529 7.32155 5.3855 6.40132C6.12666 5.66016 6.93921 4.99403 7.81133 4.41261L9.49994 3.28687Z" fill="#348A95"/>
<path d="M0.271653 17.1136L0 19.2869V169.751C0 172.105 0.167085 174.456 0.499997 176.787L1.11289 178.932C1.3704 179.833 1.71095 180.709 2.13015 181.547C2.70767 182.702 3.43039 183.779 4.28077 184.751L5.53836 186.188C6.17816 186.919 6.88155 187.592 7.64024 188.199C8.54418 188.922 9.52198 189.548 10.5574 190.066L10.8643 190.219C11.6204 190.597 12.4024 190.921 13.2044 191.188C14.3981 191.586 15.6304 191.857 16.881 191.996L19.4999 192.287H169.957C171.982 192.287 174.002 192.12 175.999 191.787L178.063 191.168C180.008 190.584 181.846 189.694 183.51 188.529L183.601 188.465C185.19 187.353 186.591 185.997 187.754 184.446C188.581 183.343 189.281 182.151 189.841 180.892L190.009 180.514C190.667 179.034 191.159 177.485 191.477 175.897L191.499 175.787L191.801 173.065C191.932 171.885 191.9 170.693 191.705 169.522C191.568 168.7 191.351 167.894 191.059 167.115L189.999 164.287C188.674 161.638 186.931 159.219 184.836 157.125L183.999 156.287L34.7675 7.05463C33.5905 5.87761 32.3314 4.78561 30.9998 3.78687L28.4998 2.28687C26.1792 1.2923 23.7246 0.645173 21.2153 0.366354L20.4999 0.286865H19.5611C18.5221 0.286865 17.4848 0.372714 16.4599 0.543535L16.3789 0.557037C15.461 0.710021 14.5565 0.934679 13.6737 1.22895C12.5606 1.59999 11.4868 2.08007 10.4681 2.6622L8.49994 3.78687L8.197 4.01407C7.06706 4.86153 5.9987 5.78813 4.99997 6.78687L4.25402 7.71931C3.42032 8.76143 2.69222 9.90239 2.09539 11.0961C1.70195 11.8829 1.36036 12.7057 1.08216 13.5404C0.694998 14.7019 0.423511 15.8988 0.271653 17.1136Z" fill="#345995"/>
<path d="M258.754 48.2869C261.502 48.3886 263.843 49.4061 265.777 51.3393C267.71 53.1708 268.728 55.4602 268.83 58.2074V132.993C268.219 139.098 264.861 142.405 258.754 142.913C255.905 142.913 253.411 141.998 251.274 140.166C249.239 138.233 248.221 135.842 248.221 132.993V58.2074C248.323 55.3584 249.391 53.0182 251.427 51.1867C253.462 49.2535 255.905 48.2869 258.754 48.2869ZM284.859 75.1486C291.677 70.5699 300.888 65.9403 312.49 61.2598L337.526 50.5762C338.645 50.0675 339.866 49.7622 341.189 49.6605C344.039 49.457 346.481 50.3218 348.517 52.2551C350.552 54.0865 351.57 56.4776 351.57 59.4284C351.57 62.7861 350.858 65.2789 349.433 66.9069C348.11 68.4331 346.38 69.705 344.242 70.7225L322.87 78.8115C318.698 80.4395 314.729 82.0675 310.963 83.6955C307.299 85.2217 303.941 87.0023 300.888 89.0373C297.835 90.8688 296.206 92.9546 296.003 95.2948C296.206 97.5333 297.835 99.6191 300.888 101.552C303.941 103.587 307.299 105.419 310.963 107.047C314.729 108.573 318.698 110.15 322.87 111.778L346.685 120.478C348.822 121.495 350.552 122.818 351.875 124.446C353.3 125.972 354.013 128.414 354.013 131.772C354.013 134.722 352.995 137.164 350.959 139.098C348.924 140.929 346.481 141.743 343.632 141.54C342.309 141.438 341.088 141.133 339.968 140.624L312.49 129.33C300.888 124.649 291.627 120.02 284.706 115.441C277.887 110.761 274.427 104.045 274.325 95.2948C274.427 86.5444 277.938 79.829 284.859 75.1486Z" fill="#345995"/>
<path d="M410.313 144.287C405.02 144.287 399.779 143.676 394.589 142.455C389.5 141.234 384.615 139.454 379.934 137.114C375.252 134.672 371.131 131.467 367.568 127.498C364.006 123.53 362.073 118.799 361.768 113.304V58.2074C361.768 55.3584 362.785 53.0182 364.821 51.1867C366.958 49.2535 369.451 48.2869 372.301 48.2869C378.407 48.7956 381.715 52.1024 382.224 58.2074V108.573C382.427 111.727 383.598 114.373 385.735 116.509C387.974 118.544 390.416 120.172 393.062 121.393C395.81 122.614 398.609 123.53 401.458 124.141C404.41 124.751 407.361 125.056 410.313 125.056C413.264 125.056 416.164 124.751 419.014 124.141C421.965 123.53 424.764 122.614 427.41 121.393C430.158 120.172 432.601 118.544 434.738 116.509C436.977 114.373 438.198 111.727 438.402 108.573V58.2074C438.402 55.3584 439.419 53.0182 441.455 51.1867C443.592 49.2535 446.085 48.2869 448.935 48.2869C455.041 48.7956 458.4 52.1024 459.01 58.2074V113.304C458.705 118.799 456.72 123.53 453.057 127.498C449.495 131.467 445.373 134.672 440.691 137.114C436.01 139.454 431.074 141.234 425.884 142.455C420.795 143.676 415.605 144.287 410.313 144.287Z" fill="#345995"/>
<path d="M709.582 48.2869C712.33 48.3886 714.671 49.4061 716.604 51.3393C718.538 53.1708 719.556 55.4602 719.657 58.2074V132.993C719.047 139.098 715.688 142.405 709.582 142.913C706.732 142.913 704.239 141.998 702.102 140.166C700.066 138.233 699.049 135.842 699.049 132.993V58.2074C699.15 55.3584 700.219 53.0182 702.255 51.1867C704.29 49.2535 706.732 48.2869 709.582 48.2869ZM735.687 75.1486C742.505 70.5699 751.716 65.9403 763.317 61.2598L788.353 50.5762C789.473 50.0675 790.694 49.7622 792.017 49.6605C794.867 49.457 797.309 50.3218 799.345 52.2551C801.38 54.0865 802.398 56.4776 802.398 59.4284C802.398 62.7861 801.685 65.2789 800.261 66.9069C798.938 68.4331 797.207 69.705 795.07 70.7225L773.698 78.8115C769.526 80.4395 765.556 82.0675 761.791 83.6955C758.127 85.2217 754.769 87.0023 751.716 89.0373C748.662 90.8688 747.034 92.9546 746.83 95.2948C747.034 97.5333 748.662 99.6191 751.716 101.552C754.769 103.587 758.127 105.419 761.791 107.047C765.556 108.573 769.526 110.15 773.698 111.778L797.513 120.478C799.65 121.495 801.38 122.818 802.703 124.446C804.128 125.972 804.84 128.414 804.84 131.772C804.84 134.722 803.823 137.164 801.787 139.098C799.752 140.929 797.309 141.743 794.46 141.54C793.137 141.438 791.915 141.133 790.796 140.624L763.317 129.33C751.716 124.649 742.454 120.02 735.534 115.441C728.715 110.761 725.255 104.045 725.153 95.2948C725.255 86.5444 728.766 79.829 735.687 75.1486Z" fill="#345995"/>
<path d="M861.14 144.287C855.848 144.287 850.607 143.676 845.417 142.455C840.328 141.234 835.443 139.454 830.761 137.114C826.08 134.672 821.958 131.467 818.396 127.498C814.834 123.53 812.901 118.799 812.595 113.304V58.2074C812.595 55.3584 813.613 53.0182 815.648 51.1867C817.786 49.2535 820.279 48.2869 823.129 48.2869C829.235 48.7956 832.542 52.1024 833.051 58.2074V108.573C833.255 111.727 834.425 114.373 836.562 116.509C838.801 118.544 841.244 120.172 843.89 121.393C846.638 122.614 849.437 123.53 852.286 124.141C855.238 124.751 858.189 125.056 861.14 125.056C864.092 125.056 866.992 124.751 869.842 124.141C872.793 123.53 875.592 122.614 878.238 121.393C880.986 120.172 883.428 118.544 885.566 116.509C887.804 114.373 889.026 111.727 889.229 108.573V58.2074C889.229 55.3584 890.247 53.0182 892.282 51.1867C894.42 49.2535 896.913 48.2869 899.763 48.2869C905.869 48.7956 909.227 52.1024 909.838 58.2074V113.304C909.533 118.799 907.548 123.53 903.884 127.498C900.322 131.467 896.201 134.672 891.519 137.114C886.838 139.454 881.902 141.234 876.711 142.455C871.623 143.676 866.432 144.287 861.14 144.287Z" fill="#345995"/>
<path d="M537.751 50.7288C544.875 51.1358 550.727 53.8831 555.307 58.9705C559.886 63.9562 563.194 69.6541 565.229 76.0643C567.265 82.4745 568.282 89.0373 568.282 95.7527C568.282 102.468 567.265 109.031 565.229 115.441C563.296 121.851 559.988 127.6 555.307 132.688C550.727 137.673 544.875 140.37 537.751 140.777H481.573C478.825 140.675 476.484 139.708 474.551 137.877C472.719 135.943 471.752 133.603 471.65 130.856V93.0055C471.752 90.1565 472.821 87.8163 474.856 85.9848C476.892 84.0516 479.334 83.085 482.184 83.085C484.931 83.1867 487.272 84.2042 489.206 86.1374C491.14 87.9689 492.157 90.2583 492.259 93.0055V116.204C492.259 118.951 493.684 120.325 496.533 120.325H532.561C536.428 120.122 539.634 118.646 542.178 115.899C544.722 113.152 546.554 110.048 547.674 106.589C548.895 103.028 549.506 99.4156 549.506 95.7527C549.506 92.0897 548.895 88.5285 547.674 85.0691C546.554 81.5079 544.722 78.3536 542.178 75.6064C539.634 72.8592 536.428 71.3839 532.561 71.1804H481.573C475.467 70.6716 472.159 67.3648 471.65 61.2598C471.65 58.4109 472.566 55.9689 474.398 53.9339C476.332 51.8989 478.723 50.8306 481.573 50.7288H537.751Z" fill="#348A95"/>
<path d="M659.083 50.7288C664.273 50.8306 668.904 52.4586 672.975 55.6128C677.046 58.767 680.302 62.5317 682.745 66.9069C685.289 71.2821 687.172 75.9117 688.393 80.7956C689.614 85.6796 690.225 90.6653 690.225 95.7527C690.225 102.468 689.157 109.082 687.019 115.594C684.984 122.004 681.575 127.702 676.791 132.688C672.11 137.673 666.207 140.37 659.083 140.777H605.806C598.682 140.471 592.728 137.826 587.945 132.84C583.161 127.854 579.752 122.106 577.717 115.594C575.783 109.082 574.816 102.468 574.816 95.7527C574.816 89.0373 575.834 82.4745 577.869 76.0643C579.905 69.5524 583.263 63.8036 587.945 58.8179C592.728 53.7304 598.682 51.0341 605.806 50.7288H659.083ZM653.893 120.325C657.76 120.122 660.966 118.697 663.51 116.052C666.156 113.304 668.039 110.15 669.158 106.589C670.278 103.028 670.838 99.4156 670.838 95.7527C670.838 92.0897 670.227 88.5285 669.006 85.0691C667.886 81.5079 666.054 78.3536 663.51 75.6064C660.966 72.8592 657.76 71.3839 653.893 71.1804H610.538C606.671 71.3839 603.465 72.8592 600.921 75.6064C598.376 78.3536 596.493 81.5079 595.272 85.0691C594.153 88.5285 593.593 92.0897 593.593 95.7527C593.593 99.4156 594.153 103.028 595.272 106.589C596.392 110.15 598.224 113.304 600.768 116.052C603.414 118.697 606.671 120.122 610.538 120.325H653.893Z" fill="#348A95"/>
</svg>
