<svg width="45" height="45" viewBox="0 0 45 45" fill="none" xmlns="http://www.w3.org/2000/svg">
<path d="M22.5717 6.77229C22.5717 6.14779 22.9938 5.625 23.6788 5.625C32.2386 5.625 39.1791 12.5655 39.1791 21.1252C39.1791 21.748 38.6532 22.2324 38.0304 22.2324H22.5717V6.77229ZM3.75 24.4467C3.75 16.053 9.98468 9.1084 18.0116 7.99501C18.7105 7.90782 19.2502 8.41781 19.2502 9.05788V25.5538L30.0796 36.3832C30.5432 36.8469 30.5086 37.608 29.9758 37.9886C27.2633 39.9192 23.9418 41.0541 20.3574 41.0541C11.1887 41.0541 3.75 33.6223 3.75 24.4467ZM40.1755 25.5538C40.8121 25.5538 41.3242 26.0936 41.2411 26.7302C40.7083 30.5983 38.84 34.0374 36.1275 36.577C35.7123 36.9091 35.0618 36.9368 34.6605 36.5355L23.6788 25.5538H40.1755Z" fill="white"/>
</svg>
