<svg width="192" height="192" viewBox="0 0 192 192" fill="none" xmlns="http://www.w3.org/2000/svg">
<path d="M9.5 3L10.5236 2.44011C11.5061 1.90267 12.5323 1.44917 13.5911 1.08443C15.6755 0.366473 17.8646 0 20.0692 0H171.357C172.911 0 174.462 0.111074 176 0.332373L178.521 1.06815C179.505 1.35547 180.461 1.73067 181.378 2.18923L181.534 2.26702C182.509 2.75431 183.429 3.3432 184.28 4.02387C185.091 4.67297 185.835 5.40216 186.5 6.20039L188 8L189.665 10.6642C190.22 11.5516 190.667 12.5016 190.998 13.4944C191.332 14.4946 191.544 15.5309 191.632 16.5816L191.717 17.605C191.905 19.8547 191.742 22.1198 191.234 24.3195L190.975 25.4431C190.66 26.807 190.147 28.1175 189.453 29.3328C188.82 30.4393 188.043 31.4566 187.142 32.3578L185.5 34L110.5 92L108.778 93.2916C107.265 94.4261 105.617 95.3679 103.872 96.0951L103.278 96.3425C101.438 97.1093 99.4691 97.5793 97.4813 97.7322C95.1941 97.9081 92.8733 97.6601 90.6771 96.9976C88.9024 96.4623 87.2179 95.6641 85.6797 94.6296L84 93.5L8 35L6.03864 33.0386C5.34709 32.3471 4.70549 31.6073 4.11868 30.8249L3.63921 30.1856C2.55426 28.739 1.72253 27.1189 1.1794 25.3941C0.887326 24.4666 0.680461 23.5144 0.561374 22.5494L0.366195 20.9676C0.123852 19.0037 0.219384 17.0128 0.648654 15.0811C0.882376 14.0293 1.21359 13.0016 1.638 12.0113L2.5 10L2.99187 9.18022C3.66143 8.06429 4.46532 7.03468 5.38554 6.11446C6.1267 5.3733 6.93926 4.70716 7.81138 4.12575L9.5 3Z" fill="#348A95"/>
<path d="M0.271655 16.8268L0 19V169.464C0 171.819 0.167086 174.17 0.5 176.5L1.11289 178.645C1.37041 179.546 1.71096 180.422 2.13016 181.26C2.70769 182.415 3.43042 183.492 4.2808 184.464L5.53839 185.901C6.1782 186.632 6.88159 187.305 7.6403 187.912C8.54424 188.635 9.52204 189.261 10.5574 189.779L10.8644 189.932C11.6205 190.31 12.4025 190.634 13.2045 190.901C14.3982 191.299 15.6305 191.57 16.8811 191.709L19.5 192H169.959C171.983 192 174.003 191.833 176 191.5L178.064 190.881C180.009 190.297 181.848 189.407 183.511 188.242L183.603 188.178C185.191 187.066 186.593 185.71 187.756 184.159C188.583 183.057 189.283 181.864 189.842 180.605L190.01 180.227C190.668 178.747 191.16 177.198 191.478 175.61L191.5 175.5L191.802 172.778C191.934 171.598 191.901 170.406 191.706 169.235C191.569 168.414 191.353 167.607 191.06 166.828L190 164C188.675 161.351 186.932 158.932 184.838 156.838L184 156L34.7678 6.76777C33.5907 5.59074 32.3317 4.49874 31 3.5L28.5 2C26.1793 1.00543 23.7248 0.358308 21.2154 0.0794895L20.5 0H19.5613C18.5222 0 17.4849 0.0858486 16.46 0.25667L16.379 0.270172C15.4611 0.423155 14.5566 0.647813 13.6737 0.942083C12.5606 1.31312 11.4869 1.7932 10.4682 2.37533L8.5 3.5L8.19706 3.72721C7.06711 4.57467 5.99874 5.50126 5 6.5L4.25404 7.43245C3.42035 8.47457 2.69224 9.61552 2.0954 10.8092C1.70196 11.5961 1.36037 12.4189 1.08217 13.2535C0.695003 14.415 0.423513 15.6119 0.271655 16.8268Z" fill="#345995"/>
</svg>
