<svg width="240" height="117" viewBox="0 0 240 117" fill="none" xmlns="http://www.w3.org/2000/svg">
<g clip-path="url(#clip0_1693_6148)">
<path d="M0 25C0 11.1929 11.1929 0 25 0H215C228.807 0 240 11.1929 240 25V117H0V25Z" fill="#2C5EA8"/>
<path d="M51.3761 57.7442C40.306 57.7442 16.3838 48.973 0 48.3721V117H240V26H216.308C207.452 26 195.785 48.2173 188.257 48.3721C177.63 48.5906 164.895 76.3028 155.596 76.4884C146.297 76.674 135.941 53.652 120.443 53.652C103.616 54.2529 95.0946 40.814 86.2385 40.814C76.4968 40.814 60.2322 57.7442 51.3761 57.7442Z" fill="#348A95"/>
<path d="M0.615234 48.5573C17.1997 49.1585 41.1495 57.9121 52.3552 57.9121C61.3197 57.9121 77.0406 40.9748 86.9016 40.9748C95.8661 40.9748 104.864 54.4194 121.896 53.8182C137.584 53.8182 148.068 76.5473 157.48 76.3617C166.893 76.176 180.526 48.7547 191.284 48.5361C198.904 48.3813 210.905 26.1639 219.87 26.1639C228.834 26.1639 223.017 26.1639 230.18 26.1639" stroke="white" stroke-width="6" stroke-linecap="round"/>
<path d="M13.9741 111.774C13.1499 111.774 12.4722 111.571 11.9409 111.165C11.4097 110.759 11.0679 110.202 10.9155 109.495H11.9351C12.2397 110.417 12.9194 110.878 13.9741 110.878C14.6382 110.878 15.144 110.739 15.4917 110.462C15.8394 110.181 16.0132 109.819 16.0132 109.378C16.0132 109.089 15.9233 108.847 15.7437 108.651C15.564 108.456 15.3315 108.309 15.0464 108.212C14.7651 108.11 14.4507 108.02 14.103 107.942C13.7554 107.86 13.4077 107.765 13.0601 107.655C12.7163 107.546 12.4019 107.409 12.1167 107.245C11.8354 107.081 11.605 106.847 11.4253 106.542C11.2456 106.233 11.1558 105.858 11.1558 105.417C11.1558 104.761 11.4077 104.218 11.9116 103.788C12.4155 103.354 13.103 103.138 13.9741 103.138C14.7358 103.138 15.3687 103.313 15.8726 103.665C16.3765 104.016 16.7046 104.52 16.8569 105.177H15.8374C15.5562 104.415 14.9351 104.036 13.9741 104.04C13.3999 104.04 12.9565 104.169 12.644 104.427C12.3315 104.681 12.1753 105.011 12.1753 105.417C12.1753 105.768 12.2944 106.059 12.5327 106.29C12.7749 106.516 13.0757 106.677 13.4351 106.77C13.7944 106.86 14.1831 106.966 14.6011 107.087C15.0229 107.204 15.4136 107.331 15.7729 107.468C16.1362 107.604 16.437 107.835 16.6753 108.159C16.9136 108.483 17.0327 108.89 17.0327 109.378C17.0327 110.042 16.7593 110.608 16.2124 111.077C15.6655 111.542 14.9194 111.774 13.9741 111.774Z" fill="white"/>
<path d="M45.8096 111.657V103.255H47.4326L49.9521 110.157H50.0107L52.5303 103.255H54.1475V111.657H53.1279V104.515H53.0693L50.4326 111.657H49.5303L46.8877 104.515H46.8291V111.657H45.8096Z" fill="white"/>
<path d="M85.145 111.657V104.157H82.4438V103.255H88.8657V104.157H86.1646V111.657H85.145Z" fill="white"/>
<path d="M118.78 111.657L116.682 103.255H117.76L119.5 110.515H119.559L121.299 103.255H122.682L124.422 110.515H124.481L126.221 103.255H127.299L125.202 111.657H123.702L122.02 104.515H121.961L120.28 111.657H118.78Z" fill="white"/>
<path d="M157.346 111.657V104.157H154.645V103.255H161.066V104.157H158.365V111.657H157.346Z" fill="white"/>
<path d="M189.23 111.657V103.255H194.509V104.157H190.25V107.099H194.21V107.995H190.25V111.657H189.23Z" fill="white"/>
<path d="M225.104 111.774C224.28 111.774 223.603 111.571 223.071 111.165C222.54 110.759 222.198 110.202 222.046 109.495H223.065C223.37 110.417 224.05 110.878 225.104 110.878C225.769 110.878 226.274 110.739 226.622 110.462C226.97 110.181 227.144 109.819 227.144 109.378C227.144 109.089 227.054 108.847 226.874 108.651C226.694 108.456 226.462 108.309 226.177 108.212C225.896 108.11 225.581 108.02 225.233 107.942C224.886 107.86 224.538 107.765 224.19 107.655C223.847 107.546 223.532 107.409 223.247 107.245C222.966 107.081 222.735 106.847 222.556 106.542C222.376 106.233 222.286 105.858 222.286 105.417C222.286 104.761 222.538 104.218 223.042 103.788C223.546 103.354 224.233 103.138 225.104 103.138C225.866 103.138 226.499 103.313 227.003 103.665C227.507 104.016 227.835 104.52 227.987 105.177H226.968C226.687 104.415 226.065 104.036 225.104 104.04C224.53 104.04 224.087 104.169 223.774 104.427C223.462 104.681 223.306 105.011 223.306 105.417C223.306 105.768 223.425 106.059 223.663 106.29C223.905 106.516 224.206 106.677 224.565 106.77C224.925 106.86 225.313 106.966 225.731 107.087C226.153 107.204 226.544 107.331 226.903 107.468C227.267 107.604 227.567 107.835 227.806 108.159C228.044 108.483 228.163 108.89 228.163 109.378C228.163 110.042 227.89 110.608 227.343 111.077C226.796 111.542 226.05 111.774 225.104 111.774Z" fill="white"/>
</g>
<defs>
<clipPath id="clip0_1693_6148">
<path d="M0 25C0 11.1929 11.1929 0 25 0H215C228.807 0 240 11.1929 240 25V117H0V25Z" fill="white"/>
</clipPath>
</defs>
</svg>
