<svg width="270" height="168" viewBox="0 0 270 168" fill="none" xmlns="http://www.w3.org/2000/svg">
<circle cx="9.99984" cy="15" r="7.83333" fill="#345995" stroke="#345995"/>
<circle cx="9.99984" cy="61" r="7.83333" fill="white" stroke="#345995"/>
<circle cx="9.99984" cy="107" r="7.83333" fill="white" stroke="#345995"/>
<circle cx="9.99984" cy="153" r="7.83333" fill="white" stroke="#345995"/>
<rect x="28" width="50" height="30" rx="4" fill="#0060AF"/>
<path fill-rule="evenodd" clip-rule="evenodd" d="M38.2839 17.8748C38.2839 17.4721 38.2894 16.3959 38.2769 16.2633C38.2878 14.6619 36.8174 13.5323 35.8884 13.6204C35.2456 13.6645 34.7068 13.8721 34.4177 14.4691C34.1495 15.0256 34.3893 15.7657 35.2806 15.9394C36.2336 16.1259 36.7902 16.2811 37.193 16.5C37.6865 16.7681 38.0894 17.2801 38.1001 17.8754" fill="white"/>
<path fill-rule="evenodd" clip-rule="evenodd" d="M37.8854 17.8753C37.8886 17.3592 37.5248 16.9029 37.0493 16.6576C36.6276 16.4409 36.0614 16.2985 35.1479 16.115C34.8656 16.0578 34.5702 15.9308 34.4788 15.7689C34.2369 15.9618 34.193 16.3957 34.2355 16.6493C34.285 16.9427 34.718 17.4263 35.37 17.4452C35.7682 17.4579 36.2716 17.3774 36.513 17.3367C36.9295 17.2655 37.5884 17.4721 37.6933 17.8747" fill="white"/>
<path fill-rule="evenodd" clip-rule="evenodd" d="M38.6206 11.1245C37.515 11.1245 36.5601 11.7018 36.5635 12.7008C36.5669 13.5408 37.4201 13.9905 37.7246 14.3117C38.1847 14.7958 38.4337 15.3687 38.4595 16.2454C38.4797 16.9431 38.4787 17.632 38.4832 17.8762H38.7271C38.723 17.6207 38.7119 16.8893 38.7244 16.2238C38.741 15.3469 38.999 14.7958 39.4593 14.3117C39.7665 13.9905 40.6188 13.5408 40.6207 12.7008C40.6249 11.7018 39.6704 11.1245 38.566 11.1245" fill="white"/>
<path fill-rule="evenodd" clip-rule="evenodd" d="M38.9012 17.8748C38.9012 17.4721 38.8955 16.3959 38.9078 16.2633C38.897 14.6619 40.3665 13.5323 41.2963 13.6204C41.9391 13.6645 42.4772 13.8721 42.7673 14.4691C43.0351 15.0256 42.7941 15.7657 41.9039 15.9394C40.9502 16.1259 40.3943 16.2811 39.9905 16.5C39.4976 16.7681 39.1229 17.2801 39.1114 17.8754" fill="white"/>
<path fill-rule="evenodd" clip-rule="evenodd" d="M39.2993 17.8753C39.2959 17.3592 39.6596 16.9029 40.1336 16.6576C40.5572 16.4409 41.124 16.2985 42.0366 16.115C42.3196 16.0578 42.6146 15.9308 42.7044 15.7689C42.9474 15.9618 42.9913 16.3957 42.9487 16.6493C42.8983 16.9427 42.4663 17.4263 41.8155 17.4452C41.4175 17.4579 40.9114 17.3774 40.671 17.3367C40.2561 17.2655 39.5954 17.4721 39.49 17.8747" fill="white"/>
<path fill-rule="evenodd" clip-rule="evenodd" d="M39.6399 19.5415L39.4985 18.7241L39.84 18.6831C39.923 18.6742 40.0243 18.6857 40.0647 18.7269C40.1095 18.7699 40.1232 18.8055 40.1318 18.862C40.1448 18.9319 40.1193 19.0126 40.0199 19.0529V19.0553C40.1308 19.0553 40.1978 19.1185 40.2174 19.225C40.2201 19.2476 40.2286 19.3019 40.2201 19.3472C40.1976 19.4551 40.1164 19.4899 39.9791 19.5051L39.6399 19.5415ZM39.8597 19.3952C39.9002 19.3906 39.9412 19.3888 39.9733 19.3726C40.0225 19.3472 40.018 19.293 40.0111 19.2525C39.9941 19.1639 39.9649 19.1301 39.8461 19.144L39.7713 19.1532L39.8187 19.3997L39.8597 19.3952ZM39.7883 19.0175C39.8335 19.0117 39.8946 19.0074 39.9202 18.9734C39.9336 18.9507 39.9506 18.9327 39.9394 18.8822C39.9255 18.8225 39.9005 18.7853 39.8045 18.7997L39.7151 18.8111L39.7504 19.0206L39.7883 19.0175Z" fill="white"/>
<path fill-rule="evenodd" clip-rule="evenodd" d="M41.1192 19.05C41.1218 19.0652 41.1249 19.0821 41.1261 19.0973C41.1537 19.2463 41.1192 19.3698 40.9076 19.4038C40.5946 19.4514 40.5347 19.2976 40.4797 19.0821L40.4504 18.9654C40.4073 18.7593 40.3887 18.6033 40.6937 18.5551C40.8657 18.5303 40.9793 18.5845 41.0266 18.72C41.034 18.7402 41.0432 18.7602 41.0466 18.7806L40.8595 18.8112C40.8379 18.7602 40.8092 18.6692 40.725 18.6768C40.5739 18.6913 40.6238 18.8401 40.6393 18.9024L40.6956 19.1262C40.7125 19.1938 40.7461 19.302 40.8768 19.2811C40.983 19.2642 40.9367 19.1333 40.9272 19.0796" fill="white"/>
<path fill-rule="evenodd" clip-rule="evenodd" d="M41.4196 19.2973L41.355 18.4514L41.6063 18.3907L42.1334 19.1264L41.9354 19.1733L41.8105 18.9863L41.5908 19.0386L41.6192 19.2511L41.4196 19.2973ZM41.5724 18.902L41.7312 18.8655L41.5203 18.5233L41.5724 18.902Z" fill="white"/>
<path fill-rule="evenodd" clip-rule="evenodd" d="M35.2099 18.6577C35.2885 18.4584 35.3589 18.3115 35.6592 18.3767C35.8199 18.4123 35.9195 18.4683 35.9148 18.6161C35.914 18.649 35.9003 18.6826 35.8913 18.715L35.7044 18.6742C35.7289 18.5925 35.7444 18.5278 35.6175 18.4968C35.4707 18.4649 35.4349 18.6059 35.4147 18.6668L35.3387 18.8884C35.3145 18.9543 35.2855 19.0631 35.4147 19.0912C35.5214 19.1139 35.5861 19.031 35.6247 18.9099L35.4941 18.8824L35.5393 18.7542L35.8467 18.8324L35.7007 19.2598L35.5593 19.2294L35.5911 19.1391H35.5871C35.5219 19.213 35.4425 19.2207 35.3729 19.2101C35.0655 19.1443 35.0976 18.9852 35.171 18.7727" fill="white"/>
<path fill-rule="evenodd" clip-rule="evenodd" d="M36.3542 19.0187L36.2616 19.3664L36.0532 19.3308L36.2753 18.5189L36.6306 18.5824C36.8385 18.618 36.9013 18.6912 36.8719 18.8422C36.8551 18.9288 36.8011 19.0221 36.6695 19.0145L36.6681 19.0132C36.7794 19.0439 36.7888 19.0885 36.7694 19.1653C36.761 19.198 36.7032 19.3964 36.7431 19.4285L36.7444 19.4529L36.5288 19.4082C36.5198 19.3533 36.5504 19.2544 36.5625 19.1996C36.5746 19.1511 36.594 19.0828 36.5319 19.0572C36.4834 19.0367 36.4652 19.0377 36.4102 19.0277L36.3542 19.0187ZM36.3897 18.893L36.5301 18.9229C36.6153 18.9327 36.6627 18.8978 36.6795 18.8162C36.6946 18.7414 36.675 18.7123 36.5985 18.6978L36.4481 18.6736L36.3897 18.893Z" fill="white"/>
<path fill-rule="evenodd" clip-rule="evenodd" d="M37.691 18.7002L37.8971 18.7192L37.8083 19.29C37.7651 19.471 37.6768 19.55 37.4254 19.5253C37.1696 19.4997 37.1089 19.4075 37.1243 19.2251L37.2138 18.6548L37.4215 18.6735L37.3324 19.2311C37.3228 19.2916 37.3052 19.3814 37.4412 19.3923C37.5618 19.3996 37.5892 19.3362 37.6029 19.2575" fill="white"/>
<path fill-rule="evenodd" clip-rule="evenodd" d="M38.124 19.5565L38.1861 18.7404L38.582 18.7539C38.7692 18.7613 38.8181 18.8822 38.8124 18.9977C38.8068 19.0679 38.7792 19.1464 38.702 19.1889C38.6386 19.225 38.557 19.2336 38.4816 19.2307L38.3526 19.225L38.3268 19.5671L38.124 19.5565ZM38.3583 19.1005L38.4632 19.1052C38.5484 19.1076 38.6049 19.081 38.6122 18.9819C38.6165 18.8868 38.571 18.8706 38.4605 18.8668L38.3775 18.8645L38.3583 19.1005Z" fill="white"/>
<path fill-rule="evenodd" clip-rule="evenodd" d="M66.0526 11.9134L64.4788 14.1754C63.8848 13.7933 63.1595 13.5123 62.234 13.5123C60.0438 13.5123 59.1541 14.805 59.1541 15.7156C59.1541 16.3916 59.7131 17.3888 61.6618 17.3888C62.4799 17.3888 63.6427 16.9383 63.9774 16.7332L62.4209 19.3575C61.679 19.4747 61.4351 19.5474 60.8072 19.5628C57.3191 19.6452 55.9097 17.9485 55.9106 16.2148C55.9131 13.9229 58.4863 11.1355 62.7525 11.1355C63.0138 11.1355 63.3335 11.2072 63.6069 11.2865L63.8833 11.0067" fill="white"/>
<path fill-rule="evenodd" clip-rule="evenodd" d="M72.5468 11.0776L72.9924 19.2987H69.6757L69.6739 17.8889H67.4122L66.6679 19.2987H63.0708L66.8315 13.4282L65.9835 13.4238L67.5946 11.0776H72.5468ZM69.6523 13.5927L68.3737 15.9839H69.6909L69.6523 13.5927Z" fill="white"/>
<path fill-rule="evenodd" clip-rule="evenodd" d="M53.817 11.0776C55.4594 11.0849 56.3876 11.7909 56.3876 12.8106C56.3876 13.7509 55.4087 14.583 54.3342 15.0133C55.4405 15.3354 55.5362 16.1259 55.5362 16.6851C55.5362 18.0363 53.8241 19.2987 51.5985 19.2987H46.7446L48.638 13.51L47.8602 13.5064L49.4501 11.0776C49.4501 11.0776 52.4813 11.0704 53.817 11.0776ZM52.2055 14.4109C52.5453 14.4109 53.1452 14.3427 53.2951 13.8221C53.4595 13.2568 52.8965 13.2416 52.6265 13.2416L51.6615 13.2383L51.325 14.4109H52.2055ZM50.8412 15.8636L50.397 17.2148H51.5333C51.9802 17.2148 52.5894 17.039 52.7387 16.5993C52.8862 16.1584 52.4603 15.8636 52.0149 15.8636H50.8412Z" fill="white"/>
<path fill-rule="evenodd" clip-rule="evenodd" d="M38.6642 20.3089C36.9835 20.3089 35.2565 19.9812 33.5317 19.3329L33.4894 19.3165L33.4691 19.2823C32.6951 17.9885 32.2856 16.5736 32.2856 15.1891C32.2856 13.8066 32.6783 12.4521 33.4528 11.1601L33.4742 11.1258L33.5173 11.1086C35.1129 10.5101 36.8292 10.207 38.6205 10.207C40.289 10.207 42.0711 10.5445 43.7731 11.1847L43.8166 11.2001L43.8369 11.235C44.6256 12.5527 45.0416 13.9674 45.0416 15.329C45.0416 16.6851 44.6422 18.0409 43.8524 19.3577L43.8317 19.3922L43.7878 19.4083C42.2165 19.9972 40.4447 20.3089 38.6642 20.3089ZM33.6913 19.1555C35.3668 19.7797 37.0381 20.0948 38.6642 20.0948C40.3885 20.0948 42.1032 19.7964 43.6297 19.2307C44.388 17.9547 44.7724 16.6414 44.7724 15.329C44.7724 14.0111 44.3712 12.6404 43.6124 11.3615C41.9607 10.7466 40.2357 10.4206 38.6205 10.4206C36.8864 10.4206 35.2241 10.7118 33.6768 11.2865C32.9341 12.5387 32.556 13.851 32.556 15.1891C32.556 16.5296 32.9488 17.9009 33.6913 19.1555Z" fill="white"/>
<rect x="28" y="46" width="50" height="30" rx="4" fill="white"/>
<path fill-rule="evenodd" clip-rule="evenodd" d="M36.0617 57.4884C36.5359 57.4235 37.0224 57.431 37.4988 57.471C37.9405 57.5477 38.3861 57.6333 38.7915 57.8049C39.6116 58.1336 40.3098 58.6664 40.775 59.3225C41.1607 59.9287 41.4261 60.6087 41.3864 61.3033C41.3976 62.7291 40.3221 64.0877 38.7988 64.6939C37.8112 65.0885 36.6624 65.1425 35.6071 64.9262C34.8933 64.7419 34.2047 64.4437 33.6846 63.9857C33.1891 63.5996 32.8151 63.1077 32.5777 62.5782C32.2682 61.9268 32.2402 61.2026 32.3717 60.5165C32.6125 59.4974 33.3621 58.563 34.423 58.0212C34.9168 57.748 35.4845 57.5858 36.0617 57.4884ZM35.4279 59.3182C35.0707 59.3488 34.6805 59.4542 34.4829 59.725C34.2646 59.9845 34.2418 60.309 34.2202 60.6173L34.2147 60.6928C34.2103 60.7706 34.202 60.8483 34.1938 60.926C34.1771 61.0827 34.1604 61.2395 34.175 61.3973C34.1859 61.5039 34.1935 61.6108 34.2012 61.7178C34.2204 61.985 34.2396 62.2524 34.3088 62.5147C34.3944 62.8453 34.7488 63.1016 35.1396 63.1618C35.8679 63.2721 36.6098 63.2624 37.3473 63.2527L37.5497 63.2502C37.8515 63.2361 38.1533 63.2102 38.4516 63.1702C38.8984 63.1213 39.2931 62.8156 39.3664 62.4394C39.4946 61.9781 39.5176 61.5022 39.4795 61.0314C39.4079 60.7295 39.1537 60.4572 38.8083 60.3467C38.6526 60.2836 38.48 60.2839 38.3107 60.2843H38.3107C38.2808 60.2844 38.2511 60.2845 38.2216 60.2842C37.8885 60.2845 37.5554 60.2844 37.2224 60.2842H37.2224C36.6396 60.2839 36.0569 60.2837 35.4744 60.2861C35.4074 60.2871 35.3449 60.2679 35.283 60.2488C35.26 60.2417 35.2371 60.2347 35.2141 60.2287C35.2124 60.1233 35.2169 59.9658 35.3854 59.963C35.8242 59.9547 36.2634 59.9571 36.7025 59.9596H36.7025C37.2809 59.9628 37.8593 59.966 38.4365 59.9446C38.3738 59.7001 38.1964 59.4447 37.8907 59.377C37.6147 59.315 37.3292 59.2834 37.0453 59.2613C36.9644 59.2605 36.8833 59.2592 36.8022 59.2579L36.8021 59.2579C36.3423 59.2505 35.8805 59.2431 35.4279 59.3182ZM38.5541 61.3724C38.4069 61.339 38.2305 61.3879 38.179 61.5153C38.1467 61.6621 38.1985 61.8034 38.2499 61.9438C38.2715 62.0028 38.2931 62.0616 38.3083 62.1206C38.3251 62.1288 38.3503 62.141 38.3755 62.1533C38.4007 62.1655 38.4259 62.1777 38.4427 62.186C38.5004 62.1577 38.5591 62.1323 38.6202 62.1102C38.6268 61.9861 38.6624 61.8668 38.6979 61.7474C38.7137 61.6945 38.7295 61.6416 38.7428 61.5882C38.7153 61.5003 38.6465 61.4199 38.5541 61.3724Z" fill="#01ACD7"/>
<path fill-rule="evenodd" clip-rule="evenodd" d="M47.1382 58.6604C46.7066 58.5183 46.2274 58.5343 45.775 58.5814C44.7964 58.7083 43.9376 59.3357 43.6476 60.1309C43.516 60.446 43.5188 60.786 43.5535 61.1147C43.6705 61.9555 44.4235 62.6939 45.3792 62.9511C46.0566 63.1232 46.8381 63.1289 47.4635 62.8208C47.5452 62.7829 47.6193 62.736 47.6935 62.6891L47.6935 62.6891L47.6935 62.6891C47.7628 62.6453 47.8321 62.6016 47.9074 62.565L47.9086 62.6087C47.9179 62.9553 47.9284 63.3473 47.6152 63.609C47.4053 63.8244 47.0878 63.9377 46.767 63.9791C46.0734 64.0859 45.34 63.8869 44.8244 63.4882C44.7098 63.5862 44.5897 63.6799 44.4696 63.7736L44.4696 63.7736L44.4696 63.7736C44.2753 63.9252 44.0811 64.0767 43.9102 64.2467C44.4498 64.6756 45.1334 64.985 45.8746 65.0673C46.5991 65.144 47.3784 65.1068 48.0239 64.7941C48.5714 64.5387 49.0025 64.1028 49.1716 63.5944C49.2765 63.3411 49.2751 63.0705 49.2737 62.8058L49.2735 62.7611C49.2729 61.3592 49.2729 59.9578 49.2735 58.556C49.0111 58.5532 48.7488 58.5534 48.4865 58.5535C48.297 58.5536 48.1075 58.5537 47.9181 58.5527L47.9187 58.6682C47.9196 58.7933 47.9204 58.9185 47.917 59.0436C47.6835 58.8833 47.4254 58.7417 47.1382 58.6604ZM45.4189 59.8821C45.6434 59.7147 45.9413 59.6507 46.2318 59.6145C46.8102 59.5407 47.4607 59.7631 47.7568 60.1981C47.8763 60.3744 47.8713 60.5736 47.8664 60.7709C47.8647 60.84 47.8629 60.9089 47.8666 60.9764C47.9153 61.3912 47.5307 61.7571 47.0901 61.8982C46.5577 62.0665 45.901 62.0778 45.4363 61.767C44.7398 61.3282 44.7258 60.327 45.4189 59.8821ZM59.0327 58.5536C58.4538 58.5503 57.8503 58.6956 57.4332 59.0464C57.4295 59.0019 57.4261 58.9573 57.4226 58.9129L57.4226 58.9128L57.4226 58.9128L57.4226 58.9127L57.4226 58.9121C57.4166 58.8349 57.4106 58.7579 57.4035 58.681C56.9478 58.6763 56.4921 58.6749 56.0364 58.681C56.037 59.8417 56.037 61.0023 56.0369 62.1629C56.0368 63.0334 56.0367 63.9039 56.037 64.7743C56.3572 64.7917 56.6782 64.7902 56.9991 64.7887H56.9991H56.9991H56.9991H56.9992H56.9992C57.1484 64.788 57.2976 64.7873 57.4467 64.7884C57.4571 64.2507 57.4548 63.7127 57.4524 63.1746L57.4524 63.1736C57.4517 62.9902 57.4509 62.8068 57.4506 62.6233C58.4561 63.2944 60.0567 63.2206 60.9608 62.4507C61.945 61.6216 62.0016 60.1441 61.0537 59.2788C60.5549 58.7972 59.7891 58.531 59.0327 58.5536ZM57.5166 60.2992C57.6639 59.9273 58.114 59.7053 58.5512 59.6324C59.0019 59.5558 59.5058 59.6512 59.854 59.9089C60.4441 60.3594 60.4485 61.2252 59.8921 61.6969C59.3339 62.1507 58.3463 62.1422 57.7915 61.6884C57.5553 61.513 57.4315 61.2384 57.4523 60.976C57.4569 60.9068 57.4547 60.8366 57.4525 60.7663C57.4475 60.6073 57.4425 60.448 57.5166 60.2992ZM51.9484 58.6114C52.744 58.477 53.6145 58.5578 54.307 58.9298C54.8339 59.1969 55.2347 59.6301 55.4139 60.1243C55.6596 60.7738 55.5493 61.5168 55.0891 62.082C54.6318 62.6515 53.8508 63.0005 53.0446 63.0658C52.548 63.0941 52.0346 63.08 51.5649 62.9281C50.7867 62.7084 50.134 62.169 49.9044 61.5027C49.6581 60.8782 49.7723 60.1633 50.1944 59.6103C50.5852 59.093 51.2402 58.7398 51.9484 58.6114ZM52.2815 59.6385C52.0833 59.686 51.898 59.7688 51.7357 59.8746C51.1736 60.2466 51.0364 60.9821 51.4367 61.4801C51.8941 62.1136 53.0743 62.2386 53.6935 61.7082C53.9963 61.4745 54.1402 61.1255 54.0999 60.7836C54.1341 60.0256 53.133 59.4147 52.2815 59.6385ZM65.2772 58.5818C64.4626 58.492 63.5803 58.5875 62.9046 59.0055C62.5144 59.2661 62.1807 59.6244 62.1146 60.0505C62.3092 60.0785 62.5021 60.1138 62.6951 60.1492C62.9464 60.1952 63.1977 60.2412 63.4527 60.271C63.563 59.899 63.947 59.6032 64.3977 59.5421C64.6894 59.4998 64.9928 59.5125 65.2767 59.5849C65.5247 59.6526 65.7133 59.8807 65.6047 60.098C65.4024 60.2529 65.1272 60.2998 64.865 60.3444C64.8312 60.3502 64.7976 60.3559 64.7644 60.3618L64.6279 60.3781C63.9624 60.457 63.2705 60.5391 62.7042 60.8622C62.0038 61.2736 62.001 62.2419 62.6487 62.6915C63.1834 63.0776 63.9364 63.1218 64.6071 63.047C65.0712 62.9741 65.5387 62.8053 65.8348 62.4841C65.8365 62.5634 65.8365 62.6426 65.8365 62.7219C65.8365 62.8012 65.8365 62.8806 65.8382 62.96C65.9403 62.9599 66.0424 62.9597 66.1445 62.9594H66.1447H66.1449H66.1449H66.1449C66.4689 62.9585 66.7933 62.9576 67.118 62.9619C67.1193 62.4306 67.1191 61.8995 67.1189 61.3685V61.3647V61.3647C67.1188 60.9677 67.1186 60.5707 67.1191 60.1737C67.1241 59.8506 66.9836 59.536 66.772 59.2698C66.4283 58.8645 65.8449 58.6599 65.2772 58.5818ZM63.5148 61.8004C63.4409 61.6532 63.5837 61.5078 63.7264 61.4354C64.0144 61.3021 64.3384 61.2524 64.6619 61.2028C65.0517 61.143 65.4406 61.0833 65.7643 60.8777C65.7612 60.9423 65.7637 61.0099 65.7662 61.0784C65.7746 61.3098 65.7833 61.5519 65.5812 61.7246C65.1904 62.0519 64.5953 62.1121 64.0696 62.0839C63.8513 62.0731 63.5641 62.0096 63.5148 61.8004ZM67.6815 58.6778C67.531 58.678 67.3805 58.6782 67.23 58.6782C67.6271 59.3753 68.0331 60.0689 68.439 60.7625C68.82 61.4132 69.2009 62.0641 69.5746 62.7178C69.3909 63.0571 69.1912 63.3901 68.9915 63.7232C68.7804 64.0752 68.5693 64.4272 68.3771 64.7866C68.5388 64.786 68.7007 64.787 68.8625 64.7881C69.2223 64.7904 69.5824 64.7927 69.9419 64.7772C71.1214 62.7465 72.2999 60.7159 73.4773 58.6843C72.9482 58.6731 72.4197 58.6749 71.8912 58.6825C71.384 59.6178 70.8706 60.5513 70.3545 61.4829C70.2022 61.2068 70.0484 60.9314 69.8946 60.6559C69.6433 60.206 69.3921 59.7561 69.148 59.3037C69.1089 59.23 69.0658 59.1578 69.0227 59.0856C68.9437 58.9532 68.8648 58.8209 68.8104 58.6796C68.4341 58.6766 68.0578 58.6772 67.6815 58.6778Z" fill="#010101"/>
<rect x="28" y="92" width="50" height="30" rx="4" fill="white"/>
<path fill-rule="evenodd" clip-rule="evenodd" d="M36.1085 109.814L37.8054 111.579H33.6043L36.1085 109.814ZM35.5749 109.269L32.2886 111.585L32.2873 105.89L35.5749 109.269ZM43.4821 103.534C43.4821 103.534 42.7607 103.247 41.9226 103.289C40.9644 103.337 40.1628 103.645 39.702 104.053C39.412 104.309 39.0914 104.621 38.9304 104.96C38.6969 105.45 38.647 106.098 38.647 106.098C38.647 106.098 38.3119 105.859 37.892 105.163C37.4039 104.353 37.2703 103.863 37.2042 103.303C37.1453 102.812 37.2377 102.326 37.2377 102.326H43.4821V103.534ZM43.4821 105.149V108.74C43.4821 108.74 43.0939 108.865 42.7773 108.865C42.4606 108.865 41.9214 108.826 41.2951 108.536C40.6733 108.25 40.3292 107.903 40.0624 107.588C39.7918 107.268 39.5684 106.825 39.502 106.505C39.4486 106.249 39.3911 105.612 39.702 105.093C39.8707 104.812 40.3234 104.33 41.1951 104.303C41.9056 104.28 42.2996 104.437 42.6607 104.603C43.3479 104.921 43.4821 105.149 43.4821 105.149ZM36.6827 108.488L37.809 107.699C37.4501 107.314 37.3552 107.169 36.9539 106.672C36.5431 106.163 36.1989 105.603 35.9047 104.946C35.5861 104.234 35.5092 103.834 35.5444 103.303C35.5884 102.627 35.7714 102.326 35.7714 102.326H32.2856L32.2873 103.904C32.2873 103.904 34.9555 106.713 36.6827 108.488ZM39.901 111.577H43.4821V109.383C43.4821 109.383 42.5939 109.726 42.0165 109.753C41.6728 109.77 41.3391 109.781 40.8008 109.661C40.2024 109.527 39.8624 109.397 39.3078 109.013C38.8623 108.705 38.353 108.25 38.353 108.25L37.2201 109.043C37.7457 109.583 38.1339 109.976 38.2528 110.082C38.7637 110.536 38.9803 110.702 39.3244 110.864C39.6684 111.026 40.8178 111.017 40.8178 111.017L39.901 111.577Z" fill="#E94E0F"/>
<path fill-rule="evenodd" clip-rule="evenodd" d="M70.5662 109.626C70.5662 110.261 70.6682 111.306 69.8209 111.56V111.603H73.039V111.56C72.1922 111.292 72.2938 110.261 72.2938 109.626V104.303C72.2938 103.668 72.1922 102.623 73.039 102.355V102.312H69.8209V102.355C70.6848 102.623 70.5662 103.654 70.5662 104.303V109.626ZM58.7664 104.303L64.5759 110.445C65.321 111.249 65.8463 111.716 67.0488 112.054V104.134C67.0488 103.343 67.0488 102.778 67.9298 102.355V102.312H64.9485V102.355C65.8463 102.778 65.8291 103.343 65.8291 104.134V109.485L59.6303 102.962L59.3929 102.679C59.2746 102.566 59.207 102.496 59.1392 102.326V102.312H56.6659V102.355C57.5468 102.778 57.5468 103.343 57.5468 104.134V109.767C57.5468 110.558 57.5468 111.122 56.6494 111.56V111.603H59.6473V111.56C58.7495 111.122 58.7664 110.558 58.7664 109.767V104.303ZM49.2965 106.054V103.287L50.4311 103.188C51.4475 103.103 52.5312 103.611 52.5312 104.586C52.5312 105.743 50.956 106.054 49.8554 106.054H49.2965ZM49.2965 110.473V106.986L50.4819 106.929C51.9724 106.858 53.5645 107.452 53.5645 108.821C53.5645 110.162 52.1591 110.699 50.7698 110.586L49.2965 110.473ZM47.5687 109.612C47.5687 110.261 47.6704 111.292 46.8232 111.56V111.603H49.618C50.8883 111.603 52.2267 111.645 53.4121 111.165C54.5469 110.713 55.4447 109.781 55.4447 108.694C55.4447 107.31 54.208 106.463 52.6836 106.195C53.6492 105.842 54.3773 105.305 54.3773 104.359C54.3773 103.103 53.0735 102.312 50.8379 102.312H46.8232V102.355C47.6875 102.623 47.5687 103.654 47.5687 104.289V109.612Z" fill="#005B6A"/>
<rect x="28" y="138" width="50" height="30" rx="4" fill="#003D79"/>
<path fill-rule="evenodd" clip-rule="evenodd" d="M31.6164 153.889C31.6164 153.351 31.6051 152.899 31.5713 152.497H32.7451L32.8002 153.188H32.8331C33.0991 152.823 33.5857 152.39 34.4932 152.39C35.2016 152.39 35.7549 152.737 35.9869 153.255H36.0097C36.1982 152.996 36.4188 152.804 36.6731 152.669C36.9722 152.487 37.3154 152.39 37.7581 152.39C38.6542 152.39 39.5611 152.918 39.5611 154.417V157.172H38.2333V154.59C38.2333 153.812 37.924 153.351 37.2714 153.351C36.8058 153.351 36.4624 153.639 36.3195 153.975C36.2859 154.09 36.2528 154.234 36.2528 154.368V157.172H34.9245V154.464C34.9245 153.812 34.6262 153.351 33.9953 153.351C33.4862 153.351 33.1436 153.697 33.0216 154.023C32.9658 154.139 32.9435 154.273 32.9435 154.407V157.172H31.6164V153.889Z" fill="white"/>
<path fill-rule="evenodd" clip-rule="evenodd" d="M44.7342 156.049C44.7342 156.471 44.7563 156.883 44.8117 157.172H43.583L43.4948 156.654H43.4612C43.1294 157.019 42.565 157.278 41.8679 157.278C40.7832 157.278 40.1748 156.597 40.1748 155.886C40.1748 154.705 41.3806 154.11 43.3726 154.119V154.042C43.3726 153.735 43.2286 153.226 42.2771 153.226C41.7456 153.226 41.1921 153.37 40.8271 153.572L40.5612 152.804C40.9603 152.593 41.6581 152.391 42.5095 152.391C44.2365 152.391 44.7342 153.342 44.7342 154.359V156.049ZM43.4058 154.887C42.4432 154.868 41.5249 155.05 41.5249 155.761C41.5249 156.221 41.8679 156.433 42.2996 156.433C42.8412 156.433 43.2402 156.126 43.3616 155.79C43.3945 155.703 43.4058 155.607 43.4058 155.531V154.887Z" fill="white"/>
<path fill-rule="evenodd" clip-rule="evenodd" d="M45.6753 153.889C45.6753 153.351 45.6631 152.899 45.6309 152.497H46.825L46.8918 153.197H46.9245C47.1571 152.833 47.7436 152.39 48.6398 152.39C49.5807 152.39 50.5545 152.918 50.5545 154.397V157.172H49.1935V154.532C49.1935 153.86 48.9058 153.351 48.1643 153.351C47.622 153.351 47.2459 153.687 47.1016 154.042C47.0581 154.148 47.0466 154.292 47.0466 154.426V157.172H45.6753V153.889Z" fill="white"/>
<path fill-rule="evenodd" clip-rule="evenodd" d="M56.4559 150.618V155.856C56.4559 156.336 56.4777 156.856 56.4999 157.172H55.2825L55.2281 156.433H55.2055C54.8844 156.952 54.2305 157.278 53.4457 157.278C52.1625 157.278 51.1441 156.328 51.1441 154.887C51.1328 153.322 52.2616 152.391 53.5562 152.391C54.2974 152.391 54.8291 152.66 55.0721 153.006H55.0945V150.618H56.4559ZM55.0945 154.445C55.0945 154.35 55.0831 154.234 55.0618 154.139C54.9399 153.678 54.5081 153.303 53.8883 153.303C53.0142 153.303 52.5272 153.975 52.5272 154.849C52.5272 155.703 53.0142 156.328 53.8773 156.328C54.4304 156.328 54.9176 156.001 55.0502 155.493C55.0831 155.386 55.0945 155.271 55.0945 155.146V154.445Z" fill="white"/>
<path fill-rule="evenodd" clip-rule="evenodd" d="M57.4175 157.172H58.7911V152.497H57.4175V157.172Z" fill="white"/>
<path fill-rule="evenodd" clip-rule="evenodd" d="M59.753 154.004C59.753 153.37 59.7415 152.918 59.7085 152.496H60.8928L60.9361 153.389H60.982C61.2472 152.727 61.8781 152.496 62.4533 152.496C62.5858 152.496 62.6632 152.477 62.7741 152.496V153.534C62.6632 153.514 62.5417 153.495 62.3757 153.495C61.7229 153.495 61.2799 153.86 61.1583 154.388C61.1368 154.493 61.1144 154.619 61.1144 154.754V157.172H59.753V154.004Z" fill="white"/>
<path fill-rule="evenodd" clip-rule="evenodd" d="M63.4048 157.172H64.7763V152.497H63.4048V157.172Z" fill="white"/>
<path fill-rule="evenodd" clip-rule="evenodd" d="M63.0805 146.844C62.2566 147.258 60.3134 148.225 59.588 148.585C59.1459 148.78 58.1219 148.866 57.5428 148.188C57.5324 148.176 56.7725 147.352 56.7415 147.321C56.7197 147.299 56.2284 146.667 55.1338 146.647C54.9721 146.644 54.1679 146.64 53.3833 147.027C52.3404 147.544 49.9149 148.747 49.9149 148.747C49.9142 148.747 49.9142 148.748 49.913 148.748C48.916 149.243 48.1392 149.628 48.1392 149.628L49.057 150.606C49.4863 151.069 50.4546 151.427 51.2942 151.009C51.2942 151.009 54.3968 149.45 54.4081 149.445C55.7499 148.807 56.7852 148.807 57.4724 149.044C58.0892 149.27 58.6259 149.834 58.6259 149.834C58.6259 149.834 59.3271 150.588 59.4509 150.72C59.8499 151.146 60.5103 150.979 60.5103 150.979C60.5103 150.979 60.7551 150.955 61.124 150.765C61.124 150.765 64.1292 149.253 64.1311 149.252C65.0853 148.766 65.9605 148.676 66.4078 148.711C67.8088 148.822 68.244 149.671 68.8515 150.264C69.2092 150.612 69.532 150.81 70.0256 150.8C70.35 150.794 70.7164 150.623 70.7704 150.592L74.3691 148.79C74.3691 148.79 73.9998 148.308 73.2436 147.557C72.5668 146.887 71.848 147.19 71.2748 147.437C71.034 147.54 70.1615 148.044 69.2972 148.395C68.6813 148.645 67.7966 148.57 67.3118 148.05C67.2828 148.019 66.4984 147.195 66.4159 147.093C66.0993 146.749 65.4816 146.441 64.69 146.441C64.2087 146.441 63.6625 146.555 63.0805 146.844Z" fill="url(#paint0_linear_1693_6186)"/>
<circle cx="126" cy="18.5" r="7.83333" fill="white" stroke="#345995"/>
<circle cx="126" cy="64.5" r="7.83333" fill="white" stroke="#345995"/>
<circle cx="126" cy="110.5" r="7.83333" fill="white" stroke="#345995"/>
<rect x="144" y="3.5" width="50" height="30" rx="4" fill="#FFCE4C"/>
<path fill-rule="evenodd" clip-rule="evenodd" d="M161.026 20.7399L162.276 17.868L162.685 20.7399H164.005L163.29 16.5219H161.678L160.611 19.0557L159.544 16.5219H157.932L157.217 20.7399H158.538L158.946 17.868L160.197 20.7399H161.026Z" fill="#231F20"/>
<path fill-rule="evenodd" clip-rule="evenodd" d="M171.281 17.6031L170.385 19.7968L169.477 17.6031H167.968L169.666 20.7399L168.993 21.9705H170.456L172.79 17.6031H171.281Z" fill="#231F20"/>
<path fill-rule="evenodd" clip-rule="evenodd" d="M186.093 16.1741V20.7362H187.461V19.1477L188.864 20.7362H190.42L188.876 19.0592L190.283 17.6031H188.711L187.461 18.973V16.1741H186.093Z" fill="#231F20"/>
<path fill-rule="evenodd" clip-rule="evenodd" d="M174.402 20.0124V18.3624C174.679 18.2838 175.683 18.0727 175.683 19.1447C175.683 20.2373 174.653 20.0696 174.402 20.0124ZM173.01 20.5783C173.01 20.5783 173.734 20.806 174.748 20.806C175.762 20.806 177.082 20.541 177.082 19.0724C177.082 17.6031 175.33 17.5502 175.125 17.5502C174.739 17.5502 174.493 17.6386 174.402 17.6777V16.1672H173.01V20.5783Z" fill="#231F20"/>
<path fill-rule="evenodd" clip-rule="evenodd" d="M178.53 19.7734C178.53 19.3226 179.547 19.2904 179.827 19.2902V20.0931C179.536 20.1225 178.53 20.1922 178.53 19.7734ZM177.83 18.3973C179.827 17.9009 179.827 18.4969 179.827 18.5759V18.6824C178.211 18.6939 177.248 19.0824 177.248 19.7868C177.248 20.5013 178.144 20.8124 179.332 20.8124C180.519 20.8124 181.124 20.5806 181.124 20.5806V18.6288C181.124 17.9407 180.597 17.5039 179.332 17.5039C178.066 17.5039 177.516 17.7555 177.516 17.7555L177.83 18.3973Z" fill="#231F20"/>
<path fill-rule="evenodd" clip-rule="evenodd" d="M165.464 19.7734C165.464 19.3226 166.482 19.2904 166.761 19.2902V20.0931C166.47 20.1225 165.464 20.1922 165.464 19.7734ZM164.764 18.3973C166.761 17.9009 166.761 18.4969 166.761 18.5759V18.6824C165.145 18.6939 164.182 19.0824 164.182 19.7868C164.182 20.5013 165.079 20.8124 166.265 20.8124C167.453 20.8124 168.058 20.5806 168.058 20.5806V18.6288C168.058 17.9407 167.531 17.5039 166.265 17.5039C165 17.5039 164.45 17.7555 164.45 17.7555L164.764 18.3973Z" fill="#231F20"/>
<path fill-rule="evenodd" clip-rule="evenodd" d="M184.198 20.7331H185.574V18.7481C185.574 17.7158 184.693 17.4973 183.608 17.4973C182.524 17.4973 181.651 17.7487 181.651 17.7487V20.7331H183.027V18.3597C184.085 18.0995 184.198 18.5271 184.198 18.7347V20.7331Z" fill="#231F20"/>
<path fill-rule="evenodd" clip-rule="evenodd" d="M149.949 17.3999C149.949 17.3999 150.037 17.107 150.179 17.0079C150.32 16.9085 150.829 16.6256 151.564 16.4271C151.652 16.4033 151.753 16.4305 151.758 16.4318C151.753 16.4562 151.75 16.4729 151.749 16.4783C151.739 16.5247 151.698 16.5543 151.698 16.5543C151.847 16.5709 151.946 16.4817 151.973 16.3789C152.001 16.2767 152.095 15.8702 152.248 15.8763C152.677 15.8927 152.983 17.0576 152.952 17.1103C152.931 17.1448 152.763 17.1168 152.763 17.1168C153.03 17.4708 153.38 17.4673 153.459 17.4114C153.538 17.3554 153.494 17.1731 153.494 17.1731C154.336 17.5935 154.288 18.0931 154.288 18.0931C154.54 17.266 153.958 16.9118 153.958 16.9118C154.186 16.9051 154.434 17.0276 154.434 17.0276C154.08 16.6273 153.349 16.4055 153.349 16.4055C153.349 16.4055 152.496 15.6082 152.221 15.638C151.993 15.6629 151.863 16.0149 151.799 16.2556C151.767 16.2534 151.707 16.2515 151.63 16.2592C151.569 16.1962 151.314 15.9411 151.215 16.0251C151.176 16.0575 151.164 16.2873 151.16 16.3839C150.747 16.5221 150.044 16.782 149.901 16.9727C149.772 17.1466 149.742 17.2757 149.742 17.2757C149.742 17.2757 148.899 17.7321 148.693 18.2289C148.693 18.2289 149.259 17.6727 149.949 17.3999Z" fill="#231F20"/>
<mask id="mask0_1693_6186" style="mask-type:alpha" maskUnits="userSpaceOnUse" x="147" y="15" width="9" height="8">
<path fill-rule="evenodd" clip-rule="evenodd" d="M147.571 15.116H155.923V22.1454H147.571V15.116Z" fill="white"/>
</mask>
<g mask="url(#mask0_1693_6186)">
<path fill-rule="evenodd" clip-rule="evenodd" d="M151.747 15.1159C149.445 15.1159 147.571 16.6929 147.571 18.6304C147.571 20.5684 149.445 22.1454 151.747 22.1454C154.05 22.1454 155.923 20.5684 155.923 18.6304C155.923 16.6929 154.05 15.1159 151.747 15.1159ZM151.747 15.4095C153.86 15.4095 155.574 16.8513 155.574 18.6304C155.574 20.4094 153.86 21.8514 151.747 21.8514C149.634 21.8514 147.921 20.4094 147.921 18.6304C147.921 16.8513 149.634 15.4095 151.747 15.4095Z" fill="#231F20"/>
</g>
<path fill-rule="evenodd" clip-rule="evenodd" d="M152.661 17.0312C152.649 16.6636 152.433 16.3694 152.322 16.3524C152.213 16.3362 152.177 16.6865 152.177 16.6865C152.468 16.8485 152.661 17.0312 152.661 17.0312Z" fill="#231F20"/>
<path fill-rule="evenodd" clip-rule="evenodd" d="M150.589 16.965C150.42 17.0505 150.495 17.1235 150.495 17.1235C150.495 17.1235 150.468 17.0505 150.676 17.0011C151.048 16.9127 151.384 16.8222 151.375 16.7464C151.368 16.6704 151.116 16.6406 151.116 16.6406C151.187 16.7198 150.758 16.8788 150.589 16.965Z" fill="#231F20"/>
<path fill-rule="evenodd" clip-rule="evenodd" d="M150.764 17.451C150.815 17.451 150.857 17.4165 150.857 17.3735C150.857 17.3499 150.844 17.3296 150.824 17.3154C150.886 17.3119 151.026 17.3184 151.026 17.3184C151.01 17.3154 150.975 17.3484 150.896 17.4311C150.817 17.5141 150.743 17.451 150.743 17.451L150.742 17.4473C150.749 17.4486 150.756 17.451 150.764 17.451ZM150.468 17.805C150.468 17.805 150.574 17.5968 150.652 17.5705C150.652 17.5705 150.79 17.6001 150.865 17.5767C150.939 17.5538 151.081 17.3951 151.136 17.3916C151.136 17.3916 150.99 17.9238 150.401 17.9141C150.401 17.9141 150.825 18.1161 151.041 17.9737C151.258 17.8314 151.093 17.7223 151.372 17.494C151.651 17.2655 151.466 17.256 151.454 17.2594C151.443 17.2624 151.356 17.2393 151.356 17.2393C151.356 17.2393 151.395 17.1964 151.474 17.167C151.553 17.1367 152.005 16.965 152.013 16.8618C152.02 16.7596 151.686 16.6438 151.517 16.6468C151.517 16.6468 151.67 16.6998 151.663 16.7728C151.655 16.8456 151.215 17.0078 151.215 17.2162C151.215 17.2162 151.057 17.2259 150.943 17.2065C150.829 17.1862 150.707 17.1964 150.582 17.2655C150.456 17.3352 150.448 17.1799 150.46 17.1598C150.46 17.1598 150.216 17.2888 150.523 17.4543C150.523 17.4543 150.397 17.5636 150.385 17.5901C150.373 17.6165 150.322 17.7586 150.468 17.805Z" fill="#231F20"/>
<path fill-rule="evenodd" clip-rule="evenodd" d="M150.078 18.4867C150.078 18.4867 150.072 18.2981 149.866 18.3378C149.519 18.4044 149.4 18.9232 149.4 18.9232C149.789 18.318 150.078 18.4867 150.078 18.4867Z" fill="#231F20"/>
<path fill-rule="evenodd" clip-rule="evenodd" d="M150.208 18.948C150.397 18.6903 150.167 18.5264 149.872 18.665C149.577 18.8041 149.506 19.1368 149.506 19.1368C150.09 18.6009 150.208 18.948 150.208 18.948Z" fill="#231F20"/>
<path fill-rule="evenodd" clip-rule="evenodd" d="M152.991 18.6156C152.991 18.6156 152.779 18.4573 152.802 18.1639C152.826 17.871 152.891 17.43 152.301 17.1219C152.301 17.1219 152.543 17.4347 152.454 17.7423C152.366 18.0501 152.071 18.5752 152.095 18.7497C152.148 19.1318 152.619 19.2014 152.584 19.7224C152.584 19.7224 152.861 19.4392 152.808 19.107C152.755 18.7743 152.407 18.6303 152.56 18.3676C152.56 18.3676 152.737 18.5858 152.991 18.6156Z" fill="#231F20"/>
<path fill-rule="evenodd" clip-rule="evenodd" d="M150.311 20.144C150.258 20.1296 150.211 19.9656 150.211 19.9656C150.287 20.0179 150.444 20.0203 150.444 20.0203C150.37 20.0794 150.364 20.1589 150.311 20.144ZM150.9 19.6215C150.9 19.6215 151.084 19.628 151.092 19.6017C151.1 19.5751 151.033 19.393 151.033 19.393C151.033 19.393 151.265 19.4129 151.269 19.4759C151.273 19.5384 151.139 19.6978 150.856 19.8002C150.856 19.8002 150.908 19.6742 150.9 19.6215ZM149.7 19.4528C149.726 19.4405 149.75 19.4273 149.771 19.4129C149.829 19.3764 149.872 19.3589 149.901 19.3509C149.895 19.4206 149.89 19.5433 149.916 19.6453C149.916 19.6453 149.763 19.563 149.7 19.4528ZM148.962 18.8174C148.871 18.8174 148.71 18.6156 148.683 18.5759C148.655 18.5363 148.836 18.4633 148.891 18.4502C148.946 18.4368 149.004 18.448 149.013 18.4705C149.021 18.4897 148.899 18.5528 148.883 18.5759C148.868 18.5992 148.98 18.6862 148.997 18.7046C149.028 18.7383 149.052 18.8174 148.962 18.8174ZM154.688 17.2308C154.688 17.2308 155.204 18.4106 154.622 19.4824C154.622 19.4824 154.655 19.3267 154.512 19.0195C154.359 18.6903 154.41 18.265 154.473 18.1858C154.473 18.1858 154.19 18.4238 154.205 18.821C154.221 19.2176 154.347 20.3361 153.388 20.7529C153.388 20.7529 153.751 20.1937 153.616 19.5384C153.616 19.5384 153.74 19.5785 153.805 19.7174C153.805 19.7174 154.064 19.1418 153.728 18.4368C153.728 18.4368 153.916 18.4668 154.035 18.551C154.035 18.551 154.158 18.0467 153.48 17.6924C153.309 17.603 153.333 17.5538 153.333 17.5538C153.333 17.5538 153.28 17.6678 153.392 17.7819C153.504 17.8961 153.657 18.1195 153.634 18.2337C153.634 18.2337 153.451 18.1242 153.185 18.1542C153.185 18.1542 153.692 18.5163 153.616 19.2956C153.616 19.2956 153.486 19.1766 153.156 19.1269C153.156 19.1269 153.527 19.7127 153.197 20.2732C153.197 20.2732 153.174 20.0747 153.068 19.9505C153.068 19.9505 152.985 20.3626 152.395 20.5067C152.395 20.5067 152.873 20.0051 152.307 19.7524C151.741 19.4988 151.263 20.0598 151.169 20.5514C151.169 20.5514 150.515 20.5907 150.45 20.3676C150.385 20.144 150.573 20.0496 150.573 20.0496C150.573 20.0496 150.674 20.1043 150.904 20.0151C151.134 19.9259 151.617 19.6824 151.57 19.3749C151.523 19.0675 150.951 18.7647 150.497 18.8884C150.043 19.0128 149.783 19.3502 149.547 19.3453C149.311 19.3403 149.023 19.0375 149.064 18.8789C149.105 18.7199 149.258 18.6752 149.311 18.4072C149.311 18.4072 149.229 18.4139 149.174 18.3841C149.119 18.354 148.974 18.3046 148.895 18.3214C148.816 18.3378 148.624 18.4471 148.616 18.427C148.608 18.4072 148.636 18.2877 148.636 18.2877C148.636 18.2877 148.423 18.4763 148.455 18.5528C148.486 18.6288 148.671 18.8174 148.863 18.9234C148.863 18.9234 148.899 19.1547 149.151 19.3701C149.301 19.4986 149.441 19.5219 149.56 19.5003C149.611 19.5632 149.783 19.7529 150.058 19.7943C150.058 19.7943 150.01 19.5284 150.044 19.3275C150.055 19.3228 150.065 19.3176 150.074 19.3103C150.117 19.2742 150.621 18.8837 150.994 19.2608C150.994 19.2608 150.825 19.3137 150.758 19.4921C150.691 19.6712 150.652 20.1144 150.098 19.83C150.098 19.83 150.051 20.0846 150.22 20.2371C150.22 20.2371 150.196 20.5082 150.562 20.6568C150.927 20.8059 151.183 20.6935 151.419 20.7927C151.419 20.7927 151.395 20.3855 151.595 20.1375C151.796 19.8894 152.079 19.8066 152.217 19.903C152.354 19.9987 152.441 20.3626 151.91 20.74C151.91 20.74 152.519 20.8059 152.936 20.538C152.936 20.538 152.884 21.0106 152.463 21.4111C153.988 21.1359 155.125 19.9954 155.125 18.6303C155.125 18.1216 154.966 17.644 154.688 17.2308Z" fill="#231F20"/>
<path fill-rule="evenodd" clip-rule="evenodd" d="M152.241 17.3417C152.241 17.3417 151.844 17.1536 151.667 17.3484C151.5 17.5322 151.608 17.847 151.511 18.0437C151.508 18.0416 151.504 18.039 151.501 18.0368C151.281 17.8709 151.01 18.1526 150.959 18.2351C150.908 18.3181 150.841 18.3276 150.841 18.3276C150.358 18.4105 150.46 18.083 150.299 17.9839C150.138 17.8843 149.866 18.0303 149.866 18.0303C150.137 17.9867 150.2 18.1459 150.193 18.2085C150.185 18.2716 150.24 18.4572 150.314 18.5595C150.389 18.6619 150.692 18.5891 150.939 18.6062C151.187 18.6224 151.328 18.8769 151.328 18.8769C151.478 18.5725 151.077 18.4338 151.077 18.4338C151.077 18.4338 151.194 18.2468 151.332 18.3111C151.773 18.5161 151.663 19.3467 151.663 19.3467C152.042 18.7466 151.875 18.3943 151.677 18.1885C151.702 18.0014 151.815 17.4113 152.241 17.3417Z" fill="#231F20"/>
<rect x="144" y="49.5" width="50" height="30" rx="4" fill="#00529C"/>
<path fill-rule="evenodd" clip-rule="evenodd" d="M158.822 62.5146H161.205C162.17 62.5146 162.89 62.8732 162.89 63.6283C162.89 64.1819 162.556 64.4902 161.977 64.6535V64.666C162.667 64.7858 163.024 65.1005 163.024 65.6349C163.024 66.6858 161.932 66.9058 161.004 66.9058H158.822V62.5146ZM160.203 64.251H160.589C161.042 64.251 161.51 64.1566 161.51 63.7851C161.51 63.383 161.064 63.3449 160.603 63.3449H160.203V64.251ZM160.203 66.0755H160.612C161.116 66.0755 161.643 66.0125 161.643 65.5658C161.643 65.088 161.101 65.0436 160.626 65.0436H160.203V66.0755Z" fill="white"/>
<path fill-rule="evenodd" clip-rule="evenodd" d="M164.836 62.5146H166.528L168.525 66.9058H167.011L166.625 65.9687H164.68L164.272 66.9058H162.869L164.836 62.5146ZM165.682 63.4207H165.667L164.999 65.1384H166.298L165.682 63.4207Z" fill="white"/>
<path fill-rule="evenodd" clip-rule="evenodd" d="M168.717 62.5146H170.477L172.229 65.4968H172.243L172.221 62.5146H173.483V66.9058H171.768L169.957 63.905H169.942L169.987 66.9058H168.717V62.5146Z" fill="white"/>
<path fill-rule="evenodd" clip-rule="evenodd" d="M173.952 62.5146H175.333V64.3081H175.348L176.906 62.5146H178.569L176.654 64.5591L178.718 66.9058H176.958L175.348 64.9117H175.333V66.9058H173.952V62.5146Z" fill="white"/>
<path fill-rule="evenodd" clip-rule="evenodd" d="M180.43 62.5146H182.813C183.778 62.5146 184.498 62.8732 184.498 63.6283C184.498 64.1819 184.164 64.4902 183.585 64.6535V64.666C184.275 64.7858 184.632 65.1005 184.632 65.6349C184.632 66.6858 183.54 66.9058 182.613 66.9058H180.43V62.5146ZM181.811 64.251H182.196C182.649 64.251 183.117 64.1566 183.117 63.7851C183.117 63.383 182.672 63.3449 182.212 63.3449H181.811V64.251ZM181.811 66.0755H182.219C182.724 66.0755 183.251 66.0125 183.251 65.5658C183.251 65.088 182.709 65.0436 182.234 65.0436H181.811V66.0755Z" fill="white"/>
<path fill-rule="evenodd" clip-rule="evenodd" d="M184.938 62.5146H187.402C188.322 62.5146 189.073 62.8667 189.073 63.6222C189.073 64.2072 188.746 64.5972 188.078 64.7292V64.7416C188.522 64.8425 188.553 65.1757 188.813 65.7105L189.317 66.9058H187.878L187.58 66.1136C187.298 65.3586 187.12 65.1694 186.608 65.1694H186.318V66.9058H184.938V62.5146ZM186.318 64.3391H186.682C187.127 64.3391 187.692 64.3263 187.692 63.8294C187.692 63.4207 187.209 63.3449 186.682 63.3449H186.318V64.3391Z" fill="white"/>
<mask id="mask1_1693_6186" style="mask-type:alpha" maskUnits="userSpaceOnUse" x="146" y="60" width="46" height="10">
<path fill-rule="evenodd" clip-rule="evenodd" d="M146.857 69.1235H191.078V60.3H146.857V69.1235Z" fill="white"/>
</mask>
<g mask="url(#mask1_1693_6186)">
<path fill-rule="evenodd" clip-rule="evenodd" d="M189.698 66.9059H191.078V62.5146H189.698V66.9059Z" fill="white"/>
<path fill-rule="evenodd" clip-rule="evenodd" d="M155.671 60.3H148.445C147.568 60.3 146.857 60.9175 146.857 61.6795V61.694V67.7443C146.857 68.4988 147.555 69.1121 148.421 69.1234H155.668C156.545 69.1234 157.256 68.5059 157.256 67.7443L157.26 61.6795C157.26 60.9175 156.549 60.3 155.671 60.3ZM149.304 68.4165L148.91 68.4201C148.433 68.4201 148.046 68.0879 148.046 67.6779L148.044 67.6195V62.0184L148.046 61.7168C148.064 61.3201 148.42 61.0006 148.885 61.0006H149.687C150.413 61.0006 151.002 61.5359 151.002 62.1674C151.002 62.4795 150.858 62.7629 150.624 62.969L148.579 64.7274L150.496 66.3813C150.743 66.5971 150.892 66.8809 150.892 67.1917C150.892 67.8682 150.181 68.4165 149.304 68.4165ZM155.196 68.4109L151.623 68.4096C151.623 68.4096 152.036 67.6528 152.036 67.1844C152.036 66.6134 151.811 66.1031 151.458 65.7655L150.236 64.7096L151.483 63.6173C151.854 63.3215 152.101 62.7964 152.101 62.1984C152.101 61.7249 151.947 61.3053 151.698 61.0006H152.564C153.29 61.0006 153.879 61.5359 153.879 62.1674C153.879 62.4795 153.735 62.7629 153.501 62.969L151.495 64.709L155.661 68.3092C155.529 68.3797 155.363 68.4109 155.196 68.4109ZM156.069 67.2869L153.083 64.7083L154.505 63.4835C154.795 63.1769 154.978 62.7149 154.978 62.1984C154.978 61.7218 154.821 61.2921 154.57 60.9872L155.207 61.0033C155.684 61.0033 156.071 61.3361 156.071 61.7459L156.069 67.2869Z" fill="white"/>
</g>
<rect x="144" y="95.5" width="50" height="30" rx="4" fill="#108EE9"/>
<path fill-rule="evenodd" clip-rule="evenodd" d="M154.793 105.7H154.626C153.241 105.725 151.877 106.19 150.871 106.991C149.692 107.908 149.015 109.244 149 110.591V110.716C149.028 112.035 149.686 113.341 150.831 114.248C151.845 115.071 153.235 115.55 154.646 115.57H154.809C156.716 115.552 158.551 114.655 159.542 113.292C160.391 112.162 160.652 110.741 160.275 109.446C159.959 108.328 159.163 107.309 158.059 106.629C157.122 106.041 155.962 105.718 154.793 105.7ZM152.203 109.71C152.742 109.843 153.316 109.762 153.84 109.62C154.129 109.54 154.413 109.449 154.698 109.357L154.698 109.357C155.157 109.209 155.617 109.061 156.096 108.962C156.737 108.836 157.457 108.938 157.97 109.295C158.072 109.376 158.071 109.495 158.071 109.607C158.071 109.635 158.071 109.662 158.073 109.689C158.067 110.05 158.069 110.411 158.071 110.773V110.773V110.773V110.773V110.773C158.074 111.306 158.077 111.838 158.055 112.37C157.978 112.343 157.901 112.313 157.824 112.284C157.506 112.163 157.188 112.041 156.831 112.036C156.087 112.001 155.399 112.209 154.71 112.417C154.15 112.586 153.588 112.755 152.995 112.795C152.457 112.826 151.894 112.719 151.457 112.447C151.368 112.343 151.373 112.212 151.377 112.085C151.379 112.033 151.38 111.982 151.376 111.933C151.384 111.609 151.38 111.285 151.377 110.961V110.961V110.961V110.961V110.961C151.371 110.439 151.365 109.916 151.409 109.396C151.507 109.433 151.602 109.477 151.696 109.52L151.696 109.52C151.859 109.596 152.022 109.671 152.203 109.71ZM163.501 108.158H163.501H163.501H163.501H163.501C163.206 108.16 162.911 108.161 162.617 108.158C162.616 108.989 162.616 109.82 162.616 110.652C162.616 111.483 162.616 112.314 162.616 113.145C162.944 113.146 163.272 113.146 163.6 113.146C163.929 113.146 164.257 113.146 164.585 113.146C165.062 113.147 165.545 113.07 165.972 112.884C167.107 112.417 167.764 111.292 167.547 110.25C167.367 109.165 166.238 108.243 164.927 108.17C164.452 108.153 163.976 108.156 163.501 108.158ZM163.857 111.664C163.859 110.853 163.862 110.042 163.853 109.231C163.981 109.234 164.109 109.232 164.237 109.23C164.517 109.226 164.798 109.222 165.073 109.272C165.757 109.404 166.284 109.939 166.333 110.524C166.405 111.107 166.002 111.708 165.362 111.946C165.016 112.084 164.634 112.077 164.257 112.07H164.257H164.257H164.257H164.257C164.122 112.068 163.988 112.066 163.856 112.07L163.857 111.664ZM169.752 110.175C169.792 109.094 170.951 108.122 172.254 108.159C173.532 108.148 174.653 109.099 174.704 110.159C174.717 110.768 174.715 111.378 174.713 111.987V111.987V111.987V111.987C174.712 112.373 174.711 112.758 174.713 113.144L174.713 113.144C174.299 113.145 173.886 113.145 173.472 113.144C173.47 112.965 173.471 112.787 173.471 112.608V112.608V112.608V112.608C173.471 112.43 173.471 112.252 173.469 112.074C172.982 112.076 172.495 112.075 172.008 112.075H172.008H172.008H172.008C171.667 112.075 171.326 112.074 170.986 112.075C170.985 112.208 170.985 112.341 170.986 112.474C170.987 112.699 170.988 112.924 170.98 113.149C170.705 113.143 170.43 113.144 170.156 113.144H170.156H170.156H170.156C170.019 113.145 169.881 113.145 169.744 113.145C169.746 112.785 169.745 112.425 169.743 112.065V112.064C169.741 111.434 169.739 110.804 169.752 110.175ZM171.303 109.589C170.965 109.895 170.975 110.31 170.984 110.707V110.707C170.987 110.808 170.989 110.907 170.986 111.004C171.317 111.004 171.648 111.004 171.979 111.004H171.979H171.979H171.979C172.476 111.004 172.973 111.003 173.469 111.005C173.466 110.908 173.469 110.809 173.471 110.709C173.482 110.321 173.493 109.917 173.174 109.61C172.73 109.12 171.763 109.109 171.303 109.589ZM176.884 110.186C176.921 109.234 177.807 108.351 178.931 108.191C179.767 108.056 180.664 108.332 181.209 108.879C181.631 109.269 181.846 109.797 181.846 110.321C181.847 110.947 181.847 111.573 181.846 112.2V112.203C181.846 112.517 181.846 112.831 181.846 113.145C181.705 113.145 181.565 113.145 181.424 113.144H181.424C181.153 113.144 180.881 113.143 180.61 113.15C180.601 112.617 180.602 112.083 180.604 111.55C180.605 111.139 180.606 110.729 180.602 110.319C180.609 109.938 180.367 109.558 179.97 109.369C179.558 109.162 179.001 109.193 178.623 109.442C178.297 109.647 178.114 109.989 178.12 110.329C178.118 110.866 178.118 111.402 178.119 111.938C178.119 112.34 178.119 112.742 178.118 113.145C177.967 113.144 177.816 113.144 177.665 113.144H177.665C177.4 113.145 177.135 113.145 176.871 113.142C176.88 112.667 176.878 112.192 176.876 111.717C176.875 111.207 176.873 110.696 176.884 110.186ZM184.414 109.125C184.893 108.498 185.778 108.093 186.673 108.165C187.683 108.217 188.58 108.864 188.86 109.673C188.963 109.945 188.968 110.231 188.973 110.516V110.516C188.976 110.679 188.979 110.841 189 111.002V113.139C188.683 113.146 188.365 113.145 188.048 113.144C187.942 113.144 187.836 113.144 187.73 113.144C187.729 113.029 187.73 112.914 187.73 112.799V112.798C187.73 112.556 187.731 112.313 187.724 112.07C187.222 112.076 186.719 112.076 186.215 112.075H186.215C185.892 112.074 185.568 112.074 185.245 112.075C185.245 112.253 185.245 112.431 185.245 112.609C185.245 112.788 185.245 112.966 185.244 113.145H184.002C184.002 112.685 184.002 112.226 184.002 111.766C184.002 111.307 184.002 110.848 184.002 110.389C183.996 109.946 184.122 109.497 184.414 109.125ZM185.556 109.596C185.224 109.901 185.234 110.312 185.244 110.706C185.246 110.807 185.248 110.907 185.245 111.004C185.797 111.004 186.35 111.004 186.902 111.004L187.729 111.004C187.725 110.905 187.728 110.803 187.731 110.7C187.741 110.314 187.751 109.913 187.432 109.608C186.983 109.117 186.013 109.111 185.556 109.596Z" fill="white"/>
<defs>
<linearGradient id="paint0_linear_1693_6186" x1="48.1392" y1="151.194" x2="74.3691" y2="151.194" gradientUnits="userSpaceOnUse">
<stop stop-color="#FFCA06"/>
<stop offset="0.330844" stop-color="#FBAA18"/>
<stop offset="0.694742" stop-color="#FFC907"/>
<stop offset="1" stop-color="#FAA619"/>
</linearGradient>
</defs>
</svg>
