<svg width="40" height="40" viewBox="0 0 40 40" fill="none" xmlns="http://www.w3.org/2000/svg">
<path d="M10.7948 36.6658H3.88409V14.4114H10.7948V36.6658ZM7.33573 11.3757C5.12591 11.3757 3.3335 9.54531 3.3335 7.33548C3.3335 6.27403 3.75516 5.25604 4.50572 4.50548C5.25629 3.75491 6.27427 3.33325 7.33573 3.33325C8.39719 3.33325 9.41517 3.75491 10.1657 4.50548C10.9163 5.25604 11.338 6.27403 11.338 7.33548C11.338 9.54531 9.54481 11.3757 7.33573 11.3757ZM36.6594 36.6658H29.7636V25.8325C29.7636 23.2507 29.7115 19.9397 26.1706 19.9397C22.5775 19.9397 22.027 22.7447 22.027 25.6465V36.6658H15.1237V14.4114H21.7517V17.4471H21.8484C22.771 15.6986 25.0247 13.8533 28.3871 13.8533C35.3811 13.8533 36.6668 18.459 36.6668 24.4411V36.6658H36.6594Z" fill="#001A40"/>
</svg>
