<svg width="40" height="40" viewBox="0 0 40 40" fill="none" xmlns="http://www.w3.org/2000/svg">
<path d="M34.1656 17.0027C31.2986 17.0096 28.502 16.1155 26.1707 14.4467V26.0851C26.1699 28.2407 25.5111 30.3446 24.2823 32.1156C23.0535 33.8866 21.3133 35.2402 19.2944 35.9955C17.2755 36.7508 15.0741 36.8717 12.9846 36.3421C10.8951 35.8125 9.01715 34.6576 7.60175 33.0319C6.18635 31.4061 5.30102 29.387 5.06413 27.2445C4.82724 25.102 5.25008 22.9383 6.27613 21.0426C7.30217 19.1469 8.8825 17.6096 10.8058 16.6363C12.7291 15.6631 14.9037 15.3001 17.0389 15.5961V21.4498C16.0618 21.1425 15.0127 21.1518 14.0412 21.4763C13.0697 21.8008 12.2256 22.424 11.6295 23.2568C11.0333 24.0897 10.7156 25.0896 10.7216 26.1138C10.7276 27.1381 11.0571 28.1342 11.6631 28.96C12.269 29.7857 13.1204 30.3989 14.0956 30.712C15.0708 31.025 16.12 31.0219 17.0934 30.7031C18.0667 30.3843 18.9144 29.7661 19.5155 28.9367C20.1165 28.1074 20.4401 27.1093 20.4401 26.0851V3.33325H26.1707C26.1668 3.81719 26.2073 4.30047 26.2919 4.77698V4.77698C26.491 5.84071 26.905 6.85264 27.5087 7.75086C28.1123 8.64909 28.8928 9.41473 29.8025 10.001C31.0967 10.8567 32.6141 11.3128 34.1656 11.3125V17.0027Z" fill="#001A40"/>
</svg>
