<svg width="260" height="226" viewBox="0 0 260 226" fill="none" xmlns="http://www.w3.org/2000/svg">
<g filter="url(#filter0_d_1329_3682)">
<rect x="54" y="45" width="152" height="118" rx="25" fill="#E8F524"/>
<g clip-path="url(#clip0_1329_3682)">
<path fill-rule="evenodd" clip-rule="evenodd" d="M106 64H109L109 109H154L154 112H106L106 64ZM136 74.5C136 74.1022 136.158 73.7206 136.439 73.4393C136.721 73.158 137.102 73 137.5 73H149.5C149.898 73 150.279 73.158 150.561 73.4393C150.842 73.7206 151 74.1022 151 74.5L151 86.5C151 86.8978 150.842 87.2794 150.561 87.5607C150.279 87.842 149.898 88 149.5 88C149.102 88 148.721 87.842 148.439 87.5607C148.158 87.2794 148 86.8978 148 86.5L148 78.7L137.161 91.951C137.028 92.113 136.863 92.2453 136.676 92.3396C136.489 92.4339 136.285 92.488 136.076 92.4985C135.866 92.509 135.658 92.4755 135.462 92.4003C135.267 92.3252 135.089 92.2099 134.941 92.062L127.18 84.301L116.212 99.382C115.972 99.6871 115.623 99.8873 115.239 99.9406C114.854 99.9938 114.464 99.896 114.15 99.6676C113.836 99.4392 113.623 99.0981 113.556 98.7159C113.488 98.3337 113.571 97.9401 113.788 97.618L125.788 81.118C125.915 80.9425 126.079 80.7968 126.268 80.6908C126.458 80.5847 126.667 80.521 126.884 80.5039C127.1 80.4868 127.317 80.5167 127.52 80.5917C127.724 80.6666 127.909 80.7848 128.062 80.938L135.889 88.768L146.335 76H137.5C137.102 76 136.721 75.842 136.439 75.5607C136.158 75.2794 136 74.8978 136 74.5Z" fill="black"/>
</g>
<path d="M84.9637 138L88.6004 128.197H90.3504L93.994 138H92.449L91.6424 135.758H87.3153L86.5018 138H84.9637ZM87.7869 134.432H91.1639L89.5096 129.879H89.4412L87.7869 134.432ZM97.296 138.137C96.5122 138.137 95.8491 137.936 95.3068 137.535C94.7645 137.134 94.4227 136.612 94.2814 135.97H95.7511C95.938 136.576 96.4529 136.879 97.296 136.879C97.8293 136.879 98.2303 136.792 98.4992 136.619C98.7681 136.446 98.9025 136.229 98.9025 135.97C98.9025 135.719 98.7954 135.519 98.5812 135.368C98.367 135.218 98.0981 135.113 97.7746 135.054C97.4556 134.994 97.1092 134.915 96.7355 134.814C96.3618 134.71 96.0132 134.591 95.6896 134.459C95.366 134.327 95.0972 134.104 94.883 133.789C94.6688 133.47 94.5617 133.078 94.5617 132.613C94.5617 131.998 94.8009 131.483 95.2794 131.068C95.7625 130.649 96.4097 130.439 97.2209 130.439C97.9774 130.439 98.6222 130.626 99.1554 131C99.6886 131.374 100.024 131.864 100.16 132.47H98.6906C98.4308 131.955 97.9409 131.697 97.2209 131.697C96.3322 131.697 95.8901 132.003 95.8947 132.613C95.8947 132.864 96.0018 133.067 96.216 133.222C96.4302 133.372 96.6968 133.479 97.0158 133.543C97.3393 133.602 97.688 133.687 98.0617 133.796C98.4354 133.901 98.7817 134.019 99.1007 134.151C99.4243 134.279 99.6932 134.5 99.9074 134.814C100.126 135.129 100.236 135.514 100.236 135.97C100.236 136.585 99.9735 137.1 99.4494 137.515C98.9298 137.929 98.2121 138.137 97.296 138.137ZM104.037 138.137C103.253 138.137 102.59 137.936 102.047 137.535C101.505 137.134 101.163 136.612 101.022 135.97H102.492C102.679 136.576 103.194 136.879 104.037 136.879C104.57 136.879 104.971 136.792 105.24 136.619C105.509 136.446 105.643 136.229 105.643 135.97C105.643 135.719 105.536 135.519 105.322 135.368C105.108 135.218 104.839 135.113 104.515 135.054C104.196 134.994 103.85 134.915 103.476 134.814C103.102 134.71 102.754 134.591 102.43 134.459C102.107 134.327 101.838 134.104 101.624 133.789C101.409 133.47 101.302 133.078 101.302 132.613C101.302 131.998 101.541 131.483 102.02 131.068C102.503 130.649 103.15 130.439 103.961 130.439C104.718 130.439 105.363 130.626 105.896 131C106.429 131.374 106.764 131.864 106.901 132.47H105.431C105.171 131.955 104.681 131.697 103.961 131.697C103.073 131.697 102.631 132.003 102.635 132.613C102.635 132.864 102.742 133.067 102.957 133.222C103.171 133.372 103.437 133.479 103.756 133.543C104.08 133.602 104.429 133.687 104.802 133.796C105.176 133.901 105.522 134.019 105.841 134.151C106.165 134.279 106.434 134.5 106.648 134.814C106.867 135.129 106.976 135.514 106.976 135.97C106.976 136.585 106.714 137.1 106.19 137.515C105.67 137.929 104.953 138.137 104.037 138.137ZM111.474 138.137C110.413 138.137 109.563 137.797 108.925 137.118C108.291 136.435 107.974 135.491 107.974 134.288C107.974 133.085 108.287 132.144 108.911 131.465C109.535 130.781 110.367 130.439 111.406 130.439C112.459 130.439 113.293 130.795 113.908 131.506C114.523 132.212 114.831 133.023 114.831 133.939L114.763 134.712H109.362C109.399 135.405 109.608 135.94 109.991 136.318C110.374 136.692 110.868 136.879 111.474 136.879C112.24 136.879 112.823 136.576 113.224 135.97H114.694C114.444 136.621 114.038 137.146 113.477 137.542C112.917 137.938 112.249 138.137 111.474 138.137ZM109.362 133.591H113.464C113.382 132.994 113.158 132.529 112.794 132.196C112.429 131.864 111.967 131.697 111.406 131.697C110.846 131.697 110.383 131.864 110.018 132.196C109.654 132.529 109.435 132.994 109.362 133.591ZM118.844 138C118.256 138 117.782 137.818 117.422 137.453C117.062 137.089 116.882 136.617 116.882 136.038V131.841H115.693V130.583H116.882L117.094 128.621H118.215V130.583H120.033V131.841H118.215V135.901C118.215 136.152 118.281 136.355 118.413 136.51C118.55 136.665 118.739 136.742 118.981 136.742H120.033V138H118.844ZM123.834 138.137C123.051 138.137 122.388 137.936 121.845 137.535C121.303 137.134 120.961 136.612 120.82 135.97H122.29C122.476 136.576 122.991 136.879 123.834 136.879C124.368 136.879 124.769 136.792 125.038 136.619C125.306 136.446 125.441 136.229 125.441 135.97C125.441 135.719 125.334 135.519 125.12 135.368C124.905 135.218 124.637 135.113 124.313 135.054C123.994 134.994 123.648 134.915 123.274 134.814C122.9 134.71 122.552 134.591 122.228 134.459C121.904 134.327 121.636 134.104 121.421 133.789C121.207 133.47 121.1 133.078 121.1 132.613C121.1 131.998 121.339 131.483 121.818 131.068C122.301 130.649 122.948 130.439 123.759 130.439C124.516 130.439 125.161 130.626 125.694 131C126.227 131.374 126.562 131.864 126.699 132.47H125.229C124.969 131.955 124.479 131.697 123.759 131.697C122.871 131.697 122.429 132.003 122.433 132.613C122.433 132.864 122.54 133.067 122.754 133.222C122.969 133.372 123.235 133.479 123.554 133.543C123.878 133.602 124.226 133.687 124.6 133.796C124.974 133.901 125.32 134.019 125.639 134.151C125.963 134.279 126.232 134.5 126.446 134.814C126.665 135.129 126.774 135.514 126.774 135.97C126.774 136.585 126.512 137.1 125.988 137.515C125.468 137.929 124.75 138.137 123.834 138.137ZM133.734 138C133.146 138 132.672 137.818 132.312 137.453C131.952 137.089 131.772 136.617 131.772 136.038V131.841H130.582V130.583H131.772L131.984 128.621H133.105V130.583H134.923V131.841H133.105V135.901C133.105 136.152 133.171 136.355 133.303 136.51C133.44 136.665 133.629 136.742 133.87 136.742H134.923V138H133.734ZM136.407 138V130.583H137.459L137.665 131.561H137.74C138.132 130.909 138.761 130.583 139.626 130.583H140.467V131.841H139.695C139.107 131.841 138.633 132.012 138.273 132.354C137.917 132.691 137.74 133.126 137.74 133.659V138H136.407ZM143.776 136.947C144.391 136.947 144.884 136.779 145.253 136.441C145.622 136.1 145.806 135.662 145.806 135.129V134.712H143.845C143.362 134.712 142.995 134.812 142.744 135.013C142.498 135.213 142.375 135.487 142.375 135.833C142.375 136.175 142.498 136.446 142.744 136.646C142.995 136.847 143.339 136.947 143.776 136.947ZM143.564 138.137C142.817 138.137 142.211 137.913 141.746 137.467C141.281 137.02 141.049 136.476 141.049 135.833C141.049 135.172 141.295 134.623 141.787 134.186C142.284 133.743 142.97 133.522 143.845 133.522H145.806V133.167C145.806 132.711 145.661 132.354 145.369 132.094C145.082 131.829 144.69 131.697 144.193 131.697C143.792 131.697 143.466 131.784 143.216 131.957C142.965 132.13 142.801 132.349 142.723 132.613H141.329C141.47 131.998 141.803 131.483 142.327 131.068C142.856 130.649 143.478 130.439 144.193 130.439C145.118 130.439 145.841 130.69 146.36 131.191C146.88 131.688 147.139 132.347 147.139 133.167V138H146.018L145.875 137.091H145.806C145.647 137.36 145.364 137.601 144.959 137.815C144.553 138.03 144.088 138.137 143.564 138.137ZM152.055 138.137C150.993 138.137 150.143 137.797 149.505 137.118C148.872 136.435 148.555 135.491 148.555 134.288C148.555 133.085 148.872 132.144 149.505 131.465C150.139 130.781 150.988 130.439 152.055 130.439C152.839 130.439 153.506 130.642 154.058 131.048C154.609 131.453 154.992 131.998 155.206 132.682H153.805C153.44 132.03 152.857 131.702 152.055 131.697C151.412 131.697 150.888 131.925 150.483 132.381C150.082 132.832 149.881 133.47 149.881 134.295C149.881 135.115 150.082 135.751 150.483 136.202C150.888 136.653 151.412 136.879 152.055 136.879C152.857 136.879 153.44 136.553 153.805 135.901H155.206C154.992 136.585 154.609 137.13 154.058 137.535C153.506 137.936 152.839 138.137 152.055 138.137ZM156.683 138V128.197H158.016V134.008L161.236 130.583H162.917L159.486 134.22L163.123 138H161.448L158.016 134.432V138H156.683ZM166.848 138.137C165.787 138.137 164.937 137.797 164.299 137.118C163.665 136.435 163.348 135.491 163.348 134.288C163.348 133.085 163.661 132.144 164.285 131.465C164.909 130.781 165.741 130.439 166.78 130.439C167.833 130.439 168.667 130.795 169.282 131.506C169.897 132.212 170.205 133.023 170.205 133.939L170.137 134.712H164.736C164.773 135.405 164.982 135.94 165.365 136.318C165.748 136.692 166.242 136.879 166.848 136.879C167.614 136.879 168.197 136.576 168.598 135.97H170.068C169.818 136.621 169.412 137.146 168.851 137.542C168.291 137.938 167.623 138.137 166.848 138.137ZM164.736 133.591H168.838C168.756 132.994 168.532 132.529 168.168 132.196C167.803 131.864 167.341 131.697 166.78 131.697C166.22 131.697 165.757 131.864 165.392 132.196C165.028 132.529 164.809 132.994 164.736 133.591ZM171.695 138V130.583H172.748L172.953 131.561H173.029C173.42 130.909 174.049 130.583 174.915 130.583H175.756V131.841H174.984C174.396 131.841 173.922 132.012 173.562 132.354C173.206 132.691 173.029 133.126 173.029 133.659V138H171.695Z" fill="black"/>
</g>
<defs>
<filter id="filter0_d_1329_3682" x="0" y="0" width="260" height="226" filterUnits="userSpaceOnUse" color-interpolation-filters="sRGB">
<feFlood flood-opacity="0" result="BackgroundImageFix"/>
<feColorMatrix in="SourceAlpha" type="matrix" values="0 0 0 0 0 0 0 0 0 0 0 0 0 0 0 0 0 0 127 0" result="hardAlpha"/>
<feMorphology radius="8" operator="dilate" in="SourceAlpha" result="effect1_dropShadow_1329_3682"/>
<feOffset dy="9"/>
<feGaussianBlur stdDeviation="23"/>
<feComposite in2="hardAlpha" operator="out"/>
<feColorMatrix type="matrix" values="0 0 0 0 0 0 0 0 0 0 0 0 0 0 0 0 0 0 0.14 0"/>
<feBlend mode="normal" in2="BackgroundImageFix" result="effect1_dropShadow_1329_3682"/>
<feBlend mode="normal" in="SourceGraphic" in2="effect1_dropShadow_1329_3682" result="shape"/>
</filter>
<clipPath id="clip0_1329_3682">
<rect width="48" height="48" fill="white" transform="translate(106 64)"/>
</clipPath>
</defs>
</svg>
