<svg width="501" height="694" viewBox="0 0 501 694" fill="none" xmlns="http://www.w3.org/2000/svg">
<g clip-path="url(#clip0_1319_4399)">
<rect width="501" height="694" rx="50" fill="#E8F524"/>
<g filter="url(#filter0_d_1319_4399)">
<rect x="45" y="82" width="409" height="530" rx="25" fill="white"/>
<path d="M361.871 591.117C361 591.117 360.281 590.906 359.715 590.484C359.152 590.059 358.811 589.471 358.689 588.721H359.949C360.188 589.561 360.828 589.98 361.871 589.98C362.48 589.98 362.943 589.863 363.26 589.629C363.576 589.391 363.734 589.068 363.734 588.662C363.734 588.396 363.645 588.176 363.465 588C363.289 587.824 363.059 587.693 362.773 587.607C362.492 587.518 362.182 587.438 361.842 587.367C361.502 587.293 361.162 587.203 360.822 587.098C360.482 586.988 360.17 586.852 359.885 586.688C359.604 586.523 359.373 586.283 359.193 585.967C359.018 585.65 358.93 585.268 358.93 584.818C358.93 584.123 359.195 583.561 359.727 583.131C360.262 582.697 360.977 582.48 361.871 582.48C362.695 582.48 363.363 582.674 363.875 583.061C364.387 583.443 364.719 583.971 364.871 584.643H363.611C363.338 583.963 362.758 583.621 361.871 583.617C361.352 583.617 360.941 583.732 360.641 583.963C360.34 584.189 360.189 584.475 360.189 584.818C360.189 585.1 360.279 585.334 360.459 585.521C360.643 585.709 360.875 585.854 361.156 585.955C361.441 586.053 361.758 586.143 362.105 586.225C362.453 586.303 362.799 586.396 363.143 586.506C363.486 586.615 363.801 586.748 364.086 586.904C364.371 587.061 364.604 587.287 364.783 587.584C364.963 587.877 365.053 588.236 365.053 588.662C365.053 589.35 364.768 589.932 364.197 590.408C363.631 590.881 362.855 591.117 361.871 591.117ZM368.949 591.117C368.039 591.117 367.311 590.826 366.764 590.244C366.221 589.658 365.949 588.85 365.949 587.818C365.949 586.787 366.217 585.98 366.752 585.398C367.287 584.812 368 584.52 368.891 584.52C369.793 584.52 370.508 584.824 371.035 585.434C371.563 586.039 371.826 586.734 371.826 587.52L371.768 588.182H367.139C367.17 588.775 367.35 589.234 367.678 589.559C368.006 589.879 368.43 590.039 368.949 590.039C369.605 590.039 370.105 589.779 370.449 589.26H371.709C371.494 589.818 371.146 590.268 370.666 590.607C370.186 590.947 369.613 591.117 368.949 591.117ZM367.139 587.221H370.654C370.584 586.709 370.393 586.311 370.08 586.025C369.768 585.74 369.371 585.598 368.891 585.598C368.41 585.598 368.014 585.74 367.701 586.025C367.389 586.311 367.201 586.709 367.139 587.221ZM375.793 591.117C374.883 591.117 374.154 590.826 373.607 590.244C373.064 589.658 372.793 588.85 372.793 587.818C372.793 586.787 373.061 585.98 373.596 585.398C374.131 584.812 374.844 584.52 375.734 584.52C376.637 584.52 377.352 584.824 377.879 585.434C378.406 586.039 378.67 586.734 378.67 587.52L378.611 588.182H373.982C374.014 588.775 374.193 589.234 374.521 589.559C374.85 589.879 375.273 590.039 375.793 590.039C376.449 590.039 376.949 589.779 377.293 589.26H378.553C378.338 589.818 377.99 590.268 377.51 590.607C377.029 590.947 376.457 591.117 375.793 591.117ZM373.982 587.221H377.498C377.428 586.709 377.236 586.311 376.924 586.025C376.611 585.74 376.215 585.598 375.734 585.598C375.254 585.598 374.857 585.74 374.545 586.025C374.232 586.311 374.045 586.709 373.982 587.221ZM382.572 591L382.572 584.643H383.475L383.65 585.48H383.715C384.121 584.84 384.66 584.52 385.332 584.52C385.766 584.52 386.135 584.625 386.439 584.836C386.748 585.043 386.979 585.318 387.131 585.662H387.195C387.379 585.318 387.643 585.043 387.986 584.836C388.33 584.625 388.727 584.52 389.176 584.52C389.824 584.52 390.355 584.752 390.77 585.217C391.184 585.682 391.391 586.309 391.391 587.098L391.391 591H390.254L390.254 587.162C390.254 586.666 390.133 586.281 389.891 586.008C389.652 585.734 389.334 585.598 388.936 585.598C388.561 585.598 388.236 585.742 387.963 586.031C387.689 586.32 387.553 586.697 387.553 587.162L387.553 591H386.41L386.41 587.162C386.41 586.666 386.291 586.281 386.053 586.008C385.814 585.734 385.494 585.598 385.092 585.598C384.717 585.598 384.393 585.742 384.119 586.031C383.85 586.32 383.715 586.697 383.715 587.162L383.715 591H382.572ZM397.672 590.244C397.137 590.826 396.424 591.117 395.533 591.117C394.646 591.117 393.936 590.826 393.4 590.244C392.865 589.658 392.598 588.85 392.598 587.818C392.598 586.787 392.865 585.98 393.4 585.398C393.936 584.812 394.646 584.52 395.533 584.52C396.424 584.52 397.137 584.812 397.672 585.398C398.207 585.98 398.475 586.787 398.475 587.818C398.475 588.85 398.207 589.658 397.672 590.244ZM394.232 589.471C394.564 589.85 394.998 590.039 395.533 590.039C396.072 590.039 396.508 589.85 396.84 589.471C397.172 589.092 397.338 588.543 397.338 587.824C397.338 587.102 397.172 586.551 396.84 586.172C396.508 585.789 396.072 585.598 395.533 585.598C394.998 585.598 394.564 585.789 394.232 586.172C393.9 586.551 393.734 587.102 393.734 587.824C393.734 588.543 393.9 589.092 394.232 589.471ZM399.74 591L399.74 584.643H400.643L400.818 585.48H400.883C401.219 584.922 401.758 584.643 402.5 584.643H403.221L403.221 585.721H402.559C402.055 585.721 401.648 585.867 401.34 586.16C401.035 586.449 400.883 586.822 400.883 587.279L400.883 591H399.74ZM406.637 591.117C405.727 591.117 404.998 590.826 404.451 590.244C403.908 589.658 403.637 588.85 403.637 587.818C403.637 586.787 403.904 585.98 404.439 585.398C404.975 584.812 405.688 584.52 406.578 584.52C407.48 584.52 408.195 584.824 408.723 585.434C409.25 586.039 409.514 586.734 409.514 587.52L409.455 588.182H404.826C404.857 588.775 405.037 589.234 405.365 589.559C405.693 589.879 406.117 590.039 406.637 590.039C407.293 590.039 407.793 589.779 408.137 589.26H409.396C409.182 589.818 408.834 590.268 408.354 590.607C407.873 590.947 407.301 591.117 406.637 591.117ZM404.826 587.221H408.342C408.271 586.709 408.08 586.311 407.768 586.025C407.455 585.74 407.059 585.598 406.578 585.598C406.098 585.598 405.701 585.74 405.389 586.025C405.076 586.311 404.889 586.709 404.826 587.221Z" fill="#345995"/>
<path d="M80.8711 591.117C80 591.117 79.2813 590.906 78.7148 590.484C78.1523 590.059 77.8105 589.471 77.6895 588.721H78.9492C79.1875 589.561 79.8281 589.98 80.8711 589.98C81.4805 589.98 81.9434 589.863 82.2598 589.629C82.5762 589.391 82.7344 589.068 82.7344 588.662C82.7344 588.396 82.6445 588.176 82.4648 588C82.2891 587.824 82.0586 587.693 81.7734 587.607C81.4922 587.518 81.1816 587.438 80.8418 587.367C80.502 587.293 80.1621 587.203 79.8223 587.098C79.4824 586.988 79.1699 586.852 78.8848 586.688C78.6035 586.523 78.373 586.283 78.1934 585.967C78.0176 585.65 77.9297 585.268 77.9297 584.818C77.9297 584.123 78.1953 583.561 78.7266 583.131C79.2617 582.697 79.9766 582.48 80.8711 582.48C81.6953 582.48 82.3633 582.674 82.875 583.061C83.3867 583.443 83.7188 583.971 83.8711 584.643H82.6113C82.3379 583.963 81.7578 583.621 80.8711 583.617C80.3516 583.617 79.9414 583.732 79.6406 583.963C79.3398 584.189 79.1895 584.475 79.1895 584.818C79.1895 585.1 79.2793 585.334 79.459 585.521C79.6426 585.709 79.875 585.854 80.1563 585.955C80.4414 586.053 80.7578 586.143 81.1055 586.225C81.4531 586.303 81.7988 586.396 82.1426 586.506C82.4863 586.615 82.8008 586.748 83.0859 586.904C83.3711 587.061 83.6035 587.287 83.7832 587.584C83.9629 587.877 84.0527 588.236 84.0527 588.662C84.0527 589.35 83.7676 589.932 83.1973 590.408C82.6309 590.881 81.8555 591.117 80.8711 591.117ZM87.9492 591.117C87.0391 591.117 86.3105 590.826 85.7637 590.244C85.2207 589.658 84.9492 588.85 84.9492 587.818C84.9492 586.787 85.2168 585.98 85.752 585.398C86.2871 584.812 87 584.52 87.8906 584.52C88.793 584.52 89.5078 584.824 90.0352 585.434C90.5625 586.039 90.8262 586.734 90.8262 587.52L90.7676 588.182H86.1387C86.1699 588.775 86.3496 589.234 86.6777 589.559C87.0059 589.879 87.4297 590.039 87.9492 590.039C88.6055 590.039 89.1055 589.779 89.4492 589.26H90.709C90.4941 589.818 90.1465 590.268 89.666 590.607C89.1855 590.947 88.6133 591.117 87.9492 591.117ZM86.1387 587.221H89.6543C89.584 586.709 89.3926 586.311 89.0801 586.025C88.7676 585.74 88.3711 585.598 87.8906 585.598C87.4102 585.598 87.0137 585.74 86.7012 586.025C86.3887 586.311 86.2012 586.709 86.1387 587.221ZM94.793 591.117C93.8828 591.117 93.1543 590.826 92.6074 590.244C92.0645 589.658 91.793 588.85 91.793 587.818C91.793 586.787 92.0605 585.98 92.5957 585.398C93.1309 584.812 93.8438 584.52 94.7344 584.52C95.6367 584.52 96.3516 584.824 96.8789 585.434C97.4063 586.039 97.6699 586.734 97.6699 587.52L97.6113 588.182H92.9824C93.0137 588.775 93.1934 589.234 93.5215 589.559C93.8496 589.879 94.2734 590.039 94.793 590.039C95.4492 590.039 95.9492 589.779 96.293 589.26H97.5527C97.3379 589.818 96.9902 590.268 96.5098 590.607C96.0293 590.947 95.457 591.117 94.793 591.117ZM92.9824 587.221H96.498C96.4277 586.709 96.2363 586.311 95.9238 586.025C95.6113 585.74 95.2148 585.598 94.7344 585.598C94.2539 585.598 93.8574 585.74 93.5449 586.025C93.2324 586.311 93.0449 586.709 92.9824 587.221ZM101.572 591L101.572 584.643H102.475L102.65 585.48H102.715C103.121 584.84 103.66 584.52 104.332 584.52C104.766 584.52 105.135 584.625 105.439 584.836C105.748 585.043 105.979 585.318 106.131 585.662H106.195C106.379 585.318 106.643 585.043 106.986 584.836C107.33 584.625 107.727 584.52 108.176 584.52C108.824 584.52 109.355 584.752 109.77 585.217C110.184 585.682 110.391 586.309 110.391 587.098L110.391 591H109.254L109.254 587.162C109.254 586.666 109.133 586.281 108.891 586.008C108.652 585.734 108.334 585.598 107.936 585.598C107.561 585.598 107.236 585.742 106.963 586.031C106.689 586.32 106.553 586.697 106.553 587.162L106.553 591H105.41L105.41 587.162C105.41 586.666 105.291 586.281 105.053 586.008C104.814 585.734 104.494 585.598 104.092 585.598C103.717 585.598 103.393 585.742 103.119 586.031C102.85 586.32 102.715 586.697 102.715 587.162L102.715 591H101.572ZM116.672 590.244C116.137 590.826 115.424 591.117 114.533 591.117C113.646 591.117 112.936 590.826 112.4 590.244C111.865 589.658 111.598 588.85 111.598 587.818C111.598 586.787 111.865 585.98 112.4 585.398C112.936 584.812 113.646 584.52 114.533 584.52C115.424 584.52 116.137 584.812 116.672 585.398C117.207 585.98 117.475 586.787 117.475 587.818C117.475 588.85 117.207 589.658 116.672 590.244ZM113.232 589.471C113.564 589.85 113.998 590.039 114.533 590.039C115.072 590.039 115.508 589.85 115.84 589.471C116.172 589.092 116.338 588.543 116.338 587.824C116.338 587.102 116.172 586.551 115.84 586.172C115.508 585.789 115.072 585.598 114.533 585.598C113.998 585.598 113.564 585.789 113.232 586.172C112.9 586.551 112.734 587.102 112.734 587.824C112.734 588.543 112.9 589.092 113.232 589.471ZM118.74 591L118.74 584.643H119.643L119.818 585.48H119.883C120.219 584.922 120.758 584.643 121.5 584.643H122.221L122.221 585.721H121.559C121.055 585.721 120.648 585.867 120.34 586.16C120.035 586.449 119.883 586.822 119.883 587.279L119.883 591H118.74ZM125.637 591.117C124.727 591.117 123.998 590.826 123.451 590.244C122.908 589.658 122.637 588.85 122.637 587.818C122.637 586.787 122.904 585.98 123.439 585.398C123.975 584.812 124.688 584.52 125.578 584.52C126.48 584.52 127.195 584.824 127.723 585.434C128.25 586.039 128.514 586.734 128.514 587.52L128.455 588.182H123.826C123.857 588.775 124.037 589.234 124.365 589.559C124.693 589.879 125.117 590.039 125.637 590.039C126.293 590.039 126.793 589.779 127.137 589.26H128.396C128.182 589.818 127.834 590.268 127.354 590.607C126.873 590.947 126.301 591.117 125.637 591.117ZM123.826 587.221H127.342C127.271 586.709 127.08 586.311 126.768 586.025C126.455 585.74 126.059 585.598 125.578 585.598C125.098 585.598 124.701 585.74 124.389 586.025C124.076 586.311 123.889 586.709 123.826 587.221Z" fill="#345995"/>
<path d="M221.871 591.117C221 591.117 220.281 590.906 219.715 590.484C219.152 590.059 218.811 589.471 218.689 588.721H219.949C220.188 589.561 220.828 589.98 221.871 589.98C222.48 589.98 222.943 589.863 223.26 589.629C223.576 589.391 223.734 589.068 223.734 588.662C223.734 588.396 223.645 588.176 223.465 588C223.289 587.824 223.059 587.693 222.773 587.607C222.492 587.518 222.182 587.438 221.842 587.367C221.502 587.293 221.162 587.203 220.822 587.098C220.482 586.988 220.17 586.852 219.885 586.688C219.604 586.523 219.373 586.283 219.193 585.967C219.018 585.65 218.93 585.268 218.93 584.818C218.93 584.123 219.195 583.561 219.727 583.131C220.262 582.697 220.977 582.48 221.871 582.48C222.695 582.48 223.363 582.674 223.875 583.061C224.387 583.443 224.719 583.971 224.871 584.643H223.611C223.338 583.963 222.758 583.621 221.871 583.617C221.352 583.617 220.941 583.732 220.641 583.963C220.34 584.189 220.189 584.475 220.189 584.818C220.189 585.1 220.279 585.334 220.459 585.521C220.643 585.709 220.875 585.854 221.156 585.955C221.441 586.053 221.758 586.143 222.105 586.225C222.453 586.303 222.799 586.396 223.143 586.506C223.486 586.615 223.801 586.748 224.086 586.904C224.371 587.061 224.604 587.287 224.783 587.584C224.963 587.877 225.053 588.236 225.053 588.662C225.053 589.35 224.768 589.932 224.197 590.408C223.631 590.881 222.855 591.117 221.871 591.117ZM228.949 591.117C228.039 591.117 227.311 590.826 226.764 590.244C226.221 589.658 225.949 588.85 225.949 587.818C225.949 586.787 226.217 585.98 226.752 585.398C227.287 584.812 228 584.52 228.891 584.52C229.793 584.52 230.508 584.824 231.035 585.434C231.563 586.039 231.826 586.734 231.826 587.52L231.768 588.182H227.139C227.17 588.775 227.35 589.234 227.678 589.559C228.006 589.879 228.43 590.039 228.949 590.039C229.605 590.039 230.105 589.779 230.449 589.26H231.709C231.494 589.818 231.146 590.268 230.666 590.607C230.186 590.947 229.613 591.117 228.949 591.117ZM227.139 587.221H230.654C230.584 586.709 230.393 586.311 230.08 586.025C229.768 585.74 229.371 585.598 228.891 585.598C228.41 585.598 228.014 585.74 227.701 586.025C227.389 586.311 227.201 586.709 227.139 587.221ZM235.793 591.117C234.883 591.117 234.154 590.826 233.607 590.244C233.064 589.658 232.793 588.85 232.793 587.818C232.793 586.787 233.061 585.98 233.596 585.398C234.131 584.812 234.844 584.52 235.734 584.52C236.637 584.52 237.352 584.824 237.879 585.434C238.406 586.039 238.67 586.734 238.67 587.52L238.611 588.182H233.982C234.014 588.775 234.193 589.234 234.521 589.559C234.85 589.879 235.273 590.039 235.793 590.039C236.449 590.039 236.949 589.779 237.293 589.26H238.553C238.338 589.818 237.99 590.268 237.51 590.607C237.029 590.947 236.457 591.117 235.793 591.117ZM233.982 587.221H237.498C237.428 586.709 237.236 586.311 236.924 586.025C236.611 585.74 236.215 585.598 235.734 585.598C235.254 585.598 234.857 585.74 234.545 586.025C234.232 586.311 234.045 586.709 233.982 587.221ZM242.572 591L242.572 584.643H243.475L243.65 585.48H243.715C244.121 584.84 244.66 584.52 245.332 584.52C245.766 584.52 246.135 584.625 246.439 584.836C246.748 585.043 246.979 585.318 247.131 585.662H247.195C247.379 585.318 247.643 585.043 247.986 584.836C248.33 584.625 248.727 584.52 249.176 584.52C249.824 584.52 250.355 584.752 250.77 585.217C251.184 585.682 251.391 586.309 251.391 587.098L251.391 591H250.254L250.254 587.162C250.254 586.666 250.133 586.281 249.891 586.008C249.652 585.734 249.334 585.598 248.936 585.598C248.561 585.598 248.236 585.742 247.963 586.031C247.689 586.32 247.553 586.697 247.553 587.162L247.553 591H246.41L246.41 587.162C246.41 586.666 246.291 586.281 246.053 586.008C245.814 585.734 245.494 585.598 245.092 585.598C244.717 585.598 244.393 585.742 244.119 586.031C243.85 586.32 243.715 586.697 243.715 587.162L243.715 591H242.572ZM257.672 590.244C257.137 590.826 256.424 591.117 255.533 591.117C254.646 591.117 253.936 590.826 253.4 590.244C252.865 589.658 252.598 588.85 252.598 587.818C252.598 586.787 252.865 585.98 253.4 585.398C253.936 584.812 254.646 584.52 255.533 584.52C256.424 584.52 257.137 584.812 257.672 585.398C258.207 585.98 258.475 586.787 258.475 587.818C258.475 588.85 258.207 589.658 257.672 590.244ZM254.232 589.471C254.564 589.85 254.998 590.039 255.533 590.039C256.072 590.039 256.508 589.85 256.84 589.471C257.172 589.092 257.338 588.543 257.338 587.824C257.338 587.102 257.172 586.551 256.84 586.172C256.508 585.789 256.072 585.598 255.533 585.598C254.998 585.598 254.564 585.789 254.232 586.172C253.9 586.551 253.734 587.102 253.734 587.824C253.734 588.543 253.9 589.092 254.232 589.471ZM259.74 591L259.74 584.643H260.643L260.818 585.48H260.883C261.219 584.922 261.758 584.643 262.5 584.643H263.221L263.221 585.721H262.559C262.055 585.721 261.648 585.867 261.34 586.16C261.035 586.449 260.883 586.822 260.883 587.279L260.883 591H259.74ZM266.637 591.117C265.727 591.117 264.998 590.826 264.451 590.244C263.908 589.658 263.637 588.85 263.637 587.818C263.637 586.787 263.904 585.98 264.439 585.398C264.975 584.812 265.688 584.52 266.578 584.52C267.48 584.52 268.195 584.824 268.723 585.434C269.25 586.039 269.514 586.734 269.514 587.52L269.455 588.182H264.826C264.857 588.775 265.037 589.234 265.365 589.559C265.693 589.879 266.117 590.039 266.637 590.039C267.293 590.039 267.793 589.779 268.137 589.26H269.396C269.182 589.818 268.834 590.268 268.354 590.607C267.873 590.947 267.301 591.117 266.637 591.117ZM264.826 587.221H268.342C268.271 586.709 268.08 586.311 267.768 586.025C267.455 585.74 267.059 585.598 266.578 585.598C266.098 585.598 265.701 585.74 265.389 586.025C265.076 586.311 264.889 586.709 264.826 587.221Z" fill="#345995"/>
<rect x="65" y="465" width="75" height="75" rx="10" fill="#345995"/>
<path d="M103.562 482.438C103.423 482.299 103.257 482.188 103.075 482.112C102.893 482.036 102.697 481.998 102.5 481.998C102.303 481.998 102.107 482.036 101.925 482.112C101.743 482.188 101.577 482.299 101.438 482.438L83.438 500.438C83.2988 500.578 83.1885 500.743 83.1133 500.926C83.0382 501.108 82.9997 501.303 83 501.5L83 522.5C83 522.898 83.158 523.28 83.4393 523.561C83.7206 523.842 84.1022 524 84.5 524H98C98.3978 524 98.7794 523.842 99.0607 523.561C99.342 523.28 99.5 522.898 99.5 522.5L99.5 510.5H105.5L105.5 522.5C105.5 522.898 105.658 523.28 105.939 523.561C106.221 523.842 106.602 524 107 524H120.5C120.898 524 121.279 523.842 121.561 523.561C121.842 523.28 122 522.898 122 522.5L122 501.5C122 501.303 121.962 501.108 121.887 500.926C121.812 500.743 121.701 500.578 121.562 500.438L117.5 496.379L117.5 486.5C117.5 486.102 117.342 485.721 117.061 485.44C116.779 485.158 116.398 485 116 485H113C112.602 485 112.221 485.158 111.939 485.44C111.658 485.721 111.5 486.102 111.5 486.5L111.5 490.379L103.562 482.438ZM86 521L86 502.121L102.5 485.621L119 502.121L119 521H108.5L108.5 509C108.5 508.602 108.342 508.221 108.061 507.94C107.779 507.658 107.398 507.5 107 507.5H98C97.6022 507.5 97.2206 507.658 96.9393 507.94C96.658 508.221 96.5 508.602 96.5 509L96.5 521H86Z" fill="white"/>
<path d="M80.0981 567.111L74.3255 560.418C74.1602 560.226 73.8421 560.226 73.6751 560.418L67.9024 567.111C67.6879 567.361 67.8813 567.727 68.2276 567.727H79.7729C80.1192 567.727 80.3126 567.361 80.0981 567.111Z" fill="black"/>
<path d="M95.9053 571V568.029H89.876V566.676L95.2725 558.396H97.4346V566.676H99.0518V568.029H97.4346V571H95.9053ZM91.4932 566.676H95.9053V560.022H95.8174L91.4932 566.676ZM102.172 570.798C101.973 570.991 101.741 571.088 101.478 571.088C101.214 571.088 100.982 570.991 100.783 570.798C100.59 570.599 100.493 570.367 100.493 570.104C100.493 569.84 100.59 569.608 100.783 569.409C100.982 569.21 101.214 569.11 101.478 569.11C101.741 569.11 101.973 569.21 102.172 569.409C102.371 569.608 102.471 569.84 102.471 570.104C102.471 570.367 102.371 570.599 102.172 570.798ZM106.742 569.172C107.252 569.611 107.926 569.831 108.764 569.831C109.607 569.831 110.284 569.611 110.794 569.172C111.304 568.732 111.559 568.173 111.559 567.493C111.559 566.808 111.304 566.245 110.794 565.806C110.284 565.366 109.607 565.146 108.764 565.146C107.926 565.146 107.252 565.366 106.742 565.806C106.232 566.245 105.978 566.808 105.978 567.493C105.978 568.173 106.232 568.732 106.742 569.172ZM111.91 570.139C111.131 570.83 110.082 571.176 108.764 571.176C107.445 571.176 106.396 570.83 105.617 570.139C104.838 569.441 104.448 568.56 104.448 567.493C104.448 566.843 104.647 566.245 105.046 565.7C105.45 565.155 105.939 564.763 106.514 564.522C106.01 564.271 105.582 563.901 105.23 563.415C104.885 562.929 104.712 562.366 104.712 561.728C104.712 560.708 105.078 559.87 105.811 559.214C106.543 558.552 107.527 558.221 108.764 558.221C110 558.221 110.984 558.552 111.717 559.214C112.449 559.87 112.815 560.708 112.815 561.728C112.815 562.366 112.64 562.929 112.288 563.415C111.942 563.901 111.518 564.271 111.014 564.522C111.588 564.763 112.077 565.155 112.481 565.7C112.886 566.245 113.088 566.843 113.088 567.493C113.088 568.56 112.695 569.441 111.91 570.139ZM106.936 563.292C107.398 563.69 108.008 563.89 108.764 563.89C109.52 563.89 110.129 563.69 110.592 563.292C111.055 562.888 111.286 562.369 111.286 561.736C111.286 561.098 111.055 560.579 110.592 560.181C110.129 559.776 109.52 559.574 108.764 559.574C108.008 559.574 107.398 559.776 106.936 560.181C106.473 560.579 106.241 561.098 106.241 561.736C106.241 562.369 106.473 562.888 106.936 563.292ZM116.05 571L123.881 558.396H125.498L117.676 571H116.05ZM126.078 570.402C125.562 570.918 124.889 571.176 124.057 571.176C123.23 571.176 122.56 570.918 122.044 570.402C121.528 569.887 121.271 569.187 121.271 568.302C121.271 567.411 121.528 566.708 122.044 566.192C122.56 565.677 123.23 565.419 124.057 565.419C124.889 565.419 125.562 565.677 126.078 566.192C126.594 566.708 126.852 567.411 126.852 568.302C126.852 569.187 126.594 569.887 126.078 570.402ZM122.958 569.55C123.239 569.854 123.605 570.007 124.057 570.007C124.514 570.007 124.883 569.854 125.164 569.55C125.451 569.245 125.595 568.829 125.595 568.302C125.595 567.774 125.451 567.358 125.164 567.054C124.883 566.743 124.514 566.588 124.057 566.588C123.605 566.588 123.239 566.743 122.958 567.054C122.677 567.358 122.536 567.774 122.536 568.302C122.536 568.829 122.677 569.245 122.958 569.55ZM119.504 563.204C118.988 563.72 118.317 563.978 117.491 563.978C116.665 563.978 115.994 563.72 115.479 563.204C114.963 562.688 114.705 561.988 114.705 561.104C114.705 560.213 114.963 559.51 115.479 558.994C115.994 558.479 116.665 558.221 117.491 558.221C118.317 558.221 118.988 558.479 119.504 558.994C120.025 559.51 120.286 560.213 120.286 561.104C120.286 561.988 120.025 562.688 119.504 563.204ZM116.384 562.352C116.665 562.656 117.034 562.809 117.491 562.809C117.948 562.809 118.317 562.656 118.599 562.352C118.88 562.047 119.021 561.631 119.021 561.104C119.021 560.57 118.88 560.151 118.599 559.847C118.317 559.542 117.948 559.39 117.491 559.39C117.034 559.39 116.665 559.542 116.384 559.847C116.103 560.151 115.962 560.57 115.962 561.104C115.962 561.631 116.103 562.047 116.384 562.352Z" fill="#2C5EA8"/>
<path d="M209.902 560.889L215.675 567.582C215.84 567.774 216.158 567.774 216.325 567.582L222.098 560.889C222.312 560.639 222.119 560.273 221.772 560.273H210.227C209.881 560.273 209.687 560.639 209.902 560.889Z" fill="black"/>
<path d="M237.453 569.506C236.51 570.619 235.271 571.176 233.735 571.176C232.2 571.176 230.961 570.619 230.018 569.506C229.074 568.393 228.603 566.793 228.603 564.707C228.603 562.615 229.074 561.013 230.018 559.899C230.961 558.78 232.2 558.221 233.735 558.221C235.271 558.221 236.51 558.78 237.453 559.899C238.396 561.013 238.868 562.615 238.868 564.707C238.868 566.793 238.396 568.393 237.453 569.506ZM231.143 568.53C231.816 569.397 232.681 569.831 233.735 569.831C234.79 569.831 235.654 569.397 236.328 568.53C237.002 567.657 237.339 566.38 237.339 564.698C237.339 563.017 237.002 561.742 236.328 560.875C235.654 560.008 234.79 559.574 233.735 559.574C232.681 559.574 231.816 560.008 231.143 560.875C230.469 561.742 230.132 563.017 230.132 564.698C230.132 566.38 230.469 567.657 231.143 568.53ZM241.892 570.798C241.692 570.991 241.461 571.088 241.197 571.088C240.934 571.088 240.702 570.991 240.503 570.798C240.31 570.599 240.213 570.367 240.213 570.104C240.213 569.84 240.31 569.608 240.503 569.409C240.702 569.21 240.934 569.11 241.197 569.11C241.461 569.11 241.692 569.21 241.892 569.409C242.091 569.608 242.19 569.84 242.19 570.104C242.19 570.367 242.091 570.599 241.892 570.798ZM248.123 571.176C246.969 571.176 245.993 570.868 245.196 570.253C244.399 569.638 243.937 568.776 243.808 567.669H245.337C245.419 568.29 245.724 568.806 246.251 569.216C246.778 569.626 247.402 569.831 248.123 569.831C249.002 569.831 249.688 569.617 250.18 569.189C250.672 568.762 250.918 568.226 250.918 567.581C250.918 566.931 250.672 566.395 250.18 565.973C249.688 565.545 249.002 565.331 248.123 565.331H247.227V564.074H248.123C248.949 564.074 249.591 563.863 250.048 563.441C250.505 563.02 250.733 562.48 250.733 561.824C250.733 561.162 250.505 560.623 250.048 560.207C249.597 559.785 248.955 559.574 248.123 559.574C247.449 559.574 246.869 559.776 246.383 560.181C245.902 560.579 245.612 561.095 245.513 561.728H243.983C244.165 560.626 244.628 559.768 245.372 559.152C246.116 558.531 247.033 558.221 248.123 558.221C249.406 558.221 250.417 558.558 251.155 559.231C251.894 559.899 252.263 560.764 252.263 561.824C252.263 563.242 251.633 564.171 250.373 564.61C251.035 564.827 251.545 565.202 251.902 565.735C252.266 566.269 252.447 566.884 252.447 567.581C252.447 568.612 252.061 569.471 251.287 570.156C250.52 570.836 249.465 571.176 248.123 571.176ZM256.569 569.075C257.097 569.579 257.791 569.831 258.652 569.831C259.52 569.831 260.217 569.579 260.744 569.075C261.277 568.571 261.544 567.895 261.544 567.045C261.544 566.189 261.277 565.51 260.744 565.006C260.217 564.502 259.52 564.25 258.652 564.25C257.791 564.25 257.097 564.502 256.569 565.006C256.042 565.51 255.778 566.189 255.778 567.045C255.778 567.895 256.042 568.571 256.569 569.075ZM258.661 571.176C257.319 571.176 256.247 570.78 255.444 569.989C254.647 569.198 254.249 568.126 254.249 566.772C254.249 565.595 254.671 564.335 255.515 562.993L258.389 558.396H260.103L256.771 563.529H256.859C257.363 563.107 258.022 562.896 258.837 562.896C260.097 562.896 261.116 563.283 261.896 564.057C262.681 564.824 263.073 565.817 263.073 567.036C263.073 568.226 262.666 569.213 261.852 569.998C261.043 570.783 259.979 571.176 258.661 571.176ZM265.859 571L273.69 558.396H275.308L267.485 571H265.859ZM275.888 570.402C275.372 570.918 274.698 571.176 273.866 571.176C273.04 571.176 272.369 570.918 271.854 570.402C271.338 569.887 271.08 569.187 271.08 568.302C271.08 567.411 271.338 566.708 271.854 566.192C272.369 565.677 273.04 565.419 273.866 565.419C274.698 565.419 275.372 565.677 275.888 566.192C276.403 566.708 276.661 567.411 276.661 568.302C276.661 569.187 276.403 569.887 275.888 570.402ZM272.768 569.55C273.049 569.854 273.415 570.007 273.866 570.007C274.323 570.007 274.692 569.854 274.974 569.55C275.261 569.245 275.404 568.829 275.404 568.302C275.404 567.774 275.261 567.358 274.974 567.054C274.692 566.743 274.323 566.588 273.866 566.588C273.415 566.588 273.049 566.743 272.768 567.054C272.486 567.358 272.346 567.774 272.346 568.302C272.346 568.829 272.486 569.245 272.768 569.55ZM269.313 563.204C268.798 563.72 268.127 563.978 267.301 563.978C266.475 563.978 265.804 563.72 265.288 563.204C264.772 562.688 264.515 561.988 264.515 561.104C264.515 560.213 264.772 559.51 265.288 558.994C265.804 558.479 266.475 558.221 267.301 558.221C268.127 558.221 268.798 558.479 269.313 558.994C269.835 559.51 270.096 560.213 270.096 561.104C270.096 561.988 269.835 562.688 269.313 563.204ZM266.193 562.352C266.475 562.656 266.844 562.809 267.301 562.809C267.758 562.809 268.127 562.656 268.408 562.352C268.689 562.047 268.83 561.631 268.83 561.104C268.83 560.57 268.689 560.151 268.408 559.847C268.127 559.542 267.758 559.39 267.301 559.39C266.844 559.39 266.475 559.542 266.193 559.847C265.912 560.151 265.771 560.57 265.771 561.104C265.771 561.631 265.912 562.047 266.193 562.352Z" fill="#2C5EA8"/>
<path d="M364.098 567.111L358.325 560.418C358.16 560.226 357.842 560.226 357.675 560.418L351.902 567.111C351.688 567.361 351.881 567.727 352.228 567.727H363.773C364.119 567.727 364.313 567.361 364.098 567.111Z" fill="black"/>
<path d="M379.721 571V561.367H377.286V560.022H379C379.48 560.022 379.721 559.782 379.721 559.302V558.396H381.25V571H379.721ZM392.526 569.506C391.583 570.619 390.344 571.176 388.809 571.176C387.273 571.176 386.034 570.619 385.091 569.506C384.147 568.393 383.676 566.793 383.676 564.707C383.676 562.615 384.147 561.013 385.091 559.899C386.034 558.78 387.273 558.221 388.809 558.221C390.344 558.221 391.583 558.78 392.526 559.899C393.47 561.013 393.941 562.615 393.941 564.707C393.941 566.793 393.47 568.393 392.526 569.506ZM386.216 568.53C386.89 569.397 387.754 569.831 388.809 569.831C389.863 569.831 390.728 569.397 391.401 568.53C392.075 567.657 392.412 566.38 392.412 564.698C392.412 563.017 392.075 561.742 391.401 560.875C390.728 560.008 389.863 559.574 388.809 559.574C387.754 559.574 386.89 560.008 386.216 560.875C385.542 561.742 385.205 563.017 385.205 564.698C385.205 566.38 385.542 567.657 386.216 568.53ZM396.815 571L404.646 558.396H406.264L398.441 571H396.815ZM406.844 570.402C406.328 570.918 405.654 571.176 404.822 571.176C403.996 571.176 403.325 570.918 402.81 570.402C402.294 569.887 402.036 569.187 402.036 568.302C402.036 567.411 402.294 566.708 402.81 566.192C403.325 565.677 403.996 565.419 404.822 565.419C405.654 565.419 406.328 565.677 406.844 566.192C407.359 566.708 407.617 567.411 407.617 568.302C407.617 569.187 407.359 569.887 406.844 570.402ZM403.724 569.55C404.005 569.854 404.371 570.007 404.822 570.007C405.279 570.007 405.648 569.854 405.93 569.55C406.217 569.245 406.36 568.829 406.36 568.302C406.36 567.774 406.217 567.358 405.93 567.054C405.648 566.743 405.279 566.588 404.822 566.588C404.371 566.588 404.005 566.743 403.724 567.054C403.442 567.358 403.302 567.774 403.302 568.302C403.302 568.829 403.442 569.245 403.724 569.55ZM400.27 563.204C399.754 563.72 399.083 563.978 398.257 563.978C397.431 563.978 396.76 563.72 396.244 563.204C395.729 562.688 395.471 561.988 395.471 561.104C395.471 560.213 395.729 559.51 396.244 558.994C396.76 558.479 397.431 558.221 398.257 558.221C399.083 558.221 399.754 558.479 400.27 558.994C400.791 559.51 401.052 560.213 401.052 561.104C401.052 561.988 400.791 562.688 400.27 563.204ZM397.149 562.352C397.431 562.656 397.8 562.809 398.257 562.809C398.714 562.809 399.083 562.656 399.364 562.352C399.646 562.047 399.786 561.631 399.786 561.104C399.786 560.57 399.646 560.151 399.364 559.847C399.083 559.542 398.714 559.39 398.257 559.39C397.8 559.39 397.431 559.542 397.149 559.847C396.868 560.151 396.728 560.57 396.728 561.104C396.728 561.631 396.868 562.047 397.149 562.352Z" fill="#2C5EA8"/>
<rect x="204" y="465" width="75" height="75" rx="10" fill="#348A95"/>
<path d="M259.875 514.015H223.125C222.919 514.015 222.75 514.184 222.75 514.39V517.015C222.75 517.222 222.919 517.39 223.125 517.39H259.875C260.081 517.39 260.25 517.222 260.25 517.015V514.39C260.25 514.184 260.081 514.015 259.875 514.015ZM225.267 508.147L227.128 509.998C227.273 510.144 227.512 510.144 227.658 509.998L238.659 499.034L243.234 503.595C243.516 503.874 243.897 504.031 244.294 504.031C244.691 504.031 245.071 503.874 245.353 503.595L257.738 491.258C257.883 491.112 257.883 490.873 257.738 490.728L255.877 488.872C255.806 488.802 255.711 488.763 255.612 488.763C255.513 488.763 255.417 488.802 255.347 488.872L244.298 499.887L239.719 495.326C239.437 495.047 239.056 494.89 238.659 494.89C238.263 494.89 237.882 495.047 237.6 495.326L225.267 507.617C225.232 507.652 225.204 507.693 225.185 507.738C225.166 507.784 225.156 507.833 225.156 507.882C225.156 507.931 225.166 507.98 225.185 508.025C225.204 508.071 225.232 508.112 225.267 508.147Z" fill="white"/>
<rect x="342" y="465" width="75" height="75" rx="10" fill="#953459"/>
<path d="M400.117 498.836L400.105 498.739C400.082 498.617 400.041 498.5 399.983 498.391L393.9 488.6C393.9 488.6 393.125 487.64 392.94 487.64H367.02L359.225 498.059L359.133 498.155L359.121 498.2C359.055 498.306 359.001 498.419 358.959 498.536L358.928 498.629C358.838 498.927 358.842 499.246 358.94 499.541L358.977 499.646C359.026 499.77 359.086 499.883 359.157 499.984L378.003 523.856L378.041 523.911C378.138 524.036 378.256 524.146 378.4 524.247L378.51 524.315C378.617 524.382 378.73 524.436 378.893 524.495L378.999 524.531C379.184 524.578 379.344 524.6 379.5 524.6C379.659 524.6 379.813 524.579 380.022 524.525L380.149 524.48C380.274 524.436 380.386 524.381 380.522 524.298L380.606 524.245C380.751 524.142 380.867 524.031 380.932 523.943L399.802 500.046C399.968 499.824 400.077 499.563 400.118 499.288L400.133 499.164L400.14 499.066L400.117 498.836ZM389.999 498.2L392.685 493.34L395.369 498.2H389.999ZM388.388 501.08H394.761L384.139 514.535L388.388 501.08ZM386.812 496.743L382.932 491.48H389.72L386.812 496.743ZM374.386 501.08H384.618L379.5 517.282L374.386 501.08ZM375.4 498.2L379.5 492.636L383.601 498.2H375.4ZM372.513 496.307L370.735 491.48H376.069L372.513 496.307ZM374.864 514.535L364.241 501.08H370.615L374.864 514.535ZM367.659 493.373L369.438 498.2H364.102L367.659 493.373Z" fill="white"/>
<path d="M68.7422 445V432.396H73.5146C74.751 432.396 75.7354 432.769 76.4678 433.513C77.2002 434.257 77.5664 435.206 77.5664 436.36C77.5664 437.515 77.2002 438.464 76.4678 439.208C75.7354 439.952 74.751 440.324 73.5146 440.324H70.2715V445H68.7422ZM70.2715 438.971H73.4268C74.2295 438.971 74.8652 438.73 75.334 438.25C75.8027 437.77 76.0371 437.14 76.0371 436.36C76.0371 435.581 75.8027 434.951 75.334 434.471C74.8652 433.99 74.2295 433.75 73.4268 433.75H70.2715V438.971ZM79.3506 445V435.64H80.4316L80.6162 436.896H80.7041C81.208 436.059 82.0488 435.64 83.2266 435.64H84.2109V436.896H83.2266C82.5059 436.896 81.9053 437.119 81.4248 437.564C80.9443 438.01 80.7041 438.569 80.7041 439.243V445H79.3506ZM92.3848 443.901C91.5938 444.751 90.5479 445.176 89.2471 445.176C87.9521 445.176 86.9092 444.751 86.1182 443.901C85.3271 443.052 84.9316 441.859 84.9316 440.324C84.9316 438.783 85.3271 437.588 86.1182 436.738C86.9092 435.889 87.9521 435.464 89.2471 435.464C90.5479 435.464 91.5938 435.889 92.3848 436.738C93.1758 437.588 93.5713 438.783 93.5713 440.324C93.5713 441.859 93.1758 443.052 92.3848 443.901ZM87.1025 442.979C87.6475 443.605 88.3623 443.919 89.2471 443.919C90.1377 443.919 90.8555 443.605 91.4004 442.979C91.9512 442.346 92.2266 441.461 92.2266 440.324C92.2266 439.182 91.9512 438.297 91.4004 437.67C90.8555 437.037 90.1377 436.721 89.2471 436.721C88.3623 436.721 87.6475 437.037 87.1025 437.67C86.5576 438.297 86.2852 439.182 86.2852 440.324C86.2852 441.461 86.5576 442.346 87.1025 442.979ZM95.6455 448.604V435.64H96.7266L96.9111 436.896H96.999C97.6729 435.936 98.6924 435.458 100.058 435.464C101.259 435.464 102.234 435.889 102.984 436.738C103.734 437.588 104.109 438.783 104.109 440.324C104.109 441.859 103.734 443.052 102.984 443.901C102.234 444.751 101.259 445.176 100.058 445.176C98.7744 445.176 97.7842 444.728 97.0869 443.831H96.999V448.604H95.6455ZM97.7812 442.987C98.3027 443.608 99 443.919 99.873 443.919C100.752 443.919 101.452 443.608 101.974 442.987C102.495 442.36 102.756 441.473 102.756 440.324C102.756 439.17 102.495 438.282 101.974 437.661C101.452 437.034 100.752 436.721 99.873 436.721C99 436.721 98.3027 437.034 97.7812 437.661C97.2598 438.282 96.999 439.17 96.999 440.324C96.999 441.473 97.2598 442.36 97.7812 442.987ZM110.051 445.176C108.756 445.176 107.71 444.751 106.913 443.901C106.122 443.052 105.727 441.859 105.727 440.324C105.727 438.783 106.119 437.588 106.904 436.738C107.689 435.889 108.706 435.464 109.954 435.464C110.64 435.464 111.261 435.599 111.817 435.868C112.38 436.138 112.828 436.489 113.162 436.923C113.496 437.351 113.751 437.811 113.927 438.303C114.103 438.795 114.19 439.287 114.19 439.779L114.094 440.676H107.08C107.127 441.719 107.423 442.521 107.968 443.084C108.513 443.641 109.207 443.919 110.051 443.919C111.129 443.919 111.938 443.471 112.477 442.574H113.918C113.607 443.412 113.112 444.057 112.433 444.508C111.759 444.953 110.965 445.176 110.051 445.176ZM107.08 439.507H112.837C112.755 438.628 112.45 437.945 111.923 437.459C111.396 436.967 110.739 436.721 109.954 436.721C109.175 436.721 108.521 436.967 107.994 437.459C107.467 437.945 107.162 438.628 107.08 439.507ZM116.247 445V435.64H117.328L117.513 436.896H117.601C118.104 436.059 118.945 435.64 120.123 435.64H121.107V436.896H120.123C119.402 436.896 118.802 437.119 118.321 437.564C117.841 438.01 117.601 438.569 117.601 439.243V445H116.247ZM125.616 445C124.942 445 124.383 444.777 123.938 444.332C123.498 443.887 123.278 443.33 123.278 442.662V436.896H121.837V435.64H123.278L123.463 433.117H124.632V435.64H127.058V436.896H124.632V442.662C124.632 442.973 124.731 443.23 124.931 443.436C125.136 443.641 125.396 443.743 125.713 443.743H127.058V445H125.616ZM130.134 448.604L131.575 445L127.699 435.64H129.141L132.199 443.11H132.287L135.258 435.64H136.699L131.575 448.604H130.134Z" fill="#2C5EA8"/>
<path d="M221.344 444.176C220.107 444.176 219.091 443.871 218.294 443.262C217.497 442.652 216.984 441.817 216.756 440.757H218.285C218.742 442.14 219.762 442.831 221.344 442.831C222.34 442.831 223.099 442.623 223.62 442.207C224.142 441.785 224.402 441.243 224.402 440.581C224.402 440.147 224.268 439.784 223.998 439.491C223.729 439.198 223.38 438.979 222.952 438.832C222.53 438.68 222.059 438.545 221.537 438.428C221.016 438.305 220.494 438.161 219.973 437.997C219.457 437.833 218.985 437.628 218.558 437.382C218.136 437.136 217.79 436.784 217.521 436.327C217.251 435.864 217.116 435.302 217.116 434.64C217.116 433.655 217.494 432.841 218.25 432.196C219.006 431.546 220.037 431.221 221.344 431.221C222.486 431.221 223.436 431.484 224.191 432.012C224.947 432.539 225.439 433.295 225.668 434.279H224.139C223.717 433.137 222.785 432.568 221.344 432.574C220.482 432.574 219.817 432.768 219.349 433.154C218.88 433.535 218.646 434.03 218.646 434.64C218.646 435.167 218.824 435.604 219.182 435.949C219.545 436.289 219.996 436.529 220.535 436.67C221.074 436.805 221.657 436.963 222.284 437.145C222.917 437.32 223.503 437.511 224.042 437.716C224.587 437.921 225.038 438.267 225.396 438.753C225.753 439.239 225.932 439.849 225.932 440.581C225.932 441.577 225.521 442.427 224.701 443.13C223.881 443.827 222.762 444.176 221.344 444.176ZM230.88 444C230.206 444 229.646 443.777 229.201 443.332C228.762 442.887 228.542 442.33 228.542 441.662V435.896H227.101V434.64H228.542L228.727 432.117H229.896V434.64H232.321V435.896H229.896V441.662C229.896 441.973 229.995 442.23 230.194 442.436C230.399 442.641 230.66 442.743 230.977 442.743H232.321V444H230.88ZM241.137 442.901C240.346 443.751 239.3 444.176 237.999 444.176C236.704 444.176 235.661 443.751 234.87 442.901C234.079 442.052 233.684 440.859 233.684 439.324C233.684 437.783 234.079 436.588 234.87 435.738C235.661 434.889 236.704 434.464 237.999 434.464C239.3 434.464 240.346 434.889 241.137 435.738C241.928 436.588 242.323 437.783 242.323 439.324C242.323 440.859 241.928 442.052 241.137 442.901ZM235.854 441.979C236.399 442.605 237.114 442.919 237.999 442.919C238.89 442.919 239.607 442.605 240.152 441.979C240.703 441.346 240.979 440.461 240.979 439.324C240.979 438.182 240.703 437.297 240.152 436.67C239.607 436.037 238.89 435.721 237.999 435.721C237.114 435.721 236.399 436.037 235.854 436.67C235.31 437.297 235.037 438.182 235.037 439.324C235.037 440.461 235.31 441.346 235.854 441.979ZM248.273 444.176C246.979 444.176 245.933 443.751 245.136 442.901C244.345 442.052 243.949 440.859 243.949 439.324C243.949 437.783 244.345 436.588 245.136 435.738C245.927 434.889 246.973 434.464 248.273 434.464C249.188 434.464 249.981 434.689 250.655 435.141C251.335 435.586 251.83 436.23 252.141 437.074H250.699C250.16 436.172 249.352 435.721 248.273 435.721C247.383 435.721 246.665 436.037 246.12 436.67C245.575 437.297 245.303 438.182 245.303 439.324C245.303 440.461 245.575 441.346 246.12 441.979C246.665 442.605 247.383 442.919 248.273 442.919C249.352 442.919 250.16 442.471 250.699 441.574H252.141C251.83 442.412 251.335 443.057 250.655 443.508C249.981 443.953 249.188 444.176 248.273 444.176ZM254.127 444V431.396H255.472V439.052L259.884 434.64H261.598L257.001 439.228L261.861 444H260.156L255.472 439.412V444H254.127ZM265.737 444.176C264.812 444.176 264.023 443.938 263.373 443.464C262.729 442.983 262.318 442.354 262.143 441.574H263.584C263.719 442.008 263.982 442.342 264.375 442.576C264.768 442.805 265.222 442.919 265.737 442.919C266.47 442.919 267.026 442.787 267.407 442.523C267.794 442.26 267.987 441.911 267.987 441.478C267.987 441.12 267.85 440.83 267.574 440.607C267.299 440.385 266.953 440.229 266.537 440.142C266.127 440.048 265.682 439.937 265.201 439.808C264.721 439.673 264.272 439.529 263.856 439.377C263.446 439.219 263.101 438.943 262.819 438.551C262.544 438.152 262.406 437.66 262.406 437.074C262.406 436.365 262.711 435.753 263.32 435.237C263.936 434.722 264.741 434.464 265.737 434.464C266.575 434.464 267.311 434.669 267.943 435.079C268.576 435.483 268.98 436.058 269.156 436.802H267.724C267.413 436.081 266.751 435.721 265.737 435.721C265.075 435.721 264.58 435.841 264.252 436.081C263.924 436.321 263.76 436.652 263.76 437.074C263.76 437.52 263.95 437.865 264.331 438.111C264.718 438.352 265.184 438.533 265.729 438.656C266.273 438.773 266.818 438.908 267.363 439.061C267.914 439.207 268.38 439.482 268.761 439.887C269.147 440.291 269.341 440.821 269.341 441.478C269.341 442.222 269.013 442.857 268.356 443.385C267.7 443.912 266.827 444.176 265.737 444.176Z" fill="#2C5EA8"/>
<path d="M320.194 445V432.396H324.967C326.203 432.396 327.188 432.769 327.92 433.513C328.652 434.257 329.019 435.206 329.019 436.36C329.019 437.515 328.652 438.464 327.92 439.208C327.188 439.952 326.203 440.324 324.967 440.324H321.724V445H320.194ZM321.724 438.971H324.879C325.682 438.971 326.317 438.73 326.786 438.25C327.255 437.77 327.489 437.14 327.489 436.36C327.489 435.581 327.255 434.951 326.786 434.471C326.317 433.99 325.682 433.75 324.879 433.75H321.724V438.971ZM330.803 445V435.64H331.884L332.068 436.896H332.156C332.66 436.059 333.501 435.64 334.679 435.64H335.663V436.896H334.679C333.958 436.896 333.357 437.119 332.877 437.564C332.396 438.01 332.156 438.569 332.156 439.243V445H330.803ZM340.708 445.176C339.413 445.176 338.367 444.751 337.57 443.901C336.779 443.052 336.384 441.859 336.384 440.324C336.384 438.783 336.776 437.588 337.562 436.738C338.347 435.889 339.363 435.464 340.611 435.464C341.297 435.464 341.918 435.599 342.475 435.868C343.037 436.138 343.485 436.489 343.819 436.923C344.153 437.351 344.408 437.811 344.584 438.303C344.76 438.795 344.848 439.287 344.848 439.779L344.751 440.676H337.737C337.784 441.719 338.08 442.521 338.625 443.084C339.17 443.641 339.864 443.919 340.708 443.919C341.786 443.919 342.595 443.471 343.134 442.574H344.575C344.265 443.412 343.77 444.057 343.09 444.508C342.416 444.953 341.622 445.176 340.708 445.176ZM337.737 439.507H343.494C343.412 438.628 343.107 437.945 342.58 437.459C342.053 436.967 341.396 436.721 340.611 436.721C339.832 436.721 339.179 436.967 338.651 437.459C338.124 437.945 337.819 438.628 337.737 439.507ZM350.78 445.176C349.485 445.176 348.439 444.751 347.643 443.901C346.852 443.052 346.456 441.859 346.456 440.324C346.456 438.783 346.852 437.588 347.643 436.738C348.434 435.889 349.479 435.464 350.78 435.464C351.694 435.464 352.488 435.689 353.162 436.141C353.842 436.586 354.337 437.23 354.647 438.074H353.206C352.667 437.172 351.858 436.721 350.78 436.721C349.89 436.721 349.172 437.037 348.627 437.67C348.082 438.297 347.81 439.182 347.81 440.324C347.81 441.461 348.082 442.346 348.627 442.979C349.172 443.605 349.89 443.919 350.78 443.919C351.858 443.919 352.667 443.471 353.206 442.574H354.647C354.337 443.412 353.842 444.057 353.162 444.508C352.488 444.953 351.694 445.176 350.78 445.176ZM356.537 445V435.64H357.891V445H356.537ZM357.891 434.014C357.709 434.195 357.486 434.286 357.223 434.286C356.959 434.286 356.733 434.198 356.546 434.022C356.364 433.841 356.273 433.618 356.273 433.354C356.273 433.091 356.364 432.865 356.546 432.678C356.733 432.49 356.959 432.396 357.223 432.396C357.486 432.396 357.709 432.49 357.891 432.678C358.072 432.865 358.163 433.091 358.163 433.354C358.163 433.606 358.072 433.826 357.891 434.014ZM367.409 443.901C366.618 444.751 365.572 445.176 364.271 445.176C362.977 445.176 361.934 444.751 361.143 443.901C360.352 443.052 359.956 441.859 359.956 440.324C359.956 438.783 360.352 437.588 361.143 436.738C361.934 435.889 362.977 435.464 364.271 435.464C365.572 435.464 366.618 435.889 367.409 436.738C368.2 437.588 368.596 438.783 368.596 440.324C368.596 441.859 368.2 443.052 367.409 443.901ZM362.127 442.979C362.672 443.605 363.387 443.919 364.271 443.919C365.162 443.919 365.88 443.605 366.425 442.979C366.976 442.346 367.251 441.461 367.251 440.324C367.251 439.182 366.976 438.297 366.425 437.67C365.88 437.037 365.162 436.721 364.271 436.721C363.387 436.721 362.672 437.037 362.127 437.67C361.582 438.297 361.31 439.182 361.31 440.324C361.31 441.461 361.582 442.346 362.127 442.979ZM374.186 445.176C373.178 445.176 372.34 444.833 371.672 444.147C371.004 443.456 370.67 442.539 370.67 441.396V435.64H372.023V441.396C372.023 442.188 372.237 442.806 372.665 443.251C373.099 443.696 373.664 443.919 374.361 443.919C375.07 443.919 375.668 443.67 376.154 443.172C376.641 442.674 376.884 442.082 376.884 441.396V435.64H378.237V445H377.156L376.972 443.743H376.884C376.321 444.698 375.422 445.176 374.186 445.176ZM383.713 445.176C382.787 445.176 381.999 444.938 381.349 444.464C380.704 443.983 380.294 443.354 380.118 442.574H381.56C381.694 443.008 381.958 443.342 382.351 443.576C382.743 443.805 383.197 443.919 383.713 443.919C384.445 443.919 385.002 443.787 385.383 443.523C385.77 443.26 385.963 442.911 385.963 442.478C385.963 442.12 385.825 441.83 385.55 441.607C385.274 441.385 384.929 441.229 384.513 441.142C384.103 441.048 383.657 440.937 383.177 440.808C382.696 440.673 382.248 440.529 381.832 440.377C381.422 440.219 381.076 439.943 380.795 439.551C380.52 439.152 380.382 438.66 380.382 438.074C380.382 437.365 380.687 436.753 381.296 436.237C381.911 435.722 382.717 435.464 383.713 435.464C384.551 435.464 385.286 435.669 385.919 436.079C386.552 436.483 386.956 437.058 387.132 437.802H385.699C385.389 437.081 384.727 436.721 383.713 436.721C383.051 436.721 382.556 436.841 382.228 437.081C381.899 437.321 381.735 437.652 381.735 438.074C381.735 438.52 381.926 438.865 382.307 439.111C382.693 439.352 383.159 439.533 383.704 439.656C384.249 439.773 384.794 439.908 385.339 440.061C385.89 440.207 386.355 440.482 386.736 440.887C387.123 441.291 387.316 441.821 387.316 442.478C387.316 443.222 386.988 443.857 386.332 444.385C385.676 444.912 384.803 445.176 383.713 445.176ZM393.425 445V432.396H395.859L399.639 442.75H399.727L403.506 432.396H405.932V445H404.402V434.286H404.314L400.359 445H399.006L395.042 434.286H394.954V445H393.425ZM412.603 445.176C411.308 445.176 410.262 444.751 409.465 443.901C408.674 443.052 408.278 441.859 408.278 440.324C408.278 438.783 408.671 437.588 409.456 436.738C410.241 435.889 411.258 435.464 412.506 435.464C413.191 435.464 413.812 435.599 414.369 435.868C414.932 436.138 415.38 436.489 415.714 436.923C416.048 437.351 416.303 437.811 416.479 438.303C416.654 438.795 416.742 439.287 416.742 439.779L416.646 440.676H409.632C409.679 441.719 409.975 442.521 410.52 443.084C411.064 443.641 411.759 443.919 412.603 443.919C413.681 443.919 414.489 443.471 415.028 442.574H416.47C416.159 443.412 415.664 444.057 414.984 444.508C414.311 444.953 413.517 445.176 412.603 445.176ZM409.632 439.507H415.389C415.307 438.628 415.002 437.945 414.475 437.459C413.947 436.967 413.291 436.721 412.506 436.721C411.727 436.721 411.073 436.967 410.546 437.459C410.019 437.945 409.714 438.628 409.632 439.507ZM421.77 445C421.096 445 420.536 444.777 420.091 444.332C419.651 443.887 419.432 443.33 419.432 442.662V436.896H417.99V435.64H419.432L419.616 433.117H420.785V435.64H423.211V436.896H420.785V442.662C420.785 442.973 420.885 443.23 421.084 443.436C421.289 443.641 421.55 443.743 421.866 443.743H423.211V445H421.77ZM427.904 443.919C428.783 443.919 429.48 443.67 429.996 443.172C430.518 442.674 430.778 442.053 430.778 441.309V440.676H428.168C427.459 440.676 426.923 440.822 426.56 441.115C426.196 441.402 426.015 441.798 426.015 442.302C426.015 442.794 426.182 443.187 426.516 443.479C426.855 443.772 427.318 443.919 427.904 443.919ZM427.904 445.176C426.932 445.176 426.146 444.903 425.549 444.358C424.957 443.813 424.661 443.128 424.661 442.302C424.661 441.464 424.972 440.775 425.593 440.236C426.22 439.691 427.078 439.419 428.168 439.419H430.778V438.786C430.778 438.165 430.57 437.667 430.154 437.292C429.744 436.911 429.202 436.721 428.528 436.721C427.386 436.721 426.665 437.172 426.366 438.074H424.934C425.15 437.236 425.575 436.592 426.208 436.141C426.847 435.689 427.62 435.464 428.528 435.464C429.642 435.464 430.521 435.766 431.165 436.369C431.81 436.973 432.132 437.778 432.132 438.786V445H431.051L430.866 443.743H430.778C430.573 444.101 430.207 444.429 429.68 444.728C429.158 445.026 428.566 445.176 427.904 445.176ZM434.646 445V432.396H435.99V445H434.646Z" fill="#2C5EA8"/>
<path d="M67 126V119.52L61.1172 109.195H63.2852L67.9609 117.598H68.0781L72.7656 109.195H74.9219L69.0391 119.52V126H67ZM84.1328 124.535C83.0781 125.668 81.6836 126.234 79.9492 126.234C78.2227 126.234 76.832 125.668 75.7773 124.535C74.7227 123.402 74.1953 121.812 74.1953 119.766C74.1953 117.711 74.7227 116.117 75.7773 114.984C76.832 113.852 78.2227 113.285 79.9492 113.285C81.6836 113.285 83.0781 113.852 84.1328 114.984C85.1875 116.117 85.7148 117.711 85.7148 119.766C85.7148 121.812 85.1875 123.402 84.1328 124.535ZM77.0898 123.305C77.8164 124.141 78.7695 124.559 79.9492 124.559C81.1367 124.559 82.0938 124.141 82.8203 123.305C83.5547 122.461 83.9219 121.281 83.9219 119.766C83.9219 118.242 83.5547 117.062 82.8203 116.227C82.0938 115.383 81.1367 114.961 79.9492 114.961C78.7695 114.961 77.8164 115.383 77.0898 116.227C76.3633 117.062 76 118.242 76 119.766C76 121.281 76.3633 122.461 77.0898 123.305ZM93.168 126.234C91.8242 126.234 90.707 125.777 89.8164 124.863C88.9258 123.941 88.4805 122.719 88.4805 121.195V113.52H90.2852V121.195C90.2852 122.25 90.5703 123.074 91.1406 123.668C91.7188 124.262 92.4727 124.559 93.4023 124.559C94.3477 124.559 95.1445 124.227 95.793 123.562C96.4414 122.898 96.7656 122.109 96.7656 121.195V113.52H98.5703V126H97.1289L96.8828 124.324H96.7656C96.0156 125.598 94.8164 126.234 93.168 126.234ZM101.91 126V113.52H103.352L103.598 115.195H103.715C104.387 114.078 105.508 113.52 107.078 113.52H108.391V115.195H107.078C106.117 115.195 105.316 115.492 104.676 116.086C104.035 116.68 103.715 117.426 103.715 118.324V126H101.91ZM120.156 126.234C118.43 126.234 117.035 125.668 115.973 124.535C114.918 123.402 114.391 121.812 114.391 119.766C114.391 117.711 114.918 116.117 115.973 114.984C117.027 113.852 118.422 113.285 120.156 113.285C121.375 113.285 122.434 113.586 123.332 114.188C124.238 114.781 124.898 115.641 125.312 116.766H123.391C122.672 115.562 121.594 114.961 120.156 114.961C118.969 114.961 118.012 115.383 117.285 116.227C116.559 117.062 116.195 118.242 116.195 119.766C116.195 121.281 116.559 122.461 117.285 123.305C118.012 124.141 118.969 124.559 120.156 124.559C121.594 124.559 122.672 123.961 123.391 122.766H125.312C124.898 123.883 124.238 124.742 123.332 125.344C122.434 125.938 121.375 126.234 120.156 126.234ZM132.52 126.234C131.176 126.234 130.059 125.777 129.168 124.863C128.277 123.941 127.832 122.719 127.832 121.195V113.52H129.637V121.195C129.637 122.25 129.922 123.074 130.492 123.668C131.07 124.262 131.824 124.559 132.754 124.559C133.699 124.559 134.496 124.227 135.145 123.562C135.793 122.898 136.117 122.109 136.117 121.195V113.52H137.922V126H136.48L136.234 124.324H136.117C135.367 125.598 134.168 126.234 132.52 126.234ZM141.262 126V113.52H142.703L142.949 115.195H143.066C143.816 113.914 144.938 113.277 146.43 113.285C147.211 113.285 147.914 113.484 148.539 113.883C149.164 114.281 149.66 114.84 150.027 115.559H150.145C150.957 114.035 152.277 113.277 154.105 113.285C155.34 113.285 156.367 113.746 157.188 114.668C158.016 115.582 158.43 116.801 158.43 118.324V126H156.625V118.324C156.625 117.27 156.359 116.445 155.828 115.852C155.305 115.258 154.609 114.961 153.742 114.961C152.891 114.961 152.176 115.281 151.598 115.922C151.027 116.562 150.742 117.363 150.742 118.324V126H148.949V118.324C148.949 117.27 148.684 116.445 148.152 115.852C147.629 115.258 146.934 114.961 146.066 114.961C145.27 114.961 144.57 115.285 143.969 115.934C143.367 116.582 143.066 117.379 143.066 118.324V126H141.262ZM166.34 126.234C164.996 126.234 163.879 125.777 162.988 124.863C162.098 123.941 161.652 122.719 161.652 121.195V113.52H163.457V121.195C163.457 122.25 163.742 123.074 164.312 123.668C164.891 124.262 165.645 124.559 166.574 124.559C167.52 124.559 168.316 124.227 168.965 123.562C169.613 122.898 169.938 122.109 169.938 121.195V113.52H171.742V126H170.301L170.055 124.324H169.938C169.188 125.598 167.988 126.234 166.34 126.234ZM175.211 126V109.195H177.004V126H175.211ZM184.082 124.559C185.254 124.559 186.184 124.227 186.871 123.562C187.566 122.898 187.914 122.07 187.914 121.078V120.234H184.434C183.488 120.234 182.773 120.43 182.289 120.82C181.805 121.203 181.562 121.73 181.562 122.402C181.562 123.059 181.785 123.582 182.23 123.973C182.684 124.363 183.301 124.559 184.082 124.559ZM184.082 126.234C182.785 126.234 181.738 125.871 180.941 125.145C180.152 124.418 179.758 123.504 179.758 122.402C179.758 121.285 180.172 120.367 181 119.648C181.836 118.922 182.98 118.559 184.434 118.559H187.914V117.715C187.914 116.887 187.637 116.223 187.082 115.723C186.535 115.215 185.812 114.961 184.914 114.961C183.391 114.961 182.43 115.562 182.031 116.766H180.121C180.41 115.648 180.977 114.789 181.82 114.188C182.672 113.586 183.703 113.285 184.914 113.285C186.398 113.285 187.57 113.688 188.43 114.492C189.289 115.297 189.719 116.371 189.719 117.715V126H188.277L188.031 124.324H187.914C187.641 124.801 187.152 125.238 186.449 125.637C185.754 126.035 184.965 126.234 184.082 126.234ZM196.902 126C196.004 126 195.258 125.703 194.664 125.109C194.078 124.516 193.785 123.773 193.785 122.883V115.195H191.863V113.52H193.785L194.031 110.156H195.59V113.52H198.824V115.195H195.59V122.883C195.59 123.297 195.723 123.641 195.988 123.914C196.262 124.188 196.609 124.324 197.031 124.324H198.824V126H196.902ZM201.473 126V113.52H203.277V126H201.473ZM203.277 111.352C203.035 111.594 202.738 111.715 202.387 111.715C202.035 111.715 201.734 111.598 201.484 111.363C201.242 111.121 201.121 110.824 201.121 110.473C201.121 110.121 201.242 109.82 201.484 109.57C201.734 109.32 202.035 109.195 202.387 109.195C202.738 109.195 203.035 109.32 203.277 109.57C203.52 109.82 203.641 110.121 203.641 110.473C203.641 110.809 203.52 111.102 203.277 111.352ZM209.992 126L205.07 113.52H206.992L210.953 123.715H211.07L215.031 113.52H216.953L212.031 126H209.992ZM223.68 126.234C221.953 126.234 220.559 125.668 219.496 124.535C218.441 123.402 217.914 121.812 217.914 119.766C217.914 117.711 218.438 116.117 219.484 114.984C220.531 113.852 221.887 113.285 223.551 113.285C224.465 113.285 225.293 113.465 226.035 113.824C226.785 114.184 227.383 114.652 227.828 115.23C228.273 115.801 228.613 116.414 228.848 117.07C229.082 117.727 229.199 118.383 229.199 119.039L229.07 120.234H219.719C219.781 121.625 220.176 122.695 220.902 123.445C221.629 124.188 222.555 124.559 223.68 124.559C225.117 124.559 226.195 123.961 226.914 122.766H228.836C228.422 123.883 227.762 124.742 226.855 125.344C225.957 125.938 224.898 126.234 223.68 126.234ZM219.719 118.676H227.395C227.285 117.504 226.879 116.594 226.176 115.945C225.473 115.289 224.598 114.961 223.551 114.961C222.512 114.961 221.641 115.289 220.938 115.945C220.234 116.594 219.828 117.504 219.719 118.676ZM241.176 126C240.277 126 239.531 125.703 238.938 125.109C238.352 124.516 238.059 123.773 238.059 122.883V115.195H236.137V113.52H238.059L238.305 110.156H239.863V113.52H243.098V115.195H239.863V122.883C239.863 123.297 239.996 123.641 240.262 123.914C240.535 124.188 240.883 124.324 241.305 124.324H243.098V126H241.176ZM254.852 124.535C253.797 125.668 252.402 126.234 250.668 126.234C248.941 126.234 247.551 125.668 246.496 124.535C245.441 123.402 244.914 121.812 244.914 119.766C244.914 117.711 245.441 116.117 246.496 114.984C247.551 113.852 248.941 113.285 250.668 113.285C252.402 113.285 253.797 113.852 254.852 114.984C255.906 116.117 256.434 117.711 256.434 119.766C256.434 121.812 255.906 123.402 254.852 124.535ZM247.809 123.305C248.535 124.141 249.488 124.559 250.668 124.559C251.855 124.559 252.812 124.141 253.539 123.305C254.273 122.461 254.641 121.281 254.641 119.766C254.641 118.242 254.273 117.062 253.539 116.227C252.812 115.383 251.855 114.961 250.668 114.961C249.488 114.961 248.535 115.383 247.809 116.227C247.082 117.062 246.719 118.242 246.719 119.766C246.719 121.281 247.082 122.461 247.809 123.305ZM263.16 126C262.262 126 261.516 125.703 260.922 125.109C260.336 124.516 260.043 123.773 260.043 122.883V115.195H258.121V113.52H260.043L260.289 110.156H261.848V113.52H265.082V115.195H261.848V122.883C261.848 123.297 261.98 123.641 262.246 123.914C262.52 124.188 262.867 124.324 263.289 124.324H265.082V126H263.16ZM271.34 124.559C272.512 124.559 273.441 124.227 274.129 123.562C274.824 122.898 275.172 122.07 275.172 121.078V120.234H271.691C270.746 120.234 270.031 120.43 269.547 120.82C269.062 121.203 268.82 121.73 268.82 122.402C268.82 123.059 269.043 123.582 269.488 123.973C269.941 124.363 270.559 124.559 271.34 124.559ZM271.34 126.234C270.043 126.234 268.996 125.871 268.199 125.145C267.41 124.418 267.016 123.504 267.016 122.402C267.016 121.285 267.43 120.367 268.258 119.648C269.094 118.922 270.238 118.559 271.691 118.559H275.172V117.715C275.172 116.887 274.895 116.223 274.34 115.723C273.793 115.215 273.07 114.961 272.172 114.961C270.648 114.961 269.688 115.562 269.289 116.766H267.379C267.668 115.648 268.234 114.789 269.078 114.188C269.93 113.586 270.961 113.285 272.172 113.285C273.656 113.285 274.828 113.688 275.688 114.492C276.547 115.297 276.977 116.371 276.977 117.715V126H275.535L275.289 124.324H275.172C274.898 124.801 274.41 125.238 273.707 125.637C273.012 126.035 272.223 126.234 271.34 126.234ZM280.328 126V109.195H282.121V126H280.328ZM294.473 124.559C295.645 124.559 296.574 124.227 297.262 123.562C297.957 122.898 298.305 122.07 298.305 121.078V120.234H294.824C293.879 120.234 293.164 120.43 292.68 120.82C292.195 121.203 291.953 121.73 291.953 122.402C291.953 123.059 292.176 123.582 292.621 123.973C293.074 124.363 293.691 124.559 294.473 124.559ZM294.473 126.234C293.176 126.234 292.129 125.871 291.332 125.145C290.543 124.418 290.148 123.504 290.148 122.402C290.148 121.285 290.562 120.367 291.391 119.648C292.227 118.922 293.371 118.559 294.824 118.559H298.305V117.715C298.305 116.887 298.027 116.223 297.473 115.723C296.926 115.215 296.203 114.961 295.305 114.961C293.781 114.961 292.82 115.562 292.422 116.766H290.512C290.801 115.648 291.367 114.789 292.211 114.188C293.062 113.586 294.094 113.285 295.305 113.285C296.789 113.285 297.961 113.688 298.82 114.492C299.68 115.297 300.109 116.371 300.109 117.715V126H298.668L298.422 124.324H298.305C298.031 124.801 297.543 125.238 296.84 125.637C296.145 126.035 295.355 126.234 294.473 126.234ZM307.293 126.234C306.059 126.234 305.008 125.918 304.141 125.285C303.281 124.645 302.734 123.805 302.5 122.766H304.422C304.602 123.344 304.953 123.789 305.477 124.102C306 124.406 306.605 124.559 307.293 124.559C308.27 124.559 309.012 124.383 309.52 124.031C310.035 123.68 310.293 123.215 310.293 122.637C310.293 122.16 310.109 121.773 309.742 121.477C309.375 121.18 308.914 120.973 308.359 120.855C307.812 120.73 307.219 120.582 306.578 120.41C305.938 120.23 305.34 120.039 304.785 119.836C304.238 119.625 303.777 119.258 303.402 118.734C303.035 118.203 302.852 117.547 302.852 116.766C302.852 115.82 303.258 115.004 304.07 114.316C304.891 113.629 305.965 113.285 307.293 113.285C308.41 113.285 309.391 113.559 310.234 114.105C311.078 114.645 311.617 115.41 311.852 116.402H309.941C309.527 115.441 308.645 114.961 307.293 114.961C306.41 114.961 305.75 115.121 305.312 115.441C304.875 115.762 304.656 116.203 304.656 116.766C304.656 117.359 304.91 117.82 305.418 118.148C305.934 118.469 306.555 118.711 307.281 118.875C308.008 119.031 308.734 119.211 309.461 119.414C310.195 119.609 310.816 119.977 311.324 120.516C311.84 121.055 312.098 121.762 312.098 122.637C312.098 123.629 311.66 124.477 310.785 125.18C309.91 125.883 308.746 126.234 307.293 126.234ZM318.566 126.234C317.332 126.234 316.281 125.918 315.414 125.285C314.555 124.645 314.008 123.805 313.773 122.766H315.695C315.875 123.344 316.227 123.789 316.75 124.102C317.273 124.406 317.879 124.559 318.566 124.559C319.543 124.559 320.285 124.383 320.793 124.031C321.309 123.68 321.566 123.215 321.566 122.637C321.566 122.16 321.383 121.773 321.016 121.477C320.648 121.18 320.188 120.973 319.633 120.855C319.086 120.73 318.492 120.582 317.852 120.41C317.211 120.23 316.613 120.039 316.059 119.836C315.512 119.625 315.051 119.258 314.676 118.734C314.309 118.203 314.125 117.547 314.125 116.766C314.125 115.82 314.531 115.004 315.344 114.316C316.164 113.629 317.238 113.285 318.566 113.285C319.684 113.285 320.664 113.559 321.508 114.105C322.352 114.645 322.891 115.41 323.125 116.402H321.215C320.801 115.441 319.918 114.961 318.566 114.961C317.684 114.961 317.023 115.121 316.586 115.441C316.148 115.762 315.93 116.203 315.93 116.766C315.93 117.359 316.184 117.82 316.691 118.148C317.207 118.469 317.828 118.711 318.555 118.875C319.281 119.031 320.008 119.211 320.734 119.414C321.469 119.609 322.09 119.977 322.598 120.516C323.113 121.055 323.371 121.762 323.371 122.637C323.371 123.629 322.934 124.477 322.059 125.18C321.184 125.883 320.02 126.234 318.566 126.234ZM331.047 126.234C329.32 126.234 327.926 125.668 326.863 124.535C325.809 123.402 325.281 121.812 325.281 119.766C325.281 117.711 325.805 116.117 326.852 114.984C327.898 113.852 329.254 113.285 330.918 113.285C331.832 113.285 332.66 113.465 333.402 113.824C334.152 114.184 334.75 114.652 335.195 115.23C335.641 115.801 335.98 116.414 336.215 117.07C336.449 117.727 336.566 118.383 336.566 119.039L336.438 120.234H327.086C327.148 121.625 327.543 122.695 328.27 123.445C328.996 124.188 329.922 124.559 331.047 124.559C332.484 124.559 333.562 123.961 334.281 122.766H336.203C335.789 123.883 335.129 124.742 334.223 125.344C333.324 125.938 332.266 126.234 331.047 126.234ZM327.086 118.676H334.762C334.652 117.504 334.246 116.594 333.543 115.945C332.84 115.289 331.965 114.961 330.918 114.961C329.879 114.961 329.008 115.289 328.305 115.945C327.602 116.594 327.195 117.504 327.086 118.676ZM343.27 126C342.371 126 341.625 125.703 341.031 125.109C340.445 124.516 340.152 123.773 340.152 122.883V115.195H338.23V113.52H340.152L340.398 110.156H341.957V113.52H345.191V115.195H341.957V122.883C341.957 123.297 342.09 123.641 342.355 123.914C342.629 124.188 342.977 124.324 343.398 124.324H345.191V126H343.27ZM353.113 126V113.52H354.918V126H353.113ZM354.918 111.352C354.676 111.594 354.379 111.715 354.027 111.715C353.676 111.715 353.375 111.598 353.125 111.363C352.883 111.121 352.762 110.824 352.762 110.473C352.762 110.121 352.883 109.82 353.125 109.57C353.375 109.32 353.676 109.195 354.027 109.195C354.379 109.195 354.676 109.32 354.918 109.57C355.16 109.82 355.281 110.121 355.281 110.473C355.281 110.809 355.16 111.102 354.918 111.352ZM362.23 126.234C360.996 126.234 359.945 125.918 359.078 125.285C358.219 124.645 357.672 123.805 357.438 122.766H359.359C359.539 123.344 359.891 123.789 360.414 124.102C360.938 124.406 361.543 124.559 362.23 124.559C363.207 124.559 363.949 124.383 364.457 124.031C364.973 123.68 365.23 123.215 365.23 122.637C365.23 122.16 365.047 121.773 364.68 121.477C364.312 121.18 363.852 120.973 363.297 120.855C362.75 120.73 362.156 120.582 361.516 120.41C360.875 120.23 360.277 120.039 359.723 119.836C359.176 119.625 358.715 119.258 358.34 118.734C357.973 118.203 357.789 117.547 357.789 116.766C357.789 115.82 358.195 115.004 359.008 114.316C359.828 113.629 360.902 113.285 362.23 113.285C363.348 113.285 364.328 113.559 365.172 114.105C366.016 114.645 366.555 115.41 366.789 116.402H364.879C364.465 115.441 363.582 114.961 362.23 114.961C361.348 114.961 360.688 115.121 360.25 115.441C359.812 115.762 359.594 116.203 359.594 116.766C359.594 117.359 359.848 117.82 360.355 118.148C360.871 118.469 361.492 118.711 362.219 118.875C362.945 119.031 363.672 119.211 364.398 119.414C365.133 119.609 365.754 119.977 366.262 120.516C366.777 121.055 367.035 121.762 367.035 122.637C367.035 123.629 366.598 124.477 365.723 125.18C364.848 125.883 363.684 126.234 362.23 126.234Z" fill="#2C5EA8"/>
<path d="M114.625 189V166.594H124.234C126.495 166.594 128.312 167.266 129.688 168.609C131.062 169.953 131.75 171.734 131.75 173.953C131.75 174.995 131.589 175.953 131.266 176.828C130.953 177.693 130.573 178.37 130.125 178.859C129.677 179.349 129.224 179.771 128.766 180.125C128.307 180.469 127.917 180.698 127.594 180.812L127.109 181L132.547 189H127.109L121.984 181.312H119.438V189H114.625ZM119.438 177H123.906C124.802 177 125.531 176.729 126.094 176.188C126.667 175.646 126.953 174.906 126.953 173.969C126.953 173.021 126.667 172.276 126.094 171.734C125.531 171.193 124.802 170.922 123.906 170.922H119.438V177ZM135.281 195.406V172.047H139.125L139.594 173.953H139.766C141.047 172.464 142.646 171.719 144.562 171.719C146.781 171.719 148.562 172.484 149.906 174.016C151.25 175.536 151.922 177.708 151.922 180.531C151.922 183.344 151.25 185.51 149.906 187.031C148.562 188.552 146.781 189.312 144.562 189.312C142.583 189.312 141.036 188.62 139.922 187.234H139.766V195.406H135.281ZM140.844 184.125C141.573 184.917 142.49 185.312 143.594 185.312C144.708 185.312 145.625 184.917 146.344 184.125C147.073 183.323 147.438 182.125 147.438 180.531C147.438 178.927 147.073 177.724 146.344 176.922C145.625 176.12 144.708 175.719 143.594 175.719C142.49 175.719 141.573 176.12 140.844 176.922C140.125 177.724 139.766 178.927 139.766 180.531C139.766 182.125 140.125 183.323 140.844 184.125ZM166.016 189V173.484H161.547V169.156H164.734C165.589 169.156 166.016 168.729 166.016 167.875V166.594H170.828V189H166.016ZM178.547 188.422C178.057 188.911 177.448 189.156 176.719 189.156C176 189.156 175.396 188.911 174.906 188.422C174.417 187.932 174.172 187.328 174.172 186.609C174.172 185.88 174.417 185.271 174.906 184.781C175.396 184.292 176 184.047 176.719 184.047C177.448 184.047 178.057 184.292 178.547 184.781C179.036 185.271 179.281 185.88 179.281 186.609C179.281 187.328 179.036 187.932 178.547 188.422ZM190.188 189.312C187.948 189.312 186.052 188.708 184.5 187.5C182.958 186.281 182.026 184.542 181.703 182.281H186.5C186.667 183.094 187.057 183.75 187.672 184.25C188.297 184.75 189.078 185 190.016 185C191.276 185 192.229 184.677 192.875 184.031C193.531 183.375 193.859 182.469 193.859 181.312C193.859 180.292 193.521 179.427 192.844 178.719C192.177 178 191.234 177.641 190.016 177.641C188.568 177.641 187.448 178.229 186.656 179.406H182.016L183.297 166.594H197.375V170.766H187.297L186.828 174.922H186.984C188.026 174.172 189.411 173.797 191.141 173.797C193.339 173.797 195.141 174.51 196.547 175.938C197.953 177.354 198.656 179.203 198.656 181.484C198.656 183.745 197.917 185.615 196.438 187.094C194.958 188.573 192.875 189.312 190.188 189.312ZM217.703 186.375C215.984 188.333 213.641 189.312 210.672 189.312C207.714 189.312 205.375 188.333 203.656 186.375C201.938 184.417 201.078 181.562 201.078 177.812C201.078 174.052 201.938 171.193 203.656 169.234C205.375 167.266 207.714 166.281 210.672 166.281C213.641 166.281 215.984 167.266 217.703 169.234C219.422 171.193 220.281 174.052 220.281 177.812C220.281 181.562 219.422 184.417 217.703 186.375ZM207.25 183.156C208.167 184.385 209.307 185 210.672 185C212.036 185 213.177 184.385 214.094 183.156C215.021 181.927 215.484 180.141 215.484 177.797C215.484 175.453 215.021 173.667 214.094 172.438C213.177 171.208 212.036 170.594 210.672 170.594C209.307 170.594 208.167 171.208 207.25 172.438C206.333 173.667 205.875 175.453 205.875 177.797C205.875 180.141 206.333 181.927 207.25 183.156ZM239.453 186.375C237.734 188.333 235.391 189.312 232.422 189.312C229.464 189.312 227.125 188.333 225.406 186.375C223.688 184.417 222.828 181.562 222.828 177.812C222.828 174.052 223.688 171.193 225.406 169.234C227.125 167.266 229.464 166.281 232.422 166.281C235.391 166.281 237.734 167.266 239.453 169.234C241.172 171.193 242.031 174.052 242.031 177.812C242.031 181.562 241.172 184.417 239.453 186.375ZM229 183.156C229.917 184.385 231.057 185 232.422 185C233.786 185 234.927 184.385 235.844 183.156C236.771 181.927 237.234 180.141 237.234 177.797C237.234 175.453 236.771 173.667 235.844 172.438C234.927 171.208 233.786 170.594 232.422 170.594C231.057 170.594 229.917 171.208 229 172.438C228.083 173.667 227.625 175.453 227.625 177.797C227.625 180.141 228.083 181.927 229 183.156ZM247.828 188.422C247.339 188.911 246.729 189.156 246 189.156C245.281 189.156 244.677 188.911 244.188 188.422C243.698 187.932 243.453 187.328 243.453 186.609C243.453 185.88 243.698 185.271 244.188 184.781C244.677 184.292 245.281 184.047 246 184.047C246.729 184.047 247.339 184.292 247.828 184.781C248.318 185.271 248.562 185.88 248.562 186.609C248.562 187.328 248.318 187.932 247.828 188.422ZM267.609 186.375C265.891 188.333 263.547 189.312 260.578 189.312C257.62 189.312 255.281 188.333 253.562 186.375C251.844 184.417 250.984 181.562 250.984 177.812C250.984 174.052 251.844 171.193 253.562 169.234C255.281 167.266 257.62 166.281 260.578 166.281C263.547 166.281 265.891 167.266 267.609 169.234C269.328 171.193 270.188 174.052 270.188 177.812C270.188 181.562 269.328 184.417 267.609 186.375ZM257.156 183.156C258.073 184.385 259.214 185 260.578 185C261.943 185 263.083 184.385 264 183.156C264.927 181.927 265.391 180.141 265.391 177.797C265.391 175.453 264.927 173.667 264 172.438C263.083 171.208 261.943 170.594 260.578 170.594C259.214 170.594 258.073 171.208 257.156 172.438C256.24 173.667 255.781 175.453 255.781 177.797C255.781 180.141 256.24 181.927 257.156 183.156ZM289.359 186.375C287.641 188.333 285.297 189.312 282.328 189.312C279.37 189.312 277.031 188.333 275.312 186.375C273.594 184.417 272.734 181.562 272.734 177.812C272.734 174.052 273.594 171.193 275.312 169.234C277.031 167.266 279.37 166.281 282.328 166.281C285.297 166.281 287.641 167.266 289.359 169.234C291.078 171.193 291.938 174.052 291.938 177.812C291.938 181.562 291.078 184.417 289.359 186.375ZM278.906 183.156C279.823 184.385 280.964 185 282.328 185C283.693 185 284.833 184.385 285.75 183.156C286.677 181.927 287.141 180.141 287.141 177.797C287.141 175.453 286.677 173.667 285.75 172.438C284.833 171.208 283.693 170.594 282.328 170.594C280.964 170.594 279.823 171.208 278.906 172.438C277.99 173.667 277.531 175.453 277.531 177.797C277.531 180.141 277.99 181.927 278.906 183.156ZM311.109 186.375C309.391 188.333 307.047 189.312 304.078 189.312C301.12 189.312 298.781 188.333 297.062 186.375C295.344 184.417 294.484 181.562 294.484 177.812C294.484 174.052 295.344 171.193 297.062 169.234C298.781 167.266 301.12 166.281 304.078 166.281C307.047 166.281 309.391 167.266 311.109 169.234C312.828 171.193 313.688 174.052 313.688 177.812C313.688 181.562 312.828 184.417 311.109 186.375ZM300.656 183.156C301.573 184.385 302.714 185 304.078 185C305.443 185 306.583 184.385 307.5 183.156C308.427 181.927 308.891 180.141 308.891 177.797C308.891 175.453 308.427 173.667 307.5 172.438C306.583 171.208 305.443 170.594 304.078 170.594C302.714 170.594 301.573 171.208 300.656 172.438C299.74 173.667 299.281 175.453 299.281 177.797C299.281 180.141 299.74 181.927 300.656 183.156ZM319.484 188.422C318.995 188.911 318.385 189.156 317.656 189.156C316.938 189.156 316.333 188.911 315.844 188.422C315.354 187.932 315.109 187.328 315.109 186.609C315.109 185.88 315.354 185.271 315.844 184.781C316.333 184.292 316.938 184.047 317.656 184.047C318.385 184.047 318.995 184.292 319.484 184.781C319.974 185.271 320.219 185.88 320.219 186.609C320.219 187.328 319.974 187.932 319.484 188.422ZM339.266 186.375C337.547 188.333 335.203 189.312 332.234 189.312C329.276 189.312 326.938 188.333 325.219 186.375C323.5 184.417 322.641 181.562 322.641 177.812C322.641 174.052 323.5 171.193 325.219 169.234C326.938 167.266 329.276 166.281 332.234 166.281C335.203 166.281 337.547 167.266 339.266 169.234C340.984 171.193 341.844 174.052 341.844 177.812C341.844 181.562 340.984 184.417 339.266 186.375ZM328.812 183.156C329.729 184.385 330.87 185 332.234 185C333.599 185 334.74 184.385 335.656 183.156C336.583 181.927 337.047 180.141 337.047 177.797C337.047 175.453 336.583 173.667 335.656 172.438C334.74 171.208 333.599 170.594 332.234 170.594C330.87 170.594 329.729 171.208 328.812 172.438C327.896 173.667 327.438 175.453 327.438 177.797C327.438 180.141 327.896 181.927 328.812 183.156ZM361.016 186.375C359.297 188.333 356.953 189.312 353.984 189.312C351.026 189.312 348.688 188.333 346.969 186.375C345.25 184.417 344.391 181.562 344.391 177.812C344.391 174.052 345.25 171.193 346.969 169.234C348.688 167.266 351.026 166.281 353.984 166.281C356.953 166.281 359.297 167.266 361.016 169.234C362.734 171.193 363.594 174.052 363.594 177.812C363.594 181.562 362.734 184.417 361.016 186.375ZM350.562 183.156C351.479 184.385 352.62 185 353.984 185C355.349 185 356.49 184.385 357.406 183.156C358.333 181.927 358.797 180.141 358.797 177.797C358.797 175.453 358.333 173.667 357.406 172.438C356.49 171.208 355.349 170.594 353.984 170.594C352.62 170.594 351.479 171.208 350.562 172.438C349.646 173.667 349.188 175.453 349.188 177.797C349.188 180.141 349.646 181.927 350.562 183.156ZM382.766 186.375C381.047 188.333 378.703 189.312 375.734 189.312C372.776 189.312 370.438 188.333 368.719 186.375C367 184.417 366.141 181.562 366.141 177.812C366.141 174.052 367 171.193 368.719 169.234C370.438 167.266 372.776 166.281 375.734 166.281C378.703 166.281 381.047 167.266 382.766 169.234C384.484 171.193 385.344 174.052 385.344 177.812C385.344 181.562 384.484 184.417 382.766 186.375ZM372.312 183.156C373.229 184.385 374.37 185 375.734 185C377.099 185 378.24 184.385 379.156 183.156C380.083 181.927 380.547 180.141 380.547 177.797C380.547 175.453 380.083 173.667 379.156 172.438C378.24 171.208 377.099 170.594 375.734 170.594C374.37 170.594 373.229 171.208 372.312 172.438C371.396 173.667 370.938 175.453 370.938 177.797C370.938 180.141 371.396 181.927 372.312 183.156Z" fill="#2C5EA8"/>
<path d="M140.213 264.176C138.783 264.176 137.597 263.856 136.653 263.218C135.71 262.573 135.215 261.574 135.168 260.221H137.866C138.036 261.24 138.786 261.75 140.116 261.75C141.499 261.75 142.19 261.27 142.19 260.309C142.19 259.816 142.003 259.438 141.628 259.175C141.259 258.911 140.755 258.779 140.116 258.779H139.044V256.529H140.116C140.726 256.529 141.191 256.395 141.514 256.125C141.842 255.855 142.006 255.513 142.006 255.097C142.006 254.675 141.845 254.329 141.522 254.06C141.2 253.784 140.731 253.646 140.116 253.646C139.589 253.646 139.132 253.772 138.745 254.024C138.364 254.276 138.133 254.66 138.051 255.176H135.353C135.487 253.893 135.985 252.914 136.847 252.24C137.708 251.561 138.83 251.221 140.213 251.221C141.543 251.221 142.624 251.546 143.456 252.196C144.294 252.841 144.713 253.717 144.713 254.824C144.713 256.178 144.051 257.106 142.727 257.61C143.389 257.851 143.913 258.223 144.3 258.727C144.692 259.23 144.889 259.849 144.889 260.581C144.889 261.724 144.458 262.608 143.597 263.235C142.735 263.862 141.607 264.176 140.213 264.176ZM151.111 264.176C149.682 264.176 148.495 263.856 147.552 263.218C146.608 262.573 146.113 261.574 146.066 260.221H148.765C148.935 261.24 149.685 261.75 151.015 261.75C152.397 261.75 153.089 261.27 153.089 260.309C153.089 259.816 152.901 259.438 152.526 259.175C152.157 258.911 151.653 258.779 151.015 258.779H149.942V256.529H151.015C151.624 256.529 152.09 256.395 152.412 256.125C152.74 255.855 152.904 255.513 152.904 255.097C152.904 254.675 152.743 254.329 152.421 254.06C152.099 253.784 151.63 253.646 151.015 253.646C150.487 253.646 150.03 253.772 149.644 254.024C149.263 254.276 149.031 254.66 148.949 255.176H146.251C146.386 253.893 146.884 252.914 147.745 252.24C148.606 251.561 149.729 251.221 151.111 251.221C152.441 251.221 153.522 251.546 154.354 252.196C155.192 252.841 155.611 253.717 155.611 254.824C155.611 256.178 154.949 257.106 153.625 257.61C154.287 257.851 154.812 258.223 155.198 258.727C155.591 259.23 155.787 259.849 155.787 260.581C155.787 261.724 155.356 262.608 154.495 263.235C153.634 263.862 152.506 264.176 151.111 264.176ZM158.494 264L166.325 251.396H168.303L160.48 264H158.494ZM168.865 263.367C168.338 263.906 167.641 264.176 166.773 264.176C165.912 264.176 165.218 263.906 164.69 263.367C164.163 262.828 163.899 262.11 163.899 261.214C163.899 260.312 164.163 259.591 164.69 259.052C165.218 258.513 165.912 258.243 166.773 258.243C167.641 258.243 168.338 258.513 168.865 259.052C169.393 259.591 169.656 260.312 169.656 261.214C169.656 262.11 169.393 262.828 168.865 263.367ZM165.868 262.26C166.103 262.518 166.404 262.646 166.773 262.646C167.148 262.646 167.453 262.518 167.688 262.26C167.922 262.002 168.039 261.653 168.039 261.214C168.039 260.769 167.922 260.417 167.688 260.159C167.453 259.901 167.148 259.772 166.773 259.772C166.404 259.772 166.103 259.901 165.868 260.159C165.634 260.417 165.517 260.769 165.517 261.214C165.517 261.653 165.634 262.002 165.868 262.26ZM162.115 256.354C161.588 256.893 160.891 257.162 160.023 257.162C159.162 257.162 158.468 256.893 157.94 256.354C157.413 255.809 157.149 255.088 157.149 254.191C157.149 253.289 157.413 252.568 157.94 252.029C158.468 251.49 159.162 251.221 160.023 251.221C160.891 251.221 161.588 251.49 162.115 252.029C162.643 252.568 162.906 253.289 162.906 254.191C162.906 255.088 162.643 255.809 162.115 256.354ZM159.118 255.246C159.353 255.504 159.654 255.633 160.023 255.633C160.398 255.633 160.703 255.504 160.938 255.246C161.172 254.988 161.289 254.637 161.289 254.191C161.289 253.746 161.172 253.395 160.938 253.137C160.703 252.879 160.398 252.75 160.023 252.75C159.654 252.75 159.353 252.879 159.118 253.137C158.884 253.395 158.767 253.746 158.767 254.191C158.767 254.637 158.884 254.988 159.118 255.246Z" fill="#2C5EA8"/>
<path d="M184.213 396.176C182.783 396.176 181.597 395.856 180.653 395.218C179.71 394.573 179.215 393.574 179.168 392.221H181.866C182.036 393.24 182.786 393.75 184.116 393.75C185.499 393.75 186.19 393.27 186.19 392.309C186.19 391.816 186.003 391.438 185.628 391.175C185.259 390.911 184.755 390.779 184.116 390.779H183.044V388.529H184.116C184.726 388.529 185.191 388.395 185.514 388.125C185.842 387.855 186.006 387.513 186.006 387.097C186.006 386.675 185.845 386.329 185.522 386.06C185.2 385.784 184.731 385.646 184.116 385.646C183.589 385.646 183.132 385.772 182.745 386.024C182.364 386.276 182.133 386.66 182.051 387.176H179.353C179.487 385.893 179.985 384.914 180.847 384.24C181.708 383.561 182.83 383.221 184.213 383.221C185.543 383.221 186.624 383.546 187.456 384.196C188.294 384.841 188.713 385.717 188.713 386.824C188.713 388.178 188.051 389.106 186.727 389.61C187.389 389.851 187.913 390.223 188.3 390.727C188.692 391.23 188.889 391.849 188.889 392.581C188.889 393.724 188.458 394.608 187.597 395.235C186.735 395.862 185.607 396.176 184.213 396.176ZM195.111 396.176C193.682 396.176 192.495 395.856 191.552 395.218C190.608 394.573 190.113 393.574 190.066 392.221H192.765C192.935 393.24 193.685 393.75 195.015 393.75C196.397 393.75 197.089 393.27 197.089 392.309C197.089 391.816 196.901 391.438 196.526 391.175C196.157 390.911 195.653 390.779 195.015 390.779H193.942V388.529H195.015C195.624 388.529 196.09 388.395 196.412 388.125C196.74 387.855 196.904 387.513 196.904 387.097C196.904 386.675 196.743 386.329 196.421 386.06C196.099 385.784 195.63 385.646 195.015 385.646C194.487 385.646 194.03 385.772 193.644 386.024C193.263 386.276 193.031 386.66 192.949 387.176H190.251C190.386 385.893 190.884 384.914 191.745 384.24C192.606 383.561 193.729 383.221 195.111 383.221C196.441 383.221 197.522 383.546 198.354 384.196C199.192 384.841 199.611 385.717 199.611 386.824C199.611 388.178 198.949 389.106 197.625 389.61C198.287 389.851 198.812 390.223 199.198 390.727C199.591 391.23 199.787 391.849 199.787 392.581C199.787 393.724 199.356 394.608 198.495 395.235C197.634 395.862 196.506 396.176 195.111 396.176ZM202.494 396L210.325 383.396H212.303L204.48 396H202.494ZM212.865 395.367C212.338 395.906 211.641 396.176 210.773 396.176C209.912 396.176 209.218 395.906 208.69 395.367C208.163 394.828 207.899 394.11 207.899 393.214C207.899 392.312 208.163 391.591 208.69 391.052C209.218 390.513 209.912 390.243 210.773 390.243C211.641 390.243 212.338 390.513 212.865 391.052C213.393 391.591 213.656 392.312 213.656 393.214C213.656 394.11 213.393 394.828 212.865 395.367ZM209.868 394.26C210.103 394.518 210.404 394.646 210.773 394.646C211.148 394.646 211.453 394.518 211.688 394.26C211.922 394.002 212.039 393.653 212.039 393.214C212.039 392.769 211.922 392.417 211.688 392.159C211.453 391.901 211.148 391.772 210.773 391.772C210.404 391.772 210.103 391.901 209.868 392.159C209.634 392.417 209.517 392.769 209.517 393.214C209.517 393.653 209.634 394.002 209.868 394.26ZM206.115 388.354C205.588 388.893 204.891 389.162 204.023 389.162C203.162 389.162 202.468 388.893 201.94 388.354C201.413 387.809 201.149 387.088 201.149 386.191C201.149 385.289 201.413 384.568 201.94 384.029C202.468 383.49 203.162 383.221 204.023 383.221C204.891 383.221 205.588 383.49 206.115 384.029C206.643 384.568 206.906 385.289 206.906 386.191C206.906 387.088 206.643 387.809 206.115 388.354ZM203.118 387.246C203.353 387.504 203.654 387.633 204.023 387.633C204.398 387.633 204.703 387.504 204.938 387.246C205.172 386.988 205.289 386.637 205.289 386.191C205.289 385.746 205.172 385.395 204.938 385.137C204.703 384.879 204.398 384.75 204.023 384.75C203.654 384.75 203.353 384.879 203.118 385.137C202.884 385.395 202.767 385.746 202.767 386.191C202.767 386.637 202.884 386.988 203.118 387.246Z" fill="#348A95"/>
<path d="M321.213 264.176C319.783 264.176 318.597 263.856 317.653 263.218C316.71 262.573 316.215 261.574 316.168 260.221H318.866C319.036 261.24 319.786 261.75 321.116 261.75C322.499 261.75 323.19 261.27 323.19 260.309C323.19 259.816 323.003 259.438 322.628 259.175C322.259 258.911 321.755 258.779 321.116 258.779H320.044V256.529H321.116C321.726 256.529 322.191 256.395 322.514 256.125C322.842 255.855 323.006 255.513 323.006 255.097C323.006 254.675 322.845 254.329 322.522 254.06C322.2 253.784 321.731 253.646 321.116 253.646C320.589 253.646 320.132 253.772 319.745 254.024C319.364 254.276 319.133 254.66 319.051 255.176H316.353C316.487 253.893 316.985 252.914 317.847 252.24C318.708 251.561 319.83 251.221 321.213 251.221C322.543 251.221 323.624 251.546 324.456 252.196C325.294 252.841 325.713 253.717 325.713 254.824C325.713 256.178 325.051 257.106 323.727 257.61C324.389 257.851 324.913 258.223 325.3 258.727C325.692 259.23 325.889 259.849 325.889 260.581C325.889 261.724 325.458 262.608 324.597 263.235C323.735 263.862 322.607 264.176 321.213 264.176ZM332.111 264.176C330.682 264.176 329.495 263.856 328.552 263.218C327.608 262.573 327.113 261.574 327.066 260.221H329.765C329.935 261.24 330.685 261.75 332.015 261.75C333.397 261.75 334.089 261.27 334.089 260.309C334.089 259.816 333.901 259.438 333.526 259.175C333.157 258.911 332.653 258.779 332.015 258.779H330.942V256.529H332.015C332.624 256.529 333.09 256.395 333.412 256.125C333.74 255.855 333.904 255.513 333.904 255.097C333.904 254.675 333.743 254.329 333.421 254.06C333.099 253.784 332.63 253.646 332.015 253.646C331.487 253.646 331.03 253.772 330.644 254.024C330.263 254.276 330.031 254.66 329.949 255.176H327.251C327.386 253.893 327.884 252.914 328.745 252.24C329.606 251.561 330.729 251.221 332.111 251.221C333.441 251.221 334.522 251.546 335.354 252.196C336.192 252.841 336.611 253.717 336.611 254.824C336.611 256.178 335.949 257.106 334.625 257.61C335.287 257.851 335.812 258.223 336.198 258.727C336.591 259.23 336.787 259.849 336.787 260.581C336.787 261.724 336.356 262.608 335.495 263.235C334.634 263.862 333.506 264.176 332.111 264.176ZM339.494 264L347.325 251.396H349.303L341.48 264H339.494ZM349.865 263.367C349.338 263.906 348.641 264.176 347.773 264.176C346.912 264.176 346.218 263.906 345.69 263.367C345.163 262.828 344.899 262.11 344.899 261.214C344.899 260.312 345.163 259.591 345.69 259.052C346.218 258.513 346.912 258.243 347.773 258.243C348.641 258.243 349.338 258.513 349.865 259.052C350.393 259.591 350.656 260.312 350.656 261.214C350.656 262.11 350.393 262.828 349.865 263.367ZM346.868 262.26C347.103 262.518 347.404 262.646 347.773 262.646C348.148 262.646 348.453 262.518 348.688 262.26C348.922 262.002 349.039 261.653 349.039 261.214C349.039 260.769 348.922 260.417 348.688 260.159C348.453 259.901 348.148 259.772 347.773 259.772C347.404 259.772 347.103 259.901 346.868 260.159C346.634 260.417 346.517 260.769 346.517 261.214C346.517 261.653 346.634 262.002 346.868 262.26ZM343.115 256.354C342.588 256.893 341.891 257.162 341.023 257.162C340.162 257.162 339.468 256.893 338.94 256.354C338.413 255.809 338.149 255.088 338.149 254.191C338.149 253.289 338.413 252.568 338.94 252.029C339.468 251.49 340.162 251.221 341.023 251.221C341.891 251.221 342.588 251.49 343.115 252.029C343.643 252.568 343.906 253.289 343.906 254.191C343.906 255.088 343.643 255.809 343.115 256.354ZM340.118 255.246C340.353 255.504 340.654 255.633 341.023 255.633C341.398 255.633 341.703 255.504 341.938 255.246C342.172 254.988 342.289 254.637 342.289 254.191C342.289 253.746 342.172 253.395 341.938 253.137C341.703 252.879 341.398 252.75 341.023 252.75C340.654 252.75 340.353 252.879 340.118 253.137C339.884 253.395 339.767 253.746 339.767 254.191C339.767 254.637 339.884 254.988 340.118 255.246Z" fill="#953459"/>
<circle cx="242" cy="303" r="62" stroke="#345995" stroke-width="24"/>
<path d="M241.999 241C276.241 241 303.999 268.758 303.999 303C303.999 337.242 276.241 365 241.999 365C214.385 365 190.988 346.947 182.965 322" stroke="#348A95" stroke-width="24"/>
<path d="M242 241C276.242 241 304 268.758 304 303C304 323.284 294.259 341.293 279.2 352.605" stroke="#953459" stroke-width="24"/>
</g>
</g>
<defs>
<filter id="filter0_d_1319_4399" x="-9" y="37" width="517" height="638" filterUnits="userSpaceOnUse" color-interpolation-filters="sRGB">
<feFlood flood-opacity="0" result="BackgroundImageFix"/>
<feColorMatrix in="SourceAlpha" type="matrix" values="0 0 0 0 0 0 0 0 0 0 0 0 0 0 0 0 0 0 127 0" result="hardAlpha"/>
<feMorphology radius="8" operator="dilate" in="SourceAlpha" result="effect1_dropShadow_1319_4399"/>
<feOffset dy="9"/>
<feGaussianBlur stdDeviation="23"/>
<feComposite in2="hardAlpha" operator="out"/>
<feColorMatrix type="matrix" values="0 0 0 0 0 0 0 0 0 0 0 0 0 0 0 0 0 0 0.14 0"/>
<feBlend mode="normal" in2="BackgroundImageFix" result="effect1_dropShadow_1319_4399"/>
<feBlend mode="normal" in="SourceGraphic" in2="effect1_dropShadow_1319_4399" result="shape"/>
</filter>
<clipPath id="clip0_1319_4399">
<rect width="501" height="694" rx="50" fill="white"/>
</clipPath>
</defs>
</svg>
