<svg width="226" height="117" viewBox="0 0 226 117" fill="none" xmlns="http://www.w3.org/2000/svg">
<path d="M78.2265 27L84 32.7735L89.7735 27L84 21.2265L78.2265 27ZM84 28H86V26H84V28ZM90 28H94V26H90V28ZM98 28H102V26H98V28ZM106 28H110V26H106V28ZM114 28H118V26H114V28ZM122 28H124V26H122V28Z" fill="#345995"/>
<path d="M77.2265 77L83 82.7735L88.7735 77L83 71.2265L77.2265 77ZM83 78H85V76H83V78ZM89 78H93V76H89V78ZM97 78H101V76H97V78ZM105 78H109V76H105V78ZM113 78H117V76H113V78ZM121 78H123V76H121V78Z" fill="#345995"/>
<path d="M78.2265 27L84 32.7735L89.7735 27L84 21.2265L78.2265 27ZM84 28H86V26H84V28ZM90 28H94V26H90V28ZM98 28H102V26H98V28ZM106 28H110V26H106V28ZM114 28H118V26H114V28ZM122 28H124V26H122V28Z" fill="#345995"/>
<path d="M77.2265 77L83 82.7735L88.7735 77L83 71.2265L77.2265 77ZM83 78H85V76H83V78ZM89 78H93V76H89V78ZM97 78H101V76H97V78ZM105 78H109V76H105V78ZM113 78H117V76H113V78ZM121 78H123V76H121V78Z" fill="#345995"/>
<path d="M149.774 33L144 27.2265L138.226 33L144 38.7735L149.774 33ZM104 34H106V32H104V34ZM110 34H114V32H110V34ZM118 34H122V32H118V34ZM126 34H130V32H126V34ZM134 34H138V32H134V34ZM142 34H144V32H142V34Z" fill="#345995"/>
<path d="M148.774 83L143 77.2265L137.226 83L143 88.7735L148.774 83ZM103 84H105V82H103V84ZM109 84H113V82H109V84ZM117 84H121V82H117V84ZM125 84H129V82H125V84ZM133 84H137V82H133V84ZM141 84H143V82H141V84Z" fill="#345995"/>
<rect x="156" y="11" width="70" height="50" rx="4" fill="#003D79"/>
<path fill-rule="evenodd" clip-rule="evenodd" d="M161.063 37.4811C161.063 36.5844 161.047 35.8319 161 35.1609H162.643L162.72 36.3137H162.767C163.139 35.7045 163.82 34.9841 165.091 34.9841C166.082 34.9841 166.857 35.5616 167.182 36.4255H167.214C167.478 35.9935 167.786 35.6737 168.143 35.4488C168.561 35.1451 169.042 34.9841 169.661 34.9841C170.916 34.9841 172.186 35.8642 172.186 38.3611V42.9536H170.327V38.6496C170.327 37.3535 169.894 36.5844 168.98 36.5844C168.328 36.5844 167.848 37.0654 167.648 37.6257C167.6 37.8172 167.554 38.0574 167.554 38.2799V42.9536H165.695V38.4409C165.695 37.3535 165.277 36.5844 164.394 36.5844C163.681 36.5844 163.201 37.1614 163.03 37.7043C162.952 37.8976 162.921 38.121 162.921 38.3446V42.9536H161.063V37.4811Z" fill="white"/>
<path fill-rule="evenodd" clip-rule="evenodd" d="M179.43 41.082C179.43 41.7857 179.461 42.4727 179.539 42.9541H177.818L177.695 42.0902H177.648C177.183 42.6989 176.393 43.1303 175.417 43.1303C173.899 43.1303 173.047 41.995 173.047 40.8101C173.047 38.8411 174.735 37.8498 177.524 37.8656V37.7371C177.524 37.2249 177.322 36.3773 175.99 36.3773C175.246 36.3773 174.471 36.6175 173.96 36.953L173.588 35.6738C174.147 35.3211 175.124 34.9846 176.315 34.9846C178.733 34.9846 179.43 36.5699 179.43 38.2654V41.082ZM177.57 39.1459C176.223 39.1136 174.937 39.4176 174.937 40.602C174.937 41.3694 175.417 41.7221 176.022 41.7221C176.78 41.7221 177.338 41.2099 177.508 40.65C177.554 40.5059 177.57 40.3453 177.57 40.2178V39.1459Z" fill="white"/>
<path fill-rule="evenodd" clip-rule="evenodd" d="M180.746 37.4811C180.746 36.5844 180.729 35.8319 180.684 35.1609H182.355L182.449 36.329H182.495C182.82 35.7216 183.641 34.9841 184.896 34.9841C186.213 34.9841 187.577 35.8642 187.577 38.3292V42.9536H185.671V38.5537C185.671 37.4328 185.269 36.5844 184.23 36.5844C183.471 36.5844 182.945 37.1446 182.743 37.737C182.682 37.9134 182.666 38.154 182.666 38.3765V42.9536H180.746V37.4811Z" fill="white"/>
<path fill-rule="evenodd" clip-rule="evenodd" d="M195.839 32.0298V40.7609C195.839 41.5609 195.869 42.4266 195.901 42.954H194.196L194.12 41.722H194.088C193.639 42.5866 192.723 43.1302 191.625 43.1302C189.828 43.1302 188.402 41.5462 188.402 39.1458C188.387 36.5372 189.967 34.9845 191.779 34.9845C192.817 34.9845 193.561 35.4332 193.902 36.0097H193.933V32.0298H195.839ZM193.933 38.4085C193.933 38.2501 193.917 38.0572 193.887 37.8977C193.717 37.1295 193.112 36.505 192.244 36.505C191.021 36.505 190.339 37.6258 190.339 39.0821C190.339 40.5059 191.021 41.5462 192.229 41.5462C193.003 41.5462 193.685 41.0023 193.871 40.1544C193.917 39.9776 193.933 39.7858 193.933 39.577V38.4085Z" fill="white"/>
<path fill-rule="evenodd" clip-rule="evenodd" d="M197.184 42.9536H199.107V35.1614H197.184V42.9536Z" fill="white"/>
<path fill-rule="evenodd" clip-rule="evenodd" d="M200.453 37.6731C200.453 36.6174 200.437 35.8642 200.391 35.1608H202.049L202.109 36.6485H202.174C202.545 35.5444 203.428 35.1608 204.233 35.1608C204.419 35.1608 204.527 35.128 204.683 35.1608V36.8896C204.527 36.8576 204.357 36.8257 204.125 36.8257C203.211 36.8257 202.591 37.4332 202.42 38.3127C202.39 38.4889 202.359 38.6978 202.359 38.9229V42.954H200.453V37.6731Z" fill="white"/>
<path fill-rule="evenodd" clip-rule="evenodd" d="M205.566 42.9536H207.487V35.1614H205.566V42.9536Z" fill="white"/>
<path fill-rule="evenodd" clip-rule="evenodd" d="M205.113 25.7396C203.96 26.4295 201.239 28.0412 200.224 28.6414C199.605 28.9671 198.171 29.1093 197.36 27.98C197.346 27.9597 196.282 26.5866 196.239 26.5349C196.208 26.4984 195.52 25.4446 193.988 25.4117C193.761 25.4061 192.636 25.3999 191.537 26.0448C190.077 26.9064 186.681 28.9116 186.681 28.9116C186.68 28.9116 186.68 28.9134 186.679 28.9134C185.283 29.7383 184.195 30.3806 184.195 30.3806L185.48 32.0107C186.081 32.7816 187.437 33.3781 188.612 32.681C188.612 32.681 192.956 30.083 192.972 30.0755C194.85 29.0113 196.3 29.0113 197.262 29.4073C198.125 29.7842 198.877 30.7233 198.877 30.7233C198.877 30.7233 199.858 31.98 200.032 32.1999C200.59 32.9102 201.515 32.6311 201.515 32.6311C201.515 32.6311 201.858 32.591 202.374 32.2743C202.374 32.2743 206.581 29.7545 206.584 29.7537C207.92 28.9441 209.145 28.7929 209.771 28.8524C211.733 29.0366 212.342 30.4519 213.193 31.4392C213.693 32.02 214.145 32.3498 214.836 32.3331C215.29 32.3232 215.803 32.0388 215.879 31.9874L220.917 28.9842C220.917 28.9842 220.4 28.18 219.342 26.9288C218.394 25.8124 217.388 26.3175 216.585 26.728C216.248 26.9002 215.027 27.7395 213.817 28.325C212.954 28.742 211.716 28.6166 211.037 27.7502C210.996 27.6976 209.898 26.3243 209.783 26.1554C209.34 25.5819 208.475 25.0684 207.367 25.0684C206.693 25.0684 205.928 25.2582 205.113 25.7396Z" fill="url(#paint0_linear_1393_3716)"/>
<rect width="70" height="50" rx="4" fill="#0060AF"/>
<path fill-rule="evenodd" clip-rule="evenodd" d="M14.3978 29.7913C14.3978 29.1203 14.4055 27.3266 14.3879 27.1056C14.4032 24.4366 12.3446 22.5539 11.0441 22.7006C10.1442 22.7743 9.38982 23.1202 8.98502 24.1153C8.60953 25.0427 8.94525 26.2763 10.1931 26.5657C11.5273 26.8766 12.3066 27.1352 12.8705 27.5001C13.5614 27.9468 14.1255 28.8003 14.1405 29.7924" fill="white"/>
<path fill-rule="evenodd" clip-rule="evenodd" d="M13.8409 29.7923C13.8452 28.9321 13.3359 28.1715 12.6703 27.7628C12.0799 27.4015 11.2872 27.1643 10.0084 26.8584C9.61307 26.7631 9.19958 26.5514 9.07157 26.2815C8.73295 26.6031 8.67145 27.3262 8.73102 27.749C8.80026 28.2379 9.40649 29.0438 10.3193 29.0754C10.8767 29.0965 11.5815 28.9623 11.9195 28.8946C12.5025 28.7759 13.425 29.1202 13.5718 29.7912" fill="white"/>
<path fill-rule="evenodd" clip-rule="evenodd" d="M14.8682 18.5408C13.3204 18.5408 11.9836 19.5029 11.9883 21.1679C11.9931 22.568 13.1875 23.3175 13.6139 23.8528C14.258 24.6596 14.6066 25.6144 14.6427 27.0755C14.671 28.2384 14.6695 29.3866 14.6758 29.7936H15.0173C15.0115 29.3678 14.9961 28.1488 15.0136 27.0396C15.0368 25.578 15.398 24.6596 16.0424 23.8528C16.4725 23.3175 17.6658 22.568 17.6683 21.1679C17.6743 19.5029 16.338 18.5408 14.7918 18.5408" fill="white"/>
<path fill-rule="evenodd" clip-rule="evenodd" d="M15.2597 29.7913C15.2597 29.1203 15.2516 27.3266 15.2689 27.1056C15.2537 24.4366 17.311 22.5539 18.6127 22.7006C19.5126 22.7743 20.266 23.1202 20.6721 24.1153C21.0471 25.0427 20.7096 26.2763 19.4634 26.5657C18.1282 26.8766 17.35 27.1352 16.7847 27.5001C16.0946 27.9468 15.57 28.8003 15.5539 29.7924" fill="white"/>
<path fill-rule="evenodd" clip-rule="evenodd" d="M15.8203 29.7923C15.8155 28.9321 16.3247 28.1715 16.9884 27.7628C17.5814 27.4015 18.3749 27.1643 19.6525 26.8584C20.0487 26.7631 20.4617 26.5514 20.5874 26.2815C20.9276 26.6031 20.9892 27.3262 20.9294 27.749C20.8589 28.2379 20.2541 29.0438 19.3429 29.0754C18.7858 29.0965 18.0772 28.9623 17.7406 28.8946C17.1598 28.7759 16.2348 29.1202 16.0873 29.7912" fill="white"/>
<path fill-rule="evenodd" clip-rule="evenodd" d="M16.2955 32.5691L16.0977 31.2068L16.5757 31.1385C16.692 31.1236 16.8337 31.1428 16.8903 31.2114C16.953 31.2832 16.9721 31.3425 16.9842 31.4366C17.0024 31.5532 16.9667 31.6877 16.8275 31.7548V31.7589C16.9828 31.7589 17.0766 31.8641 17.104 32.0416C17.1079 32.0793 17.1198 32.1698 17.1079 32.2453C17.0763 32.4252 16.9626 32.4832 16.7704 32.5085L16.2955 32.5691ZM16.6032 32.3253C16.6599 32.3176 16.7174 32.3147 16.7623 32.2877C16.8312 32.2453 16.825 32.1549 16.8153 32.0875C16.7915 31.9398 16.7506 31.8835 16.5842 31.9067L16.4796 31.9219L16.5459 32.3328L16.6032 32.3253ZM16.5033 31.6957C16.5665 31.6862 16.6522 31.6789 16.6879 31.6223C16.7068 31.5845 16.7306 31.5544 16.7148 31.4703C16.6954 31.3708 16.6604 31.3088 16.526 31.3328L16.4009 31.3518L16.4503 31.7009L16.5033 31.6957Z" fill="white"/>
<path fill-rule="evenodd" clip-rule="evenodd" d="M18.3685 31.75C18.3722 31.7754 18.3766 31.8036 18.3782 31.829C18.4168 32.0773 18.3685 32.2831 18.0722 32.3397C17.6341 32.4191 17.5502 32.1627 17.4733 31.8036L17.4322 31.6092C17.3718 31.2657 17.3459 31.0055 17.7729 30.9252C18.0136 30.8839 18.1727 30.9743 18.2389 31.2001C18.2492 31.2338 18.2621 31.267 18.2669 31.301L18.0049 31.352C17.9747 31.267 17.9346 31.1154 17.8167 31.1282C17.6051 31.1523 17.675 31.4003 17.6967 31.5041L17.7755 31.8771C17.7992 31.9899 17.8462 32.17 18.0292 32.1353C18.1779 32.1072 18.113 31.8889 18.0998 31.7994" fill="white"/>
<path fill-rule="evenodd" clip-rule="evenodd" d="M18.7858 32.1621L18.6953 30.7524L19.0471 30.6511L19.7851 31.8772L19.508 31.9554L19.3331 31.6438L19.0254 31.7309L19.0652 32.0852L18.7858 32.1621ZM18.9996 31.5032L19.222 31.4425L18.9267 30.8721L18.9996 31.5032Z" fill="white"/>
<path fill-rule="evenodd" clip-rule="evenodd" d="M10.0923 31.0963C10.2025 30.7641 10.301 30.5192 10.7214 30.6279C10.9464 30.6873 11.0858 30.7806 11.0792 31.027C11.0781 31.0818 11.0589 31.1378 11.0464 31.1918L10.7847 31.1238C10.819 30.9877 10.8407 30.8797 10.663 30.8281C10.4575 30.775 10.4075 31.01 10.3791 31.1114L10.2727 31.4808C10.2389 31.5906 10.1983 31.7719 10.3791 31.8188C10.5285 31.8566 10.619 31.7185 10.6731 31.5166L10.4902 31.4708L10.5535 31.2571L10.9839 31.3875L10.7796 32.0998L10.5815 32.0491L10.6261 31.8985H10.6205C10.5292 32.0218 10.4181 32.0347 10.3207 32.0169C9.89026 31.9073 9.93519 31.6422 10.0379 31.2879" fill="white"/>
<path fill-rule="evenodd" clip-rule="evenodd" d="M11.6948 31.698L11.5652 32.2775L11.2734 32.2182L11.5844 30.865L12.0817 30.9708C12.3729 31.0301 12.4608 31.1522 12.4196 31.4038C12.396 31.5482 12.3205 31.7036 12.1362 31.691L12.1342 31.6887C12.2901 31.74 12.3033 31.8143 12.2761 31.9422C12.2643 31.9969 12.1833 32.3274 12.2392 32.3809L12.2411 32.4216L11.9392 32.3472C11.9267 32.2557 11.9695 32.0908 11.9864 31.9994C12.0033 31.9187 12.0305 31.8048 11.9436 31.7622C11.8756 31.7279 11.8502 31.7296 11.7732 31.713L11.6948 31.698ZM11.7446 31.4884L11.941 31.5383C12.0603 31.5547 12.1267 31.4964 12.1502 31.3604C12.1714 31.2358 12.1439 31.1872 12.0368 31.1631L11.8262 31.1227L11.7446 31.4884Z" fill="white"/>
<path fill-rule="evenodd" clip-rule="evenodd" d="M13.566 31.167L13.8545 31.1986L13.7302 32.15C13.6698 32.4516 13.5462 32.5834 13.1942 32.5422C12.8361 32.4994 12.7511 32.3458 12.7727 32.0418L12.8979 31.0913L13.1887 31.1226L13.0639 32.0518C13.0506 32.1527 13.0259 32.3023 13.2163 32.3205C13.3852 32.3326 13.4235 32.227 13.4426 32.0958" fill="white"/>
<path fill-rule="evenodd" clip-rule="evenodd" d="M14.1758 32.5942L14.2627 31.2339L14.817 31.2565C15.0791 31.2688 15.1475 31.4704 15.1395 31.6628C15.1317 31.7799 15.0931 31.9105 14.9849 31.9814C14.8962 32.0417 14.782 32.056 14.6764 32.0511L14.4957 32.0417L14.4597 32.6118L14.1758 32.5942ZM14.5038 31.8342L14.6506 31.8419C14.7699 31.846 14.849 31.8016 14.8593 31.6364C14.8653 31.478 14.8015 31.4509 14.6469 31.4446L14.5307 31.4408L14.5038 31.8342Z" fill="white"/>
<path fill-rule="evenodd" clip-rule="evenodd" d="M53.273 19.8557L51.0697 23.6257C50.238 22.989 49.2226 22.5206 47.9269 22.5206C44.8607 22.5206 43.6151 24.675 43.6151 26.1927C43.6151 27.3194 44.3976 28.9815 47.1259 28.9815C48.2712 28.9815 49.8991 28.2306 50.3676 27.8888L48.1886 32.2626C47.1499 32.458 46.8085 32.5791 45.9294 32.6048C41.046 32.7421 39.0729 29.9142 39.0742 27.0248C39.0776 23.2048 42.6802 18.5593 48.6528 18.5593C49.0186 18.5593 49.4663 18.6787 49.849 18.8109L50.2359 18.3445" fill="white"/>
<path fill-rule="evenodd" clip-rule="evenodd" d="M62.364 18.4626L62.9879 32.1645H58.3445L58.342 29.8147H55.1756L54.1336 32.1645H49.0977L54.3626 22.3802L53.1754 22.373L55.4309 18.4626H62.364ZM58.3117 22.6544L56.5217 26.6398H58.3658L58.3117 22.6544Z" fill="white"/>
<path fill-rule="evenodd" clip-rule="evenodd" d="M36.1434 18.4627C38.4429 18.4748 39.7423 19.6515 39.7423 21.351C39.7423 22.918 38.3719 24.3049 36.8675 25.0221C38.4164 25.559 38.5503 26.8765 38.5503 27.8084C38.5503 30.0605 36.1534 32.1645 33.0376 32.1645H26.2422L28.8928 22.5166L27.8041 22.5106L30.0298 18.4627C30.0298 18.4627 34.2736 18.4505 36.1434 18.4627ZM33.8874 24.018C34.3631 24.018 35.2029 23.9045 35.4129 23.0367C35.643 22.0946 34.8548 22.0693 34.4768 22.0693L33.1258 22.0638L32.6547 24.018H33.8874ZM31.9774 26.4393L31.3554 28.6912H32.9463C33.572 28.6912 34.4249 28.3983 34.6339 27.6654C34.8403 26.9306 34.2441 26.4393 33.6206 26.4393H31.9774Z" fill="white"/>
<path fill-rule="evenodd" clip-rule="evenodd" d="M14.93 33.8482C12.5771 33.8482 10.1592 33.302 7.74446 32.2216L7.6852 32.1941L7.65686 32.1372C6.57322 29.9809 6 27.6226 6 25.3152C6 23.011 6.54971 20.7535 7.634 18.6002L7.66395 18.5429L7.72433 18.5144C9.95812 17.5169 12.361 17.0117 14.8688 17.0117C17.2047 17.0117 19.6996 17.5741 22.0824 18.6411L22.1434 18.6668L22.1717 18.7251C23.276 20.9211 23.8584 23.279 23.8584 25.5483C23.8584 27.8085 23.2992 30.0682 22.1935 32.2628L22.1645 32.3204L22.103 32.3471C19.9032 33.3287 17.4227 33.8482 14.93 33.8482ZM7.96795 31.9259C10.3136 32.9662 12.6534 33.4914 14.93 33.4914C17.344 33.4914 19.7446 32.994 21.8817 32.0511C22.9433 29.9244 23.4814 27.7357 23.4814 25.5483C23.4814 23.3518 22.9198 21.0673 21.8574 18.9358C19.5451 17.911 17.1301 17.3677 14.8688 17.3677C12.441 17.3677 10.1138 17.8531 7.94766 18.8108C6.90781 20.8979 6.37855 23.085 6.37855 25.3152C6.37855 27.5493 6.92842 29.8349 7.96795 31.9259Z" fill="white"/>
<rect y="50" width="70" height="50" rx="4" fill="white"/>
<path fill-rule="evenodd" clip-rule="evenodd" d="M11.352 79.6905L13.7277 82.6323H7.84608L11.352 79.6905ZM10.605 78.7818L6.00415 82.6413L6.00226 73.1492L10.605 78.7818ZM21.6751 69.2238C21.6751 69.2238 20.6651 68.7456 19.4917 68.8155C18.1502 68.8945 17.028 69.4089 16.3828 70.0877C15.9769 70.5142 15.5281 71.0345 15.3026 71.5995C14.9757 72.4168 14.9059 73.4968 14.9059 73.4968C14.9059 73.4968 14.4368 73.0986 13.849 71.9383C13.1655 70.5887 12.9785 69.7712 12.8859 68.8385C12.8035 68.02 12.9329 67.2107 12.9329 67.2107H21.6751V69.2238ZM21.6751 71.9147V77.8998C21.6751 77.8998 21.1316 78.1086 20.6883 78.1086C20.245 78.1086 19.49 78.0429 18.6132 77.5608C17.7428 77.0827 17.261 76.5042 16.8875 75.98C16.5087 75.4468 16.1959 74.7077 16.1029 74.1751C16.0282 73.749 15.9476 72.6862 16.3828 71.8224C16.619 71.3537 17.2529 70.5502 18.4732 70.5045C19.4679 70.4663 20.0195 70.7278 20.5251 71.0053C21.4872 71.5343 21.6751 71.9147 21.6751 71.9147ZM12.1559 77.4796L13.7327 76.1652C13.2302 75.5232 13.0974 75.2813 12.5356 74.4526C11.9604 73.6043 11.4786 72.6711 11.0666 71.5761C10.6207 70.3899 10.513 69.724 10.5622 68.8385C10.6239 67.7119 10.8801 67.2107 10.8801 67.2107H6L6.00226 69.8408C6.00226 69.8408 9.73781 74.5222 12.1559 77.4796ZM16.6615 82.628H21.6751V78.9724C21.6751 78.9724 20.4315 79.5428 19.6232 79.5889C19.142 79.6169 18.6749 79.6355 17.9212 79.435C17.0835 79.2124 16.6075 78.9954 15.831 78.355C15.2074 77.8413 14.4943 77.0827 14.4943 77.0827L12.9082 78.4051C13.6441 79.3052 14.1876 79.9605 14.354 80.1368C15.0693 80.8928 15.3724 81.1706 15.8542 81.44C16.3359 81.71 17.945 81.6954 17.945 81.6954L16.6615 82.628Z" fill="#E94E0F"/>
<path fill-rule="evenodd" clip-rule="evenodd" d="M59.5917 79.3763C59.5917 80.4356 59.7346 82.1766 58.5484 82.6005V82.6711H63.0536V82.6005C61.8681 82.1534 62.0104 80.4356 62.0104 79.3763V70.505C62.0104 69.4463 61.8681 67.7049 63.0536 67.2578V67.1873H58.5484V67.2578C59.7578 67.7049 59.5917 69.4227 59.5917 70.505V79.3763ZM43.0719 70.505L51.2053 80.7415C52.2484 82.0825 52.9839 82.8594 54.6674 83.4238V70.2227C54.6674 68.9051 54.6674 67.9636 55.9007 67.2578V67.1873H51.7269V67.2578C52.9839 67.9636 52.9597 68.9051 52.9597 70.2227V79.1412L44.2815 68.2695L43.9491 67.7989C43.7835 67.6107 43.6888 67.4932 43.5939 67.2108V67.1873H40.1313V67.2578C41.3645 67.9636 41.3645 68.9051 41.3645 70.2227V79.6122C41.3645 80.9296 41.3645 81.8707 40.1081 82.6005V82.6711H44.3053V82.6005C43.0483 81.8707 43.0719 80.9296 43.0719 79.6122V70.505ZM29.8141 73.4232V68.8111L31.4025 68.646C32.8255 68.5048 34.3428 69.3522 34.3428 70.976C34.3428 72.9056 32.1375 73.4232 30.5966 73.4232H29.8141ZM29.8141 80.7885V74.976L31.4736 74.882C33.5604 74.7642 35.7893 75.7529 35.7893 78.0354C35.7893 80.2708 33.8217 81.1649 31.8768 80.9768L29.8141 80.7885ZM27.3951 79.3529C27.3951 80.4356 27.5376 82.1534 26.3516 82.6005V82.6711H30.2642C32.0426 82.6711 33.9164 82.7418 35.5759 81.9417C37.1647 81.1885 38.4216 79.6353 38.4216 77.8232C38.4216 75.5176 36.6902 74.1054 34.5561 73.658C35.9079 73.07 36.9272 72.1759 36.9272 70.5992C36.9272 68.5048 35.1019 67.1873 31.9721 67.1873H26.3516V67.2578C27.5615 67.7049 27.3951 69.4227 27.3951 70.4814V79.3529Z" fill="#005B6A"/>
<rect x="156" y="67" width="70" height="50" rx="4" fill="#00529C"/>
<path fill-rule="evenodd" clip-rule="evenodd" d="M176.75 88.6909H180.086C181.437 88.6909 182.445 89.2887 182.445 90.5471C182.445 91.4697 181.978 91.9836 181.167 92.2558V92.2766C182.133 92.4763 182.632 93.0007 182.632 93.8914C182.632 95.6429 181.104 96.0096 179.805 96.0096H176.75V88.6909ZM178.682 91.585H179.223C179.857 91.585 180.512 91.4276 180.512 90.8085C180.512 90.1383 179.889 90.0747 179.244 90.0747H178.682V91.585ZM178.682 94.6258H179.255C179.961 94.6258 180.699 94.5208 180.699 93.7762C180.699 92.98 179.94 92.9059 179.275 92.9059H178.682V94.6258Z" fill="white"/>
<path fill-rule="evenodd" clip-rule="evenodd" d="M185.172 88.6909H187.542L190.337 96.0096H188.217L187.677 94.4477H184.954L184.382 96.0096H182.418L185.172 88.6909ZM186.357 90.2011H186.335L185.401 93.0639H187.219L186.357 90.2011Z" fill="white"/>
<path fill-rule="evenodd" clip-rule="evenodd" d="M190.605 88.6909H193.068L195.521 93.6613H195.541L195.511 88.6909H197.278V96.0096H194.877L192.341 91.0083H192.321L192.383 96.0096H190.605V88.6909Z" fill="white"/>
<path fill-rule="evenodd" clip-rule="evenodd" d="M197.934 88.6909H199.866V91.6801H199.887L202.069 88.6909H204.398L201.716 92.0985L204.606 96.0096H202.142L199.887 92.686H199.866V96.0096H197.934V88.6909Z" fill="white"/>
<path fill-rule="evenodd" clip-rule="evenodd" d="M207 88.6909H210.336C211.687 88.6909 212.695 89.2887 212.695 90.5471C212.695 91.4697 212.229 91.9836 211.418 92.2558V92.2766C212.384 92.4763 212.883 93.0007 212.883 93.8914C212.883 95.6429 211.355 96.0096 210.056 96.0096H207V88.6909ZM208.933 91.585H209.473C210.108 91.585 210.762 91.4276 210.762 90.8085C210.762 90.1383 210.139 90.0747 209.495 90.0747H208.933V91.585ZM208.933 94.6258H209.505C210.211 94.6258 210.95 94.5208 210.95 93.7762C210.95 92.98 210.191 92.9059 209.526 92.9059H208.933V94.6258Z" fill="white"/>
<path fill-rule="evenodd" clip-rule="evenodd" d="M213.312 88.6909H216.763C218.051 88.6909 219.102 89.2778 219.102 90.5369C219.102 91.5119 218.644 92.162 217.709 92.3819V92.4026C218.331 92.5708 218.374 93.1261 218.738 94.0175L219.444 96.0096H217.429L217.013 94.6893C216.617 93.4309 216.368 93.1156 215.651 93.1156H215.245V96.0096H213.312V88.6909ZM215.245 91.7318H215.755C216.378 91.7318 217.169 91.7104 217.169 90.8822C217.169 90.2011 216.492 90.0747 215.755 90.0747H215.245V91.7318Z" fill="white"/>
<mask id="mask0_1393_3716" style="mask-type:alpha" maskUnits="userSpaceOnUse" x="160" y="85" width="62" height="15">
<path fill-rule="evenodd" clip-rule="evenodd" d="M160 99.7057H221.91V85H160V99.7057Z" fill="white"/>
</mask>
<g mask="url(#mask0_1393_3716)">
<path fill-rule="evenodd" clip-rule="evenodd" d="M219.977 96.0096H221.909V88.6909H219.977V96.0096Z" fill="white"/>
<path fill-rule="evenodd" clip-rule="evenodd" d="M172.34 85H162.223C160.995 85 160 86.0293 160 87.2991V87.3234V97.4072C160 98.6647 160.977 99.6869 162.189 99.7057H172.335C173.563 99.7057 174.559 98.6765 174.559 97.4072L174.564 87.2991C174.564 86.0293 173.569 85 172.34 85ZM163.426 98.5274L162.874 98.5335C162.206 98.5335 161.665 97.9798 161.665 97.2965L161.661 97.1991V87.864L161.665 87.3614C161.69 86.7001 162.188 86.1678 162.84 86.1678H163.962C164.979 86.1678 165.803 87.0598 165.803 88.1123C165.803 88.6326 165.601 89.1049 165.274 89.4483L162.411 92.379L165.094 95.1355C165.44 95.4952 165.649 95.9682 165.649 96.4862C165.649 97.6137 164.654 98.5274 163.426 98.5274ZM171.675 98.5182L166.672 98.516C166.672 98.516 167.251 97.2547 167.251 96.474C167.251 95.5223 166.935 94.6718 166.441 94.1091L164.73 92.3494L166.477 90.5289C166.997 90.0359 167.342 89.1607 167.342 88.164C167.342 87.3748 167.126 86.6755 166.777 86.1678H167.989C169.006 86.1678 169.831 87.0598 169.831 88.1123C169.831 88.6326 169.629 89.1049 169.302 89.4483L166.494 92.3484L172.326 98.3487C172.141 98.4662 171.908 98.5182 171.675 98.5182ZM172.896 96.6448L168.717 92.3471L170.707 90.3059C171.113 89.7949 171.37 89.0248 171.37 88.164C171.37 87.3697 171.15 86.6535 170.799 86.1454L171.69 86.1722C172.358 86.1722 172.899 86.7269 172.899 87.4099L172.896 96.6448Z" fill="white"/>
</g>
<defs>
<linearGradient id="paint0_linear_1393_3716" x1="184.195" y1="32.9897" x2="220.917" y2="32.9897" gradientUnits="userSpaceOnUse">
<stop stop-color="#FFCA06"/>
<stop offset="0.330844" stop-color="#FBAA18"/>
<stop offset="0.694742" stop-color="#FFC907"/>
<stop offset="1" stop-color="#FAA619"/>
</linearGradient>
</defs>
</svg>
