<svg width="260" height="226" viewBox="0 0 260 226" fill="none" xmlns="http://www.w3.org/2000/svg">
<g filter="url(#filter0_d_1329_3686)">
<rect x="54" y="45" width="152" height="118" rx="25" fill="#FF8BB5"/>
<path d="M71.6461 136.667H74.5172C74.973 136.667 75.3421 136.535 75.6246 136.271C75.9118 136.006 76.0553 135.651 76.0553 135.204C76.0553 134.753 75.9118 134.395 75.6246 134.131C75.3421 133.862 74.973 133.728 74.5172 133.728H71.6461V136.667ZM70.1764 138V128.197H74.4762C75.4013 128.197 76.1168 128.441 76.6227 128.929C77.1331 129.412 77.3883 130.079 77.3883 130.932C77.3883 131.406 77.2721 131.829 77.0397 132.203C76.8118 132.577 76.5065 132.853 76.1237 133.03C76.5338 133.217 76.8688 133.509 77.1286 133.905C77.3929 134.302 77.525 134.757 77.525 135.272C77.525 136.12 77.2698 136.788 76.7594 137.275C76.2536 137.758 75.5381 138 74.6129 138H70.1764ZM71.6461 132.47H74.3737C74.8294 132.47 75.2008 132.338 75.4879 132.073C75.775 131.804 75.9186 131.447 75.9186 131C75.9186 130.553 75.775 130.198 75.4879 129.934C75.2054 129.665 74.834 129.53 74.3737 129.53H71.6461V132.47ZM79.1523 138V130.583H80.4853V138H79.1523ZM79.8222 129.742C79.5625 129.742 79.3506 129.66 79.1865 129.496C79.0224 129.332 78.9404 129.125 78.9404 128.874C78.9404 128.614 79.0224 128.402 79.1865 128.238C79.3506 128.074 79.5625 127.992 79.8222 127.992C80.0729 127.992 80.2803 128.074 80.4443 128.238C80.6084 128.398 80.6904 128.61 80.6904 128.874C80.6904 129.125 80.6084 129.332 80.4443 129.496C80.2803 129.66 80.0729 129.742 79.8222 129.742ZM82.3792 138V128.197H83.7122V138H82.3792ZM85.6881 138V128.197H87.0211V138H85.6881ZM91.3828 138.137C90.5989 138.137 89.9359 137.936 89.3935 137.535C88.8512 137.134 88.5094 136.612 88.3681 135.97H89.8379C90.0247 136.576 90.5397 136.879 91.3828 136.879C91.916 136.879 92.317 136.792 92.5859 136.619C92.8548 136.446 92.9892 136.229 92.9892 135.97C92.9892 135.719 92.8821 135.519 92.668 135.368C92.4538 135.218 92.1849 135.113 91.8613 135.054C91.5423 134.994 91.1959 134.915 90.8223 134.814C90.4486 134.71 90.0999 134.591 89.7764 134.459C89.4528 134.327 89.1839 134.104 88.9697 133.789C88.7555 133.47 88.6484 133.078 88.6484 132.613C88.6484 131.998 88.8877 131.483 89.3662 131.068C89.8493 130.649 90.4964 130.439 91.3076 130.439C92.0641 130.439 92.709 130.626 93.2422 131C93.7754 131.374 94.1103 131.864 94.2471 132.47H92.7773C92.5176 131.955 92.0277 131.697 91.3076 131.697C90.4189 131.697 89.9769 132.003 89.9814 132.613C89.9814 132.864 90.0885 133.067 90.3027 133.222C90.5169 133.372 90.7835 133.479 91.1025 133.543C91.4261 133.602 91.7747 133.687 92.1484 133.796C92.5221 133.901 92.8685 134.019 93.1875 134.151C93.5111 134.279 93.7799 134.5 93.9941 134.814C94.2129 135.129 94.3223 135.514 94.3223 135.97C94.3223 136.585 94.0602 137.1 93.5361 137.515C93.0166 137.929 92.2988 138.137 91.3828 138.137ZM101.214 136.879C102.007 136.879 102.729 136.553 103.381 135.901L101.138 133.728L100.653 134.083C100.047 134.511 99.7415 135.001 99.737 135.553C99.737 135.954 99.8828 136.275 100.174 136.517C100.466 136.758 100.812 136.879 101.214 136.879ZM101.282 138.137C100.329 138.137 99.5889 137.902 99.0602 137.433C98.5316 136.963 98.2672 136.359 98.2672 135.621C98.2672 135.106 98.3835 134.666 98.6159 134.302C98.8529 133.937 99.2038 133.584 99.6686 133.242L100.229 132.818L99.8122 132.401C99.484 132.073 99.2379 131.766 99.0739 131.479C98.9098 131.187 98.8278 130.84 98.8278 130.439C98.8278 129.779 99.0739 129.218 99.5661 128.758C100.063 128.293 100.703 128.061 101.487 128.061C102.28 128.061 102.909 128.282 103.374 128.724C103.843 129.166 104.078 129.738 104.078 130.439C104.078 131.278 103.636 131.978 102.752 132.538L102.191 132.887L104.29 134.992L105.479 133.803H107.298L105.267 135.901L107.373 138H105.479L104.358 136.879C104.039 137.13 103.77 137.328 103.551 137.474C103.333 137.619 103.014 137.768 102.594 137.918C102.175 138.064 101.738 138.137 101.282 138.137ZM101.282 132.121L101.911 131.629C102.426 131.237 102.683 130.84 102.683 130.439C102.683 130.111 102.574 129.842 102.355 129.633C102.141 129.423 101.852 129.318 101.487 129.318C101.104 129.318 100.799 129.423 100.571 129.633C100.343 129.842 100.229 130.134 100.229 130.508C100.229 130.882 100.439 131.278 100.858 131.697L101.282 132.121ZM110.75 138V128.197H112.083V138H110.75ZM119.562 137.118C118.938 137.797 118.106 138.137 117.067 138.137C116.033 138.137 115.203 137.797 114.579 137.118C113.954 136.435 113.642 135.491 113.642 134.288C113.642 133.085 113.954 132.144 114.579 131.465C115.203 130.781 116.033 130.439 117.067 130.439C118.106 130.439 118.938 130.781 119.562 131.465C120.187 132.144 120.499 133.085 120.499 134.288C120.499 135.491 120.187 136.435 119.562 137.118ZM115.549 136.216C115.937 136.658 116.443 136.879 117.067 136.879C117.696 136.879 118.204 136.658 118.591 136.216C118.979 135.774 119.173 135.133 119.173 134.295C119.173 133.452 118.979 132.809 118.591 132.367C118.204 131.921 117.696 131.697 117.067 131.697C116.443 131.697 115.937 131.921 115.549 132.367C115.162 132.809 114.968 133.452 114.968 134.295C114.968 135.133 115.162 135.774 115.549 136.216ZM124.3 136.947C124.915 136.947 125.407 136.779 125.776 136.441C126.146 136.1 126.33 135.662 126.33 135.129V134.712H124.368C123.885 134.712 123.518 134.812 123.268 135.013C123.021 135.213 122.898 135.487 122.898 135.833C122.898 136.175 123.021 136.446 123.268 136.646C123.518 136.847 123.862 136.947 124.3 136.947ZM124.088 138.137C123.34 138.137 122.734 137.913 122.27 137.467C121.805 137.02 121.572 136.476 121.572 135.833C121.572 135.172 121.818 134.623 122.311 134.186C122.807 133.743 123.493 133.522 124.368 133.522H126.33V133.167C126.33 132.711 126.184 132.354 125.893 132.094C125.605 131.829 125.214 131.697 124.717 131.697C124.316 131.697 123.99 131.784 123.739 131.957C123.489 132.13 123.325 132.349 123.247 132.613H121.853C121.994 131.998 122.326 131.483 122.851 131.068C123.379 130.649 124.001 130.439 124.717 130.439C125.642 130.439 126.364 130.69 126.884 131.191C127.403 131.688 127.663 132.347 127.663 133.167V138H126.542L126.398 137.091H126.33C126.171 137.36 125.888 137.601 125.482 137.815C125.077 138.03 124.612 138.137 124.088 138.137ZM129.427 138V130.583H130.48L130.685 131.561H130.76C131.216 130.813 131.915 130.439 132.859 130.439C133.67 130.439 134.326 130.715 134.827 131.267C135.333 131.818 135.586 132.545 135.586 133.447V138H134.26V133.522C134.26 132.944 134.105 132.495 133.795 132.176C133.49 131.857 133.084 131.697 132.578 131.697C132.063 131.697 131.631 131.877 131.28 132.237C130.933 132.597 130.76 133.026 130.76 133.522V138H129.427ZM139.811 138.137C139.027 138.137 138.364 137.936 137.822 137.535C137.28 137.134 136.938 136.612 136.797 135.97H138.266C138.453 136.576 138.968 136.879 139.811 136.879C140.344 136.879 140.745 136.792 141.014 136.619C141.283 136.446 141.418 136.229 141.418 135.97C141.418 135.719 141.311 135.519 141.096 135.368C140.882 135.218 140.613 135.113 140.29 135.054C139.971 134.994 139.624 134.915 139.251 134.814C138.877 134.71 138.528 134.591 138.205 134.459C137.881 134.327 137.612 134.104 137.398 133.789C137.184 133.47 137.077 133.078 137.077 132.613C137.077 131.998 137.316 131.483 137.795 131.068C138.278 130.649 138.925 130.439 139.736 130.439C140.493 130.439 141.137 130.626 141.671 131C142.204 131.374 142.539 131.864 142.675 132.47H141.206C140.946 131.955 140.456 131.697 139.736 131.697C138.847 131.697 138.405 132.003 138.41 132.613C138.41 132.864 138.517 133.067 138.731 133.222C138.945 133.372 139.212 133.479 139.531 133.543C139.854 133.602 140.203 133.687 140.577 133.796C140.951 133.901 141.297 134.019 141.616 134.151C141.939 134.279 142.208 134.5 142.423 134.814C142.641 135.129 142.751 135.514 142.751 135.97C142.751 136.585 142.489 137.1 141.965 137.515C141.445 137.929 140.727 138.137 139.811 138.137ZM149.71 138C149.122 138 148.648 137.818 148.288 137.453C147.928 137.089 147.748 136.617 147.748 136.038V131.841H146.559V130.583H147.748L147.96 128.621H149.081V130.583H150.9V131.841H149.081V135.901C149.081 136.152 149.147 136.355 149.28 136.51C149.416 136.665 149.605 136.742 149.847 136.742H150.9V138H149.71ZM152.383 138V130.583H153.436L153.641 131.561H153.716C154.108 130.909 154.737 130.583 155.603 130.583H156.444V131.841H155.672C155.084 131.841 154.61 132.012 154.25 132.354C153.894 132.691 153.716 133.126 153.716 133.659V138H152.383ZM159.753 136.947C160.368 136.947 160.86 136.779 161.23 136.441C161.599 136.1 161.783 135.662 161.783 135.129V134.712H159.821C159.338 134.712 158.971 134.812 158.721 135.013C158.475 135.213 158.352 135.487 158.352 135.833C158.352 136.175 158.475 136.446 158.721 136.646C158.971 136.847 159.315 136.947 159.753 136.947ZM159.541 138.137C158.794 138.137 158.188 137.913 157.723 137.467C157.258 137.02 157.025 136.476 157.025 135.833C157.025 135.172 157.271 134.623 157.764 134.186C158.26 133.743 158.946 133.522 159.821 133.522H161.783V133.167C161.783 132.711 161.637 132.354 161.346 132.094C161.059 131.829 160.667 131.697 160.17 131.697C159.769 131.697 159.443 131.784 159.192 131.957C158.942 132.13 158.778 132.349 158.7 132.613H157.306C157.447 131.998 157.78 131.483 158.304 131.068C158.832 130.649 159.454 130.439 160.17 130.439C161.095 130.439 161.817 130.69 162.337 131.191C162.856 131.688 163.116 132.347 163.116 133.167V138H161.995L161.852 137.091H161.783C161.624 137.36 161.341 137.601 160.936 137.815C160.53 138.03 160.065 138.137 159.541 138.137ZM168.032 138.137C166.97 138.137 166.12 137.797 165.482 137.118C164.848 136.435 164.532 135.491 164.532 134.288C164.532 133.085 164.848 132.144 165.482 131.465C166.115 130.781 166.965 130.439 168.032 130.439C168.815 130.439 169.483 130.642 170.035 131.048C170.586 131.453 170.969 131.998 171.183 132.682H169.782C169.417 132.03 168.834 131.702 168.032 131.697C167.389 131.697 166.865 131.925 166.459 132.381C166.058 132.832 165.858 133.47 165.858 134.295C165.858 135.115 166.058 135.751 166.459 136.202C166.865 136.653 167.389 136.879 168.032 136.879C168.834 136.879 169.417 136.553 169.782 135.901H171.183C170.969 136.585 170.586 137.13 170.035 137.535C169.483 137.936 168.815 138.137 168.032 138.137ZM172.66 138V128.197H173.993V134.008L177.213 130.583H178.894L175.463 134.22L179.099 138H177.424L173.993 134.432V138H172.66ZM182.825 138.137C181.763 138.137 180.913 137.797 180.275 137.118C179.642 136.435 179.325 135.491 179.325 134.288C179.325 133.085 179.637 132.144 180.262 131.465C180.886 130.781 181.718 130.439 182.757 130.439C183.81 130.439 184.644 130.795 185.259 131.506C185.874 132.212 186.182 133.023 186.182 133.939L186.113 134.712H180.713C180.749 135.405 180.959 135.94 181.342 136.318C181.725 136.692 182.219 136.879 182.825 136.879C183.591 136.879 184.174 136.576 184.575 135.97H186.045C185.794 136.621 185.389 137.146 184.828 137.542C184.268 137.938 183.6 138.137 182.825 138.137ZM180.713 133.591H184.814C184.732 132.994 184.509 132.529 184.145 132.196C183.78 131.864 183.317 131.697 182.757 131.697C182.196 131.697 181.734 131.864 181.369 132.196C181.005 132.529 180.786 132.994 180.713 133.591ZM187.672 138V130.583H188.725L188.93 131.561H189.005C189.397 130.909 190.026 130.583 190.892 130.583H191.733V131.841H190.96C190.372 131.841 189.898 132.012 189.538 132.354C189.183 132.691 189.005 133.126 189.005 133.659V138H187.672Z" fill="black"/>
<path d="M125 85H130C130.53 85 131.039 84.7893 131.414 84.4142C131.789 84.0392 132 83.5304 132 83C132 82.4696 131.789 81.9609 131.414 81.5858C131.039 81.2107 130.53 81 130 81H128V80C128 79.4696 127.789 78.9609 127.414 78.5858C127.039 78.2107 126.53 78 126 78C125.47 78 124.961 78.2107 124.586 78.5858C124.211 78.9609 124 79.4696 124 80V81.1C122.785 81.3468 121.705 82.0362 120.969 83.0345C120.234 84.0329 119.896 85.2688 120.02 86.5025C120.145 87.7362 120.723 88.8795 121.644 89.7106C122.564 90.5417 123.76 91.0013 125 91H127C127.265 91 127.52 91.1054 127.707 91.2929C127.895 91.4804 128 91.7348 128 92C128 92.2652 127.895 92.5196 127.707 92.7071C127.52 92.8947 127.265 93 127 93H122C121.47 93 120.961 93.2107 120.586 93.5858C120.211 93.9609 120 94.4696 120 95C120 95.5304 120.211 96.0392 120.586 96.4142C120.961 96.7893 121.47 97 122 97H124V98C124 98.5304 124.211 99.0392 124.586 99.4142C124.961 99.7893 125.47 100 126 100C126.53 100 127.039 99.7893 127.414 99.4142C127.789 99.0392 128 98.5304 128 98V96.9C129.215 96.6533 130.295 95.9638 131.031 94.9655C131.766 93.9672 132.104 92.7312 131.98 91.4975C131.855 90.2638 131.277 89.1205 130.356 88.2894C129.436 87.4583 128.24 86.9988 127 87H125C124.735 87 124.48 86.8947 124.293 86.7071C124.105 86.5196 124 86.2652 124 86C124 85.7348 124.105 85.4804 124.293 85.2929C124.48 85.1054 124.735 85 125 85ZM148 88H142V70C142.001 69.6476 141.91 69.3011 141.734 68.9955C141.558 68.69 141.305 68.4362 141 68.26C140.696 68.0845 140.351 67.9921 140 67.9921C139.649 67.9921 139.304 68.0845 139 68.26L133 71.7L127 68.26C126.696 68.0845 126.351 67.9921 126 67.9921C125.649 67.9921 125.304 68.0845 125 68.26L119 71.7L113 68.26C112.696 68.0845 112.351 67.9921 112 67.9921C111.649 67.9921 111.304 68.0845 111 68.26C110.695 68.4362 110.442 68.69 110.266 68.9955C110.09 69.3011 109.999 69.6476 110 70V102C110 103.591 110.632 105.117 111.757 106.243C112.883 107.368 114.409 108 116 108H144C145.591 108 147.117 107.368 148.243 106.243C149.368 105.117 150 103.591 150 102V90C150 89.4696 149.789 88.9609 149.414 88.5858C149.039 88.2107 148.53 88 148 88ZM116 104C115.47 104 114.961 103.789 114.586 103.414C114.211 103.039 114 102.53 114 102V73.46L118 75.74C118.309 75.9012 118.652 75.9854 119 75.9854C119.348 75.9854 119.691 75.9012 120 75.74L126 72.3L132 75.74C132.309 75.9012 132.652 75.9854 133 75.9854C133.348 75.9854 133.691 75.9012 134 75.74L138 73.46V102C138.005 102.682 138.127 103.359 138.36 104H116ZM146 102C146 102.53 145.789 103.039 145.414 103.414C145.039 103.789 144.53 104 144 104C143.47 104 142.961 103.789 142.586 103.414C142.211 103.039 142 102.53 142 102V92H146V102Z" fill="black"/>
</g>
<defs>
<filter id="filter0_d_1329_3686" x="0" y="0" width="260" height="226" filterUnits="userSpaceOnUse" color-interpolation-filters="sRGB">
<feFlood flood-opacity="0" result="BackgroundImageFix"/>
<feColorMatrix in="SourceAlpha" type="matrix" values="0 0 0 0 0 0 0 0 0 0 0 0 0 0 0 0 0 0 127 0" result="hardAlpha"/>
<feMorphology radius="8" operator="dilate" in="SourceAlpha" result="effect1_dropShadow_1329_3686"/>
<feOffset dy="9"/>
<feGaussianBlur stdDeviation="23"/>
<feComposite in2="hardAlpha" operator="out"/>
<feColorMatrix type="matrix" values="0 0 0 0 0 0 0 0 0 0 0 0 0 0 0 0 0 0 0.14 0"/>
<feBlend mode="normal" in2="BackgroundImageFix" result="effect1_dropShadow_1329_3686"/>
<feBlend mode="normal" in="SourceGraphic" in2="effect1_dropShadow_1329_3686" result="shape"/>
</filter>
</defs>
</svg>
