<svg width="45" height="45" viewBox="0 0 45 45" fill="none" xmlns="http://www.w3.org/2000/svg">
<path d="M37.7344 12.6562H31.875V9.14062C31.875 7.19971 30.3003 5.625 28.3594 5.625H16.6406C14.6997 5.625 13.125 7.19971 13.125 9.14062V12.6562H7.26562C5.32471 12.6562 3.75 14.231 3.75 16.1719V37.2656C3.75 39.2065 5.32471 40.7812 7.26562 40.7812H37.7344C39.6753 40.7812 41.25 39.2065 41.25 37.2656V16.1719C41.25 14.231 39.6753 12.6562 37.7344 12.6562ZM16.6406 9.14062H28.3594V12.6562H16.6406V9.14062ZM30.7031 28.623C30.7031 29.2702 30.1784 29.7949 29.5312 29.7949H25.5762V33.75C25.5762 34.3972 25.0515 34.9219 24.4702 34.9219H20.6616C20.0145 34.9219 19.4897 34.3972 19.4897 33.75V29.8608H15.4688C14.8216 29.8608 14.2969 29.3361 14.2969 28.689V24.8804C14.2969 24.2331 14.8216 23.7085 15.4688 23.7085H19.3579V19.6875C19.3579 19.0402 19.8827 18.5156 20.5298 18.5156H24.3384C24.9855 18.5156 25.4443 19.0402 25.4443 19.6875V23.6426H29.5312C30.1784 23.6426 30.7031 24.1671 30.7031 24.8145V28.623Z" fill="white"/>
</svg>
