<svg width="260" height="226" viewBox="0 0 260 226" fill="none" xmlns="http://www.w3.org/2000/svg">
<g filter="url(#filter0_d_1329_3664)">
<rect x="54" y="45" width="152" height="118" rx="25" fill="#FFD8AD"/>
<path d="M69.5343 138V128.197H73.3146C74.2853 128.197 75.076 128.493 75.6867 129.086C76.2973 129.678 76.6027 130.433 76.6027 131.349C76.6027 132.265 76.2973 133.019 75.6867 133.611C75.076 134.204 74.2853 134.5 73.3146 134.5H71.004V138H69.5343ZM71.004 133.167H73.2462C73.8341 133.167 74.2944 133.005 74.6271 132.682C74.9643 132.354 75.133 131.909 75.133 131.349C75.133 130.788 74.9643 130.346 74.6271 130.022C74.2944 129.694 73.8341 129.53 73.2462 129.53H71.004V133.167ZM80.7456 138.137C79.6837 138.137 78.8338 137.797 78.1958 137.118C77.5623 136.435 77.2456 135.491 77.2456 134.288C77.2456 133.085 77.5578 132.144 78.1821 131.465C78.8065 130.781 79.6382 130.439 80.6772 130.439C81.73 130.439 82.5639 130.795 83.1792 131.506C83.7944 132.212 84.102 133.023 84.102 133.939L84.0337 134.712H78.6333C78.6697 135.405 78.8794 135.94 79.2622 136.318C79.645 136.692 80.1395 136.879 80.7456 136.879C81.5112 136.879 82.0945 136.576 82.4956 135.97H83.9653C83.7147 136.621 83.3091 137.146 82.7485 137.542C82.188 137.938 81.5203 138.137 80.7456 138.137ZM78.6333 133.591H82.7348C82.6528 132.994 82.4295 132.529 82.0649 132.196C81.7003 131.864 81.2378 131.697 80.6772 131.697C80.1167 131.697 79.6541 131.864 79.2895 132.196C78.9249 132.529 78.7062 132.994 78.6333 133.591ZM85.5926 138V130.583H86.6453L86.8504 131.561H86.9256C87.3175 130.909 87.9464 130.583 88.8123 130.583H89.6531V131.841H88.8807C88.2928 131.841 87.8188 132.012 87.4588 132.354C87.1033 132.691 86.9256 133.126 86.9256 133.659V138H85.5926ZM93.1056 138.137C92.3218 138.137 91.6587 137.936 91.1164 137.535C90.574 137.134 90.2322 136.612 90.091 135.97H91.5607C91.7475 136.576 92.2625 136.879 93.1056 136.879C93.6388 136.879 94.0399 136.792 94.3087 136.619C94.5776 136.446 94.7121 136.229 94.7121 135.97C94.7121 135.719 94.605 135.519 94.3908 135.368C94.1766 135.218 93.9077 135.113 93.5841 135.054C93.2651 134.994 92.9188 134.915 92.5451 134.814C92.1714 134.71 91.8227 134.591 91.4992 134.459C91.1756 134.327 90.9067 134.104 90.6925 133.789C90.4783 133.47 90.3712 133.078 90.3712 132.613C90.3712 131.998 90.6105 131.483 91.089 131.068C91.5721 130.649 92.2192 130.439 93.0304 130.439C93.7869 130.439 94.4318 130.626 94.965 131C95.4982 131.374 95.8332 131.864 95.9699 132.47H94.5001C94.2404 131.955 93.7505 131.697 93.0304 131.697C92.1418 131.697 91.6997 132.003 91.7043 132.613C91.7043 132.864 91.8113 133.067 92.0255 133.222C92.2397 133.372 92.5063 133.479 92.8253 133.543C93.1489 133.602 93.4975 133.687 93.8712 133.796C94.2449 133.901 94.5913 134.019 94.9103 134.151C95.2339 134.279 95.5028 134.5 95.7169 134.814C95.9357 135.129 96.0451 135.514 96.0451 135.97C96.0451 136.585 95.783 137.1 95.2589 137.515C94.7394 137.929 94.0216 138.137 93.1056 138.137ZM102.963 137.118C102.339 137.797 101.507 138.137 100.468 138.137C99.4337 138.137 98.6043 137.797 97.98 137.118C97.3556 136.435 97.0434 135.491 97.0434 134.288C97.0434 133.085 97.3556 132.144 97.98 131.465C98.6043 130.781 99.4337 130.439 100.468 130.439C101.507 130.439 102.339 130.781 102.963 131.465C103.588 132.144 103.9 133.085 103.9 134.288C103.9 135.491 103.588 136.435 102.963 137.118ZM98.9507 136.216C99.338 136.658 99.8439 136.879 100.468 136.879C101.097 136.879 101.605 136.658 101.993 136.216C102.38 135.774 102.574 135.133 102.574 134.295C102.574 133.452 102.38 132.809 101.993 132.367C101.605 131.921 101.097 131.697 100.468 131.697C99.8439 131.697 99.338 131.921 98.9507 132.367C98.5633 132.809 98.3696 133.452 98.3696 134.295C98.3696 135.133 98.5633 135.774 98.9507 136.216ZM105.39 138V130.583H106.443L106.648 131.561H106.723C107.179 130.813 107.879 130.439 108.822 130.439C109.633 130.439 110.29 130.715 110.791 131.267C111.297 131.818 111.55 132.545 111.55 133.447V138H110.223V133.522C110.223 132.944 110.069 132.495 109.759 132.176C109.453 131.857 109.048 131.697 108.542 131.697C108.027 131.697 107.594 131.877 107.243 132.237C106.897 132.597 106.723 133.026 106.723 133.522V138H105.39ZM115.631 136.947C116.246 136.947 116.738 136.779 117.108 136.441C117.477 136.1 117.661 135.662 117.661 135.129V134.712H115.699C115.216 134.712 114.849 134.812 114.599 135.013C114.353 135.213 114.23 135.487 114.23 135.833C114.23 136.175 114.353 136.446 114.599 136.646C114.849 136.847 115.194 136.947 115.631 136.947ZM115.419 138.137C114.672 138.137 114.066 137.913 113.601 137.467C113.136 137.02 112.903 136.476 112.903 135.833C112.903 135.172 113.15 134.623 113.642 134.186C114.139 133.743 114.824 133.522 115.699 133.522H117.661V133.167C117.661 132.711 117.515 132.354 117.224 132.094C116.937 131.829 116.545 131.697 116.048 131.697C115.647 131.697 115.321 131.784 115.07 131.957C114.82 132.13 114.656 132.349 114.578 132.613H113.184C113.325 131.998 113.658 131.483 114.182 131.068C114.71 130.649 115.333 130.439 116.048 130.439C116.973 130.439 117.695 130.69 118.215 131.191C118.735 131.688 118.994 132.347 118.994 133.167V138H117.873L117.73 137.091H117.661C117.502 137.36 117.219 137.601 116.814 137.815C116.408 138.03 115.943 138.137 115.419 138.137ZM120.827 138V128.197H122.16V138H120.827ZM128.839 136.667H131.71C132.166 136.667 132.535 136.535 132.818 136.271C133.105 136.006 133.248 135.651 133.248 135.204C133.248 134.753 133.105 134.395 132.818 134.131C132.535 133.862 132.166 133.728 131.71 133.728H128.839V136.667ZM127.369 138V128.197H131.669C132.594 128.197 133.31 128.441 133.816 128.929C134.326 129.412 134.581 130.079 134.581 130.932C134.581 131.406 134.465 131.829 134.233 132.203C134.005 132.577 133.699 132.853 133.317 133.03C133.727 133.217 134.062 133.509 134.321 133.905C134.586 134.302 134.718 134.757 134.718 135.272C134.718 136.12 134.463 136.788 133.952 137.275C133.446 137.758 132.731 138 131.806 138H127.369ZM128.839 132.47H131.567C132.022 132.47 132.394 132.338 132.681 132.073C132.968 131.804 133.111 131.447 133.111 131C133.111 130.553 132.968 130.198 132.681 129.934C132.398 129.665 132.027 129.53 131.567 129.53H128.839V132.47ZM139.073 138.137C138.262 138.137 137.603 137.863 137.097 137.316C136.596 136.765 136.345 136.036 136.345 135.129V130.583H137.678V135.061C137.678 135.639 137.831 136.088 138.136 136.407C138.446 136.722 138.852 136.879 139.353 136.879C139.868 136.879 140.301 136.699 140.652 136.339C141.003 135.979 141.178 135.553 141.178 135.061V130.583H142.504V138H141.458L141.247 137.022H141.178C140.718 137.765 140.016 138.137 139.073 138.137ZM147.351 136.879C147.976 136.879 148.482 136.658 148.869 136.216C149.261 135.774 149.457 135.133 149.457 134.295C149.457 133.452 149.263 132.809 148.876 132.367C148.488 131.921 147.98 131.697 147.351 131.697C146.736 131.697 146.244 131.918 145.875 132.36C145.506 132.798 145.321 133.443 145.321 134.295C145.321 135.143 145.506 135.785 145.875 136.223C146.244 136.66 146.736 136.879 147.351 136.879ZM147.146 138.137C146.203 138.137 145.442 137.802 144.863 137.132C144.284 136.462 143.995 135.514 143.995 134.288C143.995 133.058 144.289 132.11 144.877 131.444C145.465 130.774 146.244 130.439 147.215 130.439C148.14 130.439 148.862 130.79 149.382 131.492H149.457V128.197H150.783V138H149.737L149.525 137.022H149.457C148.878 137.765 148.108 138.137 147.146 138.137ZM155.835 140.803C154.997 140.803 154.288 140.6 153.709 140.194C153.13 139.793 152.718 139.226 152.472 138.492H153.873C154.151 139.194 154.805 139.543 155.835 139.538C156.45 139.538 156.931 139.39 157.278 139.094C157.624 138.802 157.797 138.367 157.797 137.788V136.599H157.722C157.225 137.25 156.48 137.578 155.486 137.583C154.552 137.583 153.793 137.271 153.21 136.646C152.627 136.018 152.335 135.143 152.335 134.021C152.335 132.891 152.627 132.012 153.21 131.383C153.793 130.754 154.552 130.439 155.486 130.439C155.97 130.439 156.412 130.544 156.813 130.754C157.214 130.964 157.542 131.232 157.797 131.561H157.865L158.077 130.583H159.123V137.788C159.123 138.741 158.836 139.481 158.262 140.01C157.688 140.538 156.879 140.803 155.835 140.803ZM155.692 136.318C156.307 136.318 156.81 136.113 157.202 135.703C157.599 135.293 157.797 134.732 157.797 134.021C157.797 133.301 157.601 132.734 157.209 132.319C156.817 131.905 156.311 131.697 155.692 131.697C155.085 131.697 154.596 131.905 154.222 132.319C153.848 132.729 153.661 133.297 153.661 134.021C153.661 134.742 153.848 135.304 154.222 135.71C154.596 136.116 155.085 136.318 155.692 136.318ZM164.107 138.137C163.045 138.137 162.195 137.797 161.557 137.118C160.924 136.435 160.607 135.491 160.607 134.288C160.607 133.085 160.919 132.144 161.543 131.465C162.168 130.781 163 130.439 164.039 130.439C165.091 130.439 165.925 130.795 166.541 131.506C167.156 132.212 167.463 133.023 167.463 133.939L167.395 134.712H161.995C162.031 135.405 162.241 135.94 162.624 136.318C163.006 136.692 163.501 136.879 164.107 136.879C164.873 136.879 165.456 136.576 165.857 135.97H167.327C167.076 136.621 166.67 137.146 166.11 137.542C165.549 137.938 164.882 138.137 164.107 138.137ZM161.995 133.591H166.096C166.014 132.994 165.791 132.529 165.426 132.196C165.062 131.864 164.599 131.697 164.039 131.697C163.478 131.697 163.015 131.864 162.651 132.196C162.286 132.529 162.068 132.994 161.995 133.591ZM171.476 138C170.889 138 170.415 137.818 170.055 137.453C169.695 137.089 169.514 136.617 169.514 136.038V131.841H168.325V130.583H169.514L169.726 128.621H170.848V130.583H172.666V131.841H170.848V135.901C170.848 136.152 170.914 136.355 171.046 136.51C171.182 136.665 171.372 136.742 171.613 136.742H172.666V138H171.476ZM174.15 138V130.583H175.483V138H174.15ZM174.82 129.742C174.56 129.742 174.348 129.66 174.184 129.496C174.02 129.332 173.938 129.125 173.938 128.874C173.938 128.614 174.02 128.402 174.184 128.238C174.348 128.074 174.56 127.992 174.82 127.992C175.07 127.992 175.278 128.074 175.442 128.238C175.606 128.398 175.688 128.61 175.688 128.874C175.688 129.125 175.606 129.332 175.442 129.496C175.278 129.66 175.07 129.742 174.82 129.742ZM177.308 138V130.583H178.361L178.566 131.561H178.641C179.097 130.813 179.796 130.439 180.74 130.439C181.551 130.439 182.207 130.715 182.709 131.267C183.214 131.818 183.467 132.545 183.467 133.447V138H182.141V133.522C182.141 132.944 181.986 132.495 181.676 132.176C181.371 131.857 180.965 131.697 180.459 131.697C179.945 131.697 179.512 131.877 179.161 132.237C178.814 132.597 178.641 133.026 178.641 133.522V138H177.308ZM188.39 140.803C187.551 140.803 186.842 140.6 186.264 140.194C185.685 139.793 185.272 139.226 185.026 138.492H186.428C186.706 139.194 187.36 139.543 188.39 139.538C189.005 139.538 189.486 139.39 189.832 139.094C190.178 138.802 190.351 138.367 190.351 137.788V136.599H190.276C189.779 137.25 189.034 137.578 188.041 137.583C187.107 137.583 186.348 137.271 185.765 136.646C185.181 136.018 184.89 135.143 184.89 134.021C184.89 132.891 185.181 132.012 185.765 131.383C186.348 130.754 187.107 130.439 188.041 130.439C188.524 130.439 188.966 130.544 189.367 130.754C189.768 130.964 190.096 131.232 190.351 131.561H190.42L190.632 130.583H191.678V137.788C191.678 138.741 191.39 139.481 190.816 140.01C190.242 140.538 189.433 140.803 188.39 140.803ZM188.246 136.318C188.861 136.318 189.365 136.113 189.757 135.703C190.153 135.293 190.351 134.732 190.351 134.021C190.351 133.301 190.155 132.734 189.764 132.319C189.372 131.905 188.866 131.697 188.246 131.697C187.64 131.697 187.15 131.905 186.776 132.319C186.403 132.729 186.216 133.297 186.216 134.021C186.216 134.742 186.403 135.304 186.776 135.71C187.15 136.116 187.64 136.318 188.246 136.318Z" fill="black"/>
<path d="M130 110.5C141.874 110.5 151.5 100.874 151.5 89C151.5 77.1259 141.874 67.5 130 67.5C118.126 67.5 108.5 77.1259 108.5 89C108.5 100.874 118.126 110.5 130 110.5Z" stroke="black" stroke-linecap="round" stroke-linejoin="round"/>
<path d="M130 101.5C136.904 101.5 142.5 95.9036 142.5 89C142.5 82.0964 136.904 76.5 130 76.5C123.096 76.5 117.5 82.0964 117.5 89C117.5 95.9036 123.096 101.5 130 101.5Z" stroke="black" stroke-linecap="round" stroke-linejoin="round"/>
<path d="M140.863 82.818L148.685 78.367M124.793 94.31C125.106 94.8267 125.561 95.2422 126.104 95.5065C126.648 95.7708 127.255 95.8727 127.855 95.8H129.868C130.821 95.7641 131.735 95.4097 132.463 94.7933C133.191 94.1769 133.691 93.3342 133.883 92.4C133.983 91.9871 133.987 91.5566 133.893 91.1421C133.799 90.7277 133.61 90.3406 133.342 90.0113C133.073 89.682 132.732 89.4193 132.345 89.2438C131.958 89.0684 131.536 88.9849 131.111 89H128.887C128.462 89.0151 128.04 88.9317 127.653 88.7562C127.266 88.5808 126.925 88.3181 126.656 87.9887C126.388 87.6594 126.199 87.2723 126.105 86.8579C126.011 86.4435 126.015 86.0129 126.115 85.6C126.307 84.6658 126.808 83.8231 127.535 83.2068C128.263 82.5904 129.177 82.2359 130.13 82.2H132.143C132.743 82.1273 133.351 82.2292 133.894 82.4935C134.437 82.7578 134.892 83.1733 135.205 83.69L124.793 94.31ZM131.242 82.2L131.553 80.5L131.242 82.2ZM128.445 97.5L128.756 95.8L128.445 97.5ZM129.999 101.5L129.999 110.499L129.999 101.5ZM119.193 82.716L111.414 78.192L119.193 82.716Z" stroke="black" stroke-linecap="round" stroke-linejoin="round"/>
</g>
<defs>
<filter id="filter0_d_1329_3664" x="0" y="0" width="260" height="226" filterUnits="userSpaceOnUse" color-interpolation-filters="sRGB">
<feFlood flood-opacity="0" result="BackgroundImageFix"/>
<feColorMatrix in="SourceAlpha" type="matrix" values="0 0 0 0 0 0 0 0 0 0 0 0 0 0 0 0 0 0 127 0" result="hardAlpha"/>
<feMorphology radius="8" operator="dilate" in="SourceAlpha" result="effect1_dropShadow_1329_3664"/>
<feOffset dy="9"/>
<feGaussianBlur stdDeviation="23"/>
<feComposite in2="hardAlpha" operator="out"/>
<feColorMatrix type="matrix" values="0 0 0 0 0 0 0 0 0 0 0 0 0 0 0 0 0 0 0.14 0"/>
<feBlend mode="normal" in2="BackgroundImageFix" result="effect1_dropShadow_1329_3664"/>
<feBlend mode="normal" in="SourceGraphic" in2="effect1_dropShadow_1329_3664" result="shape"/>
</filter>
</defs>
</svg>
