<svg width="502" height="694" viewBox="0 0 502 694" fill="none" xmlns="http://www.w3.org/2000/svg">
<g clip-path="url(#clip0_1319_4299)">
<rect x="0.5" width="501" height="694" rx="50" fill="#FFD8AD"/>
<g filter="url(#filter0_d_1319_4299)">
<rect x="46.5" y="68" width="409" height="558" rx="25" fill="white"/>
<path d="M74.3633 114.273C71.5286 114.273 69.2773 113.389 67.6094 111.621C65.9505 109.844 65.1211 107.369 65.1211 104.197C65.1211 101.025 65.9505 98.5553 67.6094 96.7871C69.2682 95.0098 71.5195 94.1211 74.3633 94.1211C76.7148 94.1211 78.5924 94.6953 79.9961 95.8438C81.4089 96.9922 82.375 98.5645 82.8945 100.561H78.5605C77.7585 98.7832 76.3594 97.8945 74.3633 97.8945C72.832 97.8945 71.6061 98.4368 70.6855 99.5215C69.7741 100.606 69.3184 102.165 69.3184 104.197C69.3184 106.23 69.7741 107.788 70.6855 108.873C71.6061 109.958 72.832 110.5 74.3633 110.5C76.3594 110.5 77.7585 109.611 78.5605 107.834H82.8945C82.375 109.83 81.4089 111.402 79.9961 112.551C78.5924 113.699 76.7148 114.273 74.3633 114.273ZM90.168 111.061C91.0794 111.061 91.8177 110.805 92.3828 110.295C92.957 109.775 93.2441 109.096 93.2441 108.258V107.834H89.8945C89.2383 107.834 88.7461 107.98 88.418 108.271C88.0898 108.563 87.9258 108.932 87.9258 109.379C87.9258 109.88 88.1126 110.286 88.4863 110.596C88.86 110.906 89.4206 111.061 90.168 111.061ZM89.1836 114.273C87.5977 114.273 86.3353 113.845 85.3965 112.988C84.4668 112.132 84.002 111.024 84.002 109.666C84.002 108.281 84.5033 107.164 85.5059 106.316C86.5085 105.469 87.9212 105.045 89.7441 105.045H93.2441V104.334C93.2441 103.641 93.0208 103.122 92.5742 102.775C92.1276 102.42 91.5124 102.242 90.7285 102.242C90.1908 102.242 89.7214 102.365 89.3203 102.611C88.9193 102.848 88.6413 103.145 88.4863 103.5H84.5625C84.8815 102.178 85.5697 101.08 86.627 100.205C87.6842 99.321 89.097 98.8789 90.8652 98.8789C92.8431 98.8789 94.388 99.3665 95.5 100.342C96.612 101.308 97.168 102.689 97.168 104.484V114H93.8047L93.3945 112.318H93.2441C92.3691 113.622 91.0156 114.273 89.1836 114.273ZM106.26 114C103.179 114 101.639 112.555 101.639 109.666V102.803H99.2598V99.166H101.639L102.199 95.2422H105.562V99.166H109.062V102.803H105.562V108.955C105.562 109.365 105.686 109.702 105.932 109.967C106.187 110.231 106.529 110.363 106.957 110.363H109.062V114H106.26ZM118.168 114.273C115.908 114.273 114.13 113.599 112.836 112.25C111.542 110.901 110.895 109.014 110.895 106.59C110.895 104.156 111.542 102.265 112.836 100.916C114.13 99.5579 115.908 98.8789 118.168 98.8789C120.319 98.8789 122.046 99.5716 123.35 100.957C124.653 102.333 125.305 104.115 125.305 106.303L125.168 107.834H114.955C115.292 109.794 116.363 110.773 118.168 110.773C118.879 110.773 119.421 110.664 119.795 110.445C120.169 110.217 120.515 109.862 120.834 109.379H125.031C124.639 110.801 123.883 111.972 122.762 112.893C121.641 113.813 120.109 114.273 118.168 114.273ZM114.955 104.895H121.244C121.098 104.184 120.757 103.587 120.219 103.104C119.69 102.62 119.007 102.379 118.168 102.379C116.527 102.379 115.456 103.217 114.955 104.895ZM134.547 119.605C130.719 119.605 128.385 117.924 127.547 114.561H131.607C131.908 115.59 132.888 116.105 134.547 116.105C135.513 116.105 136.265 115.868 136.803 115.395C137.35 114.93 137.623 114.278 137.623 113.439V111.334H137.486C137.131 111.781 136.607 112.2 135.914 112.592C135.23 112.975 134.447 113.166 133.562 113.166C131.639 113.166 130.108 112.546 128.969 111.307C127.839 110.058 127.273 108.294 127.273 106.016C127.273 103.737 127.843 101.978 128.982 100.738C130.122 99.4987 131.648 98.8789 133.562 98.8789C135.148 98.8789 136.502 99.5306 137.623 100.834H137.773L138.184 99.166H141.547V113.439C141.547 115.436 140.964 116.962 139.797 118.02C138.63 119.077 136.88 119.605 134.547 119.605ZM132.045 108.682C132.628 109.338 133.412 109.666 134.396 109.666C135.39 109.666 136.174 109.338 136.748 108.682C137.331 108.025 137.623 107.137 137.623 106.016C137.623 104.895 137.331 104.01 136.748 103.363C136.174 102.707 135.39 102.379 134.396 102.379C133.412 102.379 132.628 102.707 132.045 103.363C131.471 104.01 131.184 104.895 131.184 106.016C131.184 107.137 131.471 108.025 132.045 108.682ZM156.832 112.25C155.538 113.599 153.76 114.273 151.5 114.273C149.24 114.273 147.462 113.599 146.168 112.25C144.874 110.901 144.227 109.014 144.227 106.59C144.227 104.156 144.874 102.265 146.168 100.916C147.462 99.5579 149.24 98.8789 151.5 98.8789C153.76 98.8789 155.538 99.5579 156.832 100.916C158.135 102.265 158.787 104.156 158.787 106.59C158.787 109.014 158.135 110.901 156.832 112.25ZM149.094 109.734C149.732 110.427 150.534 110.773 151.5 110.773C152.475 110.773 153.277 110.427 153.906 109.734C154.544 109.033 154.863 107.984 154.863 106.59C154.863 105.186 154.544 104.133 153.906 103.432C153.277 102.73 152.475 102.379 151.5 102.379C150.534 102.379 149.732 102.73 149.094 103.432C148.456 104.133 148.137 105.186 148.137 106.59C148.137 107.984 148.456 109.033 149.094 109.734ZM161.439 114V99.166H164.803L165.213 100.834H165.363C166.111 99.7129 167.277 99.1569 168.863 99.166H170.682V102.939H169.137C167.961 102.939 167.036 103.268 166.361 103.924C165.696 104.571 165.363 105.455 165.363 106.576V114H161.439ZM172.787 114V99.166H176.711V114H172.787ZM176.342 96.9785C175.913 97.4069 175.38 97.6211 174.742 97.6211C174.113 97.6211 173.58 97.4069 173.143 96.9785C172.714 96.5501 172.5 96.0169 172.5 95.3789C172.5 94.7409 172.714 94.2077 173.143 93.7793C173.58 93.3509 174.113 93.1367 174.742 93.1367C175.38 93.1367 175.913 93.3509 176.342 93.7793C176.77 94.2077 176.984 94.7409 176.984 95.3789C176.984 96.0169 176.77 96.5501 176.342 96.9785ZM186.637 114.273C184.376 114.273 182.599 113.599 181.305 112.25C180.01 110.901 179.363 109.014 179.363 106.59C179.363 104.156 180.01 102.265 181.305 100.916C182.599 99.5579 184.376 98.8789 186.637 98.8789C188.788 98.8789 190.515 99.5716 191.818 100.957C193.122 102.333 193.773 104.115 193.773 106.303L193.637 107.834H183.424C183.761 109.794 184.832 110.773 186.637 110.773C187.348 110.773 187.89 110.664 188.264 110.445C188.637 110.217 188.984 109.862 189.303 109.379H193.5C193.108 110.801 192.352 111.972 191.23 112.893C190.109 113.813 188.578 114.273 186.637 114.273ZM183.424 104.895H189.713C189.567 104.184 189.225 103.587 188.688 103.104C188.159 102.62 187.475 102.379 186.637 102.379C184.996 102.379 183.925 103.217 183.424 104.895ZM201.895 114.273C199.862 114.273 198.312 113.822 197.246 112.92C196.189 112.018 195.546 110.837 195.318 109.379H199.516C199.589 109.753 199.839 110.081 200.268 110.363C200.705 110.637 201.247 110.773 201.895 110.773C203.572 110.773 204.415 110.404 204.424 109.666C204.424 109.329 204.21 109.06 203.781 108.859C203.362 108.65 202.833 108.504 202.195 108.422C201.566 108.331 200.883 108.185 200.145 107.984C199.406 107.775 198.718 107.529 198.08 107.246C197.451 106.954 196.927 106.476 196.508 105.811C196.089 105.145 195.879 104.329 195.879 103.363C195.879 102.06 196.403 100.989 197.451 100.15C198.508 99.3027 199.99 98.8789 201.895 98.8789C203.872 98.8789 205.385 99.3027 206.434 100.15C207.482 100.998 208.115 102.115 208.334 103.5H204.137C203.954 102.753 203.207 102.379 201.895 102.379C201.275 102.379 200.792 102.475 200.445 102.666C200.108 102.848 199.939 103.081 199.939 103.363C199.939 103.701 200.149 103.974 200.568 104.184C200.988 104.384 201.512 104.525 202.141 104.607C202.779 104.689 203.467 104.835 204.205 105.045C204.943 105.245 205.627 105.492 206.256 105.783C206.894 106.075 207.423 106.553 207.842 107.219C208.27 107.875 208.484 108.691 208.484 109.666C208.484 111.006 207.969 112.109 206.939 112.975C205.91 113.84 204.228 114.273 201.895 114.273Z" fill="#2C5EA8"/>
</g>
<g clip-path="url(#clip1_1319_4299)">
<path d="M63.7656 402V387.48H58.4805V385.195H71.5586V387.48H66.2852V402H63.7656ZM71.9102 402V389.285H73.7148L74.0664 390.961H74.1953C74.8672 389.844 75.9453 389.285 77.4297 389.285H78.8711V391.441H77.5469C76.5391 391.441 75.7266 391.734 75.1094 392.32C74.5 392.898 74.1953 393.645 74.1953 394.559V402H71.9102ZM84.5195 400.195C85.5742 400.195 86.418 399.906 87.0508 399.328C87.6836 398.742 88 397.992 88 397.078V396.363H84.6367C83.8086 396.363 83.1797 396.535 82.75 396.879C82.3281 397.223 82.1172 397.691 82.1172 398.285C82.1172 398.871 82.3281 399.336 82.75 399.68C83.1797 400.023 83.7695 400.195 84.5195 400.195ZM84.1562 402.234C82.875 402.234 81.8359 401.852 81.0391 401.086C80.2422 400.32 79.8438 399.387 79.8438 398.285C79.8438 397.152 80.2656 396.211 81.1094 395.461C81.9609 394.703 83.1367 394.324 84.6367 394.324H88V393.715C88 392.934 87.75 392.32 87.25 391.875C86.7578 391.422 86.0859 391.195 85.2344 391.195C84.5469 391.195 83.9883 391.344 83.5586 391.641C83.1289 391.938 82.8477 392.312 82.7148 392.766H80.3242C80.5664 391.711 81.1367 390.828 82.0352 390.117C82.9414 389.398 84.0078 389.039 85.2344 389.039C86.8203 389.039 88.0586 389.469 88.9492 390.328C89.8398 391.18 90.2852 392.309 90.2852 393.715V402H88.3633L88.1172 400.441H88C87.7266 400.902 87.2422 401.316 86.5469 401.684C85.8516 402.051 85.0547 402.234 84.1562 402.234ZM93.2852 402V389.285H95.0898L95.4414 390.961H95.5703C96.3516 389.68 97.5508 389.039 99.168 389.039C100.559 389.039 101.684 389.512 102.543 390.457C103.41 391.402 103.844 392.648 103.844 394.195V402H101.57V394.324C101.57 393.332 101.305 392.562 100.773 392.016C100.25 391.469 99.5547 391.195 98.6875 391.195C97.8047 391.195 97.0625 391.504 96.4609 392.121C95.8672 392.738 95.5703 393.473 95.5703 394.324V402H93.2852ZM111.062 402.234C109.719 402.234 108.582 401.891 107.652 401.203C106.723 400.516 106.137 399.621 105.895 398.52H108.414C108.734 399.559 109.617 400.078 111.062 400.078C111.977 400.078 112.664 399.93 113.125 399.633C113.586 399.336 113.816 398.965 113.816 398.52C113.816 398.09 113.633 397.746 113.266 397.488C112.898 397.23 112.438 397.051 111.883 396.949C111.336 396.848 110.742 396.711 110.102 396.539C109.461 396.359 108.863 396.156 108.309 395.93C107.754 395.703 107.293 395.32 106.926 394.781C106.559 394.234 106.375 393.562 106.375 392.766C106.375 391.711 106.785 390.828 107.605 390.117C108.434 389.398 109.543 389.039 110.934 389.039C112.23 389.039 113.336 389.359 114.25 390C115.164 390.641 115.738 391.48 115.973 392.52H113.453C113.008 391.637 112.168 391.195 110.934 391.195C109.41 391.195 108.652 391.719 108.66 392.766C108.66 393.195 108.844 393.543 109.211 393.809C109.578 394.066 110.035 394.25 110.582 394.359C111.137 394.461 111.734 394.605 112.375 394.793C113.016 394.973 113.609 395.176 114.156 395.402C114.711 395.621 115.172 396 115.539 396.539C115.914 397.078 116.102 397.738 116.102 398.52C116.102 399.574 115.652 400.457 114.754 401.168C113.863 401.879 112.633 402.234 111.062 402.234ZM118.387 406.805V389.285H120.191L120.543 390.961H120.672C121.664 389.68 122.984 389.039 124.633 389.039C126.25 389.039 127.551 389.617 128.535 390.773C129.527 391.922 130.023 393.547 130.023 395.648C130.023 397.742 129.527 399.363 128.535 400.512C127.543 401.66 126.242 402.234 124.633 402.234C122.969 402.234 121.688 401.637 120.789 400.441H120.672V406.805H118.387ZM124.27 400.078C125.324 400.078 126.168 399.703 126.801 398.953C127.434 398.203 127.75 397.102 127.75 395.648C127.75 394.188 127.434 393.082 126.801 392.332C126.168 391.574 125.324 391.195 124.27 391.195C123.199 391.195 122.332 391.578 121.668 392.344C121.004 393.102 120.672 394.203 120.672 395.648C120.672 397.086 121.004 398.184 121.668 398.941C122.332 399.699 123.199 400.078 124.27 400.078ZM142.094 400.488C141.023 401.652 139.598 402.234 137.816 402.234C136.043 402.234 134.621 401.652 133.551 400.488C132.48 399.316 131.945 397.699 131.945 395.637C131.945 393.574 132.48 391.961 133.551 390.797C134.621 389.625 136.043 389.039 137.816 389.039C139.598 389.039 141.023 389.625 142.094 390.797C143.164 391.961 143.699 393.574 143.699 395.637C143.699 397.699 143.164 399.316 142.094 400.488ZM135.215 398.941C135.879 399.699 136.746 400.078 137.816 400.078C138.895 400.078 139.766 399.699 140.43 398.941C141.094 398.184 141.426 397.086 141.426 395.648C141.426 394.203 141.094 393.102 140.43 392.344C139.766 391.578 138.895 391.195 137.816 391.195C136.746 391.195 135.879 391.578 135.215 392.344C134.551 393.102 134.219 394.203 134.219 395.648C134.219 397.086 134.551 398.184 135.215 398.941ZM146.23 402V389.285H148.035L148.387 390.961H148.516C149.188 389.844 150.266 389.285 151.75 389.285H153.191V391.441H151.867C150.859 391.441 150.047 391.734 149.43 392.32C148.82 392.898 148.516 393.645 148.516 394.559V402H146.23ZM159.438 402C158.43 402 157.617 401.688 157 401.062C156.383 400.438 156.074 399.629 156.074 398.637V391.441H154.035V389.285H156.074L156.438 385.922H158.359V389.285H161.477V391.441H158.359V398.402C158.359 398.832 158.473 399.18 158.699 399.445C158.934 399.711 159.258 399.844 159.672 399.844H161.477V402H159.438Z" fill="#345995"/>
<path d="M282.812 404V387.195H289.527C291.145 387.195 292.449 387.668 293.441 388.613C294.434 389.559 294.93 390.809 294.93 392.363C294.93 393.176 294.793 393.914 294.52 394.578C294.246 395.242 293.891 395.773 293.453 396.172C293.016 396.562 292.566 396.871 292.105 397.098C291.652 397.316 291.195 397.457 290.734 397.52L295.293 404H292.41L287.852 397.52H285.332V404H282.812ZM285.332 395.234H289.293C290.254 395.234 291.012 394.98 291.566 394.473C292.129 393.957 292.41 393.254 292.41 392.363C292.41 391.465 292.129 390.762 291.566 390.254C291.012 389.738 290.254 389.48 289.293 389.48H285.332V395.234ZM297.801 408.805V391.285H299.605L299.957 392.961H300.086C301.078 391.68 302.398 391.039 304.047 391.039C305.664 391.039 306.965 391.617 307.949 392.773C308.941 393.922 309.438 395.547 309.438 397.648C309.438 399.742 308.941 401.363 307.949 402.512C306.957 403.66 305.656 404.234 304.047 404.234C302.383 404.234 301.102 403.637 300.203 402.441H300.086V408.805H297.801ZM303.684 402.078C304.738 402.078 305.582 401.703 306.215 400.953C306.848 400.203 307.164 399.102 307.164 397.648C307.164 396.188 306.848 395.082 306.215 394.332C305.582 393.574 304.738 393.195 303.684 393.195C302.613 393.195 301.746 393.578 301.082 394.344C300.418 395.102 300.086 396.203 300.086 397.648C300.086 399.086 300.418 400.184 301.082 400.941C301.746 401.699 302.613 402.078 303.684 402.078ZM319.633 404V391.52H316.387V389.363H318.672C319.312 389.363 319.633 389.035 319.633 388.379V387.195H322.152V404H319.633ZM337.164 402.02C335.898 403.496 334.211 404.234 332.102 404.234C329.992 404.234 328.305 403.496 327.039 402.02C325.773 400.543 325.141 398.406 325.141 395.609C325.141 392.805 325.773 390.664 327.039 389.188C328.305 387.703 329.992 386.961 332.102 386.961C334.211 386.961 335.898 387.703 337.164 389.188C338.43 390.664 339.062 392.805 339.062 395.609C339.062 398.406 338.43 400.543 337.164 402.02ZM328.914 400.344C329.758 401.422 330.82 401.961 332.102 401.961C333.383 401.961 334.441 401.422 335.277 400.344C336.121 399.258 336.543 397.676 336.543 395.598C336.543 393.52 336.121 391.941 335.277 390.863C334.441 389.777 333.383 389.234 332.102 389.234C330.82 389.234 329.758 389.777 328.914 390.863C328.078 391.941 327.66 393.52 327.66 395.598C327.66 397.676 328.078 399.258 328.914 400.344ZM353.242 402.02C351.977 403.496 350.289 404.234 348.18 404.234C346.07 404.234 344.383 403.496 343.117 402.02C341.852 400.543 341.219 398.406 341.219 395.609C341.219 392.805 341.852 390.664 343.117 389.188C344.383 387.703 346.07 386.961 348.18 386.961C350.289 386.961 351.977 387.703 353.242 389.188C354.508 390.664 355.141 392.805 355.141 395.609C355.141 398.406 354.508 400.543 353.242 402.02ZM344.992 400.344C345.836 401.422 346.898 401.961 348.18 401.961C349.461 401.961 350.52 401.422 351.355 400.344C352.199 399.258 352.621 397.676 352.621 395.598C352.621 393.52 352.199 391.941 351.355 390.863C350.52 389.777 349.461 389.234 348.18 389.234C346.898 389.234 345.836 389.777 344.992 390.863C344.156 391.941 343.738 393.52 343.738 395.598C343.738 397.676 344.156 399.258 344.992 400.344ZM359.254 403.66C358.973 403.965 358.598 404.117 358.129 404.117C357.668 404.117 357.293 403.965 357.004 403.66C356.715 403.355 356.57 402.988 356.57 402.559C356.57 402.129 356.715 401.762 357.004 401.457C357.293 401.152 357.668 401 358.129 401C358.598 401 358.973 401.152 359.254 401.457C359.543 401.762 359.688 402.129 359.688 402.559C359.688 402.988 359.543 403.355 359.254 403.66ZM373.867 402.02C372.602 403.496 370.914 404.234 368.805 404.234C366.695 404.234 365.008 403.496 363.742 402.02C362.477 400.543 361.844 398.406 361.844 395.609C361.844 392.805 362.477 390.664 363.742 389.188C365.008 387.703 366.695 386.961 368.805 386.961C370.914 386.961 372.602 387.703 373.867 389.188C375.133 390.664 375.766 392.805 375.766 395.609C375.766 398.406 375.133 400.543 373.867 402.02ZM365.617 400.344C366.461 401.422 367.523 401.961 368.805 401.961C370.086 401.961 371.145 401.422 371.98 400.344C372.824 399.258 373.246 397.676 373.246 395.598C373.246 393.52 372.824 391.941 371.98 390.863C371.145 389.777 370.086 389.234 368.805 389.234C367.523 389.234 366.461 389.777 365.617 390.863C364.781 391.941 364.363 393.52 364.363 395.598C364.363 397.676 364.781 399.258 365.617 400.344ZM389.945 402.02C388.68 403.496 386.992 404.234 384.883 404.234C382.773 404.234 381.086 403.496 379.82 402.02C378.555 400.543 377.922 398.406 377.922 395.609C377.922 392.805 378.555 390.664 379.82 389.188C381.086 387.703 382.773 386.961 384.883 386.961C386.992 386.961 388.68 387.703 389.945 389.188C391.211 390.664 391.844 392.805 391.844 395.609C391.844 398.406 391.211 400.543 389.945 402.02ZM381.695 400.344C382.539 401.422 383.602 401.961 384.883 401.961C386.164 401.961 387.223 401.422 388.059 400.344C388.902 399.258 389.324 397.676 389.324 395.598C389.324 393.52 388.902 391.941 388.059 390.863C387.223 389.777 386.164 389.234 384.883 389.234C383.602 389.234 382.539 389.777 381.695 390.863C380.859 391.941 380.441 393.52 380.441 395.598C380.441 397.676 380.859 399.258 381.695 400.344ZM406.023 402.02C404.758 403.496 403.07 404.234 400.961 404.234C398.852 404.234 397.164 403.496 395.898 402.02C394.633 400.543 394 398.406 394 395.609C394 392.805 394.633 390.664 395.898 389.188C397.164 387.703 398.852 386.961 400.961 386.961C403.07 386.961 404.758 387.703 406.023 389.188C407.289 390.664 407.922 392.805 407.922 395.609C407.922 398.406 407.289 400.543 406.023 402.02ZM397.773 400.344C398.617 401.422 399.68 401.961 400.961 401.961C402.242 401.961 403.301 401.422 404.137 400.344C404.98 399.258 405.402 397.676 405.402 395.598C405.402 393.52 404.98 391.941 404.137 390.863C403.301 389.777 402.242 389.234 400.961 389.234C399.68 389.234 398.617 389.777 397.773 390.863C396.938 391.941 396.52 393.52 396.52 395.598C396.52 397.676 396.938 399.258 397.773 400.344Z" fill="#345995"/>
<rect x="58.5" y="427.5" width="350" height="9" rx="4.5" stroke="black"/>
<rect x="58.5" y="427.5" width="140" height="9" rx="4.5" fill="#345995" stroke="black"/>
<path d="M58 465L61.3633 459.962L58.1367 455.197H59.8184L62.2725 458.909L64.7197 455.197H66.4014L63.1816 459.962L66.5381 465H64.8633L62.2725 461.008L59.6816 465H58ZM66.5589 465L69.9222 459.962L66.6956 455.197H68.3773L70.8314 458.909L73.2786 455.197H74.9603L71.7406 459.962L75.097 465H73.4222L70.8314 461.008L68.2406 465H66.5589ZM75.1178 465L78.4811 459.962L75.2546 455.197H76.9362L79.3903 458.909L81.8376 455.197H83.5192L80.2995 459.962L83.6559 465H81.9811L79.3903 461.008L76.7995 465H75.1178ZM83.6768 465L87.04 459.962L83.8135 455.197H85.4951L87.9492 458.909L90.3965 455.197H92.0781L88.8584 459.962L92.2149 465H90.54L87.9492 461.008L85.3584 465H83.6768ZM92.2357 465L95.599 459.962L92.3724 455.197H94.054L96.5081 458.909L98.9554 455.197H100.637L97.4173 459.962L100.774 465H99.099L96.5081 461.008L93.9173 465H92.2357ZM100.795 465L104.158 459.962L100.931 455.197H102.613L105.067 458.909L107.514 455.197H109.196L105.976 459.962L109.333 465H107.658L105.067 461.008L102.476 465H100.795Z" fill="#345995"/>
<path d="M433.705 428L432.295 429.41L436.875 434L432.295 438.59L433.705 440L439.705 434L433.705 428Z" fill="#345995"/>
</g>
<g clip-path="url(#clip2_1319_4299)">
<path d="M71.2422 512.324C70.0781 513.598 68.4648 514.234 66.4023 514.234C64.3398 514.234 62.7227 513.598 61.5508 512.324C60.3867 511.043 59.8047 509.242 59.8047 506.922V497.195H62.3242V506.922C62.3242 508.508 62.6953 509.746 63.4375 510.637C64.1797 511.52 65.1641 511.961 66.3906 511.961C67.625 511.961 68.6133 511.52 69.3555 510.637C70.1055 509.746 70.4805 508.508 70.4805 506.922V497.195H73V506.922C73 509.242 72.4141 511.043 71.2422 512.324ZM76.3633 514V501.285H78.168L78.5195 502.961H78.6484C79.4297 501.68 80.6289 501.039 82.2461 501.039C83.6367 501.039 84.7617 501.512 85.6211 502.457C86.4883 503.402 86.9219 504.648 86.9219 506.195V514H84.6484V506.324C84.6484 505.332 84.3828 504.562 83.8516 504.016C83.3281 503.469 82.6328 503.195 81.7656 503.195C80.8828 503.195 80.1406 503.504 79.5391 504.121C78.9453 504.738 78.6484 505.473 78.6484 506.324V514H76.3633ZM95.3359 514.234C93.5156 514.234 92.0586 513.652 90.9648 512.488C89.8789 511.316 89.3359 509.699 89.3359 507.637C89.3359 505.574 89.8789 503.961 90.9648 502.797C92.0508 501.625 93.5078 501.039 95.3359 501.039C96.6797 501.039 97.8242 501.387 98.7695 502.082C99.7148 502.777 100.371 503.711 100.738 504.883H98.3359C97.7109 503.766 96.7109 503.203 95.3359 503.195C94.2344 503.195 93.3359 503.586 92.6406 504.367C91.9531 505.141 91.6094 506.234 91.6094 507.648C91.6094 509.055 91.9531 510.145 92.6406 510.918C93.3359 511.691 94.2344 512.078 95.3359 512.078C96.7109 512.078 97.7109 511.52 98.3359 510.402H100.738C100.371 511.574 99.7148 512.508 98.7695 513.203C97.8242 513.891 96.6797 514.234 95.3359 514.234ZM107.09 512.195C108.145 512.195 108.988 511.906 109.621 511.328C110.254 510.742 110.57 509.992 110.57 509.078V508.363H107.207C106.379 508.363 105.75 508.535 105.32 508.879C104.898 509.223 104.688 509.691 104.688 510.285C104.688 510.871 104.898 511.336 105.32 511.68C105.75 512.023 106.34 512.195 107.09 512.195ZM106.727 514.234C105.445 514.234 104.406 513.852 103.609 513.086C102.812 512.32 102.414 511.387 102.414 510.285C102.414 509.152 102.836 508.211 103.68 507.461C104.531 506.703 105.707 506.324 107.207 506.324H110.57V505.715C110.57 504.934 110.32 504.32 109.82 503.875C109.328 503.422 108.656 503.195 107.805 503.195C107.117 503.195 106.559 503.344 106.129 503.641C105.699 503.938 105.418 504.312 105.285 504.766H102.895C103.137 503.711 103.707 502.828 104.605 502.117C105.512 501.398 106.578 501.039 107.805 501.039C109.391 501.039 110.629 501.469 111.52 502.328C112.41 503.18 112.855 504.309 112.855 505.715V514H110.934L110.688 512.441H110.57C110.297 512.902 109.812 513.316 109.117 513.684C108.422 514.051 107.625 514.234 106.727 514.234ZM120.18 514C119.172 514 118.359 513.688 117.742 513.062C117.125 512.438 116.816 511.629 116.816 510.637V503.441H114.777V501.285H116.816L117.18 497.922H119.102V501.285H122.219V503.441H119.102V510.402C119.102 510.832 119.215 511.18 119.441 511.445C119.676 511.711 120 511.844 120.414 511.844H122.219V514H120.18ZM129.906 514.234C128.086 514.234 126.629 513.652 125.535 512.488C124.449 511.316 123.906 509.699 123.906 507.637C123.906 505.574 124.441 503.961 125.512 502.797C126.582 501.625 128.008 501.039 129.789 501.039C131.594 501.039 133.023 501.648 134.078 502.867C135.133 504.078 135.66 505.469 135.66 507.039L135.543 508.363H126.285C126.348 509.551 126.707 510.469 127.363 511.117C128.02 511.758 128.867 512.078 129.906 512.078C131.219 512.078 132.219 511.559 132.906 510.52H135.426C134.996 511.637 134.301 512.535 133.34 513.215C132.379 513.895 131.234 514.234 129.906 514.234ZM126.285 506.441H133.316C133.176 505.418 132.793 504.621 132.168 504.051C131.543 503.48 130.75 503.195 129.789 503.195C128.828 503.195 128.035 503.48 127.41 504.051C126.785 504.621 126.41 505.418 126.285 506.441ZM143.594 518.805C142.156 518.805 140.941 518.457 139.949 517.762C138.957 517.074 138.25 516.102 137.828 514.844H140.23C140.707 516.047 141.828 516.645 143.594 516.637C144.648 516.637 145.473 516.383 146.066 515.875C146.66 515.375 146.957 514.629 146.957 513.637V511.598H146.828C145.977 512.715 144.699 513.277 142.996 513.285C141.395 513.285 140.094 512.75 139.094 511.68C138.094 510.602 137.594 509.102 137.594 507.18C137.594 505.242 138.094 503.734 139.094 502.656C140.094 501.578 141.395 501.039 142.996 501.039C143.824 501.039 144.582 501.219 145.27 501.578C145.957 501.938 146.52 502.398 146.957 502.961H147.074L147.438 501.285H149.23V513.637C149.23 515.27 148.738 516.539 147.754 517.445C146.77 518.352 145.383 518.805 143.594 518.805ZM143.348 511.117C144.402 511.117 145.266 510.766 145.938 510.062C146.617 509.359 146.957 508.398 146.957 507.18C146.957 505.945 146.621 504.973 145.949 504.262C145.277 503.551 144.41 503.195 143.348 503.195C142.309 503.195 141.469 503.551 140.828 504.262C140.188 504.965 139.867 505.938 139.867 507.18C139.867 508.414 140.188 509.379 140.828 510.074C141.469 510.77 142.309 511.117 143.348 511.117ZM161.898 512.488C160.828 513.652 159.402 514.234 157.621 514.234C155.848 514.234 154.426 513.652 153.355 512.488C152.285 511.316 151.75 509.699 151.75 507.637C151.75 505.574 152.285 503.961 153.355 502.797C154.426 501.625 155.848 501.039 157.621 501.039C159.402 501.039 160.828 501.625 161.898 502.797C162.969 503.961 163.504 505.574 163.504 507.637C163.504 509.699 162.969 511.316 161.898 512.488ZM155.02 510.941C155.684 511.699 156.551 512.078 157.621 512.078C158.699 512.078 159.57 511.699 160.234 510.941C160.898 510.184 161.23 509.086 161.23 507.648C161.23 506.203 160.898 505.102 160.234 504.344C159.57 503.578 158.699 503.195 157.621 503.195C156.551 503.195 155.684 503.578 155.02 504.344C154.355 505.102 154.023 506.203 154.023 507.648C154.023 509.086 154.355 510.184 155.02 510.941ZM166.035 514V501.285H167.84L168.191 502.961H168.32C168.992 501.844 170.07 501.285 171.555 501.285H172.996V503.441H171.672C170.664 503.441 169.852 503.734 169.234 504.32C168.625 504.898 168.32 505.645 168.32 506.559V514H166.035ZM174.918 514V501.285H177.203V514H174.918ZM176.066 499.844C175.621 499.844 175.258 499.703 174.977 499.422C174.695 499.141 174.555 498.785 174.555 498.355C174.555 497.91 174.695 497.547 174.977 497.266C175.258 496.984 175.621 496.844 176.066 496.844C176.496 496.844 176.852 496.984 177.133 497.266C177.414 497.539 177.555 497.902 177.555 498.355C177.555 498.785 177.414 499.141 177.133 499.422C176.852 499.703 176.496 499.844 176.066 499.844ZM184.516 514.234C183.172 514.234 182.035 513.891 181.105 513.203C180.176 512.516 179.59 511.621 179.348 510.52H181.867C182.188 511.559 183.07 512.078 184.516 512.078C185.43 512.078 186.117 511.93 186.578 511.633C187.039 511.336 187.27 510.965 187.27 510.52C187.27 510.09 187.086 509.746 186.719 509.488C186.352 509.23 185.891 509.051 185.336 508.949C184.789 508.848 184.195 508.711 183.555 508.539C182.914 508.359 182.316 508.156 181.762 507.93C181.207 507.703 180.746 507.32 180.379 506.781C180.012 506.234 179.828 505.562 179.828 504.766C179.828 503.711 180.238 502.828 181.059 502.117C181.887 501.398 182.996 501.039 184.387 501.039C185.684 501.039 186.789 501.359 187.703 502C188.617 502.641 189.191 503.48 189.426 504.52H186.906C186.461 503.637 185.621 503.195 184.387 503.195C182.863 503.195 182.105 503.719 182.113 504.766C182.113 505.195 182.297 505.543 182.664 505.809C183.031 506.066 183.488 506.25 184.035 506.359C184.59 506.461 185.188 506.605 185.828 506.793C186.469 506.973 187.062 507.176 187.609 507.402C188.164 507.621 188.625 508 188.992 508.539C189.367 509.078 189.555 509.738 189.555 510.52C189.555 511.574 189.105 512.457 188.207 513.168C187.316 513.879 186.086 514.234 184.516 514.234ZM197.242 514.234C195.422 514.234 193.965 513.652 192.871 512.488C191.785 511.316 191.242 509.699 191.242 507.637C191.242 505.574 191.777 503.961 192.848 502.797C193.918 501.625 195.344 501.039 197.125 501.039C198.93 501.039 200.359 501.648 201.414 502.867C202.469 504.078 202.996 505.469 202.996 507.039L202.879 508.363H193.621C193.684 509.551 194.043 510.469 194.699 511.117C195.355 511.758 196.203 512.078 197.242 512.078C198.555 512.078 199.555 511.559 200.242 510.52H202.762C202.332 511.637 201.637 512.535 200.676 513.215C199.715 513.895 198.57 514.234 197.242 514.234ZM193.621 506.441H200.652C200.512 505.418 200.129 504.621 199.504 504.051C198.879 503.48 198.086 503.195 197.125 503.195C196.164 503.195 195.371 503.48 194.746 504.051C194.121 504.621 193.746 505.418 193.621 506.441ZM210.684 512.078C211.754 512.078 212.621 511.699 213.285 510.941C213.957 510.184 214.293 509.086 214.293 507.648C214.293 506.203 213.961 505.102 213.297 504.344C212.633 503.578 211.762 503.195 210.684 503.195C209.629 503.195 208.785 503.574 208.152 504.332C207.52 505.082 207.203 506.188 207.203 507.648C207.203 509.102 207.52 510.203 208.152 510.953C208.785 511.703 209.629 512.078 210.684 512.078ZM210.332 514.234C208.715 514.234 207.41 513.66 206.418 512.512C205.426 511.363 204.93 509.738 204.93 507.637C204.93 505.527 205.434 503.902 206.441 502.762C207.449 501.613 208.785 501.039 210.449 501.039C212.035 501.039 213.273 501.641 214.164 502.844H214.293V497.195H216.566V514H214.773L214.41 512.324H214.293C213.301 513.598 211.98 514.234 210.332 514.234Z" fill="#345995"/>
<path d="M258.438 516V499.195H265.152C266.77 499.195 268.074 499.668 269.066 500.613C270.059 501.559 270.555 502.809 270.555 504.363C270.555 505.176 270.418 505.914 270.145 506.578C269.871 507.242 269.516 507.773 269.078 508.172C268.641 508.562 268.191 508.871 267.73 509.098C267.277 509.316 266.82 509.457 266.359 509.52L270.918 516H268.035L263.477 509.52H260.957V516H258.438ZM260.957 507.234H264.918C265.879 507.234 266.637 506.98 267.191 506.473C267.754 505.957 268.035 505.254 268.035 504.363C268.035 503.465 267.754 502.762 267.191 502.254C266.637 501.738 265.879 501.48 264.918 501.48H260.957V507.234ZM273.426 520.805V503.285H275.23L275.582 504.961H275.711C276.703 503.68 278.023 503.039 279.672 503.039C281.289 503.039 282.59 503.617 283.574 504.773C284.566 505.922 285.062 507.547 285.062 509.648C285.062 511.742 284.566 513.363 283.574 514.512C282.582 515.66 281.281 516.234 279.672 516.234C278.008 516.234 276.727 515.637 275.828 514.441H275.711V520.805H273.426ZM279.309 514.078C280.363 514.078 281.207 513.703 281.84 512.953C282.473 512.203 282.789 511.102 282.789 509.648C282.789 508.188 282.473 507.082 281.84 506.332C281.207 505.574 280.363 505.195 279.309 505.195C278.238 505.195 277.371 505.578 276.707 506.344C276.043 507.102 275.711 508.203 275.711 509.648C275.711 511.086 276.043 512.184 276.707 512.941C277.371 513.699 278.238 514.078 279.309 514.078ZM292.375 516V513.715L299.816 506.52C300.699 505.668 301.141 504.789 301.141 503.883C301.141 502.125 300.141 501.242 298.141 501.234C297.258 501.234 296.527 501.477 295.949 501.961C295.379 502.438 295.027 503.078 294.895 503.883H292.375C292.57 502.43 293.164 501.246 294.156 500.332C295.148 499.418 296.477 498.961 298.141 498.961C299.898 498.961 301.277 499.414 302.277 500.32C303.277 501.219 303.777 502.406 303.777 503.883C303.777 504.695 303.59 505.41 303.215 506.027C302.84 506.645 302.309 507.289 301.621 507.961L295.738 513.715H304.012V516H292.375ZM308.863 515.66C308.582 515.965 308.207 516.117 307.738 516.117C307.277 516.117 306.902 515.965 306.613 515.66C306.324 515.355 306.18 514.988 306.18 514.559C306.18 514.129 306.324 513.762 306.613 513.457C306.902 513.152 307.277 513 307.738 513C308.207 513 308.582 513.152 308.863 513.457C309.152 513.762 309.297 514.129 309.297 514.559C309.297 514.988 309.152 515.355 308.863 515.66ZM318.895 516V512.285H310.855V510L317.934 499.195H321.414V510H323.57V512.285H321.414V516H318.895ZM313.492 510H318.895V501.961H318.777L313.492 510ZM337.164 514.02C335.898 515.496 334.211 516.234 332.102 516.234C329.992 516.234 328.305 515.496 327.039 514.02C325.773 512.543 325.141 510.406 325.141 507.609C325.141 504.805 325.773 502.664 327.039 501.188C328.305 499.703 329.992 498.961 332.102 498.961C334.211 498.961 335.898 499.703 337.164 501.188C338.43 502.664 339.062 504.805 339.062 507.609C339.062 510.406 338.43 512.543 337.164 514.02ZM328.914 512.344C329.758 513.422 330.82 513.961 332.102 513.961C333.383 513.961 334.441 513.422 335.277 512.344C336.121 511.258 336.543 509.676 336.543 507.598C336.543 505.52 336.121 503.941 335.277 502.863C334.441 501.777 333.383 501.234 332.102 501.234C330.82 501.234 329.758 501.777 328.914 502.863C328.078 503.941 327.66 505.52 327.66 507.598C327.66 509.676 328.078 511.258 328.914 512.344ZM353.242 514.02C351.977 515.496 350.289 516.234 348.18 516.234C346.07 516.234 344.383 515.496 343.117 514.02C341.852 512.543 341.219 510.406 341.219 507.609C341.219 504.805 341.852 502.664 343.117 501.188C344.383 499.703 346.07 498.961 348.18 498.961C350.289 498.961 351.977 499.703 353.242 501.188C354.508 502.664 355.141 504.805 355.141 507.609C355.141 510.406 354.508 512.543 353.242 514.02ZM344.992 512.344C345.836 513.422 346.898 513.961 348.18 513.961C349.461 513.961 350.52 513.422 351.355 512.344C352.199 511.258 352.621 509.676 352.621 507.598C352.621 505.52 352.199 503.941 351.355 502.863C350.52 501.777 349.461 501.234 348.18 501.234C346.898 501.234 345.836 501.777 344.992 502.863C344.156 503.941 343.738 505.52 343.738 507.598C343.738 509.676 344.156 511.258 344.992 512.344ZM359.254 515.66C358.973 515.965 358.598 516.117 358.129 516.117C357.668 516.117 357.293 515.965 357.004 515.66C356.715 515.355 356.57 514.988 356.57 514.559C356.57 514.129 356.715 513.762 357.004 513.457C357.293 513.152 357.668 513 358.129 513C358.598 513 358.973 513.152 359.254 513.457C359.543 513.762 359.688 514.129 359.688 514.559C359.688 514.988 359.543 515.355 359.254 515.66ZM373.867 514.02C372.602 515.496 370.914 516.234 368.805 516.234C366.695 516.234 365.008 515.496 363.742 514.02C362.477 512.543 361.844 510.406 361.844 507.609C361.844 504.805 362.477 502.664 363.742 501.188C365.008 499.703 366.695 498.961 368.805 498.961C370.914 498.961 372.602 499.703 373.867 501.188C375.133 502.664 375.766 504.805 375.766 507.609C375.766 510.406 375.133 512.543 373.867 514.02ZM365.617 512.344C366.461 513.422 367.523 513.961 368.805 513.961C370.086 513.961 371.145 513.422 371.98 512.344C372.824 511.258 373.246 509.676 373.246 507.598C373.246 505.52 372.824 503.941 371.98 502.863C371.145 501.777 370.086 501.234 368.805 501.234C367.523 501.234 366.461 501.777 365.617 502.863C364.781 503.941 364.363 505.52 364.363 507.598C364.363 509.676 364.781 511.258 365.617 512.344ZM389.945 514.02C388.68 515.496 386.992 516.234 384.883 516.234C382.773 516.234 381.086 515.496 379.82 514.02C378.555 512.543 377.922 510.406 377.922 507.609C377.922 504.805 378.555 502.664 379.82 501.188C381.086 499.703 382.773 498.961 384.883 498.961C386.992 498.961 388.68 499.703 389.945 501.188C391.211 502.664 391.844 504.805 391.844 507.609C391.844 510.406 391.211 512.543 389.945 514.02ZM381.695 512.344C382.539 513.422 383.602 513.961 384.883 513.961C386.164 513.961 387.223 513.422 388.059 512.344C388.902 511.258 389.324 509.676 389.324 507.598C389.324 505.52 388.902 503.941 388.059 502.863C387.223 501.777 386.164 501.234 384.883 501.234C383.602 501.234 382.539 501.777 381.695 502.863C380.859 503.941 380.441 505.52 380.441 507.598C380.441 509.676 380.859 511.258 381.695 512.344ZM406.023 514.02C404.758 515.496 403.07 516.234 400.961 516.234C398.852 516.234 397.164 515.496 395.898 514.02C394.633 512.543 394 510.406 394 507.609C394 504.805 394.633 502.664 395.898 501.188C397.164 499.703 398.852 498.961 400.961 498.961C403.07 498.961 404.758 499.703 406.023 501.188C407.289 502.664 407.922 504.805 407.922 507.609C407.922 510.406 407.289 512.543 406.023 514.02ZM397.773 512.344C398.617 513.422 399.68 513.961 400.961 513.961C402.242 513.961 403.301 513.422 404.137 512.344C404.98 511.258 405.402 509.676 405.402 507.598C405.402 505.52 404.98 503.941 404.137 502.863C403.301 501.777 402.242 501.234 400.961 501.234C399.68 501.234 398.617 501.777 397.773 502.863C396.938 503.941 396.52 505.52 396.52 507.598C396.52 509.676 396.938 511.258 397.773 512.344Z" fill="#345995"/>
<rect x="58.5" y="539.5" width="350" height="9" rx="4.5" stroke="black"/>
<rect x="58.5" y="539.5" width="350" height="9" rx="4.5" fill="#345995" stroke="black"/>
<path d="M58 577L61.3633 571.962L58.1367 567.197H59.8184L62.2725 570.909L64.7197 567.197H66.4014L63.1816 571.962L66.5381 577H64.8633L62.2725 573.008L59.6816 577H58ZM66.5589 577L69.9222 571.962L66.6956 567.197H68.3773L70.8314 570.909L73.2786 567.197H74.9603L71.7406 571.962L75.097 577H73.4222L70.8314 573.008L68.2406 577H66.5589ZM75.1178 577L78.4811 571.962L75.2546 567.197H76.9362L79.3903 570.909L81.8376 567.197H83.5192L80.2995 571.962L83.6559 577H81.9811L79.3903 573.008L76.7995 577H75.1178ZM83.6768 577L87.04 571.962L83.8135 567.197H85.4951L87.9492 570.909L90.3965 567.197H92.0781L88.8584 571.962L92.2149 577H90.54L87.9492 573.008L85.3584 577H83.6768ZM92.2357 577L95.599 571.962L92.3724 567.197H94.054L96.5081 570.909L98.9554 567.197H100.637L97.4173 571.962L100.774 577H99.099L96.5081 573.008L93.9173 577H92.2357ZM100.795 577L104.158 571.962L100.931 567.197H102.613L105.067 570.909L107.514 567.197H109.196L105.976 571.962L109.333 577H107.658L105.067 573.008L102.476 577H100.795Z" fill="#345995"/>
<path d="M433.705 540L432.295 541.41L436.875 546L432.295 550.59L433.705 552L439.705 546L433.705 540Z" fill="#345995"/>
</g>
<g clip-path="url(#clip3_1319_4299)">
<path d="M59.9219 289V272.195H62.4414V279.402H70.5977V272.195H73.1172V289H70.5977V281.676H62.4414V289H59.9219ZM86.1484 287.488C85.0781 288.652 83.6523 289.234 81.8711 289.234C80.0977 289.234 78.6758 288.652 77.6055 287.488C76.5352 286.316 76 284.699 76 282.637C76 280.574 76.5352 278.961 77.6055 277.797C78.6758 276.625 80.0977 276.039 81.8711 276.039C83.6523 276.039 85.0781 276.625 86.1484 277.797C87.2188 278.961 87.7539 280.574 87.7539 282.637C87.7539 284.699 87.2188 286.316 86.1484 287.488ZM79.2695 285.941C79.9336 286.699 80.8008 287.078 81.8711 287.078C82.9492 287.078 83.8203 286.699 84.4844 285.941C85.1484 285.184 85.4805 284.086 85.4805 282.648C85.4805 281.203 85.1484 280.102 84.4844 279.344C83.8203 278.578 82.9492 278.195 81.8711 278.195C80.8008 278.195 79.9336 278.578 79.2695 279.344C78.6055 280.102 78.2734 281.203 78.2734 282.648C78.2734 284.086 78.6055 285.184 79.2695 285.941ZM90.2852 289V276.285H92.0898L92.4414 277.961H92.5703C93.3828 276.68 94.4609 276.039 95.8047 276.039C96.6719 276.039 97.4102 276.25 98.0195 276.672C98.6367 277.086 99.0977 277.637 99.4023 278.324H99.5312C99.8984 277.637 100.426 277.086 101.113 276.672C101.801 276.25 102.594 276.039 103.492 276.039C104.789 276.039 105.852 276.504 106.68 277.434C107.508 278.363 107.922 279.617 107.922 281.195V289H105.648V281.324C105.648 280.332 105.406 279.562 104.922 279.016C104.445 278.469 103.809 278.195 103.012 278.195C102.262 278.195 101.613 278.484 101.066 279.062C100.52 279.641 100.246 280.395 100.246 281.324V289H97.9609V281.324C97.9609 280.332 97.7227 279.562 97.2461 279.016C96.7695 278.469 96.1289 278.195 95.3242 278.195C94.5742 278.195 93.9258 278.484 93.3789 279.062C92.8398 279.641 92.5703 280.395 92.5703 281.324V289H90.2852ZM116.336 289.234C114.516 289.234 113.059 288.652 111.965 287.488C110.879 286.316 110.336 284.699 110.336 282.637C110.336 280.574 110.871 278.961 111.941 277.797C113.012 276.625 114.438 276.039 116.219 276.039C118.023 276.039 119.453 276.648 120.508 277.867C121.562 279.078 122.09 280.469 122.09 282.039L121.973 283.363H112.715C112.777 284.551 113.137 285.469 113.793 286.117C114.449 286.758 115.297 287.078 116.336 287.078C117.648 287.078 118.648 286.559 119.336 285.52H121.855C121.426 286.637 120.73 287.535 119.77 288.215C118.809 288.895 117.664 289.234 116.336 289.234ZM112.715 281.441H119.746C119.605 280.418 119.223 279.621 118.598 279.051C117.973 278.48 117.18 278.195 116.219 278.195C115.258 278.195 114.465 278.48 113.84 279.051C113.215 279.621 112.84 280.418 112.715 281.441Z" fill="#345995"/>
<path d="M255.812 291V274.195H262.527C264.145 274.195 265.449 274.668 266.441 275.613C267.434 276.559 267.93 277.809 267.93 279.363C267.93 280.176 267.793 280.914 267.52 281.578C267.246 282.242 266.891 282.773 266.453 283.172C266.016 283.562 265.566 283.871 265.105 284.098C264.652 284.316 264.195 284.457 263.734 284.52L268.293 291H265.41L260.852 284.52H258.332V291H255.812ZM258.332 282.234H262.293C263.254 282.234 264.012 281.98 264.566 281.473C265.129 280.957 265.41 280.254 265.41 279.363C265.41 278.465 265.129 277.762 264.566 277.254C264.012 276.738 263.254 276.48 262.293 276.48H258.332V282.234ZM270.801 295.805V278.285H272.605L272.957 279.961H273.086C274.078 278.68 275.398 278.039 277.047 278.039C278.664 278.039 279.965 278.617 280.949 279.773C281.941 280.922 282.438 282.547 282.438 284.648C282.438 286.742 281.941 288.363 280.949 289.512C279.957 290.66 278.656 291.234 277.047 291.234C275.383 291.234 274.102 290.637 273.203 289.441H273.086V295.805H270.801ZM276.684 289.078C277.738 289.078 278.582 288.703 279.215 287.953C279.848 287.203 280.164 286.102 280.164 284.648C280.164 283.188 279.848 282.082 279.215 281.332C278.582 280.574 277.738 280.195 276.684 280.195C275.613 280.195 274.746 280.578 274.082 281.344C273.418 282.102 273.086 283.203 273.086 284.648C273.086 286.086 273.418 287.184 274.082 287.941C274.746 288.699 275.613 289.078 276.684 289.078ZM295.633 291.234C294.211 291.234 292.945 290.797 291.836 289.922C290.734 289.039 290.039 287.84 289.75 286.324H292.27C292.449 287.105 292.844 287.742 293.453 288.234C294.07 288.719 294.797 288.961 295.633 288.961C296.766 288.961 297.648 288.652 298.281 288.035C298.914 287.418 299.23 286.566 299.23 285.48C299.23 284.426 298.91 283.562 298.27 282.891C297.629 282.219 296.75 281.883 295.633 281.883C294.383 281.883 293.344 282.441 292.516 283.559H290.113L290.957 274.195H300.789V276.48H293.113L292.75 280.805H292.867C293.719 280.086 294.801 279.723 296.113 279.715C297.73 279.715 299.074 280.27 300.145 281.379C301.215 282.48 301.75 283.848 301.75 285.48C301.75 287.191 301.203 288.578 300.109 289.641C299.016 290.703 297.523 291.234 295.633 291.234ZM306.473 290.66C306.191 290.965 305.816 291.117 305.348 291.117C304.887 291.117 304.512 290.965 304.223 290.66C303.934 290.355 303.789 289.988 303.789 289.559C303.789 289.129 303.934 288.762 304.223 288.457C304.512 288.152 304.887 288 305.348 288C305.816 288 306.191 288.152 306.473 288.457C306.762 288.762 306.906 289.129 306.906 289.559C306.906 289.988 306.762 290.355 306.473 290.66ZM321.086 289.02C319.82 290.496 318.133 291.234 316.023 291.234C313.914 291.234 312.227 290.496 310.961 289.02C309.695 287.543 309.062 285.406 309.062 282.609C309.062 279.805 309.695 277.664 310.961 276.188C312.227 274.703 313.914 273.961 316.023 273.961C318.133 273.961 319.82 274.703 321.086 276.188C322.352 277.664 322.984 279.805 322.984 282.609C322.984 285.406 322.352 287.543 321.086 289.02ZM312.836 287.344C313.68 288.422 314.742 288.961 316.023 288.961C317.305 288.961 318.363 288.422 319.199 287.344C320.043 286.258 320.465 284.676 320.465 282.598C320.465 280.52 320.043 278.941 319.199 277.863C318.363 276.777 317.305 276.234 316.023 276.234C314.742 276.234 313.68 276.777 312.836 277.863C312 278.941 311.582 280.52 311.582 282.598C311.582 284.676 312 286.258 312.836 287.344ZM337.164 289.02C335.898 290.496 334.211 291.234 332.102 291.234C329.992 291.234 328.305 290.496 327.039 289.02C325.773 287.543 325.141 285.406 325.141 282.609C325.141 279.805 325.773 277.664 327.039 276.188C328.305 274.703 329.992 273.961 332.102 273.961C334.211 273.961 335.898 274.703 337.164 276.188C338.43 277.664 339.062 279.805 339.062 282.609C339.062 285.406 338.43 287.543 337.164 289.02ZM328.914 287.344C329.758 288.422 330.82 288.961 332.102 288.961C333.383 288.961 334.441 288.422 335.277 287.344C336.121 286.258 336.543 284.676 336.543 282.598C336.543 280.52 336.121 278.941 335.277 277.863C334.441 276.777 333.383 276.234 332.102 276.234C330.82 276.234 329.758 276.777 328.914 277.863C328.078 278.941 327.66 280.52 327.66 282.598C327.66 284.676 328.078 286.258 328.914 287.344ZM353.242 289.02C351.977 290.496 350.289 291.234 348.18 291.234C346.07 291.234 344.383 290.496 343.117 289.02C341.852 287.543 341.219 285.406 341.219 282.609C341.219 279.805 341.852 277.664 343.117 276.188C344.383 274.703 346.07 273.961 348.18 273.961C350.289 273.961 351.977 274.703 353.242 276.188C354.508 277.664 355.141 279.805 355.141 282.609C355.141 285.406 354.508 287.543 353.242 289.02ZM344.992 287.344C345.836 288.422 346.898 288.961 348.18 288.961C349.461 288.961 350.52 288.422 351.355 287.344C352.199 286.258 352.621 284.676 352.621 282.598C352.621 280.52 352.199 278.941 351.355 277.863C350.52 276.777 349.461 276.234 348.18 276.234C346.898 276.234 345.836 276.777 344.992 277.863C344.156 278.941 343.738 280.52 343.738 282.598C343.738 284.676 344.156 286.258 344.992 287.344ZM359.254 290.66C358.973 290.965 358.598 291.117 358.129 291.117C357.668 291.117 357.293 290.965 357.004 290.66C356.715 290.355 356.57 289.988 356.57 289.559C356.57 289.129 356.715 288.762 357.004 288.457C357.293 288.152 357.668 288 358.129 288C358.598 288 358.973 288.152 359.254 288.457C359.543 288.762 359.688 289.129 359.688 289.559C359.688 289.988 359.543 290.355 359.254 290.66ZM373.867 289.02C372.602 290.496 370.914 291.234 368.805 291.234C366.695 291.234 365.008 290.496 363.742 289.02C362.477 287.543 361.844 285.406 361.844 282.609C361.844 279.805 362.477 277.664 363.742 276.188C365.008 274.703 366.695 273.961 368.805 273.961C370.914 273.961 372.602 274.703 373.867 276.188C375.133 277.664 375.766 279.805 375.766 282.609C375.766 285.406 375.133 287.543 373.867 289.02ZM365.617 287.344C366.461 288.422 367.523 288.961 368.805 288.961C370.086 288.961 371.145 288.422 371.98 287.344C372.824 286.258 373.246 284.676 373.246 282.598C373.246 280.52 372.824 278.941 371.98 277.863C371.145 276.777 370.086 276.234 368.805 276.234C367.523 276.234 366.461 276.777 365.617 277.863C364.781 278.941 364.363 280.52 364.363 282.598C364.363 284.676 364.781 286.258 365.617 287.344ZM389.945 289.02C388.68 290.496 386.992 291.234 384.883 291.234C382.773 291.234 381.086 290.496 379.82 289.02C378.555 287.543 377.922 285.406 377.922 282.609C377.922 279.805 378.555 277.664 379.82 276.188C381.086 274.703 382.773 273.961 384.883 273.961C386.992 273.961 388.68 274.703 389.945 276.188C391.211 277.664 391.844 279.805 391.844 282.609C391.844 285.406 391.211 287.543 389.945 289.02ZM381.695 287.344C382.539 288.422 383.602 288.961 384.883 288.961C386.164 288.961 387.223 288.422 388.059 287.344C388.902 286.258 389.324 284.676 389.324 282.598C389.324 280.52 388.902 278.941 388.059 277.863C387.223 276.777 386.164 276.234 384.883 276.234C383.602 276.234 382.539 276.777 381.695 277.863C380.859 278.941 380.441 280.52 380.441 282.598C380.441 284.676 380.859 286.258 381.695 287.344ZM406.023 289.02C404.758 290.496 403.07 291.234 400.961 291.234C398.852 291.234 397.164 290.496 395.898 289.02C394.633 287.543 394 285.406 394 282.609C394 279.805 394.633 277.664 395.898 276.188C397.164 274.703 398.852 273.961 400.961 273.961C403.07 273.961 404.758 274.703 406.023 276.188C407.289 277.664 407.922 279.805 407.922 282.609C407.922 285.406 407.289 287.543 406.023 289.02ZM397.773 287.344C398.617 288.422 399.68 288.961 400.961 288.961C402.242 288.961 403.301 288.422 404.137 287.344C404.98 286.258 405.402 284.676 405.402 282.598C405.402 280.52 404.98 278.941 404.137 277.863C403.301 276.777 402.242 276.234 400.961 276.234C399.68 276.234 398.617 276.777 397.773 277.863C396.938 278.941 396.52 280.52 396.52 282.598C396.52 284.676 396.938 286.258 397.773 287.344Z" fill="#345995"/>
<rect x="58.5" y="314.5" width="350" height="9" rx="4.5" stroke="black"/>
<rect x="58.5" y="314.5" width="323" height="9" rx="4.5" fill="#345995" stroke="black"/>
<path d="M58 352L61.3633 346.962L58.1367 342.197H59.8184L62.2725 345.909L64.7197 342.197H66.4014L63.1816 346.962L66.5381 352H64.8633L62.2725 348.008L59.6816 352H58ZM66.5589 352L69.9222 346.962L66.6956 342.197H68.3773L70.8314 345.909L73.2786 342.197H74.9603L71.7406 346.962L75.097 352H73.4222L70.8314 348.008L68.2406 352H66.5589ZM75.1178 352L78.4811 346.962L75.2546 342.197H76.9362L79.3903 345.909L81.8376 342.197H83.5192L80.2995 346.962L83.6559 352H81.9811L79.3903 348.008L76.7995 352H75.1178ZM83.6768 352L87.04 346.962L83.8135 342.197H85.4951L87.9492 345.909L90.3965 342.197H92.0781L88.8584 346.962L92.2149 352H90.54L87.9492 348.008L85.3584 352H83.6768ZM92.2357 352L95.599 346.962L92.3724 342.197H94.054L96.5081 345.909L98.9554 342.197H100.637L97.4173 346.962L100.774 352H99.099L96.5081 348.008L93.9173 352H92.2357ZM100.795 352L104.158 346.962L100.931 342.197H102.613L105.067 345.909L107.514 342.197H109.196L105.976 346.962L109.333 352H107.658L105.067 348.008L102.476 352H100.795Z" fill="#345995"/>
<path d="M433.705 315L432.295 316.41L436.875 321L432.295 325.59L433.705 327L439.705 321L433.705 315Z" fill="#345995"/>
</g>
<g clip-path="url(#clip4_1319_4299)">
<path d="M59.9219 178V161.195H66.4023C68.0664 161.195 69.4219 161.703 70.4688 162.719C71.5156 163.734 72.0391 165.027 72.0391 166.598C72.0391 168.168 71.5156 169.461 70.4688 170.477C69.4219 171.492 68.0664 172 66.4023 172H62.4414V178H59.9219ZM62.4414 169.715H66.2852C67.293 169.715 68.082 169.438 68.6523 168.883C69.2305 168.32 69.5195 167.559 69.5195 166.598C69.5195 165.637 69.2305 164.879 68.6523 164.324C68.082 163.762 67.293 163.48 66.2852 163.48H62.4414V169.715ZM79.1172 178.234C77.2969 178.234 75.8398 177.652 74.7461 176.488C73.6602 175.316 73.1172 173.699 73.1172 171.637C73.1172 169.574 73.6523 167.961 74.7227 166.797C75.793 165.625 77.2188 165.039 79 165.039C80.8047 165.039 82.2344 165.648 83.2891 166.867C84.3438 168.078 84.8711 169.469 84.8711 171.039L84.7539 172.363H75.4961C75.5586 173.551 75.918 174.469 76.5742 175.117C77.2305 175.758 78.0781 176.078 79.1172 176.078C80.4297 176.078 81.4297 175.559 82.1172 174.52H84.6367C84.207 175.637 83.5117 176.535 82.5508 177.215C81.5898 177.895 80.4453 178.234 79.1172 178.234ZM75.4961 170.441H82.5273C82.3867 169.418 82.0039 168.621 81.3789 168.051C80.7539 167.48 79.9609 167.195 79 167.195C78.0391 167.195 77.2461 167.48 76.6211 168.051C75.9961 168.621 75.6211 169.418 75.4961 170.441ZM87.4023 178V165.285H89.207L89.5586 166.961H89.6875C90.3594 165.844 91.4375 165.285 92.9219 165.285H94.3633V167.441H93.0391C92.0312 167.441 91.2188 167.734 90.6016 168.32C89.9922 168.898 89.6875 169.645 89.6875 170.559V178H87.4023ZM100.258 178.234C98.9141 178.234 97.7773 177.891 96.8477 177.203C95.918 176.516 95.332 175.621 95.0898 174.52H97.6094C97.9297 175.559 98.8125 176.078 100.258 176.078C101.172 176.078 101.859 175.93 102.32 175.633C102.781 175.336 103.012 174.965 103.012 174.52C103.012 174.09 102.828 173.746 102.461 173.488C102.094 173.23 101.633 173.051 101.078 172.949C100.531 172.848 99.9375 172.711 99.2969 172.539C98.6562 172.359 98.0586 172.156 97.5039 171.93C96.9492 171.703 96.4883 171.32 96.1211 170.781C95.7539 170.234 95.5703 169.562 95.5703 168.766C95.5703 167.711 95.9805 166.828 96.8008 166.117C97.6289 165.398 98.7383 165.039 100.129 165.039C101.426 165.039 102.531 165.359 103.445 166C104.359 166.641 104.934 167.48 105.168 168.52H102.648C102.203 167.637 101.363 167.195 100.129 167.195C98.6055 167.195 97.8477 167.719 97.8555 168.766C97.8555 169.195 98.0391 169.543 98.4062 169.809C98.7734 170.066 99.2305 170.25 99.7773 170.359C100.332 170.461 100.93 170.605 101.57 170.793C102.211 170.973 102.805 171.176 103.352 171.402C103.906 171.621 104.367 172 104.734 172.539C105.109 173.078 105.297 173.738 105.297 174.52C105.297 175.574 104.848 176.457 103.949 177.168C103.059 177.879 101.828 178.234 100.258 178.234ZM117.133 176.488C116.062 177.652 114.637 178.234 112.855 178.234C111.082 178.234 109.66 177.652 108.59 176.488C107.52 175.316 106.984 173.699 106.984 171.637C106.984 169.574 107.52 167.961 108.59 166.797C109.66 165.625 111.082 165.039 112.855 165.039C114.637 165.039 116.062 165.625 117.133 166.797C118.203 167.961 118.738 169.574 118.738 171.637C118.738 173.699 118.203 175.316 117.133 176.488ZM110.254 174.941C110.918 175.699 111.785 176.078 112.855 176.078C113.934 176.078 114.805 175.699 115.469 174.941C116.133 174.184 116.465 173.086 116.465 171.648C116.465 170.203 116.133 169.102 115.469 168.344C114.805 167.578 113.934 167.195 112.855 167.195C111.785 167.195 110.918 167.578 110.254 168.344C109.59 169.102 109.258 170.203 109.258 171.648C109.258 173.086 109.59 174.184 110.254 174.941ZM121.27 178V165.285H123.074L123.426 166.961H123.555C124.336 165.68 125.535 165.039 127.152 165.039C128.543 165.039 129.668 165.512 130.527 166.457C131.395 167.402 131.828 168.648 131.828 170.195V178H129.555V170.324C129.555 169.332 129.289 168.562 128.758 168.016C128.234 167.469 127.539 167.195 126.672 167.195C125.789 167.195 125.047 167.504 124.445 168.121C123.852 168.738 123.555 169.473 123.555 170.324V178H121.27ZM138.801 176.195C139.855 176.195 140.699 175.906 141.332 175.328C141.965 174.742 142.281 173.992 142.281 173.078V172.363H138.918C138.09 172.363 137.461 172.535 137.031 172.879C136.609 173.223 136.398 173.691 136.398 174.285C136.398 174.871 136.609 175.336 137.031 175.68C137.461 176.023 138.051 176.195 138.801 176.195ZM138.438 178.234C137.156 178.234 136.117 177.852 135.32 177.086C134.523 176.32 134.125 175.387 134.125 174.285C134.125 173.152 134.547 172.211 135.391 171.461C136.242 170.703 137.418 170.324 138.918 170.324H142.281V169.715C142.281 168.934 142.031 168.32 141.531 167.875C141.039 167.422 140.367 167.195 139.516 167.195C138.828 167.195 138.27 167.344 137.84 167.641C137.41 167.938 137.129 168.312 136.996 168.766H134.605C134.848 167.711 135.418 166.828 136.316 166.117C137.223 165.398 138.289 165.039 139.516 165.039C141.102 165.039 142.34 165.469 143.23 166.328C144.121 167.18 144.566 168.309 144.566 169.715V178H142.645L142.398 176.441H142.281C142.008 176.902 141.523 177.316 140.828 177.684C140.133 178.051 139.336 178.234 138.438 178.234ZM147.684 178V161.195H149.969V178H147.684Z" fill="#345995"/>
<path d="M257.852 180V163.195H264.566C266.184 163.195 267.488 163.668 268.48 164.613C269.473 165.559 269.969 166.809 269.969 168.363C269.969 169.176 269.832 169.914 269.559 170.578C269.285 171.242 268.93 171.773 268.492 172.172C268.055 172.562 267.605 172.871 267.145 173.098C266.691 173.316 266.234 173.457 265.773 173.52L270.332 180H267.449L262.891 173.52H260.371V180H257.852ZM260.371 171.234H264.332C265.293 171.234 266.051 170.98 266.605 170.473C267.168 169.957 267.449 169.254 267.449 168.363C267.449 167.465 267.168 166.762 266.605 166.254C266.051 165.738 265.293 165.48 264.332 165.48H260.371V171.234ZM272.84 184.805V167.285H274.645L274.996 168.961H275.125C276.117 167.68 277.438 167.039 279.086 167.039C280.703 167.039 282.004 167.617 282.988 168.773C283.98 169.922 284.477 171.547 284.477 173.648C284.477 175.742 283.98 177.363 282.988 178.512C281.996 179.66 280.695 180.234 279.086 180.234C277.422 180.234 276.141 179.637 275.242 178.441H275.125V184.805H272.84ZM278.723 178.078C279.777 178.078 280.621 177.703 281.254 176.953C281.887 176.203 282.203 175.102 282.203 173.648C282.203 172.188 281.887 171.082 281.254 170.332C280.621 169.574 279.777 169.195 278.723 169.195C277.652 169.195 276.785 169.578 276.121 170.344C275.457 171.102 275.125 172.203 275.125 173.648C275.125 175.086 275.457 176.184 276.121 176.941C276.785 177.699 277.652 178.078 278.723 178.078ZM297.555 180.234C295.859 180.234 294.457 179.82 293.348 178.992C292.246 178.156 291.605 176.934 291.426 175.324H293.945C294.055 176.09 294.453 176.723 295.141 177.223C295.836 177.715 296.641 177.961 297.555 177.961C298.609 177.961 299.43 177.723 300.016 177.246C300.609 176.762 300.906 176.121 300.906 175.324C300.906 174.543 300.594 173.906 299.969 173.414C299.352 172.922 298.523 172.676 297.484 172.676H296.23V170.52H297.484C298.508 170.52 299.293 170.281 299.84 169.805C300.395 169.32 300.672 168.68 300.672 167.883C300.672 167.078 300.398 166.438 299.852 165.961C299.312 165.477 298.547 165.234 297.555 165.234C296.688 165.234 295.938 165.473 295.305 165.949C294.672 166.418 294.301 167.062 294.191 167.883H291.672C291.914 166.297 292.555 165.082 293.594 164.238C294.633 163.387 295.953 162.961 297.555 162.961C299.281 162.961 300.652 163.398 301.668 164.273C302.684 165.141 303.191 166.305 303.191 167.766C303.191 168.664 302.965 169.434 302.512 170.074C302.066 170.707 301.453 171.176 300.672 171.48C301.523 171.785 302.195 172.285 302.688 172.98C303.18 173.676 303.426 174.496 303.426 175.441C303.426 176.848 302.902 178 301.855 178.898C300.809 179.789 299.375 180.234 297.555 180.234ZM308.395 179.66C308.113 179.965 307.738 180.117 307.27 180.117C306.809 180.117 306.434 179.965 306.145 179.66C305.855 179.355 305.711 178.988 305.711 178.559C305.711 178.129 305.855 177.762 306.145 177.457C306.434 177.152 306.809 177 307.27 177C307.738 177 308.113 177.152 308.395 177.457C308.684 177.762 308.828 178.129 308.828 178.559C308.828 178.988 308.684 179.355 308.395 179.66ZM316.984 177.961C318.055 177.961 318.902 177.656 319.527 177.047C320.152 176.438 320.465 175.621 320.465 174.598C320.465 173.574 320.152 172.758 319.527 172.148C318.902 171.539 318.055 171.234 316.984 171.234C315.898 171.234 315.027 171.539 314.371 172.148C313.715 172.758 313.387 173.574 313.387 174.598C313.387 175.621 313.715 176.438 314.371 177.047C315.027 177.656 315.898 177.961 316.984 177.961ZM316.984 180.234C315.125 180.234 313.641 179.691 312.531 178.605C311.422 177.52 310.867 176.105 310.867 174.363C310.867 172.793 311.426 171.113 312.543 169.324L316.387 163.195H319.27L314.945 169.676H315.062C315.656 169.277 316.402 169.078 317.301 169.078C318.98 169.078 320.348 169.598 321.402 170.637C322.457 171.676 322.984 172.996 322.984 174.598C322.984 176.246 322.438 177.598 321.344 178.652C320.258 179.707 318.805 180.234 316.984 180.234ZM337.164 178.02C335.898 179.496 334.211 180.234 332.102 180.234C329.992 180.234 328.305 179.496 327.039 178.02C325.773 176.543 325.141 174.406 325.141 171.609C325.141 168.805 325.773 166.664 327.039 165.188C328.305 163.703 329.992 162.961 332.102 162.961C334.211 162.961 335.898 163.703 337.164 165.188C338.43 166.664 339.062 168.805 339.062 171.609C339.062 174.406 338.43 176.543 337.164 178.02ZM328.914 176.344C329.758 177.422 330.82 177.961 332.102 177.961C333.383 177.961 334.441 177.422 335.277 176.344C336.121 175.258 336.543 173.676 336.543 171.598C336.543 169.52 336.121 167.941 335.277 166.863C334.441 165.777 333.383 165.234 332.102 165.234C330.82 165.234 329.758 165.777 328.914 166.863C328.078 167.941 327.66 169.52 327.66 171.598C327.66 173.676 328.078 175.258 328.914 176.344ZM353.242 178.02C351.977 179.496 350.289 180.234 348.18 180.234C346.07 180.234 344.383 179.496 343.117 178.02C341.852 176.543 341.219 174.406 341.219 171.609C341.219 168.805 341.852 166.664 343.117 165.188C344.383 163.703 346.07 162.961 348.18 162.961C350.289 162.961 351.977 163.703 353.242 165.188C354.508 166.664 355.141 168.805 355.141 171.609C355.141 174.406 354.508 176.543 353.242 178.02ZM344.992 176.344C345.836 177.422 346.898 177.961 348.18 177.961C349.461 177.961 350.52 177.422 351.355 176.344C352.199 175.258 352.621 173.676 352.621 171.598C352.621 169.52 352.199 167.941 351.355 166.863C350.52 165.777 349.461 165.234 348.18 165.234C346.898 165.234 345.836 165.777 344.992 166.863C344.156 167.941 343.738 169.52 343.738 171.598C343.738 173.676 344.156 175.258 344.992 176.344ZM359.254 179.66C358.973 179.965 358.598 180.117 358.129 180.117C357.668 180.117 357.293 179.965 357.004 179.66C356.715 179.355 356.57 178.988 356.57 178.559C356.57 178.129 356.715 177.762 357.004 177.457C357.293 177.152 357.668 177 358.129 177C358.598 177 358.973 177.152 359.254 177.457C359.543 177.762 359.688 178.129 359.688 178.559C359.688 178.988 359.543 179.355 359.254 179.66ZM373.867 178.02C372.602 179.496 370.914 180.234 368.805 180.234C366.695 180.234 365.008 179.496 363.742 178.02C362.477 176.543 361.844 174.406 361.844 171.609C361.844 168.805 362.477 166.664 363.742 165.188C365.008 163.703 366.695 162.961 368.805 162.961C370.914 162.961 372.602 163.703 373.867 165.188C375.133 166.664 375.766 168.805 375.766 171.609C375.766 174.406 375.133 176.543 373.867 178.02ZM365.617 176.344C366.461 177.422 367.523 177.961 368.805 177.961C370.086 177.961 371.145 177.422 371.98 176.344C372.824 175.258 373.246 173.676 373.246 171.598C373.246 169.52 372.824 167.941 371.98 166.863C371.145 165.777 370.086 165.234 368.805 165.234C367.523 165.234 366.461 165.777 365.617 166.863C364.781 167.941 364.363 169.52 364.363 171.598C364.363 173.676 364.781 175.258 365.617 176.344ZM389.945 178.02C388.68 179.496 386.992 180.234 384.883 180.234C382.773 180.234 381.086 179.496 379.82 178.02C378.555 176.543 377.922 174.406 377.922 171.609C377.922 168.805 378.555 166.664 379.82 165.188C381.086 163.703 382.773 162.961 384.883 162.961C386.992 162.961 388.68 163.703 389.945 165.188C391.211 166.664 391.844 168.805 391.844 171.609C391.844 174.406 391.211 176.543 389.945 178.02ZM381.695 176.344C382.539 177.422 383.602 177.961 384.883 177.961C386.164 177.961 387.223 177.422 388.059 176.344C388.902 175.258 389.324 173.676 389.324 171.598C389.324 169.52 388.902 167.941 388.059 166.863C387.223 165.777 386.164 165.234 384.883 165.234C383.602 165.234 382.539 165.777 381.695 166.863C380.859 167.941 380.441 169.52 380.441 171.598C380.441 173.676 380.859 175.258 381.695 176.344ZM406.023 178.02C404.758 179.496 403.07 180.234 400.961 180.234C398.852 180.234 397.164 179.496 395.898 178.02C394.633 176.543 394 174.406 394 171.609C394 168.805 394.633 166.664 395.898 165.188C397.164 163.703 398.852 162.961 400.961 162.961C403.07 162.961 404.758 163.703 406.023 165.188C407.289 166.664 407.922 168.805 407.922 171.609C407.922 174.406 407.289 176.543 406.023 178.02ZM397.773 176.344C398.617 177.422 399.68 177.961 400.961 177.961C402.242 177.961 403.301 177.422 404.137 176.344C404.98 175.258 405.402 173.676 405.402 171.598C405.402 169.52 404.98 167.941 404.137 166.863C403.301 165.777 402.242 165.234 400.961 165.234C399.68 165.234 398.617 165.777 397.773 166.863C396.938 167.941 396.52 169.52 396.52 171.598C396.52 173.676 396.938 175.258 397.773 176.344Z" fill="#345995"/>
<rect x="58.5" y="203.5" width="350" height="9" rx="4.5" stroke="black"/>
<rect x="58.5" y="203.5" width="195" height="9" rx="4.5" fill="#345995" stroke="black"/>
<path d="M61.3633 241V237.363L57.9316 231.197H59.4697L62.0605 235.887H62.1289L64.7197 231.197H66.2578L62.833 237.363V241H61.3633ZM71.5628 240.118C70.9385 240.797 70.1068 241.137 69.0677 241.137C68.0332 241.137 67.2038 240.797 66.5794 240.118C65.9551 239.435 65.6429 238.491 65.6429 237.288C65.6429 236.085 65.9551 235.144 66.5794 234.465C67.2038 233.781 68.0332 233.439 69.0677 233.439C70.1068 233.439 70.9385 233.781 71.5628 234.465C72.1872 235.144 72.4994 236.085 72.4994 237.288C72.4994 238.491 72.1872 239.435 71.5628 240.118ZM67.5501 239.216C67.9375 239.658 68.4434 239.879 69.0677 239.879C69.6966 239.879 70.2048 239.658 70.5921 239.216C70.9795 238.774 71.1732 238.133 71.1732 237.295C71.1732 236.452 70.9795 235.809 70.5921 235.367C70.2048 234.921 69.6966 234.697 69.0677 234.697C68.4434 234.697 67.9375 234.921 67.5501 235.367C67.1628 235.809 66.9691 236.452 66.9691 237.295C66.9691 238.133 67.1628 238.774 67.5501 239.216ZM76.7175 241.137C75.9063 241.137 75.2477 240.863 74.7419 240.316C74.2406 239.765 73.9899 239.036 73.9899 238.129V233.583H75.3229V238.061C75.3229 238.639 75.4756 239.088 75.7809 239.407C76.0908 239.722 76.4964 239.879 76.9977 239.879C77.5127 239.879 77.9456 239.699 78.2966 239.339C78.6475 238.979 78.8229 238.553 78.8229 238.061V233.583H80.1491V241H79.1032L78.8913 240.022H78.8229C78.3626 240.765 77.6608 241.137 76.7175 241.137ZM87.5326 241.137C86.7487 241.137 86.0856 240.936 85.5433 240.535C85.001 240.134 84.6592 239.612 84.5179 238.97H85.9876C86.1745 239.576 86.6895 239.879 87.5326 239.879C88.0658 239.879 88.4668 239.792 88.7357 239.619C89.0046 239.446 89.139 239.229 89.139 238.97C89.139 238.719 89.0319 238.519 88.8177 238.368C88.6035 238.218 88.3346 238.113 88.0111 238.054C87.6921 237.994 87.3457 237.915 86.972 237.814C86.5983 237.71 86.2497 237.591 85.9261 237.459C85.6025 237.327 85.3337 237.104 85.1195 236.789C84.9053 236.47 84.7982 236.078 84.7982 235.613C84.7982 234.998 85.0374 234.483 85.516 234.068C85.999 233.649 86.6462 233.439 87.4574 233.439C88.2139 233.439 88.8587 233.626 89.3919 234C89.9251 234.374 90.2601 234.864 90.3968 235.47H88.9271C88.6673 234.955 88.1774 234.697 87.4574 234.697C86.5687 234.697 86.1266 235.003 86.1312 235.613C86.1312 235.864 86.2383 236.067 86.4525 236.222C86.6667 236.372 86.9333 236.479 87.2523 236.543C87.5759 236.602 87.9245 236.687 88.2982 236.796C88.6719 236.901 89.0182 237.019 89.3372 237.151C89.6608 237.279 89.9297 237.5 90.1439 237.814C90.3626 238.129 90.472 238.514 90.472 238.97C90.472 239.585 90.21 240.1 89.6859 240.515C89.1664 240.929 88.4486 241.137 87.5326 241.137ZM91.819 243.803V233.583H92.8718L93.0768 234.561H93.152C93.7308 233.813 94.501 233.439 95.4626 233.439C96.4059 233.439 97.1647 233.777 97.7389 234.451C98.3177 235.121 98.6071 236.069 98.6071 237.295C98.6071 238.516 98.3177 239.462 97.7389 240.132C97.1602 240.802 96.4014 241.137 95.4626 241.137C94.4919 241.137 93.7445 240.788 93.2204 240.091H93.152V243.803H91.819ZM95.2507 239.879C95.8659 239.879 96.3581 239.66 96.7272 239.223C97.0964 238.785 97.2809 238.143 97.2809 237.295C97.2809 236.443 97.0964 235.798 96.7272 235.36C96.3581 234.918 95.8659 234.697 95.2507 234.697C94.6263 234.697 94.1205 234.921 93.7331 235.367C93.3457 235.809 93.152 236.452 93.152 237.295C93.152 238.133 93.3457 238.774 93.7331 239.216C94.1205 239.658 94.6263 239.879 95.2507 239.879ZM103.242 241.137C102.18 241.137 101.33 240.797 100.692 240.118C100.059 239.435 99.7422 238.491 99.7422 237.288C99.7422 236.085 100.054 235.144 100.679 234.465C101.303 233.781 102.135 233.439 103.174 233.439C104.227 233.439 105.061 233.795 105.676 234.506C106.291 235.212 106.599 236.023 106.599 236.939L106.53 237.712H101.13C101.166 238.405 101.376 238.94 101.759 239.318C102.142 239.692 102.636 239.879 103.242 239.879C104.008 239.879 104.591 239.576 104.992 238.97H106.462C106.211 239.621 105.806 240.146 105.245 240.542C104.685 240.938 104.017 241.137 103.242 241.137ZM101.13 236.591H105.231C105.149 235.994 104.926 235.529 104.562 235.196C104.197 234.864 103.734 234.697 103.174 234.697C102.613 234.697 102.151 234.864 101.786 235.196C101.422 235.529 101.203 235.994 101.13 236.591ZM108.089 241V233.583H109.142L109.347 234.561H109.422C109.878 233.813 110.577 233.439 111.521 233.439C112.332 233.439 112.988 233.715 113.49 234.267C113.995 234.818 114.248 235.545 114.248 236.447V241H112.922V236.522C112.922 235.944 112.767 235.495 112.457 235.176C112.152 234.857 111.746 234.697 111.241 234.697C110.726 234.697 110.293 234.877 109.942 235.237C109.595 235.597 109.422 236.026 109.422 236.522V241H108.089ZM119.027 239.879C119.651 239.879 120.157 239.658 120.545 239.216C120.937 238.774 121.133 238.133 121.133 237.295C121.133 236.452 120.939 235.809 120.551 235.367C120.164 234.921 119.656 234.697 119.027 234.697C118.412 234.697 117.92 234.918 117.55 235.36C117.181 235.798 116.997 236.443 116.997 237.295C116.997 238.143 117.181 238.785 117.55 239.223C117.92 239.66 118.412 239.879 119.027 239.879ZM118.822 241.137C117.879 241.137 117.118 240.802 116.539 240.132C115.96 239.462 115.671 238.514 115.671 237.288C115.671 236.058 115.965 235.11 116.552 234.444C117.14 233.774 117.92 233.439 118.89 233.439C119.815 233.439 120.538 233.79 121.057 234.492H121.133V231.197H122.459V241H121.413L121.201 240.022H121.133C120.554 240.765 119.784 241.137 118.822 241.137ZM130.533 241.137C129.544 241.137 128.726 240.895 128.078 240.412C127.436 239.924 127.062 239.211 126.957 238.272H128.427C128.491 238.719 128.723 239.088 129.124 239.38C129.53 239.667 129.999 239.811 130.533 239.811C131.148 239.811 131.626 239.672 131.968 239.394C132.314 239.111 132.488 238.737 132.488 238.272C132.488 237.817 132.305 237.445 131.941 237.158C131.581 236.871 131.098 236.728 130.492 236.728H129.76V235.47H130.492C131.089 235.47 131.547 235.331 131.866 235.053C132.189 234.77 132.351 234.396 132.351 233.932C132.351 233.462 132.191 233.089 131.872 232.811C131.558 232.528 131.111 232.387 130.533 232.387C130.027 232.387 129.589 232.526 129.22 232.804C128.851 233.077 128.634 233.453 128.571 233.932H127.101C127.242 233.007 127.616 232.298 128.222 231.806C128.828 231.309 129.598 231.061 130.533 231.061C131.54 231.061 132.34 231.316 132.932 231.826C133.524 232.332 133.821 233.011 133.821 233.863C133.821 234.387 133.689 234.836 133.424 235.21C133.164 235.579 132.807 235.853 132.351 236.03C132.848 236.208 133.24 236.5 133.527 236.905C133.814 237.311 133.957 237.789 133.957 238.341C133.957 239.161 133.652 239.833 133.041 240.357C132.431 240.877 131.594 241.137 130.533 241.137ZM142.318 239.845C141.58 240.706 140.595 241.137 139.365 241.137C138.134 241.137 137.15 240.706 136.412 239.845C135.674 238.983 135.304 237.737 135.304 236.105C135.304 234.469 135.674 233.221 136.412 232.359C137.15 231.493 138.134 231.061 139.365 231.061C140.595 231.061 141.58 231.493 142.318 232.359C143.056 233.221 143.425 234.469 143.425 236.105C143.425 237.737 143.056 238.983 142.318 239.845ZM137.506 238.867C137.998 239.496 138.618 239.811 139.365 239.811C140.112 239.811 140.73 239.496 141.217 238.867C141.71 238.234 141.956 237.311 141.956 236.099C141.956 234.886 141.71 233.966 141.217 233.337C140.73 232.703 140.112 232.387 139.365 232.387C138.618 232.387 137.998 232.703 137.506 233.337C137.018 233.966 136.774 234.886 136.774 236.099C136.774 237.311 137.018 238.234 137.506 238.867ZM145.606 241L151.697 231.197H153.099L147.008 241H145.606ZM153.529 240.508C153.119 240.927 152.577 241.137 151.902 241.137C151.232 241.137 150.692 240.927 150.282 240.508C149.872 240.089 149.667 239.53 149.667 238.833C149.667 238.131 149.872 237.571 150.282 237.151C150.692 236.732 151.232 236.522 151.902 236.522C152.577 236.522 153.119 236.732 153.529 237.151C153.944 237.571 154.151 238.131 154.151 238.833C154.151 239.53 153.944 240.089 153.529 240.508ZM151.089 239.749C151.289 239.977 151.563 240.091 151.909 240.091C152.256 240.091 152.529 239.977 152.73 239.749C152.93 239.521 153.03 239.216 153.03 238.833C153.03 238.45 152.93 238.145 152.73 237.917C152.529 237.685 152.256 237.568 151.909 237.568C151.563 237.568 151.289 237.685 151.089 237.917C150.888 238.145 150.788 238.45 150.788 238.833C150.788 239.216 150.888 239.521 151.089 239.749ZM148.423 235.053C148.013 235.472 147.47 235.682 146.796 235.682C146.126 235.682 145.586 235.472 145.176 235.053C144.766 234.629 144.561 234.068 144.561 233.371C144.561 232.669 144.766 232.109 145.176 231.689C145.586 231.27 146.126 231.061 146.796 231.061C147.47 231.061 148.013 231.27 148.423 231.689C148.833 232.109 149.038 232.669 149.038 233.371C149.038 234.068 148.833 234.629 148.423 235.053ZM145.982 234.287C146.183 234.515 146.454 234.629 146.796 234.629C147.142 234.629 147.416 234.515 147.616 234.287C147.817 234.059 147.917 233.754 147.917 233.371C147.917 232.988 147.817 232.683 147.616 232.455C147.416 232.227 147.142 232.113 146.796 232.113C146.454 232.113 146.183 232.227 145.982 232.455C145.782 232.683 145.682 232.988 145.682 233.371C145.682 233.754 145.782 234.059 145.982 234.287ZM158.65 241V233.583H159.703L159.908 234.561H159.983C160.457 233.813 161.086 233.439 161.87 233.439C162.376 233.439 162.806 233.562 163.162 233.809C163.522 234.05 163.791 234.371 163.968 234.772H164.044C164.258 234.371 164.565 234.05 164.967 233.809C165.368 233.562 165.83 233.439 166.354 233.439C167.111 233.439 167.731 233.711 168.214 234.253C168.697 234.795 168.938 235.527 168.938 236.447V241H167.612V236.522C167.612 235.944 167.471 235.495 167.188 235.176C166.91 234.857 166.539 234.697 166.074 234.697C165.636 234.697 165.258 234.866 164.939 235.203C164.62 235.54 164.461 235.98 164.461 236.522V241H163.128V236.522C163.128 235.944 162.989 235.495 162.711 235.176C162.433 234.857 162.059 234.697 161.59 234.697C161.152 234.697 160.774 234.866 160.455 235.203C160.14 235.54 159.983 235.98 159.983 236.522V241H158.65ZM176.28 240.118C175.656 240.797 174.824 241.137 173.785 241.137C172.751 241.137 171.921 240.797 171.297 240.118C170.673 239.435 170.36 238.491 170.36 237.288C170.36 236.085 170.673 235.144 171.297 234.465C171.921 233.781 172.751 233.439 173.785 233.439C174.824 233.439 175.656 233.781 176.28 234.465C176.905 235.144 177.217 236.085 177.217 237.288C177.217 238.491 176.905 239.435 176.28 240.118ZM172.268 239.216C172.655 239.658 173.161 239.879 173.785 239.879C174.414 239.879 174.922 239.658 175.31 239.216C175.697 238.774 175.891 238.133 175.891 237.295C175.891 236.452 175.697 235.809 175.31 235.367C174.922 234.921 174.414 234.697 173.785 234.697C173.161 234.697 172.655 234.921 172.268 235.367C171.88 235.809 171.687 236.452 171.687 237.295C171.687 238.133 171.88 238.774 172.268 239.216ZM178.707 241V233.583H179.76L179.965 234.561H180.04C180.432 233.909 181.061 233.583 181.927 233.583H182.768V234.841H181.995C181.408 234.841 180.934 235.012 180.574 235.354C180.218 235.691 180.04 236.126 180.04 236.659V241H178.707ZM186.767 241.137C185.705 241.137 184.856 240.797 184.217 240.118C183.584 239.435 183.267 238.491 183.267 237.288C183.267 236.085 183.579 235.144 184.204 234.465C184.828 233.781 185.66 233.439 186.699 233.439C187.752 233.439 188.586 233.795 189.201 234.506C189.816 235.212 190.124 236.023 190.124 236.939L190.055 237.712H184.655C184.691 238.405 184.901 238.94 185.284 239.318C185.667 239.692 186.161 239.879 186.767 239.879C187.533 239.879 188.116 239.576 188.517 238.97H189.987C189.736 239.621 189.331 240.146 188.77 240.542C188.21 240.938 187.542 241.137 186.767 241.137ZM184.655 236.591H188.757C188.675 235.994 188.451 235.529 188.087 235.196C187.722 234.864 187.259 234.697 186.699 234.697C186.138 234.697 185.676 234.864 185.311 235.196C184.947 235.529 184.728 235.994 184.655 236.591ZM197.227 241C196.639 241 196.165 240.818 195.805 240.453C195.445 240.089 195.265 239.617 195.265 239.038V234.841H194.076V233.583H195.265L195.477 231.621H196.598V233.583H198.416V234.841H196.598V238.901C196.598 239.152 196.664 239.355 196.796 239.51C196.933 239.665 197.122 239.742 197.364 239.742H198.416V241H197.227ZM199.968 241V231.197H201.301V234.492H201.37C201.575 234.155 201.86 233.895 202.224 233.713C202.589 233.531 202.981 233.439 203.4 233.439C204.211 233.439 204.868 233.715 205.369 234.267C205.875 234.818 206.128 235.545 206.128 236.447V241H204.801V236.522C204.801 235.944 204.647 235.495 204.337 235.176C204.031 234.857 203.626 234.697 203.12 234.697C202.605 234.697 202.172 234.877 201.821 235.237C201.475 235.597 201.301 236.026 201.301 236.522V241H199.968ZM210.209 239.947C210.824 239.947 211.316 239.779 211.686 239.441C212.055 239.1 212.239 238.662 212.239 238.129V237.712H210.277C209.794 237.712 209.427 237.812 209.177 238.013C208.931 238.213 208.808 238.487 208.808 238.833C208.808 239.175 208.931 239.446 209.177 239.646C209.427 239.847 209.772 239.947 210.209 239.947ZM209.997 241.137C209.25 241.137 208.644 240.913 208.179 240.467C207.714 240.02 207.482 239.476 207.482 238.833C207.482 238.172 207.728 237.623 208.22 237.186C208.717 236.743 209.402 236.522 210.277 236.522H212.239V236.167C212.239 235.711 212.093 235.354 211.802 235.094C211.515 234.829 211.123 234.697 210.626 234.697C210.225 234.697 209.899 234.784 209.648 234.957C209.398 235.13 209.234 235.349 209.156 235.613H207.762C207.903 234.998 208.236 234.483 208.76 234.068C209.288 233.649 209.911 233.439 210.626 233.439C211.551 233.439 212.273 233.69 212.793 234.191C213.313 234.688 213.572 235.347 213.572 236.167V241H212.451L212.308 240.091H212.239C212.08 240.36 211.797 240.601 211.392 240.815C210.986 241.03 210.521 241.137 209.997 241.137ZM215.336 241V233.583H216.389L216.594 234.561H216.669C217.125 233.813 217.825 233.439 218.768 233.439C219.579 233.439 220.235 233.715 220.737 234.267C221.243 234.818 221.495 235.545 221.495 236.447V241H220.169V236.522C220.169 235.944 220.014 235.495 219.704 235.176C219.399 234.857 218.994 234.697 218.488 234.697C217.973 234.697 217.54 234.877 217.189 235.237C216.843 235.597 216.669 236.026 216.669 236.522V241H215.336ZM226.357 243.803V233.583H227.409L227.614 234.561H227.69C228.268 233.813 229.038 233.439 230 233.439C230.943 233.439 231.702 233.777 232.276 234.451C232.855 235.121 233.145 236.069 233.145 237.295C233.145 238.516 232.855 239.462 232.276 240.132C231.698 240.802 230.939 241.137 230 241.137C229.029 241.137 228.282 240.788 227.758 240.091H227.69V243.803H226.357ZM229.788 239.879C230.403 239.879 230.896 239.66 231.265 239.223C231.634 238.785 231.818 238.143 231.818 237.295C231.818 236.443 231.634 235.798 231.265 235.36C230.896 234.918 230.403 234.697 229.788 234.697C229.164 234.697 228.658 234.921 228.271 235.367C227.883 235.809 227.69 236.452 227.69 237.295C227.69 238.133 227.883 238.774 228.271 239.216C228.658 239.658 229.164 239.879 229.788 239.879ZM234.628 241V233.583H235.681L235.886 234.561H235.961C236.353 233.909 236.982 233.583 237.848 233.583H238.689V234.841H237.916C237.329 234.841 236.855 235.012 236.495 235.354C236.139 235.691 235.961 236.126 235.961 236.659V241H234.628ZM242.688 241.137C241.626 241.137 240.776 240.797 240.138 240.118C239.505 239.435 239.188 238.491 239.188 237.288C239.188 236.085 239.5 235.144 240.125 234.465C240.749 233.781 241.581 233.439 242.62 233.439C243.673 233.439 244.507 233.795 245.122 234.506C245.737 235.212 246.045 236.023 246.045 236.939L245.976 237.712H240.576C240.612 238.405 240.822 238.94 241.205 239.318C241.588 239.692 242.082 239.879 242.688 239.879C243.454 239.879 244.037 239.576 244.438 238.97H245.908C245.657 239.621 245.252 240.146 244.691 240.542C244.131 240.938 243.463 241.137 242.688 241.137ZM240.576 236.591H244.677C244.595 235.994 244.372 235.529 244.008 235.196C243.643 234.864 243.18 234.697 242.62 234.697C242.059 234.697 241.597 234.864 241.232 235.196C240.868 235.529 240.649 235.994 240.576 236.591ZM249.292 241L246.489 233.583H247.891L250.058 239.462H250.126L252.3 233.583H253.701L250.899 241H249.292ZM254.618 241V233.583H255.951V241H254.618ZM255.288 232.742C255.028 232.742 254.816 232.66 254.652 232.496C254.488 232.332 254.406 232.125 254.406 231.874C254.406 231.614 254.488 231.402 254.652 231.238C254.816 231.074 255.028 230.992 255.288 230.992C255.538 230.992 255.746 231.074 255.91 231.238C256.074 231.398 256.156 231.61 256.156 231.874C256.156 232.125 256.074 232.332 255.91 232.496C255.746 232.66 255.538 232.742 255.288 232.742ZM263.347 240.118C262.723 240.797 261.891 241.137 260.852 241.137C259.818 241.137 258.988 240.797 258.364 240.118C257.74 239.435 257.427 238.491 257.427 237.288C257.427 236.085 257.74 235.144 258.364 234.465C258.988 233.781 259.818 233.439 260.852 233.439C261.891 233.439 262.723 233.781 263.347 234.465C263.972 235.144 264.284 236.085 264.284 237.288C264.284 238.491 263.972 239.435 263.347 240.118ZM259.335 239.216C259.722 239.658 260.228 239.879 260.852 239.879C261.481 239.879 261.989 239.658 262.377 239.216C262.764 238.774 262.958 238.133 262.958 237.295C262.958 236.452 262.764 235.809 262.377 235.367C261.989 234.921 261.481 234.697 260.852 234.697C260.228 234.697 259.722 234.921 259.335 235.367C258.947 235.809 258.754 236.452 258.754 237.295C258.754 238.133 258.947 238.774 259.335 239.216ZM268.502 241.137C267.691 241.137 267.032 240.863 266.526 240.316C266.025 239.765 265.774 239.036 265.774 238.129V233.583H267.107V238.061C267.107 238.639 267.26 239.088 267.566 239.407C267.875 239.722 268.281 239.879 268.782 239.879C269.297 239.879 269.73 239.699 270.081 239.339C270.432 238.979 270.607 238.553 270.607 238.061V233.583H271.934V241H270.888L270.676 240.022H270.607C270.147 240.765 269.445 241.137 268.502 241.137ZM276.227 241.137C275.443 241.137 274.78 240.936 274.238 240.535C273.695 240.134 273.354 239.612 273.212 238.97H274.682C274.869 239.576 275.384 239.879 276.227 239.879C276.76 239.879 277.161 239.792 277.43 239.619C277.699 239.446 277.833 239.229 277.833 238.97C277.833 238.719 277.726 238.519 277.512 238.368C277.298 238.218 277.029 238.113 276.705 238.054C276.386 237.994 276.04 237.915 275.666 237.814C275.293 237.71 274.944 237.591 274.621 237.459C274.297 237.327 274.028 237.104 273.814 236.789C273.6 236.47 273.493 236.078 273.493 235.613C273.493 234.998 273.732 234.483 274.21 234.068C274.693 233.649 275.341 233.439 276.152 233.439C276.908 233.439 277.553 233.626 278.086 234C278.62 234.374 278.955 234.864 279.091 235.47H277.622C277.362 234.955 276.872 234.697 276.152 234.697C275.263 234.697 274.821 235.003 274.826 235.613C274.826 235.864 274.933 236.067 275.147 236.222C275.361 236.372 275.628 236.479 275.947 236.543C276.27 236.602 276.619 236.687 276.993 236.796C277.366 236.901 277.713 237.019 278.032 237.151C278.355 237.279 278.624 237.5 278.838 237.814C279.057 238.129 279.166 238.514 279.166 238.97C279.166 239.585 278.904 240.1 278.38 240.515C277.861 240.929 277.143 241.137 276.227 241.137ZM283.604 241V233.583H284.656L284.861 234.561H284.937C285.411 233.813 286.039 233.439 286.823 233.439C287.329 233.439 287.76 233.562 288.115 233.809C288.475 234.05 288.744 234.371 288.922 234.772H288.997C289.211 234.371 289.519 234.05 289.92 233.809C290.321 233.562 290.784 233.439 291.308 233.439C292.064 233.439 292.684 233.711 293.167 234.253C293.65 234.795 293.892 235.527 293.892 236.447V241H292.566V236.522C292.566 235.944 292.424 235.495 292.142 235.176C291.864 234.857 291.492 234.697 291.027 234.697C290.59 234.697 290.212 234.866 289.893 235.203C289.574 235.54 289.414 235.98 289.414 236.522V241H288.081V236.522C288.081 235.944 287.942 235.495 287.664 235.176C287.386 234.857 287.012 234.697 286.543 234.697C286.106 234.697 285.727 234.866 285.408 235.203C285.094 235.54 284.937 235.98 284.937 236.522V241H283.604ZM301.234 240.118C300.609 240.797 299.778 241.137 298.739 241.137C297.704 241.137 296.875 240.797 296.25 240.118C295.626 239.435 295.314 238.491 295.314 237.288C295.314 236.085 295.626 235.144 296.25 234.465C296.875 233.781 297.704 233.439 298.739 233.439C299.778 233.439 300.609 233.781 301.234 234.465C301.858 235.144 302.17 236.085 302.17 237.288C302.17 238.491 301.858 239.435 301.234 240.118ZM297.221 239.216C297.608 239.658 298.114 239.879 298.739 239.879C299.368 239.879 299.876 239.658 300.263 239.216C300.65 238.774 300.844 238.133 300.844 237.295C300.844 236.452 300.65 235.809 300.263 235.367C299.876 234.921 299.368 234.697 298.739 234.697C298.114 234.697 297.608 234.921 297.221 235.367C296.834 235.809 296.64 236.452 296.64 237.295C296.64 238.133 296.834 238.774 297.221 239.216ZM303.661 241V233.583H304.714L304.919 234.561H304.994C305.45 233.813 306.149 233.439 307.093 233.439C307.904 233.439 308.56 233.715 309.061 234.267C309.567 234.818 309.82 235.545 309.82 236.447V241H308.494V236.522C308.494 235.944 308.339 235.495 308.029 235.176C307.724 234.857 307.318 234.697 306.812 234.697C306.297 234.697 305.864 234.877 305.513 235.237C305.167 235.597 304.994 236.026 304.994 236.522V241H303.661ZM314.113 241C313.525 241 313.052 240.818 312.691 240.453C312.331 240.089 312.151 239.617 312.151 239.038V234.841H310.962V233.583H312.151L312.363 231.621H313.484V233.583H315.303V234.841H313.484V238.901C313.484 239.152 313.551 239.355 313.683 239.51C313.819 239.665 314.009 239.742 314.25 239.742H315.303V241H314.113ZM316.855 241V231.197H318.188V234.492H318.256C318.461 234.155 318.746 233.895 319.111 233.713C319.475 233.531 319.867 233.439 320.287 233.439C321.098 233.439 321.754 233.715 322.255 234.267C322.761 234.818 323.014 235.545 323.014 236.447V241H321.688V236.522C321.688 235.944 321.533 235.495 321.223 235.176C320.918 234.857 320.512 234.697 320.006 234.697C319.491 234.697 319.058 234.877 318.707 235.237C318.361 235.597 318.188 236.026 318.188 236.522V241H316.855Z" fill="#345995"/>
<path d="M433.705 204L432.295 205.41L436.875 210L432.295 214.59L433.705 216L439.705 210L433.705 204Z" fill="#345995"/>
</g>
</g>
<defs>
<filter id="filter0_d_1319_4299" x="-7.5" y="23" width="517" height="666" filterUnits="userSpaceOnUse" color-interpolation-filters="sRGB">
<feFlood flood-opacity="0" result="BackgroundImageFix"/>
<feColorMatrix in="SourceAlpha" type="matrix" values="0 0 0 0 0 0 0 0 0 0 0 0 0 0 0 0 0 0 127 0" result="hardAlpha"/>
<feMorphology radius="8" operator="dilate" in="SourceAlpha" result="effect1_dropShadow_1319_4299"/>
<feOffset dy="9"/>
<feGaussianBlur stdDeviation="23"/>
<feComposite in2="hardAlpha" operator="out"/>
<feColorMatrix type="matrix" values="0 0 0 0 0 0 0 0 0 0 0 0 0 0 0 0 0 0 0.14 0"/>
<feBlend mode="normal" in2="BackgroundImageFix" result="effect1_dropShadow_1319_4299"/>
<feBlend mode="normal" in="SourceGraphic" in2="effect1_dropShadow_1319_4299" result="shape"/>
</filter>
<clipPath id="clip0_1319_4299">
<rect x="0.5" width="501" height="694" rx="50" fill="white"/>
</clipPath>
<clipPath id="clip1_1319_4299">
<rect width="404" height="112" fill="white" transform="translate(51 372)"/>
</clipPath>
<clipPath id="clip2_1319_4299">
<rect width="404" height="112" fill="white" transform="translate(51 484)"/>
</clipPath>
<clipPath id="clip3_1319_4299">
<rect width="404" height="112" fill="white" transform="translate(51 259)"/>
</clipPath>
<clipPath id="clip4_1319_4299">
<rect width="404" height="112" fill="white" transform="translate(51 148)"/>
</clipPath>
</defs>
</svg>
