<svg width="45" height="45" viewBox="0 0 45 45" fill="none" xmlns="http://www.w3.org/2000/svg">
<path d="M33.9844 3.75H12.8906C11.0142 3.75 9.375 5.38916 9.375 7.26562V37.7344C9.375 39.6094 11.0142 41.25 12.8906 41.25H33.9844C35.8608 41.25 37.5 39.6108 37.5 37.7344V7.26562C37.5 5.38916 35.8594 3.75 33.9844 3.75ZM14.0625 18.9844C14.0625 18.3398 14.5898 17.8125 15.2344 17.8125H17.5781C18.2227 17.8125 18.75 18.3398 18.75 18.9844V21.3281C18.75 21.9727 18.2227 22.5 17.5781 22.5H15.2344C14.5898 22.5 14.0625 21.9727 14.0625 21.3281V18.9844ZM14.0625 26.0156C14.0625 25.3711 14.5898 24.8438 15.2344 24.8438H17.5781C18.2227 24.8438 18.75 25.3711 18.75 26.0156V28.3594C18.75 29.0039 18.2227 29.5312 17.5781 29.5312H15.2344C14.5898 29.5312 14.0625 29.0039 14.0625 28.3594V26.0156ZM25.7812 35.3906C25.7812 36.0352 25.254 36.5625 24.6094 36.5625H15.2344C14.5898 36.5625 14.0625 36.0352 14.0625 35.3906V33.0469C14.0625 32.4023 14.5898 31.875 15.2344 31.875H24.6094C25.254 31.875 25.7812 32.4023 25.7812 33.0469V35.3906ZM25.7812 28.3594C25.7812 29.004 25.254 29.5312 24.6094 29.5312H22.2656C21.6211 29.5312 21.0938 29.0039 21.0938 28.3594V26.0156C21.0938 25.3711 21.6211 24.8438 22.2656 24.8438H24.6094C25.2539 24.8438 25.7812 25.3711 25.7812 26.0156V28.3594ZM25.7812 21.3281C25.7812 21.9727 25.2539 22.5 24.6094 22.5H22.2656C21.6211 22.5 21.0938 21.9727 21.0938 21.3281V18.9844C21.0938 18.3398 21.6211 17.8125 22.2656 17.8125H24.6094C25.2539 17.8125 25.7812 18.3398 25.7812 18.9844V21.3281ZM32.8125 35.3906C32.8125 36.0352 32.2852 36.5625 31.6406 36.5625H29.2969C28.6524 36.5625 28.125 36.0352 28.125 35.3906V33.0469C28.125 32.4023 28.6524 31.875 29.2969 31.875H31.6406C32.2852 31.875 32.8125 32.4023 32.8125 33.0469V35.3906ZM32.8125 28.3594C32.8125 29.004 32.2852 29.5312 31.6406 29.5312H29.2969C28.6524 29.5312 28.125 29.004 28.125 28.3594V26.0156C28.125 25.3711 28.6523 24.8438 29.2969 24.8438H31.6406C32.2852 24.8438 32.8125 25.3711 32.8125 26.0156V28.3594ZM32.8125 21.3281C32.8125 21.9727 32.2852 22.5 31.6406 22.5H29.2969C28.6523 22.5 28.125 21.9727 28.125 21.3281V18.9844C28.125 18.3398 28.6523 17.8125 29.2969 17.8125H31.6406C32.2852 17.8125 32.8125 18.3398 32.8125 18.9844V21.3281ZM32.8125 14.2969C32.8125 14.9414 32.2852 15.4688 31.6406 15.4688H15.2344C14.5898 15.4688 14.0625 14.9414 14.0625 14.2969V9.60938C14.0625 8.96484 14.5898 8.4375 15.2344 8.4375H31.6406C32.2852 8.4375 32.8125 8.96484 32.8125 9.60938V14.2969Z" fill="white"/>
</svg>
