<svg width="45" height="45" viewBox="0 0 45 45" fill="none" xmlns="http://www.w3.org/2000/svg">
<path d="M8.4375 32.5781C8.4375 33.2227 8.96191 33.75 9.60938 33.75H38.9062C40.2026 33.75 41.25 34.7974 41.25 36.0938C41.25 37.3901 40.2026 38.4375 38.9062 38.4375H9.60938C6.37354 38.4375 3.75 35.8154 3.75 32.5781V7.96875C3.75 6.67456 4.79956 5.625 6.09375 5.625C7.38794 5.625 8.4375 6.67456 8.4375 7.96875V32.5781ZM28.8428 23.6865C27.9272 24.6021 26.4478 24.6021 25.5322 23.6865L21.3281 19.4897L14.7803 26.0303C13.8647 26.9458 12.3853 26.9458 11.4697 26.0303C10.5527 25.1147 10.5527 23.6353 11.4697 22.7197L19.6729 14.5166C20.5884 13.6011 22.0679 13.6011 22.9834 14.5166L27.1875 18.7134L34.9072 11.001C35.8228 10.084 37.3022 10.084 38.2178 11.001C39.1333 11.9165 39.1333 13.396 38.2178 14.3115L28.8428 23.6865Z" fill="white"/>
</svg>
