<svg width="260" height="226" viewBox="0 0 260 226" fill="none" xmlns="http://www.w3.org/2000/svg">
<g filter="url(#filter0_d_1329_3670)">
<rect x="54" y="45" width="152" height="118" rx="25" fill="#FFD9E3"/>
<path d="M76.3911 138V128.197H82.687V129.53H77.8608V132.401H82.4067V133.728H77.8608V136.667H82.8305V138H76.3911ZM83.4735 138L85.9891 134.151L83.6102 130.583H85.0799L86.8299 133.242L88.5799 130.583H90.0496L87.6707 134.151L90.1932 138H88.7235L86.8299 135.061L84.9432 138H83.4735ZM91.0412 140.803V130.583H92.0939L92.299 131.561H92.3742C92.9529 130.813 93.7231 130.439 94.6847 130.439C95.6281 130.439 96.3869 130.777 96.9611 131.451C97.5399 132.121 97.8293 133.069 97.8293 134.295C97.8293 135.516 97.5399 136.462 96.9611 137.132C96.3823 137.802 95.6235 138.137 94.6847 138.137C93.714 138.137 92.9666 137.788 92.4425 137.091H92.3742V140.803H91.0412ZM94.4728 136.879C95.088 136.879 95.5802 136.66 95.9494 136.223C96.3185 135.785 96.5031 135.143 96.5031 134.295C96.5031 133.443 96.3185 132.798 95.9494 132.36C95.5802 131.918 95.088 131.697 94.4728 131.697C93.8485 131.697 93.3426 131.921 92.9552 132.367C92.5679 132.809 92.3742 133.452 92.3742 134.295C92.3742 135.133 92.5679 135.774 92.9552 136.216C93.3426 136.658 93.8485 136.879 94.4728 136.879ZM102.464 138.137C101.402 138.137 100.553 137.797 99.9145 137.118C99.2811 136.435 98.9643 135.491 98.9643 134.288C98.9643 133.085 99.2765 132.144 99.9009 131.465C100.525 130.781 101.357 130.439 102.396 130.439C103.449 130.439 104.283 130.795 104.898 131.506C105.513 132.212 105.821 133.023 105.821 133.939L105.752 134.712H100.352C100.388 135.405 100.598 135.94 100.981 136.318C101.364 136.692 101.858 136.879 102.464 136.879C103.23 136.879 103.813 136.576 104.214 135.97H105.684C105.433 136.621 105.028 137.146 104.467 137.542C103.907 137.938 103.239 138.137 102.464 138.137ZM100.352 133.591H104.454C104.372 132.994 104.148 132.529 103.784 132.196C103.419 131.864 102.957 131.697 102.396 131.697C101.835 131.697 101.373 131.864 101.008 132.196C100.644 132.529 100.425 132.994 100.352 133.591ZM107.311 138V130.583H108.364L108.569 131.561H108.644C109.1 130.813 109.8 130.439 110.743 130.439C111.554 130.439 112.21 130.715 112.712 131.267C113.218 131.818 113.471 132.545 113.471 133.447V138H112.144V133.522C112.144 132.944 111.989 132.495 111.68 132.176C111.374 131.857 110.969 131.697 110.463 131.697C109.948 131.697 109.515 131.877 109.164 132.237C108.818 132.597 108.644 133.026 108.644 133.522V138H107.311ZM117.695 138.137C116.912 138.137 116.249 137.936 115.706 137.535C115.164 137.134 114.822 136.612 114.681 135.97H116.151C116.337 136.576 116.852 136.879 117.695 136.879C118.229 136.879 118.63 136.792 118.899 136.619C119.167 136.446 119.302 136.229 119.302 135.97C119.302 135.719 119.195 135.519 118.981 135.368C118.766 135.218 118.498 135.113 118.174 135.054C117.855 134.994 117.509 134.915 117.135 134.814C116.761 134.71 116.413 134.591 116.089 134.459C115.765 134.327 115.497 134.104 115.282 133.789C115.068 133.47 114.961 133.078 114.961 132.613C114.961 131.998 115.2 131.483 115.679 131.068C116.162 130.649 116.809 130.439 117.62 130.439C118.377 130.439 119.022 130.626 119.555 131C120.088 131.374 120.423 131.864 120.56 132.47H119.09C118.83 131.955 118.34 131.697 117.62 131.697C116.732 131.697 116.29 132.003 116.294 132.613C116.294 132.864 116.401 133.067 116.615 133.222C116.83 133.372 117.096 133.479 117.415 133.543C117.739 133.602 118.087 133.687 118.461 133.796C118.835 133.901 119.181 134.019 119.5 134.151C119.824 134.279 120.093 134.5 120.307 134.814C120.526 135.129 120.635 135.514 120.635 135.97C120.635 136.585 120.373 137.1 119.849 137.515C119.329 137.929 118.611 138.137 117.695 138.137ZM125.133 138.137C124.071 138.137 123.222 137.797 122.583 137.118C121.95 136.435 121.633 135.491 121.633 134.288C121.633 133.085 121.945 132.144 122.57 131.465C123.194 130.781 124.026 130.439 125.065 130.439C126.118 130.439 126.952 130.795 127.567 131.506C128.182 132.212 128.49 133.023 128.49 133.939L128.421 134.712H123.021C123.057 135.405 123.267 135.94 123.65 136.318C124.033 136.692 124.527 136.879 125.133 136.879C125.899 136.879 126.482 136.576 126.883 135.97H128.353C128.102 136.621 127.697 137.146 127.136 137.542C126.576 137.938 125.908 138.137 125.133 138.137ZM123.021 133.591H127.123C127.041 132.994 126.817 132.529 126.453 132.196C126.088 131.864 125.625 131.697 125.065 131.697C124.504 131.697 124.042 131.864 123.677 132.196C123.313 132.529 123.094 132.994 123.021 133.591ZM135.101 138V129.53H132.018V128.197H139.647V129.53H136.57V138H135.101ZM139.866 138V130.583H140.918L141.124 131.561H141.199C141.591 130.909 142.22 130.583 143.085 130.583H143.926V131.841H143.154C142.566 131.841 142.092 132.012 141.732 132.354C141.376 132.691 141.199 133.126 141.199 133.659V138H139.866ZM147.235 136.947C147.85 136.947 148.343 136.779 148.712 136.441C149.081 136.1 149.265 135.662 149.265 135.129V134.712H147.304C146.82 134.712 146.454 134.812 146.203 135.013C145.957 135.213 145.834 135.487 145.834 135.833C145.834 136.175 145.957 136.446 146.203 136.646C146.454 136.847 146.798 136.947 147.235 136.947ZM147.023 138.137C146.276 138.137 145.67 137.913 145.205 137.467C144.74 137.02 144.508 136.476 144.508 135.833C144.508 135.172 144.754 134.623 145.246 134.186C145.743 133.743 146.429 133.522 147.304 133.522H149.265V133.167C149.265 132.711 149.12 132.354 148.828 132.094C148.541 131.829 148.149 131.697 147.652 131.697C147.251 131.697 146.925 131.784 146.675 131.957C146.424 132.13 146.26 132.349 146.182 132.613H144.788C144.929 131.998 145.262 131.483 145.786 131.068C146.315 130.649 146.937 130.439 147.652 130.439C148.577 130.439 149.3 130.69 149.819 131.191C150.339 131.688 150.598 132.347 150.598 133.167V138H149.477L149.334 137.091H149.265C149.106 137.36 148.823 137.601 148.418 137.815C148.012 138.03 147.547 138.137 147.023 138.137ZM155.514 138.137C154.452 138.137 153.602 137.797 152.964 137.118C152.331 136.435 152.014 135.491 152.014 134.288C152.014 133.085 152.331 132.144 152.964 131.465C153.597 130.781 154.447 130.439 155.514 130.439C156.298 130.439 156.965 130.642 157.517 131.048C158.068 131.453 158.451 131.998 158.665 132.682H157.264C156.899 132.03 156.316 131.702 155.514 131.697C154.871 131.697 154.347 131.925 153.942 132.381C153.541 132.832 153.34 133.47 153.34 134.295C153.34 135.115 153.541 135.751 153.942 136.202C154.347 136.653 154.871 136.879 155.514 136.879C156.316 136.879 156.899 136.553 157.264 135.901H158.665C158.451 136.585 158.068 137.13 157.517 137.535C156.965 137.936 156.298 138.137 155.514 138.137ZM160.142 138V128.197H161.475V134.008L164.695 130.583H166.376L162.945 134.22L166.582 138H164.907L161.475 134.432V138H160.142ZM167.293 138V130.583H168.626V138H167.293ZM167.963 129.742C167.703 129.742 167.491 129.66 167.327 129.496C167.163 129.332 167.081 129.125 167.081 128.874C167.081 128.614 167.163 128.402 167.327 128.238C167.491 128.074 167.703 127.992 167.963 127.992C168.213 127.992 168.421 128.074 168.585 128.238C168.749 128.398 168.831 128.61 168.831 128.874C168.831 129.125 168.749 129.332 168.585 129.496C168.421 129.66 168.213 129.742 167.963 129.742ZM170.451 138V130.583H171.504L171.709 131.561H171.784C172.24 130.813 172.94 130.439 173.883 130.439C174.694 130.439 175.35 130.715 175.852 131.267C176.358 131.818 176.611 132.545 176.611 133.447V138H175.284V133.522C175.284 132.944 175.129 132.495 174.82 132.176C174.514 131.857 174.109 131.697 173.603 131.697C173.088 131.697 172.655 131.877 172.304 132.237C171.958 132.597 171.784 133.026 171.784 133.522V138H170.451ZM181.533 140.803C180.694 140.803 179.986 140.6 179.407 140.194C178.828 139.793 178.416 139.226 178.169 138.492H179.571C179.849 139.194 180.503 139.543 181.533 139.538C182.148 139.538 182.629 139.39 182.975 139.094C183.321 138.802 183.495 138.367 183.495 137.788V136.599H183.419C182.923 137.25 182.178 137.578 181.184 137.583C180.25 137.583 179.491 137.271 178.908 136.646C178.324 136.018 178.033 135.143 178.033 134.021C178.033 132.891 178.324 132.012 178.908 131.383C179.491 130.754 180.25 130.439 181.184 130.439C181.667 130.439 182.109 130.544 182.51 130.754C182.911 130.964 183.239 131.232 183.495 131.561H183.563L183.775 130.583H184.821V137.788C184.821 138.741 184.534 139.481 183.959 140.01C183.385 140.538 182.576 140.803 181.533 140.803ZM181.389 136.318C182.004 136.318 182.508 136.113 182.9 135.703C183.296 135.293 183.495 134.732 183.495 134.021C183.495 133.301 183.299 132.734 182.907 132.319C182.515 131.905 182.009 131.697 181.389 131.697C180.783 131.697 180.293 131.905 179.919 132.319C179.546 132.729 179.359 133.297 179.359 134.021C179.359 134.742 179.546 135.304 179.919 135.71C180.293 136.116 180.783 136.318 181.389 136.318Z" fill="black"/>
<path d="M130 66.5C117.573 66.5 107.5 76.574 107.5 89C107.5 101.426 117.573 111.5 130 111.5C142.426 111.499 152.5 101.426 152.5 89C152.5 76.574 142.426 66.5 130 66.5ZM130.001 110C125.861 109.997 122.502 106.701 122.502 100.133V97.1367C122.502 96.7385 122.586 96.5 123.118 96.5H123.665V99.14C123.665 105.799 126.154 108.78 130.001 108.783C133.849 108.783 136.332 105.8 136.334 99.1385V96.5H136.884C137.415 96.5 137.5 96.7377 137.5 97.1367V100.133C137.501 106.701 134.142 109.997 130.001 110ZM124.268 99.14V96.5H135.73V99.1385C135.73 105.4 133.484 108.121 130.001 108.121C126.521 108.119 124.268 105.397 124.268 99.14ZM136.37 108.598C137.599 107.176 138.514 105.171 138.851 102.464C141.403 100.283 142.751 97.2237 142.751 94.25C142.751 93.8803 142.458 93.5 141.908 93.5H118.094C117.545 93.5 117.25 93.8803 117.25 94.25C117.25 97.2237 118.598 100.283 121.152 102.464C121.489 105.183 122.412 107.195 123.648 108.618C115.375 105.934 109.375 98.1567 109.375 89C109.375 77.627 118.627 68.375 130 68.375C141.372 68.375 150.625 77.627 150.625 89C150.625 98.1477 144.631 105.906 136.37 108.598Z" fill="black"/>
<path d="M120.224 80.5693C120.224 78.755 124.165 79.628 125.493 80.8595C126.276 79.574 125.904 78.491 125.904 78.491C125.904 78.491 124.763 77.6848 123.084 77.3758L123.08 75.6898C121.702 75.2653 120.221 75.6898 120.221 75.6898V77.2565C120.221 77.2565 117.501 77.7568 117.501 80.57C117.501 84.2135 123.083 83.5093 123.083 85.8568C123.083 87.5683 119.335 86.855 117.501 85.49C116.932 86.8685 117.501 88.058 117.501 88.058C118.37 88.4286 119.284 88.6854 120.219 88.8223L120.224 90.3013C120.224 90.3013 121.705 90.7528 123.083 90.3013V88.7233C123.083 88.7233 126.249 88.5493 126.249 85.8575C126.249 82.3588 120.224 82.661 120.224 80.5693ZM136.724 80.5693C136.724 78.755 140.665 79.628 141.993 80.8595C142.776 79.574 142.404 78.491 142.404 78.491C142.404 78.491 141.263 77.6848 139.584 77.3758L139.58 75.6898C138.202 75.2653 136.721 75.6898 136.721 75.6898V77.2565C136.721 77.2565 134.001 77.7568 134.001 80.57C134.001 84.2135 139.583 83.5093 139.583 85.8568C139.583 87.5683 135.835 86.855 134.001 85.49C133.432 86.8685 134.001 88.058 134.001 88.058C134.87 88.4285 135.784 88.6853 136.719 88.8223L136.724 90.3013C136.724 90.3013 138.205 90.7528 139.583 90.3013V88.7233C139.583 88.7233 142.749 88.5493 142.749 85.8575C142.749 82.3588 136.724 82.661 136.724 80.5693ZM129.045 105.962L129.047 106.924C129.047 106.924 129.972 107.217 130.835 106.924V105.898C130.835 105.898 132.814 105.784 132.814 104.035C132.814 101.762 129.048 101.958 129.048 100.599C129.048 99.4198 131.512 99.9875 132.341 100.788C132.83 99.953 132.599 99.248 132.599 99.248C132.599 99.248 131.886 98.7238 130.835 98.5228L130.834 97.4263C129.973 97.1503 129.047 97.4263 129.047 97.4263V98.4448C129.047 98.4448 127.347 98.7703 127.347 100.598C127.347 102.967 130.835 102.509 130.835 104.035C130.835 105.147 128.492 104.683 127.347 103.796C127.136 104.333 127.136 104.93 127.347 105.466C127.888 105.707 128.459 105.873 129.045 105.962Z" fill="black"/>
</g>
<defs>
<filter id="filter0_d_1329_3670" x="0" y="0" width="260" height="226" filterUnits="userSpaceOnUse" color-interpolation-filters="sRGB">
<feFlood flood-opacity="0" result="BackgroundImageFix"/>
<feColorMatrix in="SourceAlpha" type="matrix" values="0 0 0 0 0 0 0 0 0 0 0 0 0 0 0 0 0 0 127 0" result="hardAlpha"/>
<feMorphology radius="8" operator="dilate" in="SourceAlpha" result="effect1_dropShadow_1329_3670"/>
<feOffset dy="9"/>
<feGaussianBlur stdDeviation="23"/>
<feComposite in2="hardAlpha" operator="out"/>
<feColorMatrix type="matrix" values="0 0 0 0 0 0 0 0 0 0 0 0 0 0 0 0 0 0 0.14 0"/>
<feBlend mode="normal" in2="BackgroundImageFix" result="effect1_dropShadow_1329_3670"/>
<feBlend mode="normal" in="SourceGraphic" in2="effect1_dropShadow_1329_3670" result="shape"/>
</filter>
</defs>
</svg>
