<svg width="250" height="169" viewBox="0 0 250 169" fill="none" xmlns="http://www.w3.org/2000/svg">
<rect x="24.1772" y="57.4546" width="15" height="90" rx="7.5" fill="black"/>
<rect x="59.1772" y="22.4546" width="15" height="125" rx="7.5" fill="#345995"/>
<rect x="94.1772" y="39.4546" width="15" height="108" rx="7.5" fill="#348A95"/>
<rect x="129.177" y="57.4546" width="15" height="90" rx="7.5" fill="black"/>
<rect x="164.177" y="45.4546" width="15" height="102" rx="7.5" fill="#348A95"/>
<rect x="199.177" y="28.4546" width="15" height="119" rx="7.5" fill="#345995"/>
<rect x="234.177" y="75.4546" width="15" height="72" rx="7.5" fill="black"/>
<path d="M0.602273 8.5V7.98864L2.52273 5.88636C2.74811 5.64015 2.93371 5.42614 3.07955 5.24432C3.22538 5.06061 3.33333 4.88826 3.40341 4.72727C3.47538 4.56439 3.51136 4.39394 3.51136 4.21591C3.51136 4.01136 3.46212 3.83428 3.36364 3.68466C3.26705 3.53504 3.13447 3.41951 2.96591 3.33807C2.79735 3.25663 2.60795 3.21591 2.39773 3.21591C2.17424 3.21591 1.97917 3.26231 1.8125 3.35511C1.64773 3.44602 1.51989 3.57386 1.42898 3.73864C1.33996 3.90341 1.29545 4.09659 1.29545 4.31818H0.625C0.625 3.97727 0.703598 3.67803 0.860795 3.42045C1.01799 3.16288 1.23201 2.96212 1.50284 2.81818C1.77557 2.67424 2.08144 2.60227 2.42045 2.60227C2.76136 2.60227 3.06345 2.67424 3.3267 2.81818C3.58996 2.96212 3.7964 3.15625 3.94602 3.40057C4.09564 3.64489 4.17045 3.91667 4.17045 4.21591C4.17045 4.42992 4.13163 4.6392 4.05398 4.84375C3.97822 5.0464 3.84564 5.27273 3.65625 5.52273C3.46875 5.77083 3.20833 6.07386 2.875 6.43182L1.56818 7.82955V7.875H4.27273V8.5H0.602273ZM7.34375 8.57955C6.91572 8.57955 6.55114 8.46307 6.25 8.23011C5.94886 7.99527 5.71875 7.6553 5.55966 7.21023C5.40057 6.76326 5.32102 6.22348 5.32102 5.59091C5.32102 4.96212 5.40057 4.42519 5.55966 3.98011C5.72064 3.53314 5.9517 3.19223 6.25284 2.95739C6.55587 2.72064 6.91951 2.60227 7.34375 2.60227C7.76799 2.60227 8.13068 2.72064 8.43182 2.95739C8.73485 3.19223 8.96591 3.53314 9.125 3.98011C9.28598 4.42519 9.36648 4.96212 9.36648 5.59091C9.36648 6.22348 9.28693 6.76326 9.12784 7.21023C8.96875 7.6553 8.73864 7.99527 8.4375 8.23011C8.13636 8.46307 7.77178 8.57955 7.34375 8.57955ZM7.34375 7.95455C7.76799 7.95455 8.09754 7.75 8.33239 7.34091C8.56723 6.93182 8.68466 6.34848 8.68466 5.59091C8.68466 5.08712 8.63068 4.65814 8.52273 4.30398C8.41667 3.94981 8.26326 3.67992 8.0625 3.49432C7.86364 3.30871 7.62405 3.21591 7.34375 3.21591C6.9233 3.21591 6.5947 3.4233 6.35795 3.83807C6.12121 4.25095 6.00284 4.83523 6.00284 5.59091C6.00284 6.0947 6.05587 6.52273 6.16193 6.875C6.26799 7.22727 6.42045 7.49527 6.61932 7.67898C6.82008 7.86269 7.06155 7.95455 7.34375 7.95455ZM12.3438 8.57955C11.9157 8.57955 11.5511 8.46307 11.25 8.23011C10.9489 7.99527 10.7188 7.6553 10.5597 7.21023C10.4006 6.76326 10.321 6.22348 10.321 5.59091C10.321 4.96212 10.4006 4.42519 10.5597 3.98011C10.7206 3.53314 10.9517 3.19223 11.2528 2.95739C11.5559 2.72064 11.9195 2.60227 12.3438 2.60227C12.768 2.60227 13.1307 2.72064 13.4318 2.95739C13.7348 3.19223 13.9659 3.53314 14.125 3.98011C14.286 4.42519 14.3665 4.96212 14.3665 5.59091C14.3665 6.22348 14.2869 6.76326 14.1278 7.21023C13.9688 7.6553 13.7386 7.99527 13.4375 8.23011C13.1364 8.46307 12.7718 8.57955 12.3438 8.57955ZM12.3438 7.95455C12.768 7.95455 13.0975 7.75 13.3324 7.34091C13.5672 6.93182 13.6847 6.34848 13.6847 5.59091C13.6847 5.08712 13.6307 4.65814 13.5227 4.30398C13.4167 3.94981 13.2633 3.67992 13.0625 3.49432C12.8636 3.30871 12.6241 3.21591 12.3438 3.21591C11.9233 3.21591 11.5947 3.4233 11.358 3.83807C11.1212 4.25095 11.0028 4.83523 11.0028 5.59091C11.0028 6.0947 11.0559 6.52273 11.1619 6.875C11.268 7.22727 11.4205 7.49527 11.6193 7.67898C11.8201 7.86269 12.0616 7.95455 12.3438 7.95455Z" fill="#333333"/>
<path d="M2.64773 36.6818V42.5H1.94318V37.4205H1.90909L0.488636 38.3636V37.6477L1.94318 36.6818H2.64773ZM6.1392 42.5795C5.80587 42.5795 5.50568 42.5133 5.23864 42.3807C4.97159 42.2481 4.75758 42.0663 4.59659 41.8352C4.43561 41.6042 4.34754 41.3409 4.33239 41.0455H5.0142C5.04072 41.3087 5.16004 41.5265 5.37216 41.6989C5.58617 41.8693 5.84186 41.9545 6.1392 41.9545C6.37784 41.9545 6.58996 41.8987 6.77557 41.7869C6.96307 41.6752 7.10985 41.5218 7.21591 41.3267C7.32386 41.1297 7.37784 40.9072 7.37784 40.6591C7.37784 40.4053 7.32197 40.179 7.21023 39.9801C7.10038 39.7794 6.94886 39.6212 6.75568 39.5057C6.5625 39.3902 6.34186 39.3314 6.09375 39.3295C5.91572 39.3277 5.73295 39.3551 5.54545 39.4119C5.35795 39.4669 5.2036 39.5379 5.08239 39.625L4.4233 39.5455L4.77557 36.6818H7.7983V37.3068H5.36648L5.16193 39.0227H5.19602C5.31534 38.928 5.46496 38.8494 5.64489 38.7869C5.82481 38.7244 6.01231 38.6932 6.20739 38.6932C6.56345 38.6932 6.88068 38.7784 7.15909 38.9489C7.43939 39.1174 7.65909 39.3485 7.81818 39.642C7.97917 39.9356 8.05966 40.2708 8.05966 40.6477C8.05966 41.0189 7.97633 41.3504 7.80966 41.642C7.64489 41.9318 7.41761 42.161 7.12784 42.3295C6.83807 42.4962 6.50852 42.5795 6.1392 42.5795ZM11.0859 42.5795C10.6579 42.5795 10.2933 42.4631 9.99219 42.2301C9.69105 41.9953 9.46094 41.6553 9.30185 41.2102C9.14276 40.7633 9.06321 40.2235 9.06321 39.5909C9.06321 38.9621 9.14276 38.4252 9.30185 37.9801C9.46283 37.5331 9.69389 37.1922 9.99503 36.9574C10.2981 36.7206 10.6617 36.6023 11.0859 36.6023C11.5102 36.6023 11.8729 36.7206 12.174 36.9574C12.477 37.1922 12.7081 37.5331 12.8672 37.9801C13.0282 38.4252 13.1087 38.9621 13.1087 39.5909C13.1087 40.2235 13.0291 40.7633 12.87 41.2102C12.7109 41.6553 12.4808 41.9953 12.1797 42.2301C11.8786 42.4631 11.514 42.5795 11.0859 42.5795ZM11.0859 41.9545C11.5102 41.9545 11.8397 41.75 12.0746 41.3409C12.3094 40.9318 12.4268 40.3485 12.4268 39.5909C12.4268 39.0871 12.3729 38.6581 12.2649 38.304C12.1589 37.9498 12.0054 37.6799 11.8047 37.4943C11.6058 37.3087 11.3662 37.2159 11.0859 37.2159C10.6655 37.2159 10.3369 37.4233 10.1001 37.8381C9.8634 38.2509 9.74503 38.8352 9.74503 39.5909C9.74503 40.0947 9.79806 40.5227 9.90412 40.875C10.0102 41.2273 10.1626 41.4953 10.3615 41.679C10.5623 41.8627 10.8037 41.9545 11.0859 41.9545Z" fill="#333333"/>
<path d="M2.64773 71.6818V77.5H1.94318V72.4205H1.90909L0.488636 73.3636V72.6477L1.94318 71.6818H2.64773ZM6.21875 77.5795C5.79072 77.5795 5.42614 77.4631 5.125 77.2301C4.82386 76.9953 4.59375 76.6553 4.43466 76.2102C4.27557 75.7633 4.19602 75.2235 4.19602 74.5909C4.19602 73.9621 4.27557 73.4252 4.43466 72.9801C4.59564 72.5331 4.8267 72.1922 5.12784 71.9574C5.43087 71.7206 5.79451 71.6023 6.21875 71.6023C6.64299 71.6023 7.00568 71.7206 7.30682 71.9574C7.60985 72.1922 7.84091 72.5331 8 72.9801C8.16098 73.4252 8.24148 73.9621 8.24148 74.5909C8.24148 75.2235 8.16193 75.7633 8.00284 76.2102C7.84375 76.6553 7.61364 76.9953 7.3125 77.2301C7.01136 77.4631 6.64678 77.5795 6.21875 77.5795ZM6.21875 76.9545C6.64299 76.9545 6.97254 76.75 7.20739 76.3409C7.44223 75.9318 7.55966 75.3485 7.55966 74.5909C7.55966 74.0871 7.50568 73.6581 7.39773 73.304C7.29167 72.9498 7.13826 72.6799 6.9375 72.4943C6.73864 72.3087 6.49905 72.2159 6.21875 72.2159C5.7983 72.2159 5.4697 72.4233 5.23295 72.8381C4.99621 73.2509 4.87784 73.8352 4.87784 74.5909C4.87784 75.0947 4.93087 75.5227 5.03693 75.875C5.14299 76.2273 5.29545 76.4953 5.49432 76.679C5.69508 76.8627 5.93655 76.9545 6.21875 76.9545ZM11.2188 77.5795C10.7907 77.5795 10.4261 77.4631 10.125 77.2301C9.82386 76.9953 9.59375 76.6553 9.43466 76.2102C9.27557 75.7633 9.19602 75.2235 9.19602 74.5909C9.19602 73.9621 9.27557 73.4252 9.43466 72.9801C9.59564 72.5331 9.8267 72.1922 10.1278 71.9574C10.4309 71.7206 10.7945 71.6023 11.2188 71.6023C11.643 71.6023 12.0057 71.7206 12.3068 71.9574C12.6098 72.1922 12.8409 72.5331 13 72.9801C13.161 73.4252 13.2415 73.9621 13.2415 74.5909C13.2415 75.2235 13.1619 75.7633 13.0028 76.2102C12.8438 76.6553 12.6136 76.9953 12.3125 77.2301C12.0114 77.4631 11.6468 77.5795 11.2188 77.5795ZM11.2188 76.9545C11.643 76.9545 11.9725 76.75 12.2074 76.3409C12.4422 75.9318 12.5597 75.3485 12.5597 74.5909C12.5597 74.0871 12.5057 73.6581 12.3977 73.304C12.2917 72.9498 12.1383 72.6799 11.9375 72.4943C11.7386 72.3087 11.4991 72.2159 11.2188 72.2159C10.7983 72.2159 10.4697 72.4233 10.233 72.8381C9.99621 73.2509 9.87784 73.8352 9.87784 74.5909C9.87784 75.0947 9.93087 75.5227 10.0369 75.875C10.143 76.2273 10.2955 76.4953 10.4943 76.679C10.6951 76.8627 10.9366 76.9545 11.2188 76.9545Z" fill="#333333"/>
<path d="M2.42045 112.58C2.08712 112.58 1.78693 112.513 1.51989 112.381C1.25284 112.248 1.03883 112.066 0.877841 111.835C0.716856 111.604 0.628788 111.341 0.613636 111.045H1.29545C1.32197 111.309 1.44129 111.527 1.65341 111.699C1.86742 111.869 2.12311 111.955 2.42045 111.955C2.65909 111.955 2.87121 111.899 3.05682 111.787C3.24432 111.675 3.3911 111.522 3.49716 111.327C3.60511 111.13 3.65909 110.907 3.65909 110.659C3.65909 110.405 3.60322 110.179 3.49148 109.98C3.38163 109.779 3.23011 109.621 3.03693 109.506C2.84375 109.39 2.62311 109.331 2.375 109.33C2.19697 109.328 2.0142 109.355 1.8267 109.412C1.6392 109.467 1.48485 109.538 1.36364 109.625L0.704545 109.545L1.05682 106.682H4.07955V107.307H1.64773L1.44318 109.023H1.47727C1.59659 108.928 1.74621 108.849 1.92614 108.787C2.10606 108.724 2.29356 108.693 2.48864 108.693C2.8447 108.693 3.16193 108.778 3.44034 108.949C3.72064 109.117 3.94034 109.348 4.09943 109.642C4.26042 109.936 4.34091 110.271 4.34091 110.648C4.34091 111.019 4.25758 111.35 4.09091 111.642C3.92614 111.932 3.69886 112.161 3.40909 112.33C3.11932 112.496 2.78977 112.58 2.42045 112.58ZM7.36719 112.58C6.93916 112.58 6.57457 112.463 6.27344 112.23C5.9723 111.995 5.74219 111.655 5.5831 111.21C5.42401 110.763 5.34446 110.223 5.34446 109.591C5.34446 108.962 5.42401 108.425 5.5831 107.98C5.74408 107.533 5.97514 107.192 6.27628 106.957C6.57931 106.721 6.94295 106.602 7.36719 106.602C7.79143 106.602 8.15412 106.721 8.45526 106.957C8.75829 107.192 8.98935 107.533 9.14844 107.98C9.30942 108.425 9.38991 108.962 9.38991 109.591C9.38991 110.223 9.31037 110.763 9.15128 111.21C8.99219 111.655 8.76207 111.995 8.46094 112.23C8.1598 112.463 7.79522 112.58 7.36719 112.58ZM7.36719 111.955C7.79143 111.955 8.12098 111.75 8.35582 111.341C8.59067 110.932 8.7081 110.348 8.7081 109.591C8.7081 109.087 8.65412 108.658 8.54616 108.304C8.4401 107.95 8.2867 107.68 8.08594 107.494C7.88707 107.309 7.64749 107.216 7.36719 107.216C6.94673 107.216 6.61813 107.423 6.38139 107.838C6.14465 108.251 6.02628 108.835 6.02628 109.591C6.02628 110.095 6.07931 110.523 6.18537 110.875C6.29143 111.227 6.44389 111.495 6.64276 111.679C6.84351 111.863 7.08499 111.955 7.36719 111.955Z" fill="#333333"/>
<path d="M2.5 147.58C2.07197 147.58 1.70739 147.463 1.40625 147.23C1.10511 146.995 0.875 146.655 0.715909 146.21C0.556818 145.763 0.477273 145.223 0.477273 144.591C0.477273 143.962 0.556818 143.425 0.715909 142.98C0.876894 142.533 1.10795 142.192 1.40909 141.957C1.71212 141.721 2.07576 141.602 2.5 141.602C2.92424 141.602 3.28693 141.721 3.58807 141.957C3.8911 142.192 4.12216 142.533 4.28125 142.98C4.44223 143.425 4.52273 143.962 4.52273 144.591C4.52273 145.223 4.44318 145.763 4.28409 146.21C4.125 146.655 3.89489 146.995 3.59375 147.23C3.29261 147.463 2.92803 147.58 2.5 147.58ZM2.5 146.955C2.92424 146.955 3.25379 146.75 3.48864 146.341C3.72348 145.932 3.84091 145.348 3.84091 144.591C3.84091 144.087 3.78693 143.658 3.67898 143.304C3.57292 142.95 3.41951 142.68 3.21875 142.494C3.01989 142.309 2.7803 142.216 2.5 142.216C2.07955 142.216 1.75095 142.423 1.5142 142.838C1.27746 143.251 1.15909 143.835 1.15909 144.591C1.15909 145.095 1.21212 145.523 1.31818 145.875C1.42424 146.227 1.5767 146.495 1.77557 146.679C1.97633 146.863 2.2178 146.955 2.5 146.955Z" fill="#333333"/>
<path d="M28.5301 158.409H29.2658L30.996 162.635H31.0556L32.7857 158.409H33.5215V163.5H32.9448V159.632H32.8951L31.3042 163.5H30.7474L29.1565 159.632H29.1068V163.5H28.5301V158.409ZM36.2292 163.58C35.8845 163.58 35.582 163.498 35.3219 163.333C35.0633 163.169 34.8612 162.94 34.7153 162.645C34.5712 162.35 34.4991 162.005 34.4991 161.611C34.4991 161.213 34.5712 160.866 34.7153 160.569C34.8612 160.273 35.0633 160.042 35.3219 159.878C35.582 159.714 35.8845 159.632 36.2292 159.632C36.5739 159.632 36.8755 159.714 37.134 159.878C37.3942 160.042 37.5964 160.273 37.7405 160.569C37.8864 160.866 37.9593 161.213 37.9593 161.611C37.9593 162.005 37.8864 162.35 37.7405 162.645C37.5964 162.94 37.3942 163.169 37.134 163.333C36.8755 163.498 36.5739 163.58 36.2292 163.58ZM36.2292 163.053C36.491 163.053 36.7065 162.985 36.8755 162.851C37.0445 162.717 37.1696 162.54 37.2508 162.322C37.332 162.103 37.3726 161.866 37.3726 161.611C37.3726 161.356 37.332 161.118 37.2508 160.897C37.1696 160.677 37.0445 160.499 36.8755 160.363C36.7065 160.227 36.491 160.159 36.2292 160.159C35.9673 160.159 35.7519 160.227 35.5829 160.363C35.4138 160.499 35.2887 160.677 35.2075 160.897C35.1263 161.118 35.0857 161.356 35.0857 161.611C35.0857 161.866 35.1263 162.103 35.2075 162.322C35.2887 162.54 35.4138 162.717 35.5829 162.851C35.7519 162.985 35.9673 163.053 36.2292 163.053Z" fill="#333333"/>
<path d="M64.7536 158.956V158.409H68.5718V158.956H66.9709V163.5H66.3544V158.956H64.7536ZM71.3304 161.939V159.682H71.917V163.5H71.3304V162.854H71.2906C71.2011 163.048 71.0619 163.212 70.873 163.348C70.6841 163.483 70.4454 163.55 70.1571 163.55C69.9185 163.55 69.7063 163.498 69.5207 163.393C69.3351 163.287 69.1893 163.128 69.0832 162.916C68.9772 162.702 68.9241 162.433 68.9241 162.108V159.682H69.5108V162.068C69.5108 162.347 69.5887 162.569 69.7445 162.734C69.9019 162.9 70.1024 162.983 70.346 162.983C70.4918 162.983 70.6402 162.946 70.791 162.871C70.9434 162.797 71.071 162.682 71.1738 162.528C71.2782 162.374 71.3304 162.178 71.3304 161.939Z" fill="#333333"/>
<path d="M99.238 163.5L97.8459 158.409H98.4723L99.5363 162.555H99.586L100.67 158.409H101.366L102.45 162.555H102.499L103.563 158.409H104.19L102.798 163.5H102.161L101.038 159.443H100.998L99.8743 163.5H99.238ZM106.124 163.58C105.756 163.58 105.438 163.498 105.172 163.336C104.906 163.172 104.702 162.943 104.558 162.65C104.415 162.355 104.344 162.012 104.344 161.621C104.344 161.23 104.415 160.885 104.558 160.587C104.702 160.287 104.902 160.053 105.159 159.886C105.418 159.717 105.719 159.632 106.064 159.632C106.263 159.632 106.459 159.665 106.653 159.732C106.847 159.798 107.023 159.906 107.183 160.055C107.342 160.202 107.468 160.398 107.563 160.641C107.657 160.885 107.705 161.185 107.705 161.541V161.79H104.761V161.283H107.108C107.108 161.067 107.065 160.875 106.979 160.706C106.894 160.537 106.773 160.404 106.616 160.306C106.46 160.208 106.276 160.159 106.064 160.159C105.83 160.159 105.628 160.217 105.457 160.333C105.288 160.447 105.158 160.597 105.067 160.781C104.976 160.964 104.93 161.162 104.93 161.372V161.71C104.93 161.999 104.98 162.243 105.08 162.444C105.181 162.642 105.321 162.794 105.5 162.898C105.679 163.001 105.887 163.053 106.124 163.053C106.278 163.053 106.417 163.031 106.541 162.988C106.667 162.943 106.776 162.877 106.867 162.789C106.958 162.7 107.028 162.589 107.078 162.456L107.645 162.615C107.585 162.807 107.485 162.976 107.344 163.122C107.203 163.266 107.029 163.379 106.822 163.46C106.615 163.54 106.382 163.58 106.124 163.58Z" fill="#333333"/>
<path d="M133.464 158.956V158.409H137.282V158.956H135.681V163.5H135.064V158.956H133.464ZM138.74 161.203V163.5H138.154V158.409H138.74V160.278H138.79C138.879 160.081 139.014 159.925 139.193 159.809C139.373 159.691 139.614 159.632 139.914 159.632C140.174 159.632 140.402 159.684 140.597 159.789C140.793 159.891 140.944 160.05 141.052 160.263C141.161 160.476 141.216 160.746 141.216 161.074V163.5H140.629V161.114C140.629 160.81 140.551 160.576 140.393 160.41C140.238 160.243 140.021 160.159 139.745 160.159C139.552 160.159 139.38 160.2 139.227 160.281C139.077 160.362 138.957 160.481 138.87 160.636C138.783 160.792 138.74 160.981 138.74 161.203Z" fill="#333333"/>
<path d="M169.171 163.5V158.409H172.223V158.956H169.787V160.676H171.995V161.223H169.787V163.5H169.171ZM173.159 163.5V159.682H173.725V160.259H173.765C173.835 160.07 173.961 159.916 174.143 159.799C174.325 159.681 174.531 159.622 174.759 159.622C174.802 159.622 174.856 159.623 174.921 159.625C174.986 159.626 175.034 159.629 175.068 159.632V160.229C175.048 160.224 175.002 160.216 174.931 160.206C174.861 160.195 174.788 160.189 174.71 160.189C174.524 160.189 174.358 160.228 174.212 160.306C174.068 160.382 173.954 160.488 173.869 160.624C173.787 160.758 173.745 160.911 173.745 161.084V163.5H173.159Z" fill="#333333"/>
<path d="M206.31 159.682C206.28 159.43 206.159 159.234 205.947 159.095C205.735 158.956 205.475 158.886 205.166 158.886C204.941 158.886 204.744 158.923 204.575 158.996C204.407 159.069 204.276 159.169 204.182 159.297C204.089 159.424 204.043 159.569 204.043 159.732C204.043 159.867 204.075 159.984 204.14 160.082C204.206 160.178 204.29 160.259 204.393 160.323C204.496 160.386 204.604 160.438 204.716 160.48C204.829 160.52 204.933 160.552 205.027 160.577L205.544 160.716C205.677 160.751 205.824 160.799 205.987 160.86C206.151 160.921 206.307 161.005 206.456 161.111C206.607 161.216 206.732 161.35 206.829 161.514C206.927 161.678 206.976 161.879 206.976 162.118C206.976 162.393 206.904 162.642 206.76 162.864C206.617 163.086 206.408 163.262 206.133 163.393C205.86 163.524 205.528 163.589 205.136 163.589C204.772 163.589 204.456 163.531 204.189 163.413C203.924 163.295 203.715 163.131 203.563 162.921C203.412 162.71 203.327 162.466 203.307 162.188H203.943C203.96 162.38 204.024 162.539 204.137 162.665C204.252 162.789 204.396 162.882 204.57 162.943C204.745 163.003 204.934 163.033 205.136 163.033C205.372 163.033 205.583 162.995 205.77 162.918C205.958 162.84 206.106 162.733 206.215 162.595C206.325 162.456 206.379 162.294 206.379 162.108C206.379 161.939 206.332 161.801 206.238 161.695C206.143 161.589 206.019 161.503 205.865 161.437C205.711 161.371 205.544 161.312 205.365 161.263L204.739 161.084C204.341 160.969 204.026 160.806 203.794 160.594C203.562 160.382 203.446 160.104 203.446 159.761C203.446 159.476 203.523 159.228 203.677 159.016C203.833 158.802 204.042 158.636 204.304 158.518C204.567 158.399 204.861 158.339 205.186 158.339C205.514 158.339 205.806 158.398 206.061 158.516C206.316 158.632 206.519 158.791 206.668 158.993C206.819 159.195 206.898 159.425 206.906 159.682H206.31ZM209.034 163.589C208.792 163.589 208.572 163.544 208.375 163.453C208.178 163.36 208.021 163.227 207.905 163.053C207.789 162.877 207.731 162.665 207.731 162.416C207.731 162.197 207.774 162.02 207.86 161.884C207.946 161.747 208.062 161.639 208.206 161.561C208.35 161.483 208.509 161.425 208.683 161.387C208.859 161.347 209.035 161.316 209.213 161.293C209.445 161.263 209.633 161.24 209.777 161.225C209.923 161.209 210.029 161.182 210.095 161.143C210.163 161.105 210.197 161.039 210.197 160.945V160.925C210.197 160.679 210.13 160.489 209.996 160.353C209.863 160.217 209.662 160.149 209.392 160.149C209.111 160.149 208.892 160.21 208.733 160.333C208.574 160.456 208.462 160.587 208.397 160.726L207.84 160.527C207.94 160.295 208.072 160.114 208.238 159.985C208.405 159.854 208.588 159.763 208.785 159.712C208.984 159.659 209.179 159.632 209.372 159.632C209.494 159.632 209.635 159.647 209.794 159.677C209.955 159.705 210.11 159.764 210.259 159.853C210.41 159.943 210.535 160.078 210.634 160.259C210.734 160.439 210.784 160.681 210.784 160.984V163.5H210.197V162.983H210.167C210.127 163.066 210.061 163.154 209.968 163.249C209.875 163.343 209.752 163.424 209.598 163.49C209.444 163.556 209.256 163.589 209.034 163.589ZM209.123 163.062C209.355 163.062 209.551 163.017 209.71 162.926C209.87 162.835 209.991 162.717 210.073 162.573C210.155 162.429 210.197 162.277 210.197 162.118V161.581C210.172 161.611 210.117 161.638 210.033 161.663C209.95 161.686 209.854 161.707 209.744 161.725C209.637 161.742 209.532 161.757 209.429 161.77C209.328 161.781 209.246 161.791 209.183 161.8C209.03 161.82 208.888 161.852 208.755 161.897C208.624 161.94 208.518 162.005 208.437 162.093C208.357 162.179 208.318 162.297 208.318 162.446C208.318 162.65 208.393 162.804 208.544 162.908C208.696 163.011 208.889 163.062 209.123 163.062Z" fill="#333333"/>
<path d="M239.591 159.682C239.561 159.43 239.44 159.234 239.228 159.095C239.016 158.956 238.756 158.886 238.448 158.886C238.222 158.886 238.025 158.923 237.856 158.996C237.689 159.069 237.558 159.169 237.463 159.297C237.37 159.424 237.324 159.569 237.324 159.732C237.324 159.867 237.356 159.984 237.421 160.082C237.487 160.178 237.572 160.259 237.674 160.323C237.777 160.386 237.885 160.438 237.998 160.48C238.11 160.52 238.214 160.552 238.308 160.577L238.825 160.716C238.958 160.751 239.105 160.799 239.268 160.86C239.432 160.921 239.589 161.005 239.738 161.111C239.888 161.216 240.013 161.35 240.111 161.514C240.208 161.678 240.257 161.879 240.257 162.118C240.257 162.393 240.185 162.642 240.041 162.864C239.898 163.086 239.69 163.262 239.415 163.393C239.141 163.524 238.809 163.589 238.418 163.589C238.053 163.589 237.737 163.531 237.471 163.413C237.205 163.295 236.997 163.131 236.844 162.921C236.693 162.71 236.608 162.466 236.588 162.188H237.225C237.241 162.38 237.306 162.539 237.418 162.665C237.533 162.789 237.677 162.882 237.851 162.943C238.027 163.003 238.216 163.033 238.418 163.033C238.653 163.033 238.864 162.995 239.052 162.918C239.239 162.84 239.387 162.733 239.497 162.595C239.606 162.456 239.661 162.294 239.661 162.108C239.661 161.939 239.613 161.801 239.519 161.695C239.424 161.589 239.3 161.503 239.146 161.437C238.992 161.371 238.825 161.312 238.646 161.263L238.02 161.084C237.622 160.969 237.307 160.806 237.075 160.594C236.843 160.382 236.727 160.104 236.727 159.761C236.727 159.476 236.804 159.228 236.959 159.016C237.114 158.802 237.323 158.636 237.585 158.518C237.848 158.399 238.143 158.339 238.467 158.339C238.796 158.339 239.087 158.398 239.342 158.516C239.598 158.632 239.8 158.791 239.949 158.993C240.1 159.195 240.179 159.425 240.188 159.682H239.591ZM243.597 161.939V159.682H244.184V163.5H243.597V162.854H243.558C243.468 163.048 243.329 163.212 243.14 163.348C242.951 163.483 242.713 163.55 242.424 163.55C242.186 163.55 241.973 163.498 241.788 163.393C241.602 163.287 241.456 163.128 241.35 162.916C241.244 162.702 241.191 162.433 241.191 162.108V159.682H241.778V162.068C241.778 162.347 241.856 162.569 242.012 162.734C242.169 162.9 242.369 162.983 242.613 162.983C242.759 162.983 242.907 162.946 243.058 162.871C243.211 162.797 243.338 162.682 243.441 162.528C243.545 162.374 243.597 162.178 243.597 161.939Z" fill="#333333"/>
</svg>
