<svg width="45" height="45" viewBox="0 0 45 45" fill="none" xmlns="http://www.w3.org/2000/svg">
<path d="M14.8901 7.95141C15.6079 8.60107 15.6665 9.71216 15.0146 10.4343L9.74414 16.2966C9.42114 16.6482 8.96558 16.8606 8.48364 16.8093C8.00171 16.8899 7.53589 16.6995 7.19458 16.2966L4.26482 13.3669C3.57839 12.7444 3.57839 11.6311 4.26482 10.9448C4.95117 10.2585 6.06445 10.2585 6.75073 10.9448L8.37012 12.5613L12.4072 8.08179C13.0518 7.36035 14.165 7.30176 14.8901 7.95141ZM14.8901 19.6731C15.6079 20.3176 15.6665 21.4309 15.0146 22.156L9.74414 28.0154C9.42114 28.3669 8.96558 28.5793 8.48364 28.5281C8.00171 28.6086 7.53589 28.4182 7.19458 28.0154L4.26482 25.0857C3.57839 24.4631 3.57839 23.3499 4.26482 22.6614C4.95117 21.9802 6.06445 21.9802 6.75073 22.6614L8.37012 24.28L12.4072 19.7976C13.0518 19.0798 14.165 19.0212 14.8901 19.6731ZM20.1562 12.1877C20.1562 10.8936 21.2036 9.84399 22.5 9.84399H38.9062C40.2026 9.84399 41.25 10.8936 41.25 12.1877C41.25 13.4841 40.2026 14.5315 38.9062 14.5315H22.5C21.2036 14.5315 20.1562 13.4841 20.1562 12.1877ZM20.1562 23.9065C20.1562 22.6101 21.2036 21.5627 22.5 21.5627H38.9062C40.2026 21.5627 41.25 22.6101 41.25 23.9065C41.25 25.2029 40.2026 26.2502 38.9062 26.2502H22.5C21.2036 26.2502 20.1562 25.2029 20.1562 23.9065ZM15.4688 35.6252C15.4688 34.3289 16.5161 33.2815 17.8125 33.2815H38.9062C40.2026 33.2815 41.25 34.3289 41.25 35.6252C41.25 36.9216 40.2026 37.969 38.9062 37.969H17.8125C16.5161 37.969 15.4688 36.9216 15.4688 35.6252ZM3.75 35.6252C3.75 33.6843 5.32397 32.1096 7.26562 32.1096C9.20728 32.1096 10.7812 33.6843 10.7812 35.6252C10.7812 37.5662 9.20728 39.1409 7.26562 39.1409C5.32397 39.1409 3.75 37.5662 3.75 35.6252Z" fill="white"/>
</svg>
