<svg width="260" height="226" viewBox="0 0 260 226" fill="none" xmlns="http://www.w3.org/2000/svg">
<g filter="url(#filter0_d_1329_3703)">
<rect x="54" y="45" width="152" height="118" rx="25" fill="#E94732"/>
<path d="M82.5164 138V128.197H84.7586L87.5272 135.833H87.5819L90.3572 128.197H92.5926V138H91.1229V130.091H91.0545L88.1834 138H86.9256L84.0545 130.091H83.9861V138H82.5164ZM100.208 137.118C99.5838 137.797 98.7521 138.137 97.713 138.137C96.6785 138.137 95.8491 137.797 95.2248 137.118C94.6004 136.435 94.2882 135.491 94.2882 134.288C94.2882 133.085 94.6004 132.144 95.2248 131.465C95.8491 130.781 96.6785 130.439 97.713 130.439C98.7521 130.439 99.5838 130.781 100.208 131.465C100.833 132.144 101.145 133.085 101.145 134.288C101.145 135.491 100.833 136.435 100.208 137.118ZM96.1955 136.216C96.5828 136.658 97.0887 136.879 97.713 136.879C98.3419 136.879 98.8501 136.658 99.2375 136.216C99.6248 135.774 99.8185 135.133 99.8185 134.295C99.8185 133.452 99.6248 132.809 99.2375 132.367C98.8501 131.921 98.3419 131.697 97.713 131.697C97.0887 131.697 96.5828 131.921 96.1955 132.367C95.8081 132.809 95.6144 133.452 95.6144 134.295C95.6144 135.133 95.8081 135.774 96.1955 136.216ZM102.635 138V130.583H103.688L103.893 131.561H103.968C104.424 130.813 105.124 130.439 106.067 130.439C106.878 130.439 107.534 130.715 108.036 131.267C108.541 131.818 108.794 132.545 108.794 133.447V138H107.468V133.522C107.468 132.944 107.313 132.495 107.003 132.176C106.698 131.857 106.292 131.697 105.787 131.697C105.272 131.697 104.839 131.877 104.488 132.237C104.141 132.597 103.968 133.026 103.968 133.522V138H102.635ZM113.717 138.137C112.655 138.137 111.805 137.797 111.167 137.118C110.533 136.435 110.217 135.491 110.217 134.288C110.217 133.085 110.529 132.144 111.153 131.465C111.777 130.781 112.609 130.439 113.648 130.439C114.701 130.439 115.535 130.795 116.15 131.506C116.765 132.212 117.073 133.023 117.073 133.939L117.005 134.712H111.604C111.641 135.405 111.85 135.94 112.233 136.318C112.616 136.692 113.111 136.879 113.717 136.879C114.482 136.879 115.066 136.576 115.467 135.97H116.936C116.686 136.621 116.28 137.146 115.72 137.542C115.159 137.938 114.491 138.137 113.717 138.137ZM111.604 133.591H115.706C115.624 132.994 115.401 132.529 115.036 132.196C114.671 131.864 114.209 131.697 113.648 131.697C113.088 131.697 112.625 131.864 112.261 132.196C111.896 132.529 111.677 132.994 111.604 133.591ZM119.404 140.803L120.526 138L117.518 130.583H118.919L121.154 136.25H121.23L123.465 130.583H124.866L120.806 140.803H119.404ZM130.493 138V129.53H127.41V128.197H135.039V129.53H131.963V138H130.493ZM135.258 138V130.583H136.311L136.516 131.561H136.591C136.983 130.909 137.612 130.583 138.478 130.583H139.319V131.841H138.546C137.958 131.841 137.484 132.012 137.124 132.354C136.769 132.691 136.591 133.126 136.591 133.659V138H135.258ZM142.627 136.947C143.243 136.947 143.735 136.779 144.104 136.441C144.473 136.1 144.658 135.662 144.658 135.129V134.712H142.696C142.213 134.712 141.846 134.812 141.595 135.013C141.349 135.213 141.226 135.487 141.226 135.833C141.226 136.175 141.349 136.446 141.595 136.646C141.846 136.847 142.19 136.947 142.627 136.947ZM142.416 138.137C141.668 138.137 141.062 137.913 140.597 137.467C140.132 137.02 139.9 136.476 139.9 135.833C139.9 135.172 140.146 134.623 140.638 134.186C141.135 133.743 141.821 133.522 142.696 133.522H144.658V133.167C144.658 132.711 144.512 132.354 144.22 132.094C143.933 131.829 143.541 131.697 143.044 131.697C142.643 131.697 142.318 131.784 142.067 131.957C141.816 132.13 141.652 132.349 141.575 132.613H140.18C140.321 131.998 140.654 131.483 141.178 131.068C141.707 130.649 142.329 130.439 143.044 130.439C143.97 130.439 144.692 130.69 145.211 131.191C145.731 131.688 145.991 132.347 145.991 133.167V138H144.87L144.726 137.091H144.658C144.498 137.36 144.216 137.601 143.81 137.815C143.404 138.03 142.94 138.137 142.416 138.137ZM147.755 138V130.583H148.807L149.013 131.561H149.088C149.543 130.813 150.243 130.439 151.186 130.439C151.998 130.439 152.654 130.715 153.155 131.267C153.661 131.818 153.914 132.545 153.914 133.447V138H152.588V133.522C152.588 132.944 152.433 132.495 152.123 132.176C151.818 131.857 151.412 131.697 150.906 131.697C150.391 131.697 149.958 131.877 149.607 132.237C149.261 132.597 149.088 133.026 149.088 133.522V138H147.755ZM158.139 138.137C157.355 138.137 156.692 137.936 156.15 137.535C155.607 137.134 155.265 136.612 155.124 135.97H156.594C156.781 136.576 157.296 136.879 158.139 136.879C158.672 136.879 159.073 136.792 159.342 136.619C159.611 136.446 159.745 136.229 159.745 135.97C159.745 135.719 159.638 135.519 159.424 135.368C159.21 135.218 158.941 135.113 158.617 135.054C158.298 134.994 157.952 134.915 157.578 134.814C157.205 134.71 156.856 134.591 156.532 134.459C156.209 134.327 155.94 134.104 155.726 133.789C155.512 133.47 155.404 133.078 155.404 132.613C155.404 131.998 155.644 131.483 156.122 131.068C156.605 130.649 157.252 130.439 158.064 130.439C158.82 130.439 159.465 130.626 159.998 131C160.531 131.374 160.866 131.864 161.003 132.47H159.533C159.274 131.955 158.784 131.697 158.064 131.697C157.175 131.697 156.733 132.003 156.737 132.613C156.737 132.864 156.845 133.067 157.059 133.222C157.273 133.372 157.54 133.479 157.859 133.543C158.182 133.602 158.531 133.687 158.904 133.796C159.278 133.901 159.625 134.019 159.944 134.151C160.267 134.279 160.536 134.5 160.75 134.814C160.969 135.129 161.078 135.514 161.078 135.97C161.078 136.585 160.816 137.1 160.292 137.515C159.773 137.929 159.055 138.137 158.139 138.137ZM162.986 138V131.841H161.796V130.583H162.986V130.022C162.986 129.425 163.164 128.949 163.519 128.594C163.875 128.238 164.351 128.061 164.948 128.061H166.137V129.318H165.084C164.843 129.318 164.654 129.389 164.517 129.53C164.385 129.672 164.319 129.858 164.319 130.091V130.583H166.137V131.841H164.319V138H162.986ZM170.485 138.137C169.423 138.137 168.573 137.797 167.935 137.118C167.302 136.435 166.985 135.491 166.985 134.288C166.985 133.085 167.297 132.144 167.922 131.465C168.546 130.781 169.378 130.439 170.417 130.439C171.47 130.439 172.304 130.795 172.919 131.506C173.534 132.212 173.842 133.023 173.842 133.939L173.773 134.712H168.373C168.409 135.405 168.619 135.94 169.002 136.318C169.385 136.692 169.879 136.879 170.485 136.879C171.251 136.879 171.834 136.576 172.235 135.97H173.705C173.454 136.621 173.049 137.146 172.488 137.542C171.928 137.938 171.26 138.137 170.485 138.137ZM168.373 133.591H172.474C172.392 132.994 172.169 132.529 171.805 132.196C171.44 131.864 170.977 131.697 170.417 131.697C169.856 131.697 169.394 131.864 169.029 132.196C168.665 132.529 168.446 132.994 168.373 133.591ZM175.332 138V130.583H176.385L176.59 131.561H176.665C177.057 130.909 177.686 130.583 178.552 130.583H179.393V131.841H178.62C178.032 131.841 177.558 132.012 177.198 132.354C176.843 132.691 176.665 133.126 176.665 133.659V138H175.332Z" fill="black"/>
<g clip-path="url(#clip0_1329_3703)">
<path d="M146.125 70.5492C146.83 69.8169 147.97 69.8169 148.607 70.5491L153.408 75.5484C153.812 75.9 154 76.3773 154 76.8742C154 77.3719 153.812 77.8516 153.408 78.1328L148.607 83.1328C147.97 83.9297 146.83 83.9297 146.125 83.1328C145.428 82.4687 145.428 81.2812 146.125 80.5469L147.857 78.6797H134.8C133.803 78.6797 133 77.9062 133 76.8742C133 75.8391 133.803 74.9992 134.8 74.9992L147.857 74.9297L146.125 73.2008C145.428 72.4687 145.428 71.2812 146.125 70.5492ZM113.808 99.3828L112.146 101.25L125.133 101.18C126.198 101.18 126.933 102.086 126.933 103.055C126.933 104.156 126.198 104.93 125.133 104.93L112.146 105L113.808 106.797C114.573 107.531 114.573 108.719 113.808 109.383C113.17 110.18 112.03 110.18 111.327 109.383L106.527 104.383C106.19 104.102 106 103.625 106 103.055C106 102.625 106.19 102.148 106.527 101.797L111.327 96.7969C112.03 96.0703 113.17 96.0703 113.808 96.7969C114.573 97.5312 114.573 98.7187 113.808 99.3828ZM113.133 75H131.343C131.058 75.5609 130.9 76.1984 130.9 76.8047C130.9 79.1172 132.648 80.8672 134.8 80.8672H142.083C142.33 82.3047 143.118 83.4766 144.205 84.2109C144.333 84.3984 144.483 84.5781 144.64 84.75C146.163 86.3359 148.638 86.3359 150.16 84.75L151.6 83.2422V100C151.6 102.758 149.448 105 146.8 105H128.658C128.943 104.437 129.033 103.805 129.033 103.055C129.033 100.883 127.353 98.9922 125.133 98.9922L117.917 99.0625C117.663 97.6953 116.883 96.5234 115.795 95.7891C115.668 95.6016 115.518 95.4219 115.36 95.25C113.838 93.6641 111.365 93.6641 109.842 95.25L108.333 96.7578V80C108.333 77.2383 110.549 75 113.133 75ZM113.133 85C115.848 85 117.933 82.7578 117.933 80H113.133V85ZM146.8 100V95C144.153 95 142 97.2422 142 100H146.8ZM129.933 97.5C133.975 97.5 137.2 94.1406 137.2 90C137.2 85.7891 133.975 82.5 129.933 82.5C125.958 82.5 122.733 85.7891 122.733 90C122.733 94.1406 125.958 97.5 129.933 97.5Z" fill="black"/>
</g>
</g>
<defs>
<filter id="filter0_d_1329_3703" x="0" y="0" width="260" height="226" filterUnits="userSpaceOnUse" color-interpolation-filters="sRGB">
<feFlood flood-opacity="0" result="BackgroundImageFix"/>
<feColorMatrix in="SourceAlpha" type="matrix" values="0 0 0 0 0 0 0 0 0 0 0 0 0 0 0 0 0 0 127 0" result="hardAlpha"/>
<feMorphology radius="8" operator="dilate" in="SourceAlpha" result="effect1_dropShadow_1329_3703"/>
<feOffset dy="9"/>
<feGaussianBlur stdDeviation="23"/>
<feComposite in2="hardAlpha" operator="out"/>
<feColorMatrix type="matrix" values="0 0 0 0 0 0 0 0 0 0 0 0 0 0 0 0 0 0 0.14 0"/>
<feBlend mode="normal" in2="BackgroundImageFix" result="effect1_dropShadow_1329_3703"/>
<feBlend mode="normal" in="SourceGraphic" in2="effect1_dropShadow_1329_3703" result="shape"/>
</filter>
<clipPath id="clip0_1329_3703">
<rect width="48" height="40" fill="white" transform="translate(106 70)"/>
</clipPath>
</defs>
</svg>
