<svg width="260" height="238" viewBox="0 0 260 238" fill="none" xmlns="http://www.w3.org/2000/svg">
<g filter="url(#filter0_d_1733_6813)">
<rect x="54.5" y="45" width="151" height="130" rx="25" fill="#ADFFD8" shape-rendering="crispEdges"/>
<g clip-path="url(#clip0_1733_6813)">
<path d="M151.5 66.7689C152.44 65.7437 153.96 65.7437 154.81 66.7688L161.21 73.7678C161.75 74.26 162 74.9283 162 75.6239C162 76.3206 161.75 76.9922 161.21 77.3859L154.81 84.3859C153.96 85.5016 152.44 85.5016 151.5 84.3859C150.57 83.4562 150.57 81.7937 151.5 80.7656L153.81 78.1516H136.4C135.07 78.1516 134 77.0687 134 75.6239C134 74.1747 135.07 72.9989 136.4 72.9989L153.81 72.9015L151.5 70.4811C150.57 69.4562 150.57 67.7937 151.5 66.7689ZM108.41 107.136L106.194 109.75L123.51 109.652C124.93 109.652 125.91 110.92 125.91 112.277C125.91 113.819 124.93 114.902 123.51 114.902L106.195 115L108.41 117.516C109.43 118.544 109.43 120.206 108.41 121.136C107.56 122.252 106.04 122.252 105.103 121.136L98.7029 114.136C98.2528 113.742 97.9999 113.075 98 112.277C98 111.675 98.2529 111.008 98.703 110.516L105.103 103.516C106.04 102.498 107.56 102.498 108.41 103.516C109.43 104.544 109.43 106.206 108.41 107.136ZM107.51 73H131.79C131.41 73.7853 131.2 74.6778 131.2 75.5266C131.2 78.7641 133.53 81.2141 136.4 81.2141H146.11C146.44 83.2266 147.49 84.8672 148.94 85.8953C149.11 86.1578 149.31 86.4094 149.52 86.65C151.55 88.8703 154.85 88.8703 156.88 86.65L158.8 84.5391V108C158.8 111.861 155.93 115 152.4 115H128.21C128.59 114.212 128.71 113.327 128.71 112.277C128.71 109.236 126.47 106.589 123.51 106.589L113.89 106.687C113.55 104.773 112.51 103.133 111.06 102.105C110.89 101.842 110.69 101.591 110.48 101.35C108.45 99.1297 105.154 99.1297 103.123 101.35L101.11 103.461V80C101.11 76.1336 104.065 73 107.51 73ZM107.51 87C111.13 87 113.91 83.8609 113.91 80H107.51V87ZM152.4 108V101C148.87 101 146 104.139 146 108H152.4ZM129.91 104.5C135.3 104.5 139.6 99.7969 139.6 94C139.6 88.1047 135.3 83.5 129.91 83.5C124.61 83.5 120.31 88.1047 120.31 94C120.31 99.7969 124.61 104.5 129.91 104.5Z" fill="black"/>
</g>
<path d="M79.6509 150.137C78.2882 150.137 77.199 149.699 76.3833 148.824C75.5721 147.945 75.1665 146.703 75.1665 145.099C75.1665 143.494 75.5721 142.255 76.3833 141.38C77.199 140.5 78.2882 140.061 79.6509 140.061C81.6971 140.061 83.0483 141.018 83.7046 142.932H82.1665C81.6925 141.906 80.854 141.391 79.6509 141.387C78.744 141.387 78.0148 141.708 77.4634 142.351C76.9119 142.989 76.6362 143.905 76.6362 145.099C76.6362 146.293 76.9096 147.211 77.4565 147.854C78.0034 148.492 78.7348 148.811 79.6509 148.811C80.854 148.811 81.6925 148.298 82.1665 147.272H83.7046C83.0483 149.182 81.6971 150.137 79.6509 150.137ZM87.1502 148.947C87.7654 148.947 88.2576 148.779 88.6268 148.441C88.9959 148.1 89.1805 147.662 89.1805 147.129V146.712H87.2186C86.7355 146.712 86.3686 146.812 86.118 147.013C85.8719 147.213 85.7488 147.487 85.7488 147.833C85.7488 148.175 85.8719 148.446 86.118 148.646C86.3686 148.847 86.7127 148.947 87.1502 148.947ZM86.9383 150.137C86.1909 150.137 85.5848 149.913 85.1199 149.467C84.6551 149.02 84.4227 148.476 84.4227 147.833C84.4227 147.172 84.6688 146.623 85.161 146.186C85.6577 145.743 86.3436 145.522 87.2186 145.522H89.1805V145.167C89.1805 144.711 89.0347 144.354 88.743 144.094C88.4559 143.829 88.0639 143.697 87.5672 143.697C87.1662 143.697 86.8403 143.784 86.5897 143.957C86.339 144.13 86.175 144.349 86.0975 144.613H84.7029C84.8442 143.998 85.1769 143.483 85.701 143.068C86.2296 142.649 86.8517 142.439 87.5672 142.439C88.4923 142.439 89.2147 142.69 89.7342 143.191C90.2537 143.688 90.5135 144.347 90.5135 145.167V150H89.3924L89.2488 149.091H89.1805C89.021 149.36 88.7384 149.601 88.3328 149.815C87.9272 150.03 87.4624 150.137 86.9383 150.137ZM94.7316 150.137C93.9477 150.137 93.2847 149.936 92.7423 149.535C92.2 149.134 91.8582 148.612 91.7169 147.97H93.1867C93.3735 148.576 93.8885 148.879 94.7316 148.879C95.2648 148.879 95.6658 148.792 95.9347 148.619C96.2036 148.446 96.338 148.229 96.338 147.97C96.338 147.719 96.2309 147.519 96.0168 147.368C95.8026 147.218 95.5337 147.113 95.2101 147.054C94.8911 146.994 94.5447 146.915 94.171 146.814C93.7973 146.71 93.4487 146.591 93.1251 146.459C92.8016 146.327 92.5327 146.104 92.3185 145.789C92.1043 145.47 91.9972 145.078 91.9972 144.613C91.9972 143.998 92.2365 143.483 92.715 143.068C93.1981 142.649 93.8452 142.439 94.6564 142.439C95.4129 142.439 96.0578 142.626 96.591 143C97.1242 143.374 97.4591 143.864 97.5959 144.47H96.1261C95.8664 143.955 95.3765 143.697 94.6564 143.697C93.7677 143.697 93.3257 144.003 93.3302 144.613C93.3302 144.864 93.4373 145.067 93.6515 145.222C93.8657 145.372 94.1323 145.479 94.4513 145.543C94.7749 145.602 95.1235 145.687 95.4972 145.796C95.8709 145.901 96.2173 146.019 96.5363 146.151C96.8598 146.279 97.1287 146.5 97.3429 146.814C97.5617 147.129 97.671 147.514 97.671 147.97C97.671 148.585 97.409 149.1 96.8849 149.515C96.3654 149.929 95.6476 150.137 94.7316 150.137ZM99.0864 150V140.197H100.419V143.492H100.488C100.693 143.155 100.978 142.895 101.342 142.713C101.707 142.531 102.099 142.439 102.518 142.439C103.329 142.439 103.986 142.715 104.487 143.267C104.993 143.818 105.246 144.545 105.246 145.447V150H103.919V145.522C103.919 144.944 103.764 144.495 103.455 144.176C103.149 143.857 102.744 143.697 102.238 143.697C101.723 143.697 101.29 143.877 100.939 144.237C100.593 144.597 100.419 145.026 100.419 145.522V150H99.0864ZM107.577 150V143.841H106.388V142.583H107.577V142.022C107.577 141.425 107.755 140.949 108.11 140.594C108.466 140.238 108.942 140.061 109.539 140.061H113.244V150H111.918V141.318H109.676C109.434 141.318 109.245 141.389 109.108 141.53C108.976 141.672 108.91 141.858 108.91 142.091V142.583H110.728V143.841H108.91V150H107.577ZM120.723 149.118C120.098 149.797 119.267 150.137 118.228 150.137C117.193 150.137 116.364 149.797 115.739 149.118C115.115 148.435 114.803 147.491 114.803 146.288C114.803 145.085 115.115 144.144 115.739 143.465C116.364 142.781 117.193 142.439 118.228 142.439C119.267 142.439 120.098 142.781 120.723 143.465C121.347 144.144 121.659 145.085 121.659 146.288C121.659 147.491 121.347 148.435 120.723 149.118ZM116.71 148.216C117.097 148.658 117.603 148.879 118.228 148.879C118.857 148.879 119.365 148.658 119.752 148.216C120.139 147.774 120.333 147.133 120.333 146.295C120.333 145.452 120.139 144.809 119.752 144.367C119.365 143.921 118.857 143.697 118.228 143.697C117.603 143.697 117.097 143.921 116.71 144.367C116.323 144.809 116.129 145.452 116.129 146.295C116.129 147.133 116.323 147.774 116.71 148.216ZM124.408 150L122.309 142.583H123.642L125.249 148.25H125.324L126.793 142.583H128.263L129.733 148.25H129.801L131.408 142.583H132.741L130.642 150H129.029L127.559 144.613H127.491L126.021 150H124.408ZM138.709 148.947C139.324 148.947 139.817 148.779 140.186 148.441C140.555 148.1 140.739 147.662 140.739 147.129V146.712H138.778C138.294 146.712 137.928 146.812 137.677 147.013C137.431 147.213 137.308 147.487 137.308 147.833C137.308 148.175 137.431 148.446 137.677 148.646C137.928 148.847 138.272 148.947 138.709 148.947ZM138.497 150.137C137.75 150.137 137.144 149.913 136.679 149.467C136.214 149.02 135.982 148.476 135.982 147.833C135.982 147.172 136.228 146.623 136.72 146.186C137.217 145.743 137.903 145.522 138.778 145.522H140.739V145.167C140.739 144.711 140.594 144.354 140.302 144.094C140.015 143.829 139.623 143.697 139.126 143.697C138.725 143.697 138.399 143.784 138.149 143.957C137.898 144.13 137.734 144.349 137.656 144.613H136.262C136.403 143.998 136.736 143.483 137.26 143.068C137.789 142.649 138.411 142.439 139.126 142.439C140.051 142.439 140.774 142.69 141.293 143.191C141.813 143.688 142.072 144.347 142.072 145.167V150H140.951L140.808 149.091H140.739C140.58 149.36 140.297 149.601 139.892 149.815C139.486 150.03 139.021 150.137 138.497 150.137ZM143.836 150V142.583H144.889L145.094 143.561H145.169C145.625 142.813 146.325 142.439 147.268 142.439C148.079 142.439 148.736 142.715 149.237 143.267C149.743 143.818 149.996 144.545 149.996 145.447V150H148.669V145.522C148.669 144.944 148.514 144.495 148.205 144.176C147.899 143.857 147.494 143.697 146.988 143.697C146.473 143.697 146.04 143.877 145.689 144.237C145.343 144.597 145.169 145.026 145.169 145.522V150H143.836ZM154.077 148.947C154.692 148.947 155.184 148.779 155.554 148.441C155.923 148.1 156.107 147.662 156.107 147.129V146.712H154.145C153.662 146.712 153.295 146.812 153.045 147.013C152.799 147.213 152.676 147.487 152.676 147.833C152.676 148.175 152.799 148.446 153.045 148.646C153.295 148.847 153.639 148.947 154.077 148.947ZM153.865 150.137C153.118 150.137 152.512 149.913 152.047 149.467C151.582 149.02 151.349 148.476 151.349 147.833C151.349 147.172 151.596 146.623 152.088 146.186C152.584 145.743 153.27 145.522 154.145 145.522H156.107V145.167C156.107 144.711 155.961 144.354 155.67 144.094C155.383 143.829 154.991 143.697 154.494 143.697C154.093 143.697 153.767 143.784 153.516 143.957C153.266 144.13 153.102 144.349 153.024 144.613H151.63C151.771 143.998 152.104 143.483 152.628 143.068C153.156 142.649 153.778 142.439 154.494 142.439C155.419 142.439 156.141 142.69 156.661 143.191C157.181 143.688 157.44 144.347 157.44 145.167V150H156.319L156.176 149.091H156.107C155.948 149.36 155.665 149.601 155.26 149.815C154.854 150.03 154.389 150.137 153.865 150.137ZM159.273 150V140.197H160.606V150H159.273ZM163.491 152.803L164.612 150L161.604 142.583H163.005L165.241 148.25H165.316L167.551 142.583H168.953L164.892 152.803H163.491ZM172.2 150.137C171.416 150.137 170.753 149.936 170.211 149.535C169.668 149.134 169.327 148.612 169.185 147.97H170.655C170.842 148.576 171.357 148.879 172.2 148.879C172.733 148.879 173.134 148.792 173.403 148.619C173.672 148.446 173.806 148.229 173.806 147.97C173.806 147.719 173.699 147.519 173.485 147.368C173.271 147.218 173.002 147.113 172.679 147.054C172.36 146.994 172.013 146.915 171.639 146.814C171.266 146.71 170.917 146.591 170.594 146.459C170.27 146.327 170.001 146.104 169.787 145.789C169.573 145.47 169.466 145.078 169.466 144.613C169.466 143.998 169.705 143.483 170.183 143.068C170.667 142.649 171.314 142.439 172.125 142.439C172.881 142.439 173.526 142.626 174.059 143C174.593 143.374 174.928 143.864 175.064 144.47H173.595C173.335 143.955 172.845 143.697 172.125 143.697C171.236 143.697 170.794 144.003 170.799 144.613C170.799 144.864 170.906 145.067 171.12 145.222C171.334 145.372 171.601 145.479 171.92 145.543C172.243 145.602 172.592 145.687 172.966 145.796C173.339 145.901 173.686 146.019 174.005 146.151C174.328 146.279 174.597 146.5 174.811 146.814C175.03 147.129 175.139 147.514 175.139 147.97C175.139 148.585 174.877 149.1 174.353 149.515C173.834 149.929 173.116 150.137 172.2 150.137ZM176.487 150V142.583H177.82V150H176.487ZM177.156 141.742C176.897 141.742 176.685 141.66 176.521 141.496C176.357 141.332 176.275 141.125 176.275 140.874C176.275 140.614 176.357 140.402 176.521 140.238C176.685 140.074 176.897 139.992 177.156 139.992C177.407 139.992 177.614 140.074 177.779 140.238C177.943 140.398 178.025 140.61 178.025 140.874C178.025 141.125 177.943 141.332 177.779 141.496C177.614 141.66 177.407 141.742 177.156 141.742ZM182.099 150.137C181.315 150.137 180.652 149.936 180.11 149.535C179.568 149.134 179.226 148.612 179.084 147.97H180.554C180.741 148.576 181.256 148.879 182.099 148.879C182.632 148.879 183.033 148.792 183.302 148.619C183.571 148.446 183.706 148.229 183.706 147.97C183.706 147.719 183.598 147.519 183.384 147.368C183.17 147.218 182.901 147.113 182.578 147.054C182.259 146.994 181.912 146.915 181.539 146.814C181.165 146.71 180.816 146.591 180.493 146.459C180.169 146.327 179.9 146.104 179.686 145.789C179.472 145.47 179.365 145.078 179.365 144.613C179.365 143.998 179.604 143.483 180.083 143.068C180.566 142.649 181.213 142.439 182.024 142.439C182.78 142.439 183.425 142.626 183.959 143C184.492 143.374 184.827 143.864 184.963 144.47H183.494C183.234 143.955 182.744 143.697 182.024 143.697C181.135 143.697 180.693 144.003 180.698 144.613C180.698 144.864 180.805 145.067 181.019 145.222C181.233 145.372 181.5 145.479 181.819 145.543C182.142 145.602 182.491 145.687 182.865 145.796C183.238 145.901 183.585 146.019 183.904 146.151C184.227 146.279 184.496 146.5 184.71 146.814C184.929 147.129 185.039 147.514 185.039 147.97C185.039 148.585 184.777 149.1 184.252 149.515C183.733 149.929 183.015 150.137 182.099 150.137Z" fill="black"/>
</g>
<defs>
<filter id="filter0_d_1733_6813" x="0.5" y="0" width="259" height="238" filterUnits="userSpaceOnUse" color-interpolation-filters="sRGB">
<feFlood flood-opacity="0" result="BackgroundImageFix"/>
<feColorMatrix in="SourceAlpha" type="matrix" values="0 0 0 0 0 0 0 0 0 0 0 0 0 0 0 0 0 0 127 0" result="hardAlpha"/>
<feMorphology radius="8" operator="dilate" in="SourceAlpha" result="effect1_dropShadow_1733_6813"/>
<feOffset dy="9"/>
<feGaussianBlur stdDeviation="23"/>
<feComposite in2="hardAlpha" operator="out"/>
<feColorMatrix type="matrix" values="0 0 0 0 0 0 0 0 0 0 0 0 0 0 0 0 0 0 0.14 0"/>
<feBlend mode="normal" in2="BackgroundImageFix" result="effect1_dropShadow_1733_6813"/>
<feBlend mode="normal" in="SourceGraphic" in2="effect1_dropShadow_1733_6813" result="shape"/>
</filter>
<clipPath id="clip0_1733_6813">
<rect width="64" height="56" fill="white" transform="translate(98 66)"/>
</clipPath>
</defs>
</svg>
