<svg width="501" height="694" viewBox="0 0 501 694" fill="none" xmlns="http://www.w3.org/2000/svg">
<g clip-path="url(#clip0_1319_4488)">
<rect width="501" height="694" rx="50" fill="#CCFF00"/>
<g filter="url(#filter0_d_1319_4488)">
<rect x="46" y="68" width="409" height="558" rx="25" fill="white"/>
<path d="M151.984 121V104.195H157.27L161.23 115.844H161.348L165.309 104.195H170.594V121H166.984V109.117H166.867L162.789 121H159.789L155.711 109.117H155.594V121H151.984ZM183.918 119.5C182.809 120.656 181.285 121.234 179.348 121.234C177.41 121.234 175.887 120.656 174.777 119.5C173.668 118.344 173.113 116.727 173.113 114.648C173.113 112.562 173.668 110.941 174.777 109.785C175.887 108.621 177.41 108.039 179.348 108.039C181.285 108.039 182.809 108.621 183.918 109.785C185.035 110.941 185.594 112.562 185.594 114.648C185.594 116.727 185.035 118.344 183.918 119.5ZM177.285 117.344C177.832 117.938 178.52 118.234 179.348 118.234C180.184 118.234 180.871 117.938 181.41 117.344C181.957 116.742 182.23 115.844 182.23 114.648C182.23 113.445 181.957 112.543 181.41 111.941C180.871 111.34 180.184 111.039 179.348 111.039C178.52 111.039 177.832 111.34 177.285 111.941C176.738 112.543 176.465 113.445 176.465 114.648C176.465 115.844 176.738 116.742 177.285 117.344ZM187.867 121V108.285H190.75L191.102 109.715H191.23C192.098 108.598 193.215 108.039 194.582 108.039C195.988 108.039 197.121 108.5 197.98 109.422C198.84 110.344 199.27 111.602 199.27 113.195V121H195.906V113.676C195.906 112.848 195.707 112.203 195.309 111.742C194.91 111.273 194.348 111.039 193.621 111.039C192.902 111.039 192.324 111.285 191.887 111.777C191.449 112.262 191.23 112.895 191.23 113.676V121H187.867ZM207.062 121C204.422 121 203.102 119.762 203.102 117.285V111.402H201.062V108.285H203.102L203.582 104.922H206.465V108.285H209.465V111.402H206.465V116.676C206.465 117.027 206.57 117.316 206.781 117.543C207 117.77 207.293 117.883 207.66 117.883H209.465V121H207.062ZM211.984 121V104.195H215.348V109.598H215.465C216.379 108.559 217.461 108.039 218.711 108.039C220.117 108.039 221.246 108.5 222.098 109.422C222.957 110.344 223.387 111.602 223.387 113.195V121H220.023V113.676C220.023 112.848 219.824 112.203 219.426 111.742C219.027 111.273 218.465 111.039 217.738 111.039C217.02 111.039 216.441 111.285 216.004 111.777C215.566 112.262 215.348 112.895 215.348 113.676V121H211.984ZM226.258 121V104.195H229.621V121H226.258ZM234.285 125.805L236.23 121L231.051 108.285H234.766L237.883 116.559H237.988L241.012 108.285H244.727L237.766 125.805H234.285ZM251.078 121V104.195H258.039C259.766 104.195 261.176 104.738 262.27 105.824C263.371 106.902 263.922 108.281 263.922 109.961C263.922 111.641 263.371 113.02 262.27 114.098C261.176 115.176 259.766 115.715 258.039 115.715H254.688V121H251.078ZM254.688 112.48H257.688C258.516 112.48 259.16 112.258 259.621 111.812C260.09 111.359 260.324 110.742 260.324 109.961C260.324 109.18 260.09 108.566 259.621 108.121C259.16 107.668 258.516 107.441 257.688 107.441H254.688V112.48ZM269.91 118.48C270.691 118.48 271.324 118.262 271.809 117.824C272.301 117.379 272.547 116.797 272.547 116.078V115.715H269.676C269.113 115.715 268.691 115.84 268.41 116.09C268.129 116.34 267.988 116.656 267.988 117.039C267.988 117.469 268.148 117.816 268.469 118.082C268.789 118.348 269.27 118.48 269.91 118.48ZM269.066 121.234C267.707 121.234 266.625 120.867 265.82 120.133C265.023 119.398 264.625 118.449 264.625 117.285C264.625 116.098 265.055 115.141 265.914 114.414C266.773 113.688 267.984 113.324 269.547 113.324H272.547V112.715C272.547 112.121 272.355 111.676 271.973 111.379C271.59 111.074 271.062 110.922 270.391 110.922C269.93 110.922 269.527 111.027 269.184 111.238C268.84 111.441 268.602 111.695 268.469 112H265.105C265.379 110.867 265.969 109.926 266.875 109.176C267.781 108.418 268.992 108.039 270.508 108.039C272.203 108.039 273.527 108.457 274.48 109.293C275.434 110.121 275.91 111.305 275.91 112.844V121H273.027L272.676 119.559H272.547C271.797 120.676 270.637 121.234 269.066 121.234ZM280.105 125.805L282.051 121L276.871 108.285H280.586L283.703 116.559H283.809L286.832 108.285H290.547L283.586 125.805H280.105ZM291.859 121V108.285H294.742L295.094 109.715H295.223C295.973 108.598 296.973 108.039 298.223 108.039C299.871 108.039 301.031 108.719 301.703 110.078H301.82C302.062 109.586 302.508 109.125 303.156 108.695C303.812 108.258 304.645 108.039 305.652 108.039C307.043 108.039 308.172 108.496 309.039 109.41C309.906 110.324 310.34 111.547 310.34 113.078V121H306.977V113.559C306.977 112.707 306.777 112.074 306.379 111.66C305.98 111.246 305.461 111.039 304.82 111.039C304.242 111.039 303.758 111.262 303.367 111.707C302.977 112.145 302.781 112.762 302.781 113.559V121H299.418V113.559C299.418 112.707 299.219 112.074 298.82 111.66C298.422 111.246 297.902 111.039 297.262 111.039C296.699 111.039 296.219 111.273 295.82 111.742C295.422 112.203 295.223 112.809 295.223 113.559V121H291.859ZM318.73 121.234C316.793 121.234 315.27 120.656 314.16 119.5C313.051 118.344 312.496 116.727 312.496 114.648C312.496 112.562 313.051 110.941 314.16 109.785C315.27 108.621 316.793 108.039 318.73 108.039C320.574 108.039 322.055 108.633 323.172 109.82C324.289 111 324.848 112.527 324.848 114.402L324.73 115.715H315.977C316.266 117.395 317.184 118.234 318.73 118.234C319.34 118.234 319.805 118.141 320.125 117.953C320.445 117.758 320.742 117.453 321.016 117.039H324.613C324.277 118.258 323.629 119.262 322.668 120.051C321.707 120.84 320.395 121.234 318.73 121.234ZM315.977 113.195H321.367C321.242 112.586 320.949 112.074 320.488 111.66C320.035 111.246 319.449 111.039 318.73 111.039C317.324 111.039 316.406 111.758 315.977 113.195ZM327.133 121V108.285H330.016L330.367 109.715H330.496C331.363 108.598 332.48 108.039 333.848 108.039C335.254 108.039 336.387 108.5 337.246 109.422C338.105 110.344 338.535 111.602 338.535 113.195V121H335.172V113.676C335.172 112.848 334.973 112.203 334.574 111.742C334.176 111.273 333.613 111.039 332.887 111.039C332.168 111.039 331.59 111.285 331.152 111.777C330.715 112.262 330.496 112.895 330.496 113.676V121H327.133ZM346.328 121C343.688 121 342.367 119.762 342.367 117.285V111.402H340.328V108.285H342.367L342.848 104.922H345.73V108.285H348.73V111.402H345.73V116.676C345.73 117.027 345.836 117.316 346.047 117.543C346.266 117.77 346.559 117.883 346.926 117.883H348.73V121H346.328Z" fill="#2C5EA8"/>
<path d="M173.125 164V147.195H180.332C182.027 147.195 183.391 147.699 184.422 148.707C185.453 149.715 185.969 151.051 185.969 152.715C185.969 153.496 185.848 154.215 185.605 154.871C185.371 155.52 185.086 156.027 184.75 156.395C184.414 156.762 184.074 157.078 183.73 157.344C183.387 157.602 183.094 157.773 182.852 157.859L182.488 158L186.566 164H182.488L178.645 158.234H176.734V164H173.125ZM176.734 155H180.086C180.758 155 181.305 154.797 181.727 154.391C182.156 153.984 182.371 153.43 182.371 152.727C182.371 152.016 182.156 151.457 181.727 151.051C181.305 150.645 180.758 150.441 180.086 150.441H176.734V155ZM188.617 168.805V151.285H191.5L191.852 152.715H191.98C192.941 151.598 194.141 151.039 195.578 151.039C197.242 151.039 198.578 151.613 199.586 152.762C200.594 153.902 201.098 155.531 201.098 157.648C201.098 159.758 200.594 161.383 199.586 162.523C198.578 163.664 197.242 164.234 195.578 164.234C194.094 164.234 192.934 163.715 192.098 162.676H191.98V168.805H188.617ZM192.789 160.344C193.336 160.938 194.023 161.234 194.852 161.234C195.688 161.234 196.375 160.938 196.914 160.344C197.461 159.742 197.734 158.844 197.734 157.648C197.734 156.445 197.461 155.543 196.914 154.941C196.375 154.34 195.688 154.039 194.852 154.039C194.023 154.039 193.336 154.34 192.789 154.941C192.25 155.543 191.98 156.445 191.98 157.648C191.98 158.844 192.25 159.742 192.789 160.344ZM212.676 160.273C213.191 160.758 213.895 161 214.785 161C215.684 161 216.387 160.758 216.895 160.273C217.41 159.781 217.668 159.145 217.668 158.363C217.668 157.551 217.387 156.887 216.824 156.371C216.27 155.855 215.594 155.598 214.797 155.598C213.898 155.598 213.191 155.848 212.676 156.348C212.168 156.84 211.914 157.512 211.914 158.363C211.914 159.145 212.168 159.781 212.676 160.273ZM214.797 164.234C212.844 164.234 211.273 163.676 210.086 162.559C208.906 161.441 208.316 160 208.316 158.234C208.316 156.68 208.914 154.961 210.109 153.078L213.836 147.195H217.797L214.188 152.844H214.316C214.559 152.766 214.957 152.723 215.512 152.715C217.27 152.715 218.668 153.254 219.707 154.332C220.754 155.402 221.277 156.746 221.277 158.363C221.277 160.09 220.695 161.5 219.531 162.594C218.375 163.688 216.797 164.234 214.797 164.234ZM226.246 163.566C225.879 163.934 225.422 164.117 224.875 164.117C224.336 164.117 223.883 163.934 223.516 163.566C223.148 163.199 222.965 162.746 222.965 162.207C222.965 161.66 223.148 161.203 223.516 160.836C223.883 160.469 224.336 160.285 224.875 160.285C225.422 160.285 225.879 160.469 226.246 160.836C226.613 161.203 226.797 161.66 226.797 162.207C226.797 162.746 226.613 163.199 226.246 163.566ZM234.977 164.234C233.297 164.234 231.875 163.781 230.711 162.875C229.555 161.961 228.855 160.656 228.613 158.961H232.211C232.336 159.57 232.629 160.062 233.09 160.438C233.559 160.812 234.145 161 234.848 161C235.793 161 236.508 160.758 236.992 160.273C237.484 159.781 237.73 159.102 237.73 158.234C237.73 157.469 237.477 156.82 236.969 156.289C236.469 155.75 235.762 155.48 234.848 155.48C233.762 155.48 232.922 155.922 232.328 156.805H228.848L229.809 147.195H240.367V150.324H232.809L232.457 153.441H232.574C233.355 152.879 234.395 152.598 235.691 152.598C237.34 152.598 238.691 153.133 239.746 154.203C240.801 155.266 241.328 156.652 241.328 158.363C241.328 160.059 240.773 161.461 239.664 162.57C238.555 163.68 236.992 164.234 234.977 164.234ZM255.613 162.031C254.324 163.5 252.566 164.234 250.34 164.234C248.121 164.234 246.367 163.5 245.078 162.031C243.789 160.562 243.145 158.422 243.145 155.609C243.145 152.789 243.789 150.645 245.078 149.176C246.367 147.699 248.121 146.961 250.34 146.961C252.566 146.961 254.324 147.699 255.613 149.176C256.902 150.645 257.547 152.789 257.547 155.609C257.547 158.422 256.902 160.562 255.613 162.031ZM247.773 159.617C248.461 160.539 249.316 161 250.34 161C251.363 161 252.219 160.539 252.906 159.617C253.602 158.695 253.949 157.355 253.949 155.598C253.949 153.84 253.602 152.5 252.906 151.578C252.219 150.656 251.363 150.195 250.34 150.195C249.316 150.195 248.461 150.656 247.773 151.578C247.086 152.5 246.742 153.84 246.742 155.598C246.742 157.355 247.086 158.695 247.773 159.617ZM271.926 162.031C270.637 163.5 268.879 164.234 266.652 164.234C264.434 164.234 262.68 163.5 261.391 162.031C260.102 160.562 259.457 158.422 259.457 155.609C259.457 152.789 260.102 150.645 261.391 149.176C262.68 147.699 264.434 146.961 266.652 146.961C268.879 146.961 270.637 147.699 271.926 149.176C273.215 150.645 273.859 152.789 273.859 155.609C273.859 158.422 273.215 160.562 271.926 162.031ZM264.086 159.617C264.773 160.539 265.629 161 266.652 161C267.676 161 268.531 160.539 269.219 159.617C269.914 158.695 270.262 157.355 270.262 155.598C270.262 153.84 269.914 152.5 269.219 151.578C268.531 150.656 267.676 150.195 266.652 150.195C265.629 150.195 264.773 150.656 264.086 151.578C263.398 152.5 263.055 153.84 263.055 155.598C263.055 157.355 263.398 158.695 264.086 159.617ZM278.207 163.566C277.84 163.934 277.383 164.117 276.836 164.117C276.297 164.117 275.844 163.934 275.477 163.566C275.109 163.199 274.926 162.746 274.926 162.207C274.926 161.66 275.109 161.203 275.477 160.836C275.844 160.469 276.297 160.285 276.836 160.285C277.383 160.285 277.84 160.469 278.207 160.836C278.574 161.203 278.758 161.66 278.758 162.207C278.758 162.746 278.574 163.199 278.207 163.566ZM293.043 162.031C291.754 163.5 289.996 164.234 287.77 164.234C285.551 164.234 283.797 163.5 282.508 162.031C281.219 160.562 280.574 158.422 280.574 155.609C280.574 152.789 281.219 150.645 282.508 149.176C283.797 147.699 285.551 146.961 287.77 146.961C289.996 146.961 291.754 147.699 293.043 149.176C294.332 150.645 294.977 152.789 294.977 155.609C294.977 158.422 294.332 160.562 293.043 162.031ZM285.203 159.617C285.891 160.539 286.746 161 287.77 161C288.793 161 289.648 160.539 290.336 159.617C291.031 158.695 291.379 157.355 291.379 155.598C291.379 153.84 291.031 152.5 290.336 151.578C289.648 150.656 288.793 150.195 287.77 150.195C286.746 150.195 285.891 150.656 285.203 151.578C284.516 152.5 284.172 153.84 284.172 155.598C284.172 157.355 284.516 158.695 285.203 159.617ZM309.355 162.031C308.066 163.5 306.309 164.234 304.082 164.234C301.863 164.234 300.109 163.5 298.82 162.031C297.531 160.562 296.887 158.422 296.887 155.609C296.887 152.789 297.531 150.645 298.82 149.176C300.109 147.699 301.863 146.961 304.082 146.961C306.309 146.961 308.066 147.699 309.355 149.176C310.645 150.645 311.289 152.789 311.289 155.609C311.289 158.422 310.645 160.562 309.355 162.031ZM301.516 159.617C302.203 160.539 303.059 161 304.082 161C305.105 161 305.961 160.539 306.648 159.617C307.344 158.695 307.691 157.355 307.691 155.598C307.691 153.84 307.344 152.5 306.648 151.578C305.961 150.656 305.105 150.195 304.082 150.195C303.059 150.195 302.203 150.656 301.516 151.578C300.828 152.5 300.484 153.84 300.484 155.598C300.484 157.355 300.828 158.695 301.516 159.617ZM325.668 162.031C324.379 163.5 322.621 164.234 320.395 164.234C318.176 164.234 316.422 163.5 315.133 162.031C313.844 160.562 313.199 158.422 313.199 155.609C313.199 152.789 313.844 150.645 315.133 149.176C316.422 147.699 318.176 146.961 320.395 146.961C322.621 146.961 324.379 147.699 325.668 149.176C326.957 150.645 327.602 152.789 327.602 155.609C327.602 158.422 326.957 160.562 325.668 162.031ZM317.828 159.617C318.516 160.539 319.371 161 320.395 161C321.418 161 322.273 160.539 322.961 159.617C323.656 158.695 324.004 157.355 324.004 155.598C324.004 153.84 323.656 152.5 322.961 151.578C322.273 150.656 321.418 150.195 320.395 150.195C319.371 150.195 318.516 150.656 317.828 151.578C317.141 152.5 316.797 153.84 316.797 155.598C316.797 157.355 317.141 158.695 317.828 159.617Z" fill="#2C5EA8"/>
<g filter="url(#filter1_d_1319_4488)">
<rect x="46" y="460" width="409" height="166" rx="10" fill="#345995"/>
<path d="M102.978 502L102.978 492.197H107.038C108.045 492.197 108.868 492.514 109.506 493.147C110.148 493.776 110.47 494.581 110.47 495.561C110.47 496.54 110.148 497.345 109.506 497.974C108.868 498.603 108.045 498.917 107.038 498.917H105.083L105.083 502H102.978ZM105.083 497.03H106.833C107.316 497.03 107.692 496.9 107.961 496.641C108.234 496.376 108.371 496.016 108.371 495.561C108.371 495.105 108.234 494.747 107.961 494.487C107.692 494.223 107.316 494.091 106.833 494.091H105.083L105.083 497.03ZM111.577 502L111.577 494.583H113.259L113.464 495.417H113.539C113.913 494.856 114.496 494.578 115.289 494.583H116.198L116.198 496.47H115.426C114.838 496.47 114.375 496.634 114.038 496.962C113.705 497.285 113.539 497.728 113.539 498.288L113.539 502H111.577ZM117.251 502L117.251 494.583H119.213L119.213 502H117.251ZM119.028 493.489C118.814 493.703 118.548 493.811 118.229 493.811C117.914 493.811 117.647 493.703 117.429 493.489C117.215 493.275 117.107 493.008 117.107 492.689C117.107 492.37 117.215 492.104 117.429 491.89C117.647 491.675 117.914 491.568 118.229 491.568C118.548 491.568 118.814 491.675 119.028 491.89C119.243 492.104 119.35 492.37 119.35 492.689C119.35 493.008 119.243 493.275 119.028 493.489ZM120.888 502L120.888 494.583H122.569L122.774 495.417H122.85C123.355 494.765 124.007 494.439 124.805 494.439C125.625 494.439 126.286 494.708 126.787 495.246C127.288 495.784 127.539 496.518 127.539 497.447L127.539 502H125.577L125.577 497.728C125.577 497.244 125.461 496.868 125.229 496.6C124.996 496.326 124.668 496.189 124.244 496.189C123.825 496.189 123.488 496.333 123.232 496.62C122.977 496.903 122.85 497.272 122.85 497.728L122.85 502H120.888ZM132.434 502.137C131.303 502.137 130.415 501.799 129.768 501.125C129.12 500.451 128.797 499.507 128.797 498.295C128.797 497.078 129.12 496.132 129.768 495.458C130.415 494.779 131.303 494.439 132.434 494.439C133.413 494.439 134.181 494.688 134.737 495.185C135.293 495.677 135.669 496.315 135.865 497.099H133.903C133.603 496.493 133.113 496.189 132.434 496.189C131.928 496.189 131.52 496.369 131.21 496.729C130.905 497.09 130.752 497.611 130.752 498.295C130.752 498.974 130.907 499.493 131.217 499.854C131.527 500.209 131.932 500.387 132.434 500.387C133.117 500.387 133.607 500.084 133.903 499.478H135.865C135.669 500.261 135.293 500.902 134.737 501.398C134.181 501.891 133.413 502.137 132.434 502.137ZM137.13 502L137.13 494.583H139.092L139.092 502H137.13ZM138.907 493.489C138.693 493.703 138.426 493.811 138.107 493.811C137.793 493.811 137.526 493.703 137.308 493.489C137.093 493.275 136.986 493.008 136.986 492.689C136.986 492.37 137.093 492.104 137.308 491.89C137.526 491.675 137.793 491.568 138.107 491.568C138.426 491.568 138.693 491.675 138.907 491.89C139.121 492.104 139.229 492.37 139.229 492.689C139.229 493.008 139.121 493.275 138.907 493.489ZM140.767 504.803L140.767 494.583H142.448L142.653 495.417H142.729C143.289 494.765 143.989 494.439 144.827 494.439C145.798 494.439 146.577 494.774 147.165 495.444C147.753 496.11 148.047 497.06 148.047 498.295C148.047 499.525 147.753 500.473 147.165 501.139C146.577 501.804 145.798 502.137 144.827 502.137C143.961 502.137 143.285 501.834 142.797 501.228H142.729L142.729 504.803H140.767ZM143.2 499.867C143.519 500.214 143.92 500.387 144.403 500.387C144.891 500.387 145.292 500.214 145.606 499.867C145.925 499.516 146.085 498.992 146.085 498.295C146.085 497.593 145.925 497.067 145.606 496.716C145.292 496.365 144.891 496.189 144.403 496.189C143.92 496.189 143.519 496.365 143.2 496.716C142.886 497.067 142.729 497.593 142.729 498.295C142.729 498.992 142.886 499.516 143.2 499.867ZM152.039 500.53C152.495 500.53 152.864 500.403 153.146 500.147C153.434 499.888 153.577 499.548 153.577 499.129L153.577 498.917H151.902C151.574 498.917 151.328 498.99 151.164 499.136C151 499.282 150.918 499.466 150.918 499.689C150.918 499.94 151.011 500.143 151.198 500.298C151.385 500.453 151.665 500.53 152.039 500.53ZM151.547 502.137C150.754 502.137 150.123 501.923 149.653 501.494C149.188 501.066 148.956 500.512 148.956 499.833C148.956 499.14 149.207 498.582 149.708 498.158C150.209 497.734 150.916 497.522 151.827 497.522H153.577L153.577 497.167C153.577 496.821 153.465 496.561 153.242 496.388C153.019 496.21 152.711 496.121 152.319 496.121C152.05 496.121 151.816 496.183 151.615 496.306C151.415 496.424 151.276 496.572 151.198 496.75H149.236C149.396 496.089 149.74 495.54 150.269 495.103C150.797 494.66 151.504 494.439 152.388 494.439C153.377 494.439 154.149 494.683 154.705 495.171C155.261 495.654 155.539 496.344 155.539 497.242L155.539 502H153.857L153.652 501.159H153.577C153.14 501.811 152.463 502.137 151.547 502.137ZM157.214 502L157.214 492.197H159.176L159.176 502H157.214ZM166.873 500.387C167.479 500.387 168.017 500.154 168.486 499.689L166.736 497.939L166.313 498.22C165.893 498.498 165.684 498.871 165.684 499.341C165.684 499.66 165.786 499.915 165.991 500.106C166.196 500.293 166.49 500.387 166.873 500.387ZM166.736 502.137C165.775 502.137 165.021 501.891 164.474 501.398C163.927 500.902 163.653 500.261 163.653 499.478C163.653 498.479 164.098 497.709 164.986 497.167L165.547 496.818L165.123 496.401C164.563 495.841 164.282 495.187 164.282 494.439C164.282 493.788 164.544 493.229 165.068 492.765C165.592 492.295 166.265 492.061 167.085 492.061C167.974 492.061 168.662 492.277 169.149 492.71C169.642 493.143 169.888 493.719 169.888 494.439C169.888 495.355 169.489 496.055 168.691 496.538L168.138 496.887L169.744 498.5L170.722 497.522H173.107L170.934 499.689L173.244 502H170.797L169.744 500.947C169.443 501.18 169.19 501.362 168.985 501.494C168.78 501.626 168.466 501.768 168.042 501.918C167.618 502.064 167.183 502.137 166.736 502.137ZM166.941 495.772L167.434 495.417C167.557 495.326 167.65 495.253 167.714 495.198C167.778 495.139 167.839 495.055 167.898 494.945C167.962 494.831 167.994 494.711 167.994 494.583C167.994 494.332 167.912 494.13 167.748 493.975C167.584 493.82 167.363 493.742 167.085 493.742C166.807 493.742 166.586 493.824 166.422 493.988C166.258 494.148 166.176 494.369 166.176 494.651C166.176 494.884 166.34 495.164 166.668 495.492L166.941 495.772ZM176.614 502L176.614 494.583H178.576L178.576 502H176.614ZM178.392 493.489C178.177 493.703 177.911 493.811 177.592 493.811C177.277 493.811 177.011 493.703 176.792 493.489C176.578 493.275 176.471 493.008 176.471 492.689C176.471 492.37 176.578 492.104 176.792 491.89C177.011 491.675 177.277 491.568 177.592 491.568C177.911 491.568 178.177 491.675 178.392 491.89C178.606 492.104 178.713 492.37 178.713 492.689C178.713 493.008 178.606 493.275 178.392 493.489ZM180.251 502L180.251 494.583H181.933L182.138 495.417H182.213C182.719 494.765 183.37 494.439 184.168 494.439C184.988 494.439 185.649 494.708 186.15 495.246C186.652 495.784 186.902 496.518 186.902 497.447L186.902 502H184.94L184.94 497.728C184.94 497.244 184.824 496.868 184.592 496.6C184.359 496.326 184.031 496.189 183.607 496.189C183.188 496.189 182.851 496.333 182.596 496.62C182.34 496.903 182.213 497.272 182.213 497.728L182.213 502H180.251ZM191.448 502C189.908 502 189.138 501.278 189.138 499.833L189.138 496.401H187.948L187.948 494.583H189.138L189.418 492.621H191.1L191.1 494.583H192.85L192.85 496.401H191.1L191.1 499.478C191.1 499.683 191.161 499.851 191.284 499.983C191.412 500.116 191.583 500.182 191.797 500.182H192.85L192.85 502H191.448ZM197.402 502.137C196.272 502.137 195.383 501.799 194.736 501.125C194.089 500.451 193.766 499.507 193.766 498.295C193.766 497.078 194.089 496.132 194.736 495.458C195.383 494.779 196.272 494.439 197.402 494.439C198.478 494.439 199.341 494.786 199.993 495.479C200.645 496.167 200.971 497.058 200.971 498.151L200.902 498.917H195.796C195.965 499.897 196.5 500.387 197.402 500.387C197.758 500.387 198.029 500.332 198.216 500.223C198.403 500.109 198.576 499.931 198.735 499.689H200.834C200.638 500.4 200.26 500.986 199.699 501.446C199.139 501.907 198.373 502.137 197.402 502.137ZM195.796 497.447H198.94C198.868 497.092 198.697 496.793 198.428 496.552C198.163 496.31 197.822 496.189 197.402 496.189C196.582 496.189 196.047 496.609 195.796 497.447ZM202.304 502L202.304 494.583H203.985L204.19 495.417H204.266C204.639 494.856 205.223 494.578 206.016 494.583H206.925L206.925 496.47H206.152C205.564 496.47 205.102 496.634 204.765 496.962C204.432 497.285 204.266 497.728 204.266 498.288L204.266 502H202.304ZM210.979 502.137C209.848 502.137 208.96 501.799 208.313 501.125C207.665 500.451 207.342 499.507 207.342 498.295C207.342 497.078 207.665 496.132 208.313 495.458C208.96 494.779 209.848 494.439 210.979 494.439C212.054 494.439 212.918 494.786 213.569 495.479C214.221 496.167 214.547 497.058 214.547 498.151L214.479 498.917H209.372C209.541 499.897 210.076 500.387 210.979 500.387C211.334 500.387 211.605 500.332 211.792 500.223C211.979 500.109 212.152 499.931 212.312 499.689H214.41C214.214 500.4 213.836 500.986 213.275 501.446C212.715 501.907 211.949 502.137 210.979 502.137ZM209.372 497.447H212.517C212.444 497.092 212.273 496.793 212.004 496.552C211.74 496.31 211.398 496.189 210.979 496.189C210.158 496.189 209.623 496.609 209.372 497.447ZM218.607 502.137C217.591 502.137 216.816 501.911 216.283 501.46C215.755 501.009 215.433 500.419 215.319 499.689H217.418C217.454 499.876 217.58 500.04 217.794 500.182C218.013 500.318 218.284 500.387 218.607 500.387C219.446 500.387 219.868 500.202 219.872 499.833C219.872 499.664 219.765 499.53 219.551 499.43C219.341 499.325 219.077 499.252 218.758 499.211C218.443 499.165 218.102 499.092 217.732 498.992C217.363 498.887 217.019 498.764 216.7 498.623C216.386 498.477 216.124 498.238 215.914 497.905C215.704 497.573 215.6 497.165 215.6 496.682C215.6 496.03 215.862 495.494 216.386 495.075C216.914 494.651 217.655 494.439 218.607 494.439C219.596 494.439 220.353 494.651 220.877 495.075C221.401 495.499 221.718 496.057 221.827 496.75H219.729C219.637 496.376 219.264 496.189 218.607 496.189C218.298 496.189 218.056 496.237 217.883 496.333C217.714 496.424 217.63 496.54 217.63 496.682C217.63 496.85 217.735 496.987 217.944 497.092C218.154 497.192 218.416 497.263 218.73 497.304C219.049 497.345 219.394 497.418 219.763 497.522C220.132 497.623 220.474 497.746 220.788 497.892C221.107 498.037 221.371 498.277 221.581 498.609C221.795 498.938 221.902 499.345 221.902 499.833C221.902 500.503 221.645 501.054 221.13 501.487C220.615 501.92 219.774 502.137 218.607 502.137ZM226.024 502C224.484 502 223.714 501.278 223.714 499.833L223.714 496.401H222.524L222.524 494.583H223.714L223.994 492.621H225.676L225.676 494.583H227.426L227.426 496.401H225.676L225.676 499.478C225.676 499.683 225.737 499.851 225.86 499.983C225.988 500.116 226.159 500.182 226.373 500.182H227.426L227.426 502H226.024Z" fill="white"/>
<path d="M101.978 544L101.978 534.197H106.038C107.045 534.197 107.868 534.514 108.506 535.147C109.148 535.776 109.47 536.581 109.47 537.561C109.47 538.54 109.148 539.345 108.506 539.974C107.868 540.603 107.045 540.917 106.038 540.917H104.083L104.083 544H101.978ZM104.083 539.03H105.833C106.316 539.03 106.692 538.9 106.961 538.641C107.234 538.376 107.371 538.016 107.371 537.561C107.371 537.105 107.234 536.747 106.961 536.487C106.692 536.223 106.316 536.091 105.833 536.091H104.083L104.083 539.03ZM110.577 544L110.577 536.583H112.259L112.464 537.417H112.539C112.913 536.856 113.496 536.578 114.289 536.583H115.198L115.198 538.47H114.426C113.838 538.47 113.375 538.634 113.038 538.962C112.705 539.285 112.539 539.728 112.539 540.288L112.539 544H110.577ZM121.918 543.125C121.271 543.799 120.382 544.137 119.252 544.137C118.122 544.137 117.233 543.799 116.586 543.125C115.939 542.451 115.615 541.507 115.615 540.295C115.615 539.078 115.939 538.132 116.586 537.458C117.233 536.779 118.122 536.439 119.252 536.439C120.382 536.439 121.271 536.779 121.918 537.458C122.57 538.132 122.896 539.078 122.896 540.295C122.896 541.507 122.57 542.451 121.918 543.125ZM118.049 541.867C118.368 542.214 118.769 542.387 119.252 542.387C119.74 542.387 120.141 542.214 120.455 541.867C120.774 541.516 120.934 540.992 120.934 540.295C120.934 539.593 120.774 539.067 120.455 538.716C120.141 538.365 119.74 538.189 119.252 538.189C118.769 538.189 118.368 538.365 118.049 538.716C117.73 539.067 117.57 539.593 117.57 540.295C117.57 540.992 117.73 541.516 118.049 541.867ZM124.222 546.803L124.222 536.583H125.903L126.108 537.417H126.184C126.744 536.765 127.444 536.439 128.282 536.439C129.253 536.439 130.032 536.774 130.62 537.444C131.208 538.11 131.502 539.06 131.502 540.295C131.502 541.525 131.208 542.473 130.62 543.139C130.032 543.804 129.253 544.137 128.282 544.137C127.416 544.137 126.74 543.834 126.252 543.228H126.184L126.184 546.803H124.222ZM126.655 541.867C126.974 542.214 127.375 542.387 127.858 542.387C128.346 542.387 128.747 542.214 129.062 541.867C129.381 541.516 129.54 540.992 129.54 540.295C129.54 539.593 129.381 539.067 129.062 538.716C128.747 538.365 128.346 538.189 127.858 538.189C127.375 538.189 126.974 538.365 126.655 538.716C126.341 539.067 126.184 539.593 126.184 540.295C126.184 540.992 126.341 541.516 126.655 541.867ZM136.123 544.137C134.993 544.137 134.104 543.799 133.457 543.125C132.81 542.451 132.486 541.507 132.486 540.295C132.486 539.078 132.81 538.132 133.457 537.458C134.104 536.779 134.993 536.439 136.123 536.439C137.199 536.439 138.062 536.786 138.714 537.479C139.366 538.167 139.691 539.058 139.691 540.151L139.623 540.917H134.517C134.685 541.897 135.221 542.387 136.123 542.387C136.479 542.387 136.75 542.332 136.937 542.223C137.123 542.109 137.297 541.931 137.456 541.689H139.555C139.359 542.4 138.98 542.986 138.42 543.446C137.859 543.907 137.094 544.137 136.123 544.137ZM134.517 539.447H137.661C137.588 539.092 137.417 538.793 137.148 538.552C136.884 538.31 136.542 538.189 136.123 538.189C135.303 538.189 134.767 538.609 134.517 539.447ZM141.024 544L141.024 536.583H142.706L142.911 537.417H142.986C143.36 536.856 143.943 536.578 144.736 536.583H145.646L145.646 538.47H144.873C144.285 538.47 143.823 538.634 143.485 538.962C143.153 539.285 142.986 539.728 142.986 540.288L142.986 544H141.024ZM149.638 544C148.097 544 147.327 543.278 147.327 541.833L147.327 538.401H146.138L146.138 536.583H147.327L147.607 534.621H149.289L149.289 536.583H151.039L151.039 538.401H149.289L149.289 541.478C149.289 541.683 149.351 541.851 149.474 541.983C149.601 542.116 149.772 542.182 149.986 542.182H151.039L151.039 544H149.638ZM153.281 546.803L154.416 544L151.395 536.583H153.562L155.38 541.409H155.441L157.205 536.583H159.372L155.312 546.803H153.281ZM165.88 544C164.34 544 163.569 543.278 163.569 541.833L163.569 538.401H162.38L162.38 536.583H163.569L163.85 534.621H165.531L165.531 536.583H167.281L167.281 538.401H165.531L165.531 541.478C165.531 541.683 165.593 541.851 165.716 541.983C165.843 542.116 166.014 542.182 166.229 542.182H167.281L167.281 544H165.88ZM171.342 542.53C171.798 542.53 172.167 542.403 172.449 542.147C172.736 541.888 172.88 541.548 172.88 541.129L172.88 540.917H171.205C170.877 540.917 170.631 540.99 170.467 541.136C170.303 541.282 170.221 541.466 170.221 541.689C170.221 541.94 170.314 542.143 170.501 542.298C170.688 542.453 170.968 542.53 171.342 542.53ZM170.85 544.137C170.057 544.137 169.425 543.923 168.956 543.494C168.491 543.066 168.259 542.512 168.259 541.833C168.259 541.14 168.509 540.582 169.011 540.158C169.512 539.734 170.218 539.522 171.13 539.522H172.88L172.88 539.167C172.88 538.821 172.768 538.561 172.545 538.388C172.322 538.21 172.014 538.121 171.622 538.121C171.353 538.121 171.118 538.183 170.918 538.306C170.717 538.424 170.578 538.572 170.501 538.75H168.539C168.699 538.089 169.043 537.54 169.571 537.103C170.1 536.66 170.806 536.439 171.69 536.439C172.679 536.439 173.452 536.683 174.008 537.171C174.564 537.654 174.842 538.344 174.842 539.242L174.842 544H173.16L172.955 543.159H172.88C172.442 543.811 171.766 544.137 170.85 544.137ZM175.471 544L177.85 540.151L175.607 536.583H177.774L179.107 538.887L180.44 536.583H182.607L180.365 540.151L182.744 544H180.577L179.107 541.478L177.638 544H175.471Z" fill="white"/>
<path d="M102.978 586L102.978 576.197H105.083L105.083 586H102.978ZM106.901 586L106.901 578.583H108.583L108.788 579.417H108.863C109.369 578.765 110.021 578.439 110.818 578.439C111.639 578.439 112.299 578.708 112.801 579.246C113.302 579.784 113.553 580.518 113.553 581.447L113.553 586H111.591L111.591 581.728C111.591 581.244 111.475 580.868 111.242 580.6C111.01 580.326 110.682 580.189 110.258 580.189C109.839 580.189 109.501 580.333 109.246 580.62C108.991 580.903 108.863 581.272 108.863 581.728L108.863 586H106.901ZM117.887 586.137C116.87 586.137 116.096 585.911 115.563 585.46C115.034 585.009 114.713 584.419 114.599 583.689H116.697C116.734 583.876 116.859 584.04 117.073 584.182C117.292 584.318 117.563 584.387 117.887 584.387C118.725 584.387 119.147 584.202 119.151 583.833C119.151 583.664 119.044 583.53 118.83 583.43C118.62 583.325 118.356 583.252 118.037 583.211C117.723 583.165 117.381 583.092 117.012 582.992C116.643 582.887 116.299 582.764 115.979 582.623C115.665 582.477 115.403 582.238 115.193 581.905C114.984 581.573 114.879 581.165 114.879 580.682C114.879 580.03 115.141 579.494 115.665 579.075C116.194 578.651 116.934 578.439 117.887 578.439C118.876 578.439 119.632 578.651 120.156 579.075C120.68 579.499 120.997 580.057 121.106 580.75H119.008C118.917 580.376 118.543 580.189 117.887 580.189C117.577 580.189 117.335 580.237 117.162 580.333C116.993 580.424 116.909 580.54 116.909 580.682C116.909 580.85 117.014 580.987 117.224 581.092C117.433 581.192 117.695 581.263 118.01 581.304C118.329 581.345 118.673 581.418 119.042 581.522C119.411 581.623 119.753 581.746 120.067 581.892C120.386 582.037 120.651 582.277 120.86 582.609C121.075 582.938 121.182 583.345 121.182 583.833C121.182 584.503 120.924 585.054 120.409 585.487C119.894 585.92 119.053 586.137 117.887 586.137ZM125.092 586.137C124.271 586.137 123.611 585.87 123.109 585.337C122.613 584.799 122.364 584.063 122.364 583.129L122.364 578.583H124.326L124.326 582.849C124.326 583.332 124.442 583.71 124.675 583.983C124.907 584.252 125.233 584.387 125.652 584.387C126.072 584.387 126.409 584.245 126.664 583.963C126.924 583.68 127.054 583.309 127.054 582.849L127.054 578.583H129.016L129.016 586H127.334L127.122 585.159H127.054C126.548 585.811 125.894 586.137 125.092 586.137ZM130.69 586L130.69 578.583H132.372L132.577 579.417H132.652C133.026 578.856 133.609 578.578 134.402 578.583H135.312L135.312 580.47H134.539C133.951 580.47 133.489 580.634 133.151 580.962C132.819 581.285 132.652 581.728 132.652 582.288L132.652 586H130.69ZM138.887 584.53C139.342 584.53 139.712 584.403 139.994 584.147C140.281 583.888 140.425 583.548 140.425 583.129L140.425 582.917H138.75C138.422 582.917 138.176 582.99 138.012 583.136C137.848 583.282 137.766 583.466 137.766 583.689C137.766 583.94 137.859 584.143 138.046 584.298C138.233 584.453 138.513 584.53 138.887 584.53ZM138.395 586.137C137.602 586.137 136.97 585.923 136.501 585.494C136.036 585.066 135.804 584.512 135.804 583.833C135.804 583.14 136.054 582.582 136.556 582.158C137.057 581.734 137.763 581.522 138.675 581.522H140.425L140.425 581.167C140.425 580.821 140.313 580.561 140.09 580.388C139.867 580.21 139.559 580.121 139.167 580.121C138.898 580.121 138.663 580.183 138.463 580.306C138.262 580.424 138.123 580.572 138.046 580.75H136.084C136.243 580.089 136.588 579.54 137.116 579.103C137.645 578.66 138.351 578.439 139.235 578.439C140.224 578.439 140.997 578.683 141.553 579.171C142.109 579.654 142.387 580.344 142.387 581.242L142.387 586H140.705L140.5 585.159H140.425C139.987 585.811 139.311 586.137 138.395 586.137ZM143.993 586L143.993 578.583H145.675L145.88 579.417H145.955C146.461 578.765 147.113 578.439 147.91 578.439C148.73 578.439 149.391 578.708 149.893 579.246C150.394 579.784 150.645 580.518 150.645 581.447L150.645 586H148.683L148.683 581.728C148.683 581.244 148.566 580.868 148.334 580.6C148.102 580.326 147.773 580.189 147.35 580.189C146.93 580.189 146.593 580.333 146.338 580.62C146.083 580.903 145.955 581.272 145.955 581.728L145.955 586H143.993ZM155.539 586.137C154.409 586.137 153.52 585.799 152.873 585.125C152.226 584.451 151.902 583.507 151.902 582.295C151.902 581.078 152.226 580.132 152.873 579.458C153.52 578.779 154.409 578.439 155.539 578.439C156.519 578.439 157.287 578.688 157.843 579.185C158.399 579.677 158.775 580.315 158.971 581.099H157.009C156.708 580.493 156.218 580.189 155.539 580.189C155.033 580.189 154.625 580.369 154.315 580.729C154.01 581.09 153.857 581.611 153.857 582.295C153.857 582.974 154.012 583.493 154.322 583.854C154.632 584.209 155.038 584.387 155.539 584.387C156.223 584.387 156.713 584.084 157.009 583.478H158.971C158.775 584.261 158.399 584.902 157.843 585.398C157.287 585.891 156.519 586.137 155.539 586.137ZM163.523 586.137C162.393 586.137 161.505 585.799 160.857 585.125C160.21 584.451 159.887 583.507 159.887 582.295C159.887 581.078 160.21 580.132 160.857 579.458C161.505 578.779 162.393 578.439 163.523 578.439C164.599 578.439 165.463 578.786 166.114 579.479C166.766 580.167 167.092 581.058 167.092 582.151L167.023 582.917H161.917C162.086 583.897 162.621 584.387 163.523 584.387C163.879 584.387 164.15 584.332 164.337 584.223C164.524 584.109 164.697 583.931 164.856 583.689H166.955C166.759 584.4 166.381 584.986 165.82 585.446C165.26 585.907 164.494 586.137 163.523 586.137ZM161.917 581.447H165.062C164.989 581.092 164.818 580.793 164.549 580.552C164.285 580.31 163.943 580.189 163.523 580.189C162.703 580.189 162.168 580.609 161.917 581.447Z" fill="white"/>
<path d="M315.914 502L315.914 492.197H319.694C320.638 492.197 321.387 492.468 321.943 493.011C322.499 493.553 322.777 494.262 322.777 495.137C322.777 496.035 322.508 496.729 321.971 497.222C321.433 497.709 320.813 497.996 320.111 498.083L322.914 502H321.588L318.785 498.083H317.104L317.104 502H315.914ZM317.104 497.03H319.626C320.241 497.03 320.722 496.857 321.068 496.511C321.415 496.164 321.588 495.709 321.588 495.144C321.588 494.574 321.415 494.116 321.068 493.77C320.722 493.423 320.241 493.25 319.626 493.25H317.104L317.104 497.03ZM324.589 504.803L324.589 494.72H325.43L325.573 495.697H325.642C326.166 494.95 326.959 494.578 328.021 494.583C328.955 494.583 329.714 494.913 330.297 495.574C330.88 496.235 331.172 497.165 331.172 498.363C331.172 499.557 330.88 500.485 330.297 501.146C329.714 501.806 328.955 502.137 328.021 502.137C327.022 502.137 326.252 501.788 325.71 501.091H325.642L325.642 504.803H324.589ZM326.25 500.435C326.656 500.918 327.198 501.159 327.877 501.159C328.561 501.159 329.105 500.918 329.511 500.435C329.916 499.947 330.119 499.257 330.119 498.363C330.119 497.465 329.916 496.775 329.511 496.292C329.105 495.804 328.561 495.561 327.877 495.561C327.198 495.561 326.656 495.804 326.25 496.292C325.844 496.775 325.642 497.465 325.642 498.363C325.642 499.257 325.844 499.947 326.25 500.435ZM338.938 502.137C338.108 502.137 337.381 501.895 336.757 501.412C336.137 500.924 335.743 500.257 335.574 499.409H336.764C336.905 499.906 337.174 500.312 337.57 500.626C337.967 500.936 338.423 501.091 338.938 501.091C339.63 501.091 340.177 500.886 340.578 500.476C340.979 500.065 341.18 499.523 341.18 498.849C341.18 498.165 340.977 497.609 340.571 497.181C340.17 496.752 339.626 496.538 338.938 496.538C338.126 496.538 337.45 496.889 336.907 497.591H335.786L336.278 492.197H341.809L341.809 493.25H337.324L337.044 496.189H337.119C337.652 495.725 338.329 495.492 339.149 495.492C340.084 495.492 340.854 495.813 341.46 496.456C342.066 497.099 342.369 497.896 342.369 498.849C342.369 499.838 342.057 500.633 341.433 501.234C340.813 501.836 339.981 502.137 338.938 502.137ZM345.076 501.843C344.921 501.993 344.741 502.068 344.536 502.068C344.331 502.068 344.151 501.993 343.996 501.843C343.846 501.688 343.771 501.508 343.771 501.303C343.771 501.098 343.846 500.918 343.996 500.763C344.151 500.608 344.331 500.53 344.536 500.53C344.741 500.53 344.921 500.608 345.076 500.763C345.231 500.918 345.309 501.098 345.309 501.303C345.309 501.508 345.231 501.688 345.076 501.843ZM353.655 500.838C352.922 501.704 351.958 502.137 350.764 502.137C349.57 502.137 348.606 501.704 347.872 500.838C347.138 499.972 346.771 498.728 346.771 497.105C346.771 495.479 347.138 494.232 347.872 493.366C348.606 492.496 349.57 492.061 350.764 492.061C351.958 492.061 352.922 492.496 353.655 493.366C354.389 494.232 354.756 495.479 354.756 497.105C354.756 498.728 354.389 499.972 353.655 500.838ZM348.747 500.079C349.271 500.754 349.943 501.091 350.764 501.091C351.584 501.091 352.256 500.754 352.78 500.079C353.304 499.4 353.566 498.407 353.566 497.099C353.566 495.791 353.304 494.799 352.78 494.125C352.256 493.451 351.584 493.113 350.764 493.113C349.943 493.113 349.271 493.451 348.747 494.125C348.223 494.799 347.961 495.791 347.961 497.099C347.961 498.407 348.223 499.4 348.747 500.079ZM363.034 500.838C362.3 501.704 361.337 502.137 360.143 502.137C358.949 502.137 357.985 501.704 357.251 500.838C356.517 499.972 356.15 498.728 356.15 497.105C356.15 495.479 356.517 494.232 357.251 493.366C357.985 492.496 358.949 492.061 360.143 492.061C361.337 492.061 362.3 492.496 363.034 493.366C363.768 494.232 364.135 495.479 364.135 497.105C364.135 498.728 363.768 499.972 363.034 500.838ZM358.126 500.079C358.65 500.754 359.322 501.091 360.143 501.091C360.963 501.091 361.635 500.754 362.159 500.079C362.683 499.4 362.945 498.407 362.945 497.099C362.945 495.791 362.683 494.799 362.159 494.125C361.635 493.451 360.963 493.113 360.143 493.113C359.322 493.113 358.65 493.451 358.126 494.125C357.602 494.799 357.34 495.791 357.34 497.099C357.34 498.407 357.602 499.4 358.126 500.079ZM372.413 500.838C371.679 501.704 370.715 502.137 369.521 502.137C368.327 502.137 367.364 501.704 366.63 500.838C365.896 499.972 365.529 498.728 365.529 497.105C365.529 495.479 365.896 494.232 366.63 493.366C367.364 492.496 368.327 492.061 369.521 492.061C370.715 492.061 371.679 492.496 372.413 493.366C373.147 494.232 373.514 495.479 373.514 497.105C373.514 498.728 373.147 499.972 372.413 500.838ZM367.505 500.079C368.029 500.754 368.701 501.091 369.521 501.091C370.342 501.091 371.014 500.754 371.538 500.079C372.062 499.4 372.324 498.407 372.324 497.099C372.324 495.791 372.062 494.799 371.538 494.125C371.014 493.451 370.342 493.113 369.521 493.113C368.701 493.113 368.029 493.451 367.505 494.125C366.981 494.799 366.719 495.791 366.719 497.099C366.719 498.407 366.981 499.4 367.505 500.079ZM375.865 501.843C375.71 501.993 375.53 502.068 375.325 502.068C375.12 502.068 374.94 501.993 374.785 501.843C374.635 501.688 374.56 501.508 374.56 501.303C374.56 501.098 374.635 500.918 374.785 500.763C374.94 500.608 375.12 500.53 375.325 500.53C375.53 500.53 375.71 500.608 375.865 500.763C376.02 500.918 376.098 501.098 376.098 501.303C376.098 501.508 376.02 501.688 375.865 501.843ZM384.444 500.838C383.711 501.704 382.747 502.137 381.553 502.137C380.359 502.137 379.395 501.704 378.661 500.838C377.927 499.972 377.561 498.728 377.561 497.105C377.561 495.479 377.927 494.232 378.661 493.366C379.395 492.496 380.359 492.061 381.553 492.061C382.747 492.061 383.711 492.496 384.444 493.366C385.178 494.232 385.545 495.479 385.545 497.105C385.545 498.728 385.178 499.972 384.444 500.838ZM379.536 500.079C380.06 500.754 380.732 501.091 381.553 501.091C382.373 501.091 383.045 500.754 383.569 500.079C384.093 499.4 384.355 498.407 384.355 497.099C384.355 495.791 384.093 494.799 383.569 494.125C383.045 493.451 382.373 493.113 381.553 493.113C380.732 493.113 380.06 493.451 379.536 494.125C379.012 494.799 378.75 495.791 378.75 497.099C378.75 498.407 379.012 499.4 379.536 500.079ZM393.823 500.838C393.09 501.704 392.126 502.137 390.932 502.137C389.738 502.137 388.774 501.704 388.04 500.838C387.306 499.972 386.939 498.728 386.939 497.105C386.939 495.479 387.306 494.232 388.04 493.366C388.774 492.496 389.738 492.061 390.932 492.061C392.126 492.061 393.09 492.496 393.823 493.366C394.557 494.232 394.924 495.479 394.924 497.105C394.924 498.728 394.557 499.972 393.823 500.838ZM388.915 500.079C389.439 500.754 390.111 501.091 390.932 501.091C391.752 501.091 392.424 500.754 392.948 500.079C393.472 499.4 393.734 498.407 393.734 497.099C393.734 495.791 393.472 494.799 392.948 494.125C392.424 493.451 391.752 493.113 390.932 493.113C390.111 493.113 389.439 493.451 388.915 494.125C388.391 494.799 388.129 495.791 388.129 497.099C388.129 498.407 388.391 499.4 388.915 500.079ZM403.202 500.838C402.468 501.704 401.505 502.137 400.311 502.137C399.117 502.137 398.153 501.704 397.419 500.838C396.685 499.972 396.318 498.728 396.318 497.105C396.318 495.479 396.685 494.232 397.419 493.366C398.153 492.496 399.117 492.061 400.311 492.061C401.505 492.061 402.468 492.496 403.202 493.366C403.936 494.232 404.303 495.479 404.303 497.105C404.303 498.728 403.936 499.972 403.202 500.838ZM398.294 500.079C398.818 500.754 399.49 501.091 400.311 501.091C401.131 501.091 401.803 500.754 402.327 500.079C402.851 499.4 403.113 498.407 403.113 497.099C403.113 495.791 402.851 494.799 402.327 494.125C401.803 493.451 401.131 493.113 400.311 493.113C399.49 493.113 398.818 493.451 398.294 494.125C397.77 494.799 397.508 495.791 397.508 497.099C397.508 498.407 397.77 499.4 398.294 500.079Z" fill="white"/>
<path d="M319.346 543L319.346 533.197H323.126C324.069 533.197 324.819 533.468 325.375 534.011C325.931 534.553 326.209 535.262 326.209 536.137C326.209 537.035 325.94 537.729 325.402 538.222C324.865 538.709 324.245 538.996 323.543 539.083L326.346 543H325.02L322.217 539.083H320.535L320.535 543H319.346ZM320.535 538.03H323.058C323.673 538.03 324.154 537.857 324.5 537.511C324.846 537.164 325.02 536.709 325.02 536.144C325.02 535.574 324.846 535.116 324.5 534.77C324.154 534.423 323.673 534.25 323.058 534.25H320.535L320.535 538.03ZM328.021 545.803L328.021 535.72H328.861L329.005 536.697H329.073C329.597 535.95 330.39 535.578 331.452 535.583C332.386 535.583 333.145 535.913 333.729 536.574C334.312 537.235 334.604 538.165 334.604 539.363C334.604 540.557 334.312 541.485 333.729 542.146C333.145 542.806 332.386 543.137 331.452 543.137C330.454 543.137 329.684 542.788 329.142 542.091H329.073L329.073 545.803H328.021ZM329.682 541.435C330.087 541.918 330.63 542.159 331.309 542.159C331.992 542.159 332.537 541.918 332.942 541.435C333.348 540.947 333.551 540.257 333.551 539.363C333.551 538.465 333.348 537.775 332.942 537.292C332.537 536.804 331.992 536.561 331.309 536.561C330.63 536.561 330.087 536.804 329.682 537.292C329.276 537.775 329.073 538.465 329.073 539.363C329.073 540.257 329.276 540.947 329.682 541.435ZM340.619 543L340.619 535.508H338.726L338.726 534.462H340.059C340.432 534.462 340.619 534.275 340.619 533.901L340.619 533.197H341.809L341.809 543H340.619ZM345.076 542.843C344.921 542.993 344.741 543.068 344.536 543.068C344.331 543.068 344.151 542.993 343.996 542.843C343.846 542.688 343.771 542.508 343.771 542.303C343.771 542.098 343.846 541.918 343.996 541.763C344.151 541.608 344.331 541.53 344.536 541.53C344.741 541.53 344.921 541.608 345.076 541.763C345.231 541.918 345.309 542.098 345.309 542.303C345.309 542.508 345.231 542.688 345.076 542.843ZM353.655 541.838C352.922 542.704 351.958 543.137 350.764 543.137C349.57 543.137 348.606 542.704 347.872 541.838C347.138 540.972 346.771 539.728 346.771 538.105C346.771 536.479 347.138 535.232 347.872 534.366C348.606 533.496 349.57 533.061 350.764 533.061C351.958 533.061 352.922 533.496 353.655 534.366C354.389 535.232 354.756 536.479 354.756 538.105C354.756 539.728 354.389 540.972 353.655 541.838ZM348.747 541.079C349.271 541.754 349.943 542.091 350.764 542.091C351.584 542.091 352.256 541.754 352.78 541.079C353.304 540.4 353.566 539.407 353.566 538.099C353.566 536.791 353.304 535.799 352.78 535.125C352.256 534.451 351.584 534.113 350.764 534.113C349.943 534.113 349.271 534.451 348.747 535.125C348.223 535.799 347.961 536.791 347.961 538.099C347.961 539.407 348.223 540.4 348.747 541.079ZM363.034 541.838C362.3 542.704 361.337 543.137 360.143 543.137C358.949 543.137 357.985 542.704 357.251 541.838C356.517 540.972 356.15 539.728 356.15 538.105C356.15 536.479 356.517 535.232 357.251 534.366C357.985 533.496 358.949 533.061 360.143 533.061C361.337 533.061 362.3 533.496 363.034 534.366C363.768 535.232 364.135 536.479 364.135 538.105C364.135 539.728 363.768 540.972 363.034 541.838ZM358.126 541.079C358.65 541.754 359.322 542.091 360.143 542.091C360.963 542.091 361.635 541.754 362.159 541.079C362.683 540.4 362.945 539.407 362.945 538.099C362.945 536.791 362.683 535.799 362.159 535.125C361.635 534.451 360.963 534.113 360.143 534.113C359.322 534.113 358.65 534.451 358.126 535.125C357.602 535.799 357.34 536.791 357.34 538.099C357.34 539.407 357.602 540.4 358.126 541.079ZM372.413 541.838C371.679 542.704 370.715 543.137 369.521 543.137C368.327 543.137 367.364 542.704 366.63 541.838C365.896 540.972 365.529 539.728 365.529 538.105C365.529 536.479 365.896 535.232 366.63 534.366C367.364 533.496 368.327 533.061 369.521 533.061C370.715 533.061 371.679 533.496 372.413 534.366C373.147 535.232 373.514 536.479 373.514 538.105C373.514 539.728 373.147 540.972 372.413 541.838ZM367.505 541.079C368.029 541.754 368.701 542.091 369.521 542.091C370.342 542.091 371.014 541.754 371.538 541.079C372.062 540.4 372.324 539.407 372.324 538.099C372.324 536.791 372.062 535.799 371.538 535.125C371.014 534.451 370.342 534.113 369.521 534.113C368.701 534.113 368.029 534.451 367.505 535.125C366.981 535.799 366.719 536.791 366.719 538.099C366.719 539.407 366.981 540.4 367.505 541.079ZM375.865 542.843C375.71 542.993 375.53 543.068 375.325 543.068C375.12 543.068 374.94 542.993 374.785 542.843C374.635 542.688 374.56 542.508 374.56 542.303C374.56 542.098 374.635 541.918 374.785 541.763C374.94 541.608 375.12 541.53 375.325 541.53C375.53 541.53 375.71 541.608 375.865 541.763C376.02 541.918 376.098 542.098 376.098 542.303C376.098 542.508 376.02 542.688 375.865 542.843ZM384.444 541.838C383.711 542.704 382.747 543.137 381.553 543.137C380.359 543.137 379.395 542.704 378.661 541.838C377.927 540.972 377.561 539.728 377.561 538.105C377.561 536.479 377.927 535.232 378.661 534.366C379.395 533.496 380.359 533.061 381.553 533.061C382.747 533.061 383.711 533.496 384.444 534.366C385.178 535.232 385.545 536.479 385.545 538.105C385.545 539.728 385.178 540.972 384.444 541.838ZM379.536 541.079C380.06 541.754 380.732 542.091 381.553 542.091C382.373 542.091 383.045 541.754 383.569 541.079C384.093 540.4 384.355 539.407 384.355 538.099C384.355 536.791 384.093 535.799 383.569 535.125C383.045 534.451 382.373 534.113 381.553 534.113C380.732 534.113 380.06 534.451 379.536 535.125C379.012 535.799 378.75 536.791 378.75 538.099C378.75 539.407 379.012 540.4 379.536 541.079ZM393.823 541.838C393.09 542.704 392.126 543.137 390.932 543.137C389.738 543.137 388.774 542.704 388.04 541.838C387.306 540.972 386.939 539.728 386.939 538.105C386.939 536.479 387.306 535.232 388.04 534.366C388.774 533.496 389.738 533.061 390.932 533.061C392.126 533.061 393.09 533.496 393.823 534.366C394.557 535.232 394.924 536.479 394.924 538.105C394.924 539.728 394.557 540.972 393.823 541.838ZM388.915 541.079C389.439 541.754 390.111 542.091 390.932 542.091C391.752 542.091 392.424 541.754 392.948 541.079C393.472 540.4 393.734 539.407 393.734 538.099C393.734 536.791 393.472 535.799 392.948 535.125C392.424 534.451 391.752 534.113 390.932 534.113C390.111 534.113 389.439 534.451 388.915 535.125C388.391 535.799 388.129 536.791 388.129 538.099C388.129 539.407 388.391 540.4 388.915 541.079ZM403.202 541.838C402.468 542.704 401.505 543.137 400.311 543.137C399.117 543.137 398.153 542.704 397.419 541.838C396.685 540.972 396.318 539.728 396.318 538.105C396.318 536.479 396.685 535.232 397.419 534.366C398.153 533.496 399.117 533.061 400.311 533.061C401.505 533.061 402.468 533.496 403.202 534.366C403.936 535.232 404.303 536.479 404.303 538.105C404.303 539.728 403.936 540.972 403.202 541.838ZM398.294 541.079C398.818 541.754 399.49 542.091 400.311 542.091C401.131 542.091 401.803 541.754 402.327 541.079C402.851 540.4 403.113 539.407 403.113 538.099C403.113 536.791 402.851 535.799 402.327 535.125C401.803 534.451 401.131 534.113 400.311 534.113C399.49 534.113 398.818 534.451 398.294 535.125C397.77 535.799 397.508 536.791 397.508 538.099C397.508 539.407 397.77 540.4 398.294 541.079Z" fill="white"/>
<path d="M328.369 588L328.369 578.197H332.149C333.093 578.197 333.842 578.468 334.398 579.011C334.954 579.553 335.232 580.262 335.232 581.137C335.232 582.035 334.964 582.729 334.426 583.222C333.888 583.709 333.268 583.996 332.566 584.083L335.369 588H334.043L331.24 584.083H329.559L329.559 588H328.369ZM329.559 583.03H332.081C332.696 583.03 333.177 582.857 333.523 582.511C333.87 582.164 334.043 581.709 334.043 581.144C334.043 580.574 333.87 580.116 333.523 579.77C333.177 579.423 332.696 579.25 332.081 579.25H329.559L329.559 583.03ZM337.044 590.803L337.044 580.72H337.885L338.028 581.697H338.097C338.621 580.95 339.414 580.578 340.476 580.583C341.41 580.583 342.169 580.913 342.752 581.574C343.335 582.235 343.627 583.165 343.627 584.363C343.627 585.557 343.335 586.485 342.752 587.146C342.169 587.806 341.41 588.137 340.476 588.137C339.478 588.137 338.707 587.788 338.165 587.091H338.097L338.097 590.803H337.044ZM338.705 586.435C339.111 586.918 339.653 587.159 340.332 587.159C341.016 587.159 341.56 586.918 341.966 586.435C342.371 585.947 342.574 585.257 342.574 584.363C342.574 583.465 342.371 582.775 341.966 582.292C341.56 581.804 341.016 581.561 340.332 581.561C339.653 581.561 339.111 581.804 338.705 582.292C338.299 582.775 338.097 583.465 338.097 584.363C338.097 585.257 338.299 585.947 338.705 586.435ZM351.393 588.137C350.563 588.137 349.836 587.895 349.212 587.412C348.592 586.924 348.198 586.257 348.029 585.409H349.219C349.36 585.906 349.629 586.312 350.025 586.626C350.422 586.936 350.878 587.091 351.393 587.091C352.085 587.091 352.632 586.886 353.033 586.476C353.434 586.065 353.635 585.523 353.635 584.849C353.635 584.165 353.432 583.609 353.026 583.181C352.625 582.752 352.081 582.538 351.393 582.538C350.581 582.538 349.905 582.889 349.362 583.591H348.241L348.733 578.197H354.264L354.264 579.25H349.779L349.499 582.189H349.574C350.107 581.725 350.784 581.492 351.604 581.492C352.539 581.492 353.309 581.813 353.915 582.456C354.521 583.099 354.824 583.896 354.824 584.849C354.824 585.838 354.512 586.633 353.888 587.234C353.268 587.836 352.436 588.137 351.393 588.137ZM363.034 586.838C362.3 587.704 361.337 588.137 360.143 588.137C358.949 588.137 357.985 587.704 357.251 586.838C356.517 585.972 356.15 584.728 356.15 583.105C356.15 581.479 356.517 580.232 357.251 579.366C357.985 578.496 358.949 578.061 360.143 578.061C361.337 578.061 362.3 578.496 363.034 579.366C363.768 580.232 364.135 581.479 364.135 583.105C364.135 584.728 363.768 585.972 363.034 586.838ZM358.126 586.079C358.65 586.754 359.322 587.091 360.143 587.091C360.963 587.091 361.635 586.754 362.159 586.079C362.683 585.4 362.945 584.407 362.945 583.099C362.945 581.791 362.683 580.799 362.159 580.125C361.635 579.451 360.963 579.113 360.143 579.113C359.322 579.113 358.65 579.451 358.126 580.125C357.602 580.799 357.34 581.791 357.34 583.099C357.34 584.407 357.602 585.4 358.126 586.079ZM372.413 586.838C371.679 587.704 370.715 588.137 369.521 588.137C368.327 588.137 367.364 587.704 366.63 586.838C365.896 585.972 365.529 584.728 365.529 583.105C365.529 581.479 365.896 580.232 366.63 579.366C367.364 578.496 368.327 578.061 369.521 578.061C370.715 578.061 371.679 578.496 372.413 579.366C373.147 580.232 373.514 581.479 373.514 583.105C373.514 584.728 373.147 585.972 372.413 586.838ZM367.505 586.079C368.029 586.754 368.701 587.091 369.521 587.091C370.342 587.091 371.014 586.754 371.538 586.079C372.062 585.4 372.324 584.407 372.324 583.099C372.324 581.791 372.062 580.799 371.538 580.125C371.014 579.451 370.342 579.113 369.521 579.113C368.701 579.113 368.029 579.451 367.505 580.125C366.981 580.799 366.719 581.791 366.719 583.099C366.719 584.407 366.981 585.4 367.505 586.079ZM375.865 587.843C375.71 587.993 375.53 588.068 375.325 588.068C375.12 588.068 374.94 587.993 374.785 587.843C374.635 587.688 374.56 587.508 374.56 587.303C374.56 587.098 374.635 586.918 374.785 586.763C374.94 586.608 375.12 586.53 375.325 586.53C375.53 586.53 375.71 586.608 375.865 586.763C376.02 586.918 376.098 587.098 376.098 587.303C376.098 587.508 376.02 587.688 375.865 587.843ZM384.444 586.838C383.711 587.704 382.747 588.137 381.553 588.137C380.359 588.137 379.395 587.704 378.661 586.838C377.927 585.972 377.561 584.728 377.561 583.105C377.561 581.479 377.927 580.232 378.661 579.366C379.395 578.496 380.359 578.061 381.553 578.061C382.747 578.061 383.711 578.496 384.444 579.366C385.178 580.232 385.545 581.479 385.545 583.105C385.545 584.728 385.178 585.972 384.444 586.838ZM379.536 586.079C380.06 586.754 380.732 587.091 381.553 587.091C382.373 587.091 383.045 586.754 383.569 586.079C384.093 585.4 384.355 584.407 384.355 583.099C384.355 581.791 384.093 580.799 383.569 580.125C383.045 579.451 382.373 579.113 381.553 579.113C380.732 579.113 380.06 579.451 379.536 580.125C379.012 580.799 378.75 581.791 378.75 583.099C378.75 584.407 379.012 585.4 379.536 586.079ZM393.823 586.838C393.09 587.704 392.126 588.137 390.932 588.137C389.738 588.137 388.774 587.704 388.04 586.838C387.306 585.972 386.939 584.728 386.939 583.105C386.939 581.479 387.306 580.232 388.04 579.366C388.774 578.496 389.738 578.061 390.932 578.061C392.126 578.061 393.09 578.496 393.823 579.366C394.557 580.232 394.924 581.479 394.924 583.105C394.924 584.728 394.557 585.972 393.823 586.838ZM388.915 586.079C389.439 586.754 390.111 587.091 390.932 587.091C391.752 587.091 392.424 586.754 392.948 586.079C393.472 585.4 393.734 584.407 393.734 583.099C393.734 581.791 393.472 580.799 392.948 580.125C392.424 579.451 391.752 579.113 390.932 579.113C390.111 579.113 389.439 579.451 388.915 580.125C388.391 580.799 388.129 581.791 388.129 583.099C388.129 584.407 388.391 585.4 388.915 586.079ZM403.202 586.838C402.468 587.704 401.505 588.137 400.311 588.137C399.117 588.137 398.153 587.704 397.419 586.838C396.685 585.972 396.318 584.728 396.318 583.105C396.318 581.479 396.685 580.232 397.419 579.366C398.153 578.496 399.117 578.061 400.311 578.061C401.505 578.061 402.468 578.496 403.202 579.366C403.936 580.232 404.303 581.479 404.303 583.105C404.303 584.728 403.936 585.972 403.202 586.838ZM398.294 586.079C398.818 586.754 399.49 587.091 400.311 587.091C401.131 587.091 401.803 586.754 402.327 586.079C402.851 585.4 403.113 584.407 403.113 583.099C403.113 581.791 402.851 580.799 402.327 580.125C401.803 579.451 401.131 579.113 400.311 579.113C399.49 579.113 398.818 579.451 398.294 580.125C397.77 580.799 397.508 581.791 397.508 583.099C397.508 584.407 397.77 585.4 398.294 586.079Z" fill="white"/>
<rect x="71" y="486" width="20" height="21" rx="8" fill="#FFD9E3"/>
<rect x="71" y="528" width="20" height="21" rx="8" fill="#D6E3FF"/>
<rect x="71" y="570" width="20" height="21" rx="8" fill="#8AF2FF"/>
<rect x="46.5" y="460.5" width="408" height="165" rx="9.5" stroke="black"/>
</g>
<circle cx="250" cy="300" r="100" fill="#FFD9E3"/>
<path d="M350 300C350 276.1 341.44 252.991 325.871 234.858C310.303 216.725 288.754 204.767 265.129 201.151L250 300H350Z" fill="#8AF2FF"/>
<path d="M350 300C350 281.907 345.091 264.153 335.797 248.63C326.503 233.107 313.171 220.396 297.222 211.852L250 300H350Z" fill="#D6E3FF"/>
</g>
</g>
<defs>
<filter id="filter0_d_1319_4488" x="-8" y="23" width="517" height="666" filterUnits="userSpaceOnUse" color-interpolation-filters="sRGB">
<feFlood flood-opacity="0" result="BackgroundImageFix"/>
<feColorMatrix in="SourceAlpha" type="matrix" values="0 0 0 0 0 0 0 0 0 0 0 0 0 0 0 0 0 0 127 0" result="hardAlpha"/>
<feMorphology radius="8" operator="dilate" in="SourceAlpha" result="effect1_dropShadow_1319_4488"/>
<feOffset dy="9"/>
<feGaussianBlur stdDeviation="23"/>
<feComposite in2="hardAlpha" operator="out"/>
<feColorMatrix type="matrix" values="0 0 0 0 0 0 0 0 0 0 0 0 0 0 0 0 0 0 0.14 0"/>
<feBlend mode="normal" in2="BackgroundImageFix" result="effect1_dropShadow_1319_4488"/>
<feBlend mode="normal" in="SourceGraphic" in2="effect1_dropShadow_1319_4488" result="shape"/>
</filter>
<filter id="filter1_d_1319_4488" x="46" y="460" width="409" height="166" filterUnits="userSpaceOnUse" color-interpolation-filters="sRGB">
<feFlood flood-opacity="0" result="BackgroundImageFix"/>
<feColorMatrix in="SourceAlpha" type="matrix" values="0 0 0 0 0 0 0 0 0 0 0 0 0 0 0 0 0 0 127 0" result="hardAlpha"/>
<feOffset/>
<feColorMatrix type="matrix" values="0 0 0 0 0 0 0 0 0 0 0 0 0 0 0 0 0 0 1 0"/>
<feBlend mode="normal" in2="BackgroundImageFix" result="effect1_dropShadow_1319_4488"/>
<feBlend mode="normal" in="SourceGraphic" in2="effect1_dropShadow_1319_4488" result="shape"/>
</filter>
<clipPath id="clip0_1319_4488">
<rect width="501" height="694" rx="50" fill="white"/>
</clipPath>
</defs>
</svg>
