<svg width="260" height="226" viewBox="0 0 260 226" fill="none" xmlns="http://www.w3.org/2000/svg">
<g filter="url(#filter0_d_1329_3690)">
<rect x="54" y="45" width="152" height="118" rx="25" fill="#CCFF00"/>
<path d="M76.2749 138V128.197H78.5171L81.2856 135.833H81.3403L84.1157 128.197H86.3511V138H84.8813V130.091H84.813L81.9419 138H80.6841L77.813 130.091H77.7446V138H76.2749ZM93.9666 137.118C93.3423 137.797 92.5106 138.137 91.4715 138.137C90.437 138.137 89.6076 137.797 88.9832 137.118C88.3589 136.435 88.0467 135.491 88.0467 134.288C88.0467 133.085 88.3589 132.144 88.9832 131.465C89.6076 130.781 90.437 130.439 91.4715 130.439C92.5106 130.439 93.3423 130.781 93.9666 131.465C94.591 132.144 94.9031 133.085 94.9031 134.288C94.9031 135.491 94.591 136.435 93.9666 137.118ZM89.9539 136.216C90.3413 136.658 90.8472 136.879 91.4715 136.879C92.1004 136.879 92.6085 136.658 92.9959 136.216C93.3833 135.774 93.577 135.133 93.577 134.295C93.577 133.452 93.3833 132.809 92.9959 132.367C92.6085 131.921 92.1004 131.697 91.4715 131.697C90.8472 131.697 90.3413 131.921 89.9539 132.367C89.5666 132.809 89.3729 133.452 89.3729 134.295C89.3729 135.133 89.5666 135.774 89.9539 136.216ZM96.3937 138V130.583H97.4464L97.6515 131.561H97.7267C98.1186 130.909 98.7475 130.583 99.6134 130.583H100.454V131.841H99.6818C99.0939 131.841 98.6199 132.012 98.2599 132.354C97.9044 132.691 97.7267 133.126 97.7267 133.659V138H96.3937ZM104.112 138C103.524 138 103.05 137.818 102.69 137.453C102.33 137.089 102.15 136.617 102.15 136.038V131.841H100.96V130.583H102.15L102.362 128.621H103.483V130.583H105.301V131.841H103.483V135.901C103.483 136.152 103.549 136.355 103.681 136.51C103.818 136.665 104.007 136.742 104.249 136.742H105.301V138H104.112ZM109.8 140.803C108.961 140.803 108.252 140.6 107.674 140.194C107.095 139.793 106.682 139.226 106.436 138.492H107.838C108.116 139.194 108.77 139.543 109.8 139.538C110.415 139.538 110.896 139.39 111.242 139.094C111.588 138.802 111.762 138.367 111.762 137.788V136.599H111.686C111.19 137.25 110.444 137.578 109.451 137.583C108.517 137.583 107.758 137.271 107.175 136.646C106.591 136.018 106.3 135.143 106.3 134.021C106.3 132.891 106.591 132.012 107.175 131.383C107.758 130.754 108.517 130.439 109.451 130.439C109.934 130.439 110.376 130.544 110.777 130.754C111.178 130.964 111.506 131.232 111.762 131.561H111.83L112.042 130.583H113.088V137.788C113.088 138.741 112.801 139.481 112.226 140.01C111.652 140.538 110.843 140.803 109.8 140.803ZM109.656 136.318C110.271 136.318 110.775 136.113 111.167 135.703C111.563 135.293 111.762 134.732 111.762 134.021C111.762 133.301 111.566 132.734 111.174 132.319C110.782 131.905 110.276 131.697 109.656 131.697C109.05 131.697 108.56 131.905 108.186 132.319C107.813 132.729 107.626 133.297 107.626 134.021C107.626 134.742 107.813 135.304 108.186 135.71C108.56 136.116 109.05 136.318 109.656 136.318ZM117.231 136.947C117.846 136.947 118.338 136.779 118.707 136.441C119.076 136.1 119.261 135.662 119.261 135.129V134.712H117.299C116.816 134.712 116.449 134.812 116.198 135.013C115.952 135.213 115.829 135.487 115.829 135.833C115.829 136.175 115.952 136.446 116.198 136.646C116.449 136.847 116.793 136.947 117.231 136.947ZM117.019 138.137C116.271 138.137 115.665 137.913 115.2 137.467C114.736 137.02 114.503 136.476 114.503 135.833C114.503 135.172 114.749 134.623 115.241 134.186C115.738 133.743 116.424 133.522 117.299 133.522H119.261V133.167C119.261 132.711 119.115 132.354 118.823 132.094C118.536 131.829 118.144 131.697 117.648 131.697C117.247 131.697 116.921 131.784 116.67 131.957C116.419 132.13 116.255 132.349 116.178 132.613H114.783C114.925 131.998 115.257 131.483 115.781 131.068C116.31 130.649 116.932 130.439 117.648 130.439C118.573 130.439 119.295 130.69 119.815 131.191C120.334 131.688 120.594 132.347 120.594 133.167V138H119.473L119.329 137.091H119.261C119.101 137.36 118.819 137.601 118.413 137.815C118.008 138.03 117.543 138.137 117.019 138.137ZM125.509 140.803C124.671 140.803 123.962 140.6 123.383 140.194C122.805 139.793 122.392 139.226 122.146 138.492H123.547C123.825 139.194 124.479 139.543 125.509 139.538C126.125 139.538 126.605 139.39 126.952 139.094C127.298 138.802 127.471 138.367 127.471 137.788V136.599H127.396C126.899 137.25 126.154 137.578 125.161 137.583C124.226 137.583 123.468 137.271 122.884 136.646C122.301 136.018 122.009 135.143 122.009 134.021C122.009 132.891 122.301 132.012 122.884 131.383C123.468 130.754 124.226 130.439 125.161 130.439C125.644 130.439 126.086 130.544 126.487 130.754C126.888 130.964 127.216 131.232 127.471 131.561H127.54L127.751 130.583H128.797V137.788C128.797 138.741 128.51 139.481 127.936 140.01C127.362 140.538 126.553 140.803 125.509 140.803ZM125.366 136.318C125.981 136.318 126.485 136.113 126.876 135.703C127.273 135.293 127.471 134.732 127.471 134.021C127.471 133.301 127.275 132.734 126.883 132.319C126.491 131.905 125.986 131.697 125.366 131.697C124.76 131.697 124.27 131.905 123.896 132.319C123.522 132.729 123.335 133.297 123.335 134.021C123.335 134.742 123.522 135.304 123.896 135.71C124.27 136.116 124.76 136.318 125.366 136.318ZM133.781 138.137C132.719 138.137 131.869 137.797 131.231 137.118C130.598 136.435 130.281 135.491 130.281 134.288C130.281 133.085 130.593 132.144 131.218 131.465C131.842 130.781 132.674 130.439 133.713 130.439C134.765 130.439 135.599 130.795 136.215 131.506C136.83 132.212 137.138 133.023 137.138 133.939L137.069 134.712H131.669C131.705 135.405 131.915 135.94 132.298 136.318C132.681 136.692 133.175 136.879 133.781 136.879C134.547 136.879 135.13 136.576 135.531 135.97H137.001C136.75 136.621 136.345 137.146 135.784 137.542C135.223 137.938 134.556 138.137 133.781 138.137ZM131.669 133.591H135.77C135.688 132.994 135.465 132.529 135.1 132.196C134.736 131.864 134.273 131.697 133.713 131.697C133.152 131.697 132.69 131.864 132.325 132.196C131.96 132.529 131.742 132.994 131.669 133.591ZM144.87 138.137C143.808 138.137 142.958 137.797 142.32 137.118C141.686 136.435 141.37 135.491 141.37 134.288C141.37 133.085 141.686 132.144 142.32 131.465C142.953 130.781 143.803 130.439 144.87 130.439C145.653 130.439 146.321 130.642 146.873 131.048C147.424 131.453 147.807 131.998 148.021 132.682H146.62C146.255 132.03 145.672 131.702 144.87 131.697C144.227 131.697 143.703 131.925 143.297 132.381C142.896 132.832 142.696 133.47 142.696 134.295C142.696 135.115 142.896 135.751 143.297 136.202C143.703 136.653 144.227 136.879 144.87 136.879C145.672 136.879 146.255 136.553 146.62 135.901H148.021C147.807 136.585 147.424 137.13 146.873 137.535C146.321 137.936 145.653 138.137 144.87 138.137ZM155.001 137.118C154.376 137.797 153.545 138.137 152.506 138.137C151.471 138.137 150.642 137.797 150.017 137.118C149.393 136.435 149.081 135.491 149.081 134.288C149.081 133.085 149.393 132.144 150.017 131.465C150.642 130.781 151.471 130.439 152.506 130.439C153.545 130.439 154.376 130.781 155.001 131.465C155.625 132.144 155.937 133.085 155.937 134.288C155.937 135.491 155.625 136.435 155.001 137.118ZM150.988 136.216C151.375 136.658 151.881 136.879 152.506 136.879C153.135 136.879 153.643 136.658 154.03 136.216C154.417 135.774 154.611 135.133 154.611 134.295C154.611 133.452 154.417 132.809 154.03 132.367C153.643 131.921 153.135 131.697 152.506 131.697C151.881 131.697 151.375 131.921 150.988 132.367C150.601 132.809 150.407 133.452 150.407 134.295C150.407 135.133 150.601 135.774 150.988 136.216ZM157.428 138V130.583H158.481L158.686 131.561H158.761C159.217 130.813 159.916 130.439 160.86 130.439C161.671 130.439 162.327 130.715 162.828 131.267C163.334 131.818 163.587 132.545 163.587 133.447V138H162.261V133.522C162.261 132.944 162.106 132.495 161.796 132.176C161.491 131.857 161.085 131.697 160.579 131.697C160.064 131.697 159.631 131.877 159.28 132.237C158.934 132.597 158.761 133.026 158.761 133.522V138H157.428ZM167.88 138C167.292 138 166.819 137.818 166.459 137.453C166.098 137.089 165.918 136.617 165.918 136.038V131.841H164.729V130.583H165.918L166.13 128.621H167.251V130.583H169.07V131.841H167.251V135.901C167.251 136.152 167.318 136.355 167.45 136.51C167.586 136.665 167.776 136.742 168.017 136.742H169.07V138H167.88ZM170.554 138V130.583H171.606L171.811 131.561H171.887C172.278 130.909 172.907 130.583 173.773 130.583H174.614V131.841H173.842C173.254 131.841 172.78 132.012 172.42 132.354C172.064 132.691 171.887 133.126 171.887 133.659V138H170.554ZM181.033 137.118C180.409 137.797 179.577 138.137 178.538 138.137C177.504 138.137 176.674 137.797 176.05 137.118C175.426 136.435 175.113 135.491 175.113 134.288C175.113 133.085 175.426 132.144 176.05 131.465C176.674 130.781 177.504 130.439 178.538 130.439C179.577 130.439 180.409 130.781 181.033 131.465C181.658 132.144 181.97 133.085 181.97 134.288C181.97 135.491 181.658 136.435 181.033 137.118ZM177.021 136.216C177.408 136.658 177.914 136.879 178.538 136.879C179.167 136.879 179.675 136.658 180.063 136.216C180.45 135.774 180.644 135.133 180.644 134.295C180.644 133.452 180.45 132.809 180.063 132.367C179.675 131.921 179.167 131.697 178.538 131.697C177.914 131.697 177.408 131.921 177.021 132.367C176.633 132.809 176.44 133.452 176.44 134.295C176.44 135.133 176.633 135.774 177.021 136.216ZM183.529 138V128.197H184.862V138H183.529Z" fill="black"/>
<path d="M125.5 107.5V96.985C125.5 96.25 126.25 95.5 127 95.5H133C133.75 95.5 134.5 96.25 134.5 97V107.5C134.5 107.898 134.658 108.279 134.939 108.561C135.221 108.842 135.602 109 136 109H148C148.398 109 148.779 108.842 149.061 108.561C149.342 108.279 149.5 107.898 149.5 107.5V86.5C149.5 86.3029 149.462 86.1076 149.387 85.9254C149.312 85.7432 149.201 85.5776 149.062 85.438L145 81.379V71.5C145 71.1022 144.842 70.7206 144.561 70.4393C144.279 70.158 143.898 70 143.5 70H140.5C140.102 70 139.721 70.158 139.439 70.4393C139.158 70.7206 139 71.1022 139 71.5V75.379L131.062 67.438C130.923 67.2983 130.757 67.1875 130.575 67.1119C130.393 67.0362 130.197 66.9973 130 66.9973C129.803 66.9973 129.607 67.0362 129.425 67.1119C129.243 67.1875 129.077 67.2983 128.938 67.438L110.938 85.438C110.799 85.5776 110.688 85.7432 110.613 85.9254C110.538 86.1076 110.5 86.3029 110.5 86.5V107.5C110.5 107.898 110.658 108.279 110.939 108.561C111.221 108.842 111.602 109 112 109H124C124.398 109 124.779 108.842 125.061 108.561C125.342 108.279 125.5 107.898 125.5 107.5Z" fill="black"/>
</g>
<defs>
<filter id="filter0_d_1329_3690" x="0" y="0" width="260" height="226" filterUnits="userSpaceOnUse" color-interpolation-filters="sRGB">
<feFlood flood-opacity="0" result="BackgroundImageFix"/>
<feColorMatrix in="SourceAlpha" type="matrix" values="0 0 0 0 0 0 0 0 0 0 0 0 0 0 0 0 0 0 127 0" result="hardAlpha"/>
<feMorphology radius="8" operator="dilate" in="SourceAlpha" result="effect1_dropShadow_1329_3690"/>
<feOffset dy="9"/>
<feGaussianBlur stdDeviation="23"/>
<feComposite in2="hardAlpha" operator="out"/>
<feColorMatrix type="matrix" values="0 0 0 0 0 0 0 0 0 0 0 0 0 0 0 0 0 0 0.14 0"/>
<feBlend mode="normal" in2="BackgroundImageFix" result="effect1_dropShadow_1329_3690"/>
<feBlend mode="normal" in="SourceGraphic" in2="effect1_dropShadow_1329_3690" result="shape"/>
</filter>
</defs>
</svg>
