<svg width="64" height="64" viewBox="0 0 64 64" fill="none" xmlns="http://www.w3.org/2000/svg">
<g clip-path="url(#clip0_1393_3757)">
<path d="M62.4994 22.2999C64.1994 23.9999 64.4994 26.4999 63.2994 27.9999L33.6994 62.3999C31.8994 64.4999 28.7994 64.4999 26.6994 62.4999L1.49945 37.2999C-0.500553 35.2999 -0.500553 32.0999 1.59945 30.2999L35.8994 0.799881C37.3994 -0.500119 39.8994 -0.100119 41.5994 1.59988L62.4994 22.2999Z" fill="#AFCDDB"/>
<path d="M50.7992 10.6999L12.5992 48.3999L3.69922 39.4999L43.4992 3.3999L50.7992 10.6999Z" fill="#333333"/>
<path d="M49.4016 18.3L22.6016 45.8L29.8016 53L55.7016 24.6L49.4016 18.3Z" fill="white"/>
<path d="M34.1005 43.2999C32.6005 41.8999 33.5005 39.3 34.0005 37.9C34.9005 35.7 35.8005 39.8999 35.8005 40.5999C36.0005 42.6999 35.7005 44.9 35.2005 47C34.9005 48.2 34.5005 49.3 33.9005 50.4C33.6005 51.1 33.1005 51.6999 32.5005 52.0999C31.0005 52.9999 30.1005 52.0999 29.8005 49.5999C30.0005 48.7999 30.3005 48.1 30.9005 47.5C32.8005 45.1 35.8005 43.9999 38.0005 42.0999C38.2005 41.8999 37.9005 41.5999 37.7005 41.7999C35.1005 43.9999 29.7005 45.7999 29.4005 50.0999C29.2005 52.8999 32.1005 53.6 33.6005 52C35.6005 49.9 36.1005 46.2 36.3005 43.4C36.4005 41.8 36.8005 37.2 34.4005 36.7C34.3005 36.7 34.2005 36.6999 34.2005 36.7999C33.2005 38.4999 31.9005 41.9999 33.9005 43.7999C34.0005 43.8999 34.3005 43.4999 34.1005 43.2999Z" fill="#4F5B60"/>
<path d="M37.4023 41.7C39.5023 42.9 40.1023 38.2 39.8023 36.9C39.8023 36.7 39.5023 36.7 39.4023 36.8C38.3023 37.7 38.1023 40.1 39.0023 41.5C39.1023 41.7 39.3023 41.7 39.4023 41.5C40.1023 40.2 40.5023 38.9 41.0023 37.5C41.2023 36.9 41.7023 37.1 42.1023 36.7L44.5023 34.3C45.5023 33.3 45.8023 31.9 46.7023 30.9C47.9023 29.6 49.0023 29 49.6023 27.2C49.7023 26.8 49.7023 25.8 49.0023 25.8C47.6023 25.7 46.4023 28.6 48.3023 28.3C50.5023 28 52.5023 25.4 53.9023 24C54.1023 23.8 53.8023 23.5 53.6023 23.7C52.9023 24.4 52.1023 25.1 51.4023 25.7C50.8023 26.2 50.2023 26.7 49.5023 27.2C49.2023 27.4 46.6023 28.6 48.2023 26.7C48.5023 26.9 48.8023 27.1 49.1023 27.4C49.0023 27.6 48.9023 27.9 48.8023 28.1C48.6023 28.5 48.3023 28.9 48.0023 29.3C47.5023 30 46.6023 30.4 46.0023 31.1C45.2023 32 44.9023 33.2 44.1023 34.1C43.7023 34.5 41.8023 37 41.1023 36.7C41.0023 36.7 40.9023 36.7 40.9023 36.8C40.7023 37.5 40.5023 38.1 40.2023 38.8C40.1023 39 39.2023 40.9 39.2023 41C38.8023 40 38.9023 38.8 39.3023 37.9C39.6023 38.4 39.6023 39 39.4023 39.5C39.2023 40.7 38.6023 41.4 37.6023 41.6C37.3023 41.1 37.1023 41.5 37.4023 41.7Z" fill="#4F5B60"/>
</g>
<defs>
<clipPath id="clip0_1393_3757">
<rect width="64" height="64" fill="white"/>
</clipPath>
</defs>
</svg>
