<svg width="260" height="226" viewBox="0 0 260 226" fill="none" xmlns="http://www.w3.org/2000/svg">
<g filter="url(#filter0_d_1329_3694)">
<rect x="54" y="45" width="152" height="118" rx="25" fill="#E8B297"/>
<path d="M79.4194 136.824C78.6082 137.699 77.5213 138.137 76.1587 138.137C74.796 138.137 73.7068 137.697 72.8911 136.817C72.0799 135.933 71.6743 134.694 71.6743 133.099C71.6743 131.504 72.0822 130.266 72.8979 129.387C73.7182 128.503 74.8052 128.061 76.1587 128.061C77.5213 128.061 78.6082 128.503 79.4194 129.387C80.2306 130.266 80.6362 131.504 80.6362 133.099C80.6362 134.703 80.2306 135.945 79.4194 136.824ZM73.9712 135.854C74.5226 136.492 75.2495 136.811 76.1518 136.811C77.0587 136.811 77.7879 136.492 78.3393 135.854C78.8908 135.211 79.1665 134.293 79.1665 133.099C79.1665 131.905 78.8908 130.989 78.3393 130.351C77.7879 129.708 77.0587 129.387 76.1518 129.387C75.2495 129.387 74.5226 129.708 73.9712 130.351C73.4197 130.989 73.144 131.905 73.144 133.099C73.144 134.293 73.4197 135.211 73.9712 135.854ZM82.1951 138V130.583H83.2479L83.4529 131.561H83.5281C83.9839 130.813 84.6834 130.439 85.6268 130.439C86.438 130.439 87.0942 130.715 87.5955 131.267C88.1014 131.818 88.3543 132.545 88.3543 133.447V138H87.0281V133.522C87.0281 132.944 86.8732 132.495 86.5633 132.176C86.258 131.857 85.8524 131.697 85.3465 131.697C84.8315 131.697 84.3986 131.877 84.0477 132.237C83.7013 132.597 83.5281 133.026 83.5281 133.522V138H82.1951ZM93.2765 138.137C92.2147 138.137 91.3647 137.797 90.7267 137.118C90.0932 136.435 89.7765 135.491 89.7765 134.288C89.7765 133.085 90.0887 132.144 90.713 131.465C91.3374 130.781 92.1691 130.439 93.2082 130.439C94.2609 130.439 95.0949 130.795 95.7101 131.506C96.3253 132.212 96.633 133.023 96.633 133.939L96.5646 134.712H91.1642C91.2007 135.405 91.4103 135.94 91.7931 136.318C92.1759 136.692 92.6704 136.879 93.2765 136.879C94.0421 136.879 94.6255 136.576 95.0265 135.97H96.4962C96.2456 136.621 95.84 137.146 95.2794 137.542C94.7189 137.938 94.0513 138.137 93.2765 138.137ZM91.1642 133.591H95.2658C95.1837 132.994 94.9604 132.529 94.5959 132.196C94.2313 131.864 93.7687 131.697 93.2082 131.697C92.6476 131.697 92.185 131.864 91.8205 132.196C91.4559 132.529 91.2371 132.994 91.1642 133.591ZM97.7749 134.712V133.447H102.116V134.712H97.7749ZM106.047 138.137C105.263 138.137 104.6 137.936 104.057 137.535C103.515 137.134 103.173 136.612 103.032 135.97H104.502C104.689 136.576 105.204 136.879 106.047 136.879C106.58 136.879 106.981 136.792 107.25 136.619C107.519 136.446 107.653 136.229 107.653 135.97C107.653 135.719 107.546 135.519 107.332 135.368C107.118 135.218 106.849 135.113 106.525 135.054C106.206 134.994 105.86 134.915 105.486 134.814C105.112 134.71 104.764 134.591 104.44 134.459C104.117 134.327 103.848 134.104 103.634 133.789C103.419 133.47 103.312 133.078 103.312 132.613C103.312 131.998 103.552 131.483 104.03 131.068C104.513 130.649 105.16 130.439 105.972 130.439C106.728 130.439 107.373 130.626 107.906 131C108.439 131.374 108.774 131.864 108.911 132.47H107.441C107.181 131.955 106.692 131.697 105.972 131.697C105.083 131.697 104.641 132.003 104.645 132.613C104.645 132.864 104.752 133.067 104.967 133.222C105.181 133.372 105.447 133.479 105.766 133.543C106.09 133.602 106.439 133.687 106.812 133.796C107.186 133.901 107.532 134.019 107.851 134.151C108.175 134.279 108.444 134.5 108.658 134.814C108.877 135.129 108.986 135.514 108.986 135.97C108.986 136.585 108.724 137.1 108.2 137.515C107.68 137.929 106.963 138.137 106.047 138.137ZM112.856 138C112.268 138 111.794 137.818 111.434 137.453C111.074 137.089 110.894 136.617 110.894 136.038V131.841H109.704V130.583H110.894L111.106 128.621H112.227V130.583H114.045V131.841H112.227V135.901C112.227 136.152 112.293 136.355 112.425 136.51C112.562 136.665 112.751 136.742 112.992 136.742H114.045V138H112.856ZM120.963 137.118C120.339 137.797 119.507 138.137 118.468 138.137C117.434 138.137 116.604 137.797 115.98 137.118C115.356 136.435 115.043 135.491 115.043 134.288C115.043 133.085 115.356 132.144 115.98 131.465C116.604 130.781 117.434 130.439 118.468 130.439C119.507 130.439 120.339 130.781 120.963 131.465C121.588 132.144 121.9 133.085 121.9 134.288C121.9 135.491 121.588 136.435 120.963 137.118ZM116.951 136.216C117.338 136.658 117.844 136.879 118.468 136.879C119.097 136.879 119.605 136.658 119.993 136.216C120.38 135.774 120.574 135.133 120.574 134.295C120.574 133.452 120.38 132.809 119.993 132.367C119.605 131.921 119.097 131.697 118.468 131.697C117.844 131.697 117.338 131.921 116.951 132.367C116.563 132.809 116.37 133.452 116.37 134.295C116.37 135.133 116.563 135.774 116.951 136.216ZM123.39 140.803V130.583H124.443L124.648 131.561H124.723C125.302 130.813 126.072 130.439 127.034 130.439C127.977 130.439 128.736 130.777 129.31 131.451C129.889 132.121 130.179 133.069 130.179 134.295C130.179 135.516 129.889 136.462 129.31 137.132C128.732 137.802 127.973 138.137 127.034 138.137C126.063 138.137 125.316 137.788 124.792 137.091H124.723V140.803H123.39ZM126.822 136.879C127.437 136.879 127.93 136.66 128.299 136.223C128.668 135.785 128.852 135.143 128.852 134.295C128.852 133.443 128.668 132.798 128.299 132.36C127.93 131.918 127.437 131.697 126.822 131.697C126.198 131.697 125.692 131.921 125.305 132.367C124.917 132.809 124.723 133.452 124.723 134.295C124.723 135.133 124.917 135.774 125.305 136.216C125.692 136.658 126.198 136.879 126.822 136.879ZM134.964 138V128.197H138.745C139.715 128.197 140.506 128.493 141.117 129.086C141.727 129.678 142.033 130.433 142.033 131.349C142.033 132.265 141.727 133.019 141.117 133.611C140.506 134.204 139.715 134.5 138.745 134.5H136.434V138H134.964ZM136.434 133.167H138.676C139.264 133.167 139.724 133.005 140.057 132.682C140.394 132.354 140.563 131.909 140.563 131.349C140.563 130.788 140.394 130.346 140.057 130.022C139.724 129.694 139.264 129.53 138.676 129.53H136.434V133.167ZM145.335 136.947C145.95 136.947 146.442 136.779 146.811 136.441C147.181 136.1 147.365 135.662 147.365 135.129V134.712H145.403C144.92 134.712 144.553 134.812 144.303 135.013C144.056 135.213 143.933 135.487 143.933 135.833C143.933 136.175 144.056 136.446 144.303 136.646C144.553 136.847 144.897 136.947 145.335 136.947ZM145.123 138.137C144.375 138.137 143.769 137.913 143.305 137.467C142.84 137.02 142.607 136.476 142.607 135.833C142.607 135.172 142.853 134.623 143.346 134.186C143.842 133.743 144.528 133.522 145.403 133.522H147.365V133.167C147.365 132.711 147.219 132.354 146.928 132.094C146.64 131.829 146.249 131.697 145.752 131.697C145.351 131.697 145.025 131.784 144.774 131.957C144.524 132.13 144.36 132.349 144.282 132.613H142.888C143.029 131.998 143.362 131.483 143.886 131.068C144.414 130.649 145.036 130.439 145.752 130.439C146.677 130.439 147.399 130.69 147.919 131.191C148.438 131.688 148.698 132.347 148.698 133.167V138H147.577L147.433 137.091H147.365C147.206 137.36 146.923 137.601 146.517 137.815C146.112 138.03 145.647 138.137 145.123 138.137ZM151.303 140.803L152.424 138L149.416 130.583H150.818L153.053 136.25H153.128L155.363 130.583H156.765L152.704 140.803H151.303ZM157.695 138V130.583H158.748L158.953 131.561H159.028C159.502 130.813 160.131 130.439 160.915 130.439C161.42 130.439 161.851 130.562 162.207 130.809C162.567 131.05 162.835 131.371 163.013 131.772H163.088C163.303 131.371 163.61 131.05 164.011 130.809C164.412 130.562 164.875 130.439 165.399 130.439C166.155 130.439 166.775 130.711 167.258 131.253C167.741 131.795 167.983 132.527 167.983 133.447V138H166.657V133.522C166.657 132.944 166.515 132.495 166.233 132.176C165.955 131.857 165.584 131.697 165.119 131.697C164.681 131.697 164.303 131.866 163.984 132.203C163.665 132.54 163.505 132.98 163.505 133.522V138H162.172V133.522C162.172 132.944 162.033 132.495 161.755 132.176C161.477 131.857 161.104 131.697 160.634 131.697C160.197 131.697 159.819 131.866 159.5 132.203C159.185 132.54 159.028 132.98 159.028 133.522V138H157.695ZM172.905 138.137C171.843 138.137 170.993 137.797 170.355 137.118C169.722 136.435 169.405 135.491 169.405 134.288C169.405 133.085 169.717 132.144 170.342 131.465C170.966 130.781 171.798 130.439 172.837 130.439C173.889 130.439 174.723 130.795 175.339 131.506C175.954 132.212 176.262 133.023 176.262 133.939L176.193 134.712H170.793C170.829 135.405 171.039 135.94 171.422 136.318C171.805 136.692 172.299 136.879 172.905 136.879C173.671 136.879 174.254 136.576 174.655 135.97H176.125C175.874 136.621 175.469 137.146 174.908 137.542C174.348 137.938 173.68 138.137 172.905 138.137ZM170.793 133.591H174.894C174.812 132.994 174.589 132.529 174.224 132.196C173.86 131.864 173.397 131.697 172.837 131.697C172.276 131.697 171.814 131.864 171.449 132.196C171.084 132.529 170.866 132.994 170.793 133.591ZM177.752 138V130.583H178.805L179.01 131.561H179.085C179.541 130.813 180.24 130.439 181.184 130.439C181.995 130.439 182.651 130.715 183.153 131.267C183.658 131.818 183.911 132.545 183.911 133.447V138H182.585V133.522C182.585 132.944 182.43 132.495 182.12 132.176C181.815 131.857 181.409 131.697 180.904 131.697C180.389 131.697 179.956 131.877 179.605 132.237C179.258 132.597 179.085 133.026 179.085 133.522V138H177.752ZM188.205 138C187.617 138 187.143 137.818 186.783 137.453C186.423 137.089 186.243 136.617 186.243 136.038V131.841H185.053V130.583H186.243L186.455 128.621H187.576V130.583H189.394V131.841H187.576V135.901C187.576 136.152 187.642 136.355 187.774 136.51C187.911 136.665 188.1 136.742 188.341 136.742H189.394V138H188.205Z" fill="black"/>
<path d="M112 71H118V77H112V71Z" fill="black"/>
<path d="M124 65V83H106V65H124ZM121 68H109V80H121V68ZM118 101H112V107H118V101Z" fill="black"/>
<path d="M124 95V113H106V95H124ZM109 98V110H121V98H109ZM142 71H148V77H142V71Z" fill="black"/>
<path d="M136 65V83H154V65H136ZM151 68V80H139V68H151ZM130 68V65H133V71H130V77H127V68H130ZM130 83V77H133V83H130ZM124 89V86H127V83H130V89H133V86H148V89H136V92H127V89H124ZM124 89V92H112V89H109V92H106V86H115V89H124ZM154 92H151V86H154V92ZM151 92H148V98H154V95H151V92ZM139 92H145V95H142V98H139V92ZM145 101V98H142V101H139V104H133V107H142V101H145ZM145 101H154V104H148V107H145V101ZM133 98V101H136V95H127V98H133Z" fill="black"/>
<path d="M127 101H130V110H142V113H127V101ZM154 107V113H145V110H151V107H154Z" fill="black"/>
</g>
<defs>
<filter id="filter0_d_1329_3694" x="0" y="0" width="260" height="226" filterUnits="userSpaceOnUse" color-interpolation-filters="sRGB">
<feFlood flood-opacity="0" result="BackgroundImageFix"/>
<feColorMatrix in="SourceAlpha" type="matrix" values="0 0 0 0 0 0 0 0 0 0 0 0 0 0 0 0 0 0 127 0" result="hardAlpha"/>
<feMorphology radius="8" operator="dilate" in="SourceAlpha" result="effect1_dropShadow_1329_3694"/>
<feOffset dy="9"/>
<feGaussianBlur stdDeviation="23"/>
<feComposite in2="hardAlpha" operator="out"/>
<feColorMatrix type="matrix" values="0 0 0 0 0 0 0 0 0 0 0 0 0 0 0 0 0 0 0.14 0"/>
<feBlend mode="normal" in2="BackgroundImageFix" result="effect1_dropShadow_1329_3694"/>
<feBlend mode="normal" in="SourceGraphic" in2="effect1_dropShadow_1329_3694" result="shape"/>
</filter>
</defs>
</svg>
