<svg width="260" height="226" viewBox="0 0 260 226" fill="none" xmlns="http://www.w3.org/2000/svg">
<g filter="url(#filter0_d_1329_3675)">
<rect x="54" y="45" width="152" height="118" rx="25" fill="#8AF2FF"/>
<path d="M89.4549 138.137C88.4386 138.137 87.6001 137.891 86.9393 137.398C86.283 136.902 85.8843 136.216 85.743 135.341H87.2127C87.4907 136.321 88.2381 136.811 89.4549 136.811C90.1658 136.811 90.7059 136.674 91.075 136.4C91.4442 136.122 91.6287 135.746 91.6287 135.272C91.6287 134.963 91.5239 134.705 91.3143 134.5C91.1092 134.295 90.8403 134.142 90.5076 134.042C90.1795 133.937 89.8172 133.844 89.4207 133.762C89.0242 133.675 88.6278 133.57 88.2313 133.447C87.8348 133.32 87.4702 133.16 87.1375 132.969C86.8094 132.777 86.5405 132.497 86.3309 132.128C86.1258 131.759 86.0233 131.312 86.0233 130.788C86.0233 129.977 86.3332 129.321 86.9529 128.819C87.5773 128.313 88.4113 128.061 89.4549 128.061C90.4165 128.061 91.1958 128.286 91.7928 128.737C92.3898 129.184 92.7772 129.799 92.9549 130.583H91.4852C91.1662 129.79 90.4894 129.391 89.4549 129.387C88.8488 129.387 88.3703 129.521 88.0194 129.79C87.6684 130.054 87.493 130.387 87.493 130.788C87.493 131.116 87.5978 131.39 87.8074 131.608C88.0216 131.827 88.2928 131.996 88.6209 132.114C88.9536 132.228 89.3227 132.333 89.7283 132.429C90.1339 132.52 90.5373 132.629 90.9383 132.757C91.3393 132.884 91.7062 133.039 92.0389 133.222C92.3716 133.404 92.6427 133.668 92.8524 134.015C93.062 134.356 93.1668 134.776 93.1668 135.272C93.1668 136.075 92.8341 136.754 92.1688 137.31C91.508 137.861 90.6033 138.137 89.4549 138.137ZM96.8859 136.947C97.5011 136.947 97.9933 136.779 98.3625 136.441C98.7316 136.1 98.9162 135.662 98.9162 135.129V134.712H96.9543C96.4712 134.712 96.1043 134.812 95.8537 135.013C95.6076 135.213 95.4845 135.487 95.4845 135.833C95.4845 136.175 95.6076 136.446 95.8537 136.646C96.1043 136.847 96.4484 136.947 96.8859 136.947ZM96.674 138.137C95.9266 138.137 95.3205 137.913 94.8556 137.467C94.3908 137.02 94.1584 136.476 94.1584 135.833C94.1584 135.172 94.4044 134.623 94.8966 134.186C95.3934 133.743 96.0793 133.522 96.9543 133.522H98.9162V133.167C98.9162 132.711 98.7703 132.354 98.4787 132.094C98.1916 131.829 97.7996 131.697 97.3029 131.697C96.9018 131.697 96.576 131.784 96.3253 131.957C96.0747 132.13 95.9106 132.349 95.8332 132.613H94.4386C94.5799 131.998 94.9126 131.483 95.4367 131.068C95.9653 130.649 96.5874 130.439 97.3029 130.439C98.228 130.439 98.9503 130.69 99.4699 131.191C99.9894 131.688 100.249 132.347 100.249 133.167V138H99.1281L98.9845 137.091H98.9162C98.7567 137.36 98.4741 137.601 98.0685 137.815C97.6629 138.03 97.1981 138.137 96.674 138.137ZM103.77 138L100.967 130.583H102.369L104.536 136.462H104.604L106.778 130.583H108.179L105.376 138H103.77ZM109.096 138V130.583H110.429V138H109.096ZM109.765 129.742C109.506 129.742 109.294 129.66 109.13 129.496C108.966 129.332 108.884 129.125 108.884 128.874C108.884 128.614 108.966 128.402 109.13 128.238C109.294 128.074 109.506 127.992 109.765 127.992C110.016 127.992 110.223 128.074 110.388 128.238C110.552 128.398 110.634 128.61 110.634 128.874C110.634 129.125 110.552 129.332 110.388 129.496C110.223 129.66 110.016 129.742 109.765 129.742ZM112.254 138V130.583H113.307L113.512 131.561H113.587C114.043 130.813 114.742 130.439 115.686 130.439C116.497 130.439 117.153 130.715 117.654 131.267C118.16 131.818 118.413 132.545 118.413 133.447V138H117.087V133.522C117.087 132.944 116.932 132.495 116.622 132.176C116.317 131.857 115.911 131.697 115.405 131.697C114.89 131.697 114.458 131.877 114.107 132.237C113.76 132.597 113.587 133.026 113.587 133.522V138H112.254ZM123.335 140.803C122.497 140.803 121.788 140.6 121.209 140.194C120.631 139.793 120.218 139.226 119.972 138.492H121.374C121.652 139.194 122.305 139.543 123.335 139.538C123.951 139.538 124.431 139.39 124.778 139.094C125.124 138.802 125.297 138.367 125.297 137.788V136.599H125.222C124.725 137.25 123.98 137.578 122.987 137.583C122.053 137.583 121.294 137.271 120.71 136.646C120.127 136.018 119.835 135.143 119.835 134.021C119.835 132.891 120.127 132.012 120.71 131.383C121.294 130.754 122.053 130.439 122.987 130.439C123.47 130.439 123.912 130.544 124.313 130.754C124.714 130.964 125.042 131.232 125.297 131.561H125.366L125.578 130.583H126.624V137.788C126.624 138.741 126.336 139.481 125.762 140.01C125.188 140.538 124.379 140.803 123.335 140.803ZM123.192 136.318C123.807 136.318 124.311 136.113 124.703 135.703C125.099 135.293 125.297 134.732 125.297 134.021C125.297 133.301 125.101 132.734 124.709 132.319C124.318 131.905 123.812 131.697 123.192 131.697C122.586 131.697 122.096 131.905 121.722 132.319C121.348 132.729 121.162 133.297 121.162 134.021C121.162 134.742 121.348 135.304 121.722 135.71C122.096 136.116 122.586 136.318 123.192 136.318ZM134.697 138.137C133.636 138.137 132.786 137.797 132.148 137.118C131.514 136.435 131.197 135.491 131.197 134.288C131.197 133.085 131.514 132.144 132.148 131.465C132.781 130.781 133.631 130.439 134.697 130.439C135.481 130.439 136.149 130.642 136.7 131.048C137.252 131.453 137.635 131.998 137.849 132.682H136.447C136.083 132.03 135.5 131.702 134.697 131.697C134.055 131.697 133.531 131.925 133.125 132.381C132.724 132.832 132.524 133.47 132.524 134.295C132.524 135.115 132.724 135.751 133.125 136.202C133.531 136.653 134.055 136.879 134.697 136.879C135.5 136.879 136.083 136.553 136.447 135.901H137.849C137.635 136.585 137.252 137.13 136.7 137.535C136.149 137.936 135.481 138.137 134.697 138.137ZM144.829 137.118C144.204 137.797 143.373 138.137 142.333 138.137C141.299 138.137 140.47 137.797 139.845 137.118C139.221 136.435 138.909 135.491 138.909 134.288C138.909 133.085 139.221 132.144 139.845 131.465C140.47 130.781 141.299 130.439 142.333 130.439C143.373 130.439 144.204 130.781 144.829 131.465C145.453 132.144 145.765 133.085 145.765 134.288C145.765 135.491 145.453 136.435 144.829 137.118ZM140.816 136.216C141.203 136.658 141.709 136.879 142.333 136.879C142.962 136.879 143.471 136.658 143.858 136.216C144.245 135.774 144.439 135.133 144.439 134.295C144.439 133.452 144.245 132.809 143.858 132.367C143.471 131.921 142.962 131.697 142.333 131.697C141.709 131.697 141.203 131.921 140.816 132.367C140.429 132.809 140.235 133.452 140.235 134.295C140.235 135.133 140.429 135.774 140.816 136.216ZM147.256 138V130.583H148.308L148.514 131.561H148.589C149.044 130.813 149.744 130.439 150.687 130.439C151.499 130.439 152.155 130.715 152.656 131.267C153.162 131.818 153.415 132.545 153.415 133.447V138H152.089V133.522C152.089 132.944 151.934 132.495 151.624 132.176C151.319 131.857 150.913 131.697 150.407 131.697C149.892 131.697 149.459 131.877 149.108 132.237C148.762 132.597 148.589 133.026 148.589 133.522V138H147.256ZM157.708 138C157.12 138 156.646 137.818 156.286 137.453C155.926 137.089 155.746 136.617 155.746 136.038V131.841H154.557V130.583H155.746L155.958 128.621H157.079V130.583H158.898V131.841H157.079V135.901C157.079 136.152 157.145 136.355 157.278 136.51C157.414 136.665 157.603 136.742 157.845 136.742H158.898V138H157.708ZM160.381 138V130.583H161.434L161.639 131.561H161.714C162.106 130.909 162.735 130.583 163.601 130.583H164.442V131.841H163.669C163.082 131.841 162.608 132.012 162.248 132.354C161.892 132.691 161.714 133.126 161.714 133.659V138H160.381ZM170.861 137.118C170.237 137.797 169.405 138.137 168.366 138.137C167.332 138.137 166.502 137.797 165.878 137.118C165.253 136.435 164.941 135.491 164.941 134.288C164.941 133.085 165.253 132.144 165.878 131.465C166.502 130.781 167.332 130.439 168.366 130.439C169.405 130.439 170.237 130.781 170.861 131.465C171.486 132.144 171.798 133.085 171.798 134.288C171.798 135.491 171.486 136.435 170.861 137.118ZM166.848 136.216C167.236 136.658 167.742 136.879 168.366 136.879C168.995 136.879 169.503 136.658 169.89 136.216C170.278 135.774 170.472 135.133 170.472 134.295C170.472 133.452 170.278 132.809 169.89 132.367C169.503 131.921 168.995 131.697 168.366 131.697C167.742 131.697 167.236 131.921 166.848 132.367C166.461 132.809 166.267 133.452 166.267 134.295C166.267 135.133 166.461 135.774 166.848 136.216ZM173.357 138V128.197H174.69V138H173.357Z" fill="black"/>
<path d="M132.293 77.96C129.479 77.41 126.567 77.6499 123.88 78.6533C123.75 78.7049 123.631 78.7818 123.53 78.8794C123.429 78.9771 123.349 79.0936 123.293 79.2224C123.18 79.4824 123.176 79.7765 123.28 80.04C123.384 80.3034 123.589 80.5146 123.849 80.6271C124.109 80.7397 124.403 80.7443 124.667 80.64C126.98 79.7653 129.489 79.5439 131.92 80C132.063 80.0375 132.211 80.045 132.357 80.0222C132.502 79.9994 132.642 79.9466 132.766 79.8673C132.89 79.788 132.996 79.6838 133.078 79.5613C133.16 79.4389 133.216 79.3007 133.242 79.1557C133.268 79.0106 133.263 78.8618 133.229 78.7186C133.194 78.5753 133.13 78.4408 133.041 78.3234C132.952 78.2061 132.84 78.1085 132.711 78.0367C132.582 77.965 132.44 77.9207 132.293 77.9066V77.96Z" fill="black"/>
<path d="M139.841 88.0933C140.842 88.0933 141.654 87.2815 141.654 86.28C141.654 85.2785 140.842 84.4667 139.841 84.4667C138.839 84.4667 138.027 85.2785 138.027 86.28C138.027 87.2815 138.839 88.0933 139.841 88.0933Z" fill="black"/>
<path d="M153.346 88.84C153.223 88.6572 153.056 88.5079 152.86 88.4055C152.665 88.3031 152.447 88.2509 152.226 88.2534C151.149 88.1038 150.161 87.5742 149.44 86.76C148.052 85.2433 146.873 83.5484 145.933 81.72L149.773 75.72C150.006 75.3723 150.149 74.9721 150.188 74.5554C150.228 74.1387 150.163 73.7187 150 73.3334C149.836 72.9828 149.589 72.6778 149.279 72.4453C148.97 72.2128 148.608 72.0599 148.226 72C145.784 71.671 143.299 72.0168 141.04 73C139.745 73.5704 138.526 74.3005 137.413 75.1734C135.232 74.1955 132.91 73.5699 130.533 73.32C121.08 72.4 112.44 78.5334 111.333 86.6667C110.902 86.4727 110.515 86.1912 110.199 85.84C109.882 85.4888 109.641 85.0757 109.493 84.6267C109.398 84.3189 109.365 83.9951 109.397 83.6745C109.429 83.3539 109.525 83.043 109.68 82.76C109.818 82.5225 110.015 82.3249 110.253 82.1867C110.415 82.0887 110.556 81.9597 110.668 81.8071C110.78 81.6545 110.861 81.4814 110.906 81.2975C110.951 81.1136 110.96 80.9227 110.931 80.7355C110.903 80.5484 110.838 80.3687 110.74 80.2067C110.641 80.0447 110.512 79.9037 110.36 79.7916C110.207 79.6795 110.034 79.5985 109.85 79.5533C109.666 79.5081 109.475 79.4996 109.288 79.5282C109.101 79.5568 108.921 79.622 108.76 79.72C108.114 80.1162 107.581 80.6718 107.213 81.3334C106.87 81.9543 106.655 82.6373 106.579 83.3424C106.504 84.0475 106.569 84.7607 106.773 85.44C107.023 86.2633 107.438 87.0271 107.993 87.6849C108.548 88.3427 109.23 88.8809 110 89.2667L111.226 89.88C111.379 93.1257 112.206 96.3041 113.653 99.2134L113.88 99.72C115.036 102.166 116.511 104.448 118.266 106.507C118.391 106.649 118.545 106.763 118.717 106.841C118.89 106.919 119.077 106.96 119.266 106.96H125.293C125.511 106.959 125.726 106.904 125.918 106.801C126.111 106.697 126.274 106.548 126.396 106.366C126.517 106.185 126.591 105.976 126.613 105.759C126.635 105.541 126.602 105.322 126.52 105.12L126 103.92L127.573 104.093C129.346 104.269 131.133 104.269 132.906 104.093C133.4 104.893 133.933 105.693 134.52 106.48C134.642 106.648 134.803 106.785 134.988 106.88C135.173 106.975 135.378 107.025 135.586 107.027H141.373C141.593 107.027 141.81 106.972 142.003 106.868C142.197 106.763 142.362 106.613 142.484 106.429C142.605 106.246 142.679 106.035 142.699 105.816C142.72 105.597 142.685 105.376 142.6 105.173C142.373 104.64 142.146 104.067 141.973 103.573C141.733 102.867 141.546 102.24 141.4 101.64C142.872 100.845 144.223 99.8439 145.413 98.6667C146.741 98.8273 148.084 98.8273 149.413 98.6667C149.643 98.6319 149.861 98.5372 150.043 98.3921C150.226 98.2471 150.367 98.0567 150.453 97.84L153.466 90.0934C153.551 89.8907 153.584 89.6703 153.563 89.4517C153.542 89.233 153.468 89.0229 153.346 88.84ZM148.306 96.0934C147.259 96.153 146.209 96.1038 145.173 95.9467C143.992 95.7473 142.853 95.3554 141.8 94.7867C141.488 94.632 141.127 94.6055 140.796 94.7128C140.465 94.8202 140.189 95.0528 140.027 95.3611C139.865 95.6693 139.83 96.0287 139.929 96.3624C140.029 96.6961 140.255 96.9776 140.56 97.1467C141.117 97.4389 141.691 97.6971 142.28 97.92C141.552 98.5408 140.745 99.061 139.88 99.4667L138.466 100.107C138.466 100.107 139.12 103.027 139.56 104.32H136.386C136.066 103.867 134.453 101.173 134.453 101.173L133.56 101.293C131.683 101.564 129.782 101.618 127.893 101.453C127.013 101.373 125.546 101.187 124.4 100.987L122.333 100.627C122.333 100.627 123.173 103.867 123.333 104.28H119.893C118.488 102.559 117.297 100.675 116.346 98.6667L116.106 98.1467C114.374 94.812 113.642 91.0476 114 87.3067C114.72 80.3867 122.16 75.16 130.253 75.92C132.607 76.184 134.898 76.8515 137.026 77.8934L137.853 78.28L138.52 77.6534C139.558 76.7256 140.731 75.9613 142 75.3867C143.678 74.6589 145.511 74.361 147.333 74.52L142.826 81.5734L143.16 82.24C144.324 84.5855 145.809 86.7575 147.573 88.6934C148.392 89.4939 149.362 90.1238 150.426 90.5467L148.306 96.0934Z" fill="black"/>
</g>
<defs>
<filter id="filter0_d_1329_3675" x="0" y="0" width="260" height="226" filterUnits="userSpaceOnUse" color-interpolation-filters="sRGB">
<feFlood flood-opacity="0" result="BackgroundImageFix"/>
<feColorMatrix in="SourceAlpha" type="matrix" values="0 0 0 0 0 0 0 0 0 0 0 0 0 0 0 0 0 0 127 0" result="hardAlpha"/>
<feMorphology radius="8" operator="dilate" in="SourceAlpha" result="effect1_dropShadow_1329_3675"/>
<feOffset dy="9"/>
<feGaussianBlur stdDeviation="23"/>
<feComposite in2="hardAlpha" operator="out"/>
<feColorMatrix type="matrix" values="0 0 0 0 0 0 0 0 0 0 0 0 0 0 0 0 0 0 0.14 0"/>
<feBlend mode="normal" in2="BackgroundImageFix" result="effect1_dropShadow_1329_3675"/>
<feBlend mode="normal" in="SourceGraphic" in2="effect1_dropShadow_1329_3675" result="shape"/>
</filter>
</defs>
</svg>
