<svg width="502" height="694" viewBox="0 0 502 694" fill="none" xmlns="http://www.w3.org/2000/svg">
<g clip-path="url(#clip0_1319_4379)">
<rect x="0.5" width="501" height="694" rx="50" fill="#8AF2FF"/>
<g filter="url(#filter0_d_1319_4379)">
<rect x="46.5" y="68" width="409" height="558" rx="25" fill="white"/>
<path d="M69.5 112V105.52L63.6172 95.1953H65.7852L70.4609 103.598H70.5781L75.2656 95.1953H77.4219L71.5391 105.52V112H69.5ZM86.6328 110.535C85.5781 111.668 84.1836 112.234 82.4492 112.234C80.7227 112.234 79.332 111.668 78.2773 110.535C77.2227 109.402 76.6953 107.812 76.6953 105.766C76.6953 103.711 77.2227 102.117 78.2773 100.984C79.332 99.8516 80.7227 99.2852 82.4492 99.2852C84.1836 99.2852 85.5781 99.8516 86.6328 100.984C87.6875 102.117 88.2148 103.711 88.2148 105.766C88.2148 107.812 87.6875 109.402 86.6328 110.535ZM79.5898 109.305C80.3164 110.141 81.2695 110.559 82.4492 110.559C83.6367 110.559 84.5938 110.141 85.3203 109.305C86.0547 108.461 86.4219 107.281 86.4219 105.766C86.4219 104.242 86.0547 103.062 85.3203 102.227C84.5938 101.383 83.6367 100.961 82.4492 100.961C81.2695 100.961 80.3164 101.383 79.5898 102.227C78.8633 103.062 78.5 104.242 78.5 105.766C78.5 107.281 78.8633 108.461 79.5898 109.305ZM95.668 112.234C94.3242 112.234 93.207 111.777 92.3164 110.863C91.4258 109.941 90.9805 108.719 90.9805 107.195V99.5195H92.7852V107.195C92.7852 108.25 93.0703 109.074 93.6406 109.668C94.2188 110.262 94.9727 110.559 95.9023 110.559C96.8477 110.559 97.6445 110.227 98.293 109.562C98.9414 108.898 99.2656 108.109 99.2656 107.195V99.5195H101.07V112H99.6289L99.3828 110.324H99.2656C98.5156 111.598 97.3164 112.234 95.668 112.234ZM104.41 112V99.5195H105.852L106.098 101.195H106.215C106.887 100.078 108.008 99.5195 109.578 99.5195H110.891V101.195H109.578C108.617 101.195 107.816 101.492 107.176 102.086C106.535 102.68 106.215 103.426 106.215 104.324V112H104.41ZM121.449 112.234C120.215 112.234 119.164 111.918 118.297 111.285C117.438 110.645 116.891 109.805 116.656 108.766H118.578C118.758 109.344 119.109 109.789 119.633 110.102C120.156 110.406 120.762 110.559 121.449 110.559C122.426 110.559 123.168 110.383 123.676 110.031C124.191 109.68 124.449 109.215 124.449 108.637C124.449 108.16 124.266 107.773 123.898 107.477C123.531 107.18 123.07 106.973 122.516 106.855C121.969 106.73 121.375 106.582 120.734 106.41C120.094 106.23 119.496 106.039 118.941 105.836C118.395 105.625 117.934 105.258 117.559 104.734C117.191 104.203 117.008 103.547 117.008 102.766C117.008 101.82 117.414 101.004 118.227 100.316C119.047 99.6289 120.121 99.2852 121.449 99.2852C122.566 99.2852 123.547 99.5586 124.391 100.105C125.234 100.645 125.773 101.41 126.008 102.402H124.098C123.684 101.441 122.801 100.961 121.449 100.961C120.566 100.961 119.906 101.121 119.469 101.441C119.031 101.762 118.812 102.203 118.812 102.766C118.812 103.359 119.066 103.82 119.574 104.148C120.09 104.469 120.711 104.711 121.438 104.875C122.164 105.031 122.891 105.211 123.617 105.414C124.352 105.609 124.973 105.977 125.48 106.516C125.996 107.055 126.254 107.762 126.254 108.637C126.254 109.629 125.816 110.477 124.941 111.18C124.066 111.883 122.902 112.234 121.449 112.234ZM132.371 110.559C133.543 110.559 134.473 110.227 135.16 109.562C135.855 108.898 136.203 108.07 136.203 107.078V106.234H132.723C131.777 106.234 131.062 106.43 130.578 106.82C130.094 107.203 129.852 107.73 129.852 108.402C129.852 109.059 130.074 109.582 130.52 109.973C130.973 110.363 131.59 110.559 132.371 110.559ZM132.371 112.234C131.074 112.234 130.027 111.871 129.23 111.145C128.441 110.418 128.047 109.504 128.047 108.402C128.047 107.285 128.461 106.367 129.289 105.648C130.125 104.922 131.27 104.559 132.723 104.559H136.203V103.715C136.203 102.887 135.926 102.223 135.371 101.723C134.824 101.215 134.102 100.961 133.203 100.961C131.68 100.961 130.719 101.562 130.32 102.766H128.41C128.699 101.648 129.266 100.789 130.109 100.188C130.961 99.5859 131.992 99.2852 133.203 99.2852C134.688 99.2852 135.859 99.6875 136.719 100.492C137.578 101.297 138.008 102.371 138.008 103.715V112H136.566L136.32 110.324H136.203C135.93 110.801 135.441 111.238 134.738 111.637C134.043 112.035 133.254 112.234 132.371 112.234ZM144.359 112L139.438 99.5195H141.359L145.32 109.715H145.438L149.398 99.5195H151.32L146.398 112H144.359ZM153.113 112V99.5195H154.918V112H153.113ZM154.918 97.3516C154.676 97.5938 154.379 97.7148 154.027 97.7148C153.676 97.7148 153.375 97.5977 153.125 97.3633C152.883 97.1211 152.762 96.8242 152.762 96.4727C152.762 96.1211 152.883 95.8203 153.125 95.5703C153.375 95.3203 153.676 95.1953 154.027 95.1953C154.379 95.1953 154.676 95.3203 154.918 95.5703C155.16 95.8203 155.281 96.1211 155.281 96.4727C155.281 96.8086 155.16 97.1016 154.918 97.3516ZM158.27 112V99.5195H159.711L159.957 101.195H160.074C160.824 99.9141 162.023 99.2773 163.672 99.2852C165.016 99.2852 166.133 99.7461 167.023 100.668C167.914 101.582 168.359 102.801 168.359 104.324V112H166.555V104.324C166.555 103.27 166.266 102.445 165.688 101.852C165.109 101.258 164.359 100.961 163.438 100.961C162.492 100.961 161.695 101.293 161.047 101.957C160.398 102.621 160.074 103.41 160.074 104.324V112H158.27ZM176.75 116.805C175.438 116.805 174.289 116.488 173.305 115.855C172.32 115.223 171.629 114.297 171.23 113.078H173.141C173.766 114.438 174.969 115.117 176.75 115.117C177.867 115.117 178.766 114.832 179.445 114.262C180.125 113.699 180.465 112.867 180.465 111.766V109.598H180.348C179.48 110.715 178.16 111.277 176.387 111.285C174.785 111.285 173.484 110.754 172.484 109.691C171.484 108.621 170.984 107.152 170.984 105.285C170.984 103.41 171.484 101.941 172.484 100.879C173.484 99.8164 174.785 99.2852 176.387 99.2852C178.176 99.2852 179.535 99.8828 180.465 101.078H180.582L180.828 99.5195H182.27V111.766C182.27 113.352 181.766 114.586 180.758 115.469C179.75 116.359 178.414 116.805 176.75 116.805ZM173.832 108.461C174.527 109.219 175.457 109.598 176.621 109.598C177.793 109.598 178.727 109.219 179.422 108.461C180.117 107.703 180.465 106.645 180.465 105.285C180.465 103.918 180.117 102.855 179.422 102.098C178.727 101.34 177.793 100.961 176.621 100.961C175.457 100.961 174.527 101.34 173.832 102.098C173.137 102.855 172.789 103.918 172.789 105.285C172.789 106.645 173.137 107.703 173.832 108.461ZM194.504 110.559C195.676 110.559 196.605 110.227 197.293 109.562C197.988 108.898 198.336 108.07 198.336 107.078V106.234H194.855C193.91 106.234 193.195 106.43 192.711 106.82C192.227 107.203 191.984 107.73 191.984 108.402C191.984 109.059 192.207 109.582 192.652 109.973C193.105 110.363 193.723 110.559 194.504 110.559ZM194.504 112.234C193.207 112.234 192.16 111.871 191.363 111.145C190.574 110.418 190.18 109.504 190.18 108.402C190.18 107.285 190.594 106.367 191.422 105.648C192.258 104.922 193.402 104.559 194.855 104.559H198.336V103.715C198.336 102.887 198.059 102.223 197.504 101.723C196.957 101.215 196.234 100.961 195.336 100.961C193.812 100.961 192.852 101.562 192.453 102.766H190.543C190.832 101.648 191.398 100.789 192.242 100.188C193.094 99.5859 194.125 99.2852 195.336 99.2852C196.82 99.2852 197.992 99.6875 198.852 100.492C199.711 101.297 200.141 102.371 200.141 103.715V112H198.699L198.453 110.324H198.336C198.062 110.801 197.574 111.238 196.871 111.637C196.176 112.035 195.387 112.234 194.504 112.234ZM208.531 112.234C206.805 112.234 205.41 111.668 204.348 110.535C203.293 109.402 202.766 107.812 202.766 105.766C202.766 103.711 203.293 102.117 204.348 100.984C205.402 99.8516 206.797 99.2852 208.531 99.2852C209.75 99.2852 210.809 99.5859 211.707 100.188C212.613 100.781 213.273 101.641 213.688 102.766H211.766C211.047 101.562 209.969 100.961 208.531 100.961C207.344 100.961 206.387 101.383 205.66 102.227C204.934 103.062 204.57 104.242 204.57 105.766C204.57 107.281 204.934 108.461 205.66 109.305C206.387 110.141 207.344 110.559 208.531 110.559C209.969 110.559 211.047 109.961 211.766 108.766H213.688C213.273 109.883 212.613 110.742 211.707 111.344C210.809 111.938 209.75 112.234 208.531 112.234ZM221.375 112.234C219.648 112.234 218.254 111.668 217.191 110.535C216.137 109.402 215.609 107.812 215.609 105.766C215.609 103.711 216.137 102.117 217.191 100.984C218.246 99.8516 219.641 99.2852 221.375 99.2852C222.594 99.2852 223.652 99.5859 224.551 100.188C225.457 100.781 226.117 101.641 226.531 102.766H224.609C223.891 101.562 222.812 100.961 221.375 100.961C220.188 100.961 219.23 101.383 218.504 102.227C217.777 103.062 217.414 104.242 217.414 105.766C217.414 107.281 217.777 108.461 218.504 109.305C219.23 110.141 220.188 110.559 221.375 110.559C222.812 110.559 223.891 109.961 224.609 108.766H226.531C226.117 109.883 225.457 110.742 224.551 111.344C223.652 111.938 222.594 112.234 221.375 112.234ZM238.391 110.535C237.336 111.668 235.941 112.234 234.207 112.234C232.48 112.234 231.09 111.668 230.035 110.535C228.98 109.402 228.453 107.812 228.453 105.766C228.453 103.711 228.98 102.117 230.035 100.984C231.09 99.8516 232.48 99.2852 234.207 99.2852C235.941 99.2852 237.336 99.8516 238.391 100.984C239.445 102.117 239.973 103.711 239.973 105.766C239.973 107.812 239.445 109.402 238.391 110.535ZM231.348 109.305C232.074 110.141 233.027 110.559 234.207 110.559C235.395 110.559 236.352 110.141 237.078 109.305C237.812 108.461 238.18 107.281 238.18 105.766C238.18 104.242 237.812 103.062 237.078 102.227C236.352 101.383 235.395 100.961 234.207 100.961C233.027 100.961 232.074 101.383 231.348 102.227C230.621 103.062 230.258 104.242 230.258 105.766C230.258 107.281 230.621 108.461 231.348 109.305ZM247.426 112.234C246.082 112.234 244.965 111.777 244.074 110.863C243.184 109.941 242.738 108.719 242.738 107.195V99.5195H244.543V107.195C244.543 108.25 244.828 109.074 245.398 109.668C245.977 110.262 246.73 110.559 247.66 110.559C248.605 110.559 249.402 110.227 250.051 109.562C250.699 108.898 251.023 108.109 251.023 107.195V99.5195H252.828V112H251.387L251.141 110.324H251.023C250.273 111.598 249.074 112.234 247.426 112.234ZM256.168 112V99.5195H257.609L257.855 101.195H257.973C258.723 99.9141 259.922 99.2773 261.57 99.2852C262.914 99.2852 264.031 99.7461 264.922 100.668C265.812 101.582 266.258 102.801 266.258 104.324V112H264.453V104.324C264.453 103.27 264.164 102.445 263.586 101.852C263.008 101.258 262.258 100.961 261.336 100.961C260.391 100.961 259.594 101.293 258.945 101.957C258.297 102.621 257.973 103.41 257.973 104.324V112H256.168ZM273.441 112C272.543 112 271.797 111.703 271.203 111.109C270.617 110.516 270.324 109.773 270.324 108.883V101.195H268.402V99.5195H270.324L270.57 96.1562H272.129V99.5195H275.363V101.195H272.129V108.883C272.129 109.297 272.262 109.641 272.527 109.914C272.801 110.188 273.148 110.324 273.57 110.324H275.363V112H273.441Z" fill="#2C5EA8"/>
<path d="M65.1758 157V140.195H72.3828C74.0781 140.195 75.4414 140.699 76.4727 141.707C77.5039 142.715 78.0195 144.051 78.0195 145.715C78.0195 146.496 77.8984 147.215 77.6562 147.871C77.4219 148.52 77.1367 149.027 76.8008 149.395C76.4648 149.762 76.125 150.078 75.7812 150.344C75.4375 150.602 75.1445 150.773 74.9023 150.859L74.5391 151L78.6172 157H74.5391L70.6953 151.234H68.7852V157H65.1758ZM68.7852 148H72.1367C72.8086 148 73.3555 147.797 73.7773 147.391C74.207 146.984 74.4219 146.43 74.4219 145.727C74.4219 145.016 74.207 144.457 73.7773 144.051C73.3555 143.645 72.8086 143.441 72.1367 143.441H68.7852V148ZM80.668 161.805V144.285H83.5508L83.9023 145.715H84.0312C84.9922 144.598 86.1914 144.039 87.6289 144.039C89.293 144.039 90.6289 144.613 91.6367 145.762C92.6445 146.902 93.1484 148.531 93.1484 150.648C93.1484 152.758 92.6445 154.383 91.6367 155.523C90.6289 156.664 89.293 157.234 87.6289 157.234C86.1445 157.234 84.9844 156.715 84.1484 155.676H84.0312V161.805H80.668ZM84.8398 153.344C85.3867 153.938 86.0742 154.234 86.9023 154.234C87.7383 154.234 88.4258 153.938 88.9648 153.344C89.5117 152.742 89.7852 151.844 89.7852 150.648C89.7852 149.445 89.5117 148.543 88.9648 147.941C88.4258 147.34 87.7383 147.039 86.9023 147.039C86.0742 147.039 85.3867 147.34 84.8398 147.941C84.3008 148.543 84.0312 149.445 84.0312 150.648C84.0312 151.844 84.3008 152.742 84.8398 153.344ZM106.848 157.234C105.168 157.234 103.746 156.781 102.582 155.875C101.426 154.961 100.727 153.656 100.484 151.961H104.082C104.207 152.57 104.5 153.062 104.961 153.438C105.43 153.812 106.016 154 106.719 154C107.664 154 108.379 153.758 108.863 153.273C109.355 152.781 109.602 152.102 109.602 151.234C109.602 150.469 109.348 149.82 108.84 149.289C108.34 148.75 107.633 148.48 106.719 148.48C105.633 148.48 104.793 148.922 104.199 149.805H100.719L101.68 140.195H112.238V143.324H104.68L104.328 146.441H104.445C105.227 145.879 106.266 145.598 107.562 145.598C109.211 145.598 110.562 146.133 111.617 147.203C112.672 148.266 113.199 149.652 113.199 151.363C113.199 153.059 112.645 154.461 111.535 155.57C110.426 156.68 108.863 157.234 106.848 157.234ZM114.406 157V153.766L121.719 147.285C122.516 146.598 122.918 145.914 122.926 145.234C122.926 143.875 122.125 143.195 120.523 143.195C119.852 143.195 119.289 143.375 118.836 143.734C118.391 144.086 118.113 144.586 118.004 145.234H114.406C114.602 143.664 115.199 142.395 116.199 141.426C117.207 140.449 118.648 139.961 120.523 139.961C122.539 139.961 124.062 140.422 125.094 141.344C126.125 142.258 126.641 143.477 126.641 145C126.641 146.539 125.883 147.98 124.367 149.324L119.328 153.766H126.887V157H114.406ZM140.773 155.031C139.484 156.5 137.727 157.234 135.5 157.234C133.281 157.234 131.527 156.5 130.238 155.031C128.949 153.562 128.305 151.422 128.305 148.609C128.305 145.789 128.949 143.645 130.238 142.176C131.527 140.699 133.281 139.961 135.5 139.961C137.727 139.961 139.484 140.699 140.773 142.176C142.062 143.645 142.707 145.789 142.707 148.609C142.707 151.422 142.062 153.562 140.773 155.031ZM132.934 152.617C133.621 153.539 134.477 154 135.5 154C136.523 154 137.379 153.539 138.066 152.617C138.762 151.695 139.109 150.355 139.109 148.598C139.109 146.84 138.762 145.5 138.066 144.578C137.379 143.656 136.523 143.195 135.5 143.195C134.477 143.195 133.621 143.656 132.934 144.578C132.246 145.5 131.902 146.84 131.902 148.598C131.902 150.355 132.246 151.695 132.934 152.617ZM147.055 156.566C146.688 156.934 146.23 157.117 145.684 157.117C145.145 157.117 144.691 156.934 144.324 156.566C143.957 156.199 143.773 155.746 143.773 155.207C143.773 154.66 143.957 154.203 144.324 153.836C144.691 153.469 145.145 153.285 145.684 153.285C146.23 153.285 146.688 153.469 147.055 153.836C147.422 154.203 147.605 154.66 147.605 155.207C147.605 155.746 147.422 156.199 147.055 156.566ZM151.824 157L155.422 151.363H155.305C155.062 151.441 154.66 151.48 154.098 151.48C152.34 151.48 150.941 150.945 149.902 149.875C148.863 148.805 148.344 147.461 148.344 145.844C148.344 144.117 148.922 142.707 150.078 141.613C151.242 140.512 152.824 139.961 154.824 139.961C156.777 139.961 158.344 140.523 159.523 141.648C160.711 142.766 161.305 144.203 161.305 145.961C161.305 147.516 160.703 149.234 159.5 151.117L155.785 157H151.824ZM154.824 148.598C155.723 148.598 156.426 148.352 156.934 147.859C157.441 147.359 157.695 146.688 157.695 145.844C157.695 145.062 157.438 144.426 156.922 143.934C156.414 143.441 155.711 143.195 154.812 143.195C153.922 143.195 153.219 143.441 152.703 143.934C152.195 144.418 151.941 145.055 151.941 145.844C151.941 146.656 152.223 147.32 152.785 147.836C153.348 148.344 154.027 148.598 154.824 148.598ZM169.473 157.234C167.566 157.234 165.984 156.809 164.727 155.957C163.469 155.098 162.809 153.766 162.746 151.961H166.344C166.57 153.32 167.57 154 169.344 154C171.188 154 172.109 153.359 172.109 152.078C172.109 151.422 171.859 150.918 171.359 150.566C170.867 150.215 170.195 150.039 169.344 150.039H167.914V147.039H169.344C170.156 147.039 170.777 146.859 171.207 146.5C171.645 146.141 171.863 145.684 171.863 145.129C171.863 144.566 171.648 144.105 171.219 143.746C170.789 143.379 170.164 143.195 169.344 143.195C168.641 143.195 168.031 143.363 167.516 143.699C167.008 144.035 166.699 144.547 166.59 145.234H162.992C163.172 143.523 163.836 142.219 164.984 141.32C166.133 140.414 167.629 139.961 169.473 139.961C171.246 139.961 172.688 140.395 173.797 141.262C174.914 142.121 175.473 143.289 175.473 144.766C175.473 146.57 174.59 147.809 172.824 148.48C173.707 148.801 174.406 149.297 174.922 149.969C175.445 150.641 175.707 151.465 175.707 152.441C175.707 153.965 175.133 155.145 173.984 155.98C172.836 156.816 171.332 157.234 169.473 157.234ZM181.883 153.273C182.398 153.758 183.102 154 183.992 154C184.891 154 185.594 153.758 186.102 153.273C186.617 152.781 186.875 152.145 186.875 151.363C186.875 150.551 186.594 149.887 186.031 149.371C185.477 148.855 184.801 148.598 184.004 148.598C183.105 148.598 182.398 148.848 181.883 149.348C181.375 149.84 181.121 150.512 181.121 151.363C181.121 152.145 181.375 152.781 181.883 153.273ZM184.004 157.234C182.051 157.234 180.48 156.676 179.293 155.559C178.113 154.441 177.523 153 177.523 151.234C177.523 149.68 178.121 147.961 179.316 146.078L183.043 140.195H187.004L183.395 145.844H183.523C183.766 145.766 184.164 145.723 184.719 145.715C186.477 145.715 187.875 146.254 188.914 147.332C189.961 148.402 190.484 149.746 190.484 151.363C190.484 153.09 189.902 154.5 188.738 155.594C187.582 156.688 186.004 157.234 184.004 157.234ZM195.453 156.566C195.086 156.934 194.629 157.117 194.082 157.117C193.543 157.117 193.09 156.934 192.723 156.566C192.355 156.199 192.172 155.746 192.172 155.207C192.172 154.66 192.355 154.203 192.723 153.836C193.09 153.469 193.543 153.285 194.082 153.285C194.629 153.285 195.086 153.469 195.453 153.836C195.82 154.203 196.004 154.66 196.004 155.207C196.004 155.746 195.82 156.199 195.453 156.566ZM210.289 155.031C209 156.5 207.242 157.234 205.016 157.234C202.797 157.234 201.043 156.5 199.754 155.031C198.465 153.562 197.82 151.422 197.82 148.609C197.82 145.789 198.465 143.645 199.754 142.176C201.043 140.699 202.797 139.961 205.016 139.961C207.242 139.961 209 140.699 210.289 142.176C211.578 143.645 212.223 145.789 212.223 148.609C212.223 151.422 211.578 153.562 210.289 155.031ZM202.449 152.617C203.137 153.539 203.992 154 205.016 154C206.039 154 206.895 153.539 207.582 152.617C208.277 151.695 208.625 150.355 208.625 148.598C208.625 146.84 208.277 145.5 207.582 144.578C206.895 143.656 206.039 143.195 205.016 143.195C203.992 143.195 203.137 143.656 202.449 144.578C201.762 145.5 201.418 146.84 201.418 148.598C201.418 150.355 201.762 151.695 202.449 152.617ZM226.602 155.031C225.312 156.5 223.555 157.234 221.328 157.234C219.109 157.234 217.355 156.5 216.066 155.031C214.777 153.562 214.133 151.422 214.133 148.609C214.133 145.789 214.777 143.645 216.066 142.176C217.355 140.699 219.109 139.961 221.328 139.961C223.555 139.961 225.312 140.699 226.602 142.176C227.891 143.645 228.535 145.789 228.535 148.609C228.535 151.422 227.891 153.562 226.602 155.031ZM218.762 152.617C219.449 153.539 220.305 154 221.328 154C222.352 154 223.207 153.539 223.895 152.617C224.59 151.695 224.938 150.355 224.938 148.598C224.938 146.84 224.59 145.5 223.895 144.578C223.207 143.656 222.352 143.195 221.328 143.195C220.305 143.195 219.449 143.656 218.762 144.578C218.074 145.5 217.73 146.84 217.73 148.598C217.73 150.355 218.074 151.695 218.762 152.617ZM242.914 155.031C241.625 156.5 239.867 157.234 237.641 157.234C235.422 157.234 233.668 156.5 232.379 155.031C231.09 153.562 230.445 151.422 230.445 148.609C230.445 145.789 231.09 143.645 232.379 142.176C233.668 140.699 235.422 139.961 237.641 139.961C239.867 139.961 241.625 140.699 242.914 142.176C244.203 143.645 244.848 145.789 244.848 148.609C244.848 151.422 244.203 153.562 242.914 155.031ZM235.074 152.617C235.762 153.539 236.617 154 237.641 154C238.664 154 239.52 153.539 240.207 152.617C240.902 151.695 241.25 150.355 241.25 148.598C241.25 146.84 240.902 145.5 240.207 144.578C239.52 143.656 238.664 143.195 237.641 143.195C236.617 143.195 235.762 143.656 235.074 144.578C234.387 145.5 234.043 146.84 234.043 148.598C234.043 150.355 234.387 151.695 235.074 152.617Z" fill="#2C5EA8"/>
<path d="M357.675 141V131.197H359.008V141H357.675ZM366.473 140.118C365.848 140.797 365.017 141.137 363.978 141.137C362.943 141.137 362.114 140.797 361.489 140.118C360.865 139.435 360.553 138.491 360.553 137.288C360.553 136.085 360.865 135.144 361.489 134.465C362.114 133.781 362.943 133.439 363.978 133.439C365.017 133.439 365.848 133.781 366.473 134.465C367.097 135.144 367.409 136.085 367.409 137.288C367.409 138.491 367.097 139.435 366.473 140.118ZM362.46 139.216C362.847 139.658 363.353 139.879 363.978 139.879C364.606 139.879 365.115 139.658 365.502 139.216C365.889 138.774 366.083 138.133 366.083 137.295C366.083 136.452 365.889 135.809 365.502 135.367C365.115 134.921 364.606 134.697 363.978 134.697C363.353 134.697 362.847 134.921 362.46 135.367C362.073 135.809 361.879 136.452 361.879 137.295C361.879 138.133 362.073 138.774 362.46 139.216ZM372.037 143.803C371.199 143.803 370.49 143.6 369.911 143.194C369.332 142.793 368.92 142.226 368.674 141.492H370.075C370.353 142.194 371.007 142.543 372.037 142.538C372.652 142.538 373.133 142.39 373.479 142.094C373.826 141.802 373.999 141.367 373.999 140.788V139.599H373.924C373.427 140.25 372.682 140.578 371.688 140.583C370.754 140.583 369.995 140.271 369.412 139.646C368.829 139.018 368.537 138.143 368.537 137.021C368.537 135.891 368.829 135.012 369.412 134.383C369.995 133.754 370.754 133.439 371.688 133.439C372.172 133.439 372.614 133.544 373.015 133.754C373.416 133.964 373.744 134.232 373.999 134.561H374.067L374.279 133.583H375.325V140.788C375.325 141.741 375.038 142.481 374.464 143.01C373.89 143.538 373.081 143.803 372.037 143.803ZM371.894 139.318C372.509 139.318 373.012 139.113 373.404 138.703C373.801 138.293 373.999 137.732 373.999 137.021C373.999 136.301 373.803 135.734 373.411 135.319C373.019 134.905 372.513 134.697 371.894 134.697C371.287 134.697 370.798 134.905 370.424 135.319C370.05 135.729 369.863 136.297 369.863 137.021C369.863 137.742 370.05 138.304 370.424 138.71C370.798 139.116 371.287 139.318 371.894 139.318ZM382.715 140.118C382.09 140.797 381.259 141.137 380.22 141.137C379.185 141.137 378.356 140.797 377.731 140.118C377.107 139.435 376.795 138.491 376.795 137.288C376.795 136.085 377.107 135.144 377.731 134.465C378.356 133.781 379.185 133.439 380.22 133.439C381.259 133.439 382.09 133.781 382.715 134.465C383.339 135.144 383.651 136.085 383.651 137.288C383.651 138.491 383.339 139.435 382.715 140.118ZM378.702 139.216C379.09 139.658 379.595 139.879 380.22 139.879C380.849 139.879 381.357 139.658 381.744 139.216C382.132 138.774 382.325 138.133 382.325 137.295C382.325 136.452 382.132 135.809 381.744 135.367C381.357 134.921 380.849 134.697 380.22 134.697C379.595 134.697 379.09 134.921 378.702 135.367C378.315 135.809 378.121 136.452 378.121 137.295C378.121 138.133 378.315 138.774 378.702 139.216ZM391.704 139.879C392.319 139.879 392.812 139.66 393.181 139.223C393.55 138.785 393.734 138.143 393.734 137.295C393.734 136.443 393.55 135.798 393.181 135.36C392.812 134.918 392.319 134.697 391.704 134.697C391.08 134.697 390.574 134.921 390.187 135.367C389.799 135.809 389.605 136.452 389.605 137.295C389.605 138.133 389.799 138.774 390.187 139.216C390.574 139.658 391.08 139.879 391.704 139.879ZM391.916 141.137C390.954 141.137 390.184 140.765 389.605 140.022H389.537L389.325 141H388.272V131.197H389.605V134.492H389.674C390.198 133.79 390.945 133.439 391.916 133.439C392.859 133.439 393.62 133.777 394.199 134.451C394.778 135.121 395.067 136.069 395.067 137.295C395.067 138.516 394.778 139.462 394.199 140.132C393.62 140.802 392.859 141.137 391.916 141.137ZM398.841 139.947C399.456 139.947 399.948 139.779 400.317 139.441C400.687 139.1 400.871 138.662 400.871 138.129V137.712H398.909C398.426 137.712 398.059 137.812 397.809 138.013C397.562 138.213 397.439 138.487 397.439 138.833C397.439 139.175 397.562 139.446 397.809 139.646C398.059 139.847 398.403 139.947 398.841 139.947ZM398.629 141.137C397.882 141.137 397.275 140.913 396.811 140.467C396.346 140.02 396.113 139.476 396.113 138.833C396.113 138.172 396.359 137.623 396.852 137.186C397.348 136.743 398.034 136.522 398.909 136.522H400.871V136.167C400.871 135.711 400.725 135.354 400.434 135.094C400.146 134.829 399.755 134.697 399.258 134.697C398.857 134.697 398.531 134.784 398.28 134.957C398.03 135.13 397.866 135.349 397.788 135.613H396.394C396.535 134.998 396.868 134.483 397.392 134.068C397.92 133.649 398.542 133.439 399.258 133.439C400.183 133.439 400.905 133.69 401.425 134.191C401.944 134.688 402.204 135.347 402.204 136.167V141H401.083L400.939 140.091H400.871C400.712 140.36 400.429 140.601 400.023 140.815C399.618 141.03 399.153 141.137 398.629 141.137ZM403.954 141V133.583H405.007L405.212 134.561H405.287C405.743 133.813 406.442 133.439 407.386 133.439C408.197 133.439 408.853 133.715 409.354 134.267C409.86 134.818 410.113 135.545 410.113 136.447V141H408.787V136.522C408.787 135.944 408.632 135.495 408.322 135.176C408.017 134.857 407.611 134.697 407.105 134.697C406.59 134.697 406.158 134.877 405.807 135.237C405.46 135.597 405.287 136.026 405.287 136.522V141H403.954ZM411.938 141V131.197H413.271V137.008L416.491 133.583H418.173L414.741 137.22L418.378 141H416.703L413.271 137.432V141H411.938ZM422.322 140.802C422.154 140.979 421.935 141.068 421.666 141.068C421.397 141.068 421.178 140.979 421.01 140.802C420.841 140.624 420.757 140.41 420.757 140.159C420.757 139.909 420.841 139.694 421.01 139.517C421.178 139.339 421.397 139.25 421.666 139.25C421.935 139.25 422.154 139.339 422.322 139.517C422.491 139.694 422.575 139.909 422.575 140.159C422.575 140.41 422.491 140.624 422.322 140.802ZM420.894 138.061V137.432C420.894 136.994 420.971 136.616 421.126 136.297C421.281 135.978 421.468 135.727 421.687 135.545C421.905 135.363 422.124 135.192 422.343 135.032C422.562 134.868 422.748 134.674 422.903 134.451C423.058 134.223 423.136 133.957 423.136 133.651C423.136 133.259 422.997 132.94 422.719 132.694C422.445 132.444 422.072 132.318 421.598 132.318C421.16 132.318 420.8 132.455 420.518 132.729C420.24 132.997 420.062 133.351 419.984 133.788H418.583C418.688 132.931 419.011 132.264 419.554 131.785C420.096 131.302 420.777 131.061 421.598 131.061C422.486 131.061 423.209 131.295 423.765 131.765C424.325 132.229 424.605 132.858 424.605 133.651C424.605 134.062 424.526 134.424 424.366 134.738C424.207 135.048 424.015 135.299 423.792 135.49C423.569 135.682 423.343 135.864 423.115 136.037C422.887 136.21 422.694 136.413 422.534 136.646C422.375 136.878 422.295 137.14 422.295 137.432V138.061H420.894Z" fill="#345995"/>
<line x1="68.4941" y1="180.25" x2="422.507" y2="180.25" stroke="#345995" stroke-width="0.5"/>
<rect x="63.5" y="203" width="379" height="118" rx="25" fill="#D6E3FF"/>
<path d="M82.0137 294L82.0137 268.793H92.8242C95.3672 268.793 97.4121 269.549 98.959 271.061C100.506 272.572 101.279 274.576 101.279 277.072C101.279 278.244 101.098 279.322 100.734 280.307C100.383 281.279 99.9551 282.041 99.4512 282.592C98.9473 283.143 98.4375 283.617 97.9219 284.016C97.4063 284.402 96.9668 284.66 96.6035 284.789L96.0586 285L102.176 294H96.0586L90.293 285.352H87.4277L87.4277 294H82.0137ZM87.4277 280.5H92.4551C93.4629 280.5 94.2832 280.195 94.916 279.586C95.5605 278.977 95.8828 278.145 95.8828 277.09C95.8828 276.023 95.5605 275.186 94.916 274.576C94.2832 273.967 93.4629 273.662 92.4551 273.662H87.4277L87.4277 280.5ZM105.252 301.207L105.252 274.928H109.576L110.104 277.072H110.297C111.738 275.396 113.537 274.559 115.693 274.559C118.189 274.559 120.193 275.42 121.705 277.143C123.217 278.854 123.973 281.297 123.973 284.473C123.973 287.637 123.217 290.074 121.705 291.785C120.193 293.496 118.189 294.352 115.693 294.352C113.467 294.352 111.727 293.572 110.473 292.014H110.297L110.297 301.207H105.252ZM111.51 288.516C112.33 289.406 113.361 289.852 114.604 289.852C115.857 289.852 116.889 289.406 117.697 288.516C118.518 287.613 118.928 286.266 118.928 284.473C118.928 282.668 118.518 281.314 117.697 280.412C116.889 279.51 115.857 279.059 114.604 279.059C113.361 279.059 112.33 279.51 111.51 280.412C110.701 281.314 110.297 282.668 110.297 284.473C110.297 286.266 110.701 287.613 111.51 288.516ZM139.828 294L139.828 276.545H134.801L134.801 271.676H138.387C139.348 271.676 139.828 271.195 139.828 270.234L139.828 268.793H145.242L145.242 294H139.828ZM167.883 291.047C165.949 293.25 163.313 294.352 159.973 294.352C156.645 294.352 154.014 293.25 152.08 291.047C150.146 288.844 149.18 285.633 149.18 281.414C149.18 277.184 150.146 273.967 152.08 271.764C154.014 269.549 156.645 268.441 159.973 268.441C163.313 268.441 165.949 269.549 167.883 271.764C169.816 273.967 170.783 277.184 170.783 281.414C170.783 285.633 169.816 288.844 167.883 291.047ZM156.123 287.426C157.154 288.809 158.438 289.5 159.973 289.5C161.508 289.5 162.791 288.809 163.822 287.426C164.865 286.043 165.387 284.033 165.387 281.396C165.387 278.76 164.865 276.75 163.822 275.367C162.791 273.984 161.508 273.293 159.973 273.293C158.438 273.293 157.154 273.984 156.123 275.367C155.092 276.75 154.576 278.76 154.576 281.396C154.576 284.033 155.092 286.043 156.123 287.426ZM184.986 294L184.986 289.148H172.928L172.928 284.455L183.193 268.793H190.383L190.383 284.455H193.635L193.635 289.148H190.383L190.383 294H184.986ZM178.5 284.455H184.986L184.986 274.734H184.811L178.5 284.455ZM200.367 293.35C199.816 293.9 199.131 294.176 198.311 294.176C197.502 294.176 196.822 293.9 196.271 293.35C195.721 292.799 195.445 292.119 195.445 291.311C195.445 290.49 195.721 289.805 196.271 289.254C196.822 288.703 197.502 288.428 198.311 288.428C199.131 288.428 199.816 288.703 200.367 289.254C200.918 289.805 201.193 290.49 201.193 291.311C201.193 292.119 200.918 292.799 200.367 293.35ZM207.328 294L207.328 276.545H202.301L202.301 271.676H205.887C206.848 271.676 207.328 271.195 207.328 270.234L207.328 268.793H212.742L212.742 294H207.328ZM223.219 288.955C223.992 289.553 225.053 289.852 226.4 289.852C227.748 289.852 228.803 289.553 229.564 288.955C230.338 288.357 230.725 287.52 230.725 286.441C230.725 285.363 230.338 284.525 229.564 283.928C228.803 283.318 227.748 283.014 226.4 283.014C225.053 283.014 223.992 283.318 223.219 283.928C222.457 284.525 222.076 285.363 222.076 286.441C222.076 287.52 222.457 288.357 223.219 288.955ZM233.59 292.277C231.914 293.66 229.518 294.352 226.4 294.352C223.283 294.352 220.881 293.66 219.193 292.277C217.518 290.883 216.68 289.055 216.68 286.793C216.68 285.492 217.055 284.332 217.805 283.312C218.566 282.281 219.51 281.525 220.635 281.045C219.721 280.541 218.924 279.809 218.244 278.848C217.564 277.887 217.225 276.82 217.225 275.648C217.225 273.445 218.068 271.693 219.756 270.393C221.443 269.092 223.652 268.441 226.383 268.441C229.125 268.441 231.34 269.092 233.027 270.393C234.727 271.682 235.576 273.434 235.576 275.648C235.576 276.82 235.23 277.887 234.539 278.848C233.859 279.809 233.068 280.541 232.166 281.045C233.291 281.525 234.229 282.281 234.979 283.312C235.74 284.344 236.121 285.504 236.121 286.793C236.121 289.055 235.277 290.883 233.59 292.277ZM223.588 278.232C224.232 278.783 225.164 279.059 226.383 279.059C227.613 279.059 228.551 278.783 229.195 278.232C229.852 277.682 230.18 276.938 230.18 276C230.18 275.062 229.852 274.318 229.195 273.768C228.551 273.217 227.613 272.941 226.383 272.941C225.164 272.941 224.232 273.217 223.588 273.768C222.943 274.318 222.621 275.062 222.621 276C222.621 276.938 222.943 277.682 223.588 278.232ZM240.428 294L249.428 273.662H237.721L237.721 268.793H255.176L255.176 273.662L246.176 294H240.428ZM259.57 293.35C259.02 293.9 258.334 294.176 257.514 294.176C256.705 294.176 256.025 293.9 255.475 293.35C254.924 292.799 254.648 292.119 254.648 291.311C254.648 290.49 254.924 289.805 255.475 289.254C256.025 288.703 256.705 288.428 257.514 288.428C258.334 288.428 259.02 288.703 259.57 289.254C260.121 289.805 260.396 290.49 260.396 291.311C260.396 292.119 260.121 292.799 259.57 293.35ZM262.945 294L262.945 289.148L273.914 279.428C275.109 278.396 275.713 277.371 275.725 276.352C275.725 274.312 274.523 273.293 272.121 273.293C271.113 273.293 270.27 273.562 269.59 274.102C268.922 274.629 268.506 275.379 268.342 276.352H262.945C263.238 273.996 264.135 272.092 265.635 270.639C267.146 269.174 269.309 268.441 272.121 268.441C275.145 268.441 277.43 269.133 278.977 270.516C280.523 271.887 281.297 273.715 281.297 276C281.297 278.309 280.16 280.471 277.887 282.486L270.328 289.148H281.666L281.666 294H262.945ZM302.496 291.047C300.563 293.25 297.926 294.352 294.586 294.352C291.258 294.352 288.627 293.25 286.693 291.047C284.76 288.844 283.793 285.633 283.793 281.414C283.793 277.184 284.76 273.967 286.693 271.764C288.627 269.549 291.258 268.441 294.586 268.441C297.926 268.441 300.563 269.549 302.496 271.764C304.43 273.967 305.396 277.184 305.396 281.414C305.396 285.633 304.43 288.844 302.496 291.047ZM290.736 287.426C291.768 288.809 293.051 289.5 294.586 289.5C296.121 289.5 297.404 288.809 298.436 287.426C299.479 286.043 300 284.033 300 281.396C300 278.76 299.479 276.75 298.436 275.367C297.404 273.984 296.121 273.293 294.586 273.293C293.051 273.293 291.768 273.984 290.736 275.367C289.705 276.75 289.189 278.76 289.189 281.396C289.189 284.033 289.705 286.043 290.736 287.426ZM326.965 291.047C325.031 293.25 322.395 294.352 319.055 294.352C315.727 294.352 313.096 293.25 311.162 291.047C309.229 288.844 308.262 285.633 308.262 281.414C308.262 277.184 309.229 273.967 311.162 271.764C313.096 269.549 315.727 268.441 319.055 268.441C322.395 268.441 325.031 269.549 326.965 271.764C328.898 273.967 329.865 277.184 329.865 281.414C329.865 285.633 328.898 288.844 326.965 291.047ZM315.205 287.426C316.236 288.809 317.52 289.5 319.055 289.5C320.59 289.5 321.873 288.809 322.904 287.426C323.947 286.043 324.469 284.033 324.469 281.396C324.469 278.76 323.947 276.75 322.904 275.367C321.873 273.984 320.59 273.293 319.055 273.293C317.52 273.293 316.236 273.984 315.205 275.367C314.174 276.75 313.658 278.76 313.658 281.396C313.658 284.033 314.174 286.043 315.205 287.426Z" fill="#345995"/>
<path d="M88.2656 249.234C85.9766 249.234 84.1406 248.484 82.7578 246.984C81.3828 245.477 80.6953 243.348 80.6953 240.598C80.6953 237.848 81.3828 235.723 82.7578 234.223C84.1406 232.715 85.9766 231.961 88.2656 231.961C91.625 231.961 93.9023 233.52 95.0977 236.637H92.9414C92.043 234.715 90.4844 233.758 88.2656 233.766C86.6016 233.766 85.2617 234.363 84.2461 235.559C83.2383 236.746 82.7344 238.43 82.7344 240.609C82.7344 242.781 83.2383 244.465 84.2461 245.66C85.2617 246.848 86.6016 247.441 88.2656 247.441C90.4922 247.441 92.0508 246.48 92.9414 244.559H95.0977C93.9023 247.676 91.625 249.234 88.2656 249.234ZM100.863 247.559C102.035 247.559 102.965 247.227 103.652 246.562C104.348 245.898 104.695 245.07 104.695 244.078L104.695 243.234H101.215C100.27 243.234 99.5547 243.43 99.0703 243.82C98.5859 244.203 98.3438 244.73 98.3438 245.402C98.3438 246.059 98.5664 246.582 99.0117 246.973C99.4648 247.363 100.082 247.559 100.863 247.559ZM100.863 249.234C99.5664 249.234 98.5195 248.871 97.7227 248.145C96.9336 247.418 96.5391 246.504 96.5391 245.402C96.5391 244.285 96.9531 243.367 97.7813 242.648C98.6172 241.922 99.7617 241.559 101.215 241.559H104.695L104.695 240.715C104.695 239.887 104.418 239.223 103.863 238.723C103.316 238.215 102.594 237.961 101.695 237.961C100.172 237.961 99.2109 238.562 98.8125 239.766H96.9023C97.1914 238.648 97.7578 237.789 98.6016 237.188C99.4531 236.586 100.484 236.285 101.695 236.285C103.18 236.285 104.352 236.688 105.211 237.492C106.07 238.297 106.5 239.371 106.5 240.715L106.5 249H105.059L104.813 247.324H104.695C104.422 247.801 103.934 248.238 103.23 248.637C102.535 249.035 101.746 249.234 100.863 249.234ZM109.723 249L109.723 236.52H111.164L111.41 238.195H111.527C112.199 237.078 113.32 236.52 114.891 236.52H116.203L116.203 238.195H114.891C113.93 238.195 113.129 238.492 112.488 239.086C111.848 239.68 111.527 240.426 111.527 241.324L111.527 249H109.723Z" fill="#345995"/>
<path d="M390.309 246L390.309 244.646L395.978 238.89C396.698 238.169 397.059 237.48 397.059 236.824C397.059 236.104 396.839 235.55 396.399 235.163C395.966 234.771 395.345 234.574 394.536 234.574C393.804 234.574 393.194 234.782 392.708 235.198C392.228 235.608 391.938 236.118 391.838 236.728H390.309C390.502 235.661 390.962 234.812 391.688 234.179C392.415 233.54 393.364 233.221 394.536 233.221C395.784 233.221 396.771 233.549 397.498 234.205C398.225 234.855 398.588 235.729 398.588 236.824C398.588 237.785 398.078 238.772 397.059 239.786L392.286 244.646H398.772L398.772 246H390.309ZM409.056 244.506C408.112 245.619 406.873 246.176 405.338 246.176C403.803 246.176 402.563 245.619 401.62 244.506C400.677 243.393 400.205 241.793 400.205 239.707C400.205 237.615 400.677 236.013 401.62 234.899C402.563 233.78 403.803 233.221 405.338 233.221C406.873 233.221 408.112 233.78 409.056 234.899C409.999 236.013 410.471 237.615 410.471 239.707C410.471 241.793 409.999 243.393 409.056 244.506ZM402.745 243.53C403.419 244.397 404.283 244.831 405.338 244.831C406.393 244.831 407.257 244.397 407.931 243.53C408.604 242.657 408.941 241.38 408.941 239.698C408.941 238.017 408.604 236.742 407.931 235.875C407.257 235.008 406.393 234.574 405.338 234.574C404.283 234.574 403.419 235.008 402.745 235.875C402.071 236.742 401.734 238.017 401.734 239.698C401.734 241.38 402.071 242.657 402.745 243.53ZM413.345 246L421.176 233.396H422.793L414.971 246H413.345ZM423.373 245.402C422.857 245.918 422.184 246.176 421.352 246.176C420.525 246.176 419.854 245.918 419.339 245.402C418.823 244.887 418.565 244.187 418.565 243.302C418.565 242.411 418.823 241.708 419.339 241.192C419.854 240.677 420.525 240.419 421.352 240.419C422.184 240.419 422.857 240.677 423.373 241.192C423.889 241.708 424.146 242.411 424.146 243.302C424.146 244.187 423.889 244.887 423.373 245.402ZM420.253 244.55C420.534 244.854 420.9 245.007 421.352 245.007C421.809 245.007 422.178 244.854 422.459 244.55C422.746 244.245 422.89 243.829 422.89 243.302C422.89 242.774 422.746 242.358 422.459 242.054C422.178 241.743 421.809 241.588 421.352 241.588C420.9 241.588 420.534 241.743 420.253 242.054C419.972 242.358 419.831 242.774 419.831 243.302C419.831 243.829 419.972 244.245 420.253 244.55ZM416.799 238.204C416.283 238.72 415.612 238.978 414.786 238.978C413.96 238.978 413.289 238.72 412.773 238.204C412.258 237.688 412 236.988 412 236.104C412 235.213 412.258 234.51 412.773 233.994C413.289 233.479 413.96 233.221 414.786 233.221C415.612 233.221 416.283 233.479 416.799 233.994C417.32 234.51 417.581 235.213 417.581 236.104C417.581 236.988 417.32 237.688 416.799 238.204ZM413.679 237.352C413.96 237.656 414.329 237.809 414.786 237.809C415.243 237.809 415.612 237.656 415.894 237.352C416.175 237.047 416.315 236.631 416.315 236.104C416.315 235.57 416.175 235.151 415.894 234.847C415.612 234.542 415.243 234.39 414.786 234.39C414.329 234.39 413.96 234.542 413.679 234.847C413.397 235.151 413.257 235.57 413.257 236.104C413.257 236.631 413.397 237.047 413.679 237.352Z" fill="#345995"/>
<rect x="63.5" y="347" width="379" height="118" rx="25" fill="#D6E3FF"/>
<path d="M82.0137 438L82.0137 412.793H92.8242C95.3672 412.793 97.4121 413.549 98.959 415.061C100.506 416.572 101.279 418.576 101.279 421.072C101.279 422.244 101.098 423.322 100.734 424.307C100.383 425.279 99.9551 426.041 99.4512 426.592C98.9473 427.143 98.4375 427.617 97.9219 428.016C97.4063 428.402 96.9668 428.66 96.6035 428.789L96.0586 429L102.176 438H96.0586L90.293 429.352H87.4277L87.4277 438H82.0137ZM87.4277 424.5H92.4551C93.4629 424.5 94.2832 424.195 94.916 423.586C95.5605 422.977 95.8828 422.145 95.8828 421.09C95.8828 420.023 95.5605 419.186 94.916 418.576C94.2832 417.967 93.4629 417.662 92.4551 417.662H87.4277L87.4277 424.5ZM105.252 445.207L105.252 418.928H109.576L110.104 421.072H110.297C111.738 419.396 113.537 418.559 115.693 418.559C118.189 418.559 120.193 419.42 121.705 421.143C123.217 422.854 123.973 425.297 123.973 428.473C123.973 431.637 123.217 434.074 121.705 435.785C120.193 437.496 118.189 438.352 115.693 438.352C113.467 438.352 111.727 437.572 110.473 436.014H110.297L110.297 445.207H105.252ZM111.51 432.516C112.33 433.406 113.361 433.852 114.604 433.852C115.857 433.852 116.889 433.406 117.697 432.516C118.518 431.613 118.928 430.266 118.928 428.473C118.928 426.668 118.518 425.314 117.697 424.412C116.889 423.51 115.857 423.059 114.604 423.059C113.361 423.059 112.33 423.51 111.51 424.412C110.701 425.314 110.297 426.668 110.297 428.473C110.297 430.266 110.701 431.613 111.51 432.516ZM139.828 438L139.828 420.545H134.801L134.801 415.676H138.387C139.348 415.676 139.828 415.195 139.828 414.234L139.828 412.793H145.242L145.242 438H139.828ZM167.883 435.047C165.949 437.25 163.313 438.352 159.973 438.352C156.645 438.352 154.014 437.25 152.08 435.047C150.146 432.844 149.18 429.633 149.18 425.414C149.18 421.184 150.146 417.967 152.08 415.764C154.014 413.549 156.645 412.441 159.973 412.441C163.313 412.441 165.949 413.549 167.883 415.764C169.816 417.967 170.783 421.184 170.783 425.414C170.783 429.633 169.816 432.844 167.883 435.047ZM156.123 431.426C157.154 432.809 158.438 433.5 159.973 433.5C161.508 433.5 162.791 432.809 163.822 431.426C164.865 430.043 165.387 428.033 165.387 425.396C165.387 422.76 164.865 420.75 163.822 419.367C162.791 417.984 161.508 417.293 159.973 417.293C158.438 417.293 157.154 417.984 156.123 419.367C155.092 420.75 154.576 422.76 154.576 425.396C154.576 428.033 155.092 430.043 156.123 431.426ZM184.986 438L184.986 433.148H172.928L172.928 428.455L183.193 412.793H190.383L190.383 428.455H193.635L193.635 433.148H190.383L190.383 438H184.986ZM178.5 428.455H184.986L184.986 418.734H184.811L178.5 428.455ZM200.367 437.35C199.816 437.9 199.131 438.176 198.311 438.176C197.502 438.176 196.822 437.9 196.271 437.35C195.721 436.799 195.445 436.119 195.445 435.311C195.445 434.49 195.721 433.805 196.271 433.254C196.822 432.703 197.502 432.428 198.311 432.428C199.131 432.428 199.816 432.703 200.367 433.254C200.918 433.805 201.193 434.49 201.193 435.311C201.193 436.119 200.918 436.799 200.367 437.35ZM207.328 438L207.328 420.545H202.301L202.301 415.676H205.887C206.848 415.676 207.328 415.195 207.328 414.234L207.328 412.793H212.742L212.742 438H207.328ZM223.219 432.955C223.992 433.553 225.053 433.852 226.4 433.852C227.748 433.852 228.803 433.553 229.564 432.955C230.338 432.357 230.725 431.52 230.725 430.441C230.725 429.363 230.338 428.525 229.564 427.928C228.803 427.318 227.748 427.014 226.4 427.014C225.053 427.014 223.992 427.318 223.219 427.928C222.457 428.525 222.076 429.363 222.076 430.441C222.076 431.52 222.457 432.357 223.219 432.955ZM233.59 436.277C231.914 437.66 229.518 438.352 226.4 438.352C223.283 438.352 220.881 437.66 219.193 436.277C217.518 434.883 216.68 433.055 216.68 430.793C216.68 429.492 217.055 428.332 217.805 427.312C218.566 426.281 219.51 425.525 220.635 425.045C219.721 424.541 218.924 423.809 218.244 422.848C217.564 421.887 217.225 420.82 217.225 419.648C217.225 417.445 218.068 415.693 219.756 414.393C221.443 413.092 223.652 412.441 226.383 412.441C229.125 412.441 231.34 413.092 233.027 414.393C234.727 415.682 235.576 417.434 235.576 419.648C235.576 420.82 235.23 421.887 234.539 422.848C233.859 423.809 233.068 424.541 232.166 425.045C233.291 425.525 234.229 426.281 234.979 427.312C235.74 428.344 236.121 429.504 236.121 430.793C236.121 433.055 235.277 434.883 233.59 436.277ZM223.588 422.232C224.232 422.783 225.164 423.059 226.383 423.059C227.613 423.059 228.551 422.783 229.195 422.232C229.852 421.682 230.18 420.938 230.18 420C230.18 419.062 229.852 418.318 229.195 417.768C228.551 417.217 227.613 416.941 226.383 416.941C225.164 416.941 224.232 417.217 223.588 417.768C222.943 418.318 222.621 419.062 222.621 420C222.621 420.938 222.943 421.682 223.588 422.232ZM240.428 438L249.428 417.662H237.721L237.721 412.793H255.176L255.176 417.662L246.176 438H240.428ZM259.57 437.35C259.02 437.9 258.334 438.176 257.514 438.176C256.705 438.176 256.025 437.9 255.475 437.35C254.924 436.799 254.648 436.119 254.648 435.311C254.648 434.49 254.924 433.805 255.475 433.254C256.025 432.703 256.705 432.428 257.514 432.428C258.334 432.428 259.02 432.703 259.57 433.254C260.121 433.805 260.396 434.49 260.396 435.311C260.396 436.119 260.121 436.799 259.57 437.35ZM262.945 438L262.945 433.148L273.914 423.428C275.109 422.396 275.713 421.371 275.725 420.352C275.725 418.312 274.523 417.293 272.121 417.293C271.113 417.293 270.27 417.562 269.59 418.102C268.922 418.629 268.506 419.379 268.342 420.352H262.945C263.238 417.996 264.135 416.092 265.635 414.639C267.146 413.174 269.309 412.441 272.121 412.441C275.145 412.441 277.43 413.133 278.977 414.516C280.523 415.887 281.297 417.715 281.297 420C281.297 422.309 280.16 424.471 277.887 426.486L270.328 433.148H281.666L281.666 438H262.945ZM302.496 435.047C300.563 437.25 297.926 438.352 294.586 438.352C291.258 438.352 288.627 437.25 286.693 435.047C284.76 432.844 283.793 429.633 283.793 425.414C283.793 421.184 284.76 417.967 286.693 415.764C288.627 413.549 291.258 412.441 294.586 412.441C297.926 412.441 300.563 413.549 302.496 415.764C304.43 417.967 305.396 421.184 305.396 425.414C305.396 429.633 304.43 432.844 302.496 435.047ZM290.736 431.426C291.768 432.809 293.051 433.5 294.586 433.5C296.121 433.5 297.404 432.809 298.436 431.426C299.479 430.043 300 428.033 300 425.396C300 422.76 299.479 420.75 298.436 419.367C297.404 417.984 296.121 417.293 294.586 417.293C293.051 417.293 291.768 417.984 290.736 419.367C289.705 420.75 289.189 422.76 289.189 425.396C289.189 428.033 289.705 430.043 290.736 431.426ZM326.965 435.047C325.031 437.25 322.395 438.352 319.055 438.352C315.727 438.352 313.096 437.25 311.162 435.047C309.229 432.844 308.262 429.633 308.262 425.414C308.262 421.184 309.229 417.967 311.162 415.764C313.096 413.549 315.727 412.441 319.055 412.441C322.395 412.441 325.031 413.549 326.965 415.764C328.898 417.967 329.865 421.184 329.865 425.414C329.865 429.633 328.898 432.844 326.965 435.047ZM315.205 431.426C316.236 432.809 317.52 433.5 319.055 433.5C320.59 433.5 321.873 432.809 322.904 431.426C323.947 430.043 324.469 428.033 324.469 425.396C324.469 422.76 323.947 420.75 322.904 419.367C321.873 417.984 320.59 417.293 319.055 417.293C317.52 417.293 316.236 417.984 315.205 419.367C314.174 420.75 313.658 422.76 313.658 425.396C313.658 428.033 314.174 430.043 315.205 431.426Z" fill="#345995"/>
<path d="M81.5391 393L81.5391 376.195H83.5781L83.5781 383.637H92.4609L92.4609 376.195H94.5L94.5 393H92.4609L92.4609 385.441H83.5781L83.5781 393H81.5391ZM107.555 391.535C106.5 392.668 105.105 393.234 103.371 393.234C101.645 393.234 100.254 392.668 99.1992 391.535C98.1445 390.402 97.6172 388.812 97.6172 386.766C97.6172 384.711 98.1445 383.117 99.1992 381.984C100.254 380.852 101.645 380.285 103.371 380.285C105.105 380.285 106.5 380.852 107.555 381.984C108.609 383.117 109.137 384.711 109.137 386.766C109.137 388.812 108.609 390.402 107.555 391.535ZM100.512 390.305C101.238 391.141 102.191 391.559 103.371 391.559C104.559 391.559 105.516 391.141 106.242 390.305C106.977 389.461 107.344 388.281 107.344 386.766C107.344 385.242 106.977 384.062 106.242 383.227C105.516 382.383 104.559 381.961 103.371 381.961C102.191 381.961 101.238 382.383 100.512 383.227C99.7852 384.062 99.4219 385.242 99.4219 386.766C99.4219 388.281 99.7852 389.461 100.512 390.305ZM116.59 393.234C115.246 393.234 114.129 392.777 113.238 391.863C112.348 390.941 111.902 389.719 111.902 388.195L111.902 380.52H113.707L113.707 388.195C113.707 389.25 113.992 390.074 114.563 390.668C115.141 391.262 115.895 391.559 116.824 391.559C117.77 391.559 118.566 391.227 119.215 390.562C119.863 389.898 120.188 389.109 120.188 388.195L120.188 380.52H121.992L121.992 393H120.551L120.305 391.324H120.188C119.438 392.598 118.238 393.234 116.59 393.234ZM129.293 393.234C128.059 393.234 127.008 392.918 126.141 392.285C125.281 391.645 124.734 390.805 124.5 389.766H126.422C126.602 390.344 126.953 390.789 127.477 391.102C128 391.406 128.605 391.559 129.293 391.559C130.27 391.559 131.012 391.383 131.52 391.031C132.035 390.68 132.293 390.215 132.293 389.637C132.293 389.16 132.109 388.773 131.742 388.477C131.375 388.18 130.914 387.973 130.359 387.855C129.813 387.73 129.219 387.582 128.578 387.41C127.938 387.23 127.34 387.039 126.785 386.836C126.238 386.625 125.777 386.258 125.402 385.734C125.035 385.203 124.852 384.547 124.852 383.766C124.852 382.82 125.258 382.004 126.07 381.316C126.891 380.629 127.965 380.285 129.293 380.285C130.41 380.285 131.391 380.559 132.234 381.105C133.078 381.645 133.617 382.41 133.852 383.402H131.941C131.527 382.441 130.645 381.961 129.293 381.961C128.41 381.961 127.75 382.121 127.313 382.441C126.875 382.762 126.656 383.203 126.656 383.766C126.656 384.359 126.91 384.82 127.418 385.148C127.934 385.469 128.555 385.711 129.281 385.875C130.008 386.031 130.734 386.211 131.461 386.414C132.195 386.609 132.816 386.977 133.324 387.516C133.84 388.055 134.098 388.762 134.098 389.637C134.098 390.629 133.66 391.477 132.785 392.18C131.91 392.883 130.746 393.234 129.293 393.234ZM141.773 393.234C140.047 393.234 138.652 392.668 137.59 391.535C136.535 390.402 136.008 388.812 136.008 386.766C136.008 384.711 136.531 383.117 137.578 381.984C138.625 380.852 139.98 380.285 141.645 380.285C142.559 380.285 143.387 380.465 144.129 380.824C144.879 381.184 145.477 381.652 145.922 382.23C146.367 382.801 146.707 383.414 146.941 384.07C147.176 384.727 147.293 385.383 147.293 386.039L147.164 387.234H137.813C137.875 388.625 138.27 389.695 138.996 390.445C139.723 391.188 140.648 391.559 141.773 391.559C143.211 391.559 144.289 390.961 145.008 389.766H146.93C146.516 390.883 145.855 391.742 144.949 392.344C144.051 392.938 142.992 393.234 141.773 393.234ZM137.813 385.676H145.488C145.379 384.504 144.973 383.594 144.27 382.945C143.566 382.289 142.691 381.961 141.645 381.961C140.605 381.961 139.734 382.289 139.031 382.945C138.328 383.594 137.922 384.504 137.813 385.676ZM155.672 393L155.672 376.195H161.309C163.598 376.195 165.43 376.926 166.805 378.387C168.18 379.84 168.867 381.91 168.867 384.598C168.867 387.285 168.18 389.359 166.805 390.82C165.43 392.273 163.598 393 161.309 393H155.672ZM157.711 391.195H161.309C162.973 391.195 164.309 390.625 165.316 389.484C166.324 388.344 166.828 386.719 166.828 384.609C166.828 382.492 166.324 380.863 165.316 379.723C164.309 378.574 162.973 378 161.309 378H157.711L157.711 391.195ZM181.078 391.535C180.023 392.668 178.629 393.234 176.895 393.234C175.168 393.234 173.777 392.668 172.723 391.535C171.668 390.402 171.141 388.812 171.141 386.766C171.141 384.711 171.668 383.117 172.723 381.984C173.777 380.852 175.168 380.285 176.895 380.285C178.629 380.285 180.023 380.852 181.078 381.984C182.133 383.117 182.66 384.711 182.66 386.766C182.66 388.812 182.133 390.402 181.078 391.535ZM174.035 390.305C174.762 391.141 175.715 391.559 176.895 391.559C178.082 391.559 179.039 391.141 179.766 390.305C180.5 389.461 180.867 388.281 180.867 386.766C180.867 385.242 180.5 384.062 179.766 383.227C179.039 382.383 178.082 381.961 176.895 381.961C175.715 381.961 174.762 382.383 174.035 383.227C173.309 384.062 172.945 385.242 172.945 386.766C172.945 388.281 173.309 389.461 174.035 390.305ZM187.465 393L183.984 380.52H185.789L188.555 390.598H188.672L191.426 380.52H193.465L196.23 390.598H196.348L199.113 380.52H200.906L197.426 393H195.152L192.516 383.285H192.387L189.75 393H187.465ZM202.816 393L202.816 380.52H204.258L204.504 382.195H204.621C205.371 380.914 206.57 380.277 208.219 380.285C209.563 380.285 210.68 380.746 211.57 381.668C212.461 382.582 212.906 383.801 212.906 385.324L212.906 393H211.102L211.102 385.324C211.102 384.27 210.813 383.445 210.234 382.852C209.656 382.258 208.906 381.961 207.984 381.961C207.039 381.961 206.242 382.293 205.594 382.957C204.945 383.621 204.621 384.41 204.621 385.324L204.621 393H202.816ZM221.766 393L221.766 376.195H228.129C229.777 376.195 231.09 376.691 232.066 377.684C233.043 378.676 233.531 379.941 233.531 381.48C233.531 383.02 233.043 384.285 232.066 385.277C231.09 386.27 229.777 386.766 228.129 386.766H223.805L223.805 393H221.766ZM223.805 384.961H228.012C229.082 384.961 229.93 384.641 230.555 384C231.18 383.359 231.492 382.52 231.492 381.48C231.492 380.441 231.18 379.602 230.555 378.961C229.93 378.32 229.082 378 228.012 378H223.805L223.805 384.961ZM239.051 391.559C240.223 391.559 241.152 391.227 241.84 390.562C242.535 389.898 242.883 389.07 242.883 388.078L242.883 387.234H239.402C238.457 387.234 237.742 387.43 237.258 387.82C236.773 388.203 236.531 388.73 236.531 389.402C236.531 390.059 236.754 390.582 237.199 390.973C237.652 391.363 238.27 391.559 239.051 391.559ZM239.051 393.234C237.754 393.234 236.707 392.871 235.91 392.145C235.121 391.418 234.727 390.504 234.727 389.402C234.727 388.285 235.141 387.367 235.969 386.648C236.805 385.922 237.949 385.559 239.402 385.559H242.883L242.883 384.715C242.883 383.887 242.605 383.223 242.051 382.723C241.504 382.215 240.781 381.961 239.883 381.961C238.359 381.961 237.398 382.562 237 383.766H235.09C235.379 382.648 235.945 381.789 236.789 381.188C237.641 380.586 238.672 380.285 239.883 380.285C241.367 380.285 242.539 380.688 243.398 381.492C244.258 382.297 244.688 383.371 244.688 384.715L244.688 393H243.246L243 391.324H242.883C242.609 391.801 242.121 392.238 241.418 392.637C240.723 393.035 239.934 393.234 239.051 393.234ZM249.363 397.805L251.285 393L246.117 380.52H248.039L252.117 390.48H252.234L256.195 380.52H258.117L251.285 397.805H249.363ZM259.91 393L259.91 380.52H261.352L261.598 382.195H261.715C262.465 380.914 263.586 380.277 265.078 380.285C265.859 380.285 266.563 380.484 267.188 380.883C267.813 381.281 268.309 381.84 268.676 382.559H268.793C269.605 381.035 270.926 380.277 272.754 380.285C273.988 380.285 275.016 380.746 275.836 381.668C276.664 382.582 277.078 383.801 277.078 385.324L277.078 393H275.273L275.273 385.324C275.273 384.27 275.008 383.445 274.477 382.852C273.953 382.258 273.258 381.961 272.391 381.961C271.539 381.961 270.824 382.281 270.246 382.922C269.676 383.562 269.391 384.363 269.391 385.324L269.391 393H267.598L267.598 385.324C267.598 384.27 267.332 383.445 266.801 382.852C266.277 382.258 265.582 381.961 264.715 381.961C263.918 381.961 263.219 382.285 262.617 382.934C262.016 383.582 261.715 384.379 261.715 385.324L261.715 393H259.91ZM285.469 393.234C283.742 393.234 282.348 392.668 281.285 391.535C280.23 390.402 279.703 388.812 279.703 386.766C279.703 384.711 280.227 383.117 281.273 381.984C282.32 380.852 283.676 380.285 285.34 380.285C286.254 380.285 287.082 380.465 287.824 380.824C288.574 381.184 289.172 381.652 289.617 382.23C290.063 382.801 290.402 383.414 290.637 384.07C290.871 384.727 290.988 385.383 290.988 386.039L290.859 387.234H281.508C281.57 388.625 281.965 389.695 282.691 390.445C283.418 391.188 284.344 391.559 285.469 391.559C286.906 391.559 287.984 390.961 288.703 389.766H290.625C290.211 390.883 289.551 391.742 288.645 392.344C287.746 392.938 286.688 393.234 285.469 393.234ZM281.508 385.676H289.184C289.074 384.504 288.668 383.594 287.965 382.945C287.262 382.289 286.387 381.961 285.34 381.961C284.301 381.961 283.43 382.289 282.727 382.945C282.023 383.594 281.617 384.504 281.508 385.676ZM293.73 393L293.73 380.52H295.172L295.418 382.195H295.535C296.285 380.914 297.484 380.277 299.133 380.285C300.477 380.285 301.594 380.746 302.484 381.668C303.375 382.582 303.82 383.801 303.82 385.324L303.82 393H302.016L302.016 385.324C302.016 384.27 301.727 383.445 301.148 382.852C300.57 382.258 299.82 381.961 298.898 381.961C297.953 381.961 297.156 382.293 296.508 382.957C295.859 383.621 295.535 384.41 295.535 385.324L295.535 393H293.73ZM311.004 393C310.105 393 309.359 392.703 308.766 392.109C308.18 391.516 307.887 390.773 307.887 389.883L307.887 382.195H305.965L305.965 380.52H307.887L308.133 377.156H309.691L309.691 380.52H312.926L312.926 382.195H309.691L309.691 389.883C309.691 390.297 309.824 390.641 310.09 390.914C310.363 391.188 310.711 391.324 311.133 391.324H312.926L312.926 393H311.004Z" fill="#345995"/>
<path d="M394.721 390.176C393.654 390.176 392.72 389.865 391.917 389.244C391.12 388.617 390.613 387.759 390.396 386.669H391.926C392.107 387.308 392.453 387.829 392.963 388.233C393.473 388.632 394.059 388.831 394.721 388.831C395.611 388.831 396.314 388.567 396.83 388.04C397.346 387.513 397.604 386.815 397.604 385.948C397.604 385.069 397.343 384.354 396.821 383.804C396.306 383.253 395.605 382.978 394.721 382.978C393.678 382.978 392.808 383.429 392.11 384.331H390.669L391.302 377.396H398.412L398.412 378.75H392.646L392.286 382.529H392.383C393.068 381.932 393.938 381.633 394.993 381.633C396.194 381.633 397.185 382.046 397.964 382.872C398.743 383.698 399.133 384.724 399.133 385.948C399.133 387.22 398.731 388.242 397.929 389.016C397.132 389.789 396.063 390.176 394.721 390.176ZM409.688 388.506C408.745 389.619 407.506 390.176 405.971 390.176C404.436 390.176 403.196 389.619 402.253 388.506C401.31 387.393 400.838 385.793 400.838 383.707C400.838 381.615 401.31 380.013 402.253 378.899C403.196 377.78 404.436 377.221 405.971 377.221C407.506 377.221 408.745 377.78 409.688 378.899C410.632 380.013 411.104 381.615 411.104 383.707C411.104 385.793 410.632 387.393 409.688 388.506ZM403.378 387.53C404.052 388.397 404.916 388.831 405.971 388.831C407.025 388.831 407.89 388.397 408.563 387.53C409.237 386.657 409.574 385.38 409.574 383.698C409.574 382.017 409.237 380.742 408.563 379.875C407.89 379.008 407.025 378.574 405.971 378.574C404.916 378.574 404.052 379.008 403.378 379.875C402.704 380.742 402.367 382.017 402.367 383.698C402.367 385.38 402.704 386.657 403.378 387.53ZM413.978 390L421.809 377.396H423.426L415.604 390H413.978ZM424.006 389.402C423.49 389.918 422.816 390.176 421.984 390.176C421.158 390.176 420.487 389.918 419.972 389.402C419.456 388.887 419.198 388.187 419.198 387.302C419.198 386.411 419.456 385.708 419.972 385.192C420.487 384.677 421.158 384.419 421.984 384.419C422.816 384.419 423.49 384.677 424.006 385.192C424.521 385.708 424.779 386.411 424.779 387.302C424.779 388.187 424.521 388.887 424.006 389.402ZM420.886 388.55C421.167 388.854 421.533 389.007 421.984 389.007C422.441 389.007 422.811 388.854 423.092 388.55C423.379 388.245 423.522 387.829 423.522 387.302C423.522 386.774 423.379 386.358 423.092 386.054C422.811 385.743 422.441 385.588 421.984 385.588C421.533 385.588 421.167 385.743 420.886 386.054C420.604 386.358 420.464 386.774 420.464 387.302C420.464 387.829 420.604 388.245 420.886 388.55ZM417.432 382.204C416.916 382.72 416.245 382.978 415.419 382.978C414.593 382.978 413.922 382.72 413.406 382.204C412.891 381.688 412.633 380.988 412.633 380.104C412.633 379.213 412.891 378.51 413.406 377.994C413.922 377.479 414.593 377.221 415.419 377.221C416.245 377.221 416.916 377.479 417.432 377.994C417.953 378.51 418.214 379.213 418.214 380.104C418.214 380.988 417.953 381.688 417.432 382.204ZM414.312 381.352C414.593 381.656 414.962 381.809 415.419 381.809C415.876 381.809 416.245 381.656 416.526 381.352C416.808 381.047 416.948 380.631 416.948 380.104C416.948 379.57 416.808 379.151 416.526 378.847C416.245 378.542 415.876 378.39 415.419 378.39C414.962 378.39 414.593 378.542 414.312 378.847C414.03 379.151 413.89 379.57 413.89 380.104C413.89 380.631 414.03 381.047 414.312 381.352Z" fill="#345995"/>
<rect x="63.5" y="491" width="379" height="118" rx="25" fill="#D6E3FF"/>
<path d="M82.0137 582L82.0137 556.793H92.8242C95.3672 556.793 97.4121 557.549 98.959 559.061C100.506 560.572 101.279 562.576 101.279 565.072C101.279 566.244 101.098 567.322 100.734 568.307C100.383 569.279 99.9551 570.041 99.4512 570.592C98.9473 571.143 98.4375 571.617 97.9219 572.016C97.4063 572.402 96.9668 572.66 96.6035 572.789L96.0586 573L102.176 582H96.0586L90.293 573.352H87.4277L87.4277 582H82.0137ZM87.4277 568.5H92.4551C93.4629 568.5 94.2832 568.195 94.916 567.586C95.5605 566.977 95.8828 566.145 95.8828 565.09C95.8828 564.023 95.5605 563.186 94.916 562.576C94.2832 561.967 93.4629 561.662 92.4551 561.662H87.4277L87.4277 568.5ZM105.252 589.207L105.252 562.928H109.576L110.104 565.072H110.297C111.738 563.396 113.537 562.559 115.693 562.559C118.189 562.559 120.193 563.42 121.705 565.143C123.217 566.854 123.973 569.297 123.973 572.473C123.973 575.637 123.217 578.074 121.705 579.785C120.193 581.496 118.189 582.352 115.693 582.352C113.467 582.352 111.727 581.572 110.473 580.014H110.297L110.297 589.207H105.252ZM111.51 576.516C112.33 577.406 113.361 577.852 114.604 577.852C115.857 577.852 116.889 577.406 117.697 576.516C118.518 575.613 118.928 574.266 118.928 572.473C118.928 570.668 118.518 569.314 117.697 568.412C116.889 567.51 115.857 567.059 114.604 567.059C113.361 567.059 112.33 567.51 111.51 568.412C110.701 569.314 110.297 570.668 110.297 572.473C110.297 574.266 110.701 575.613 111.51 576.516ZM139.828 582L139.828 564.545H134.801L134.801 559.676H138.387C139.348 559.676 139.828 559.195 139.828 558.234L139.828 556.793H145.242L145.242 582H139.828ZM167.883 579.047C165.949 581.25 163.313 582.352 159.973 582.352C156.645 582.352 154.014 581.25 152.08 579.047C150.146 576.844 149.18 573.633 149.18 569.414C149.18 565.184 150.146 561.967 152.08 559.764C154.014 557.549 156.645 556.441 159.973 556.441C163.313 556.441 165.949 557.549 167.883 559.764C169.816 561.967 170.783 565.184 170.783 569.414C170.783 573.633 169.816 576.844 167.883 579.047ZM156.123 575.426C157.154 576.809 158.438 577.5 159.973 577.5C161.508 577.5 162.791 576.809 163.822 575.426C164.865 574.043 165.387 572.033 165.387 569.396C165.387 566.76 164.865 564.75 163.822 563.367C162.791 561.984 161.508 561.293 159.973 561.293C158.438 561.293 157.154 561.984 156.123 563.367C155.092 564.75 154.576 566.76 154.576 569.396C154.576 572.033 155.092 574.043 156.123 575.426ZM184.986 582L184.986 577.148H172.928L172.928 572.455L183.193 556.793H190.383L190.383 572.455H193.635L193.635 577.148H190.383L190.383 582H184.986ZM178.5 572.455H184.986L184.986 562.734H184.811L178.5 572.455ZM200.367 581.35C199.816 581.9 199.131 582.176 198.311 582.176C197.502 582.176 196.822 581.9 196.271 581.35C195.721 580.799 195.445 580.119 195.445 579.311C195.445 578.49 195.721 577.805 196.271 577.254C196.822 576.703 197.502 576.428 198.311 576.428C199.131 576.428 199.816 576.703 200.367 577.254C200.918 577.805 201.193 578.49 201.193 579.311C201.193 580.119 200.918 580.799 200.367 581.35ZM207.328 582L207.328 564.545H202.301L202.301 559.676H205.887C206.848 559.676 207.328 559.195 207.328 558.234L207.328 556.793H212.742L212.742 582H207.328ZM223.219 576.955C223.992 577.553 225.053 577.852 226.4 577.852C227.748 577.852 228.803 577.553 229.564 576.955C230.338 576.357 230.725 575.52 230.725 574.441C230.725 573.363 230.338 572.525 229.564 571.928C228.803 571.318 227.748 571.014 226.4 571.014C225.053 571.014 223.992 571.318 223.219 571.928C222.457 572.525 222.076 573.363 222.076 574.441C222.076 575.52 222.457 576.357 223.219 576.955ZM233.59 580.277C231.914 581.66 229.518 582.352 226.4 582.352C223.283 582.352 220.881 581.66 219.193 580.277C217.518 578.883 216.68 577.055 216.68 574.793C216.68 573.492 217.055 572.332 217.805 571.312C218.566 570.281 219.51 569.525 220.635 569.045C219.721 568.541 218.924 567.809 218.244 566.848C217.564 565.887 217.225 564.82 217.225 563.648C217.225 561.445 218.068 559.693 219.756 558.393C221.443 557.092 223.652 556.441 226.383 556.441C229.125 556.441 231.34 557.092 233.027 558.393C234.727 559.682 235.576 561.434 235.576 563.648C235.576 564.82 235.23 565.887 234.539 566.848C233.859 567.809 233.068 568.541 232.166 569.045C233.291 569.525 234.229 570.281 234.979 571.312C235.74 572.344 236.121 573.504 236.121 574.793C236.121 577.055 235.277 578.883 233.59 580.277ZM223.588 566.232C224.232 566.783 225.164 567.059 226.383 567.059C227.613 567.059 228.551 566.783 229.195 566.232C229.852 565.682 230.18 564.938 230.18 564C230.18 563.062 229.852 562.318 229.195 561.768C228.551 561.217 227.613 560.941 226.383 560.941C225.164 560.941 224.232 561.217 223.588 561.768C222.943 562.318 222.621 563.062 222.621 564C222.621 564.938 222.943 565.682 223.588 566.232ZM240.428 582L249.428 561.662H237.721L237.721 556.793H255.176L255.176 561.662L246.176 582H240.428ZM259.57 581.35C259.02 581.9 258.334 582.176 257.514 582.176C256.705 582.176 256.025 581.9 255.475 581.35C254.924 580.799 254.648 580.119 254.648 579.311C254.648 578.49 254.924 577.805 255.475 577.254C256.025 576.703 256.705 576.428 257.514 576.428C258.334 576.428 259.02 576.703 259.57 577.254C260.121 577.805 260.396 578.49 260.396 579.311C260.396 580.119 260.121 580.799 259.57 581.35ZM262.945 582L262.945 577.148L273.914 567.428C275.109 566.396 275.713 565.371 275.725 564.352C275.725 562.312 274.523 561.293 272.121 561.293C271.113 561.293 270.27 561.562 269.59 562.102C268.922 562.629 268.506 563.379 268.342 564.352H262.945C263.238 561.996 264.135 560.092 265.635 558.639C267.146 557.174 269.309 556.441 272.121 556.441C275.145 556.441 277.43 557.133 278.977 558.516C280.523 559.887 281.297 561.715 281.297 564C281.297 566.309 280.16 568.471 277.887 570.486L270.328 577.148H281.666L281.666 582H262.945ZM302.496 579.047C300.563 581.25 297.926 582.352 294.586 582.352C291.258 582.352 288.627 581.25 286.693 579.047C284.76 576.844 283.793 573.633 283.793 569.414C283.793 565.184 284.76 561.967 286.693 559.764C288.627 557.549 291.258 556.441 294.586 556.441C297.926 556.441 300.563 557.549 302.496 559.764C304.43 561.967 305.396 565.184 305.396 569.414C305.396 573.633 304.43 576.844 302.496 579.047ZM290.736 575.426C291.768 576.809 293.051 577.5 294.586 577.5C296.121 577.5 297.404 576.809 298.436 575.426C299.479 574.043 300 572.033 300 569.396C300 566.76 299.479 564.75 298.436 563.367C297.404 561.984 296.121 561.293 294.586 561.293C293.051 561.293 291.768 561.984 290.736 563.367C289.705 564.75 289.189 566.76 289.189 569.396C289.189 572.033 289.705 574.043 290.736 575.426ZM326.965 579.047C325.031 581.25 322.395 582.352 319.055 582.352C315.727 582.352 313.096 581.25 311.162 579.047C309.229 576.844 308.262 573.633 308.262 569.414C308.262 565.184 309.229 561.967 311.162 559.764C313.096 557.549 315.727 556.441 319.055 556.441C322.395 556.441 325.031 557.549 326.965 559.764C328.898 561.967 329.865 565.184 329.865 569.414C329.865 573.633 328.898 576.844 326.965 579.047ZM315.205 575.426C316.236 576.809 317.52 577.5 319.055 577.5C320.59 577.5 321.873 576.809 322.904 575.426C323.947 574.043 324.469 572.033 324.469 569.396C324.469 566.76 323.947 564.75 322.904 563.367C321.873 561.984 320.59 561.293 319.055 561.293C317.52 561.293 316.236 561.984 315.205 563.367C314.174 564.75 313.658 566.76 313.658 569.396C313.658 572.033 314.174 574.043 315.205 575.426Z" fill="#345995"/>
<path d="M92.6484 535.371C91.5 536.613 89.918 537.234 87.9023 537.234C85.8867 537.234 84.3008 536.613 83.1445 535.371C81.9961 534.121 81.4219 532.344 81.4219 530.039L81.4219 520.195H83.4609L83.4609 530.039C83.4609 531.75 83.8633 533.078 84.668 534.023C85.4805 534.969 86.5586 535.441 87.9023 535.441C89.2461 535.441 90.3203 534.969 91.125 534.023C91.9375 533.078 92.3438 531.75 92.3438 530.039L92.3438 520.195H94.3828L94.3828 530.039C94.3828 532.344 93.8047 534.121 92.6484 535.371ZM97.9805 537L97.9805 524.52H99.4219L99.668 526.195H99.7852C100.535 524.914 101.734 524.277 103.383 524.285C104.727 524.285 105.844 524.746 106.734 525.668C107.625 526.582 108.07 527.801 108.07 529.324L108.07 537H106.266L106.266 529.324C106.266 528.27 105.977 527.445 105.398 526.852C104.82 526.258 104.07 525.961 103.148 525.961C102.203 525.961 101.406 526.293 100.758 526.957C100.109 527.621 99.7852 528.41 99.7852 529.324L99.7852 537H97.9805ZM116.461 537.234C114.734 537.234 113.34 536.668 112.277 535.535C111.223 534.402 110.695 532.812 110.695 530.766C110.695 528.711 111.223 527.117 112.277 525.984C113.332 524.852 114.727 524.285 116.461 524.285C117.68 524.285 118.738 524.586 119.637 525.188C120.543 525.781 121.203 526.641 121.617 527.766H119.695C118.977 526.562 117.898 525.961 116.461 525.961C115.273 525.961 114.316 526.383 113.59 527.227C112.863 528.062 112.5 529.242 112.5 530.766C112.5 532.281 112.863 533.461 113.59 534.305C114.316 535.141 115.273 535.559 116.461 535.559C117.898 535.559 118.977 534.961 119.695 533.766H121.617C121.203 534.883 120.543 535.742 119.637 536.344C118.738 536.938 117.68 537.234 116.461 537.234ZM127.746 535.559C128.918 535.559 129.848 535.227 130.535 534.562C131.23 533.898 131.578 533.07 131.578 532.078L131.578 531.234H128.098C127.152 531.234 126.438 531.43 125.953 531.82C125.469 532.203 125.227 532.73 125.227 533.402C125.227 534.059 125.449 534.582 125.895 534.973C126.348 535.363 126.965 535.559 127.746 535.559ZM127.746 537.234C126.449 537.234 125.402 536.871 124.605 536.145C123.816 535.418 123.422 534.504 123.422 533.402C123.422 532.285 123.836 531.367 124.664 530.648C125.5 529.922 126.645 529.559 128.098 529.559H131.578L131.578 528.715C131.578 527.887 131.301 527.223 130.746 526.723C130.199 526.215 129.477 525.961 128.578 525.961C127.055 525.961 126.094 526.562 125.695 527.766H123.785C124.074 526.648 124.641 525.789 125.484 525.188C126.336 524.586 127.367 524.285 128.578 524.285C130.063 524.285 131.234 524.688 132.094 525.492C132.953 526.297 133.383 527.371 133.383 528.715L133.383 537H131.941L131.695 535.324H131.578C131.305 535.801 130.816 536.238 130.113 536.637C129.418 537.035 128.629 537.234 127.746 537.234ZM140.566 537C139.668 537 138.922 536.703 138.328 536.109C137.742 535.516 137.449 534.773 137.449 533.883L137.449 526.195H135.527L135.527 524.52H137.449L137.695 521.156H139.254L139.254 524.52H142.488L142.488 526.195H139.254L139.254 533.883C139.254 534.297 139.387 534.641 139.652 534.914C139.926 535.188 140.273 535.324 140.695 535.324H142.488L142.488 537H140.566ZM150.07 537.234C148.344 537.234 146.949 536.668 145.887 535.535C144.832 534.402 144.305 532.812 144.305 530.766C144.305 528.711 144.828 527.117 145.875 525.984C146.922 524.852 148.277 524.285 149.941 524.285C150.855 524.285 151.684 524.465 152.426 524.824C153.176 525.184 153.773 525.652 154.219 526.23C154.664 526.801 155.004 527.414 155.238 528.07C155.473 528.727 155.59 529.383 155.59 530.039L155.461 531.234H146.109C146.172 532.625 146.566 533.695 147.293 534.445C148.02 535.188 148.945 535.559 150.07 535.559C151.508 535.559 152.586 534.961 153.305 533.766H155.227C154.813 534.883 154.152 535.742 153.246 536.344C152.348 536.938 151.289 537.234 150.07 537.234ZM146.109 529.676H153.785C153.676 528.504 153.27 527.594 152.566 526.945C151.863 526.289 150.988 525.961 149.941 525.961C148.902 525.961 148.031 526.289 147.328 526.945C146.625 527.594 146.219 528.504 146.109 529.676ZM163.5 541.805C162.188 541.805 161.039 541.488 160.055 540.855C159.07 540.223 158.379 539.297 157.98 538.078H159.891C160.516 539.438 161.719 540.117 163.5 540.117C164.617 540.117 165.516 539.832 166.195 539.262C166.875 538.699 167.215 537.867 167.215 536.766L167.215 534.598H167.098C166.23 535.715 164.91 536.277 163.137 536.285C161.535 536.285 160.234 535.754 159.234 534.691C158.234 533.621 157.734 532.152 157.734 530.285C157.734 528.41 158.234 526.941 159.234 525.879C160.234 524.816 161.535 524.285 163.137 524.285C164.926 524.285 166.285 524.883 167.215 526.078H167.332L167.578 524.52H169.02L169.02 536.766C169.02 538.352 168.516 539.586 167.508 540.469C166.5 541.359 165.164 541.805 163.5 541.805ZM160.582 533.461C161.277 534.219 162.207 534.598 163.371 534.598C164.543 534.598 165.477 534.219 166.172 533.461C166.867 532.703 167.215 531.645 167.215 530.285C167.215 528.918 166.867 527.855 166.172 527.098C165.477 526.34 164.543 525.961 163.371 525.961C162.207 525.961 161.277 526.34 160.582 527.098C159.887 527.855 159.539 528.918 159.539 530.285C159.539 531.645 159.887 532.703 160.582 533.461ZM181.711 535.535C180.656 536.668 179.262 537.234 177.527 537.234C175.801 537.234 174.41 536.668 173.355 535.535C172.301 534.402 171.773 532.812 171.773 530.766C171.773 528.711 172.301 527.117 173.355 525.984C174.41 524.852 175.801 524.285 177.527 524.285C179.262 524.285 180.656 524.852 181.711 525.984C182.766 527.117 183.293 528.711 183.293 530.766C183.293 532.812 182.766 534.402 181.711 535.535ZM174.668 534.305C175.395 535.141 176.348 535.559 177.527 535.559C178.715 535.559 179.672 535.141 180.398 534.305C181.133 533.461 181.5 532.281 181.5 530.766C181.5 529.242 181.133 528.062 180.398 527.227C179.672 526.383 178.715 525.961 177.527 525.961C176.348 525.961 175.395 526.383 174.668 527.227C173.941 528.062 173.578 529.242 173.578 530.766C173.578 532.281 173.941 533.461 174.668 534.305ZM186.059 537L186.059 524.52H187.5L187.746 526.195H187.863C188.535 525.078 189.656 524.52 191.227 524.52H192.539L192.539 526.195H191.227C190.266 526.195 189.465 526.492 188.824 527.086C188.184 527.68 187.863 528.426 187.863 529.324L187.863 537H186.059ZM194.59 537L194.59 524.52H196.395L196.395 537H194.59ZM196.395 522.352C196.152 522.594 195.855 522.715 195.504 522.715C195.152 522.715 194.852 522.598 194.602 522.363C194.359 522.121 194.238 521.824 194.238 521.473C194.238 521.121 194.359 520.82 194.602 520.57C194.852 520.32 195.152 520.195 195.504 520.195C195.855 520.195 196.152 520.32 196.395 520.57C196.637 520.82 196.758 521.121 196.758 521.473C196.758 521.809 196.637 522.102 196.395 522.352ZM203.707 537.234C202.473 537.234 201.422 536.918 200.555 536.285C199.695 535.645 199.148 534.805 198.914 533.766H200.836C201.016 534.344 201.367 534.789 201.891 535.102C202.414 535.406 203.02 535.559 203.707 535.559C204.684 535.559 205.426 535.383 205.934 535.031C206.449 534.68 206.707 534.215 206.707 533.637C206.707 533.16 206.523 532.773 206.156 532.477C205.789 532.18 205.328 531.973 204.773 531.855C204.227 531.73 203.633 531.582 202.992 531.41C202.352 531.23 201.754 531.039 201.199 530.836C200.652 530.625 200.191 530.258 199.816 529.734C199.449 529.203 199.266 528.547 199.266 527.766C199.266 526.82 199.672 526.004 200.484 525.316C201.305 524.629 202.379 524.285 203.707 524.285C204.824 524.285 205.805 524.559 206.648 525.105C207.492 525.645 208.031 526.41 208.266 527.402H206.355C205.941 526.441 205.059 525.961 203.707 525.961C202.824 525.961 202.164 526.121 201.727 526.441C201.289 526.762 201.07 527.203 201.07 527.766C201.07 528.359 201.324 528.82 201.832 529.148C202.348 529.469 202.969 529.711 203.695 529.875C204.422 530.031 205.148 530.211 205.875 530.414C206.609 530.609 207.23 530.977 207.738 531.516C208.254 532.055 208.512 532.762 208.512 533.637C208.512 534.629 208.074 535.477 207.199 536.18C206.324 536.883 205.16 537.234 203.707 537.234ZM216.188 537.234C214.461 537.234 213.066 536.668 212.004 535.535C210.949 534.402 210.422 532.812 210.422 530.766C210.422 528.711 210.945 527.117 211.992 525.984C213.039 524.852 214.395 524.285 216.059 524.285C216.973 524.285 217.801 524.465 218.543 524.824C219.293 525.184 219.891 525.652 220.336 526.23C220.781 526.801 221.121 527.414 221.355 528.07C221.59 528.727 221.707 529.383 221.707 530.039L221.578 531.234H212.227C212.289 532.625 212.684 533.695 213.41 534.445C214.137 535.188 215.063 535.559 216.188 535.559C217.625 535.559 218.703 534.961 219.422 533.766H221.344C220.93 534.883 220.27 535.742 219.363 536.344C218.465 536.938 217.406 537.234 216.188 537.234ZM212.227 529.676H219.902C219.793 528.504 219.387 527.594 218.684 526.945C217.98 526.289 217.105 525.961 216.059 525.961C215.02 525.961 214.148 526.289 213.445 526.945C212.742 527.594 212.336 528.504 212.227 529.676ZM226.699 534.316C227.395 535.145 228.324 535.559 229.488 535.559C230.66 535.559 231.594 535.145 232.289 534.316C232.984 533.48 233.332 532.297 233.332 530.766C233.332 529.227 232.984 528.043 232.289 527.215C231.594 526.379 230.66 525.961 229.488 525.961C228.324 525.961 227.395 526.379 226.699 527.215C226.004 528.043 225.656 529.227 225.656 530.766C225.656 532.297 226.004 533.48 226.699 534.316ZM229.254 537.234C227.652 537.234 226.352 536.668 225.352 535.535C224.352 534.402 223.852 532.812 223.852 530.766C223.852 528.711 224.352 527.117 225.352 525.984C226.352 524.852 227.652 524.285 229.254 524.285C230.965 524.285 232.285 524.883 233.215 526.078H233.332L233.332 520.195H235.137L235.137 537H233.695L233.449 535.324H233.332C232.434 536.598 231.074 537.234 229.254 537.234Z" fill="#345995"/>
<path d="M394.448 534.176C393.294 534.176 392.318 533.868 391.521 533.253C390.725 532.638 390.262 531.776 390.133 530.669H391.662C391.744 531.29 392.049 531.806 392.576 532.216C393.104 532.626 393.728 532.831 394.448 532.831C395.327 532.831 396.013 532.617 396.505 532.189C396.997 531.762 397.243 531.226 397.243 530.581C397.243 529.931 396.997 529.395 396.505 528.973C396.013 528.545 395.327 528.331 394.448 528.331H393.552L393.552 527.074H394.448C395.274 527.074 395.916 526.863 396.373 526.441C396.83 526.02 397.059 525.48 397.059 524.824C397.059 524.162 396.83 523.623 396.373 523.207C395.922 522.785 395.28 522.574 394.448 522.574C393.774 522.574 393.194 522.776 392.708 523.181C392.228 523.579 391.938 524.095 391.838 524.728H390.309C390.49 523.626 390.953 522.768 391.697 522.152C392.441 521.531 393.358 521.221 394.448 521.221C395.731 521.221 396.742 521.558 397.48 522.231C398.219 522.899 398.588 523.764 398.588 524.824C398.588 526.242 397.958 527.171 396.698 527.61C397.36 527.827 397.87 528.202 398.228 528.735C398.591 529.269 398.772 529.884 398.772 530.581C398.772 531.612 398.386 532.471 397.612 533.156C396.845 533.836 395.79 534.176 394.448 534.176ZM409.513 532.506C408.569 533.619 407.33 534.176 405.795 534.176C404.26 534.176 403.021 533.619 402.077 532.506C401.134 531.393 400.662 529.793 400.662 527.707C400.662 525.615 401.134 524.013 402.077 522.899C403.021 521.78 404.26 521.221 405.795 521.221C407.33 521.221 408.569 521.78 409.513 522.899C410.456 524.013 410.928 525.615 410.928 527.707C410.928 529.793 410.456 531.393 409.513 532.506ZM403.202 531.53C403.876 532.397 404.74 532.831 405.795 532.831C406.85 532.831 407.714 532.397 408.388 531.53C409.062 530.657 409.398 529.38 409.398 527.698C409.398 526.017 409.062 524.742 408.388 523.875C407.714 523.008 406.85 522.574 405.795 522.574C404.74 522.574 403.876 523.008 403.202 523.875C402.528 524.742 402.191 526.017 402.191 527.698C402.191 529.38 402.528 530.657 403.202 531.53ZM413.802 534L421.633 521.396H423.25L415.428 534H413.802ZM423.83 533.402C423.314 533.918 422.641 534.176 421.809 534.176C420.982 534.176 420.312 533.918 419.796 533.402C419.28 532.887 419.022 532.187 419.022 531.302C419.022 530.411 419.28 529.708 419.796 529.192C420.312 528.677 420.982 528.419 421.809 528.419C422.641 528.419 423.314 528.677 423.83 529.192C424.346 529.708 424.604 530.411 424.604 531.302C424.604 532.187 424.346 532.887 423.83 533.402ZM420.71 532.55C420.991 532.854 421.357 533.007 421.809 533.007C422.266 533.007 422.635 532.854 422.916 532.55C423.203 532.245 423.347 531.829 423.347 531.302C423.347 530.774 423.203 530.358 422.916 530.054C422.635 529.743 422.266 529.588 421.809 529.588C421.357 529.588 420.991 529.743 420.71 530.054C420.429 530.358 420.288 530.774 420.288 531.302C420.288 531.829 420.429 532.245 420.71 532.55ZM417.256 526.204C416.74 526.72 416.069 526.978 415.243 526.978C414.417 526.978 413.746 526.72 413.23 526.204C412.715 525.688 412.457 524.988 412.457 524.104C412.457 523.213 412.715 522.51 413.23 521.994C413.746 521.479 414.417 521.221 415.243 521.221C416.069 521.221 416.74 521.479 417.256 521.994C417.777 522.51 418.038 523.213 418.038 524.104C418.038 524.988 417.777 525.688 417.256 526.204ZM414.136 525.352C414.417 525.656 414.786 525.809 415.243 525.809C415.7 525.809 416.069 525.656 416.351 525.352C416.632 525.047 416.772 524.631 416.772 524.104C416.772 523.57 416.632 523.151 416.351 522.847C416.069 522.542 415.7 522.39 415.243 522.39C414.786 522.39 414.417 522.542 414.136 522.847C413.854 523.151 413.714 523.57 413.714 524.104C413.714 524.631 413.854 525.047 414.136 525.352Z" fill="#345995"/>
</g>
</g>
<defs>
<filter id="filter0_d_1319_4379" x="-7.5" y="23" width="517" height="666" filterUnits="userSpaceOnUse" color-interpolation-filters="sRGB">
<feFlood flood-opacity="0" result="BackgroundImageFix"/>
<feColorMatrix in="SourceAlpha" type="matrix" values="0 0 0 0 0 0 0 0 0 0 0 0 0 0 0 0 0 0 127 0" result="hardAlpha"/>
<feMorphology radius="8" operator="dilate" in="SourceAlpha" result="effect1_dropShadow_1319_4379"/>
<feOffset dy="9"/>
<feGaussianBlur stdDeviation="23"/>
<feComposite in2="hardAlpha" operator="out"/>
<feColorMatrix type="matrix" values="0 0 0 0 0 0 0 0 0 0 0 0 0 0 0 0 0 0 0.14 0"/>
<feBlend mode="normal" in2="BackgroundImageFix" result="effect1_dropShadow_1319_4379"/>
<feBlend mode="normal" in="SourceGraphic" in2="effect1_dropShadow_1319_4379" result="shape"/>
</filter>
<clipPath id="clip0_1319_4379">
<rect x="0.5" width="501" height="694" rx="50" fill="white"/>
</clipPath>
</defs>
</svg>
