<svg width="400" height="486" viewBox="0 0 400 486" fill="none" xmlns="http://www.w3.org/2000/svg">
<rect width="400" height="486" rx="50" fill="url(#paint0_linear_1633_3431)"/>
<g filter="url(#filter0_d_1633_3431)">
<rect x="40" y="29" width="320" height="428.28" rx="25" fill="white"/>
<path d="M64.502 60V48.7012H60.3027V45.9961H71.6992V48.7012H67.5V60H64.502ZM72.0871 60V49.4043H74.4895L74.7824 50.5957H74.8898C75.4237 49.7949 76.257 49.3978 77.3898 49.4043H78.6887V52.0996H77.5852C76.7453 52.0996 76.0845 52.334 75.6027 52.8027C75.1275 53.265 74.8898 53.8965 74.8898 54.6973V60H72.0871ZM84.0961 57.9004C84.7471 57.9004 85.2745 57.7181 85.6781 57.3535C86.0883 56.9824 86.2934 56.4974 86.2934 55.8984V55.5957H83.9008C83.432 55.5957 83.0805 55.6999 82.8461 55.9082C82.6117 56.1165 82.4945 56.3802 82.4945 56.6992C82.4945 57.0573 82.628 57.347 82.8949 57.5684C83.1618 57.7897 83.5622 57.9004 84.0961 57.9004ZM83.393 60.1953C82.2602 60.1953 81.3585 59.8893 80.6879 59.2773C80.0238 58.6654 79.6918 57.8743 79.6918 56.9043C79.6918 55.9147 80.0499 55.1172 80.766 54.5117C81.4822 53.9062 82.4913 53.6035 83.7934 53.6035H86.2934V53.0957C86.2934 52.6009 86.1339 52.2298 85.8148 51.9824C85.4958 51.7285 85.0564 51.6016 84.4965 51.6016C84.1124 51.6016 83.7771 51.6895 83.4906 51.8652C83.2042 52.0345 83.0056 52.2461 82.8949 52.5H80.0922C80.3201 51.556 80.8116 50.7715 81.5668 50.1465C82.322 49.515 83.3311 49.1992 84.5941 49.1992C86.0069 49.1992 87.1104 49.5475 87.9047 50.2441C88.699 50.9342 89.0961 51.9206 89.0961 53.2031V60H86.6938L86.4008 58.7988H86.2934C85.6684 59.7298 84.7016 60.1953 83.393 60.1953ZM91.691 60V49.4043H94.0934L94.3863 50.5957H94.4937C95.2164 49.6647 96.1474 49.1992 97.2867 49.1992C98.4586 49.1992 99.4026 49.5833 100.119 50.3516C100.835 51.1198 101.193 52.168 101.193 53.4961V60H98.3902V53.8965C98.3902 53.2064 98.2242 52.6693 97.8922 52.2852C97.5602 51.8945 97.0914 51.6992 96.4859 51.6992C95.887 51.6992 95.4052 51.9043 95.0406 52.3145C94.676 52.7181 94.4937 53.2454 94.4937 53.8965V60H91.691ZM107.684 60.1953C106.233 60.1953 105.126 59.873 104.364 59.2285C103.609 58.584 103.15 57.7409 102.987 56.6992H105.985C106.037 56.9661 106.216 57.2005 106.522 57.4023C106.835 57.5977 107.222 57.6953 107.684 57.6953C108.882 57.6953 109.485 57.4316 109.491 56.9043C109.491 56.6634 109.338 56.4714 109.032 56.3281C108.733 56.1784 108.355 56.0742 107.899 56.0156C107.45 55.9505 106.962 55.8464 106.434 55.7031C105.907 55.5534 105.415 55.3776 104.96 55.1758C104.511 54.9674 104.136 54.6257 103.837 54.1504C103.537 53.6751 103.388 53.0924 103.388 52.4023C103.388 51.4714 103.762 50.7064 104.511 50.1074C105.266 49.502 106.324 49.1992 107.684 49.1992C109.097 49.1992 110.178 49.502 110.927 50.1074C111.675 50.7129 112.128 51.5104 112.284 52.5H109.286C109.156 51.9661 108.622 51.6992 107.684 51.6992C107.242 51.6992 106.897 51.7676 106.649 51.9043C106.408 52.0345 106.288 52.2005 106.288 52.4023C106.288 52.6432 106.438 52.8385 106.737 52.9883C107.037 53.1315 107.411 53.2324 107.86 53.291C108.316 53.3496 108.807 53.4538 109.335 53.6035C109.862 53.7467 110.35 53.9225 110.8 54.1309C111.255 54.3392 111.633 54.681 111.932 55.1562C112.238 55.625 112.391 56.2077 112.391 56.9043C112.391 57.8613 112.024 58.6491 111.288 59.2676C110.552 59.8861 109.351 60.1953 107.684 60.1953ZM118.18 57.9004C118.831 57.9004 119.358 57.7181 119.762 57.3535C120.172 56.9824 120.377 56.4974 120.377 55.8984V55.5957H117.984C117.516 55.5957 117.164 55.6999 116.93 55.9082C116.695 56.1165 116.578 56.3802 116.578 56.6992C116.578 57.0573 116.712 57.347 116.979 57.5684C117.245 57.7897 117.646 57.9004 118.18 57.9004ZM117.477 60.1953C116.344 60.1953 115.442 59.8893 114.771 59.2773C114.107 58.6654 113.775 57.8743 113.775 56.9043C113.775 55.9147 114.133 55.1172 114.85 54.5117C115.566 53.9062 116.575 53.6035 117.877 53.6035H120.377V53.0957C120.377 52.6009 120.217 52.2298 119.898 51.9824C119.579 51.7285 119.14 51.6016 118.58 51.6016C118.196 51.6016 117.861 51.6895 117.574 51.8652C117.288 52.0345 117.089 52.2461 116.979 52.5H114.176C114.404 51.556 114.895 50.7715 115.65 50.1465C116.406 49.515 117.415 49.1992 118.678 49.1992C120.09 49.1992 121.194 49.5475 121.988 50.2441C122.783 50.9342 123.18 51.9206 123.18 53.2031V60H120.777L120.484 58.7988H120.377C119.752 59.7298 118.785 60.1953 117.477 60.1953ZM130.472 60.1953C128.857 60.1953 127.588 59.7135 126.663 58.75C125.739 57.7865 125.277 56.4388 125.277 54.707C125.277 52.9688 125.739 51.6178 126.663 50.6543C127.588 49.6842 128.857 49.1992 130.472 49.1992C131.872 49.1992 132.969 49.554 133.763 50.2637C134.557 50.9668 135.094 51.8783 135.374 52.998H132.571C132.142 52.1322 131.442 51.6992 130.472 51.6992C129.749 51.6992 129.167 51.9564 128.724 52.4707C128.288 52.985 128.07 53.7305 128.07 54.707C128.07 55.6771 128.291 56.4193 128.734 56.9336C129.176 57.4414 129.756 57.6953 130.472 57.6953C131.448 57.6953 132.148 57.2624 132.571 56.3965H135.374C135.094 57.5163 134.557 58.431 133.763 59.1406C132.969 59.8438 131.872 60.1953 130.472 60.1953ZM141.68 60C139.48 60 138.379 58.9681 138.379 56.9043V52.002H136.68V49.4043H138.379L138.78 46.6016H141.182V49.4043H143.682V52.002H141.182V56.3965C141.182 56.6895 141.27 56.9303 141.446 57.1191C141.628 57.3079 141.872 57.4023 142.178 57.4023H143.682V60H141.68ZM145.984 60V49.4043H148.787V60H145.984ZM148.523 47.8418C148.217 48.1478 147.836 48.3008 147.38 48.3008C146.931 48.3008 146.55 48.1478 146.238 47.8418C145.932 47.5358 145.779 47.1549 145.779 46.6992C145.779 46.2435 145.932 45.8626 146.238 45.5566C146.55 45.2507 146.931 45.0977 147.38 45.0977C147.836 45.0977 148.217 45.2507 148.523 45.5566C148.829 45.8626 148.982 46.2435 148.982 46.6992C148.982 47.1549 148.829 47.5358 148.523 47.8418ZM159.985 58.75C159.061 59.7135 157.791 60.1953 156.177 60.1953C154.562 60.1953 153.292 59.7135 152.368 58.75C151.443 57.7865 150.981 56.4388 150.981 54.707C150.981 52.9688 151.443 51.6178 152.368 50.6543C153.292 49.6842 154.562 49.1992 156.177 49.1992C157.791 49.1992 159.061 49.6842 159.985 50.6543C160.916 51.6178 161.382 52.9688 161.382 54.707C161.382 56.4388 160.916 57.7865 159.985 58.75ZM154.458 56.9531C154.914 57.4479 155.486 57.6953 156.177 57.6953C156.873 57.6953 157.446 57.4479 157.895 56.9531C158.351 56.4518 158.579 55.7031 158.579 54.707C158.579 53.7044 158.351 52.9525 157.895 52.4512C157.446 51.9499 156.873 51.6992 156.177 51.6992C155.486 51.6992 154.914 51.9499 154.458 52.4512C154.002 52.9525 153.774 53.7044 153.774 54.707C153.774 55.7031 154.002 56.4518 154.458 56.9531ZM163.576 60V49.4043H165.979L166.271 50.5957H166.379C167.102 49.6647 168.033 49.1992 169.172 49.1992C170.344 49.1992 171.288 49.5833 172.004 50.3516C172.72 51.1198 173.078 52.168 173.078 53.4961V60H170.275V53.8965C170.275 53.2064 170.109 52.6693 169.777 52.2852C169.445 51.8945 168.977 51.6992 168.371 51.6992C167.772 51.6992 167.29 51.9043 166.926 52.3145C166.561 52.7181 166.379 53.2454 166.379 53.8965V60H163.576ZM179.57 60.1953C178.118 60.1953 177.011 59.873 176.249 59.2285C175.494 58.584 175.035 57.7409 174.872 56.6992H177.87C177.922 56.9661 178.101 57.2005 178.407 57.4023C178.72 57.5977 179.107 57.6953 179.57 57.6953C180.767 57.6953 181.37 57.4316 181.376 56.9043C181.376 56.6634 181.223 56.4714 180.917 56.3281C180.618 56.1784 180.24 56.0742 179.784 56.0156C179.335 55.9505 178.847 55.8464 178.32 55.7031C177.792 55.5534 177.301 55.3776 176.845 55.1758C176.396 54.9674 176.021 54.6257 175.722 54.1504C175.422 53.6751 175.273 53.0924 175.273 52.4023C175.273 51.4714 175.647 50.7064 176.396 50.1074C177.151 49.502 178.209 49.1992 179.57 49.1992C180.982 49.1992 182.063 49.502 182.812 50.1074C183.56 50.7129 184.013 51.5104 184.169 52.5H181.171C181.041 51.9661 180.507 51.6992 179.57 51.6992C179.127 51.6992 178.782 51.7676 178.534 51.9043C178.293 52.0345 178.173 52.2005 178.173 52.4023C178.173 52.6432 178.323 52.8385 178.622 52.9883C178.922 53.1315 179.296 53.2324 179.745 53.291C180.201 53.3496 180.693 53.4538 181.22 53.6035C181.747 53.7467 182.236 53.9225 182.685 54.1309C183.14 54.3392 183.518 54.681 183.818 55.1562C184.124 55.625 184.277 56.2077 184.277 56.9043C184.277 57.8613 183.909 58.6491 183.173 59.2676C182.437 59.8861 181.236 60.1953 179.57 60.1953Z" fill="#001A40"/>
<path d="M213.5 94L216.5 98L219.5 94" stroke="black" stroke-linecap="round" stroke-linejoin="round"/>
<path d="M192.329 95.8332C194.29 94.9437 194.58 92.041 191.79 92.041H188.56L187.366 94.3819H187.928L186.5 99.9766H190.245C192.978 100 194.207 96.7824 192.329 95.8332ZM190.245 97.94H189.309L189.66 96.676H190.55C191.603 96.8866 190.948 97.9868 190.245 97.94ZM190.807 95.248H190.011L190.245 94.1477H191.135C191.994 94.3584 191.252 95.2948 190.807 95.248Z" fill="#005FAF"/>
<path d="M199.998 95.0306L201.224 92.8656L199.565 92L199.348 92.2671C198.453 91.7933 193.765 92.4476 193.472 97.0719C193.647 100.951 197.994 100.253 198.42 100.007L199.616 97.5358C198.445 98.307 196.047 98.6772 195.946 96.3605C196.156 94.4501 198.412 93.7366 199.998 95.0306ZM206.118 92.0409H202.347L201.149 94.3118H201.765L198.923 99.9766H201.673L202.238 98.6103H203.926L203.968 99.9766H206.5L206.118 92.0409ZM203.003 96.7706L203.926 94.5668L203.968 96.7706H203.003Z" fill="#005FAF"/>
<path d="M107.952 142V122.395H116.36C118.338 122.395 119.929 122.982 121.132 124.158C122.335 125.334 122.936 126.893 122.936 128.834C122.936 129.745 122.795 130.584 122.512 131.35C122.239 132.106 121.906 132.699 121.514 133.127C121.123 133.555 120.726 133.924 120.325 134.234C119.924 134.535 119.582 134.736 119.3 134.836L118.876 135L123.634 142H118.876L114.391 135.273H112.163V142H107.952ZM112.163 131.5H116.073C116.857 131.5 117.495 131.263 117.987 130.789C118.488 130.315 118.739 129.668 118.739 128.848C118.739 128.018 118.488 127.367 117.987 126.893C117.495 126.419 116.857 126.182 116.073 126.182H112.163V131.5ZM126.326 147.605V127.166H129.689L130.1 128.834H130.25C131.371 127.531 132.77 126.879 134.447 126.879C136.389 126.879 137.947 127.549 139.123 128.889C140.299 130.219 140.887 132.12 140.887 134.59C140.887 137.051 140.299 138.947 139.123 140.277C137.947 141.608 136.389 142.273 134.447 142.273C132.715 142.273 131.362 141.667 130.387 140.455H130.25V147.605H126.326ZM131.193 137.734C131.831 138.427 132.633 138.773 133.6 138.773C134.575 138.773 135.377 138.427 136.006 137.734C136.644 137.033 136.963 135.984 136.963 134.59C136.963 133.186 136.644 132.133 136.006 131.432C135.377 130.73 134.575 130.379 133.6 130.379C132.633 130.379 131.831 130.73 131.193 131.432C130.564 132.133 130.25 133.186 130.25 134.59C130.25 135.984 130.564 137.033 131.193 137.734ZM153.819 142V128.424H149.909V124.637H152.698C153.445 124.637 153.819 124.263 153.819 123.516V122.395H158.03V142H153.819ZM163.074 142L170.074 126.182H160.968V122.395H174.545V126.182L167.545 142H163.074ZM178.262 141.494C177.834 141.923 177.301 142.137 176.663 142.137C176.034 142.137 175.505 141.923 175.077 141.494C174.649 141.066 174.434 140.537 174.434 139.908C174.434 139.27 174.649 138.737 175.077 138.309C175.505 137.88 176.034 137.666 176.663 137.666C177.301 137.666 177.834 137.88 178.262 138.309C178.691 138.737 178.905 139.27 178.905 139.908C178.905 140.537 178.691 141.066 178.262 141.494ZM188.748 142.273C186.788 142.273 185.13 141.745 183.771 140.688C182.423 139.621 181.607 138.099 181.324 136.121H185.521C185.667 136.832 186.009 137.406 186.547 137.844C187.094 138.281 187.777 138.5 188.598 138.5C189.701 138.5 190.535 138.217 191.1 137.652C191.674 137.078 191.961 136.285 191.961 135.273C191.961 134.38 191.665 133.624 191.072 133.004C190.489 132.375 189.664 132.061 188.598 132.061C187.331 132.061 186.351 132.576 185.658 133.605H181.598L182.719 122.395H195.037V126.045H186.219L185.809 129.682H185.945C186.857 129.025 188.069 128.697 189.582 128.697C191.505 128.697 193.082 129.322 194.312 130.57C195.543 131.81 196.158 133.428 196.158 135.424C196.158 137.402 195.511 139.038 194.217 140.332C192.923 141.626 191.1 142.273 188.748 142.273ZM203.527 137.652C204.128 138.217 204.948 138.5 205.987 138.5C207.036 138.5 207.856 138.217 208.448 137.652C209.05 137.078 209.351 136.335 209.351 135.424C209.351 134.476 209.023 133.701 208.366 133.1C207.719 132.498 206.931 132.197 206.001 132.197C204.953 132.197 204.128 132.489 203.527 133.072C202.934 133.646 202.638 134.43 202.638 135.424C202.638 136.335 202.934 137.078 203.527 137.652ZM206.001 142.273C203.723 142.273 201.89 141.622 200.505 140.318C199.129 139.015 198.441 137.333 198.441 135.273C198.441 133.46 199.138 131.454 200.532 129.258L204.88 122.395H209.501L205.29 128.984H205.441C205.723 128.893 206.188 128.843 206.835 128.834C208.886 128.834 210.517 129.463 211.73 130.721C212.951 131.969 213.562 133.537 213.562 135.424C213.562 137.438 212.883 139.083 211.525 140.359C210.176 141.635 208.334 142.273 206.001 142.273ZM221.053 138.076C221.655 138.541 222.48 138.773 223.528 138.773C224.576 138.773 225.396 138.541 225.989 138.076C226.59 137.611 226.891 136.96 226.891 136.121C226.891 135.283 226.59 134.631 225.989 134.166C225.396 133.692 224.576 133.455 223.528 133.455C222.48 133.455 221.655 133.692 221.053 134.166C220.461 134.631 220.164 135.283 220.164 136.121C220.164 136.96 220.461 137.611 221.053 138.076ZM229.12 140.66C227.816 141.736 225.952 142.273 223.528 142.273C221.103 142.273 219.235 141.736 217.922 140.66C216.619 139.576 215.967 138.154 215.967 136.395C215.967 135.383 216.259 134.48 216.842 133.688C217.435 132.885 218.168 132.298 219.043 131.924C218.332 131.532 217.713 130.962 217.184 130.215C216.655 129.467 216.391 128.638 216.391 127.727C216.391 126.013 217.047 124.65 218.36 123.639C219.672 122.627 221.39 122.121 223.514 122.121C225.647 122.121 227.37 122.627 228.682 123.639C230.004 124.641 230.664 126.004 230.664 127.727C230.664 128.638 230.396 129.467 229.858 130.215C229.329 130.962 228.714 131.532 228.012 131.924C228.887 132.298 229.616 132.885 230.2 133.688C230.792 134.49 231.088 135.392 231.088 136.395C231.088 138.154 230.432 139.576 229.12 140.66ZM221.34 129.736C221.842 130.165 222.566 130.379 223.514 130.379C224.471 130.379 225.2 130.165 225.702 129.736C226.212 129.308 226.467 128.729 226.467 128C226.467 127.271 226.212 126.692 225.702 126.264C225.2 125.835 224.471 125.621 223.514 125.621C222.566 125.621 221.842 125.835 221.34 126.264C220.839 126.692 220.588 127.271 220.588 128C220.588 128.729 220.839 129.308 221.34 129.736ZM237.322 141.494C236.893 141.923 236.36 142.137 235.722 142.137C235.093 142.137 234.565 141.923 234.136 141.494C233.708 141.066 233.494 140.537 233.494 139.908C233.494 139.27 233.708 138.737 234.136 138.309C234.565 137.88 235.093 137.666 235.722 137.666C236.36 137.666 236.893 137.88 237.322 138.309C237.75 138.737 237.964 139.27 237.964 139.908C237.964 140.537 237.75 141.066 237.322 141.494ZM240.247 142V138.227L248.778 130.666C249.708 129.864 250.177 129.066 250.186 128.273C250.186 126.688 249.252 125.895 247.384 125.895C246.6 125.895 245.943 126.104 245.415 126.523C244.895 126.934 244.572 127.517 244.444 128.273H240.247C240.475 126.441 241.172 124.96 242.339 123.83C243.514 122.691 245.196 122.121 247.384 122.121C249.735 122.121 251.512 122.659 252.716 123.734C253.919 124.801 254.52 126.223 254.52 128C254.52 129.796 253.636 131.477 251.868 133.045L245.989 138.227H254.807V142H240.247ZM271.309 139.703C269.805 141.417 267.754 142.273 265.156 142.273C262.568 142.273 260.521 141.417 259.018 139.703C257.514 137.99 256.762 135.492 256.762 132.211C256.762 128.921 257.514 126.419 259.018 124.705C260.521 122.982 262.568 122.121 265.156 122.121C267.754 122.121 269.805 122.982 271.309 124.705C272.812 126.419 273.564 128.921 273.564 132.211C273.564 135.492 272.812 137.99 271.309 139.703ZM262.162 136.887C262.964 137.962 263.962 138.5 265.156 138.5C266.35 138.5 267.348 137.962 268.15 136.887C268.962 135.811 269.367 134.248 269.367 132.197C269.367 130.146 268.962 128.583 268.15 127.508C267.348 126.432 266.35 125.895 265.156 125.895C263.962 125.895 262.964 126.432 262.162 127.508C261.36 128.583 260.959 130.146 260.959 132.197C260.959 134.248 261.36 135.811 262.162 136.887ZM290.64 139.703C289.136 141.417 287.085 142.273 284.488 142.273C281.899 142.273 279.853 141.417 278.349 139.703C276.845 137.99 276.093 135.492 276.093 132.211C276.093 128.921 276.845 126.419 278.349 124.705C279.853 122.982 281.899 122.121 284.488 122.121C287.085 122.121 289.136 122.982 290.64 124.705C292.144 126.419 292.896 128.921 292.896 132.211C292.896 135.492 292.144 137.99 290.64 139.703ZM281.493 136.887C282.295 137.962 283.293 138.5 284.488 138.5C285.682 138.5 286.68 137.962 287.482 136.887C288.293 135.811 288.698 134.248 288.698 132.197C288.698 130.146 288.293 128.583 287.482 127.508C286.68 126.432 285.682 125.895 284.488 125.895C283.293 125.895 282.295 126.432 281.493 127.508C280.691 128.583 280.29 130.146 280.29 132.197C280.29 134.248 280.691 135.811 281.493 136.887Z" fill="#2C5EA8"/>
<path d="M160.163 172L164.663 159.396H167.994L172.494 172H169.699L168.891 169.662H163.758L162.949 172H160.163ZM164.646 167.228H168.012L166.368 162.464H166.28L164.646 167.228ZM175.308 172L171.977 162.464H174.675L176.837 169.39H176.925L179.087 162.464H181.786L178.454 172H175.308ZM186.41 170.11C186.996 170.11 187.47 169.946 187.834 169.618C188.203 169.284 188.387 168.848 188.387 168.309V168.036H186.234C185.812 168.036 185.496 168.13 185.285 168.317C185.074 168.505 184.968 168.742 184.968 169.029C184.968 169.352 185.088 169.612 185.329 169.812C185.569 170.011 185.929 170.11 186.41 170.11ZM185.777 172.176C184.757 172.176 183.946 171.9 183.342 171.35C182.745 170.799 182.446 170.087 182.446 169.214C182.446 168.323 182.768 167.605 183.413 167.061C184.057 166.516 184.965 166.243 186.137 166.243H188.387V165.786C188.387 165.341 188.244 165.007 187.957 164.784C187.67 164.556 187.274 164.441 186.77 164.441C186.424 164.441 186.123 164.521 185.865 164.679C185.607 164.831 185.428 165.021 185.329 165.25H182.806C183.011 164.4 183.454 163.694 184.133 163.132C184.813 162.563 185.721 162.279 186.858 162.279C188.129 162.279 189.123 162.593 189.838 163.22C190.552 163.841 190.91 164.729 190.91 165.883V172H188.748L188.484 170.919H188.387C187.825 171.757 186.955 172.176 185.777 172.176ZM193.275 172V162.464H195.798V172H193.275ZM195.56 161.058C195.285 161.333 194.942 161.471 194.532 161.471C194.128 161.471 193.785 161.333 193.504 161.058C193.228 160.782 193.091 160.439 193.091 160.029C193.091 159.619 193.228 159.276 193.504 159.001C193.785 158.726 194.128 158.588 194.532 158.588C194.942 158.588 195.285 158.726 195.56 159.001C195.836 159.276 195.973 159.619 195.973 160.029C195.973 160.439 195.836 160.782 195.56 161.058ZM198.339 172V159.396H200.861V172H198.339ZM206.821 170.11C207.407 170.11 207.882 169.946 208.245 169.618C208.614 169.284 208.799 168.848 208.799 168.309V168.036H206.646C206.224 168.036 205.907 168.13 205.696 168.317C205.486 168.505 205.38 168.742 205.38 169.029C205.38 169.352 205.5 169.612 205.74 169.812C205.981 170.011 206.341 170.11 206.821 170.11ZM206.189 172.176C205.169 172.176 204.358 171.9 203.754 171.35C203.156 170.799 202.858 170.087 202.858 169.214C202.858 168.323 203.18 167.605 203.824 167.061C204.469 166.516 205.377 166.243 206.549 166.243H208.799V165.786C208.799 165.341 208.655 165.007 208.368 164.784C208.081 164.556 207.686 164.441 207.182 164.441C206.836 164.441 206.534 164.521 206.277 164.679C206.019 164.831 205.84 165.021 205.74 165.25H203.218C203.423 164.4 203.865 163.694 204.545 163.132C205.225 162.563 206.133 162.279 207.27 162.279C208.541 162.279 209.534 162.593 210.249 163.22C210.964 163.841 211.321 164.729 211.321 165.883V172H209.159L208.896 170.919H208.799C208.237 171.757 207.366 172.176 206.189 172.176ZM216.904 169.258C217.314 169.703 217.829 169.926 218.451 169.926C219.078 169.926 219.593 169.703 219.997 169.258C220.408 168.807 220.613 168.133 220.613 167.236C220.613 166.334 220.408 165.657 219.997 165.206C219.593 164.755 219.078 164.529 218.451 164.529C217.829 164.529 217.314 164.755 216.904 165.206C216.499 165.657 216.297 166.334 216.297 167.236C216.297 168.133 216.499 168.807 216.904 169.258ZM218.996 172.176C217.917 172.176 217.018 171.757 216.297 170.919H216.209L215.937 172H213.775V159.396H216.297V163.448H216.385C217.006 162.669 217.876 162.279 218.996 162.279C220.244 162.279 221.246 162.71 222.001 163.571C222.757 164.427 223.135 165.648 223.135 167.236C223.135 168.818 222.757 170.037 222.001 170.893C221.246 171.748 220.244 172.176 218.996 172.176ZM225.237 172V159.396H227.759V172H225.237ZM234.528 172.176C233.075 172.176 231.932 171.742 231.1 170.875C230.268 170.008 229.852 168.795 229.852 167.236C229.852 165.672 230.268 164.456 231.1 163.589C231.932 162.716 233.075 162.279 234.528 162.279C235.911 162.279 237.021 162.725 237.859 163.615C238.697 164.5 239.116 165.646 239.116 167.052L239.028 168.036H232.463C232.68 169.296 233.368 169.926 234.528 169.926C234.985 169.926 235.334 169.855 235.574 169.715C235.814 169.568 236.037 169.34 236.242 169.029H238.94C238.688 169.943 238.202 170.696 237.481 171.288C236.761 171.88 235.776 172.176 234.528 172.176ZM232.463 166.146H236.506C236.412 165.689 236.192 165.306 235.846 164.995C235.507 164.685 235.067 164.529 234.528 164.529C233.473 164.529 232.785 165.068 232.463 166.146Z" fill="#001A40"/>
<path d="M61.0474 235V224.497H68.1738V226.526H63.3032V229.001H67.8003V231.023H63.3032V235H61.0474ZM69.5944 235V227.053H71.3962L71.6159 227.947H71.6965C72.0969 227.346 72.7219 227.048 73.5715 227.053H74.5456V229.075H73.718C73.0881 229.075 72.5925 229.25 72.2312 229.602C71.8747 229.949 71.6965 230.422 71.6965 231.023V235H69.5944ZM75.9735 235V227.053H78.0756V235H75.9735ZM77.8778 225.881C77.6483 226.111 77.3627 226.226 77.0209 226.226C76.684 226.226 76.3983 226.111 76.164 225.881C75.9345 225.652 75.8197 225.366 75.8197 225.024C75.8197 224.683 75.9345 224.397 76.164 224.167C76.3983 223.938 76.684 223.823 77.0209 223.823C77.3627 223.823 77.6483 223.938 77.8778 224.167C78.1073 224.397 78.2221 224.683 78.2221 225.024C78.2221 225.366 78.1073 225.652 77.8778 225.881ZM79.4962 236.648L80.0968 233.499H81.9718L81.0709 236.648H79.4962ZM89.4053 235V227.727H87.3105V225.698H88.8047C89.2051 225.698 89.4053 225.498 89.4053 225.098V224.497H91.6611V235H89.4053ZM101.395 233.77C100.589 234.688 99.4904 235.146 98.0988 235.146C96.7121 235.146 95.6159 234.688 94.8103 233.77C94.0046 232.852 93.6018 231.514 93.6018 229.756C93.6018 227.993 94.0046 226.653 94.8103 225.735C95.6159 224.812 96.7121 224.351 98.0988 224.351C99.4904 224.351 100.589 224.812 101.395 225.735C102.2 226.653 102.603 227.993 102.603 229.756C102.603 231.514 102.2 232.852 101.395 233.77ZM96.4948 232.261C96.9245 232.837 97.4592 233.125 98.0988 233.125C98.7385 233.125 99.2731 232.837 99.7028 232.261C100.137 231.685 100.355 230.847 100.355 229.749C100.355 228.65 100.137 227.812 99.7028 227.236C99.2731 226.66 98.7385 226.372 98.0988 226.372C97.4592 226.372 96.9245 226.66 96.4948 227.236C96.0651 227.812 95.8503 228.65 95.8503 229.749C95.8503 230.847 96.0651 231.685 96.4948 232.261ZM110.483 235.146C109.395 235.146 108.543 234.858 107.927 234.282C107.312 233.701 106.963 232.866 106.88 231.777H109.129C109.168 232.217 109.307 232.551 109.546 232.781C109.79 233.01 110.103 233.125 110.483 233.125C111.382 233.125 111.831 232.549 111.831 231.396V224.497H114.08V231.396C114.08 232.588 113.762 233.511 113.128 234.165C112.493 234.819 111.611 235.146 110.483 235.146ZM119.184 235.146C118.305 235.146 117.597 234.861 117.06 234.29C116.528 233.713 116.262 232.925 116.262 231.924V227.053H118.364V231.624C118.364 232.141 118.489 232.546 118.738 232.839C118.987 233.127 119.336 233.271 119.785 233.271C120.234 233.271 120.596 233.12 120.869 232.817C121.147 232.515 121.286 232.117 121.286 231.624V227.053H123.388V235H121.587L121.36 234.099H121.286C120.744 234.797 120.044 235.146 119.184 235.146ZM125.483 235V227.053H127.285L127.504 227.947H127.585C128.127 227.249 128.825 226.899 129.68 226.899C130.559 226.899 131.267 227.188 131.804 227.764C132.341 228.34 132.609 229.126 132.609 230.122V235H130.507V230.422C130.507 229.905 130.383 229.502 130.134 229.214C129.885 228.921 129.533 228.774 129.079 228.774C128.63 228.774 128.269 228.928 127.995 229.236C127.722 229.539 127.585 229.934 127.585 230.422V235H125.483ZM138.154 235.146C136.943 235.146 135.99 234.785 135.297 234.062C134.604 233.34 134.257 232.329 134.257 231.03C134.257 229.727 134.604 228.713 135.297 227.991C135.99 227.263 136.943 226.899 138.154 226.899C139.306 226.899 140.231 227.271 140.929 228.013C141.628 228.75 141.977 229.705 141.977 230.876L141.904 231.697H136.432C136.613 232.747 137.187 233.271 138.154 233.271C138.534 233.271 138.825 233.213 139.025 233.096C139.225 232.974 139.411 232.783 139.582 232.524H141.83C141.62 233.286 141.215 233.914 140.614 234.407C140.014 234.9 139.194 235.146 138.154 235.146ZM136.432 230.122H139.801C139.723 229.741 139.54 229.421 139.252 229.163C138.969 228.904 138.603 228.774 138.154 228.774C137.275 228.774 136.701 229.224 136.432 230.122Z" fill="#001A40"/>
<path d="M62.5488 259V256.3L60.0488 251.998H60.6494L62.7979 255.748H62.8516L65 251.998H65.6006L63.1006 256.3V259H62.5488ZM69.6994 258.375C69.2632 258.857 68.6984 259.098 68.0051 259.098C67.3117 259.098 66.7453 258.857 66.3059 258.375C65.8697 257.893 65.6516 257.236 65.6516 256.402C65.6516 255.569 65.8697 254.911 66.3059 254.43C66.7453 253.945 67.3117 253.702 68.0051 253.702C68.6984 253.702 69.2632 253.945 69.6994 254.43C70.1356 254.911 70.3537 255.569 70.3537 256.402C70.3537 257.236 70.1356 257.893 69.6994 258.375ZM66.6721 258.009C67.0204 258.403 67.4647 258.6 68.0051 258.6C68.5454 258.6 68.9882 258.403 69.3332 258.009C69.6815 257.615 69.8557 257.079 69.8557 256.402C69.8557 255.722 69.6815 255.185 69.3332 254.791C68.9882 254.397 68.5454 254.2 68.0051 254.2C67.4647 254.2 67.0204 254.397 66.6721 254.791C66.327 255.185 66.1545 255.722 66.1545 256.402C66.1545 257.079 66.327 257.615 66.6721 258.009ZM73.808 259.098C73.2481 259.098 72.7908 258.909 72.4359 258.531C72.0844 258.15 71.9086 257.639 71.9086 256.998V253.8H72.4066V256.998C72.4066 257.464 72.5466 257.848 72.8266 258.15C73.1065 258.45 73.4499 258.6 73.8568 258.6C74.3093 258.6 74.6885 258.447 74.9945 258.141C75.3038 257.835 75.4584 257.454 75.4584 256.998V253.8H75.9564V259H75.5561L75.4584 258.199H75.4047C75.0531 258.798 74.5209 259.098 73.808 259.098ZM81.8055 259.098C81.2911 259.098 80.8533 258.966 80.492 258.702C80.1339 258.435 79.9044 258.085 79.8035 257.652H80.3553C80.4367 257.926 80.5978 258.152 80.8387 258.331C81.0828 258.51 81.4051 258.6 81.8055 258.6C82.284 258.6 82.6355 258.515 82.8602 258.346C83.088 258.176 83.202 257.945 83.202 257.652C83.202 257.379 83.0896 257.169 82.865 257.022C82.6437 256.873 82.3719 256.767 82.0496 256.705C81.7306 256.643 81.4132 256.572 81.0975 256.49C80.7817 256.409 80.5115 256.261 80.2869 256.046C80.0656 255.828 79.9549 255.53 79.9549 255.152C79.9549 254.739 80.1144 254.394 80.4334 254.117C80.7524 253.84 81.1919 253.702 81.7518 253.702C82.2107 253.702 82.603 253.814 82.9285 254.039C83.2573 254.26 83.4819 254.581 83.6023 255.001H83.0555C82.8276 254.467 82.393 254.2 81.7518 254.2C81.3188 254.2 80.9933 254.286 80.7752 254.459C80.5604 254.632 80.4529 254.863 80.4529 255.152C80.4529 255.426 80.5636 255.636 80.785 255.782C81.0096 255.929 81.2814 256.035 81.6004 256.1C81.9227 256.161 82.2417 256.233 82.5574 256.314C82.8732 256.393 83.1434 256.541 83.368 256.759C83.5926 256.974 83.7049 257.271 83.7049 257.652C83.7049 258.072 83.5372 258.419 83.202 258.692C82.8699 258.963 82.4044 259.098 81.8055 259.098ZM85.1523 261.002V253.8H85.5527L85.6504 254.698H85.6992C86.1126 254.031 86.7132 253.699 87.501 253.702C88.1683 253.702 88.7103 253.938 89.127 254.41C89.5436 254.882 89.752 255.546 89.752 256.402C89.752 257.255 89.5436 257.918 89.127 258.39C88.7103 258.862 88.1683 259.098 87.501 259.098C86.7132 259.098 86.1126 258.766 85.6992 258.102H85.6504V261.002H85.1523ZM86.1582 258.009C86.5 258.403 86.9297 258.6 87.4473 258.6C87.9681 258.6 88.3978 258.403 88.7363 258.009C89.0781 257.615 89.249 257.079 89.249 256.402C89.249 255.722 89.0781 255.185 88.7363 254.791C88.3978 254.397 87.9681 254.2 87.4473 254.2C86.9297 254.2 86.5 254.397 86.1582 254.791C85.8197 255.185 85.6504 255.722 85.6504 256.402C85.6504 257.079 85.8197 257.615 86.1582 258.009ZM93.4016 259.098C92.7082 259.098 92.1418 258.857 91.7023 258.375C91.2661 257.893 91.048 257.236 91.048 256.402C91.048 255.576 91.2645 254.92 91.6975 254.435C92.1337 253.946 92.6838 253.702 93.3479 253.702C94.0087 253.702 94.5572 253.93 94.9934 254.386C95.4296 254.841 95.6477 255.429 95.6477 256.148L95.6184 256.549H91.551C91.577 257.154 91.7577 257.647 92.093 258.028C92.4315 258.409 92.8677 258.6 93.4016 258.6C94.1014 258.6 94.6337 258.284 94.9982 257.652H95.55C95.3775 258.118 95.1024 258.476 94.7248 258.727C94.3505 258.974 93.9094 259.098 93.4016 259.098ZM91.551 256.1H95.1496C95.1236 255.533 94.9429 255.076 94.6076 254.728C94.2756 254.376 93.8557 254.2 93.3479 254.2C92.8335 254.2 92.4185 254.376 92.1027 254.728C91.787 255.076 91.6031 255.533 91.551 256.1ZM97.1977 259V253.8H97.598L97.6957 254.601H97.7445C98.0896 254.002 98.6234 253.702 99.3461 253.702C99.906 253.702 100.362 253.893 100.713 254.273C101.068 254.651 101.246 255.16 101.246 255.802V259H100.747V255.802C100.747 255.336 100.607 254.954 100.328 254.654C100.048 254.352 99.7042 254.2 99.2973 254.2C98.8513 254.2 98.4721 254.353 98.1596 254.659C97.8503 254.965 97.6957 255.346 97.6957 255.802V259H97.1977ZM104.495 259C104.14 259 103.858 258.904 103.65 258.712C103.445 258.517 103.342 258.246 103.342 257.901V254.298H102.493V253.8H103.342L103.445 252.398H103.845V253.8H105.193V254.298H103.845V257.901C103.845 258.302 104.062 258.502 104.495 258.502H105.193V259H104.495ZM109.191 259V251.998H111.745C112.438 251.998 112.977 252.182 113.361 252.55C113.749 252.918 113.942 253.417 113.942 254.049C113.942 254.677 113.752 255.177 113.371 255.548C112.993 255.916 112.468 256.1 111.794 256.1L113.894 259H113.244L111.145 256.1H109.743V259H109.191ZM109.743 255.602H111.691C112.232 255.602 112.65 255.463 112.946 255.187C113.243 254.91 113.391 254.532 113.391 254.054C113.391 253.572 113.243 253.193 112.946 252.916C112.65 252.639 112.232 252.501 111.691 252.501H109.743V255.602ZM115.546 261.002V253.8H115.946L116.044 254.698H116.093C116.506 254.031 117.107 253.699 117.895 253.702C118.562 253.702 119.104 253.938 119.521 254.41C119.937 254.882 120.146 255.546 120.146 256.402C120.146 257.255 119.937 257.918 119.521 258.39C119.104 258.862 118.562 259.098 117.895 259.098C117.107 259.098 116.506 258.766 116.093 258.102H116.044V261.002H115.546ZM116.552 258.009C116.894 258.403 117.323 258.6 117.841 258.6C118.362 258.6 118.792 258.403 119.13 258.009C119.472 257.615 119.643 257.079 119.643 256.402C119.643 255.722 119.472 255.185 119.13 254.791C118.792 254.397 118.362 254.2 117.841 254.2C117.323 254.2 116.894 254.397 116.552 254.791C116.213 255.185 116.044 255.722 116.044 256.402C116.044 257.079 116.213 257.615 116.552 258.009ZM125.043 259V253.448H123.695V252.95H124.642C124.909 252.95 125.043 252.817 125.043 252.55V251.998H125.594V259H125.043ZM128.438 258.16C128.764 258.453 129.184 258.6 129.698 258.6C130.212 258.6 130.632 258.453 130.958 258.16C131.283 257.867 131.446 257.514 131.446 257.101C131.446 256.687 131.283 256.334 130.958 256.041C130.632 255.748 130.212 255.602 129.698 255.602C129.184 255.602 128.764 255.748 128.438 256.041C128.113 256.334 127.95 256.687 127.95 257.101C127.95 257.514 128.113 257.867 128.438 258.16ZM131.363 258.526C130.94 258.907 130.385 259.098 129.698 259.098C129.011 259.098 128.456 258.907 128.033 258.526C127.61 258.142 127.398 257.667 127.398 257.101C127.398 256.726 127.514 256.388 127.745 256.085C127.979 255.782 128.297 255.554 128.697 255.401C128.385 255.287 128.114 255.09 127.887 254.811C127.662 254.531 127.55 254.194 127.55 253.8C127.55 253.259 127.747 252.809 128.14 252.447C128.538 252.083 129.057 251.9 129.698 251.9C130.339 251.9 130.857 252.083 131.251 252.447C131.648 252.809 131.846 253.259 131.846 253.8C131.846 254.194 131.733 254.531 131.505 254.811C131.28 255.09 131.012 255.287 130.699 255.401C131.099 255.554 131.415 255.782 131.646 256.085C131.881 256.388 131.998 256.726 131.998 257.101C131.998 257.667 131.786 258.142 131.363 258.526ZM128.516 254.771C128.796 255.025 129.19 255.152 129.698 255.152C130.206 255.152 130.6 255.025 130.88 254.771C131.16 254.518 131.3 254.194 131.3 253.8C131.3 253.393 131.155 253.058 130.865 252.794C130.579 252.53 130.188 252.398 129.693 252.398C129.202 252.398 128.813 252.53 128.526 252.794C128.24 253.058 128.096 253.393 128.096 253.8C128.096 254.194 128.236 254.518 128.516 254.771ZM133.943 259L136.795 252.501H132.991V251.998H137.396V252.501L134.544 259H133.943ZM138.526 258.937C138.451 259.011 138.356 259.049 138.242 259.049C138.128 259.049 138.032 259.011 137.954 258.937C137.879 258.858 137.842 258.764 137.842 258.653C137.842 258.539 137.879 258.443 137.954 258.365C138.032 258.287 138.128 258.248 138.242 258.248C138.356 258.248 138.451 258.287 138.526 258.365C138.604 258.443 138.643 258.539 138.643 258.653C138.643 258.764 138.604 258.858 138.526 258.937ZM142.444 259.098C141.851 259.098 141.335 258.925 140.896 258.58C140.46 258.232 140.193 257.755 140.095 257.149H140.642C140.743 257.595 140.954 257.949 141.277 258.209C141.602 258.469 141.991 258.6 142.444 258.6C143.01 258.6 143.451 258.421 143.767 258.062C144.086 257.701 144.246 257.265 144.246 256.754C144.246 256.24 144.086 255.802 143.767 255.44C143.451 255.079 143.01 254.898 142.444 254.898C141.763 254.898 141.23 255.216 140.842 255.851H140.242L140.593 251.998H144.392V252.501H141.081L140.842 255.152H140.891C141.259 254.651 141.793 254.4 142.493 254.4C143.147 254.4 143.694 254.623 144.133 255.069C144.573 255.515 144.792 256.075 144.792 256.749C144.792 257.442 144.571 258.007 144.128 258.443C143.686 258.88 143.124 259.098 142.444 259.098ZM150.879 258.17C150.371 258.788 149.71 259.098 148.896 259.098C148.082 259.098 147.42 258.788 146.909 258.17C146.401 257.551 146.147 256.663 146.147 255.504C146.147 254.342 146.401 253.451 146.909 252.833C147.42 252.211 148.082 251.9 148.896 251.9C149.71 251.9 150.371 252.211 150.879 252.833C151.39 253.451 151.645 254.342 151.645 255.504C151.645 256.663 151.39 257.551 150.879 258.17ZM147.319 257.799C147.736 258.333 148.26 258.6 148.891 258.6C149.526 258.6 150.052 258.333 150.468 257.799C150.885 257.265 151.093 256.498 151.093 255.499C151.093 254.5 150.885 253.733 150.468 253.199C150.052 252.665 149.526 252.398 148.891 252.398C148.26 252.398 147.736 252.665 147.319 253.199C146.902 253.733 146.694 254.5 146.694 255.499C146.694 256.498 146.902 257.265 147.319 257.799ZM157.78 258.17C157.272 258.788 156.611 259.098 155.798 259.098C154.984 259.098 154.321 258.788 153.81 258.17C153.303 257.551 153.049 256.663 153.049 255.504C153.049 254.342 153.303 253.451 153.81 252.833C154.321 252.211 154.984 251.9 155.798 251.9C156.611 251.9 157.272 252.211 157.78 252.833C158.291 253.451 158.547 254.342 158.547 255.504C158.547 256.663 158.291 257.551 157.78 258.17ZM154.221 257.799C154.637 258.333 155.161 258.6 155.793 258.6C156.428 258.6 156.953 258.333 157.37 257.799C157.787 257.265 157.995 256.498 157.995 255.499C157.995 254.5 157.787 253.733 157.37 253.199C156.953 252.665 156.428 252.398 155.793 252.398C155.161 252.398 154.637 252.665 154.221 253.199C153.804 253.733 153.596 254.5 153.596 255.499C153.596 256.498 153.804 257.265 154.221 257.799ZM166.344 258.375C165.908 258.857 165.343 259.098 164.65 259.098C163.956 259.098 163.39 258.857 162.95 258.375C162.514 257.893 162.296 257.236 162.296 256.402C162.296 255.569 162.514 254.911 162.95 254.43C163.39 253.945 163.956 253.702 164.65 253.702C165.343 253.702 165.908 253.945 166.344 254.43C166.78 254.911 166.998 255.569 166.998 256.402C166.998 257.236 166.78 257.893 166.344 258.375ZM163.317 258.009C163.665 258.403 164.109 258.6 164.65 258.6C165.19 258.6 165.633 258.403 165.978 258.009C166.326 257.615 166.5 257.079 166.5 256.402C166.5 255.722 166.326 255.185 165.978 254.791C165.633 254.397 165.19 254.2 164.65 254.2C164.109 254.2 163.665 254.397 163.317 254.791C162.972 255.185 162.799 255.722 162.799 256.402C162.799 257.079 162.972 257.615 163.317 258.009ZM168.553 259V253.8H168.954L169.051 254.601H169.1C169.445 254.002 169.979 253.702 170.702 253.702C171.261 253.702 171.717 253.893 172.069 254.273C172.424 254.651 172.601 255.16 172.601 255.802V259H172.103V255.802C172.103 255.336 171.963 254.954 171.683 254.654C171.403 254.352 171.06 254.2 170.653 254.2C170.207 254.2 169.828 254.353 169.515 254.659C169.206 254.965 169.051 255.346 169.051 255.802V259H168.553ZM178.25 259C177.895 259 177.613 258.904 177.405 258.712C177.2 258.517 177.097 258.246 177.097 257.901V254.298H176.248V253.8H177.097L177.2 252.398H177.6V253.8H178.948V254.298H177.6V257.901C177.6 258.302 177.817 258.502 178.25 258.502H178.948V259H178.25ZM180.449 259V251.998H180.947V254.601H180.996C181.351 254.002 181.885 253.702 182.598 253.702C183.158 253.702 183.613 253.893 183.965 254.273C184.32 254.651 184.497 255.16 184.497 255.802V259H183.999V255.802C183.999 255.336 183.859 254.954 183.579 254.654C183.299 254.352 182.956 254.2 182.549 254.2C182.096 254.2 181.715 254.353 181.406 254.659C181.1 254.965 180.947 255.346 180.947 255.802V259H180.449ZM186.247 259V253.8H186.745V259H186.247ZM186.779 252.789C186.705 252.864 186.61 252.901 186.496 252.901C186.382 252.901 186.286 252.864 186.208 252.789C186.133 252.711 186.096 252.615 186.096 252.501C186.096 252.387 186.133 252.293 186.208 252.218C186.286 252.14 186.382 252.101 186.496 252.101C186.61 252.101 186.705 252.14 186.779 252.218C186.858 252.293 186.897 252.387 186.897 252.501C186.897 252.615 186.858 252.711 186.779 252.789ZM190.2 259.098C189.685 259.098 189.247 258.966 188.886 258.702C188.528 258.435 188.299 258.085 188.198 257.652H188.749C188.831 257.926 188.992 258.152 189.233 258.331C189.477 258.51 189.799 258.6 190.2 258.6C190.678 258.6 191.03 258.515 191.254 258.346C191.482 258.176 191.596 257.945 191.596 257.652C191.596 257.379 191.484 257.169 191.259 257.022C191.038 256.873 190.766 256.767 190.444 256.705C190.125 256.643 189.807 256.572 189.492 256.49C189.176 256.409 188.906 256.261 188.681 256.046C188.46 255.828 188.349 255.53 188.349 255.152C188.349 254.739 188.509 254.394 188.828 254.117C189.147 253.84 189.586 253.702 190.146 253.702C190.605 253.702 190.997 253.814 191.323 254.039C191.651 254.26 191.876 254.581 191.996 255.001H191.45C191.222 254.467 190.787 254.2 190.146 254.2C189.713 254.2 189.387 254.286 189.169 254.459C188.954 254.632 188.847 254.863 188.847 255.152C188.847 255.426 188.958 255.636 189.179 255.782C189.404 255.929 189.676 256.035 189.995 256.1C190.317 256.161 190.636 256.233 190.952 256.314C191.267 256.393 191.537 256.541 191.762 256.759C191.987 256.974 192.099 257.271 192.099 257.652C192.099 258.072 191.931 258.419 191.596 258.692C191.264 258.963 190.799 259.098 190.2 259.098ZM196.703 258.009C197.045 258.403 197.474 258.6 197.992 258.6C198.513 258.6 198.943 258.403 199.281 258.009C199.623 257.615 199.794 257.079 199.794 256.402C199.794 255.722 199.623 255.185 199.281 254.791C198.943 254.397 198.513 254.2 197.992 254.2C197.474 254.2 197.045 254.397 196.703 254.791C196.364 255.185 196.195 255.722 196.195 256.402C196.195 257.079 196.364 257.615 196.703 258.009ZM197.943 259.098C197.276 259.098 196.734 258.862 196.317 258.39C195.901 257.918 195.692 257.255 195.692 256.402C195.692 255.546 195.901 254.882 196.317 254.41C196.734 253.938 197.276 253.702 197.943 253.702C198.731 253.702 199.332 254.034 199.745 254.698H199.794V251.998H200.292V259H199.896L199.794 258.102H199.745C199.332 258.766 198.731 259.098 197.943 259.098ZM203.595 258.6C204.142 258.6 204.57 258.451 204.879 258.155C205.188 257.859 205.343 257.457 205.343 256.949V256.5H203.692C203.259 256.5 202.926 256.598 202.691 256.793C202.46 256.985 202.345 257.237 202.345 257.55C202.345 257.856 202.455 258.108 202.677 258.307C202.901 258.502 203.207 258.6 203.595 258.6ZM203.595 259.098C203.054 259.098 202.626 258.954 202.311 258.668C201.998 258.382 201.842 258.009 201.842 257.55C201.842 257.091 202.003 256.718 202.325 256.432C202.651 256.145 203.106 256.002 203.692 256.002H205.343V255.602C205.343 255.149 205.219 254.802 204.972 254.562C204.724 254.321 204.365 254.2 203.893 254.2C203.193 254.2 202.726 254.518 202.491 255.152H201.993C202.094 254.719 202.314 254.369 202.652 254.103C202.991 253.836 203.404 253.702 203.893 253.702C204.492 253.702 204.965 253.875 205.313 254.22C205.665 254.562 205.841 255.022 205.841 255.602V259H205.44L205.343 258.199H205.294C205.187 258.447 204.981 258.658 204.679 258.834C204.376 259.01 204.015 259.098 203.595 259.098ZM208.192 261.002L208.983 259L206.79 253.8H207.342L209.222 258.268H209.271L211.043 253.8H211.59L208.743 261.002H208.192Z" fill="#001A40"/>
<rect x="60" y="271" width="38" height="38" rx="19" fill="#22C38E"/>
<path d="M87.3375 291.462L88.9789 284.24C89.0974 283.719 88.7011 283.222 88.1663 283.222H74.5281L74.2098 281.666C74.1305 281.279 73.7892 281 73.3934 281H69.8333C69.3731 281 69 281.373 69 281.833V282.389C69 282.849 69.3731 283.222 69.8333 283.222H72.2598L74.699 295.147C74.1155 295.483 73.7222 296.112 73.7222 296.833C73.7222 297.907 74.5928 298.778 75.6667 298.778C76.7406 298.778 77.6111 297.907 77.6111 296.833C77.6111 296.289 77.3873 295.797 77.0269 295.444H84.3064C83.9461 295.797 83.7222 296.289 83.7222 296.833C83.7222 297.907 84.5928 298.778 85.6667 298.778C86.7406 298.778 87.6111 297.907 87.6111 296.833C87.6111 296.063 87.1636 295.398 86.5146 295.083L86.7062 294.24C86.8247 293.719 86.4283 293.222 85.8936 293.222H76.5735L76.3463 292.111H86.5249C86.914 292.111 87.2513 291.842 87.3375 291.462Z" fill="black"/>
<path d="M112.941 294.5L115.941 286.098H118.162L121.162 294.5H119.299L118.76 292.941H115.338L114.799 294.5H112.941ZM115.93 291.318H118.174L117.078 288.143H117.02L115.93 291.318ZM122.177 294.5V286.098H123.859V294.5H122.177ZM126.192 294.5V289.701H125.172V288.143H126.192V287.598C126.192 286.359 126.852 285.74 128.172 285.74H129.373V287.24H128.471C128.288 287.24 128.141 287.295 128.032 287.404C127.926 287.51 127.873 287.654 127.873 287.838V288.143H129.373V289.701H127.873V294.5H126.192ZM132.908 293.24C133.298 293.24 133.615 293.131 133.857 292.912C134.103 292.689 134.226 292.398 134.226 292.039V291.857H132.791C132.509 291.857 132.298 291.92 132.158 292.045C132.017 292.17 131.947 292.328 131.947 292.52C131.947 292.734 132.027 292.908 132.187 293.041C132.347 293.174 132.587 293.24 132.908 293.24ZM132.486 294.617C131.806 294.617 131.265 294.434 130.863 294.066C130.464 293.699 130.265 293.225 130.265 292.643C130.265 292.049 130.48 291.57 130.91 291.207C131.339 290.844 131.945 290.662 132.726 290.662H134.226V290.357C134.226 290.061 134.13 289.838 133.939 289.689C133.748 289.537 133.484 289.461 133.148 289.461C132.918 289.461 132.716 289.514 132.545 289.619C132.373 289.721 132.254 289.848 132.187 290H130.505C130.642 289.434 130.937 288.963 131.39 288.588C131.843 288.209 132.449 288.02 133.207 288.02C134.054 288.02 134.716 288.229 135.193 288.646C135.67 289.061 135.908 289.652 135.908 290.422V294.5H134.466L134.291 293.779H134.226C133.851 294.338 133.271 294.617 132.486 294.617ZM137.585 294.5V288.143H139.026L139.202 288.857H139.266C139.641 288.299 140.141 288.02 140.766 288.02C141.591 288.02 142.171 288.359 142.507 289.039H142.565C142.686 288.793 142.909 288.562 143.233 288.348C143.561 288.129 143.977 288.02 144.481 288.02C145.177 288.02 145.741 288.248 146.175 288.705C146.608 289.162 146.825 289.773 146.825 290.539V294.5H145.143V290.779C145.143 290.354 145.044 290.037 144.845 289.83C144.645 289.623 144.386 289.52 144.065 289.52C143.776 289.52 143.534 289.631 143.339 289.854C143.143 290.072 143.046 290.381 143.046 290.779V294.5H141.364V290.779C141.364 290.354 141.264 290.037 141.065 289.83C140.866 289.623 140.606 289.52 140.286 289.52C140.005 289.52 139.764 289.637 139.565 289.871C139.366 290.102 139.266 290.404 139.266 290.779V294.5H137.585ZM150.781 293.24C151.172 293.24 151.488 293.131 151.73 292.912C151.977 292.689 152.1 292.398 152.1 292.039V291.857H150.664C150.383 291.857 150.172 291.92 150.031 292.045C149.891 292.17 149.82 292.328 149.82 292.52C149.82 292.734 149.9 292.908 150.061 293.041C150.221 293.174 150.461 293.24 150.781 293.24ZM150.359 294.617C149.68 294.617 149.139 294.434 148.736 294.066C148.338 293.699 148.139 293.225 148.139 292.643C148.139 292.049 148.354 291.57 148.783 291.207C149.213 290.844 149.818 290.662 150.6 290.662H152.1V290.357C152.1 290.061 152.004 289.838 151.812 289.689C151.621 289.537 151.357 289.461 151.021 289.461C150.791 289.461 150.59 289.514 150.418 289.619C150.246 289.721 150.127 289.848 150.061 290H148.379C148.516 289.434 148.811 288.963 149.264 288.588C149.717 288.209 150.322 288.02 151.08 288.02C151.928 288.02 152.59 288.229 153.066 288.646C153.543 289.061 153.781 289.652 153.781 290.422V294.5H152.34L152.164 293.779H152.1C151.725 294.338 151.145 294.617 150.359 294.617ZM155.458 294.5V288.143H156.9L157.075 288.857H157.14C157.46 288.377 157.96 288.139 158.64 288.143H159.419V289.76H158.757C158.253 289.76 157.857 289.9 157.568 290.182C157.282 290.459 157.14 290.838 157.14 291.318V294.5H155.458ZM163.141 294.5C161.821 294.5 161.161 293.881 161.161 292.643V289.701H160.141V288.143H161.161L161.401 286.461H162.842V288.143H164.342V289.701H162.842V292.338C162.842 292.514 162.895 292.658 163 292.771C163.11 292.885 163.256 292.941 163.44 292.941H164.342V294.5H163.141ZM168.669 291.857V290.357H172.571V291.857H168.669ZM183.32 293.633C182.687 294.289 181.825 294.617 180.736 294.617C179.65 294.617 178.788 294.289 178.152 293.633C177.515 292.973 177.196 292.062 177.196 290.902V286.098H178.995V290.902C178.995 291.574 179.154 292.092 179.47 292.455C179.786 292.818 180.208 293 180.736 293C181.263 293 181.685 292.818 182.001 292.455C182.318 292.092 182.476 291.574 182.476 290.902V286.098H184.275V290.902C184.275 292.062 183.956 292.973 183.32 293.633ZM187.996 292.941H190.036C190.364 292.941 190.616 292.857 190.791 292.689C190.967 292.521 191.055 292.285 191.055 291.98C191.055 291.676 190.967 291.439 190.791 291.271C190.616 291.104 190.364 291.02 190.036 291.02H187.996V292.941ZM186.192 294.5V286.098H190.153C190.985 286.098 191.623 286.307 192.069 286.725C192.514 287.139 192.737 287.711 192.737 288.441C192.737 288.84 192.633 289.199 192.426 289.52C192.223 289.84 191.965 290.08 191.653 290.24C192.004 290.4 192.291 290.646 192.514 290.979C192.741 291.311 192.854 291.705 192.854 292.162C192.854 292.889 192.631 293.461 192.186 293.879C191.745 294.293 191.108 294.5 190.276 294.5H186.192ZM187.996 289.578H189.912C190.241 289.578 190.493 289.494 190.668 289.326C190.844 289.158 190.932 288.924 190.932 288.623C190.932 288.318 190.844 288.082 190.668 287.914C190.493 287.746 190.241 287.662 189.912 287.662H187.996V289.578ZM194.472 294.5V286.098H197.115L199.095 291.922H199.154L201.134 286.098H203.777V294.5H201.972V288.559H201.914L199.875 294.5H198.375L196.336 288.559H196.277V294.5H194.472ZM210.318 294.5V287.721H207.799V286.098H214.637V287.721H212.117V294.5H210.318ZM219.976 293.75C219.421 294.328 218.659 294.617 217.691 294.617C216.722 294.617 215.96 294.328 215.405 293.75C214.851 293.172 214.573 292.363 214.573 291.324C214.573 290.281 214.851 289.471 215.405 288.893C215.96 288.311 216.722 288.02 217.691 288.02C218.659 288.02 219.421 288.311 219.976 288.893C220.534 289.471 220.814 290.281 220.814 291.324C220.814 292.363 220.534 293.172 219.976 293.75ZM216.659 292.672C216.933 292.969 217.277 293.117 217.691 293.117C218.109 293.117 218.452 292.969 218.722 292.672C218.995 292.371 219.132 291.922 219.132 291.324C219.132 290.723 218.995 290.271 218.722 289.971C218.452 289.67 218.109 289.52 217.691 289.52C217.277 289.52 216.933 289.67 216.659 289.971C216.386 290.271 216.249 290.723 216.249 291.324C216.249 291.922 216.386 292.371 216.659 292.672ZM223.329 294.5L221.588 288.143H223.329L224.412 292.402H224.471L225.549 288.143H227.289L228.368 292.402H228.432L229.51 288.143H231.127L229.387 294.5H227.53L226.452 290.48H226.387L225.309 294.5H223.329ZM234.908 294.617C233.939 294.617 233.177 294.328 232.623 293.75C232.068 293.172 231.791 292.363 231.791 291.324C231.791 290.281 232.068 289.471 232.623 288.893C233.177 288.311 233.939 288.02 234.908 288.02C235.83 288.02 236.57 288.316 237.129 288.91C237.687 289.5 237.966 290.264 237.966 291.201L237.908 291.857H233.531C233.675 292.697 234.134 293.117 234.908 293.117C235.213 293.117 235.445 293.07 235.605 292.977C235.765 292.879 235.914 292.727 236.05 292.52H237.849C237.681 293.129 237.357 293.631 236.877 294.025C236.396 294.42 235.74 294.617 234.908 294.617ZM233.531 290.598H236.226C236.164 290.293 236.017 290.037 235.787 289.83C235.56 289.623 235.267 289.52 234.908 289.52C234.205 289.52 233.746 289.879 233.531 290.598ZM239.409 294.5V288.143H240.85L241.026 288.857H241.091C241.411 288.377 241.911 288.139 242.591 288.143H243.37V289.76H242.708C242.204 289.76 241.807 289.9 241.518 290.182C241.233 290.459 241.091 290.838 241.091 291.318V294.5H239.409Z" fill="#001A40"/>
<path d="M279.399 295V286.598H283.002C283.85 286.598 284.532 286.85 285.047 287.354C285.563 287.857 285.821 288.525 285.821 289.357C285.821 289.748 285.76 290.107 285.639 290.436C285.522 290.76 285.379 291.014 285.211 291.197C285.043 291.381 284.873 291.539 284.702 291.672C284.53 291.801 284.383 291.887 284.262 291.93L284.08 292L286.12 295H284.08L282.159 292.117H281.204V295H279.399ZM281.204 290.5H282.879C283.215 290.5 283.489 290.398 283.7 290.195C283.914 289.992 284.022 289.715 284.022 289.363C284.022 289.008 283.914 288.729 283.7 288.525C283.489 288.322 283.215 288.221 282.879 288.221H281.204V290.5ZM287.445 297.402V288.643H288.886L289.062 289.357H289.127C289.607 288.799 290.207 288.52 290.925 288.52C291.757 288.52 292.425 288.807 292.929 289.381C293.433 289.951 293.685 290.766 293.685 291.824C293.685 292.879 293.433 293.691 292.929 294.262C292.425 294.832 291.757 295.117 290.925 295.117C290.183 295.117 289.603 294.857 289.185 294.338H289.127V297.402H287.445ZM289.531 293.172C289.804 293.469 290.148 293.617 290.562 293.617C290.98 293.617 291.324 293.469 291.593 293.172C291.867 292.871 292.004 292.422 292.004 291.824C292.004 291.223 291.867 290.771 291.593 290.471C291.324 290.17 290.98 290.02 290.562 290.02C290.148 290.02 289.804 290.17 289.531 290.471C289.261 290.771 289.127 291.223 289.127 291.824C289.127 292.422 289.261 292.871 289.531 293.172ZM297.895 295V293.383L301.551 290.143C301.949 289.799 302.15 289.457 302.154 289.117C302.154 288.438 301.754 288.098 300.953 288.098C300.617 288.098 300.336 288.188 300.109 288.367C299.887 288.543 299.748 288.793 299.693 289.117H297.895C297.992 288.332 298.291 287.697 298.791 287.213C299.295 286.725 300.016 286.48 300.953 286.48C301.961 286.48 302.723 286.711 303.238 287.172C303.754 287.629 304.012 288.238 304.012 289C304.012 289.77 303.633 290.49 302.875 291.162L300.355 293.383H304.135V295H297.895ZM311.378 294.016C310.734 294.75 309.855 295.117 308.741 295.117C307.632 295.117 306.755 294.75 306.111 294.016C305.466 293.281 305.144 292.211 305.144 290.805C305.144 289.395 305.466 288.322 306.111 287.588C306.755 286.85 307.632 286.48 308.741 286.48C309.855 286.48 310.734 286.85 311.378 287.588C312.023 288.322 312.345 289.395 312.345 290.805C312.345 292.211 312.023 293.281 311.378 294.016ZM307.458 292.809C307.802 293.27 308.23 293.5 308.741 293.5C309.253 293.5 309.681 293.27 310.025 292.809C310.372 292.348 310.546 291.678 310.546 290.799C310.546 289.92 310.372 289.25 310.025 288.789C309.681 288.328 309.253 288.098 308.741 288.098C308.23 288.098 307.802 288.328 307.458 288.789C307.114 289.25 306.943 289.92 306.943 290.799C306.943 291.678 307.114 292.348 307.458 292.809ZM314.819 294.783C314.635 294.967 314.407 295.059 314.133 295.059C313.864 295.059 313.637 294.967 313.454 294.783C313.27 294.6 313.178 294.373 313.178 294.104C313.178 293.83 313.27 293.602 313.454 293.418C313.637 293.234 313.864 293.143 314.133 293.143C314.407 293.143 314.635 293.234 314.819 293.418C315.002 293.602 315.094 293.83 315.094 294.104C315.094 294.373 315.002 294.6 314.819 294.783ZM319.484 295.117C318.644 295.117 317.933 294.891 317.351 294.438C316.773 293.98 316.423 293.328 316.302 292.48H318.101C318.164 292.785 318.31 293.031 318.541 293.219C318.775 293.406 319.068 293.5 319.42 293.5C319.892 293.5 320.25 293.379 320.492 293.137C320.738 292.891 320.861 292.551 320.861 292.117C320.861 291.734 320.734 291.41 320.48 291.145C320.23 290.875 319.877 290.74 319.42 290.74C318.877 290.74 318.457 290.961 318.16 291.402H316.42L316.9 286.598H322.179V288.162H318.4L318.224 289.721H318.283C318.673 289.439 319.193 289.299 319.841 289.299C320.666 289.299 321.341 289.566 321.869 290.102C322.396 290.633 322.66 291.326 322.66 292.182C322.66 293.029 322.382 293.73 321.828 294.285C321.273 294.84 320.492 295.117 319.484 295.117ZM330.102 294.016C329.458 294.75 328.579 295.117 327.466 295.117C326.356 295.117 325.479 294.75 324.835 294.016C324.19 293.281 323.868 292.211 323.868 290.805C323.868 289.395 324.19 288.322 324.835 287.588C325.479 286.85 326.356 286.48 327.466 286.48C328.579 286.48 329.458 286.85 330.102 287.588C330.747 288.322 331.069 289.395 331.069 290.805C331.069 292.211 330.747 293.281 330.102 294.016ZM326.182 292.809C326.526 293.27 326.954 293.5 327.466 293.5C327.977 293.5 328.405 293.27 328.749 292.809C329.096 292.348 329.27 291.678 329.27 290.799C329.27 289.92 329.096 289.25 328.749 288.789C328.405 288.328 327.977 288.098 327.466 288.098C326.954 288.098 326.526 288.328 326.182 288.789C325.839 289.25 325.667 289.92 325.667 290.799C325.667 291.678 325.839 292.348 326.182 292.809ZM338.559 294.016C337.914 294.75 337.035 295.117 335.922 295.117C334.812 295.117 333.936 294.75 333.291 294.016C332.646 293.281 332.324 292.211 332.324 290.805C332.324 289.395 332.646 288.322 333.291 287.588C333.936 286.85 334.812 286.48 335.922 286.48C337.035 286.48 337.914 286.85 338.559 287.588C339.203 288.322 339.525 289.395 339.525 290.805C339.525 292.211 339.203 293.281 338.559 294.016ZM334.639 292.809C334.982 293.27 335.41 293.5 335.922 293.5C336.434 293.5 336.861 293.27 337.205 292.809C337.553 292.348 337.727 291.678 337.727 290.799C337.727 289.92 337.553 289.25 337.205 288.789C336.861 288.328 336.434 288.098 335.922 288.098C335.41 288.098 334.982 288.328 334.639 288.789C334.295 289.25 334.123 289.92 334.123 290.799C334.123 291.678 334.295 292.348 334.639 292.809Z" fill="#001A40"/>
<rect x="60" y="329" width="38" height="38" rx="19" fill="#22C38E"/>
<path d="M87.3375 349.462L88.9789 342.24C89.0974 341.719 88.7011 341.222 88.1663 341.222H74.5281L74.2098 339.666C74.1305 339.279 73.7892 339 73.3934 339H69.8333C69.3731 339 69 339.373 69 339.833V340.389C69 340.849 69.3731 341.222 69.8333 341.222H72.2598L74.699 353.147C74.1155 353.483 73.7222 354.112 73.7222 354.833C73.7222 355.907 74.5928 356.778 75.6667 356.778C76.7406 356.778 77.6111 355.907 77.6111 354.833C77.6111 354.289 77.3873 353.797 77.0269 353.444H84.3064C83.9461 353.797 83.7222 354.289 83.7222 354.833C83.7222 355.907 84.5928 356.778 85.6667 356.778C86.7406 356.778 87.6111 355.907 87.6111 354.833C87.6111 354.063 87.1636 353.398 86.5146 353.083L86.7062 352.24C86.8247 351.719 86.4283 351.222 85.8936 351.222H76.5735L76.3463 350.111H86.5249C86.914 350.111 87.2513 349.842 87.3375 349.462Z" fill="black"/>
<path d="M115.701 345V338.221H113.182V336.598H120.02V338.221H117.5V345H115.701ZM125.359 344.25C124.804 344.828 124.042 345.117 123.073 345.117C122.105 345.117 121.343 344.828 120.788 344.25C120.234 343.672 119.956 342.863 119.956 341.824C119.956 340.781 120.234 339.971 120.788 339.393C121.343 338.811 122.105 338.52 123.073 338.52C124.042 338.52 124.804 338.811 125.359 339.393C125.917 339.971 126.196 340.781 126.196 341.824C126.196 342.863 125.917 343.672 125.359 344.25ZM122.042 343.172C122.316 343.469 122.659 343.617 123.073 343.617C123.491 343.617 123.835 343.469 124.105 343.172C124.378 342.871 124.515 342.422 124.515 341.824C124.515 341.223 124.378 340.771 124.105 340.471C123.835 340.17 123.491 340.02 123.073 340.02C122.659 340.02 122.316 340.17 122.042 340.471C121.769 340.771 121.632 341.223 121.632 341.824C121.632 342.422 121.769 342.871 122.042 343.172ZM127.692 345V336.598H129.373V341.461L131.711 338.643H133.692L131.114 341.76L133.873 345H131.893L129.373 342.059V345H127.692ZM139.634 344.25C139.08 344.828 138.318 345.117 137.349 345.117C136.38 345.117 135.619 344.828 135.064 344.25C134.509 343.672 134.232 342.863 134.232 341.824C134.232 340.781 134.509 339.971 135.064 339.393C135.619 338.811 136.38 338.52 137.349 338.52C138.318 338.52 139.08 338.811 139.634 339.393C140.193 339.971 140.472 340.781 140.472 341.824C140.472 342.863 140.193 343.672 139.634 344.25ZM136.318 343.172C136.591 343.469 136.935 343.617 137.349 343.617C137.767 343.617 138.111 343.469 138.38 343.172C138.654 342.871 138.791 342.422 138.791 341.824C138.791 341.223 138.654 340.771 138.38 340.471C138.111 340.17 137.767 340.02 137.349 340.02C136.935 340.02 136.591 340.17 136.318 340.471C136.045 340.771 135.908 341.223 135.908 341.824C135.908 342.422 136.045 342.871 136.318 343.172ZM141.909 347.402V338.643H143.35L143.526 339.357H143.591C144.071 338.799 144.671 338.52 145.389 338.52C146.221 338.52 146.889 338.807 147.393 339.381C147.897 339.951 148.149 340.766 148.149 341.824C148.149 342.879 147.897 343.691 147.393 344.262C146.889 344.832 146.221 345.117 145.389 345.117C144.647 345.117 144.067 344.857 143.649 344.338H143.591V347.402H141.909ZM143.995 343.172C144.268 343.469 144.612 343.617 145.026 343.617C145.444 343.617 145.788 343.469 146.057 343.172C146.331 342.871 146.468 342.422 146.468 341.824C146.468 341.223 146.331 340.771 146.057 340.471C145.788 340.17 145.444 340.02 145.026 340.02C144.612 340.02 144.268 340.17 143.995 340.471C143.725 340.771 143.591 341.223 143.591 341.824C143.591 342.422 143.725 342.871 143.995 343.172ZM152.41 345.117C151.441 345.117 150.68 344.828 150.125 344.25C149.57 343.672 149.293 342.863 149.293 341.824C149.293 340.781 149.57 339.971 150.125 339.393C150.68 338.811 151.441 338.52 152.41 338.52C153.332 338.52 154.072 338.816 154.631 339.41C155.189 340 155.469 340.764 155.469 341.701L155.41 342.357H151.033C151.178 343.197 151.637 343.617 152.41 343.617C152.715 343.617 152.947 343.57 153.107 343.477C153.268 343.379 153.416 343.227 153.553 343.02H155.352C155.184 343.629 154.859 344.131 154.379 344.525C153.898 344.92 153.242 345.117 152.41 345.117ZM151.033 341.098H153.729C153.666 340.793 153.52 340.537 153.289 340.33C153.062 340.123 152.77 340.02 152.41 340.02C151.707 340.02 151.248 340.379 151.033 341.098ZM158.698 343.172C158.972 343.469 159.316 343.617 159.73 343.617C160.148 343.617 160.491 343.469 160.761 343.172C161.034 342.871 161.171 342.422 161.171 341.824C161.171 341.223 161.034 340.771 160.761 340.471C160.491 340.17 160.148 340.02 159.73 340.02C159.316 340.02 158.972 340.17 158.698 340.471C158.425 340.771 158.288 341.223 158.288 341.824C158.288 342.422 158.425 342.871 158.698 343.172ZM159.372 345.117C158.54 345.117 157.872 344.832 157.368 344.262C156.864 343.691 156.612 342.879 156.612 341.824C156.612 340.766 156.864 339.951 157.368 339.381C157.872 338.807 158.54 338.52 159.372 338.52C160.114 338.52 160.695 338.779 161.112 339.299H161.171V336.598H162.853V345H161.411L161.23 344.279H161.171C160.691 344.838 160.091 345.117 159.372 345.117ZM164.653 345V338.643H166.334V345H164.653ZM166.176 337.705C165.993 337.889 165.764 337.98 165.491 337.98C165.221 337.98 164.993 337.889 164.805 337.705C164.621 337.521 164.53 337.293 164.53 337.02C164.53 336.746 164.621 336.518 164.805 336.334C164.993 336.15 165.221 336.059 165.491 336.059C165.764 336.059 165.993 336.15 166.176 336.334C166.36 336.518 166.452 336.746 166.452 337.02C166.452 337.293 166.36 337.521 166.176 337.705ZM170.349 343.74C170.74 343.74 171.056 343.631 171.298 343.412C171.545 343.189 171.668 342.898 171.668 342.539V342.357H170.232C169.951 342.357 169.74 342.42 169.599 342.545C169.459 342.67 169.388 342.828 169.388 343.02C169.388 343.234 169.468 343.408 169.629 343.541C169.789 343.674 170.029 343.74 170.349 343.74ZM169.927 345.117C169.248 345.117 168.707 344.934 168.304 344.566C167.906 344.199 167.707 343.725 167.707 343.143C167.707 342.549 167.921 342.07 168.351 341.707C168.781 341.344 169.386 341.162 170.168 341.162H171.668V340.857C171.668 340.561 171.572 340.338 171.38 340.189C171.189 340.037 170.925 339.961 170.589 339.961C170.359 339.961 170.158 340.014 169.986 340.119C169.814 340.221 169.695 340.348 169.629 340.5H167.947C168.084 339.934 168.379 339.463 168.832 339.088C169.285 338.709 169.89 338.52 170.648 338.52C171.496 338.52 172.158 338.729 172.634 339.146C173.111 339.561 173.349 340.152 173.349 340.922V345H171.908L171.732 344.279H171.668C171.293 344.838 170.713 345.117 169.927 345.117ZM178.092 347.402V338.643H179.533L179.709 339.357H179.773C180.254 338.799 180.854 338.52 181.572 338.52C182.404 338.52 183.072 338.807 183.576 339.381C184.08 339.951 184.332 340.766 184.332 341.824C184.332 342.879 184.08 343.691 183.576 344.262C183.072 344.832 182.404 345.117 181.572 345.117C180.83 345.117 180.25 344.857 179.832 344.338H179.773V347.402H178.092ZM180.178 343.172C180.451 343.469 180.795 343.617 181.209 343.617C181.627 343.617 181.971 343.469 182.24 343.172C182.514 342.871 182.65 342.422 182.65 341.824C182.65 341.223 182.514 340.771 182.24 340.471C181.971 340.17 181.627 340.02 181.209 340.02C180.795 340.02 180.451 340.17 180.178 340.471C179.908 340.771 179.773 341.223 179.773 341.824C179.773 342.422 179.908 342.871 180.178 343.172ZM188.054 343.74C188.445 343.74 188.761 343.631 189.003 343.412C189.249 343.189 189.372 342.898 189.372 342.539V342.357H187.937C187.655 342.357 187.445 342.42 187.304 342.545C187.163 342.67 187.093 342.828 187.093 343.02C187.093 343.234 187.173 343.408 187.333 343.541C187.493 343.674 187.734 343.74 188.054 343.74ZM187.632 345.117C186.952 345.117 186.411 344.934 186.009 344.566C185.611 344.199 185.411 343.725 185.411 343.143C185.411 342.549 185.626 342.07 186.056 341.707C186.486 341.344 187.091 341.162 187.872 341.162H189.372V340.857C189.372 340.561 189.277 340.338 189.085 340.189C188.894 340.037 188.63 339.961 188.294 339.961C188.064 339.961 187.863 340.014 187.691 340.119C187.519 340.221 187.4 340.348 187.333 340.5H185.652C185.788 339.934 186.083 339.463 186.536 339.088C186.989 338.709 187.595 338.52 188.353 338.52C189.2 338.52 189.863 338.729 190.339 339.146C190.816 339.561 191.054 340.152 191.054 340.922V345H189.613L189.437 344.279H189.372C188.997 344.838 188.417 345.117 187.632 345.117ZM193.452 347.402L194.424 345L191.834 338.643H193.692L195.25 342.779H195.303L196.815 338.643H198.672L195.192 347.402H193.452ZM199.629 345V338.643H201.07L201.246 339.357H201.31C201.685 338.799 202.185 338.52 202.81 338.52C203.634 338.52 204.214 338.859 204.55 339.539H204.609C204.73 339.293 204.953 339.062 205.277 338.848C205.605 338.629 206.021 338.52 206.525 338.52C207.22 338.52 207.785 338.748 208.218 339.205C208.652 339.662 208.869 340.273 208.869 341.039V345H207.187V341.279C207.187 340.854 207.088 340.537 206.888 340.33C206.689 340.123 206.429 340.02 206.109 340.02C205.82 340.02 205.578 340.131 205.382 340.354C205.187 340.572 205.089 340.881 205.089 341.279V345H203.408V341.279C203.408 340.854 203.308 340.537 203.109 340.33C202.91 340.123 202.65 340.02 202.33 340.02C202.048 340.02 201.808 340.137 201.609 340.371C201.41 340.602 201.31 340.904 201.31 341.279V345H199.629ZM213.364 345.117C212.395 345.117 211.634 344.828 211.079 344.25C210.524 343.672 210.247 342.863 210.247 341.824C210.247 340.781 210.524 339.971 211.079 339.393C211.634 338.811 212.395 338.52 213.364 338.52C214.286 338.52 215.026 338.816 215.585 339.41C216.143 340 216.423 340.764 216.423 341.701L216.364 342.357H211.987C212.132 343.197 212.591 343.617 213.364 343.617C213.669 343.617 213.901 343.57 214.061 343.477C214.221 343.379 214.37 343.227 214.507 343.02H216.305C216.137 343.629 215.813 344.131 215.333 344.525C214.852 344.92 214.196 345.117 213.364 345.117ZM211.987 341.098H214.682C214.62 340.793 214.473 340.537 214.243 340.33C214.016 340.123 213.723 340.02 213.364 340.02C212.661 340.02 212.202 340.379 211.987 341.098ZM217.865 345V338.643H219.307L219.482 339.357H219.547C219.98 338.799 220.539 338.52 221.223 338.52C221.926 338.52 222.492 338.75 222.922 339.211C223.352 339.672 223.566 340.301 223.566 341.098V345H221.885V341.338C221.885 340.924 221.785 340.602 221.586 340.371C221.387 340.137 221.105 340.02 220.742 340.02C220.383 340.02 220.094 340.143 219.875 340.389C219.656 340.631 219.547 340.947 219.547 341.338V345H217.865ZM227.763 345C226.443 345 225.782 344.381 225.782 343.143V340.201H224.763V338.643H225.782L226.023 336.961H227.464V338.643H228.964V340.201H227.464V342.838C227.464 343.014 227.517 343.158 227.622 343.271C227.732 343.385 227.878 343.441 228.062 343.441H228.964V345H227.763ZM114.26 360V355.201H113.24V353.643H114.26V353.098C114.26 351.859 114.92 351.24 116.24 351.24H117.441V352.74H116.539C116.355 352.74 116.209 352.795 116.1 352.904C115.994 353.01 115.941 353.154 115.941 353.338V353.643H117.441V355.201H115.941V360H114.26ZM118.696 360V353.643H120.138L120.314 354.357H120.378C120.698 353.877 121.198 353.639 121.878 353.643H122.657V355.26H121.995C121.491 355.26 121.095 355.4 120.806 355.682C120.521 355.959 120.378 356.338 120.378 356.818V360H118.696ZM128.717 359.25C128.163 359.828 127.401 360.117 126.432 360.117C125.463 360.117 124.702 359.828 124.147 359.25C123.592 358.672 123.315 357.863 123.315 356.824C123.315 355.781 123.592 354.971 124.147 354.393C124.702 353.811 125.463 353.52 126.432 353.52C127.401 353.52 128.163 353.811 128.717 354.393C129.276 354.971 129.555 355.781 129.555 356.824C129.555 357.863 129.276 358.672 128.717 359.25ZM125.401 358.172C125.674 358.469 126.018 358.617 126.432 358.617C126.85 358.617 127.194 358.469 127.463 358.172C127.737 357.871 127.873 357.422 127.873 356.824C127.873 356.223 127.737 355.771 127.463 355.471C127.194 355.17 126.85 355.02 126.432 355.02C126.018 355.02 125.674 355.17 125.401 355.471C125.127 355.771 124.991 356.223 124.991 356.824C124.991 357.422 125.127 357.871 125.401 358.172ZM130.992 360V353.643H132.433L132.609 354.357H132.673C133.048 353.799 133.548 353.52 134.173 353.52C134.998 353.52 135.578 353.859 135.914 354.539H135.972C136.093 354.293 136.316 354.062 136.64 353.848C136.968 353.629 137.384 353.52 137.888 353.52C138.584 353.52 139.148 353.748 139.582 354.205C140.015 354.662 140.232 355.273 140.232 356.039V360H138.55V356.279C138.55 355.854 138.451 355.537 138.252 355.33C138.052 355.123 137.793 355.02 137.472 355.02C137.183 355.02 136.941 355.131 136.746 355.354C136.55 355.572 136.453 355.881 136.453 356.279V360H134.771V356.279C134.771 355.854 134.671 355.537 134.472 355.33C134.273 355.123 134.013 355.02 133.693 355.02C133.412 355.02 133.171 355.137 132.972 355.371C132.773 355.602 132.673 355.904 132.673 356.279V360H130.992ZM146.896 358.441H148.936C149.264 358.441 149.516 358.357 149.691 358.189C149.867 358.021 149.955 357.785 149.955 357.48C149.955 357.176 149.867 356.939 149.691 356.771C149.516 356.604 149.264 356.52 148.936 356.52H146.896V358.441ZM145.092 360V351.598H149.053C149.885 351.598 150.523 351.807 150.969 352.225C151.414 352.639 151.637 353.211 151.637 353.941C151.637 354.34 151.533 354.699 151.326 355.02C151.123 355.34 150.865 355.58 150.553 355.74C150.904 355.9 151.191 356.146 151.414 356.479C151.641 356.811 151.754 357.205 151.754 357.662C151.754 358.389 151.531 358.961 151.086 359.379C150.645 359.793 150.008 360 149.176 360H145.092ZM146.896 355.078H148.812C149.141 355.078 149.393 354.994 149.568 354.826C149.744 354.658 149.832 354.424 149.832 354.123C149.832 353.818 149.744 353.582 149.568 353.414C149.393 353.246 149.141 353.162 148.812 353.162H146.896V355.078ZM156.976 360.117C155.761 360.117 154.796 359.738 154.081 358.98C153.37 358.219 153.015 357.158 153.015 355.799C153.015 354.439 153.37 353.381 154.081 352.623C154.792 351.861 155.757 351.48 156.976 351.48C157.984 351.48 158.788 351.727 159.39 352.219C159.995 352.711 160.409 353.385 160.632 354.24H158.775C158.431 353.479 157.831 353.098 156.976 353.098C156.32 353.098 155.794 353.33 155.4 353.795C155.009 354.26 154.814 354.928 154.814 355.799C154.814 356.67 155.009 357.338 155.4 357.803C155.794 358.268 156.32 358.5 156.976 358.5C157.831 358.5 158.431 358.119 158.775 357.357H160.632C160.409 358.213 159.995 358.887 159.39 359.379C158.788 359.871 157.984 360.117 156.976 360.117ZM160.991 360L163.991 351.598H166.211L169.211 360H167.348L166.809 358.441H163.387L162.848 360H160.991ZM163.979 356.818H166.223L165.127 353.643H165.069L163.979 356.818ZM175.149 358.74C175.54 358.74 175.856 358.631 176.098 358.412C176.345 358.189 176.468 357.898 176.468 357.539V357.357H175.032C174.751 357.357 174.54 357.42 174.399 357.545C174.259 357.67 174.188 357.828 174.188 358.02C174.188 358.234 174.268 358.408 174.429 358.541C174.589 358.674 174.829 358.74 175.149 358.74ZM174.727 360.117C174.048 360.117 173.507 359.934 173.104 359.566C172.706 359.199 172.507 358.725 172.507 358.143C172.507 357.549 172.721 357.07 173.151 356.707C173.581 356.344 174.186 356.162 174.968 356.162H176.468V355.857C176.468 355.561 176.372 355.338 176.18 355.189C175.989 355.037 175.725 354.961 175.389 354.961C175.159 354.961 174.958 355.014 174.786 355.119C174.614 355.221 174.495 355.348 174.429 355.5H172.747C172.884 354.934 173.179 354.463 173.632 354.088C174.085 353.709 174.69 353.52 175.448 353.52C176.296 353.52 176.958 353.729 177.434 354.146C177.911 354.561 178.149 355.152 178.149 355.922V360H176.708L176.532 359.279H176.468C176.093 359.838 175.513 360.117 174.727 360.117ZM182.645 360.117C181.676 360.117 180.914 359.828 180.359 359.25C179.805 358.672 179.527 357.863 179.527 356.824C179.527 355.781 179.805 354.971 180.359 354.393C180.914 353.811 181.676 353.52 182.645 353.52C183.484 353.52 184.143 353.732 184.619 354.158C185.096 354.58 185.418 355.127 185.586 355.799H183.904C183.646 355.279 183.227 355.02 182.645 355.02C182.211 355.02 181.861 355.174 181.596 355.482C181.334 355.791 181.203 356.238 181.203 356.824C181.203 357.406 181.336 357.852 181.602 358.16C181.867 358.465 182.215 358.617 182.645 358.617C183.23 358.617 183.65 358.357 183.904 357.838H185.586C185.418 358.51 185.096 359.059 184.619 359.484C184.143 359.906 183.484 360.117 182.645 360.117ZM189.788 360.117C188.82 360.117 188.058 359.828 187.503 359.25C186.948 358.672 186.671 357.863 186.671 356.824C186.671 355.781 186.948 354.971 187.503 354.393C188.058 353.811 188.82 353.52 189.788 353.52C190.628 353.52 191.286 353.732 191.763 354.158C192.239 354.58 192.562 355.127 192.73 355.799H191.048C190.79 355.279 190.37 355.02 189.788 355.02C189.355 355.02 189.005 355.174 188.739 355.482C188.478 355.791 188.347 356.238 188.347 356.824C188.347 357.406 188.48 357.852 188.745 358.16C189.011 358.465 189.359 358.617 189.788 358.617C190.374 358.617 190.794 358.357 191.048 357.838H192.73C192.562 358.51 192.239 359.059 191.763 359.484C191.286 359.906 190.628 360.117 189.788 360.117ZM199.217 359.25C198.662 359.828 197.901 360.117 196.932 360.117C195.963 360.117 195.202 359.828 194.647 359.25C194.092 358.672 193.815 357.863 193.815 356.824C193.815 355.781 194.092 354.971 194.647 354.393C195.202 353.811 195.963 353.52 196.932 353.52C197.901 353.52 198.662 353.811 199.217 354.393C199.776 354.971 200.055 355.781 200.055 356.824C200.055 357.863 199.776 358.672 199.217 359.25ZM195.901 358.172C196.174 358.469 196.518 358.617 196.932 358.617C197.35 358.617 197.694 358.469 197.963 358.172C198.237 357.871 198.373 357.422 198.373 356.824C198.373 356.223 198.237 355.771 197.963 355.471C197.694 355.17 197.35 355.02 196.932 355.02C196.518 355.02 196.174 355.17 195.901 355.471C195.627 355.771 195.491 356.223 195.491 356.824C195.491 357.422 195.627 357.871 195.901 358.172ZM203.83 360.117C203.127 360.117 202.56 359.889 202.13 359.432C201.705 358.971 201.492 358.34 201.492 357.539V353.643H203.173V357.299C203.173 357.713 203.273 358.037 203.472 358.271C203.671 358.502 203.951 358.617 204.31 358.617C204.67 358.617 204.959 358.496 205.177 358.254C205.4 358.012 205.511 357.693 205.511 357.299V353.643H207.193V360H205.752L205.57 359.279H205.511C205.078 359.838 204.517 360.117 203.83 360.117ZM208.929 360V353.643H210.37L210.546 354.357H210.61C211.044 353.799 211.602 353.52 212.286 353.52C212.989 353.52 213.555 353.75 213.985 354.211C214.415 354.672 214.63 355.301 214.63 356.098V360H212.948V356.338C212.948 355.924 212.848 355.602 212.649 355.371C212.45 355.137 212.169 355.02 211.805 355.02C211.446 355.02 211.157 355.143 210.938 355.389C210.72 355.631 210.61 355.947 210.61 356.338V360H208.929ZM218.826 360C217.506 360 216.846 359.381 216.846 358.143V355.201H215.826V353.643H216.846L217.086 351.961H218.527V353.643H220.027V355.201H218.527V357.838C218.527 358.014 218.58 358.158 218.686 358.271C218.795 358.385 218.941 358.441 219.125 358.441H220.027V360H218.826Z" fill="#001A40"/>
<path d="M273.099 353V344.598H276.702C277.55 344.598 278.232 344.85 278.747 345.354C279.263 345.857 279.521 346.525 279.521 347.357C279.521 347.748 279.46 348.107 279.339 348.436C279.222 348.76 279.079 349.014 278.911 349.197C278.743 349.381 278.573 349.539 278.402 349.672C278.23 349.801 278.083 349.887 277.962 349.93L277.78 350L279.82 353H277.78L275.859 350.117H274.904V353H273.099ZM274.904 348.5H276.579C276.915 348.5 277.189 348.398 277.4 348.195C277.614 347.992 277.722 347.715 277.722 347.363C277.722 347.008 277.614 346.729 277.4 346.525C277.189 346.322 276.915 346.221 276.579 346.221H274.904V348.5ZM281.145 355.402V346.643H282.586L282.762 347.357H282.827C283.307 346.799 283.907 346.52 284.625 346.52C285.457 346.52 286.125 346.807 286.629 347.381C287.133 347.951 287.385 348.766 287.385 349.824C287.385 350.879 287.133 351.691 286.629 352.262C286.125 352.832 285.457 353.117 284.625 353.117C283.883 353.117 283.303 352.857 282.885 352.338H282.827V355.402H281.145ZM283.231 351.172C283.504 351.469 283.848 351.617 284.262 351.617C284.68 351.617 285.024 351.469 285.293 351.172C285.567 350.871 285.704 350.422 285.704 349.824C285.704 349.223 285.567 348.771 285.293 348.471C285.024 348.17 284.68 348.02 284.262 348.02C283.848 348.02 283.504 348.17 283.231 348.471C282.961 348.771 282.827 349.223 282.827 349.824C282.827 350.422 282.961 350.871 283.231 351.172ZM293.27 353V347.182H291.595V345.559H292.79C293.11 345.559 293.27 345.398 293.27 345.078V344.598H295.075V353H293.27ZM299.869 353.117C299.029 353.117 298.318 352.891 297.736 352.438C297.158 351.98 296.809 351.328 296.688 350.48H298.486C298.549 350.785 298.695 351.031 298.926 351.219C299.16 351.406 299.453 351.5 299.805 351.5C300.277 351.5 300.635 351.379 300.877 351.137C301.123 350.891 301.246 350.551 301.246 350.117C301.246 349.734 301.119 349.41 300.865 349.145C300.615 348.875 300.262 348.74 299.805 348.74C299.262 348.74 298.842 348.961 298.545 349.402H296.805L297.285 344.598H302.564V346.162H298.785L298.609 347.721H298.668C299.059 347.439 299.578 347.299 300.227 347.299C301.051 347.299 301.727 347.566 302.254 348.102C302.781 348.633 303.045 349.326 303.045 350.182C303.045 351.029 302.768 351.73 302.213 352.285C301.658 352.84 300.877 353.117 299.869 353.117ZM310.488 352.016C309.843 352.75 308.964 353.117 307.851 353.117C306.741 353.117 305.864 352.75 305.22 352.016C304.575 351.281 304.253 350.211 304.253 348.805C304.253 347.395 304.575 346.322 305.22 345.588C305.864 344.85 306.741 344.48 307.851 344.48C308.964 344.48 309.843 344.85 310.488 345.588C311.132 346.322 311.454 347.395 311.454 348.805C311.454 350.211 311.132 351.281 310.488 352.016ZM306.568 350.809C306.911 351.27 307.339 351.5 307.851 351.5C308.363 351.5 308.79 351.27 309.134 350.809C309.482 350.348 309.655 349.678 309.655 348.799C309.655 347.92 309.482 347.25 309.134 346.789C308.79 346.328 308.363 346.098 307.851 346.098C307.339 346.098 306.911 346.328 306.568 346.789C306.224 347.25 306.052 347.92 306.052 348.799C306.052 349.678 306.224 350.348 306.568 350.809ZM313.928 352.783C313.745 352.967 313.516 353.059 313.243 353.059C312.973 353.059 312.746 352.967 312.563 352.783C312.379 352.6 312.288 352.373 312.288 352.104C312.288 351.83 312.379 351.602 312.563 351.418C312.746 351.234 312.973 351.143 313.243 351.143C313.516 351.143 313.745 351.234 313.928 351.418C314.112 351.602 314.204 351.83 314.204 352.104C314.204 352.373 314.112 352.6 313.928 352.783ZM321.646 352.016C321.002 352.75 320.123 353.117 319.009 353.117C317.9 353.117 317.023 352.75 316.379 352.016C315.734 351.281 315.412 350.211 315.412 348.805C315.412 347.395 315.734 346.322 316.379 345.588C317.023 344.85 317.9 344.48 319.009 344.48C320.123 344.48 321.002 344.85 321.646 345.588C322.291 346.322 322.613 347.395 322.613 348.805C322.613 350.211 322.291 351.281 321.646 352.016ZM317.726 350.809C318.07 351.27 318.498 351.5 319.009 351.5C319.521 351.5 319.949 351.27 320.293 350.809C320.64 350.348 320.814 349.678 320.814 348.799C320.814 347.92 320.64 347.25 320.293 346.789C319.949 346.328 319.521 346.098 319.009 346.098C318.498 346.098 318.07 346.328 317.726 346.789C317.382 347.25 317.211 347.92 317.211 348.799C317.211 349.678 317.382 350.348 317.726 350.809ZM330.102 352.016C329.458 352.75 328.579 353.117 327.466 353.117C326.356 353.117 325.479 352.75 324.835 352.016C324.19 351.281 323.868 350.211 323.868 348.805C323.868 347.395 324.19 346.322 324.835 345.588C325.479 344.85 326.356 344.48 327.466 344.48C328.579 344.48 329.458 344.85 330.102 345.588C330.747 346.322 331.069 347.395 331.069 348.805C331.069 350.211 330.747 351.281 330.102 352.016ZM326.182 350.809C326.526 351.27 326.954 351.5 327.466 351.5C327.977 351.5 328.405 351.27 328.749 350.809C329.096 350.348 329.27 349.678 329.27 348.799C329.27 347.92 329.096 347.25 328.749 346.789C328.405 346.328 327.977 346.098 327.466 346.098C326.954 346.098 326.526 346.328 326.182 346.789C325.839 347.25 325.667 347.92 325.667 348.799C325.667 349.678 325.839 350.348 326.182 350.809ZM338.559 352.016C337.914 352.75 337.035 353.117 335.922 353.117C334.812 353.117 333.936 352.75 333.291 352.016C332.646 351.281 332.324 350.211 332.324 348.805C332.324 347.395 332.646 346.322 333.291 345.588C333.936 344.85 334.812 344.48 335.922 344.48C337.035 344.48 337.914 344.85 338.559 345.588C339.203 346.322 339.525 347.395 339.525 348.805C339.525 350.211 339.203 351.281 338.559 352.016ZM334.639 350.809C334.982 351.27 335.41 351.5 335.922 351.5C336.434 351.5 336.861 351.27 337.205 350.809C337.553 350.348 337.727 349.678 337.727 348.799C337.727 347.92 337.553 347.25 337.205 346.789C336.861 346.328 336.434 346.098 335.922 346.098C335.41 346.098 334.982 346.328 334.639 346.789C334.295 347.25 334.123 347.92 334.123 348.799C334.123 349.678 334.295 350.348 334.639 350.809Z" fill="#001A40"/>
<rect x="60" y="387" width="38" height="38" rx="19" fill="#F2DE2C"/>
<path d="M86.3763 405.257L85.5886 402.219C85.2448 400.958 84.099 400.042 82.8386 400.042H82.4375V398.896C82.4375 398.263 81.9244 397.75 81.2917 397.75H76.7084C76.0757 397.75 75.5625 398.263 75.5625 398.896V400.042H75.1615C73.9011 400.042 72.7552 400.958 72.4115 402.219L71.6237 405.257C70.6 405.486 69.8334 406.396 69.8334 407.49V409.208C69.8334 410.054 70.2971 410.785 70.9792 411.182V412.646C70.9792 413.279 71.4923 413.792 72.125 413.792H73.2709C73.9036 413.792 74.4167 413.279 74.4167 412.646V411.5H83.5834V412.646C83.5834 413.279 84.0965 413.792 84.7292 413.792H85.875C86.5078 413.792 87.0209 413.279 87.0209 412.646V411.182C87.703 410.785 88.1667 410.054 88.1667 409.208V407.49C88.1667 406.396 87.4001 405.486 86.3763 405.257ZM73.2709 409.208C72.6382 409.208 72.125 408.695 72.125 408.062C72.125 407.43 72.6382 406.917 73.2709 406.917C73.9036 406.917 74.4167 407.43 74.4167 408.062C74.4167 408.695 73.9036 409.208 73.2709 409.208ZM74.0067 405.198L74.6226 402.822C74.7024 402.53 74.966 402.333 75.1619 402.333H82.8389C83.0348 402.333 83.2983 402.53 83.3707 402.794L83.9934 405.198H74.0067ZM84.7292 409.208C84.0965 409.208 83.5834 408.695 83.5834 408.062C83.5834 407.43 84.0965 406.917 84.7292 406.917C85.3619 406.917 85.875 407.43 85.875 408.062C85.875 408.695 85.3619 409.208 84.7292 409.208Z" fill="#001F23"/>
<path d="M117.441 403.117C116.227 403.117 115.262 402.738 114.547 401.98C113.836 401.219 113.48 400.158 113.48 398.799C113.48 397.439 113.836 396.381 114.547 395.623C115.258 394.861 116.223 394.48 117.441 394.48C118.449 394.48 119.254 394.727 119.855 395.219C120.461 395.711 120.875 396.385 121.098 397.24H119.24C118.896 396.479 118.297 396.098 117.441 396.098C116.785 396.098 116.26 396.33 115.865 396.795C115.475 397.26 115.279 397.928 115.279 398.799C115.279 399.67 115.475 400.338 115.865 400.803C116.26 401.268 116.785 401.5 117.441 401.5C118.48 401.5 119.119 400.98 119.357 399.941H117.26V398.5H121.221V399.162C121.221 400.377 120.887 401.34 120.219 402.051C119.551 402.762 118.625 403.117 117.441 403.117ZM129.325 401.98C128.614 402.738 127.65 403.117 126.431 403.117C125.216 403.117 124.253 402.738 123.542 401.98C122.831 401.219 122.476 400.158 122.476 398.799C122.476 397.439 122.831 396.381 123.542 395.623C124.253 394.861 125.216 394.48 126.431 394.48C127.65 394.48 128.614 394.861 129.325 395.623C130.04 396.381 130.398 397.439 130.398 398.799C130.398 400.158 130.04 401.219 129.325 401.98ZM124.861 400.803C125.255 401.268 125.78 401.5 126.437 401.5C127.093 401.5 127.616 401.268 128.007 400.803C128.398 400.338 128.593 399.67 128.593 398.799C128.593 397.928 128.398 397.26 128.007 396.795C127.616 396.33 127.093 396.098 126.437 396.098C125.78 396.098 125.255 396.33 124.861 396.795C124.47 397.26 124.275 397.928 124.275 398.799C124.275 399.67 124.47 400.338 124.861 400.803ZM133.879 403.117C133.008 403.117 132.327 402.887 131.834 402.426C131.342 401.961 131.063 401.293 130.996 400.422H132.795C132.827 400.773 132.938 401.041 133.129 401.225C133.325 401.408 133.575 401.5 133.879 401.5C134.598 401.5 134.957 401.039 134.957 400.117V394.598H136.756V400.117C136.756 401.07 136.502 401.809 135.995 402.332C135.487 402.855 134.782 403.117 133.879 403.117ZM138.679 403V394.598H144.38V396.221H140.484V398.02H144.14V399.52H140.484V401.383H144.504V403H138.679ZM146.175 403V394.598H147.979V398.318L150.979 394.598H153.077L149.72 398.74L153.259 403H151.155L147.979 399.162V403H146.175ZM115.701 418V411.221H113.182V409.598H120.02V411.221H117.5V418H115.701ZM121.275 418V409.598H122.956V412.299H123.015C123.472 411.779 124.013 411.52 124.638 411.52C125.341 411.52 125.905 411.75 126.331 412.211C126.761 412.672 126.976 413.301 126.976 414.098V418H125.294V414.338C125.294 413.924 125.195 413.602 124.995 413.371C124.796 413.137 124.515 413.02 124.152 413.02C123.792 413.02 123.503 413.143 123.284 413.389C123.066 413.631 122.956 413.947 122.956 414.338V418H121.275ZM131.471 418.117C130.502 418.117 129.741 417.828 129.186 417.25C128.631 416.672 128.354 415.863 128.354 414.824C128.354 413.781 128.631 412.971 129.186 412.393C129.741 411.811 130.502 411.52 131.471 411.52C132.393 411.52 133.133 411.816 133.692 412.41C134.25 413 134.53 413.764 134.53 414.701L134.471 415.357H130.094C130.239 416.197 130.698 416.617 131.471 416.617C131.776 416.617 132.008 416.57 132.168 416.477C132.329 416.379 132.477 416.227 132.614 416.02H134.413C134.245 416.629 133.92 417.131 133.44 417.525C132.959 417.92 132.303 418.117 131.471 418.117ZM130.094 414.098H132.789C132.727 413.793 132.58 413.537 132.35 413.33C132.123 413.123 131.83 413.02 131.471 413.02C130.768 413.02 130.309 413.379 130.094 414.098ZM142.759 418.117C141.544 418.117 140.579 417.738 139.864 416.98C139.153 416.219 138.798 415.158 138.798 413.799C138.798 412.439 139.153 411.381 139.864 410.623C140.575 409.861 141.54 409.48 142.759 409.48C143.766 409.48 144.571 409.727 145.173 410.219C145.778 410.711 146.192 411.385 146.415 412.24H144.557C144.214 411.479 143.614 411.098 142.759 411.098C142.102 411.098 141.577 411.33 141.182 411.795C140.792 412.26 140.596 412.928 140.596 413.799C140.596 414.67 140.792 415.338 141.182 415.803C141.577 416.268 142.102 416.5 142.759 416.5C143.798 416.5 144.436 415.98 144.675 414.941H142.577V413.5H146.538V414.162C146.538 415.377 146.204 416.34 145.536 417.051C144.868 417.762 143.942 418.117 142.759 418.117ZM148.033 418V411.643H149.475L149.65 412.357H149.715C150.035 411.877 150.535 411.639 151.215 411.643H151.994V413.26H151.332C150.828 413.26 150.432 413.4 150.143 413.682C149.857 413.959 149.715 414.338 149.715 414.818V418H148.033ZM155.769 418.117C154.8 418.117 154.038 417.828 153.484 417.25C152.929 416.672 152.652 415.863 152.652 414.824C152.652 413.781 152.929 412.971 153.484 412.393C154.038 411.811 154.8 411.52 155.769 411.52C156.691 411.52 157.431 411.816 157.989 412.41C158.548 413 158.827 413.764 158.827 414.701L158.769 415.357H154.392C154.536 416.197 154.995 416.617 155.769 416.617C156.073 416.617 156.306 416.57 156.466 416.477C156.626 416.379 156.775 416.227 156.911 416.02H158.71C158.542 416.629 158.218 417.131 157.737 417.525C157.257 417.92 156.601 418.117 155.769 418.117ZM154.392 414.098H157.087C157.025 413.793 156.878 413.537 156.648 413.33C156.421 413.123 156.128 413.02 155.769 413.02C155.066 413.02 154.607 413.379 154.392 414.098ZM163.088 418.117C162.12 418.117 161.358 417.828 160.803 417.25C160.248 416.672 159.971 415.863 159.971 414.824C159.971 413.781 160.248 412.971 160.803 412.393C161.358 411.811 162.12 411.52 163.088 411.52C164.01 411.52 164.75 411.816 165.309 412.41C165.868 413 166.147 413.764 166.147 414.701L166.088 415.357H161.711C161.856 416.197 162.315 416.617 163.088 416.617C163.393 416.617 163.625 416.57 163.786 416.477C163.946 416.379 164.094 416.227 164.231 416.02H166.03C165.862 416.629 165.537 417.131 165.057 417.525C164.577 417.92 163.92 418.117 163.088 418.117ZM161.711 414.098H164.407C164.344 413.793 164.198 413.537 163.967 413.33C163.741 413.123 163.448 413.02 163.088 413.02C162.385 413.02 161.926 413.379 161.711 414.098ZM167.589 418V411.643H169.031L169.207 412.357H169.271C169.705 411.799 170.263 411.52 170.947 411.52C171.65 411.52 172.216 411.75 172.646 412.211C173.076 412.672 173.291 413.301 173.291 414.098V418H171.609V414.338C171.609 413.924 171.509 413.602 171.31 413.371C171.111 413.137 170.83 413.02 170.466 413.02C170.107 413.02 169.818 413.143 169.599 413.389C169.38 413.631 169.271 413.947 169.271 414.338V418H167.589ZM179.955 416.441H181.994C182.322 416.441 182.574 416.357 182.75 416.189C182.926 416.021 183.014 415.785 183.014 415.48C183.014 415.176 182.926 414.939 182.75 414.771C182.574 414.604 182.322 414.52 181.994 414.52H179.955V416.441ZM178.15 418V409.598H182.111C182.943 409.598 183.582 409.807 184.027 410.225C184.473 410.639 184.695 411.211 184.695 411.941C184.695 412.34 184.592 412.699 184.385 413.02C184.182 413.34 183.924 413.58 183.611 413.74C183.963 413.9 184.25 414.146 184.473 414.479C184.699 414.811 184.812 415.205 184.812 415.662C184.812 416.389 184.59 416.961 184.145 417.379C183.703 417.793 183.066 418 182.234 418H178.15ZM179.955 413.078H181.871C182.199 413.078 182.451 412.994 182.627 412.826C182.803 412.658 182.891 412.424 182.891 412.123C182.891 411.818 182.803 411.582 182.627 411.414C182.451 411.246 182.199 411.162 181.871 411.162H179.955V413.078ZM189.314 418.117C188.353 418.117 187.564 417.891 186.946 417.438C186.333 416.98 185.982 416.328 185.892 415.48H187.691C187.753 415.816 187.927 416.08 188.212 416.271C188.497 416.463 188.864 416.559 189.314 416.559C190.353 416.559 190.872 416.219 190.872 415.539C190.872 415.281 190.755 415.076 190.521 414.924C190.29 414.768 190.003 414.664 189.659 414.613C189.316 414.559 188.939 414.479 188.529 414.373C188.122 414.264 187.747 414.137 187.404 413.992C187.06 413.848 186.771 413.602 186.536 413.254C186.306 412.906 186.191 412.469 186.191 411.941C186.191 411.156 186.482 410.551 187.064 410.125C187.65 409.695 188.4 409.48 189.314 409.48C190.29 409.48 191.05 409.707 191.593 410.16C192.136 410.609 192.456 411.203 192.554 411.941H190.755C190.693 411.66 190.542 411.439 190.304 411.279C190.066 411.119 189.755 411.039 189.372 411.039C188.946 411.039 188.62 411.125 188.394 411.297C188.167 411.469 188.054 411.684 188.054 411.941C188.054 412.207 188.169 412.424 188.4 412.592C188.634 412.756 188.923 412.871 189.267 412.938C189.611 413 189.986 413.088 190.392 413.201C190.802 413.311 191.179 413.436 191.523 413.576C191.866 413.717 192.154 413.955 192.384 414.291C192.618 414.627 192.736 415.043 192.736 415.539C192.736 416.293 192.433 416.912 191.827 417.396C191.222 417.877 190.384 418.117 189.314 418.117ZM194.231 418V409.598H197.471C198.647 409.598 199.58 409.971 200.272 410.717C200.967 411.459 201.315 412.486 201.315 413.799C201.315 415.111 200.967 416.141 200.272 416.887C199.58 417.629 198.647 418 197.471 418H194.231ZM196.036 416.383H197.412C198.022 416.383 198.524 416.16 198.918 415.715C199.313 415.27 199.51 414.631 199.51 413.799C199.51 412.967 199.313 412.33 198.918 411.889C198.524 411.443 198.022 411.221 197.412 411.221H196.036V416.383ZM209.602 418.117C208.387 418.117 207.423 417.738 206.708 416.98C205.997 416.219 205.641 415.158 205.641 413.799C205.641 412.439 205.997 411.381 206.708 410.623C207.419 409.861 208.384 409.48 209.602 409.48C210.61 409.48 211.415 409.727 212.016 410.219C212.622 410.711 213.036 411.385 213.259 412.24H211.401C211.057 411.479 210.458 411.098 209.602 411.098C208.946 411.098 208.421 411.33 208.026 411.795C207.636 412.26 207.44 412.928 207.44 413.799C207.44 414.67 207.636 415.338 208.026 415.803C208.421 416.268 208.946 416.5 209.602 416.5C210.458 416.5 211.057 416.119 211.401 415.357H213.259C213.036 416.213 212.622 416.887 212.016 417.379C211.415 417.871 210.61 418.117 209.602 418.117ZM214.643 418V411.643H216.324V418H214.643ZM216.166 410.705C215.982 410.889 215.754 410.98 215.48 410.98C215.211 410.98 214.982 410.889 214.795 410.705C214.611 410.521 214.52 410.293 214.52 410.02C214.52 409.746 214.611 409.518 214.795 409.334C214.982 409.15 215.211 409.059 215.48 409.059C215.754 409.059 215.982 409.15 216.166 409.334C216.35 409.518 216.441 409.746 216.441 410.02C216.441 410.293 216.35 410.521 216.166 410.705ZM220.579 418C219.259 418 218.599 417.381 218.599 416.143V413.201H217.579V411.643H218.599L218.839 409.961H220.28V411.643H221.78V413.201H220.28V415.838C220.28 416.014 220.333 416.158 220.439 416.271C220.548 416.385 220.695 416.441 220.878 416.441H221.78V418H220.579ZM224.002 420.402L224.975 418L222.385 411.643H224.243L225.801 415.779H225.854L227.366 411.643H229.223L225.743 420.402H224.002Z" fill="#001A40"/>
<path d="M282.938 411V402.598H286.541C287.389 402.598 288.071 402.85 288.586 403.354C289.102 403.857 289.36 404.525 289.36 405.357C289.36 405.748 289.299 406.107 289.178 406.436C289.061 406.76 288.918 407.014 288.75 407.197C288.582 407.381 288.412 407.539 288.241 407.672C288.069 407.801 287.922 407.887 287.801 407.93L287.62 408L289.659 411H287.62L285.698 408.117H284.743V411H282.938ZM284.743 406.5H286.418C286.754 406.5 287.028 406.398 287.239 406.195C287.454 405.992 287.561 405.715 287.561 405.363C287.561 405.008 287.454 404.729 287.239 404.525C287.028 404.322 286.754 404.221 286.418 404.221H284.743V406.5ZM290.984 413.402V404.643H292.425L292.601 405.357H292.666C293.146 404.799 293.746 404.52 294.464 404.52C295.296 404.52 295.964 404.807 296.468 405.381C296.972 405.951 297.224 406.766 297.224 407.824C297.224 408.879 296.972 409.691 296.468 410.262C295.964 410.832 295.296 411.117 294.464 411.117C293.722 411.117 293.142 410.857 292.724 410.338H292.666V413.402H290.984ZM293.07 409.172C293.343 409.469 293.687 409.617 294.101 409.617C294.519 409.617 294.863 409.469 295.132 409.172C295.406 408.871 295.543 408.422 295.543 407.824C295.543 407.223 295.406 406.771 295.132 406.471C294.863 406.17 294.519 406.02 294.101 406.02C293.687 406.02 293.343 406.17 293.07 406.471C292.8 406.771 292.666 407.223 292.666 407.824C292.666 408.422 292.8 408.871 293.07 409.172ZM303.109 411V405.182H301.434V403.559H302.629C302.949 403.559 303.109 403.398 303.109 403.078V402.598H304.914V411H303.109ZM307.247 411L310.247 404.221H306.345V402.598H312.163V404.221L309.163 411H307.247ZM313.928 410.783C313.745 410.967 313.516 411.059 313.243 411.059C312.973 411.059 312.746 410.967 312.563 410.783C312.379 410.6 312.287 410.373 312.287 410.104C312.287 409.83 312.379 409.602 312.563 409.418C312.746 409.234 312.973 409.143 313.243 409.143C313.516 409.143 313.745 409.234 313.928 409.418C314.112 409.602 314.204 409.83 314.204 410.104C314.204 410.373 314.112 410.6 313.928 410.783ZM321.646 410.016C321.002 410.75 320.123 411.117 319.009 411.117C317.9 411.117 317.023 410.75 316.379 410.016C315.734 409.281 315.412 408.211 315.412 406.805C315.412 405.395 315.734 404.322 316.379 403.588C317.023 402.85 317.9 402.48 319.009 402.48C320.123 402.48 321.002 402.85 321.646 403.588C322.291 404.322 322.613 405.395 322.613 406.805C322.613 408.211 322.291 409.281 321.646 410.016ZM317.726 408.809C318.07 409.27 318.498 409.5 319.009 409.5C319.521 409.5 319.949 409.27 320.293 408.809C320.64 408.348 320.814 407.678 320.814 406.799C320.814 405.92 320.64 405.25 320.293 404.789C319.949 404.328 319.521 404.098 319.009 404.098C318.498 404.098 318.07 404.328 317.726 404.789C317.382 405.25 317.211 405.92 317.211 406.799C317.211 407.678 317.382 408.348 317.726 408.809ZM330.102 410.016C329.458 410.75 328.579 411.117 327.466 411.117C326.356 411.117 325.479 410.75 324.835 410.016C324.19 409.281 323.868 408.211 323.868 406.805C323.868 405.395 324.19 404.322 324.835 403.588C325.479 402.85 326.356 402.48 327.466 402.48C328.579 402.48 329.458 402.85 330.102 403.588C330.747 404.322 331.069 405.395 331.069 406.805C331.069 408.211 330.747 409.281 330.102 410.016ZM326.182 408.809C326.526 409.27 326.954 409.5 327.466 409.5C327.977 409.5 328.405 409.27 328.749 408.809C329.096 408.348 329.27 407.678 329.27 406.799C329.27 405.92 329.096 405.25 328.749 404.789C328.405 404.328 327.977 404.098 327.466 404.098C326.954 404.098 326.526 404.328 326.182 404.789C325.839 405.25 325.667 405.92 325.667 406.799C325.667 407.678 325.839 408.348 326.182 408.809ZM338.559 410.016C337.914 410.75 337.035 411.117 335.922 411.117C334.812 411.117 333.936 410.75 333.291 410.016C332.646 409.281 332.324 408.211 332.324 406.805C332.324 405.395 332.646 404.322 333.291 403.588C333.936 402.85 334.812 402.48 335.922 402.48C337.035 402.48 337.914 402.85 338.559 403.588C339.203 404.322 339.525 405.395 339.525 406.805C339.525 408.211 339.203 409.281 338.559 410.016ZM334.639 408.809C334.982 409.27 335.41 409.5 335.922 409.5C336.434 409.5 336.861 409.27 337.205 408.809C337.553 408.348 337.727 407.678 337.727 406.799C337.727 405.92 337.553 405.25 337.205 404.789C336.861 404.328 336.434 404.098 335.922 404.098C335.41 404.098 334.982 404.328 334.639 404.789C334.295 405.25 334.123 405.92 334.123 406.799C334.123 407.678 334.295 408.348 334.639 408.809Z" fill="#001A40"/>
</g>
<defs>
<filter id="filter0_d_1633_3431" x="22" y="12" width="356" height="464.28" filterUnits="userSpaceOnUse" color-interpolation-filters="sRGB">
<feFlood flood-opacity="0" result="BackgroundImageFix"/>
<feColorMatrix in="SourceAlpha" type="matrix" values="0 0 0 0 0 0 0 0 0 0 0 0 0 0 0 0 0 0 127 0" result="hardAlpha"/>
<feOffset dy="1"/>
<feGaussianBlur stdDeviation="9"/>
<feComposite in2="hardAlpha" operator="out"/>
<feColorMatrix type="matrix" values="0 0 0 0 0 0 0 0 0 0 0 0 0 0 0 0 0 0 0.12 0"/>
<feBlend mode="normal" in2="BackgroundImageFix" result="effect1_dropShadow_1633_3431"/>
<feBlend mode="normal" in="SourceGraphic" in2="effect1_dropShadow_1633_3431" result="shape"/>
</filter>
<linearGradient id="paint0_linear_1633_3431" x1="375" y1="486" x2="20" y2="-2.40891e-05" gradientUnits="userSpaceOnUse">
<stop stop-color="#FFD9E3"/>
<stop offset="0.635417" stop-color="#FFD9E3" stop-opacity="0.541667"/>
<stop offset="1" stop-color="#FFD9E3" stop-opacity="0"/>
</linearGradient>
</defs>
</svg>
