<svg width="40" height="40" viewBox="0 0 40 40" fill="none" xmlns="http://www.w3.org/2000/svg">
<path d="M20.0039 11.4519C15.2744 11.4519 11.4595 15.2667 11.4595 19.9962C11.4595 24.7257 15.2744 28.5405 20.0039 28.5405C24.7334 28.5405 28.5482 24.7257 28.5482 19.9962C28.5482 15.2667 24.7334 11.4519 20.0039 11.4519ZM20.0039 25.5511C16.9476 25.5511 14.4489 23.06 14.4489 19.9962C14.4489 16.9324 16.9401 14.4413 20.0039 14.4413C23.0676 14.4413 25.5588 16.9324 25.5588 19.9962C25.5588 23.06 23.0602 25.5511 20.0039 25.5511V25.5511ZM30.8907 11.1024C30.8907 12.2104 29.9983 13.0953 28.8977 13.0953C27.7897 13.0953 26.9048 12.2029 26.9048 11.1024C26.9048 10.0018 27.7972 9.10942 28.8977 9.10942C29.9983 9.10942 30.8907 10.0018 30.8907 11.1024ZM36.5497 13.125C36.4233 10.4554 35.8135 8.09064 33.8578 6.14232C31.9094 4.19401 29.5447 3.58423 26.875 3.45037C24.1236 3.29421 15.8767 3.29421 13.1253 3.45037C10.4631 3.57679 8.09832 4.18657 6.14257 6.13489C4.18681 8.08321 3.58447 10.448 3.45062 13.1176C3.29446 15.869 3.29446 24.1159 3.45062 26.8674C3.57704 29.537 4.18681 31.9018 6.14257 33.8501C8.09832 35.7984 10.4556 36.4082 13.1253 36.542C15.8767 36.6982 24.1236 36.6982 26.875 36.542C29.5447 36.4156 31.9094 35.8058 33.8578 33.8501C35.8061 31.9018 36.4159 29.537 36.5497 26.8674C36.7059 24.1159 36.7059 15.8765 36.5497 13.125V13.125ZM32.9951 29.8196C32.4151 31.2771 31.2922 32.4 29.8273 32.9875C27.6336 33.8575 22.4281 33.6567 20.0039 33.6567C17.5796 33.6567 12.3668 33.8501 10.1805 32.9875C8.72297 32.4074 7.60009 31.2845 7.01262 29.8196C6.14257 27.6259 6.34335 22.4204 6.34335 19.9962C6.34335 17.572 6.15001 12.3591 7.01262 10.1728C7.59265 8.71529 8.71554 7.59241 10.1805 7.00494C12.3742 6.13489 17.5796 6.33567 20.0039 6.33567C22.4281 6.33567 27.641 6.14232 29.8273 7.00494C31.2848 7.58497 32.4077 8.70786 32.9951 10.1728C33.8652 12.3665 33.6644 17.572 33.6644 19.9962C33.6644 22.4204 33.8652 27.6333 32.9951 29.8196Z" fill="#001A40"/>
</svg>
