<svg width="40" height="40" viewBox="0 0 40 40" fill="none" xmlns="http://www.w3.org/2000/svg">
<path d="M12.7345 10C7.54251 10 3.3335 14.2381 3.3335 19.4655C3.3335 24.693 7.54282 28.931 12.7345 28.931C17.9263 28.931 22.1356 24.6933 22.1356 19.4655C22.1356 14.2378 17.9268 10 12.7345 10ZM27.7476 10.5545C25.1515 10.5545 23.0473 14.5451 23.0473 19.4657C23.0473 24.3863 25.1518 28.3771 27.7479 28.3771C30.344 28.3771 32.4484 24.3866 32.4484 19.4657H32.4481C32.4481 14.5436 30.3439 10.5545 27.7477 10.5545H27.7476ZM35.0135 11.4827C34.1007 11.4827 33.3606 15.057 33.3606 19.4657C33.3606 23.8743 34.1002 27.4487 35.0135 27.4487C35.9268 27.4487 36.6668 23.8734 36.6668 19.4655C36.6668 15.0567 35.9265 11.4827 35.0136 11.4827H35.0135Z" fill="#001A40"/>
</svg>
