<svg width="40" height="40" viewBox="0 0 40 40" fill="none" xmlns="http://www.w3.org/2000/svg">
<path d="M36.6668 19.9999C36.6668 29.2069 29.2072 36.6666 20.0002 36.6666C18.2797 36.6666 16.6265 36.4045 15.0674 35.9206C15.7461 34.8117 16.7609 32.9972 17.1373 31.5523C17.3389 30.7728 18.1722 27.5873 18.1722 27.5873C18.7166 28.6222 20.3026 29.5026 21.9894 29.5026C27.0163 29.5026 30.6386 24.879 30.6386 19.133C30.6386 13.629 26.1426 9.50933 20.3631 9.50933C13.1722 9.50933 9.34828 14.3346 9.34828 19.5967C9.34828 22.0429 10.652 25.0873 12.7287 26.055C13.0445 26.2029 13.2125 26.1357 13.2865 25.8333C13.3402 25.6048 13.6225 24.469 13.7502 23.9448C13.7905 23.7768 13.7703 23.629 13.6359 23.4677C12.9572 22.6276 12.4061 21.0953 12.4061 19.6639C12.4061 15.9878 15.1883 12.4327 19.933 12.4327C24.0257 12.4327 26.8953 15.2217 26.8953 19.2136C26.8953 23.723 24.6171 26.848 21.6534 26.848C20.0203 26.848 18.7905 25.4972 19.187 23.8373C19.6574 21.8548 20.5647 19.7177 20.5647 18.2862C20.5647 17.0093 19.8792 15.9408 18.4545 15.9408C16.7811 15.9408 15.437 17.6679 15.437 19.9865C15.437 21.465 15.9343 22.4596 15.9343 22.4596C15.9343 22.4596 14.2878 29.4354 13.9854 30.7392C13.6494 32.1773 13.7838 34.2069 13.9249 35.5241C7.72866 33.098 3.3335 27.0631 3.3335 19.9999C3.3335 10.7929 10.7932 3.33325 20.0002 3.33325C29.2072 3.33325 36.6668 10.7929 36.6668 19.9999Z" fill="#001A40"/>
</svg>
