<svg width="40" height="40" viewBox="0 0 40 40" fill="none" xmlns="http://www.w3.org/2000/svg">
<path d="M33.2405 13.4135C33.2617 13.7096 33.2617 14.0058 33.2617 14.3019C33.2617 23.3332 26.3878 33.7393 13.8242 33.7393C9.95364 33.7393 6.35805 32.6183 3.3335 30.6725C3.88343 30.7359 4.41215 30.7571 4.98324 30.7571C8.17694 30.7571 11.1169 29.6784 13.4647 27.8383C10.4613 27.7749 7.94432 25.8079 7.07713 23.1006C7.50018 23.164 7.92316 23.2063 8.36737 23.2063C8.98072 23.2063 9.59413 23.1216 10.1652 22.9737C7.03488 22.3391 4.68708 19.5895 4.68708 16.2689V16.1843C5.59653 16.6919 6.65415 17.0092 7.77505 17.0514C5.93494 15.8247 4.7294 13.7308 4.7294 11.3619C4.7294 10.0929 5.06775 8.9296 5.66 7.91436C9.02297 12.0599 14.078 14.7671 19.7463 15.0633C19.6406 14.5557 19.5771 14.0269 19.5771 13.4982C19.5771 9.73331 22.6228 6.6665 26.4088 6.6665C28.3758 6.6665 30.1524 7.49138 31.4003 8.82387C32.9443 8.52777 34.4248 7.95668 35.7362 7.17412C35.2285 8.76046 34.1499 10.0929 32.7328 10.9389C34.1076 10.7909 35.4401 10.4101 36.6668 9.88142C35.7364 11.235 34.573 12.4405 33.2405 13.4135V13.4135Z" fill="#001A40"/>
</svg>
