<svg width="40" height="40" viewBox="0 0 40 40" fill="none" xmlns="http://www.w3.org/2000/svg">
<path d="M35.9703 12.0004C35.5869 10.5569 34.4574 9.4201 33.0233 9.0343C30.4238 8.33325 20.0002 8.33325 20.0002 8.33325C20.0002 8.33325 9.57659 8.33325 6.97705 9.0343C5.5429 9.42016 4.41339 10.5569 4.03003 12.0004C3.3335 14.6168 3.3335 20.0757 3.3335 20.0757C3.3335 20.0757 3.3335 25.5345 4.03003 28.1509C4.41339 29.5944 5.5429 30.6839 6.97705 31.0697C9.57659 31.7707 20.0002 31.7707 20.0002 31.7707C20.0002 31.7707 30.4237 31.7707 33.0233 31.0697C34.4574 30.6839 35.5869 29.5944 35.9703 28.1509C36.6668 25.5345 36.6668 20.0757 36.6668 20.0757C36.6668 20.0757 36.6668 14.6168 35.9703 12.0004V12.0004ZM16.591 25.0319V15.1194L25.3031 20.0758L16.591 25.0319V25.0319Z" fill="#001A40"/>
</svg>
